G04 #@! TF.FileFunction,Legend,Top*
%FSLAX46Y46*%
G04 Gerber Fmt 4.6, Leading zero omitted, Abs format (unit mm)*
G04 Created by KiCad (PCBNEW 4.0.6) date 10/01/17 10:19:26*
%MOMM*%
%LPD*%
G01*
G04 APERTURE LIST*
%ADD10C,0.100000*%
%ADD11C,0.150000*%
%ADD12C,0.125000*%
%ADD13C,0.300000*%
%ADD14C,0.225000*%
%ADD15C,0.120000*%
%ADD16C,0.010000*%
%ADD17C,0.075000*%
G04 APERTURE END LIST*
D10*
D11*
X153800000Y-112271429D02*
X153800000Y-111671429D01*
X154028572Y-111671429D01*
X154085714Y-111700000D01*
X154114286Y-111728571D01*
X154142857Y-111785714D01*
X154142857Y-111871429D01*
X154114286Y-111928571D01*
X154085714Y-111957143D01*
X154028572Y-111985714D01*
X153800000Y-111985714D01*
X154371429Y-112100000D02*
X154657143Y-112100000D01*
X154314286Y-112271429D02*
X154514286Y-111671429D01*
X154714286Y-112271429D01*
X155028572Y-111671429D02*
X155085715Y-111671429D01*
X155142858Y-111700000D01*
X155171429Y-111728571D01*
X155200000Y-111785714D01*
X155228572Y-111900000D01*
X155228572Y-112042857D01*
X155200000Y-112157143D01*
X155171429Y-112214286D01*
X155142858Y-112242857D01*
X155085715Y-112271429D01*
X155028572Y-112271429D01*
X154971429Y-112242857D01*
X154942858Y-112214286D01*
X154914286Y-112157143D01*
X154885715Y-112042857D01*
X154885715Y-111900000D01*
X154914286Y-111785714D01*
X154942858Y-111728571D01*
X154971429Y-111700000D01*
X155028572Y-111671429D01*
X151200000Y-112271429D02*
X151200000Y-111671429D01*
X151428572Y-111671429D01*
X151485714Y-111700000D01*
X151514286Y-111728571D01*
X151542857Y-111785714D01*
X151542857Y-111871429D01*
X151514286Y-111928571D01*
X151485714Y-111957143D01*
X151428572Y-111985714D01*
X151200000Y-111985714D01*
X151742857Y-111671429D02*
X151885714Y-112271429D01*
X152000000Y-111842857D01*
X152114286Y-112271429D01*
X152257143Y-111671429D01*
X152828571Y-112271429D02*
X152628571Y-111985714D01*
X152485714Y-112271429D02*
X152485714Y-111671429D01*
X152714286Y-111671429D01*
X152771428Y-111700000D01*
X152800000Y-111728571D01*
X152828571Y-111785714D01*
X152828571Y-111871429D01*
X152800000Y-111928571D01*
X152771428Y-111957143D01*
X152714286Y-111985714D01*
X152485714Y-111985714D01*
D12*
X158701190Y-111321428D02*
X159105952Y-111321428D01*
X159153571Y-111297619D01*
X159177381Y-111273809D01*
X159201190Y-111226190D01*
X159201190Y-111130952D01*
X159177381Y-111083333D01*
X159153571Y-111059524D01*
X159105952Y-111035714D01*
X158701190Y-111035714D01*
X159177381Y-110821428D02*
X159201190Y-110749999D01*
X159201190Y-110630952D01*
X159177381Y-110583333D01*
X159153571Y-110559523D01*
X159105952Y-110535714D01*
X159058333Y-110535714D01*
X159010714Y-110559523D01*
X158986905Y-110583333D01*
X158963095Y-110630952D01*
X158939286Y-110726190D01*
X158915476Y-110773809D01*
X158891667Y-110797618D01*
X158844048Y-110821428D01*
X158796429Y-110821428D01*
X158748810Y-110797618D01*
X158725000Y-110773809D01*
X158701190Y-110726190D01*
X158701190Y-110607142D01*
X158725000Y-110535714D01*
X158939286Y-110154762D02*
X158963095Y-110083333D01*
X158986905Y-110059524D01*
X159034524Y-110035714D01*
X159105952Y-110035714D01*
X159153571Y-110059524D01*
X159177381Y-110083333D01*
X159201190Y-110130952D01*
X159201190Y-110321428D01*
X158701190Y-110321428D01*
X158701190Y-110154762D01*
X158725000Y-110107143D01*
X158748810Y-110083333D01*
X158796429Y-110059524D01*
X158844048Y-110059524D01*
X158891667Y-110083333D01*
X158915476Y-110107143D01*
X158939286Y-110154762D01*
X158939286Y-110321428D01*
X159201190Y-109440476D02*
X158701190Y-109440476D01*
X159058333Y-109273810D01*
X158701190Y-109107143D01*
X159201190Y-109107143D01*
X159201190Y-108797619D02*
X159177381Y-108845238D01*
X159153571Y-108869047D01*
X159105952Y-108892857D01*
X158963095Y-108892857D01*
X158915476Y-108869047D01*
X158891667Y-108845238D01*
X158867857Y-108797619D01*
X158867857Y-108726190D01*
X158891667Y-108678571D01*
X158915476Y-108654762D01*
X158963095Y-108630952D01*
X159105952Y-108630952D01*
X159153571Y-108654762D01*
X159177381Y-108678571D01*
X159201190Y-108726190D01*
X159201190Y-108797619D01*
X159201190Y-108202381D02*
X158701190Y-108202381D01*
X159177381Y-108202381D02*
X159201190Y-108250000D01*
X159201190Y-108345238D01*
X159177381Y-108392857D01*
X159153571Y-108416666D01*
X159105952Y-108440476D01*
X158963095Y-108440476D01*
X158915476Y-108416666D01*
X158891667Y-108392857D01*
X158867857Y-108345238D01*
X158867857Y-108250000D01*
X158891667Y-108202381D01*
X158867857Y-107750000D02*
X159201190Y-107750000D01*
X158867857Y-107964285D02*
X159129762Y-107964285D01*
X159177381Y-107940476D01*
X159201190Y-107892857D01*
X159201190Y-107821428D01*
X159177381Y-107773809D01*
X159153571Y-107750000D01*
X159201190Y-107440476D02*
X159177381Y-107488095D01*
X159129762Y-107511904D01*
X158701190Y-107511904D01*
X159177381Y-107059523D02*
X159201190Y-107107142D01*
X159201190Y-107202380D01*
X159177381Y-107249999D01*
X159129762Y-107273809D01*
X158939286Y-107273809D01*
X158891667Y-107249999D01*
X158867857Y-107202380D01*
X158867857Y-107107142D01*
X158891667Y-107059523D01*
X158939286Y-107035714D01*
X158986905Y-107035714D01*
X159034524Y-107273809D01*
X160052381Y-111964283D02*
X160076190Y-111892854D01*
X160076190Y-111773807D01*
X160052381Y-111726188D01*
X160028571Y-111702378D01*
X159980952Y-111678569D01*
X159933333Y-111678569D01*
X159885714Y-111702378D01*
X159861905Y-111726188D01*
X159838095Y-111773807D01*
X159814286Y-111869045D01*
X159790476Y-111916664D01*
X159766667Y-111940473D01*
X159719048Y-111964283D01*
X159671429Y-111964283D01*
X159623810Y-111940473D01*
X159600000Y-111916664D01*
X159576190Y-111869045D01*
X159576190Y-111749997D01*
X159600000Y-111678569D01*
X159576190Y-111535712D02*
X159576190Y-111249998D01*
X160076190Y-111392855D02*
X159576190Y-111392855D01*
X160076190Y-111083331D02*
X159576190Y-111083331D01*
X159933333Y-110916665D01*
X159576190Y-110749998D01*
X160076190Y-110749998D01*
X159576190Y-110559521D02*
X159576190Y-110249998D01*
X159766667Y-110416664D01*
X159766667Y-110345236D01*
X159790476Y-110297617D01*
X159814286Y-110273807D01*
X159861905Y-110249998D01*
X159980952Y-110249998D01*
X160028571Y-110273807D01*
X160052381Y-110297617D01*
X160076190Y-110345236D01*
X160076190Y-110488093D01*
X160052381Y-110535712D01*
X160028571Y-110559521D01*
X159623810Y-110059522D02*
X159600000Y-110035712D01*
X159576190Y-109988093D01*
X159576190Y-109869046D01*
X159600000Y-109821427D01*
X159623810Y-109797617D01*
X159671429Y-109773808D01*
X159719048Y-109773808D01*
X159790476Y-109797617D01*
X160076190Y-110083331D01*
X160076190Y-109773808D01*
X159814286Y-109392856D02*
X159814286Y-109559522D01*
X160076190Y-109559522D02*
X159576190Y-109559522D01*
X159576190Y-109321427D01*
X159576190Y-109035713D02*
X159576190Y-108988094D01*
X159600000Y-108940475D01*
X159623810Y-108916666D01*
X159671429Y-108892856D01*
X159766667Y-108869047D01*
X159885714Y-108869047D01*
X159980952Y-108892856D01*
X160028571Y-108916666D01*
X160052381Y-108940475D01*
X160076190Y-108988094D01*
X160076190Y-109035713D01*
X160052381Y-109083332D01*
X160028571Y-109107142D01*
X159980952Y-109130951D01*
X159885714Y-109154761D01*
X159766667Y-109154761D01*
X159671429Y-109130951D01*
X159623810Y-109107142D01*
X159600000Y-109083332D01*
X159576190Y-109035713D01*
X159742857Y-108440476D02*
X160076190Y-108440476D01*
X159552381Y-108559523D02*
X159909524Y-108678571D01*
X159909524Y-108369047D01*
X159623810Y-108202381D02*
X159600000Y-108178571D01*
X159576190Y-108130952D01*
X159576190Y-108011905D01*
X159600000Y-107964286D01*
X159623810Y-107940476D01*
X159671429Y-107916667D01*
X159719048Y-107916667D01*
X159790476Y-107940476D01*
X160076190Y-108226190D01*
X160076190Y-107916667D01*
X159814286Y-107535715D02*
X159814286Y-107702381D01*
X160076190Y-107702381D02*
X159576190Y-107702381D01*
X159576190Y-107464286D01*
X159576190Y-107059525D02*
X159576190Y-107154763D01*
X159600000Y-107202382D01*
X159623810Y-107226191D01*
X159695238Y-107273810D01*
X159790476Y-107297620D01*
X159980952Y-107297620D01*
X160028571Y-107273810D01*
X160052381Y-107250001D01*
X160076190Y-107202382D01*
X160076190Y-107107144D01*
X160052381Y-107059525D01*
X160028571Y-107035715D01*
X159980952Y-107011906D01*
X159861905Y-107011906D01*
X159814286Y-107035715D01*
X159790476Y-107059525D01*
X159766667Y-107107144D01*
X159766667Y-107202382D01*
X159790476Y-107250001D01*
X159814286Y-107273810D01*
X159861905Y-107297620D01*
X160076190Y-106797620D02*
X159576190Y-106797620D01*
X159576190Y-106607144D01*
X159600000Y-106559525D01*
X159623810Y-106535716D01*
X159671429Y-106511906D01*
X159742857Y-106511906D01*
X159790476Y-106535716D01*
X159814286Y-106559525D01*
X159838095Y-106607144D01*
X159838095Y-106797620D01*
X159576190Y-106083335D02*
X159576190Y-106178573D01*
X159600000Y-106226192D01*
X159623810Y-106250001D01*
X159695238Y-106297620D01*
X159790476Y-106321430D01*
X159980952Y-106321430D01*
X160028571Y-106297620D01*
X160052381Y-106273811D01*
X160076190Y-106226192D01*
X160076190Y-106130954D01*
X160052381Y-106083335D01*
X160028571Y-106059525D01*
X159980952Y-106035716D01*
X159861905Y-106035716D01*
X159814286Y-106059525D01*
X159790476Y-106083335D01*
X159766667Y-106130954D01*
X159766667Y-106226192D01*
X159790476Y-106273811D01*
X159814286Y-106297620D01*
X159861905Y-106321430D01*
X160927381Y-110726189D02*
X160951190Y-110654760D01*
X160951190Y-110535713D01*
X160927381Y-110488094D01*
X160903571Y-110464284D01*
X160855952Y-110440475D01*
X160808333Y-110440475D01*
X160760714Y-110464284D01*
X160736905Y-110488094D01*
X160713095Y-110535713D01*
X160689286Y-110630951D01*
X160665476Y-110678570D01*
X160641667Y-110702379D01*
X160594048Y-110726189D01*
X160546429Y-110726189D01*
X160498810Y-110702379D01*
X160475000Y-110678570D01*
X160451190Y-110630951D01*
X160451190Y-110511903D01*
X160475000Y-110440475D01*
X160927381Y-110035713D02*
X160951190Y-110083332D01*
X160951190Y-110178570D01*
X160927381Y-110226189D01*
X160879762Y-110249999D01*
X160689286Y-110249999D01*
X160641667Y-110226189D01*
X160617857Y-110178570D01*
X160617857Y-110083332D01*
X160641667Y-110035713D01*
X160689286Y-110011904D01*
X160736905Y-110011904D01*
X160784524Y-110249999D01*
X160617857Y-109797618D02*
X161117857Y-109797618D01*
X160641667Y-109797618D02*
X160617857Y-109749999D01*
X160617857Y-109654761D01*
X160641667Y-109607142D01*
X160665476Y-109583333D01*
X160713095Y-109559523D01*
X160855952Y-109559523D01*
X160903571Y-109583333D01*
X160927381Y-109607142D01*
X160951190Y-109654761D01*
X160951190Y-109749999D01*
X160927381Y-109797618D01*
X160498810Y-108988095D02*
X160475000Y-108964285D01*
X160451190Y-108916666D01*
X160451190Y-108797619D01*
X160475000Y-108750000D01*
X160498810Y-108726190D01*
X160546429Y-108702381D01*
X160594048Y-108702381D01*
X160665476Y-108726190D01*
X160951190Y-109011904D01*
X160951190Y-108702381D01*
X160451190Y-108392857D02*
X160451190Y-108345238D01*
X160475000Y-108297619D01*
X160498810Y-108273810D01*
X160546429Y-108250000D01*
X160641667Y-108226191D01*
X160760714Y-108226191D01*
X160855952Y-108250000D01*
X160903571Y-108273810D01*
X160927381Y-108297619D01*
X160951190Y-108345238D01*
X160951190Y-108392857D01*
X160927381Y-108440476D01*
X160903571Y-108464286D01*
X160855952Y-108488095D01*
X160760714Y-108511905D01*
X160641667Y-108511905D01*
X160546429Y-108488095D01*
X160498810Y-108464286D01*
X160475000Y-108440476D01*
X160451190Y-108392857D01*
X160951190Y-107750001D02*
X160951190Y-108035715D01*
X160951190Y-107892858D02*
X160451190Y-107892858D01*
X160522619Y-107940477D01*
X160570238Y-107988096D01*
X160594048Y-108035715D01*
X160451190Y-107583334D02*
X160451190Y-107250001D01*
X160951190Y-107464287D01*
D10*
X137340952Y-120202286D02*
X136940952Y-120202286D01*
X137340952Y-119973714D01*
X136940952Y-119973714D01*
X137302857Y-119554666D02*
X137321905Y-119573714D01*
X137340952Y-119630857D01*
X137340952Y-119668952D01*
X137321905Y-119726095D01*
X137283810Y-119764190D01*
X137245714Y-119783238D01*
X137169524Y-119802286D01*
X137112381Y-119802286D01*
X137036190Y-119783238D01*
X136998095Y-119764190D01*
X136960000Y-119726095D01*
X136940952Y-119668952D01*
X136940952Y-119630857D01*
X136960000Y-119573714D01*
X136979048Y-119554666D01*
D12*
X151399906Y-114669095D02*
X151399906Y-114907190D01*
X151233239Y-114407190D02*
X151399906Y-114669095D01*
X151566572Y-114407190D01*
X151995143Y-114907190D02*
X151709429Y-114907190D01*
X151852286Y-114907190D02*
X151852286Y-114407190D01*
X151804667Y-114478619D01*
X151757048Y-114526238D01*
X151709429Y-114550048D01*
D13*
X141990001Y-102786571D02*
X141490001Y-102072286D01*
X141132858Y-102786571D02*
X141132858Y-101286571D01*
X141704286Y-101286571D01*
X141847144Y-101358000D01*
X141918572Y-101429429D01*
X141990001Y-101572286D01*
X141990001Y-101786571D01*
X141918572Y-101929429D01*
X141847144Y-102000857D01*
X141704286Y-102072286D01*
X141132858Y-102072286D01*
X142561429Y-101429429D02*
X142632858Y-101358000D01*
X142775715Y-101286571D01*
X143132858Y-101286571D01*
X143275715Y-101358000D01*
X143347144Y-101429429D01*
X143418572Y-101572286D01*
X143418572Y-101715143D01*
X143347144Y-101929429D01*
X142490001Y-102786571D01*
X143418572Y-102786571D01*
X141990001Y-99230571D02*
X141490001Y-98516286D01*
X141132858Y-99230571D02*
X141132858Y-97730571D01*
X141704286Y-97730571D01*
X141847144Y-97802000D01*
X141918572Y-97873429D01*
X141990001Y-98016286D01*
X141990001Y-98230571D01*
X141918572Y-98373429D01*
X141847144Y-98444857D01*
X141704286Y-98516286D01*
X141132858Y-98516286D01*
X143418572Y-99230571D02*
X142561429Y-99230571D01*
X142990001Y-99230571D02*
X142990001Y-97730571D01*
X142847144Y-97944857D01*
X142704286Y-98087714D01*
X142561429Y-98159143D01*
D10*
X138433524Y-112956952D02*
X138433524Y-112556952D01*
X138585905Y-112556952D01*
X138624000Y-112576000D01*
X138643048Y-112595048D01*
X138662096Y-112633143D01*
X138662096Y-112690286D01*
X138643048Y-112728381D01*
X138624000Y-112747429D01*
X138585905Y-112766476D01*
X138433524Y-112766476D01*
X139062096Y-112956952D02*
X138928762Y-112766476D01*
X138833524Y-112956952D02*
X138833524Y-112556952D01*
X138985905Y-112556952D01*
X139024000Y-112576000D01*
X139043048Y-112595048D01*
X139062096Y-112633143D01*
X139062096Y-112690286D01*
X139043048Y-112728381D01*
X139024000Y-112747429D01*
X138985905Y-112766476D01*
X138833524Y-112766476D01*
X139233524Y-112747429D02*
X139366857Y-112747429D01*
X139424000Y-112956952D02*
X139233524Y-112956952D01*
X139233524Y-112556952D01*
X139424000Y-112556952D01*
X139576381Y-112937905D02*
X139633524Y-112956952D01*
X139728762Y-112956952D01*
X139766858Y-112937905D01*
X139785905Y-112918857D01*
X139804953Y-112880762D01*
X139804953Y-112842667D01*
X139785905Y-112804571D01*
X139766858Y-112785524D01*
X139728762Y-112766476D01*
X139652572Y-112747429D01*
X139614477Y-112728381D01*
X139595429Y-112709333D01*
X139576381Y-112671238D01*
X139576381Y-112633143D01*
X139595429Y-112595048D01*
X139614477Y-112576000D01*
X139652572Y-112556952D01*
X139747810Y-112556952D01*
X139804953Y-112576000D01*
X139957333Y-112937905D02*
X140014476Y-112956952D01*
X140109714Y-112956952D01*
X140147810Y-112937905D01*
X140166857Y-112918857D01*
X140185905Y-112880762D01*
X140185905Y-112842667D01*
X140166857Y-112804571D01*
X140147810Y-112785524D01*
X140109714Y-112766476D01*
X140033524Y-112747429D01*
X139995429Y-112728381D01*
X139976381Y-112709333D01*
X139957333Y-112671238D01*
X139957333Y-112633143D01*
X139976381Y-112595048D01*
X139995429Y-112576000D01*
X140033524Y-112556952D01*
X140128762Y-112556952D01*
X140185905Y-112576000D01*
X140357333Y-112556952D02*
X140357333Y-112880762D01*
X140376381Y-112918857D01*
X140395428Y-112937905D01*
X140433524Y-112956952D01*
X140509714Y-112956952D01*
X140547809Y-112937905D01*
X140566857Y-112918857D01*
X140585905Y-112880762D01*
X140585905Y-112556952D01*
X141004953Y-112956952D02*
X140871619Y-112766476D01*
X140776381Y-112956952D02*
X140776381Y-112556952D01*
X140928762Y-112556952D01*
X140966857Y-112576000D01*
X140985905Y-112595048D01*
X141004953Y-112633143D01*
X141004953Y-112690286D01*
X140985905Y-112728381D01*
X140966857Y-112747429D01*
X140928762Y-112766476D01*
X140776381Y-112766476D01*
X141176381Y-112747429D02*
X141309714Y-112747429D01*
X141366857Y-112956952D02*
X141176381Y-112956952D01*
X141176381Y-112556952D01*
X141366857Y-112556952D01*
X141824000Y-112937905D02*
X141881143Y-112956952D01*
X141976381Y-112956952D01*
X142014477Y-112937905D01*
X142033524Y-112918857D01*
X142052572Y-112880762D01*
X142052572Y-112842667D01*
X142033524Y-112804571D01*
X142014477Y-112785524D01*
X141976381Y-112766476D01*
X141900191Y-112747429D01*
X141862096Y-112728381D01*
X141843048Y-112709333D01*
X141824000Y-112671238D01*
X141824000Y-112633143D01*
X141843048Y-112595048D01*
X141862096Y-112576000D01*
X141900191Y-112556952D01*
X141995429Y-112556952D01*
X142052572Y-112576000D01*
X142224000Y-112747429D02*
X142357333Y-112747429D01*
X142414476Y-112956952D02*
X142224000Y-112956952D01*
X142224000Y-112556952D01*
X142414476Y-112556952D01*
X142585905Y-112956952D02*
X142585905Y-112556952D01*
X142814477Y-112956952D01*
X142814477Y-112556952D01*
X142985905Y-112937905D02*
X143043048Y-112956952D01*
X143138286Y-112956952D01*
X143176382Y-112937905D01*
X143195429Y-112918857D01*
X143214477Y-112880762D01*
X143214477Y-112842667D01*
X143195429Y-112804571D01*
X143176382Y-112785524D01*
X143138286Y-112766476D01*
X143062096Y-112747429D01*
X143024001Y-112728381D01*
X143004953Y-112709333D01*
X142985905Y-112671238D01*
X142985905Y-112633143D01*
X143004953Y-112595048D01*
X143024001Y-112576000D01*
X143062096Y-112556952D01*
X143157334Y-112556952D01*
X143214477Y-112576000D01*
X143462096Y-112556952D02*
X143538286Y-112556952D01*
X143576381Y-112576000D01*
X143614477Y-112614095D01*
X143633524Y-112690286D01*
X143633524Y-112823619D01*
X143614477Y-112899810D01*
X143576381Y-112937905D01*
X143538286Y-112956952D01*
X143462096Y-112956952D01*
X143424000Y-112937905D01*
X143385905Y-112899810D01*
X143366857Y-112823619D01*
X143366857Y-112690286D01*
X143385905Y-112614095D01*
X143424000Y-112576000D01*
X143462096Y-112556952D01*
X144033525Y-112956952D02*
X143900191Y-112766476D01*
X143804953Y-112956952D02*
X143804953Y-112556952D01*
X143957334Y-112556952D01*
X143995429Y-112576000D01*
X144014477Y-112595048D01*
X144033525Y-112633143D01*
X144033525Y-112690286D01*
X144014477Y-112728381D01*
X143995429Y-112747429D01*
X143957334Y-112766476D01*
X143804953Y-112766476D01*
D12*
X137362381Y-118855952D02*
X137386190Y-118784523D01*
X137386190Y-118665476D01*
X137362381Y-118617857D01*
X137338571Y-118594047D01*
X137290952Y-118570238D01*
X137243333Y-118570238D01*
X137195714Y-118594047D01*
X137171905Y-118617857D01*
X137148095Y-118665476D01*
X137124286Y-118760714D01*
X137100476Y-118808333D01*
X137076667Y-118832142D01*
X137029048Y-118855952D01*
X136981429Y-118855952D01*
X136933810Y-118832142D01*
X136910000Y-118808333D01*
X136886190Y-118760714D01*
X136886190Y-118641666D01*
X136910000Y-118570238D01*
X136886190Y-118403571D02*
X137386190Y-118284524D01*
X137029048Y-118189286D01*
X137386190Y-118094048D01*
X136886190Y-117975000D01*
X137386190Y-117784523D02*
X136886190Y-117784523D01*
X136886190Y-117665476D01*
X136910000Y-117594047D01*
X136957619Y-117546428D01*
X137005238Y-117522619D01*
X137100476Y-117498809D01*
X137171905Y-117498809D01*
X137267143Y-117522619D01*
X137314762Y-117546428D01*
X137362381Y-117594047D01*
X137386190Y-117665476D01*
X137386190Y-117784523D01*
X137338571Y-116998809D02*
X137362381Y-117022619D01*
X137386190Y-117094047D01*
X137386190Y-117141666D01*
X137362381Y-117213095D01*
X137314762Y-117260714D01*
X137267143Y-117284523D01*
X137171905Y-117308333D01*
X137100476Y-117308333D01*
X137005238Y-117284523D01*
X136957619Y-117260714D01*
X136910000Y-117213095D01*
X136886190Y-117141666D01*
X136886190Y-117094047D01*
X136910000Y-117022619D01*
X136933810Y-116998809D01*
X137386190Y-116546428D02*
X137386190Y-116784523D01*
X136886190Y-116784523D01*
X137386190Y-116379761D02*
X136886190Y-116379761D01*
X137386190Y-116094047D02*
X137100476Y-116308333D01*
X136886190Y-116094047D02*
X137171905Y-116379761D01*
X137362381Y-115359524D02*
X137386190Y-115288095D01*
X137386190Y-115169048D01*
X137362381Y-115121429D01*
X137338571Y-115097619D01*
X137290952Y-115073810D01*
X137243333Y-115073810D01*
X137195714Y-115097619D01*
X137171905Y-115121429D01*
X137148095Y-115169048D01*
X137124286Y-115264286D01*
X137100476Y-115311905D01*
X137076667Y-115335714D01*
X137029048Y-115359524D01*
X136981429Y-115359524D01*
X136933810Y-115335714D01*
X136910000Y-115311905D01*
X136886190Y-115264286D01*
X136886190Y-115145238D01*
X136910000Y-115073810D01*
X136886190Y-114907143D02*
X137386190Y-114788096D01*
X137029048Y-114692858D01*
X137386190Y-114597620D01*
X136886190Y-114478572D01*
X137386190Y-114288095D02*
X136886190Y-114288095D01*
X136886190Y-114169048D01*
X136910000Y-114097619D01*
X136957619Y-114050000D01*
X137005238Y-114026191D01*
X137100476Y-114002381D01*
X137171905Y-114002381D01*
X137267143Y-114026191D01*
X137314762Y-114050000D01*
X137362381Y-114097619D01*
X137386190Y-114169048D01*
X137386190Y-114288095D01*
X137386190Y-113788095D02*
X136886190Y-113788095D01*
X136886190Y-113454762D02*
X136886190Y-113359524D01*
X136910000Y-113311905D01*
X136957619Y-113264286D01*
X137052857Y-113240477D01*
X137219524Y-113240477D01*
X137314762Y-113264286D01*
X137362381Y-113311905D01*
X137386190Y-113359524D01*
X137386190Y-113454762D01*
X137362381Y-113502381D01*
X137314762Y-113550000D01*
X137219524Y-113573810D01*
X137052857Y-113573810D01*
X136957619Y-113550000D01*
X136910000Y-113502381D01*
X136886190Y-113454762D01*
D11*
X129082858Y-119715000D02*
X129025715Y-119686429D01*
X128940001Y-119686429D01*
X128854286Y-119715000D01*
X128797144Y-119772143D01*
X128768572Y-119829286D01*
X128740001Y-119943571D01*
X128740001Y-120029286D01*
X128768572Y-120143571D01*
X128797144Y-120200714D01*
X128854286Y-120257857D01*
X128940001Y-120286429D01*
X128997144Y-120286429D01*
X129082858Y-120257857D01*
X129111429Y-120229286D01*
X129111429Y-120029286D01*
X128997144Y-120029286D01*
X129368572Y-120286429D02*
X129368572Y-119686429D01*
X129711429Y-120286429D01*
X129711429Y-119686429D01*
X129997143Y-120286429D02*
X129997143Y-119686429D01*
X130140000Y-119686429D01*
X130225715Y-119715000D01*
X130282857Y-119772143D01*
X130311429Y-119829286D01*
X130340000Y-119943571D01*
X130340000Y-120029286D01*
X130311429Y-120143571D01*
X130282857Y-120200714D01*
X130225715Y-120257857D01*
X130140000Y-120286429D01*
X129997143Y-120286429D01*
X128554286Y-117746429D02*
X128554286Y-117146429D01*
X128897143Y-117746429D01*
X128897143Y-117146429D01*
X129525714Y-117746429D02*
X129325714Y-117460714D01*
X129182857Y-117746429D02*
X129182857Y-117146429D01*
X129411429Y-117146429D01*
X129468571Y-117175000D01*
X129497143Y-117203571D01*
X129525714Y-117260714D01*
X129525714Y-117346429D01*
X129497143Y-117403571D01*
X129468571Y-117432143D01*
X129411429Y-117460714D01*
X129182857Y-117460714D01*
X129754286Y-117717857D02*
X129840000Y-117746429D01*
X129982857Y-117746429D01*
X130040000Y-117717857D01*
X130068571Y-117689286D01*
X130097143Y-117632143D01*
X130097143Y-117575000D01*
X130068571Y-117517857D01*
X130040000Y-117489286D01*
X129982857Y-117460714D01*
X129868571Y-117432143D01*
X129811429Y-117403571D01*
X129782857Y-117375000D01*
X129754286Y-117317857D01*
X129754286Y-117260714D01*
X129782857Y-117203571D01*
X129811429Y-117175000D01*
X129868571Y-117146429D01*
X130011429Y-117146429D01*
X130097143Y-117175000D01*
X130268572Y-117146429D02*
X130611429Y-117146429D01*
X130440000Y-117746429D02*
X130440000Y-117146429D01*
X127923810Y-118457143D02*
X127961905Y-118314286D01*
X127961905Y-118076190D01*
X127923810Y-117980952D01*
X127885714Y-117933333D01*
X127809524Y-117885714D01*
X127733333Y-117885714D01*
X127657143Y-117933333D01*
X127619048Y-117980952D01*
X127580952Y-118076190D01*
X127542857Y-118266667D01*
X127504762Y-118361905D01*
X127466667Y-118409524D01*
X127390476Y-118457143D01*
X127314286Y-118457143D01*
X127238095Y-118409524D01*
X127200000Y-118361905D01*
X127161905Y-118266667D01*
X127161905Y-118028571D01*
X127200000Y-117885714D01*
X127161905Y-117552381D02*
X127961905Y-117314286D01*
X127390476Y-117123809D01*
X127961905Y-116933333D01*
X127161905Y-116695238D01*
X127961905Y-116314286D02*
X127161905Y-116314286D01*
X127161905Y-116076191D01*
X127200000Y-115933333D01*
X127276190Y-115838095D01*
X127352381Y-115790476D01*
X127504762Y-115742857D01*
X127619048Y-115742857D01*
X127771429Y-115790476D01*
X127847619Y-115838095D01*
X127923810Y-115933333D01*
X127961905Y-116076191D01*
X127961905Y-116314286D01*
D13*
X129968572Y-114978571D02*
X129111429Y-114978571D01*
X129540001Y-114978571D02*
X129540001Y-113478571D01*
X129397144Y-113692857D01*
X129254286Y-113835714D01*
X129111429Y-113907143D01*
D12*
X125116668Y-120026190D02*
X125116668Y-119526190D01*
X125307144Y-119526190D01*
X125354763Y-119550000D01*
X125378572Y-119573810D01*
X125402382Y-119621429D01*
X125402382Y-119692857D01*
X125378572Y-119740476D01*
X125354763Y-119764286D01*
X125307144Y-119788095D01*
X125116668Y-119788095D01*
X125783334Y-119764286D02*
X125616668Y-119764286D01*
X125616668Y-120026190D02*
X125616668Y-119526190D01*
X125854763Y-119526190D01*
X126307143Y-120026190D02*
X126021429Y-120026190D01*
X126164286Y-120026190D02*
X126164286Y-119526190D01*
X126116667Y-119597619D01*
X126069048Y-119645238D01*
X126021429Y-119669048D01*
X125116668Y-117426190D02*
X125116668Y-116926190D01*
X125307144Y-116926190D01*
X125354763Y-116950000D01*
X125378572Y-116973810D01*
X125402382Y-117021429D01*
X125402382Y-117092857D01*
X125378572Y-117140476D01*
X125354763Y-117164286D01*
X125307144Y-117188095D01*
X125116668Y-117188095D01*
X125783334Y-117164286D02*
X125616668Y-117164286D01*
X125616668Y-117426190D02*
X125616668Y-116926190D01*
X125854763Y-116926190D01*
X126140477Y-116926190D02*
X126188096Y-116926190D01*
X126235715Y-116950000D01*
X126259524Y-116973810D01*
X126283334Y-117021429D01*
X126307143Y-117116667D01*
X126307143Y-117235714D01*
X126283334Y-117330952D01*
X126259524Y-117378571D01*
X126235715Y-117402381D01*
X126188096Y-117426190D01*
X126140477Y-117426190D01*
X126092858Y-117402381D01*
X126069048Y-117378571D01*
X126045239Y-117330952D01*
X126021429Y-117235714D01*
X126021429Y-117116667D01*
X126045239Y-117021429D01*
X126069048Y-116973810D01*
X126092858Y-116950000D01*
X126140477Y-116926190D01*
X125180953Y-114826190D02*
X125180953Y-114326190D01*
X125371429Y-114326190D01*
X125419048Y-114350000D01*
X125442857Y-114373810D01*
X125466667Y-114421429D01*
X125466667Y-114492857D01*
X125442857Y-114540476D01*
X125419048Y-114564286D01*
X125371429Y-114588095D01*
X125180953Y-114588095D01*
X125847619Y-114564286D02*
X125919048Y-114588095D01*
X125942857Y-114611905D01*
X125966667Y-114659524D01*
X125966667Y-114730952D01*
X125942857Y-114778571D01*
X125919048Y-114802381D01*
X125871429Y-114826190D01*
X125680953Y-114826190D01*
X125680953Y-114326190D01*
X125847619Y-114326190D01*
X125895238Y-114350000D01*
X125919048Y-114373810D01*
X125942857Y-114421429D01*
X125942857Y-114469048D01*
X125919048Y-114516667D01*
X125895238Y-114540476D01*
X125847619Y-114564286D01*
X125680953Y-114564286D01*
X126252381Y-114540476D02*
X126204762Y-114516667D01*
X126180953Y-114492857D01*
X126157143Y-114445238D01*
X126157143Y-114421429D01*
X126180953Y-114373810D01*
X126204762Y-114350000D01*
X126252381Y-114326190D01*
X126347619Y-114326190D01*
X126395238Y-114350000D01*
X126419048Y-114373810D01*
X126442857Y-114421429D01*
X126442857Y-114445238D01*
X126419048Y-114492857D01*
X126395238Y-114516667D01*
X126347619Y-114540476D01*
X126252381Y-114540476D01*
X126204762Y-114564286D01*
X126180953Y-114588095D01*
X126157143Y-114635714D01*
X126157143Y-114730952D01*
X126180953Y-114778571D01*
X126204762Y-114802381D01*
X126252381Y-114826190D01*
X126347619Y-114826190D01*
X126395238Y-114802381D01*
X126419048Y-114778571D01*
X126442857Y-114730952D01*
X126442857Y-114635714D01*
X126419048Y-114588095D01*
X126395238Y-114564286D01*
X126347619Y-114540476D01*
X125180953Y-112326190D02*
X125180953Y-111826190D01*
X125371429Y-111826190D01*
X125419048Y-111850000D01*
X125442857Y-111873810D01*
X125466667Y-111921429D01*
X125466667Y-111992857D01*
X125442857Y-112040476D01*
X125419048Y-112064286D01*
X125371429Y-112088095D01*
X125180953Y-112088095D01*
X125847619Y-112064286D02*
X125919048Y-112088095D01*
X125942857Y-112111905D01*
X125966667Y-112159524D01*
X125966667Y-112230952D01*
X125942857Y-112278571D01*
X125919048Y-112302381D01*
X125871429Y-112326190D01*
X125680953Y-112326190D01*
X125680953Y-111826190D01*
X125847619Y-111826190D01*
X125895238Y-111850000D01*
X125919048Y-111873810D01*
X125942857Y-111921429D01*
X125942857Y-111969048D01*
X125919048Y-112016667D01*
X125895238Y-112040476D01*
X125847619Y-112064286D01*
X125680953Y-112064286D01*
X126442857Y-112326190D02*
X126157143Y-112326190D01*
X126300000Y-112326190D02*
X126300000Y-111826190D01*
X126252381Y-111897619D01*
X126204762Y-111945238D01*
X126157143Y-111969048D01*
X125078573Y-109726190D02*
X125078573Y-109226190D01*
X125269049Y-109226190D01*
X125316668Y-109250000D01*
X125340477Y-109273810D01*
X125364287Y-109321429D01*
X125364287Y-109392857D01*
X125340477Y-109440476D01*
X125316668Y-109464286D01*
X125269049Y-109488095D01*
X125078573Y-109488095D01*
X125554763Y-109583333D02*
X125792858Y-109583333D01*
X125507144Y-109726190D02*
X125673811Y-109226190D01*
X125840477Y-109726190D01*
X126269048Y-109726190D02*
X125983334Y-109726190D01*
X126126191Y-109726190D02*
X126126191Y-109226190D01*
X126078572Y-109297619D01*
X126030953Y-109345238D01*
X125983334Y-109369048D01*
X126697619Y-109392857D02*
X126697619Y-109726190D01*
X126578572Y-109202381D02*
X126459524Y-109559524D01*
X126769048Y-109559524D01*
X125078573Y-107326190D02*
X125078573Y-106826190D01*
X125269049Y-106826190D01*
X125316668Y-106850000D01*
X125340477Y-106873810D01*
X125364287Y-106921429D01*
X125364287Y-106992857D01*
X125340477Y-107040476D01*
X125316668Y-107064286D01*
X125269049Y-107088095D01*
X125078573Y-107088095D01*
X125554763Y-107183333D02*
X125792858Y-107183333D01*
X125507144Y-107326190D02*
X125673811Y-106826190D01*
X125840477Y-107326190D01*
X126269048Y-107326190D02*
X125983334Y-107326190D01*
X126126191Y-107326190D02*
X126126191Y-106826190D01*
X126078572Y-106897619D01*
X126030953Y-106945238D01*
X125983334Y-106969048D01*
X126435715Y-106826190D02*
X126745238Y-106826190D01*
X126578572Y-107016667D01*
X126650000Y-107016667D01*
X126697619Y-107040476D01*
X126721429Y-107064286D01*
X126745238Y-107111905D01*
X126745238Y-107230952D01*
X126721429Y-107278571D01*
X126697619Y-107302381D01*
X126650000Y-107326190D01*
X126507143Y-107326190D01*
X126459524Y-107302381D01*
X126435715Y-107278571D01*
X125078573Y-104826190D02*
X125078573Y-104326190D01*
X125269049Y-104326190D01*
X125316668Y-104350000D01*
X125340477Y-104373810D01*
X125364287Y-104421429D01*
X125364287Y-104492857D01*
X125340477Y-104540476D01*
X125316668Y-104564286D01*
X125269049Y-104588095D01*
X125078573Y-104588095D01*
X125554763Y-104683333D02*
X125792858Y-104683333D01*
X125507144Y-104826190D02*
X125673811Y-104326190D01*
X125840477Y-104826190D01*
X126269048Y-104826190D02*
X125983334Y-104826190D01*
X126126191Y-104826190D02*
X126126191Y-104326190D01*
X126078572Y-104397619D01*
X126030953Y-104445238D01*
X125983334Y-104469048D01*
X126578572Y-104326190D02*
X126626191Y-104326190D01*
X126673810Y-104350000D01*
X126697619Y-104373810D01*
X126721429Y-104421429D01*
X126745238Y-104516667D01*
X126745238Y-104635714D01*
X126721429Y-104730952D01*
X126697619Y-104778571D01*
X126673810Y-104802381D01*
X126626191Y-104826190D01*
X126578572Y-104826190D01*
X126530953Y-104802381D01*
X126507143Y-104778571D01*
X126483334Y-104730952D01*
X126459524Y-104635714D01*
X126459524Y-104516667D01*
X126483334Y-104421429D01*
X126507143Y-104373810D01*
X126530953Y-104350000D01*
X126578572Y-104326190D01*
X125116668Y-102126190D02*
X125116668Y-101626190D01*
X125307144Y-101626190D01*
X125354763Y-101650000D01*
X125378572Y-101673810D01*
X125402382Y-101721429D01*
X125402382Y-101792857D01*
X125378572Y-101840476D01*
X125354763Y-101864286D01*
X125307144Y-101888095D01*
X125116668Y-101888095D01*
X125592858Y-101983333D02*
X125830953Y-101983333D01*
X125545239Y-102126190D02*
X125711906Y-101626190D01*
X125878572Y-102126190D01*
X126069048Y-102126190D02*
X126164286Y-102126190D01*
X126211905Y-102102381D01*
X126235715Y-102078571D01*
X126283334Y-102007143D01*
X126307143Y-101911905D01*
X126307143Y-101721429D01*
X126283334Y-101673810D01*
X126259524Y-101650000D01*
X126211905Y-101626190D01*
X126116667Y-101626190D01*
X126069048Y-101650000D01*
X126045239Y-101673810D01*
X126021429Y-101721429D01*
X126021429Y-101840476D01*
X126045239Y-101888095D01*
X126069048Y-101911905D01*
X126116667Y-101935714D01*
X126211905Y-101935714D01*
X126259524Y-101911905D01*
X126283334Y-101888095D01*
X126307143Y-101840476D01*
D14*
X124064286Y-96300000D02*
X123978572Y-96257143D01*
X123850001Y-96257143D01*
X123721429Y-96300000D01*
X123635715Y-96385714D01*
X123592858Y-96471429D01*
X123550001Y-96642857D01*
X123550001Y-96771429D01*
X123592858Y-96942857D01*
X123635715Y-97028571D01*
X123721429Y-97114286D01*
X123850001Y-97157143D01*
X123935715Y-97157143D01*
X124064286Y-97114286D01*
X124107143Y-97071429D01*
X124107143Y-96771429D01*
X123935715Y-96771429D01*
X124492858Y-97157143D02*
X124492858Y-96257143D01*
X125007143Y-97157143D01*
X125007143Y-96257143D01*
X125435715Y-97157143D02*
X125435715Y-96257143D01*
X125650000Y-96257143D01*
X125778572Y-96300000D01*
X125864286Y-96385714D01*
X125907143Y-96471429D01*
X125950000Y-96642857D01*
X125950000Y-96771429D01*
X125907143Y-96942857D01*
X125864286Y-97028571D01*
X125778572Y-97114286D01*
X125650000Y-97157143D01*
X125435715Y-97157143D01*
D12*
X117116668Y-120126190D02*
X117116668Y-119626190D01*
X117307144Y-119626190D01*
X117354763Y-119650000D01*
X117378572Y-119673810D01*
X117402382Y-119721429D01*
X117402382Y-119792857D01*
X117378572Y-119840476D01*
X117354763Y-119864286D01*
X117307144Y-119888095D01*
X117116668Y-119888095D01*
X117592858Y-119983333D02*
X117830953Y-119983333D01*
X117545239Y-120126190D02*
X117711906Y-119626190D01*
X117878572Y-120126190D01*
X117997620Y-119626190D02*
X118330953Y-119626190D01*
X118116667Y-120126190D01*
X117116668Y-117526190D02*
X117116668Y-117026190D01*
X117307144Y-117026190D01*
X117354763Y-117050000D01*
X117378572Y-117073810D01*
X117402382Y-117121429D01*
X117402382Y-117192857D01*
X117378572Y-117240476D01*
X117354763Y-117264286D01*
X117307144Y-117288095D01*
X117116668Y-117288095D01*
X117592858Y-117383333D02*
X117830953Y-117383333D01*
X117545239Y-117526190D02*
X117711906Y-117026190D01*
X117878572Y-117526190D01*
X118259524Y-117026190D02*
X118164286Y-117026190D01*
X118116667Y-117050000D01*
X118092858Y-117073810D01*
X118045239Y-117145238D01*
X118021429Y-117240476D01*
X118021429Y-117430952D01*
X118045239Y-117478571D01*
X118069048Y-117502381D01*
X118116667Y-117526190D01*
X118211905Y-117526190D01*
X118259524Y-117502381D01*
X118283334Y-117478571D01*
X118307143Y-117430952D01*
X118307143Y-117311905D01*
X118283334Y-117264286D01*
X118259524Y-117240476D01*
X118211905Y-117216667D01*
X118116667Y-117216667D01*
X118069048Y-117240476D01*
X118045239Y-117264286D01*
X118021429Y-117311905D01*
X117116668Y-114826190D02*
X117116668Y-114326190D01*
X117307144Y-114326190D01*
X117354763Y-114350000D01*
X117378572Y-114373810D01*
X117402382Y-114421429D01*
X117402382Y-114492857D01*
X117378572Y-114540476D01*
X117354763Y-114564286D01*
X117307144Y-114588095D01*
X117116668Y-114588095D01*
X117592858Y-114683333D02*
X117830953Y-114683333D01*
X117545239Y-114826190D02*
X117711906Y-114326190D01*
X117878572Y-114826190D01*
X118283334Y-114326190D02*
X118045239Y-114326190D01*
X118021429Y-114564286D01*
X118045239Y-114540476D01*
X118092858Y-114516667D01*
X118211905Y-114516667D01*
X118259524Y-114540476D01*
X118283334Y-114564286D01*
X118307143Y-114611905D01*
X118307143Y-114730952D01*
X118283334Y-114778571D01*
X118259524Y-114802381D01*
X118211905Y-114826190D01*
X118092858Y-114826190D01*
X118045239Y-114802381D01*
X118021429Y-114778571D01*
X117116668Y-112426190D02*
X117116668Y-111926190D01*
X117307144Y-111926190D01*
X117354763Y-111950000D01*
X117378572Y-111973810D01*
X117402382Y-112021429D01*
X117402382Y-112092857D01*
X117378572Y-112140476D01*
X117354763Y-112164286D01*
X117307144Y-112188095D01*
X117116668Y-112188095D01*
X117592858Y-112283333D02*
X117830953Y-112283333D01*
X117545239Y-112426190D02*
X117711906Y-111926190D01*
X117878572Y-112426190D01*
X118259524Y-112092857D02*
X118259524Y-112426190D01*
X118140477Y-111902381D02*
X118021429Y-112259524D01*
X118330953Y-112259524D01*
X117116668Y-109926190D02*
X117116668Y-109426190D01*
X117307144Y-109426190D01*
X117354763Y-109450000D01*
X117378572Y-109473810D01*
X117402382Y-109521429D01*
X117402382Y-109592857D01*
X117378572Y-109640476D01*
X117354763Y-109664286D01*
X117307144Y-109688095D01*
X117116668Y-109688095D01*
X117592858Y-109783333D02*
X117830953Y-109783333D01*
X117545239Y-109926190D02*
X117711906Y-109426190D01*
X117878572Y-109926190D01*
X117997620Y-109426190D02*
X118307143Y-109426190D01*
X118140477Y-109616667D01*
X118211905Y-109616667D01*
X118259524Y-109640476D01*
X118283334Y-109664286D01*
X118307143Y-109711905D01*
X118307143Y-109830952D01*
X118283334Y-109878571D01*
X118259524Y-109902381D01*
X118211905Y-109926190D01*
X118069048Y-109926190D01*
X118021429Y-109902381D01*
X117997620Y-109878571D01*
X117116668Y-107326190D02*
X117116668Y-106826190D01*
X117307144Y-106826190D01*
X117354763Y-106850000D01*
X117378572Y-106873810D01*
X117402382Y-106921429D01*
X117402382Y-106992857D01*
X117378572Y-107040476D01*
X117354763Y-107064286D01*
X117307144Y-107088095D01*
X117116668Y-107088095D01*
X117592858Y-107183333D02*
X117830953Y-107183333D01*
X117545239Y-107326190D02*
X117711906Y-106826190D01*
X117878572Y-107326190D01*
X118021429Y-106873810D02*
X118045239Y-106850000D01*
X118092858Y-106826190D01*
X118211905Y-106826190D01*
X118259524Y-106850000D01*
X118283334Y-106873810D01*
X118307143Y-106921429D01*
X118307143Y-106969048D01*
X118283334Y-107040476D01*
X117997620Y-107326190D01*
X118307143Y-107326190D01*
X117116668Y-104826190D02*
X117116668Y-104326190D01*
X117307144Y-104326190D01*
X117354763Y-104350000D01*
X117378572Y-104373810D01*
X117402382Y-104421429D01*
X117402382Y-104492857D01*
X117378572Y-104540476D01*
X117354763Y-104564286D01*
X117307144Y-104588095D01*
X117116668Y-104588095D01*
X117592858Y-104683333D02*
X117830953Y-104683333D01*
X117545239Y-104826190D02*
X117711906Y-104326190D01*
X117878572Y-104826190D01*
X118307143Y-104826190D02*
X118021429Y-104826190D01*
X118164286Y-104826190D02*
X118164286Y-104326190D01*
X118116667Y-104397619D01*
X118069048Y-104445238D01*
X118021429Y-104469048D01*
X117116668Y-102126190D02*
X117116668Y-101626190D01*
X117307144Y-101626190D01*
X117354763Y-101650000D01*
X117378572Y-101673810D01*
X117402382Y-101721429D01*
X117402382Y-101792857D01*
X117378572Y-101840476D01*
X117354763Y-101864286D01*
X117307144Y-101888095D01*
X117116668Y-101888095D01*
X117592858Y-101983333D02*
X117830953Y-101983333D01*
X117545239Y-102126190D02*
X117711906Y-101626190D01*
X117878572Y-102126190D01*
X118140477Y-101626190D02*
X118188096Y-101626190D01*
X118235715Y-101650000D01*
X118259524Y-101673810D01*
X118283334Y-101721429D01*
X118307143Y-101816667D01*
X118307143Y-101935714D01*
X118283334Y-102030952D01*
X118259524Y-102078571D01*
X118235715Y-102102381D01*
X118188096Y-102126190D01*
X118140477Y-102126190D01*
X118092858Y-102102381D01*
X118069048Y-102078571D01*
X118045239Y-102030952D01*
X118021429Y-101935714D01*
X118021429Y-101816667D01*
X118045239Y-101721429D01*
X118069048Y-101673810D01*
X118092858Y-101650000D01*
X118140477Y-101626190D01*
X117104763Y-99226190D02*
X117414286Y-99226190D01*
X117247620Y-99416667D01*
X117319048Y-99416667D01*
X117366667Y-99440476D01*
X117390477Y-99464286D01*
X117414286Y-99511905D01*
X117414286Y-99630952D01*
X117390477Y-99678571D01*
X117366667Y-99702381D01*
X117319048Y-99726190D01*
X117176191Y-99726190D01*
X117128572Y-99702381D01*
X117104763Y-99678571D01*
X117580953Y-99392857D02*
X117700000Y-99726190D01*
X117819048Y-99392857D01*
X117961905Y-99226190D02*
X118271428Y-99226190D01*
X118104762Y-99416667D01*
X118176190Y-99416667D01*
X118223809Y-99440476D01*
X118247619Y-99464286D01*
X118271428Y-99511905D01*
X118271428Y-99630952D01*
X118247619Y-99678571D01*
X118223809Y-99702381D01*
X118176190Y-99726190D01*
X118033333Y-99726190D01*
X117985714Y-99702381D01*
X117961905Y-99678571D01*
D14*
X118007143Y-97407143D02*
X117492858Y-97407143D01*
X117750000Y-97407143D02*
X117750000Y-96507143D01*
X117664286Y-96635714D01*
X117578572Y-96721429D01*
X117492858Y-96764286D01*
D15*
X150083000Y-98517000D02*
X149383000Y-98517000D01*
X149383000Y-97317000D02*
X150083000Y-97317000D01*
X149510000Y-103032000D02*
X150210000Y-103032000D01*
X150210000Y-104232000D02*
X149510000Y-104232000D01*
X150337000Y-118710000D02*
X149637000Y-118710000D01*
X149637000Y-117510000D02*
X150337000Y-117510000D01*
X150337000Y-120742000D02*
X149637000Y-120742000D01*
X149637000Y-119542000D02*
X150337000Y-119542000D01*
D11*
X132250000Y-106295000D02*
X135050000Y-106295000D01*
X135050000Y-106295000D02*
X135050000Y-112145000D01*
X135050000Y-112145000D02*
X131650000Y-112145000D01*
X131650000Y-112145000D02*
X131650000Y-106895000D01*
X131650000Y-106895000D02*
X132250000Y-106295000D01*
X148910000Y-100815000D02*
X148910000Y-100815000D01*
X148910000Y-100815000D02*
X150810000Y-100815000D01*
X150810000Y-100815000D02*
X150810000Y-101115000D01*
X150810000Y-101115000D02*
X149210000Y-101115000D01*
X149210000Y-101115000D02*
X148910000Y-100815000D01*
D15*
X119066000Y-121091000D02*
X124266000Y-121091000D01*
X119066000Y-100711000D02*
X119066000Y-121091000D01*
X124266000Y-98111000D02*
X124266000Y-121091000D01*
X119066000Y-100711000D02*
X121666000Y-100711000D01*
X121666000Y-100711000D02*
X121666000Y-98111000D01*
X121666000Y-98111000D02*
X124266000Y-98111000D01*
X119066000Y-99441000D02*
X119066000Y-98111000D01*
X119066000Y-98111000D02*
X120396000Y-98111000D01*
X143824000Y-115951000D02*
X143824000Y-121091000D01*
X143824000Y-121091000D02*
X138624000Y-121091000D01*
X138624000Y-121091000D02*
X138624000Y-113351000D01*
X138624000Y-113351000D02*
X141224000Y-113351000D01*
X141224000Y-113351000D02*
X141224000Y-115951000D01*
X141224000Y-115951000D02*
X143824000Y-115951000D01*
X143824000Y-114681000D02*
X143824000Y-113351000D01*
X143824000Y-113351000D02*
X142554000Y-113351000D01*
D11*
X136271000Y-113411000D02*
X136271000Y-121031000D01*
X136271000Y-121031000D02*
X131191000Y-121031000D01*
X131191000Y-121031000D02*
X131191000Y-118491000D01*
X131191000Y-115951000D02*
X131191000Y-113411000D01*
X131191000Y-113411000D02*
X136271000Y-113411000D01*
D15*
X138903000Y-101128000D02*
X138903000Y-100798000D01*
X138903000Y-100798000D02*
X145323000Y-100798000D01*
X145323000Y-100798000D02*
X145323000Y-101128000D01*
X138903000Y-103088000D02*
X138903000Y-103418000D01*
X138903000Y-103418000D02*
X145323000Y-103418000D01*
X145323000Y-103418000D02*
X145323000Y-103088000D01*
X145323000Y-99659000D02*
X145323000Y-99989000D01*
X145323000Y-99989000D02*
X138903000Y-99989000D01*
X138903000Y-99989000D02*
X138903000Y-99659000D01*
X145323000Y-97699000D02*
X145323000Y-97369000D01*
X145323000Y-97369000D02*
X138903000Y-97369000D01*
X138903000Y-97369000D02*
X138903000Y-97699000D01*
X143375000Y-105328000D02*
X142375000Y-105328000D01*
X142375000Y-103968000D02*
X143375000Y-103968000D01*
D11*
X135145000Y-100259800D02*
X135145000Y-98559800D01*
X134345000Y-100259800D02*
X135145000Y-100259800D01*
X127745000Y-100259800D02*
X128595000Y-100259800D01*
X127745000Y-98559800D02*
X127745000Y-100259800D01*
X146689000Y-115631000D02*
X146689000Y-115631000D01*
X146689000Y-115631000D02*
X146689000Y-113731000D01*
X146689000Y-113731000D02*
X147189000Y-113731000D01*
X147189000Y-113731000D02*
X147189000Y-115131000D01*
X147189000Y-115131000D02*
X146689000Y-115631000D01*
X152838000Y-112681000D02*
X150438000Y-112681000D01*
X150438000Y-112681000D02*
X150438000Y-116681000D01*
X150438000Y-116681000D02*
X152838000Y-116681000D01*
X152838000Y-116681000D02*
X152838000Y-112681000D01*
X149188000Y-111612000D02*
X149188000Y-106212000D01*
X149188000Y-106212000D02*
X141388000Y-106212000D01*
X141388000Y-106212000D02*
X141388000Y-111612000D01*
X141388000Y-111612000D02*
X149188000Y-111612000D01*
X146688000Y-106912000D02*
X143888000Y-106912000D01*
X145288000Y-108012000D02*
X145288000Y-106912000D01*
X144588000Y-109512000D02*
X145288000Y-108012000D01*
X145288000Y-110912000D02*
X145288000Y-109512000D01*
X146688000Y-110912000D02*
X143888000Y-110912000D01*
D15*
X146677000Y-118790000D02*
X145677000Y-118790000D01*
X145677000Y-117430000D02*
X146677000Y-117430000D01*
X146677000Y-120822000D02*
X145677000Y-120822000D01*
X145677000Y-119462000D02*
X146677000Y-119462000D01*
D16*
G36*
X158113600Y-106710000D02*
X158113600Y-111790000D01*
X157221897Y-111790000D01*
X157221897Y-111682723D01*
X157360720Y-111672757D01*
X157485486Y-111650895D01*
X157566095Y-111623865D01*
X157693908Y-111536897D01*
X157786711Y-111417904D01*
X157841524Y-111274292D01*
X157855363Y-111113467D01*
X157831533Y-110964500D01*
X157803910Y-110892836D01*
X157803910Y-110647405D01*
X157825531Y-110628204D01*
X157830814Y-110567640D01*
X157829310Y-110539215D01*
X157822276Y-110476933D01*
X157804331Y-110439225D01*
X157763011Y-110412410D01*
X157687272Y-110383317D01*
X157553044Y-110335206D01*
X157560272Y-110095004D01*
X157567500Y-109854803D01*
X157694500Y-109812752D01*
X157768408Y-109786341D01*
X157806945Y-109760233D01*
X157822999Y-109718867D01*
X157829241Y-109650050D01*
X157831203Y-109576522D01*
X157822073Y-109541120D01*
X157797930Y-109531680D01*
X157791141Y-109531826D01*
X157754888Y-109540443D01*
X157677930Y-109563314D01*
X157567577Y-109598108D01*
X157431141Y-109642494D01*
X157275932Y-109694140D01*
X157173800Y-109728676D01*
X156602300Y-109923100D01*
X156602300Y-110252676D01*
X156907100Y-110356941D01*
X157159895Y-110443076D01*
X157367256Y-110512961D01*
X157531610Y-110567381D01*
X157655380Y-110607121D01*
X157740992Y-110632966D01*
X157790871Y-110645703D01*
X157803910Y-110647405D01*
X157803910Y-110892836D01*
X157791043Y-110859454D01*
X157735970Y-110798284D01*
X157660031Y-110774748D01*
X157639763Y-110774000D01*
X157582543Y-110776605D01*
X157555193Y-110782972D01*
X157554800Y-110783927D01*
X157564374Y-110810837D01*
X157588706Y-110868035D01*
X157605042Y-110904577D01*
X157649460Y-111044246D01*
X157646906Y-111165135D01*
X157597115Y-111268433D01*
X157506223Y-111351088D01*
X157444160Y-111384779D01*
X157373156Y-111402647D01*
X157274683Y-111408807D01*
X157245427Y-111409000D01*
X157085253Y-111397449D01*
X156963498Y-111361093D01*
X156872912Y-111297379D01*
X156847864Y-111268953D01*
X156803353Y-111174534D01*
X156794745Y-111061813D01*
X156822243Y-110948629D01*
X156843694Y-110906737D01*
X156883121Y-110833999D01*
X156887801Y-110793574D01*
X156854517Y-110777942D01*
X156788989Y-110778890D01*
X156701916Y-110796878D01*
X156643809Y-110840764D01*
X156636101Y-110850561D01*
X156595948Y-110936865D01*
X156589600Y-110970385D01*
X156589600Y-109351600D01*
X157027750Y-109351459D01*
X157179289Y-109349907D01*
X157319739Y-109345702D01*
X157438395Y-109339374D01*
X157524552Y-109331451D01*
X157560100Y-109325155D01*
X157677237Y-109267955D01*
X157767925Y-109173297D01*
X157829066Y-109048836D01*
X157857565Y-108902229D01*
X157850325Y-108741132D01*
X157831440Y-108654292D01*
X157775930Y-108539772D01*
X157684809Y-108441498D01*
X157573255Y-108374647D01*
X157540908Y-108363760D01*
X157481577Y-108354304D01*
X157382584Y-108346204D01*
X157255061Y-108340053D01*
X157110141Y-108336444D01*
X157015050Y-108335742D01*
X156604767Y-108335606D01*
X156604767Y-108139101D01*
X156630777Y-108134527D01*
X156696818Y-108115864D01*
X156794952Y-108085758D01*
X156917245Y-108046850D01*
X157055759Y-108001784D01*
X157202560Y-107953204D01*
X157349711Y-107903751D01*
X157489276Y-107856069D01*
X157613320Y-107812802D01*
X157713906Y-107776592D01*
X157783099Y-107750082D01*
X157810934Y-107737381D01*
X157823482Y-107706106D01*
X157831929Y-107640023D01*
X157834200Y-107575064D01*
X157831111Y-107487451D01*
X157819652Y-107438441D01*
X157796536Y-107416091D01*
X157789750Y-107413623D01*
X157753748Y-107401664D01*
X157677191Y-107375539D01*
X157567494Y-107337803D01*
X157432071Y-107291010D01*
X157278338Y-107237715D01*
X157191268Y-107207461D01*
X157032261Y-107152533D01*
X156888895Y-107103702D01*
X156768252Y-107063326D01*
X156677415Y-107033758D01*
X156623469Y-107017357D01*
X156612026Y-107014800D01*
X156598477Y-107037636D01*
X156593331Y-107096679D01*
X156594558Y-107135450D01*
X156602300Y-107256100D01*
X156894400Y-107348598D01*
X157033386Y-107392219D01*
X157178176Y-107437014D01*
X157308873Y-107476858D01*
X157383350Y-107499120D01*
X157474566Y-107527863D01*
X157543343Y-107553067D01*
X157578123Y-107570376D01*
X157580200Y-107573335D01*
X157557511Y-107586995D01*
X157496952Y-107609547D01*
X157409784Y-107636968D01*
X157370650Y-107648213D01*
X157255256Y-107681291D01*
X157112780Y-107723242D01*
X156964609Y-107767727D01*
X156875349Y-107795007D01*
X156589599Y-107883113D01*
X156589599Y-108003523D01*
X156592548Y-108077594D01*
X156600025Y-108128297D01*
X156604767Y-108139101D01*
X156604767Y-108335606D01*
X156589600Y-108335600D01*
X156589600Y-108589600D01*
X157507907Y-108589600D01*
X157582153Y-108663847D01*
X157635562Y-108732474D01*
X157655241Y-108809269D01*
X157656400Y-108843600D01*
X157645690Y-108930206D01*
X157605497Y-108998365D01*
X157582153Y-109023354D01*
X157507907Y-109097600D01*
X156589600Y-109097600D01*
X156589600Y-109351600D01*
X156589600Y-110970385D01*
X156574057Y-111052460D01*
X156572477Y-111178494D01*
X156589228Y-111282000D01*
X156641792Y-111395940D01*
X156730666Y-111505281D01*
X156842117Y-111596657D01*
X156962418Y-111656703D01*
X156979523Y-111661943D01*
X157088378Y-111679538D01*
X157221897Y-111682723D01*
X157221897Y-111790000D01*
X156411800Y-111790000D01*
X156411800Y-106710000D01*
X158113600Y-106710000D01*
X158113600Y-106710000D01*
G37*
X158113600Y-106710000D02*
X158113600Y-111790000D01*
X157221897Y-111790000D01*
X157221897Y-111682723D01*
X157360720Y-111672757D01*
X157485486Y-111650895D01*
X157566095Y-111623865D01*
X157693908Y-111536897D01*
X157786711Y-111417904D01*
X157841524Y-111274292D01*
X157855363Y-111113467D01*
X157831533Y-110964500D01*
X157803910Y-110892836D01*
X157803910Y-110647405D01*
X157825531Y-110628204D01*
X157830814Y-110567640D01*
X157829310Y-110539215D01*
X157822276Y-110476933D01*
X157804331Y-110439225D01*
X157763011Y-110412410D01*
X157687272Y-110383317D01*
X157553044Y-110335206D01*
X157560272Y-110095004D01*
X157567500Y-109854803D01*
X157694500Y-109812752D01*
X157768408Y-109786341D01*
X157806945Y-109760233D01*
X157822999Y-109718867D01*
X157829241Y-109650050D01*
X157831203Y-109576522D01*
X157822073Y-109541120D01*
X157797930Y-109531680D01*
X157791141Y-109531826D01*
X157754888Y-109540443D01*
X157677930Y-109563314D01*
X157567577Y-109598108D01*
X157431141Y-109642494D01*
X157275932Y-109694140D01*
X157173800Y-109728676D01*
X156602300Y-109923100D01*
X156602300Y-110252676D01*
X156907100Y-110356941D01*
X157159895Y-110443076D01*
X157367256Y-110512961D01*
X157531610Y-110567381D01*
X157655380Y-110607121D01*
X157740992Y-110632966D01*
X157790871Y-110645703D01*
X157803910Y-110647405D01*
X157803910Y-110892836D01*
X157791043Y-110859454D01*
X157735970Y-110798284D01*
X157660031Y-110774748D01*
X157639763Y-110774000D01*
X157582543Y-110776605D01*
X157555193Y-110782972D01*
X157554800Y-110783927D01*
X157564374Y-110810837D01*
X157588706Y-110868035D01*
X157605042Y-110904577D01*
X157649460Y-111044246D01*
X157646906Y-111165135D01*
X157597115Y-111268433D01*
X157506223Y-111351088D01*
X157444160Y-111384779D01*
X157373156Y-111402647D01*
X157274683Y-111408807D01*
X157245427Y-111409000D01*
X157085253Y-111397449D01*
X156963498Y-111361093D01*
X156872912Y-111297379D01*
X156847864Y-111268953D01*
X156803353Y-111174534D01*
X156794745Y-111061813D01*
X156822243Y-110948629D01*
X156843694Y-110906737D01*
X156883121Y-110833999D01*
X156887801Y-110793574D01*
X156854517Y-110777942D01*
X156788989Y-110778890D01*
X156701916Y-110796878D01*
X156643809Y-110840764D01*
X156636101Y-110850561D01*
X156595948Y-110936865D01*
X156589600Y-110970385D01*
X156589600Y-109351600D01*
X157027750Y-109351459D01*
X157179289Y-109349907D01*
X157319739Y-109345702D01*
X157438395Y-109339374D01*
X157524552Y-109331451D01*
X157560100Y-109325155D01*
X157677237Y-109267955D01*
X157767925Y-109173297D01*
X157829066Y-109048836D01*
X157857565Y-108902229D01*
X157850325Y-108741132D01*
X157831440Y-108654292D01*
X157775930Y-108539772D01*
X157684809Y-108441498D01*
X157573255Y-108374647D01*
X157540908Y-108363760D01*
X157481577Y-108354304D01*
X157382584Y-108346204D01*
X157255061Y-108340053D01*
X157110141Y-108336444D01*
X157015050Y-108335742D01*
X156604767Y-108335606D01*
X156604767Y-108139101D01*
X156630777Y-108134527D01*
X156696818Y-108115864D01*
X156794952Y-108085758D01*
X156917245Y-108046850D01*
X157055759Y-108001784D01*
X157202560Y-107953204D01*
X157349711Y-107903751D01*
X157489276Y-107856069D01*
X157613320Y-107812802D01*
X157713906Y-107776592D01*
X157783099Y-107750082D01*
X157810934Y-107737381D01*
X157823482Y-107706106D01*
X157831929Y-107640023D01*
X157834200Y-107575064D01*
X157831111Y-107487451D01*
X157819652Y-107438441D01*
X157796536Y-107416091D01*
X157789750Y-107413623D01*
X157753748Y-107401664D01*
X157677191Y-107375539D01*
X157567494Y-107337803D01*
X157432071Y-107291010D01*
X157278338Y-107237715D01*
X157191268Y-107207461D01*
X157032261Y-107152533D01*
X156888895Y-107103702D01*
X156768252Y-107063326D01*
X156677415Y-107033758D01*
X156623469Y-107017357D01*
X156612026Y-107014800D01*
X156598477Y-107037636D01*
X156593331Y-107096679D01*
X156594558Y-107135450D01*
X156602300Y-107256100D01*
X156894400Y-107348598D01*
X157033386Y-107392219D01*
X157178176Y-107437014D01*
X157308873Y-107476858D01*
X157383350Y-107499120D01*
X157474566Y-107527863D01*
X157543343Y-107553067D01*
X157578123Y-107570376D01*
X157580200Y-107573335D01*
X157557511Y-107586995D01*
X157496952Y-107609547D01*
X157409784Y-107636968D01*
X157370650Y-107648213D01*
X157255256Y-107681291D01*
X157112780Y-107723242D01*
X156964609Y-107767727D01*
X156875349Y-107795007D01*
X156589599Y-107883113D01*
X156589599Y-108003523D01*
X156592548Y-108077594D01*
X156600025Y-108128297D01*
X156604767Y-108139101D01*
X156604767Y-108335606D01*
X156589600Y-108335600D01*
X156589600Y-108589600D01*
X157507907Y-108589600D01*
X157582153Y-108663847D01*
X157635562Y-108732474D01*
X157655241Y-108809269D01*
X157656400Y-108843600D01*
X157645690Y-108930206D01*
X157605497Y-108998365D01*
X157582153Y-109023354D01*
X157507907Y-109097600D01*
X156589600Y-109097600D01*
X156589600Y-109351600D01*
X156589600Y-110970385D01*
X156574057Y-111052460D01*
X156572477Y-111178494D01*
X156589228Y-111282000D01*
X156641792Y-111395940D01*
X156730666Y-111505281D01*
X156842117Y-111596657D01*
X156962418Y-111656703D01*
X156979523Y-111661943D01*
X157088378Y-111679538D01*
X157221897Y-111682723D01*
X157221897Y-111790000D01*
X156411800Y-111790000D01*
X156411800Y-106710000D01*
X158113600Y-106710000D01*
G36*
X157186500Y-110113600D02*
X157199200Y-110126300D01*
X157186500Y-110139000D01*
X157173800Y-110126300D01*
X157186500Y-110113600D01*
X157186500Y-110113600D01*
G37*
X157186500Y-110113600D02*
X157199200Y-110126300D01*
X157186500Y-110139000D01*
X157173800Y-110126300D01*
X157186500Y-110113600D01*
G36*
X157161100Y-110037400D02*
X157173800Y-110050100D01*
X157161100Y-110062800D01*
X157148400Y-110050100D01*
X157161100Y-110037400D01*
X157161100Y-110037400D01*
G37*
X157161100Y-110037400D02*
X157173800Y-110050100D01*
X157161100Y-110062800D01*
X157148400Y-110050100D01*
X157161100Y-110037400D01*
G36*
X157084900Y-110088200D02*
X157107724Y-110063969D01*
X157111799Y-110062800D01*
X157122708Y-110082452D01*
X157123000Y-110088200D01*
X157103473Y-110112624D01*
X157096100Y-110113600D01*
X157080931Y-110098040D01*
X157084900Y-110088200D01*
X157084900Y-110088200D01*
G37*
X157084900Y-110088200D02*
X157107724Y-110063969D01*
X157111799Y-110062800D01*
X157122708Y-110082452D01*
X157123000Y-110088200D01*
X157103473Y-110112624D01*
X157096100Y-110113600D01*
X157080931Y-110098040D01*
X157084900Y-110088200D01*
G36*
X157091528Y-109961939D02*
X157097600Y-109961200D01*
X157122261Y-109980529D01*
X157123000Y-109986600D01*
X157103671Y-110011262D01*
X157097600Y-110012000D01*
X157072938Y-109992672D01*
X157072200Y-109986600D01*
X157091528Y-109961939D01*
X157091528Y-109961939D01*
G37*
X157091528Y-109961939D02*
X157097600Y-109961200D01*
X157122261Y-109980529D01*
X157123000Y-109986600D01*
X157103671Y-110011262D01*
X157097600Y-110012000D01*
X157072938Y-109992672D01*
X157072200Y-109986600D01*
X157091528Y-109961939D01*
G36*
X156996000Y-110126300D02*
X157038108Y-110124454D01*
X157051226Y-110133267D01*
X157060341Y-110164404D01*
X157046800Y-110177100D01*
X157004691Y-110178947D01*
X156991573Y-110170134D01*
X156982458Y-110138997D01*
X156996000Y-110126300D01*
X156996000Y-110126300D01*
G37*
X156996000Y-110126300D02*
X157038108Y-110124454D01*
X157051226Y-110133267D01*
X157060341Y-110164404D01*
X157046800Y-110177100D01*
X157004691Y-110178947D01*
X156991573Y-110170134D01*
X156982458Y-110138997D01*
X156996000Y-110126300D01*
G36*
X156991195Y-110014690D02*
X157008700Y-110012000D01*
X157043730Y-110027599D01*
X157037453Y-110062668D01*
X157030557Y-110070577D01*
X156998894Y-110075713D01*
X156973222Y-110049969D01*
X156970600Y-110035901D01*
X156991195Y-110014690D01*
X156991195Y-110014690D01*
G37*
X156991195Y-110014690D02*
X157008700Y-110012000D01*
X157043730Y-110027599D01*
X157037453Y-110062668D01*
X157030557Y-110070577D01*
X156998894Y-110075713D01*
X156973222Y-110049969D01*
X156970600Y-110035901D01*
X156991195Y-110014690D01*
G36*
X156864748Y-110044329D02*
X156894400Y-110037400D01*
X156935262Y-110055476D01*
X156944187Y-110093973D01*
X156919800Y-110126300D01*
X156877196Y-110129611D01*
X156847417Y-110096580D01*
X156843600Y-110074001D01*
X156864748Y-110044329D01*
X156864748Y-110044329D01*
G37*
X156864748Y-110044329D02*
X156894400Y-110037400D01*
X156935262Y-110055476D01*
X156944187Y-110093973D01*
X156919800Y-110126300D01*
X156877196Y-110129611D01*
X156847417Y-110096580D01*
X156843600Y-110074001D01*
X156864748Y-110044329D01*
D15*
X153800000Y-111300000D02*
X155200000Y-111300000D01*
X155200000Y-111300000D02*
X155200000Y-108500000D01*
X153800000Y-111300000D02*
X153800000Y-108500000D01*
X151300000Y-111300000D02*
X152700000Y-111300000D01*
X152700000Y-111300000D02*
X152700000Y-108500000D01*
X151300000Y-111300000D02*
X151300000Y-108500000D01*
X155180000Y-105000000D02*
X155180000Y-106000000D01*
X153820000Y-106000000D02*
X153820000Y-105000000D01*
X151820000Y-106000000D02*
X151820000Y-105000000D01*
X153180000Y-105000000D02*
X153180000Y-106000000D01*
D17*
X149683000Y-98024143D02*
X149668714Y-98038429D01*
X149625857Y-98052714D01*
X149597286Y-98052714D01*
X149554429Y-98038429D01*
X149525857Y-98009857D01*
X149511572Y-97981286D01*
X149497286Y-97924143D01*
X149497286Y-97881286D01*
X149511572Y-97824143D01*
X149525857Y-97795571D01*
X149554429Y-97767000D01*
X149597286Y-97752714D01*
X149625857Y-97752714D01*
X149668714Y-97767000D01*
X149683000Y-97781286D01*
X149968714Y-98052714D02*
X149797286Y-98052714D01*
X149883000Y-98052714D02*
X149883000Y-97752714D01*
X149854429Y-97795571D01*
X149825857Y-97824143D01*
X149797286Y-97838429D01*
X149810000Y-103739143D02*
X149795714Y-103753429D01*
X149752857Y-103767714D01*
X149724286Y-103767714D01*
X149681429Y-103753429D01*
X149652857Y-103724857D01*
X149638572Y-103696286D01*
X149624286Y-103639143D01*
X149624286Y-103596286D01*
X149638572Y-103539143D01*
X149652857Y-103510571D01*
X149681429Y-103482000D01*
X149724286Y-103467714D01*
X149752857Y-103467714D01*
X149795714Y-103482000D01*
X149810000Y-103496286D01*
X149924286Y-103496286D02*
X149938572Y-103482000D01*
X149967143Y-103467714D01*
X150038572Y-103467714D01*
X150067143Y-103482000D01*
X150081429Y-103496286D01*
X150095714Y-103524857D01*
X150095714Y-103553429D01*
X150081429Y-103596286D01*
X149910000Y-103767714D01*
X150095714Y-103767714D01*
X149937000Y-118217143D02*
X149922714Y-118231429D01*
X149879857Y-118245714D01*
X149851286Y-118245714D01*
X149808429Y-118231429D01*
X149779857Y-118202857D01*
X149765572Y-118174286D01*
X149751286Y-118117143D01*
X149751286Y-118074286D01*
X149765572Y-118017143D01*
X149779857Y-117988571D01*
X149808429Y-117960000D01*
X149851286Y-117945714D01*
X149879857Y-117945714D01*
X149922714Y-117960000D01*
X149937000Y-117974286D01*
X150037000Y-117945714D02*
X150222714Y-117945714D01*
X150122714Y-118060000D01*
X150165572Y-118060000D01*
X150194143Y-118074286D01*
X150208429Y-118088571D01*
X150222714Y-118117143D01*
X150222714Y-118188571D01*
X150208429Y-118217143D01*
X150194143Y-118231429D01*
X150165572Y-118245714D01*
X150079857Y-118245714D01*
X150051286Y-118231429D01*
X150037000Y-118217143D01*
X149937000Y-120249143D02*
X149922714Y-120263429D01*
X149879857Y-120277714D01*
X149851286Y-120277714D01*
X149808429Y-120263429D01*
X149779857Y-120234857D01*
X149765572Y-120206286D01*
X149751286Y-120149143D01*
X149751286Y-120106286D01*
X149765572Y-120049143D01*
X149779857Y-120020571D01*
X149808429Y-119992000D01*
X149851286Y-119977714D01*
X149879857Y-119977714D01*
X149922714Y-119992000D01*
X149937000Y-120006286D01*
X150194143Y-120077714D02*
X150194143Y-120277714D01*
X150122714Y-119963429D02*
X150051286Y-120177714D01*
X150237000Y-120177714D01*
X142808334Y-104828952D02*
X142675000Y-104638476D01*
X142579762Y-104828952D02*
X142579762Y-104428952D01*
X142732143Y-104428952D01*
X142770238Y-104448000D01*
X142789286Y-104467048D01*
X142808334Y-104505143D01*
X142808334Y-104562286D01*
X142789286Y-104600381D01*
X142770238Y-104619429D01*
X142732143Y-104638476D01*
X142579762Y-104638476D01*
X142941667Y-104428952D02*
X143189286Y-104428952D01*
X143055953Y-104581333D01*
X143113095Y-104581333D01*
X143151191Y-104600381D01*
X143170238Y-104619429D01*
X143189286Y-104657524D01*
X143189286Y-104752762D01*
X143170238Y-104790857D01*
X143151191Y-104809905D01*
X143113095Y-104828952D01*
X142998810Y-104828952D01*
X142960714Y-104809905D01*
X142941667Y-104790857D01*
X146110334Y-118290952D02*
X145977000Y-118100476D01*
X145881762Y-118290952D02*
X145881762Y-117890952D01*
X146034143Y-117890952D01*
X146072238Y-117910000D01*
X146091286Y-117929048D01*
X146110334Y-117967143D01*
X146110334Y-118024286D01*
X146091286Y-118062381D01*
X146072238Y-118081429D01*
X146034143Y-118100476D01*
X145881762Y-118100476D01*
X146453191Y-118024286D02*
X146453191Y-118290952D01*
X146357953Y-117871905D02*
X146262714Y-118157619D01*
X146510334Y-118157619D01*
X146110334Y-120322952D02*
X145977000Y-120132476D01*
X145881762Y-120322952D02*
X145881762Y-119922952D01*
X146034143Y-119922952D01*
X146072238Y-119942000D01*
X146091286Y-119961048D01*
X146110334Y-119999143D01*
X146110334Y-120056286D01*
X146091286Y-120094381D01*
X146072238Y-120113429D01*
X146034143Y-120132476D01*
X145881762Y-120132476D01*
X146472238Y-119922952D02*
X146281762Y-119922952D01*
X146262714Y-120113429D01*
X146281762Y-120094381D01*
X146319857Y-120075333D01*
X146415095Y-120075333D01*
X146453191Y-120094381D01*
X146472238Y-120113429D01*
X146491286Y-120151524D01*
X146491286Y-120246762D01*
X146472238Y-120284857D01*
X146453191Y-120303905D01*
X146415095Y-120322952D01*
X146319857Y-120322952D01*
X146281762Y-120303905D01*
X146262714Y-120284857D01*
M02*
