G04 #@! TF.FileFunction,Copper,L2,Bot,Signal*
%FSLAX46Y46*%
G04 Gerber Fmt 4.6, Leading zero omitted, Abs format (unit mm)*
G04 Created by KiCad (PCBNEW 4.0.6) date 10/01/17 10:19:26*
%MOMM*%
%LPD*%
G01*
G04 APERTURE LIST*
%ADD10C,0.100000*%
%ADD11R,1.700000X1.700000*%
%ADD12O,1.700000X1.700000*%
%ADD13R,1.900000X1.900000*%
%ADD14C,1.900000*%
%ADD15C,1.600000*%
%ADD16O,1.600000X1.600000*%
%ADD17O,1.000000X1.250000*%
%ADD18O,1.000000X1.900000*%
%ADD19C,0.600000*%
%ADD20C,0.200000*%
%ADD21C,0.254000*%
G04 APERTURE END LIST*
D10*
D11*
X120396000Y-99441000D03*
D12*
X122936000Y-99441000D03*
X120396000Y-101981000D03*
X122936000Y-101981000D03*
X120396000Y-104521000D03*
X122936000Y-104521000D03*
X120396000Y-107061000D03*
X122936000Y-107061000D03*
X120396000Y-109601000D03*
X122936000Y-109601000D03*
X120396000Y-112141000D03*
X122936000Y-112141000D03*
X120396000Y-114681000D03*
X122936000Y-114681000D03*
X120396000Y-117221000D03*
X122936000Y-117221000D03*
X120396000Y-119761000D03*
X122936000Y-119761000D03*
D11*
X142494000Y-114681000D03*
D12*
X139954000Y-114681000D03*
X142494000Y-117221000D03*
X139954000Y-117221000D03*
X142494000Y-119761000D03*
X139954000Y-119761000D03*
D13*
X132461000Y-114681000D03*
D14*
X135001000Y-114681000D03*
X132461000Y-117221000D03*
X135001000Y-117221000D03*
X132461000Y-119761000D03*
X135001000Y-119761000D03*
D15*
X138303000Y-102108000D03*
D16*
X145923000Y-102108000D03*
D15*
X145923000Y-98679000D03*
D16*
X138303000Y-98679000D03*
D17*
X129220000Y-100459800D03*
X133670000Y-100459800D03*
D18*
X127270000Y-97459800D03*
X135620000Y-97459800D03*
D19*
X154500000Y-113000000D03*
X151130000Y-99187000D03*
X130175000Y-102235000D03*
X144780000Y-104648000D03*
X149098000Y-104902000D03*
X137795000Y-109982000D03*
X151765000Y-118110000D03*
X149352000Y-114681000D03*
X132842000Y-102108000D03*
X147574000Y-99822000D03*
X130556000Y-119634000D03*
X130556000Y-115316000D03*
X149987000Y-116840000D03*
X149225000Y-119126000D03*
X127127000Y-110744000D03*
X127127000Y-106299000D03*
X127762000Y-111379000D03*
X127762000Y-106934000D03*
X128397000Y-112014000D03*
X128524000Y-107569000D03*
X129032000Y-108204000D03*
X129032000Y-112649000D03*
X142250000Y-102000000D03*
X150500000Y-105500000D03*
X156750000Y-105500000D03*
X128397000Y-103251000D03*
X134493000Y-112649000D03*
X127127000Y-115951000D03*
X137795000Y-111506000D03*
X137160000Y-119761000D03*
X131699000Y-112014000D03*
X127762000Y-118491000D03*
X133223000Y-111379000D03*
X128270000Y-121031000D03*
X125857000Y-112141000D03*
X131953000Y-110236000D03*
X144272000Y-102108000D03*
X140335000Y-106299000D03*
X126619000Y-101981000D03*
X136525000Y-105029000D03*
X125857000Y-104648000D03*
X139446000Y-106299000D03*
X137160000Y-114681000D03*
X125095000Y-107061000D03*
X138557000Y-106299000D03*
X136525000Y-117221000D03*
X125349000Y-109601000D03*
X137668000Y-106299000D03*
D20*
X137795000Y-109982000D02*
X138684000Y-109982000D01*
X139446000Y-100457000D02*
X146939000Y-100457000D01*
X132842000Y-102108000D02*
X136144000Y-102108000D01*
X136144000Y-102108000D02*
X137795000Y-100457000D01*
X139446000Y-100457000D02*
X137795000Y-100457000D01*
X146939000Y-100457000D02*
X147574000Y-99822000D01*
X130556000Y-115316000D02*
X130556000Y-119634000D01*
X149987000Y-118364000D02*
X149987000Y-116840000D01*
X149225000Y-119126000D02*
X149987000Y-118364000D01*
X127127000Y-110109000D02*
X127127000Y-110744000D01*
X127127000Y-106299000D02*
X127127000Y-110109000D01*
X127762000Y-106934000D02*
X127762000Y-110871000D01*
X127762000Y-110871000D02*
X127762000Y-111379000D01*
X128524000Y-107569000D02*
X128397000Y-107696000D01*
X128397000Y-107696000D02*
X128397000Y-111506000D01*
X128397000Y-111506000D02*
X128397000Y-112014000D01*
X129032000Y-112141000D02*
X129032000Y-112649000D01*
X129032000Y-108204000D02*
X129032000Y-112141000D01*
X130682000Y-103250000D02*
X130750000Y-103250000D01*
X130750000Y-103250000D02*
X136500000Y-103250000D01*
X136500000Y-103250000D02*
X137000000Y-103750000D01*
X137000000Y-103750000D02*
X140500000Y-103750000D01*
X140500000Y-103750000D02*
X142250000Y-102000000D01*
X150500000Y-105500000D02*
X156750000Y-105500000D01*
X128397000Y-103251000D02*
X128398000Y-103250000D01*
X128398000Y-103250000D02*
X130682000Y-103250000D01*
X134493000Y-111252000D02*
X133985000Y-110744000D01*
X133985000Y-110744000D02*
X132461000Y-110744000D01*
X132461000Y-110744000D02*
X131953000Y-111252000D01*
X131953000Y-111252000D02*
X130556000Y-111252000D01*
X130556000Y-111252000D02*
X130175000Y-111633000D01*
X130175000Y-111633000D02*
X130175000Y-112395000D01*
X130175000Y-112395000D02*
X130175000Y-113030000D01*
X134493000Y-112649000D02*
X134493000Y-111252000D01*
X130048000Y-113157000D02*
X129413000Y-113792000D01*
X129159000Y-113792000D02*
X129032000Y-113919000D01*
X129032000Y-113919000D02*
X129032000Y-115697000D01*
X129032000Y-115697000D02*
X128778000Y-115951000D01*
X128778000Y-115951000D02*
X127127000Y-115951000D01*
X129413000Y-113792000D02*
X129159000Y-113792000D01*
X130048000Y-113157000D02*
X129921000Y-113284000D01*
X129921000Y-113284000D02*
X130175000Y-113030000D01*
X130175000Y-113030000D02*
X130048000Y-113157000D01*
X130048000Y-113157000D02*
X130175000Y-113030000D01*
X137160000Y-116459000D02*
X137160000Y-119761000D01*
X137795000Y-111506000D02*
X137795000Y-115189000D01*
X137795000Y-115189000D02*
X137160000Y-115824000D01*
X137160000Y-115824000D02*
X137160000Y-116459000D01*
X131699000Y-112014000D02*
X130937000Y-112014000D01*
X130937000Y-112014000D02*
X130683000Y-112268000D01*
X130683000Y-112268000D02*
X130683000Y-112395000D01*
X130683000Y-113157000D02*
X130683000Y-112522000D01*
X130683000Y-112522000D02*
X130683000Y-112395000D01*
X129432002Y-115824000D02*
X129432002Y-114407998D01*
X130429000Y-113411000D02*
X129432002Y-114407998D01*
X130429000Y-113411000D02*
X130683000Y-113157000D01*
X129432002Y-118217998D02*
X129159000Y-118491000D01*
X129159000Y-118491000D02*
X127762000Y-118491000D01*
X129432002Y-115824000D02*
X129432002Y-118217998D01*
X129432002Y-115824000D02*
X129432002Y-115862686D01*
X132588000Y-112014000D02*
X133223000Y-111379000D01*
X131191000Y-113411000D02*
X131191000Y-112903000D01*
X131953000Y-112649000D02*
X132588000Y-112014000D01*
X131445000Y-112649000D02*
X131953000Y-112649000D01*
X131191000Y-112903000D02*
X131445000Y-112649000D01*
X131191000Y-113411000D02*
X130683000Y-113919000D01*
X129921000Y-120777000D02*
X129667000Y-121031000D01*
X129921000Y-116713000D02*
X129921000Y-116205000D01*
X130683000Y-113919000D02*
X129921000Y-114681000D01*
X129921000Y-114681000D02*
X129921000Y-116205000D01*
X129921000Y-116713000D02*
X129921000Y-120777000D01*
X129667000Y-121031000D02*
X128270000Y-121031000D01*
X131191000Y-113411000D02*
X131064000Y-113538000D01*
X131064000Y-113538000D02*
X131191000Y-113411000D01*
X129667000Y-112395000D02*
X129667000Y-110744000D01*
X127635000Y-112141000D02*
X125857000Y-112141000D01*
X128778000Y-113284000D02*
X127635000Y-112141000D01*
X129286000Y-113284000D02*
X128778000Y-113284000D01*
X129667000Y-112903000D02*
X129286000Y-113284000D01*
X129667000Y-112395000D02*
X129667000Y-112903000D01*
X130175000Y-110236000D02*
X131953000Y-110236000D01*
X129667000Y-110744000D02*
X130175000Y-110236000D01*
X138303000Y-104394000D02*
X140589000Y-104394000D01*
X144272000Y-102108000D02*
X142875000Y-103505000D01*
X141478000Y-103505000D02*
X142875000Y-103505000D01*
X140589000Y-104394000D02*
X141478000Y-103505000D01*
X138684000Y-104648000D02*
X138557000Y-104521000D01*
X140335000Y-106299000D02*
X138811000Y-104775000D01*
X127254000Y-101981000D02*
X126619000Y-101981000D01*
X127762000Y-102489000D02*
X127254000Y-101981000D01*
X127762000Y-104140000D02*
X127762000Y-102489000D01*
X138811000Y-104775000D02*
X138684000Y-104648000D01*
X128016000Y-104394000D02*
X127762000Y-104140000D01*
X138430000Y-104394000D02*
X138303000Y-104394000D01*
X138303000Y-104394000D02*
X128016000Y-104394000D01*
X138557000Y-104521000D02*
X138430000Y-104394000D01*
X136525000Y-105029000D02*
X128270000Y-105029000D01*
X127635000Y-104648000D02*
X125857000Y-104648000D01*
X128143000Y-105156000D02*
X127635000Y-104648000D01*
X128270000Y-105029000D02*
X128143000Y-105156000D01*
X138303000Y-105156000D02*
X138176000Y-105029000D01*
X139446000Y-106299000D02*
X138303000Y-105156000D01*
X138176000Y-105029000D02*
X136525000Y-105029000D01*
X137160000Y-107823000D02*
X137160000Y-114681000D01*
X138557000Y-106426000D02*
X137160000Y-107823000D01*
X138557000Y-106299000D02*
X138557000Y-106426000D01*
X125984000Y-105918000D02*
X125984000Y-106807000D01*
X125984000Y-106807000D02*
X125730000Y-107061000D01*
X125730000Y-107061000D02*
X125095000Y-107061000D01*
X138176000Y-105918000D02*
X138049000Y-105791000D01*
X138049000Y-105791000D02*
X137922000Y-105664000D01*
X137922000Y-105664000D02*
X128016000Y-105664000D01*
X128016000Y-105664000D02*
X127508000Y-105156000D01*
X127508000Y-105156000D02*
X126746000Y-105156000D01*
X138176000Y-105918000D02*
X138557000Y-106299000D01*
X126746000Y-105156000D02*
X125984000Y-105918000D01*
X138557000Y-106299000D02*
X138557000Y-106172000D01*
X136525000Y-106299000D02*
X136525000Y-116205000D01*
X136525000Y-117221000D02*
X136525000Y-116205000D01*
X128016000Y-106299000D02*
X127381000Y-105664000D01*
X127381000Y-105664000D02*
X126873000Y-105664000D01*
X126873000Y-105664000D02*
X126492000Y-106045000D01*
X126492000Y-106045000D02*
X126492000Y-109220000D01*
X126492000Y-109220000D02*
X126111000Y-109601000D01*
X126111000Y-109601000D02*
X125349000Y-109601000D01*
X134620000Y-106299000D02*
X136525000Y-106299000D01*
X136525000Y-106299000D02*
X136652000Y-106299000D01*
X136652000Y-106299000D02*
X137668000Y-106299000D01*
X134620000Y-106299000D02*
X128016000Y-106299000D01*
D21*
G36*
X126456062Y-96646580D02*
X126389000Y-96983724D01*
X126389000Y-97935876D01*
X126456062Y-98273020D01*
X126647039Y-98558837D01*
X126932856Y-98749814D01*
X127270000Y-98816876D01*
X127607144Y-98749814D01*
X127892961Y-98558837D01*
X128083938Y-98273020D01*
X128151000Y-97935876D01*
X128151000Y-96983724D01*
X128083938Y-96646580D01*
X127939892Y-96431000D01*
X134950108Y-96431000D01*
X134806062Y-96646580D01*
X134739000Y-96983724D01*
X134739000Y-97935876D01*
X134806062Y-98273020D01*
X134997039Y-98558837D01*
X135282856Y-98749814D01*
X135620000Y-98816876D01*
X135957144Y-98749814D01*
X136063124Y-98679000D01*
X137098863Y-98679000D01*
X137188761Y-99130949D01*
X137444770Y-99514093D01*
X137827914Y-99770102D01*
X138279863Y-99860000D01*
X138326137Y-99860000D01*
X138778086Y-99770102D01*
X139161230Y-99514093D01*
X139417239Y-99130949D01*
X139460614Y-98912885D01*
X144741796Y-98912885D01*
X144921213Y-99347109D01*
X145253144Y-99679619D01*
X145687054Y-99859794D01*
X146156885Y-99860204D01*
X146591109Y-99680787D01*
X146923619Y-99348856D01*
X147103794Y-98914946D01*
X147104204Y-98445115D01*
X146924787Y-98010891D01*
X146592856Y-97678381D01*
X146158946Y-97498206D01*
X145689115Y-97497796D01*
X145254891Y-97677213D01*
X144922381Y-98009144D01*
X144742206Y-98443054D01*
X144741796Y-98912885D01*
X139460614Y-98912885D01*
X139507137Y-98679000D01*
X139417239Y-98227051D01*
X139161230Y-97843907D01*
X138778086Y-97587898D01*
X138326137Y-97498000D01*
X138279863Y-97498000D01*
X137827914Y-97587898D01*
X137444770Y-97843907D01*
X137188761Y-98227051D01*
X137098863Y-98679000D01*
X136063124Y-98679000D01*
X136242961Y-98558837D01*
X136433938Y-98273020D01*
X136501000Y-97935876D01*
X136501000Y-96983724D01*
X136433938Y-96646580D01*
X136289892Y-96431000D01*
X161569000Y-96431000D01*
X161569000Y-121569000D01*
X128694982Y-121569000D01*
X128752081Y-121512000D01*
X129667000Y-121512000D01*
X129851071Y-121475386D01*
X130007118Y-121371118D01*
X130261118Y-121117119D01*
X130365386Y-120961071D01*
X130382039Y-120877350D01*
X131524255Y-120877350D01*
X131616792Y-121139019D01*
X132208398Y-121357188D01*
X132838461Y-121332352D01*
X133305208Y-121139019D01*
X133397745Y-120877350D01*
X132461000Y-119940605D01*
X131524255Y-120877350D01*
X130382039Y-120877350D01*
X130402000Y-120777000D01*
X130402000Y-120307430D01*
X130419946Y-120314882D01*
X130690865Y-120315118D01*
X130923079Y-120219170D01*
X131082981Y-120605208D01*
X131344650Y-120697745D01*
X132281395Y-119761000D01*
X131344650Y-118824255D01*
X131082981Y-118916792D01*
X131037000Y-119041478D01*
X131037000Y-115798079D01*
X131132987Y-115702259D01*
X131135022Y-115697358D01*
X131149103Y-115772190D01*
X131232546Y-115901865D01*
X131359866Y-115988859D01*
X131511000Y-116019464D01*
X131883524Y-116019464D01*
X131708034Y-116091975D01*
X131333291Y-116466065D01*
X131130231Y-116955086D01*
X131129769Y-117484591D01*
X131331975Y-117973966D01*
X131704154Y-118346795D01*
X131616792Y-118382981D01*
X131524255Y-118644650D01*
X132461000Y-119581395D01*
X133397745Y-118644650D01*
X133305208Y-118382981D01*
X133214472Y-118349520D01*
X133588709Y-117975935D01*
X133731099Y-117633022D01*
X133871975Y-117973966D01*
X134246065Y-118348709D01*
X134588978Y-118491099D01*
X134248034Y-118631975D01*
X133875205Y-119004154D01*
X133839019Y-118916792D01*
X133577350Y-118824255D01*
X132640605Y-119761000D01*
X133577350Y-120697745D01*
X133839019Y-120605208D01*
X133872480Y-120514472D01*
X134246065Y-120888709D01*
X134735086Y-121091769D01*
X135264591Y-121092231D01*
X135753966Y-120890025D01*
X136128709Y-120515935D01*
X136331769Y-120026914D01*
X136332231Y-119497409D01*
X136130025Y-119008034D01*
X135755935Y-118633291D01*
X135413022Y-118490901D01*
X135753966Y-118350025D01*
X136128709Y-117975935D01*
X136193208Y-117820604D01*
X136388946Y-117901882D01*
X136659865Y-117902118D01*
X136679000Y-117894212D01*
X136679000Y-119278921D01*
X136583013Y-119374741D01*
X136479118Y-119624946D01*
X136478882Y-119895865D01*
X136582339Y-120146252D01*
X136773741Y-120337987D01*
X137023946Y-120441882D01*
X137294865Y-120442118D01*
X137545252Y-120338661D01*
X137736987Y-120147259D01*
X137840882Y-119897054D01*
X137841000Y-119761000D01*
X138698883Y-119761000D01*
X138792587Y-120232083D01*
X139059435Y-120631448D01*
X139458800Y-120898296D01*
X139929883Y-120992000D01*
X139978117Y-120992000D01*
X140449200Y-120898296D01*
X140848565Y-120631448D01*
X141115413Y-120232083D01*
X141209117Y-119761000D01*
X141238883Y-119761000D01*
X141332587Y-120232083D01*
X141599435Y-120631448D01*
X141998800Y-120898296D01*
X142469883Y-120992000D01*
X142518117Y-120992000D01*
X142989200Y-120898296D01*
X143388565Y-120631448D01*
X143655413Y-120232083D01*
X143749117Y-119761000D01*
X143655413Y-119289917D01*
X143636002Y-119260865D01*
X148543882Y-119260865D01*
X148647339Y-119511252D01*
X148838741Y-119702987D01*
X149088946Y-119806882D01*
X149359865Y-119807118D01*
X149610252Y-119703661D01*
X149801987Y-119512259D01*
X149905882Y-119262054D01*
X149906001Y-119125235D01*
X150327119Y-118704118D01*
X150428606Y-118552231D01*
X150431386Y-118548071D01*
X150462367Y-118392316D01*
X156018657Y-118392316D01*
X156319611Y-119120680D01*
X156876389Y-119678431D01*
X157604226Y-119980655D01*
X158392316Y-119981343D01*
X159120680Y-119680389D01*
X159678431Y-119123611D01*
X159980655Y-118395774D01*
X159981343Y-117607684D01*
X159680389Y-116879320D01*
X159123611Y-116321569D01*
X158395774Y-116019345D01*
X157607684Y-116018657D01*
X156879320Y-116319611D01*
X156321569Y-116876389D01*
X156019345Y-117604226D01*
X156018657Y-118392316D01*
X150462367Y-118392316D01*
X150468000Y-118364000D01*
X150468000Y-117322079D01*
X150563987Y-117226259D01*
X150667882Y-116976054D01*
X150668118Y-116705135D01*
X150564661Y-116454748D01*
X150373259Y-116263013D01*
X150123054Y-116159118D01*
X149852135Y-116158882D01*
X149601748Y-116262339D01*
X149410013Y-116453741D01*
X149306118Y-116703946D01*
X149305882Y-116974865D01*
X149409339Y-117225252D01*
X149506000Y-117322081D01*
X149506000Y-118164763D01*
X149225763Y-118445000D01*
X149090135Y-118444882D01*
X148839748Y-118548339D01*
X148648013Y-118739741D01*
X148544118Y-118989946D01*
X148543882Y-119260865D01*
X143636002Y-119260865D01*
X143388565Y-118890552D01*
X142989200Y-118623704D01*
X142518117Y-118530000D01*
X142469883Y-118530000D01*
X141998800Y-118623704D01*
X141599435Y-118890552D01*
X141332587Y-119289917D01*
X141238883Y-119761000D01*
X141209117Y-119761000D01*
X141115413Y-119289917D01*
X140848565Y-118890552D01*
X140449200Y-118623704D01*
X139978117Y-118530000D01*
X139929883Y-118530000D01*
X139458800Y-118623704D01*
X139059435Y-118890552D01*
X138792587Y-119289917D01*
X138698883Y-119761000D01*
X137841000Y-119761000D01*
X137841118Y-119626135D01*
X137737661Y-119375748D01*
X137641000Y-119278919D01*
X137641000Y-116023236D01*
X138135119Y-115529118D01*
X138198697Y-115433966D01*
X138239386Y-115373071D01*
X138276000Y-115189000D01*
X138276000Y-115037890D01*
X138512524Y-115037890D01*
X138682355Y-115447924D01*
X139072642Y-115876183D01*
X139497947Y-116075917D01*
X139458800Y-116083704D01*
X139059435Y-116350552D01*
X138792587Y-116749917D01*
X138698883Y-117221000D01*
X138792587Y-117692083D01*
X139059435Y-118091448D01*
X139458800Y-118358296D01*
X139929883Y-118452000D01*
X139978117Y-118452000D01*
X140449200Y-118358296D01*
X140848565Y-118091448D01*
X141115413Y-117692083D01*
X141209117Y-117221000D01*
X141238883Y-117221000D01*
X141332587Y-117692083D01*
X141599435Y-118091448D01*
X141998800Y-118358296D01*
X142469883Y-118452000D01*
X142518117Y-118452000D01*
X142989200Y-118358296D01*
X143388565Y-118091448D01*
X143655413Y-117692083D01*
X143749117Y-117221000D01*
X143655413Y-116749917D01*
X143388565Y-116350552D01*
X142989200Y-116083704D01*
X142518117Y-115990000D01*
X142469883Y-115990000D01*
X141998800Y-116083704D01*
X141599435Y-116350552D01*
X141332587Y-116749917D01*
X141238883Y-117221000D01*
X141209117Y-117221000D01*
X141115413Y-116749917D01*
X140848565Y-116350552D01*
X140449200Y-116083704D01*
X140410053Y-116075917D01*
X140835358Y-115876183D01*
X141225645Y-115447924D01*
X141255536Y-115375756D01*
X141255536Y-115531000D01*
X141282103Y-115672190D01*
X141365546Y-115801865D01*
X141492866Y-115888859D01*
X141644000Y-115919464D01*
X143344000Y-115919464D01*
X143485190Y-115892897D01*
X143614865Y-115809454D01*
X143701859Y-115682134D01*
X143732464Y-115531000D01*
X143732464Y-113831000D01*
X143705897Y-113689810D01*
X143622454Y-113560135D01*
X143495134Y-113473141D01*
X143344000Y-113442536D01*
X141644000Y-113442536D01*
X141502810Y-113469103D01*
X141373135Y-113552546D01*
X141286141Y-113679866D01*
X141255536Y-113831000D01*
X141255536Y-113986244D01*
X141225645Y-113914076D01*
X140835358Y-113485817D01*
X140310892Y-113239514D01*
X140081000Y-113360181D01*
X140081000Y-114554000D01*
X140101000Y-114554000D01*
X140101000Y-114808000D01*
X140081000Y-114808000D01*
X140081000Y-114828000D01*
X139827000Y-114828000D01*
X139827000Y-114808000D01*
X138633845Y-114808000D01*
X138512524Y-115037890D01*
X138276000Y-115037890D01*
X138276000Y-114324110D01*
X138512524Y-114324110D01*
X138633845Y-114554000D01*
X139827000Y-114554000D01*
X139827000Y-113360181D01*
X139597108Y-113239514D01*
X139072642Y-113485817D01*
X138682355Y-113914076D01*
X138512524Y-114324110D01*
X138276000Y-114324110D01*
X138276000Y-111988079D01*
X138371987Y-111892259D01*
X138475882Y-111642054D01*
X138476118Y-111371135D01*
X138372661Y-111120748D01*
X138181259Y-110929013D01*
X137931054Y-110825118D01*
X137660135Y-110824882D01*
X137641000Y-110832788D01*
X137641000Y-108022236D01*
X138683126Y-106980110D01*
X138691865Y-106980118D01*
X138942252Y-106876661D01*
X139001436Y-106817580D01*
X139059741Y-106875987D01*
X139309946Y-106979882D01*
X139580865Y-106980118D01*
X139831252Y-106876661D01*
X139890436Y-106817580D01*
X139948741Y-106875987D01*
X140198946Y-106979882D01*
X140469865Y-106980118D01*
X140720252Y-106876661D01*
X140911987Y-106685259D01*
X141015882Y-106435054D01*
X141016118Y-106164135D01*
X140912661Y-105913748D01*
X140721259Y-105722013D01*
X140511385Y-105634865D01*
X149818882Y-105634865D01*
X149922339Y-105885252D01*
X150113741Y-106076987D01*
X150363946Y-106180882D01*
X150634865Y-106181118D01*
X150885252Y-106077661D01*
X150982081Y-105981000D01*
X156267921Y-105981000D01*
X156363741Y-106076987D01*
X156613946Y-106180882D01*
X156884865Y-106181118D01*
X157135252Y-106077661D01*
X157326987Y-105886259D01*
X157430882Y-105636054D01*
X157431118Y-105365135D01*
X157327661Y-105114748D01*
X157136259Y-104923013D01*
X156886054Y-104819118D01*
X156615135Y-104818882D01*
X156364748Y-104922339D01*
X156267919Y-105019000D01*
X150982079Y-105019000D01*
X150886259Y-104923013D01*
X150636054Y-104819118D01*
X150365135Y-104818882D01*
X150114748Y-104922339D01*
X149923013Y-105113741D01*
X149819118Y-105363946D01*
X149818882Y-105634865D01*
X140511385Y-105634865D01*
X140471054Y-105618118D01*
X140334236Y-105617999D01*
X139591236Y-104875000D01*
X140589000Y-104875000D01*
X140773071Y-104838386D01*
X140929118Y-104734118D01*
X141677236Y-103986000D01*
X142875000Y-103986000D01*
X143059071Y-103949386D01*
X143215118Y-103845118D01*
X144271237Y-102789000D01*
X144406865Y-102789118D01*
X144657252Y-102685661D01*
X144804523Y-102538645D01*
X144808761Y-102559949D01*
X145064770Y-102943093D01*
X145447914Y-103199102D01*
X145899863Y-103289000D01*
X145946137Y-103289000D01*
X146398086Y-103199102D01*
X146781230Y-102943093D01*
X147037239Y-102559949D01*
X147127137Y-102108000D01*
X147037239Y-101656051D01*
X146781230Y-101272907D01*
X146398086Y-101016898D01*
X146001438Y-100938000D01*
X146939000Y-100938000D01*
X147123071Y-100901386D01*
X147279118Y-100797118D01*
X147573237Y-100503000D01*
X147708865Y-100503118D01*
X147959252Y-100399661D01*
X147966609Y-100392316D01*
X156018657Y-100392316D01*
X156319611Y-101120680D01*
X156876389Y-101678431D01*
X157604226Y-101980655D01*
X158392316Y-101981343D01*
X159120680Y-101680389D01*
X159678431Y-101123611D01*
X159980655Y-100395774D01*
X159981343Y-99607684D01*
X159680389Y-98879320D01*
X159123611Y-98321569D01*
X158395774Y-98019345D01*
X157607684Y-98018657D01*
X156879320Y-98319611D01*
X156321569Y-98876389D01*
X156019345Y-99604226D01*
X156018657Y-100392316D01*
X147966609Y-100392316D01*
X148150987Y-100208259D01*
X148254882Y-99958054D01*
X148255118Y-99687135D01*
X148151661Y-99436748D01*
X147960259Y-99245013D01*
X147710054Y-99141118D01*
X147439135Y-99140882D01*
X147188748Y-99244339D01*
X146997013Y-99435741D01*
X146893118Y-99685946D01*
X146892999Y-99822765D01*
X146739764Y-99976000D01*
X137795000Y-99976000D01*
X137610929Y-100012614D01*
X137548426Y-100054378D01*
X137454882Y-100116881D01*
X135944764Y-101627000D01*
X133324079Y-101627000D01*
X133228259Y-101531013D01*
X132978054Y-101427118D01*
X132707135Y-101426882D01*
X132456748Y-101530339D01*
X132265013Y-101721741D01*
X132161118Y-101971946D01*
X132160882Y-102242865D01*
X132264339Y-102493252D01*
X132455741Y-102684987D01*
X132658065Y-102769000D01*
X128878081Y-102769000D01*
X128783259Y-102674013D01*
X128533054Y-102570118D01*
X128262135Y-102569882D01*
X128243000Y-102577788D01*
X128243000Y-102489000D01*
X128206386Y-102304929D01*
X128102118Y-102148881D01*
X127594118Y-101640882D01*
X127438071Y-101536614D01*
X127254000Y-101500000D01*
X127101079Y-101500000D01*
X127005259Y-101404013D01*
X126755054Y-101300118D01*
X126484135Y-101299882D01*
X126233748Y-101403339D01*
X126042013Y-101594741D01*
X125938118Y-101844946D01*
X125937882Y-102115865D01*
X126041339Y-102366252D01*
X126232741Y-102557987D01*
X126482946Y-102661882D01*
X126753865Y-102662118D01*
X127004252Y-102558661D01*
X127077902Y-102485139D01*
X127281000Y-102688237D01*
X127281000Y-104140000D01*
X127286371Y-104167000D01*
X126339079Y-104167000D01*
X126243259Y-104071013D01*
X125993054Y-103967118D01*
X125722135Y-103966882D01*
X125471748Y-104070339D01*
X125280013Y-104261741D01*
X125176118Y-104511946D01*
X125175882Y-104782865D01*
X125279339Y-105033252D01*
X125470741Y-105224987D01*
X125720946Y-105328882D01*
X125892732Y-105329032D01*
X125643882Y-105577882D01*
X125539614Y-105733929D01*
X125503000Y-105918000D01*
X125503000Y-106505792D01*
X125481259Y-106484013D01*
X125231054Y-106380118D01*
X124960135Y-106379882D01*
X124709748Y-106483339D01*
X124518013Y-106674741D01*
X124414118Y-106924946D01*
X124413882Y-107195865D01*
X124517339Y-107446252D01*
X124708741Y-107637987D01*
X124958946Y-107741882D01*
X125229865Y-107742118D01*
X125480252Y-107638661D01*
X125577081Y-107542000D01*
X125730000Y-107542000D01*
X125914071Y-107505386D01*
X126011000Y-107440620D01*
X126011000Y-109020763D01*
X125911764Y-109120000D01*
X125831079Y-109120000D01*
X125735259Y-109024013D01*
X125485054Y-108920118D01*
X125214135Y-108919882D01*
X124963748Y-109023339D01*
X124772013Y-109214741D01*
X124668118Y-109464946D01*
X124667882Y-109735865D01*
X124771339Y-109986252D01*
X124962741Y-110177987D01*
X125212946Y-110281882D01*
X125483865Y-110282118D01*
X125734252Y-110178661D01*
X125831081Y-110082000D01*
X126111000Y-110082000D01*
X126295071Y-110045386D01*
X126451118Y-109941118D01*
X126646000Y-109746237D01*
X126646000Y-110261921D01*
X126550013Y-110357741D01*
X126446118Y-110607946D01*
X126445882Y-110878865D01*
X126549339Y-111129252D01*
X126740741Y-111320987D01*
X126990946Y-111424882D01*
X127080959Y-111424960D01*
X127080882Y-111513865D01*
X127141263Y-111660000D01*
X126339079Y-111660000D01*
X126243259Y-111564013D01*
X125993054Y-111460118D01*
X125722135Y-111459882D01*
X125471748Y-111563339D01*
X125280013Y-111754741D01*
X125176118Y-112004946D01*
X125175882Y-112275865D01*
X125279339Y-112526252D01*
X125470741Y-112717987D01*
X125720946Y-112821882D01*
X125991865Y-112822118D01*
X126242252Y-112718661D01*
X126339081Y-112622000D01*
X127435764Y-112622000D01*
X128437882Y-113624118D01*
X128592586Y-113727488D01*
X128587614Y-113734929D01*
X128551000Y-113919000D01*
X128551000Y-115470000D01*
X127609079Y-115470000D01*
X127513259Y-115374013D01*
X127263054Y-115270118D01*
X126992135Y-115269882D01*
X126741748Y-115373339D01*
X126550013Y-115564741D01*
X126446118Y-115814946D01*
X126445882Y-116085865D01*
X126549339Y-116336252D01*
X126740741Y-116527987D01*
X126990946Y-116631882D01*
X127261865Y-116632118D01*
X127512252Y-116528661D01*
X127609081Y-116432000D01*
X128778000Y-116432000D01*
X128951002Y-116397588D01*
X128951002Y-118010000D01*
X128244079Y-118010000D01*
X128148259Y-117914013D01*
X127898054Y-117810118D01*
X127627135Y-117809882D01*
X127376748Y-117913339D01*
X127185013Y-118104741D01*
X127081118Y-118354946D01*
X127080882Y-118625865D01*
X127184339Y-118876252D01*
X127375741Y-119067987D01*
X127625946Y-119171882D01*
X127896865Y-119172118D01*
X128147252Y-119068661D01*
X128244081Y-118972000D01*
X129159000Y-118972000D01*
X129343071Y-118935386D01*
X129440000Y-118870620D01*
X129440000Y-120550000D01*
X128752079Y-120550000D01*
X128656259Y-120454013D01*
X128406054Y-120350118D01*
X128135135Y-120349882D01*
X127884748Y-120453339D01*
X127693013Y-120644741D01*
X127589118Y-120894946D01*
X127588882Y-121165865D01*
X127692339Y-121416252D01*
X127844822Y-121569000D01*
X110431000Y-121569000D01*
X110431000Y-118392316D01*
X112018657Y-118392316D01*
X112319611Y-119120680D01*
X112876389Y-119678431D01*
X113604226Y-119980655D01*
X114392316Y-119981343D01*
X114925586Y-119761000D01*
X119140883Y-119761000D01*
X119234587Y-120232083D01*
X119501435Y-120631448D01*
X119900800Y-120898296D01*
X120371883Y-120992000D01*
X120420117Y-120992000D01*
X120891200Y-120898296D01*
X121290565Y-120631448D01*
X121557413Y-120232083D01*
X121651117Y-119761000D01*
X121680883Y-119761000D01*
X121774587Y-120232083D01*
X122041435Y-120631448D01*
X122440800Y-120898296D01*
X122911883Y-120992000D01*
X122960117Y-120992000D01*
X123431200Y-120898296D01*
X123830565Y-120631448D01*
X124097413Y-120232083D01*
X124191117Y-119761000D01*
X124097413Y-119289917D01*
X123830565Y-118890552D01*
X123431200Y-118623704D01*
X122960117Y-118530000D01*
X122911883Y-118530000D01*
X122440800Y-118623704D01*
X122041435Y-118890552D01*
X121774587Y-119289917D01*
X121680883Y-119761000D01*
X121651117Y-119761000D01*
X121557413Y-119289917D01*
X121290565Y-118890552D01*
X120891200Y-118623704D01*
X120420117Y-118530000D01*
X120371883Y-118530000D01*
X119900800Y-118623704D01*
X119501435Y-118890552D01*
X119234587Y-119289917D01*
X119140883Y-119761000D01*
X114925586Y-119761000D01*
X115120680Y-119680389D01*
X115678431Y-119123611D01*
X115980655Y-118395774D01*
X115981343Y-117607684D01*
X115821569Y-117221000D01*
X119140883Y-117221000D01*
X119234587Y-117692083D01*
X119501435Y-118091448D01*
X119900800Y-118358296D01*
X120371883Y-118452000D01*
X120420117Y-118452000D01*
X120891200Y-118358296D01*
X121290565Y-118091448D01*
X121557413Y-117692083D01*
X121651117Y-117221000D01*
X121680883Y-117221000D01*
X121774587Y-117692083D01*
X122041435Y-118091448D01*
X122440800Y-118358296D01*
X122911883Y-118452000D01*
X122960117Y-118452000D01*
X123431200Y-118358296D01*
X123830565Y-118091448D01*
X124097413Y-117692083D01*
X124191117Y-117221000D01*
X124097413Y-116749917D01*
X123830565Y-116350552D01*
X123431200Y-116083704D01*
X122960117Y-115990000D01*
X122911883Y-115990000D01*
X122440800Y-116083704D01*
X122041435Y-116350552D01*
X121774587Y-116749917D01*
X121680883Y-117221000D01*
X121651117Y-117221000D01*
X121557413Y-116749917D01*
X121290565Y-116350552D01*
X120891200Y-116083704D01*
X120420117Y-115990000D01*
X120371883Y-115990000D01*
X119900800Y-116083704D01*
X119501435Y-116350552D01*
X119234587Y-116749917D01*
X119140883Y-117221000D01*
X115821569Y-117221000D01*
X115680389Y-116879320D01*
X115123611Y-116321569D01*
X114395774Y-116019345D01*
X113607684Y-116018657D01*
X112879320Y-116319611D01*
X112321569Y-116876389D01*
X112019345Y-117604226D01*
X112018657Y-118392316D01*
X110431000Y-118392316D01*
X110431000Y-114681000D01*
X119140883Y-114681000D01*
X119234587Y-115152083D01*
X119501435Y-115551448D01*
X119900800Y-115818296D01*
X120371883Y-115912000D01*
X120420117Y-115912000D01*
X120891200Y-115818296D01*
X121290565Y-115551448D01*
X121557413Y-115152083D01*
X121651117Y-114681000D01*
X121680883Y-114681000D01*
X121774587Y-115152083D01*
X122041435Y-115551448D01*
X122440800Y-115818296D01*
X122911883Y-115912000D01*
X122960117Y-115912000D01*
X123431200Y-115818296D01*
X123830565Y-115551448D01*
X124097413Y-115152083D01*
X124191117Y-114681000D01*
X124097413Y-114209917D01*
X123830565Y-113810552D01*
X123431200Y-113543704D01*
X122960117Y-113450000D01*
X122911883Y-113450000D01*
X122440800Y-113543704D01*
X122041435Y-113810552D01*
X121774587Y-114209917D01*
X121680883Y-114681000D01*
X121651117Y-114681000D01*
X121557413Y-114209917D01*
X121290565Y-113810552D01*
X120891200Y-113543704D01*
X120420117Y-113450000D01*
X120371883Y-113450000D01*
X119900800Y-113543704D01*
X119501435Y-113810552D01*
X119234587Y-114209917D01*
X119140883Y-114681000D01*
X110431000Y-114681000D01*
X110431000Y-112141000D01*
X119140883Y-112141000D01*
X119234587Y-112612083D01*
X119501435Y-113011448D01*
X119900800Y-113278296D01*
X120371883Y-113372000D01*
X120420117Y-113372000D01*
X120891200Y-113278296D01*
X121290565Y-113011448D01*
X121557413Y-112612083D01*
X121651117Y-112141000D01*
X121680883Y-112141000D01*
X121774587Y-112612083D01*
X122041435Y-113011448D01*
X122440800Y-113278296D01*
X122911883Y-113372000D01*
X122960117Y-113372000D01*
X123431200Y-113278296D01*
X123830565Y-113011448D01*
X124097413Y-112612083D01*
X124191117Y-112141000D01*
X124097413Y-111669917D01*
X123830565Y-111270552D01*
X123431200Y-111003704D01*
X122960117Y-110910000D01*
X122911883Y-110910000D01*
X122440800Y-111003704D01*
X122041435Y-111270552D01*
X121774587Y-111669917D01*
X121680883Y-112141000D01*
X121651117Y-112141000D01*
X121557413Y-111669917D01*
X121290565Y-111270552D01*
X120891200Y-111003704D01*
X120420117Y-110910000D01*
X120371883Y-110910000D01*
X119900800Y-111003704D01*
X119501435Y-111270552D01*
X119234587Y-111669917D01*
X119140883Y-112141000D01*
X110431000Y-112141000D01*
X110431000Y-109601000D01*
X119140883Y-109601000D01*
X119234587Y-110072083D01*
X119501435Y-110471448D01*
X119900800Y-110738296D01*
X120371883Y-110832000D01*
X120420117Y-110832000D01*
X120891200Y-110738296D01*
X121290565Y-110471448D01*
X121557413Y-110072083D01*
X121651117Y-109601000D01*
X121680883Y-109601000D01*
X121774587Y-110072083D01*
X122041435Y-110471448D01*
X122440800Y-110738296D01*
X122911883Y-110832000D01*
X122960117Y-110832000D01*
X123431200Y-110738296D01*
X123830565Y-110471448D01*
X124097413Y-110072083D01*
X124191117Y-109601000D01*
X124097413Y-109129917D01*
X123830565Y-108730552D01*
X123431200Y-108463704D01*
X122960117Y-108370000D01*
X122911883Y-108370000D01*
X122440800Y-108463704D01*
X122041435Y-108730552D01*
X121774587Y-109129917D01*
X121680883Y-109601000D01*
X121651117Y-109601000D01*
X121557413Y-109129917D01*
X121290565Y-108730552D01*
X120891200Y-108463704D01*
X120420117Y-108370000D01*
X120371883Y-108370000D01*
X119900800Y-108463704D01*
X119501435Y-108730552D01*
X119234587Y-109129917D01*
X119140883Y-109601000D01*
X110431000Y-109601000D01*
X110431000Y-107061000D01*
X119140883Y-107061000D01*
X119234587Y-107532083D01*
X119501435Y-107931448D01*
X119900800Y-108198296D01*
X120371883Y-108292000D01*
X120420117Y-108292000D01*
X120891200Y-108198296D01*
X121290565Y-107931448D01*
X121557413Y-107532083D01*
X121651117Y-107061000D01*
X121680883Y-107061000D01*
X121774587Y-107532083D01*
X122041435Y-107931448D01*
X122440800Y-108198296D01*
X122911883Y-108292000D01*
X122960117Y-108292000D01*
X123431200Y-108198296D01*
X123830565Y-107931448D01*
X124097413Y-107532083D01*
X124191117Y-107061000D01*
X124097413Y-106589917D01*
X123830565Y-106190552D01*
X123431200Y-105923704D01*
X122960117Y-105830000D01*
X122911883Y-105830000D01*
X122440800Y-105923704D01*
X122041435Y-106190552D01*
X121774587Y-106589917D01*
X121680883Y-107061000D01*
X121651117Y-107061000D01*
X121557413Y-106589917D01*
X121290565Y-106190552D01*
X120891200Y-105923704D01*
X120420117Y-105830000D01*
X120371883Y-105830000D01*
X119900800Y-105923704D01*
X119501435Y-106190552D01*
X119234587Y-106589917D01*
X119140883Y-107061000D01*
X110431000Y-107061000D01*
X110431000Y-104521000D01*
X119140883Y-104521000D01*
X119234587Y-104992083D01*
X119501435Y-105391448D01*
X119900800Y-105658296D01*
X120371883Y-105752000D01*
X120420117Y-105752000D01*
X120891200Y-105658296D01*
X121290565Y-105391448D01*
X121557413Y-104992083D01*
X121651117Y-104521000D01*
X121680883Y-104521000D01*
X121774587Y-104992083D01*
X122041435Y-105391448D01*
X122440800Y-105658296D01*
X122911883Y-105752000D01*
X122960117Y-105752000D01*
X123431200Y-105658296D01*
X123830565Y-105391448D01*
X124097413Y-104992083D01*
X124191117Y-104521000D01*
X124097413Y-104049917D01*
X123830565Y-103650552D01*
X123431200Y-103383704D01*
X122960117Y-103290000D01*
X122911883Y-103290000D01*
X122440800Y-103383704D01*
X122041435Y-103650552D01*
X121774587Y-104049917D01*
X121680883Y-104521000D01*
X121651117Y-104521000D01*
X121557413Y-104049917D01*
X121290565Y-103650552D01*
X120891200Y-103383704D01*
X120420117Y-103290000D01*
X120371883Y-103290000D01*
X119900800Y-103383704D01*
X119501435Y-103650552D01*
X119234587Y-104049917D01*
X119140883Y-104521000D01*
X110431000Y-104521000D01*
X110431000Y-100392316D01*
X112064657Y-100392316D01*
X112365611Y-101120680D01*
X112922389Y-101678431D01*
X113650226Y-101980655D01*
X114438316Y-101981343D01*
X114439146Y-101981000D01*
X119140883Y-101981000D01*
X119234587Y-102452083D01*
X119501435Y-102851448D01*
X119900800Y-103118296D01*
X120371883Y-103212000D01*
X120420117Y-103212000D01*
X120891200Y-103118296D01*
X121290565Y-102851448D01*
X121557413Y-102452083D01*
X121651117Y-101981000D01*
X121557413Y-101509917D01*
X121290565Y-101110552D01*
X120891200Y-100843704D01*
X120420117Y-100750000D01*
X120371883Y-100750000D01*
X119900800Y-100843704D01*
X119501435Y-101110552D01*
X119234587Y-101509917D01*
X119140883Y-101981000D01*
X114439146Y-101981000D01*
X115166680Y-101680389D01*
X115724431Y-101123611D01*
X116026655Y-100395774D01*
X116027343Y-99607684D01*
X115726389Y-98879320D01*
X115438572Y-98591000D01*
X119157536Y-98591000D01*
X119157536Y-100291000D01*
X119184103Y-100432190D01*
X119267546Y-100561865D01*
X119394866Y-100648859D01*
X119546000Y-100679464D01*
X121246000Y-100679464D01*
X121387190Y-100652897D01*
X121516865Y-100569454D01*
X121603859Y-100442134D01*
X121634464Y-100291000D01*
X121634464Y-100135756D01*
X121664355Y-100207924D01*
X122054642Y-100636183D01*
X122479947Y-100835917D01*
X122440800Y-100843704D01*
X122041435Y-101110552D01*
X121774587Y-101509917D01*
X121680883Y-101981000D01*
X121774587Y-102452083D01*
X122041435Y-102851448D01*
X122440800Y-103118296D01*
X122911883Y-103212000D01*
X122960117Y-103212000D01*
X123431200Y-103118296D01*
X123830565Y-102851448D01*
X124097413Y-102452083D01*
X124191117Y-101981000D01*
X124097413Y-101509917D01*
X123830565Y-101110552D01*
X123431200Y-100843704D01*
X123392053Y-100835917D01*
X123817358Y-100636183D01*
X124109980Y-100315091D01*
X128339000Y-100315091D01*
X128339000Y-100604509D01*
X128406062Y-100941653D01*
X128597039Y-101227470D01*
X128882856Y-101418447D01*
X129220000Y-101485509D01*
X129557144Y-101418447D01*
X129842961Y-101227470D01*
X130033938Y-100941653D01*
X130101000Y-100604509D01*
X130101000Y-100315091D01*
X132789000Y-100315091D01*
X132789000Y-100604509D01*
X132856062Y-100941653D01*
X133047039Y-101227470D01*
X133332856Y-101418447D01*
X133670000Y-101485509D01*
X134007144Y-101418447D01*
X134292961Y-101227470D01*
X134483938Y-100941653D01*
X134551000Y-100604509D01*
X134551000Y-100315091D01*
X134483938Y-99977947D01*
X134292961Y-99692130D01*
X134007144Y-99501153D01*
X133670000Y-99434091D01*
X133332856Y-99501153D01*
X133047039Y-99692130D01*
X132856062Y-99977947D01*
X132789000Y-100315091D01*
X130101000Y-100315091D01*
X130033938Y-99977947D01*
X129842961Y-99692130D01*
X129557144Y-99501153D01*
X129220000Y-99434091D01*
X128882856Y-99501153D01*
X128597039Y-99692130D01*
X128406062Y-99977947D01*
X128339000Y-100315091D01*
X124109980Y-100315091D01*
X124207645Y-100207924D01*
X124377476Y-99797890D01*
X124256155Y-99568000D01*
X123063000Y-99568000D01*
X123063000Y-99588000D01*
X122809000Y-99588000D01*
X122809000Y-99568000D01*
X122789000Y-99568000D01*
X122789000Y-99314000D01*
X122809000Y-99314000D01*
X122809000Y-98120181D01*
X123063000Y-98120181D01*
X123063000Y-99314000D01*
X124256155Y-99314000D01*
X124377476Y-99084110D01*
X124207645Y-98674076D01*
X123817358Y-98245817D01*
X123292892Y-97999514D01*
X123063000Y-98120181D01*
X122809000Y-98120181D01*
X122579108Y-97999514D01*
X122054642Y-98245817D01*
X121664355Y-98674076D01*
X121634464Y-98746244D01*
X121634464Y-98591000D01*
X121607897Y-98449810D01*
X121524454Y-98320135D01*
X121397134Y-98233141D01*
X121246000Y-98202536D01*
X119546000Y-98202536D01*
X119404810Y-98229103D01*
X119275135Y-98312546D01*
X119188141Y-98439866D01*
X119157536Y-98591000D01*
X115438572Y-98591000D01*
X115169611Y-98321569D01*
X114441774Y-98019345D01*
X113653684Y-98018657D01*
X112925320Y-98319611D01*
X112367569Y-98876389D01*
X112065345Y-99604226D01*
X112064657Y-100392316D01*
X110431000Y-100392316D01*
X110431000Y-96431000D01*
X126600108Y-96431000D01*
X126456062Y-96646580D01*
X126456062Y-96646580D01*
G37*
X126456062Y-96646580D02*
X126389000Y-96983724D01*
X126389000Y-97935876D01*
X126456062Y-98273020D01*
X126647039Y-98558837D01*
X126932856Y-98749814D01*
X127270000Y-98816876D01*
X127607144Y-98749814D01*
X127892961Y-98558837D01*
X128083938Y-98273020D01*
X128151000Y-97935876D01*
X128151000Y-96983724D01*
X128083938Y-96646580D01*
X127939892Y-96431000D01*
X134950108Y-96431000D01*
X134806062Y-96646580D01*
X134739000Y-96983724D01*
X134739000Y-97935876D01*
X134806062Y-98273020D01*
X134997039Y-98558837D01*
X135282856Y-98749814D01*
X135620000Y-98816876D01*
X135957144Y-98749814D01*
X136063124Y-98679000D01*
X137098863Y-98679000D01*
X137188761Y-99130949D01*
X137444770Y-99514093D01*
X137827914Y-99770102D01*
X138279863Y-99860000D01*
X138326137Y-99860000D01*
X138778086Y-99770102D01*
X139161230Y-99514093D01*
X139417239Y-99130949D01*
X139460614Y-98912885D01*
X144741796Y-98912885D01*
X144921213Y-99347109D01*
X145253144Y-99679619D01*
X145687054Y-99859794D01*
X146156885Y-99860204D01*
X146591109Y-99680787D01*
X146923619Y-99348856D01*
X147103794Y-98914946D01*
X147104204Y-98445115D01*
X146924787Y-98010891D01*
X146592856Y-97678381D01*
X146158946Y-97498206D01*
X145689115Y-97497796D01*
X145254891Y-97677213D01*
X144922381Y-98009144D01*
X144742206Y-98443054D01*
X144741796Y-98912885D01*
X139460614Y-98912885D01*
X139507137Y-98679000D01*
X139417239Y-98227051D01*
X139161230Y-97843907D01*
X138778086Y-97587898D01*
X138326137Y-97498000D01*
X138279863Y-97498000D01*
X137827914Y-97587898D01*
X137444770Y-97843907D01*
X137188761Y-98227051D01*
X137098863Y-98679000D01*
X136063124Y-98679000D01*
X136242961Y-98558837D01*
X136433938Y-98273020D01*
X136501000Y-97935876D01*
X136501000Y-96983724D01*
X136433938Y-96646580D01*
X136289892Y-96431000D01*
X161569000Y-96431000D01*
X161569000Y-121569000D01*
X128694982Y-121569000D01*
X128752081Y-121512000D01*
X129667000Y-121512000D01*
X129851071Y-121475386D01*
X130007118Y-121371118D01*
X130261118Y-121117119D01*
X130365386Y-120961071D01*
X130382039Y-120877350D01*
X131524255Y-120877350D01*
X131616792Y-121139019D01*
X132208398Y-121357188D01*
X132838461Y-121332352D01*
X133305208Y-121139019D01*
X133397745Y-120877350D01*
X132461000Y-119940605D01*
X131524255Y-120877350D01*
X130382039Y-120877350D01*
X130402000Y-120777000D01*
X130402000Y-120307430D01*
X130419946Y-120314882D01*
X130690865Y-120315118D01*
X130923079Y-120219170D01*
X131082981Y-120605208D01*
X131344650Y-120697745D01*
X132281395Y-119761000D01*
X131344650Y-118824255D01*
X131082981Y-118916792D01*
X131037000Y-119041478D01*
X131037000Y-115798079D01*
X131132987Y-115702259D01*
X131135022Y-115697358D01*
X131149103Y-115772190D01*
X131232546Y-115901865D01*
X131359866Y-115988859D01*
X131511000Y-116019464D01*
X131883524Y-116019464D01*
X131708034Y-116091975D01*
X131333291Y-116466065D01*
X131130231Y-116955086D01*
X131129769Y-117484591D01*
X131331975Y-117973966D01*
X131704154Y-118346795D01*
X131616792Y-118382981D01*
X131524255Y-118644650D01*
X132461000Y-119581395D01*
X133397745Y-118644650D01*
X133305208Y-118382981D01*
X133214472Y-118349520D01*
X133588709Y-117975935D01*
X133731099Y-117633022D01*
X133871975Y-117973966D01*
X134246065Y-118348709D01*
X134588978Y-118491099D01*
X134248034Y-118631975D01*
X133875205Y-119004154D01*
X133839019Y-118916792D01*
X133577350Y-118824255D01*
X132640605Y-119761000D01*
X133577350Y-120697745D01*
X133839019Y-120605208D01*
X133872480Y-120514472D01*
X134246065Y-120888709D01*
X134735086Y-121091769D01*
X135264591Y-121092231D01*
X135753966Y-120890025D01*
X136128709Y-120515935D01*
X136331769Y-120026914D01*
X136332231Y-119497409D01*
X136130025Y-119008034D01*
X135755935Y-118633291D01*
X135413022Y-118490901D01*
X135753966Y-118350025D01*
X136128709Y-117975935D01*
X136193208Y-117820604D01*
X136388946Y-117901882D01*
X136659865Y-117902118D01*
X136679000Y-117894212D01*
X136679000Y-119278921D01*
X136583013Y-119374741D01*
X136479118Y-119624946D01*
X136478882Y-119895865D01*
X136582339Y-120146252D01*
X136773741Y-120337987D01*
X137023946Y-120441882D01*
X137294865Y-120442118D01*
X137545252Y-120338661D01*
X137736987Y-120147259D01*
X137840882Y-119897054D01*
X137841000Y-119761000D01*
X138698883Y-119761000D01*
X138792587Y-120232083D01*
X139059435Y-120631448D01*
X139458800Y-120898296D01*
X139929883Y-120992000D01*
X139978117Y-120992000D01*
X140449200Y-120898296D01*
X140848565Y-120631448D01*
X141115413Y-120232083D01*
X141209117Y-119761000D01*
X141238883Y-119761000D01*
X141332587Y-120232083D01*
X141599435Y-120631448D01*
X141998800Y-120898296D01*
X142469883Y-120992000D01*
X142518117Y-120992000D01*
X142989200Y-120898296D01*
X143388565Y-120631448D01*
X143655413Y-120232083D01*
X143749117Y-119761000D01*
X143655413Y-119289917D01*
X143636002Y-119260865D01*
X148543882Y-119260865D01*
X148647339Y-119511252D01*
X148838741Y-119702987D01*
X149088946Y-119806882D01*
X149359865Y-119807118D01*
X149610252Y-119703661D01*
X149801987Y-119512259D01*
X149905882Y-119262054D01*
X149906001Y-119125235D01*
X150327119Y-118704118D01*
X150428606Y-118552231D01*
X150431386Y-118548071D01*
X150462367Y-118392316D01*
X156018657Y-118392316D01*
X156319611Y-119120680D01*
X156876389Y-119678431D01*
X157604226Y-119980655D01*
X158392316Y-119981343D01*
X159120680Y-119680389D01*
X159678431Y-119123611D01*
X159980655Y-118395774D01*
X159981343Y-117607684D01*
X159680389Y-116879320D01*
X159123611Y-116321569D01*
X158395774Y-116019345D01*
X157607684Y-116018657D01*
X156879320Y-116319611D01*
X156321569Y-116876389D01*
X156019345Y-117604226D01*
X156018657Y-118392316D01*
X150462367Y-118392316D01*
X150468000Y-118364000D01*
X150468000Y-117322079D01*
X150563987Y-117226259D01*
X150667882Y-116976054D01*
X150668118Y-116705135D01*
X150564661Y-116454748D01*
X150373259Y-116263013D01*
X150123054Y-116159118D01*
X149852135Y-116158882D01*
X149601748Y-116262339D01*
X149410013Y-116453741D01*
X149306118Y-116703946D01*
X149305882Y-116974865D01*
X149409339Y-117225252D01*
X149506000Y-117322081D01*
X149506000Y-118164763D01*
X149225763Y-118445000D01*
X149090135Y-118444882D01*
X148839748Y-118548339D01*
X148648013Y-118739741D01*
X148544118Y-118989946D01*
X148543882Y-119260865D01*
X143636002Y-119260865D01*
X143388565Y-118890552D01*
X142989200Y-118623704D01*
X142518117Y-118530000D01*
X142469883Y-118530000D01*
X141998800Y-118623704D01*
X141599435Y-118890552D01*
X141332587Y-119289917D01*
X141238883Y-119761000D01*
X141209117Y-119761000D01*
X141115413Y-119289917D01*
X140848565Y-118890552D01*
X140449200Y-118623704D01*
X139978117Y-118530000D01*
X139929883Y-118530000D01*
X139458800Y-118623704D01*
X139059435Y-118890552D01*
X138792587Y-119289917D01*
X138698883Y-119761000D01*
X137841000Y-119761000D01*
X137841118Y-119626135D01*
X137737661Y-119375748D01*
X137641000Y-119278919D01*
X137641000Y-116023236D01*
X138135119Y-115529118D01*
X138198697Y-115433966D01*
X138239386Y-115373071D01*
X138276000Y-115189000D01*
X138276000Y-115037890D01*
X138512524Y-115037890D01*
X138682355Y-115447924D01*
X139072642Y-115876183D01*
X139497947Y-116075917D01*
X139458800Y-116083704D01*
X139059435Y-116350552D01*
X138792587Y-116749917D01*
X138698883Y-117221000D01*
X138792587Y-117692083D01*
X139059435Y-118091448D01*
X139458800Y-118358296D01*
X139929883Y-118452000D01*
X139978117Y-118452000D01*
X140449200Y-118358296D01*
X140848565Y-118091448D01*
X141115413Y-117692083D01*
X141209117Y-117221000D01*
X141238883Y-117221000D01*
X141332587Y-117692083D01*
X141599435Y-118091448D01*
X141998800Y-118358296D01*
X142469883Y-118452000D01*
X142518117Y-118452000D01*
X142989200Y-118358296D01*
X143388565Y-118091448D01*
X143655413Y-117692083D01*
X143749117Y-117221000D01*
X143655413Y-116749917D01*
X143388565Y-116350552D01*
X142989200Y-116083704D01*
X142518117Y-115990000D01*
X142469883Y-115990000D01*
X141998800Y-116083704D01*
X141599435Y-116350552D01*
X141332587Y-116749917D01*
X141238883Y-117221000D01*
X141209117Y-117221000D01*
X141115413Y-116749917D01*
X140848565Y-116350552D01*
X140449200Y-116083704D01*
X140410053Y-116075917D01*
X140835358Y-115876183D01*
X141225645Y-115447924D01*
X141255536Y-115375756D01*
X141255536Y-115531000D01*
X141282103Y-115672190D01*
X141365546Y-115801865D01*
X141492866Y-115888859D01*
X141644000Y-115919464D01*
X143344000Y-115919464D01*
X143485190Y-115892897D01*
X143614865Y-115809454D01*
X143701859Y-115682134D01*
X143732464Y-115531000D01*
X143732464Y-113831000D01*
X143705897Y-113689810D01*
X143622454Y-113560135D01*
X143495134Y-113473141D01*
X143344000Y-113442536D01*
X141644000Y-113442536D01*
X141502810Y-113469103D01*
X141373135Y-113552546D01*
X141286141Y-113679866D01*
X141255536Y-113831000D01*
X141255536Y-113986244D01*
X141225645Y-113914076D01*
X140835358Y-113485817D01*
X140310892Y-113239514D01*
X140081000Y-113360181D01*
X140081000Y-114554000D01*
X140101000Y-114554000D01*
X140101000Y-114808000D01*
X140081000Y-114808000D01*
X140081000Y-114828000D01*
X139827000Y-114828000D01*
X139827000Y-114808000D01*
X138633845Y-114808000D01*
X138512524Y-115037890D01*
X138276000Y-115037890D01*
X138276000Y-114324110D01*
X138512524Y-114324110D01*
X138633845Y-114554000D01*
X139827000Y-114554000D01*
X139827000Y-113360181D01*
X139597108Y-113239514D01*
X139072642Y-113485817D01*
X138682355Y-113914076D01*
X138512524Y-114324110D01*
X138276000Y-114324110D01*
X138276000Y-111988079D01*
X138371987Y-111892259D01*
X138475882Y-111642054D01*
X138476118Y-111371135D01*
X138372661Y-111120748D01*
X138181259Y-110929013D01*
X137931054Y-110825118D01*
X137660135Y-110824882D01*
X137641000Y-110832788D01*
X137641000Y-108022236D01*
X138683126Y-106980110D01*
X138691865Y-106980118D01*
X138942252Y-106876661D01*
X139001436Y-106817580D01*
X139059741Y-106875987D01*
X139309946Y-106979882D01*
X139580865Y-106980118D01*
X139831252Y-106876661D01*
X139890436Y-106817580D01*
X139948741Y-106875987D01*
X140198946Y-106979882D01*
X140469865Y-106980118D01*
X140720252Y-106876661D01*
X140911987Y-106685259D01*
X141015882Y-106435054D01*
X141016118Y-106164135D01*
X140912661Y-105913748D01*
X140721259Y-105722013D01*
X140511385Y-105634865D01*
X149818882Y-105634865D01*
X149922339Y-105885252D01*
X150113741Y-106076987D01*
X150363946Y-106180882D01*
X150634865Y-106181118D01*
X150885252Y-106077661D01*
X150982081Y-105981000D01*
X156267921Y-105981000D01*
X156363741Y-106076987D01*
X156613946Y-106180882D01*
X156884865Y-106181118D01*
X157135252Y-106077661D01*
X157326987Y-105886259D01*
X157430882Y-105636054D01*
X157431118Y-105365135D01*
X157327661Y-105114748D01*
X157136259Y-104923013D01*
X156886054Y-104819118D01*
X156615135Y-104818882D01*
X156364748Y-104922339D01*
X156267919Y-105019000D01*
X150982079Y-105019000D01*
X150886259Y-104923013D01*
X150636054Y-104819118D01*
X150365135Y-104818882D01*
X150114748Y-104922339D01*
X149923013Y-105113741D01*
X149819118Y-105363946D01*
X149818882Y-105634865D01*
X140511385Y-105634865D01*
X140471054Y-105618118D01*
X140334236Y-105617999D01*
X139591236Y-104875000D01*
X140589000Y-104875000D01*
X140773071Y-104838386D01*
X140929118Y-104734118D01*
X141677236Y-103986000D01*
X142875000Y-103986000D01*
X143059071Y-103949386D01*
X143215118Y-103845118D01*
X144271237Y-102789000D01*
X144406865Y-102789118D01*
X144657252Y-102685661D01*
X144804523Y-102538645D01*
X144808761Y-102559949D01*
X145064770Y-102943093D01*
X145447914Y-103199102D01*
X145899863Y-103289000D01*
X145946137Y-103289000D01*
X146398086Y-103199102D01*
X146781230Y-102943093D01*
X147037239Y-102559949D01*
X147127137Y-102108000D01*
X147037239Y-101656051D01*
X146781230Y-101272907D01*
X146398086Y-101016898D01*
X146001438Y-100938000D01*
X146939000Y-100938000D01*
X147123071Y-100901386D01*
X147279118Y-100797118D01*
X147573237Y-100503000D01*
X147708865Y-100503118D01*
X147959252Y-100399661D01*
X147966609Y-100392316D01*
X156018657Y-100392316D01*
X156319611Y-101120680D01*
X156876389Y-101678431D01*
X157604226Y-101980655D01*
X158392316Y-101981343D01*
X159120680Y-101680389D01*
X159678431Y-101123611D01*
X159980655Y-100395774D01*
X159981343Y-99607684D01*
X159680389Y-98879320D01*
X159123611Y-98321569D01*
X158395774Y-98019345D01*
X157607684Y-98018657D01*
X156879320Y-98319611D01*
X156321569Y-98876389D01*
X156019345Y-99604226D01*
X156018657Y-100392316D01*
X147966609Y-100392316D01*
X148150987Y-100208259D01*
X148254882Y-99958054D01*
X148255118Y-99687135D01*
X148151661Y-99436748D01*
X147960259Y-99245013D01*
X147710054Y-99141118D01*
X147439135Y-99140882D01*
X147188748Y-99244339D01*
X146997013Y-99435741D01*
X146893118Y-99685946D01*
X146892999Y-99822765D01*
X146739764Y-99976000D01*
X137795000Y-99976000D01*
X137610929Y-100012614D01*
X137548426Y-100054378D01*
X137454882Y-100116881D01*
X135944764Y-101627000D01*
X133324079Y-101627000D01*
X133228259Y-101531013D01*
X132978054Y-101427118D01*
X132707135Y-101426882D01*
X132456748Y-101530339D01*
X132265013Y-101721741D01*
X132161118Y-101971946D01*
X132160882Y-102242865D01*
X132264339Y-102493252D01*
X132455741Y-102684987D01*
X132658065Y-102769000D01*
X128878081Y-102769000D01*
X128783259Y-102674013D01*
X128533054Y-102570118D01*
X128262135Y-102569882D01*
X128243000Y-102577788D01*
X128243000Y-102489000D01*
X128206386Y-102304929D01*
X128102118Y-102148881D01*
X127594118Y-101640882D01*
X127438071Y-101536614D01*
X127254000Y-101500000D01*
X127101079Y-101500000D01*
X127005259Y-101404013D01*
X126755054Y-101300118D01*
X126484135Y-101299882D01*
X126233748Y-101403339D01*
X126042013Y-101594741D01*
X125938118Y-101844946D01*
X125937882Y-102115865D01*
X126041339Y-102366252D01*
X126232741Y-102557987D01*
X126482946Y-102661882D01*
X126753865Y-102662118D01*
X127004252Y-102558661D01*
X127077902Y-102485139D01*
X127281000Y-102688237D01*
X127281000Y-104140000D01*
X127286371Y-104167000D01*
X126339079Y-104167000D01*
X126243259Y-104071013D01*
X125993054Y-103967118D01*
X125722135Y-103966882D01*
X125471748Y-104070339D01*
X125280013Y-104261741D01*
X125176118Y-104511946D01*
X125175882Y-104782865D01*
X125279339Y-105033252D01*
X125470741Y-105224987D01*
X125720946Y-105328882D01*
X125892732Y-105329032D01*
X125643882Y-105577882D01*
X125539614Y-105733929D01*
X125503000Y-105918000D01*
X125503000Y-106505792D01*
X125481259Y-106484013D01*
X125231054Y-106380118D01*
X124960135Y-106379882D01*
X124709748Y-106483339D01*
X124518013Y-106674741D01*
X124414118Y-106924946D01*
X124413882Y-107195865D01*
X124517339Y-107446252D01*
X124708741Y-107637987D01*
X124958946Y-107741882D01*
X125229865Y-107742118D01*
X125480252Y-107638661D01*
X125577081Y-107542000D01*
X125730000Y-107542000D01*
X125914071Y-107505386D01*
X126011000Y-107440620D01*
X126011000Y-109020763D01*
X125911764Y-109120000D01*
X125831079Y-109120000D01*
X125735259Y-109024013D01*
X125485054Y-108920118D01*
X125214135Y-108919882D01*
X124963748Y-109023339D01*
X124772013Y-109214741D01*
X124668118Y-109464946D01*
X124667882Y-109735865D01*
X124771339Y-109986252D01*
X124962741Y-110177987D01*
X125212946Y-110281882D01*
X125483865Y-110282118D01*
X125734252Y-110178661D01*
X125831081Y-110082000D01*
X126111000Y-110082000D01*
X126295071Y-110045386D01*
X126451118Y-109941118D01*
X126646000Y-109746237D01*
X126646000Y-110261921D01*
X126550013Y-110357741D01*
X126446118Y-110607946D01*
X126445882Y-110878865D01*
X126549339Y-111129252D01*
X126740741Y-111320987D01*
X126990946Y-111424882D01*
X127080959Y-111424960D01*
X127080882Y-111513865D01*
X127141263Y-111660000D01*
X126339079Y-111660000D01*
X126243259Y-111564013D01*
X125993054Y-111460118D01*
X125722135Y-111459882D01*
X125471748Y-111563339D01*
X125280013Y-111754741D01*
X125176118Y-112004946D01*
X125175882Y-112275865D01*
X125279339Y-112526252D01*
X125470741Y-112717987D01*
X125720946Y-112821882D01*
X125991865Y-112822118D01*
X126242252Y-112718661D01*
X126339081Y-112622000D01*
X127435764Y-112622000D01*
X128437882Y-113624118D01*
X128592586Y-113727488D01*
X128587614Y-113734929D01*
X128551000Y-113919000D01*
X128551000Y-115470000D01*
X127609079Y-115470000D01*
X127513259Y-115374013D01*
X127263054Y-115270118D01*
X126992135Y-115269882D01*
X126741748Y-115373339D01*
X126550013Y-115564741D01*
X126446118Y-115814946D01*
X126445882Y-116085865D01*
X126549339Y-116336252D01*
X126740741Y-116527987D01*
X126990946Y-116631882D01*
X127261865Y-116632118D01*
X127512252Y-116528661D01*
X127609081Y-116432000D01*
X128778000Y-116432000D01*
X128951002Y-116397588D01*
X128951002Y-118010000D01*
X128244079Y-118010000D01*
X128148259Y-117914013D01*
X127898054Y-117810118D01*
X127627135Y-117809882D01*
X127376748Y-117913339D01*
X127185013Y-118104741D01*
X127081118Y-118354946D01*
X127080882Y-118625865D01*
X127184339Y-118876252D01*
X127375741Y-119067987D01*
X127625946Y-119171882D01*
X127896865Y-119172118D01*
X128147252Y-119068661D01*
X128244081Y-118972000D01*
X129159000Y-118972000D01*
X129343071Y-118935386D01*
X129440000Y-118870620D01*
X129440000Y-120550000D01*
X128752079Y-120550000D01*
X128656259Y-120454013D01*
X128406054Y-120350118D01*
X128135135Y-120349882D01*
X127884748Y-120453339D01*
X127693013Y-120644741D01*
X127589118Y-120894946D01*
X127588882Y-121165865D01*
X127692339Y-121416252D01*
X127844822Y-121569000D01*
X110431000Y-121569000D01*
X110431000Y-118392316D01*
X112018657Y-118392316D01*
X112319611Y-119120680D01*
X112876389Y-119678431D01*
X113604226Y-119980655D01*
X114392316Y-119981343D01*
X114925586Y-119761000D01*
X119140883Y-119761000D01*
X119234587Y-120232083D01*
X119501435Y-120631448D01*
X119900800Y-120898296D01*
X120371883Y-120992000D01*
X120420117Y-120992000D01*
X120891200Y-120898296D01*
X121290565Y-120631448D01*
X121557413Y-120232083D01*
X121651117Y-119761000D01*
X121680883Y-119761000D01*
X121774587Y-120232083D01*
X122041435Y-120631448D01*
X122440800Y-120898296D01*
X122911883Y-120992000D01*
X122960117Y-120992000D01*
X123431200Y-120898296D01*
X123830565Y-120631448D01*
X124097413Y-120232083D01*
X124191117Y-119761000D01*
X124097413Y-119289917D01*
X123830565Y-118890552D01*
X123431200Y-118623704D01*
X122960117Y-118530000D01*
X122911883Y-118530000D01*
X122440800Y-118623704D01*
X122041435Y-118890552D01*
X121774587Y-119289917D01*
X121680883Y-119761000D01*
X121651117Y-119761000D01*
X121557413Y-119289917D01*
X121290565Y-118890552D01*
X120891200Y-118623704D01*
X120420117Y-118530000D01*
X120371883Y-118530000D01*
X119900800Y-118623704D01*
X119501435Y-118890552D01*
X119234587Y-119289917D01*
X119140883Y-119761000D01*
X114925586Y-119761000D01*
X115120680Y-119680389D01*
X115678431Y-119123611D01*
X115980655Y-118395774D01*
X115981343Y-117607684D01*
X115821569Y-117221000D01*
X119140883Y-117221000D01*
X119234587Y-117692083D01*
X119501435Y-118091448D01*
X119900800Y-118358296D01*
X120371883Y-118452000D01*
X120420117Y-118452000D01*
X120891200Y-118358296D01*
X121290565Y-118091448D01*
X121557413Y-117692083D01*
X121651117Y-117221000D01*
X121680883Y-117221000D01*
X121774587Y-117692083D01*
X122041435Y-118091448D01*
X122440800Y-118358296D01*
X122911883Y-118452000D01*
X122960117Y-118452000D01*
X123431200Y-118358296D01*
X123830565Y-118091448D01*
X124097413Y-117692083D01*
X124191117Y-117221000D01*
X124097413Y-116749917D01*
X123830565Y-116350552D01*
X123431200Y-116083704D01*
X122960117Y-115990000D01*
X122911883Y-115990000D01*
X122440800Y-116083704D01*
X122041435Y-116350552D01*
X121774587Y-116749917D01*
X121680883Y-117221000D01*
X121651117Y-117221000D01*
X121557413Y-116749917D01*
X121290565Y-116350552D01*
X120891200Y-116083704D01*
X120420117Y-115990000D01*
X120371883Y-115990000D01*
X119900800Y-116083704D01*
X119501435Y-116350552D01*
X119234587Y-116749917D01*
X119140883Y-117221000D01*
X115821569Y-117221000D01*
X115680389Y-116879320D01*
X115123611Y-116321569D01*
X114395774Y-116019345D01*
X113607684Y-116018657D01*
X112879320Y-116319611D01*
X112321569Y-116876389D01*
X112019345Y-117604226D01*
X112018657Y-118392316D01*
X110431000Y-118392316D01*
X110431000Y-114681000D01*
X119140883Y-114681000D01*
X119234587Y-115152083D01*
X119501435Y-115551448D01*
X119900800Y-115818296D01*
X120371883Y-115912000D01*
X120420117Y-115912000D01*
X120891200Y-115818296D01*
X121290565Y-115551448D01*
X121557413Y-115152083D01*
X121651117Y-114681000D01*
X121680883Y-114681000D01*
X121774587Y-115152083D01*
X122041435Y-115551448D01*
X122440800Y-115818296D01*
X122911883Y-115912000D01*
X122960117Y-115912000D01*
X123431200Y-115818296D01*
X123830565Y-115551448D01*
X124097413Y-115152083D01*
X124191117Y-114681000D01*
X124097413Y-114209917D01*
X123830565Y-113810552D01*
X123431200Y-113543704D01*
X122960117Y-113450000D01*
X122911883Y-113450000D01*
X122440800Y-113543704D01*
X122041435Y-113810552D01*
X121774587Y-114209917D01*
X121680883Y-114681000D01*
X121651117Y-114681000D01*
X121557413Y-114209917D01*
X121290565Y-113810552D01*
X120891200Y-113543704D01*
X120420117Y-113450000D01*
X120371883Y-113450000D01*
X119900800Y-113543704D01*
X119501435Y-113810552D01*
X119234587Y-114209917D01*
X119140883Y-114681000D01*
X110431000Y-114681000D01*
X110431000Y-112141000D01*
X119140883Y-112141000D01*
X119234587Y-112612083D01*
X119501435Y-113011448D01*
X119900800Y-113278296D01*
X120371883Y-113372000D01*
X120420117Y-113372000D01*
X120891200Y-113278296D01*
X121290565Y-113011448D01*
X121557413Y-112612083D01*
X121651117Y-112141000D01*
X121680883Y-112141000D01*
X121774587Y-112612083D01*
X122041435Y-113011448D01*
X122440800Y-113278296D01*
X122911883Y-113372000D01*
X122960117Y-113372000D01*
X123431200Y-113278296D01*
X123830565Y-113011448D01*
X124097413Y-112612083D01*
X124191117Y-112141000D01*
X124097413Y-111669917D01*
X123830565Y-111270552D01*
X123431200Y-111003704D01*
X122960117Y-110910000D01*
X122911883Y-110910000D01*
X122440800Y-111003704D01*
X122041435Y-111270552D01*
X121774587Y-111669917D01*
X121680883Y-112141000D01*
X121651117Y-112141000D01*
X121557413Y-111669917D01*
X121290565Y-111270552D01*
X120891200Y-111003704D01*
X120420117Y-110910000D01*
X120371883Y-110910000D01*
X119900800Y-111003704D01*
X119501435Y-111270552D01*
X119234587Y-111669917D01*
X119140883Y-112141000D01*
X110431000Y-112141000D01*
X110431000Y-109601000D01*
X119140883Y-109601000D01*
X119234587Y-110072083D01*
X119501435Y-110471448D01*
X119900800Y-110738296D01*
X120371883Y-110832000D01*
X120420117Y-110832000D01*
X120891200Y-110738296D01*
X121290565Y-110471448D01*
X121557413Y-110072083D01*
X121651117Y-109601000D01*
X121680883Y-109601000D01*
X121774587Y-110072083D01*
X122041435Y-110471448D01*
X122440800Y-110738296D01*
X122911883Y-110832000D01*
X122960117Y-110832000D01*
X123431200Y-110738296D01*
X123830565Y-110471448D01*
X124097413Y-110072083D01*
X124191117Y-109601000D01*
X124097413Y-109129917D01*
X123830565Y-108730552D01*
X123431200Y-108463704D01*
X122960117Y-108370000D01*
X122911883Y-108370000D01*
X122440800Y-108463704D01*
X122041435Y-108730552D01*
X121774587Y-109129917D01*
X121680883Y-109601000D01*
X121651117Y-109601000D01*
X121557413Y-109129917D01*
X121290565Y-108730552D01*
X120891200Y-108463704D01*
X120420117Y-108370000D01*
X120371883Y-108370000D01*
X119900800Y-108463704D01*
X119501435Y-108730552D01*
X119234587Y-109129917D01*
X119140883Y-109601000D01*
X110431000Y-109601000D01*
X110431000Y-107061000D01*
X119140883Y-107061000D01*
X119234587Y-107532083D01*
X119501435Y-107931448D01*
X119900800Y-108198296D01*
X120371883Y-108292000D01*
X120420117Y-108292000D01*
X120891200Y-108198296D01*
X121290565Y-107931448D01*
X121557413Y-107532083D01*
X121651117Y-107061000D01*
X121680883Y-107061000D01*
X121774587Y-107532083D01*
X122041435Y-107931448D01*
X122440800Y-108198296D01*
X122911883Y-108292000D01*
X122960117Y-108292000D01*
X123431200Y-108198296D01*
X123830565Y-107931448D01*
X124097413Y-107532083D01*
X124191117Y-107061000D01*
X124097413Y-106589917D01*
X123830565Y-106190552D01*
X123431200Y-105923704D01*
X122960117Y-105830000D01*
X122911883Y-105830000D01*
X122440800Y-105923704D01*
X122041435Y-106190552D01*
X121774587Y-106589917D01*
X121680883Y-107061000D01*
X121651117Y-107061000D01*
X121557413Y-106589917D01*
X121290565Y-106190552D01*
X120891200Y-105923704D01*
X120420117Y-105830000D01*
X120371883Y-105830000D01*
X119900800Y-105923704D01*
X119501435Y-106190552D01*
X119234587Y-106589917D01*
X119140883Y-107061000D01*
X110431000Y-107061000D01*
X110431000Y-104521000D01*
X119140883Y-104521000D01*
X119234587Y-104992083D01*
X119501435Y-105391448D01*
X119900800Y-105658296D01*
X120371883Y-105752000D01*
X120420117Y-105752000D01*
X120891200Y-105658296D01*
X121290565Y-105391448D01*
X121557413Y-104992083D01*
X121651117Y-104521000D01*
X121680883Y-104521000D01*
X121774587Y-104992083D01*
X122041435Y-105391448D01*
X122440800Y-105658296D01*
X122911883Y-105752000D01*
X122960117Y-105752000D01*
X123431200Y-105658296D01*
X123830565Y-105391448D01*
X124097413Y-104992083D01*
X124191117Y-104521000D01*
X124097413Y-104049917D01*
X123830565Y-103650552D01*
X123431200Y-103383704D01*
X122960117Y-103290000D01*
X122911883Y-103290000D01*
X122440800Y-103383704D01*
X122041435Y-103650552D01*
X121774587Y-104049917D01*
X121680883Y-104521000D01*
X121651117Y-104521000D01*
X121557413Y-104049917D01*
X121290565Y-103650552D01*
X120891200Y-103383704D01*
X120420117Y-103290000D01*
X120371883Y-103290000D01*
X119900800Y-103383704D01*
X119501435Y-103650552D01*
X119234587Y-104049917D01*
X119140883Y-104521000D01*
X110431000Y-104521000D01*
X110431000Y-100392316D01*
X112064657Y-100392316D01*
X112365611Y-101120680D01*
X112922389Y-101678431D01*
X113650226Y-101980655D01*
X114438316Y-101981343D01*
X114439146Y-101981000D01*
X119140883Y-101981000D01*
X119234587Y-102452083D01*
X119501435Y-102851448D01*
X119900800Y-103118296D01*
X120371883Y-103212000D01*
X120420117Y-103212000D01*
X120891200Y-103118296D01*
X121290565Y-102851448D01*
X121557413Y-102452083D01*
X121651117Y-101981000D01*
X121557413Y-101509917D01*
X121290565Y-101110552D01*
X120891200Y-100843704D01*
X120420117Y-100750000D01*
X120371883Y-100750000D01*
X119900800Y-100843704D01*
X119501435Y-101110552D01*
X119234587Y-101509917D01*
X119140883Y-101981000D01*
X114439146Y-101981000D01*
X115166680Y-101680389D01*
X115724431Y-101123611D01*
X116026655Y-100395774D01*
X116027343Y-99607684D01*
X115726389Y-98879320D01*
X115438572Y-98591000D01*
X119157536Y-98591000D01*
X119157536Y-100291000D01*
X119184103Y-100432190D01*
X119267546Y-100561865D01*
X119394866Y-100648859D01*
X119546000Y-100679464D01*
X121246000Y-100679464D01*
X121387190Y-100652897D01*
X121516865Y-100569454D01*
X121603859Y-100442134D01*
X121634464Y-100291000D01*
X121634464Y-100135756D01*
X121664355Y-100207924D01*
X122054642Y-100636183D01*
X122479947Y-100835917D01*
X122440800Y-100843704D01*
X122041435Y-101110552D01*
X121774587Y-101509917D01*
X121680883Y-101981000D01*
X121774587Y-102452083D01*
X122041435Y-102851448D01*
X122440800Y-103118296D01*
X122911883Y-103212000D01*
X122960117Y-103212000D01*
X123431200Y-103118296D01*
X123830565Y-102851448D01*
X124097413Y-102452083D01*
X124191117Y-101981000D01*
X124097413Y-101509917D01*
X123830565Y-101110552D01*
X123431200Y-100843704D01*
X123392053Y-100835917D01*
X123817358Y-100636183D01*
X124109980Y-100315091D01*
X128339000Y-100315091D01*
X128339000Y-100604509D01*
X128406062Y-100941653D01*
X128597039Y-101227470D01*
X128882856Y-101418447D01*
X129220000Y-101485509D01*
X129557144Y-101418447D01*
X129842961Y-101227470D01*
X130033938Y-100941653D01*
X130101000Y-100604509D01*
X130101000Y-100315091D01*
X132789000Y-100315091D01*
X132789000Y-100604509D01*
X132856062Y-100941653D01*
X133047039Y-101227470D01*
X133332856Y-101418447D01*
X133670000Y-101485509D01*
X134007144Y-101418447D01*
X134292961Y-101227470D01*
X134483938Y-100941653D01*
X134551000Y-100604509D01*
X134551000Y-100315091D01*
X134483938Y-99977947D01*
X134292961Y-99692130D01*
X134007144Y-99501153D01*
X133670000Y-99434091D01*
X133332856Y-99501153D01*
X133047039Y-99692130D01*
X132856062Y-99977947D01*
X132789000Y-100315091D01*
X130101000Y-100315091D01*
X130033938Y-99977947D01*
X129842961Y-99692130D01*
X129557144Y-99501153D01*
X129220000Y-99434091D01*
X128882856Y-99501153D01*
X128597039Y-99692130D01*
X128406062Y-99977947D01*
X128339000Y-100315091D01*
X124109980Y-100315091D01*
X124207645Y-100207924D01*
X124377476Y-99797890D01*
X124256155Y-99568000D01*
X123063000Y-99568000D01*
X123063000Y-99588000D01*
X122809000Y-99588000D01*
X122809000Y-99568000D01*
X122789000Y-99568000D01*
X122789000Y-99314000D01*
X122809000Y-99314000D01*
X122809000Y-98120181D01*
X123063000Y-98120181D01*
X123063000Y-99314000D01*
X124256155Y-99314000D01*
X124377476Y-99084110D01*
X124207645Y-98674076D01*
X123817358Y-98245817D01*
X123292892Y-97999514D01*
X123063000Y-98120181D01*
X122809000Y-98120181D01*
X122579108Y-97999514D01*
X122054642Y-98245817D01*
X121664355Y-98674076D01*
X121634464Y-98746244D01*
X121634464Y-98591000D01*
X121607897Y-98449810D01*
X121524454Y-98320135D01*
X121397134Y-98233141D01*
X121246000Y-98202536D01*
X119546000Y-98202536D01*
X119404810Y-98229103D01*
X119275135Y-98312546D01*
X119188141Y-98439866D01*
X119157536Y-98591000D01*
X115438572Y-98591000D01*
X115169611Y-98321569D01*
X114441774Y-98019345D01*
X113653684Y-98018657D01*
X112925320Y-98319611D01*
X112367569Y-98876389D01*
X112065345Y-99604226D01*
X112064657Y-100392316D01*
X110431000Y-100392316D01*
X110431000Y-96431000D01*
X126600108Y-96431000D01*
X126456062Y-96646580D01*
M02*
