G04 #@! TF.FileFunction,Copper,L1,Top,Signal*
%FSLAX46Y46*%
G04 Gerber Fmt 4.6, Leading zero omitted, Abs format (unit mm)*
G04 Created by KiCad (PCBNEW 4.0.6) date 10/01/17 10:19:26*
%MOMM*%
%LPD*%
G01*
G04 APERTURE LIST*
%ADD10C,0.100000*%
%ADD11R,0.800000X0.750000*%
%ADD12R,1.350000X0.450000*%
%ADD13R,0.600000X1.000000*%
%ADD14R,1.700000X1.700000*%
%ADD15O,1.700000X1.700000*%
%ADD16R,1.900000X1.900000*%
%ADD17C,1.900000*%
%ADD18C,1.600000*%
%ADD19O,1.600000X1.600000*%
%ADD20R,0.500000X0.900000*%
%ADD21R,0.400000X1.350000*%
%ADD22O,1.000000X1.250000*%
%ADD23R,1.800000X1.900000*%
%ADD24R,1.575000X1.900000*%
%ADD25O,1.000000X1.900000*%
%ADD26R,1.100000X0.600000*%
%ADD27R,1.900000X1.100000*%
%ADD28R,2.800000X1.000000*%
%ADD29R,1.200000X1.200000*%
%ADD30R,0.900000X0.500000*%
%ADD31C,0.600000*%
%ADD32C,0.200000*%
%ADD33C,0.254000*%
G04 APERTURE END LIST*
D10*
D11*
X150483000Y-97917000D03*
X148983000Y-97917000D03*
X149110000Y-103632000D03*
X150610000Y-103632000D03*
X150737000Y-118110000D03*
X149237000Y-118110000D03*
X150737000Y-120142000D03*
X149237000Y-120142000D03*
D12*
X130475000Y-106295000D03*
X130475000Y-106945000D03*
X130475000Y-107595000D03*
X130475000Y-108245000D03*
X130475000Y-108895000D03*
X130475000Y-109545000D03*
X130475000Y-110195000D03*
X130475000Y-110845000D03*
X130475000Y-111495000D03*
X130475000Y-112145000D03*
X136225000Y-112145000D03*
X136225000Y-111495000D03*
X136225000Y-110845000D03*
X136225000Y-110195000D03*
X136225000Y-109545000D03*
X136225000Y-108895000D03*
X136225000Y-108245000D03*
X136225000Y-107595000D03*
X136225000Y-106945000D03*
X136225000Y-106295000D03*
D13*
X148910000Y-102115000D03*
X150810000Y-102115000D03*
X149860000Y-99815000D03*
D14*
X120396000Y-99441000D03*
D15*
X122936000Y-99441000D03*
X120396000Y-101981000D03*
X122936000Y-101981000D03*
X120396000Y-104521000D03*
X122936000Y-104521000D03*
X120396000Y-107061000D03*
X122936000Y-107061000D03*
X120396000Y-109601000D03*
X122936000Y-109601000D03*
X120396000Y-112141000D03*
X122936000Y-112141000D03*
X120396000Y-114681000D03*
X122936000Y-114681000D03*
X120396000Y-117221000D03*
X122936000Y-117221000D03*
X120396000Y-119761000D03*
X122936000Y-119761000D03*
D14*
X142494000Y-114681000D03*
D15*
X139954000Y-114681000D03*
X142494000Y-117221000D03*
X139954000Y-117221000D03*
X142494000Y-119761000D03*
X139954000Y-119761000D03*
D16*
X132461000Y-114681000D03*
D17*
X135001000Y-114681000D03*
X132461000Y-117221000D03*
X135001000Y-117221000D03*
X132461000Y-119761000D03*
X135001000Y-119761000D03*
D18*
X138303000Y-102108000D03*
D19*
X145923000Y-102108000D03*
D18*
X145923000Y-98679000D03*
D19*
X138303000Y-98679000D03*
D20*
X142125000Y-104648000D03*
X143625000Y-104648000D03*
D21*
X131445000Y-100134800D03*
X130795000Y-100134800D03*
X132095000Y-100134800D03*
X132745000Y-100134800D03*
X130145000Y-100134800D03*
D22*
X129220000Y-100459800D03*
X133670000Y-100459800D03*
D23*
X130295000Y-97459800D03*
X132595000Y-97459800D03*
D24*
X128057500Y-97459800D03*
D25*
X127270000Y-97459800D03*
D24*
X134832500Y-97459800D03*
D25*
X135620000Y-97459800D03*
D26*
X148239000Y-115631000D03*
X148239000Y-114681000D03*
X148239000Y-113731000D03*
X145639000Y-113731000D03*
X145639000Y-114681000D03*
X145639000Y-115631000D03*
D27*
X151638000Y-113481000D03*
X151638000Y-115981000D03*
D28*
X142388000Y-110912000D03*
X142388000Y-106912000D03*
X148188000Y-110912000D03*
X148188000Y-106912000D03*
D20*
X145427000Y-118110000D03*
X146927000Y-118110000D03*
X145427000Y-120142000D03*
X146927000Y-120142000D03*
D29*
X154500000Y-108400000D03*
X154500000Y-110600000D03*
X152000000Y-108400000D03*
X152000000Y-110600000D03*
D30*
X154500000Y-106250000D03*
X154500000Y-104750000D03*
X152500000Y-104750000D03*
X152500000Y-106250000D03*
D31*
X154500000Y-113000000D03*
X151130000Y-99187000D03*
X130175000Y-102235000D03*
X144780000Y-104648000D03*
X149098000Y-104902000D03*
X137795000Y-109982000D03*
X151765000Y-118110000D03*
X149352000Y-114681000D03*
X132842000Y-102108000D03*
X147574000Y-99822000D03*
X130556000Y-119634000D03*
X130556000Y-115316000D03*
X149987000Y-116840000D03*
X149225000Y-119126000D03*
X127127000Y-110744000D03*
X127127000Y-106299000D03*
X127762000Y-111379000D03*
X127762000Y-106934000D03*
X128397000Y-112014000D03*
X128524000Y-107569000D03*
X129032000Y-108204000D03*
X129032000Y-112649000D03*
X142250000Y-102000000D03*
X150500000Y-105500000D03*
X156750000Y-105500000D03*
X128397000Y-103251000D03*
X134493000Y-112649000D03*
X127127000Y-115951000D03*
X137795000Y-111506000D03*
X137160000Y-119761000D03*
X131699000Y-112014000D03*
X127762000Y-118491000D03*
X133223000Y-111379000D03*
X128270000Y-121031000D03*
X125857000Y-112141000D03*
X131953000Y-110236000D03*
X144272000Y-102108000D03*
X140335000Y-106299000D03*
X126619000Y-101981000D03*
X136525000Y-105029000D03*
X125857000Y-104648000D03*
X139446000Y-106299000D03*
X137160000Y-114681000D03*
X125095000Y-107061000D03*
X138557000Y-106299000D03*
X136525000Y-117221000D03*
X125349000Y-109601000D03*
X137668000Y-106299000D03*
D32*
X152000000Y-110600000D02*
X154500000Y-110600000D01*
X154500000Y-110600000D02*
X154500000Y-113000000D01*
X150483000Y-97917000D02*
X150483000Y-98540000D01*
X150483000Y-98540000D02*
X151130000Y-99187000D01*
X130145000Y-102205000D02*
X130175000Y-102235000D01*
X130145000Y-100719000D02*
X130145000Y-102205000D01*
X143625000Y-104648000D02*
X144780000Y-104648000D01*
X149110000Y-103632000D02*
X149110000Y-104890000D01*
X149110000Y-104890000D02*
X149098000Y-104902000D01*
X136225000Y-109545000D02*
X137358000Y-109545000D01*
X137358000Y-109545000D02*
X137795000Y-109982000D01*
X148910000Y-102115000D02*
X148910000Y-103432000D01*
X148910000Y-103432000D02*
X149110000Y-103632000D01*
X150737000Y-118110000D02*
X150737000Y-120142000D01*
X150737000Y-118110000D02*
X151765000Y-118110000D01*
X148239000Y-114681000D02*
X149352000Y-114681000D01*
X149860000Y-99815000D02*
X151815000Y-99815000D01*
X152500000Y-100500000D02*
X152500000Y-104750000D01*
X151815000Y-99815000D02*
X152500000Y-100500000D01*
X147574000Y-99822000D02*
X147574000Y-99326000D01*
X147574000Y-99326000D02*
X148983000Y-97917000D01*
X132745000Y-102011000D02*
X132842000Y-102108000D01*
X132745000Y-100719000D02*
X132745000Y-102011000D01*
X147581000Y-99815000D02*
X149860000Y-99815000D01*
X147574000Y-99822000D02*
X147581000Y-99815000D01*
X130475000Y-108895000D02*
X136225000Y-108895000D01*
X150610000Y-103632000D02*
X150610000Y-102315000D01*
X150610000Y-102315000D02*
X150810000Y-102115000D01*
X150876000Y-101854000D02*
X150876000Y-101974000D01*
X132461000Y-114681000D02*
X131191000Y-114681000D01*
X131191000Y-114681000D02*
X130556000Y-115316000D01*
X150114000Y-113731000D02*
X150114000Y-114808000D01*
X149237000Y-115685000D02*
X149237000Y-118110000D01*
X150114000Y-114808000D02*
X149237000Y-115685000D01*
X148239000Y-113731000D02*
X150114000Y-113731000D01*
X150114000Y-113731000D02*
X151388000Y-113731000D01*
X151388000Y-113731000D02*
X151638000Y-113481000D01*
X146927000Y-118110000D02*
X149237000Y-118110000D01*
X149237000Y-120142000D02*
X149237000Y-119138000D01*
X149987000Y-116840000D02*
X150846000Y-115981000D01*
X149237000Y-119138000D02*
X149225000Y-119126000D01*
X150846000Y-115981000D02*
X151638000Y-115981000D01*
X146927000Y-120142000D02*
X149237000Y-120142000D01*
X141109000Y-105664000D02*
X141140000Y-105664000D01*
X141140000Y-105664000D02*
X142388000Y-106912000D01*
X130475000Y-106295000D02*
X130475000Y-106253000D01*
X130475000Y-106253000D02*
X131064000Y-105664000D01*
X141109000Y-105664000D02*
X142125000Y-104648000D01*
X131064000Y-105664000D02*
X141109000Y-105664000D01*
X122936000Y-114681000D02*
X126365000Y-114681000D01*
X127127000Y-110744000D02*
X127127000Y-114300000D01*
X127131000Y-106295000D02*
X130475000Y-106295000D01*
X127131000Y-106295000D02*
X127127000Y-106299000D01*
X126746000Y-114681000D02*
X126365000Y-114681000D01*
X127127000Y-114300000D02*
X126746000Y-114681000D01*
X122936000Y-117221000D02*
X127127000Y-117221000D01*
X127762000Y-116840000D02*
X127381000Y-117221000D01*
X127381000Y-117221000D02*
X127127000Y-117221000D01*
X127773000Y-106945000D02*
X127762000Y-106934000D01*
X127773000Y-106945000D02*
X130475000Y-106945000D01*
X127762000Y-111379000D02*
X127762000Y-116840000D01*
X122936000Y-119761000D02*
X127762000Y-119761000D01*
X128397000Y-119380000D02*
X128016000Y-119761000D01*
X128016000Y-119761000D02*
X127762000Y-119761000D01*
X128550000Y-107595000D02*
X128524000Y-107569000D01*
X128550000Y-107595000D02*
X130475000Y-107595000D01*
X128397000Y-112014000D02*
X128397000Y-119380000D01*
X129032000Y-116713000D02*
X129032000Y-116967000D01*
X129073000Y-108245000D02*
X129032000Y-108204000D01*
X130475000Y-108245000D02*
X129073000Y-108245000D01*
X129032000Y-112649000D02*
X129032000Y-116713000D01*
X129286000Y-117221000D02*
X132461000Y-117221000D01*
X129032000Y-116967000D02*
X129286000Y-117221000D01*
X142250000Y-102000000D02*
X143500000Y-103250000D01*
X143500000Y-103250000D02*
X144750000Y-103250000D01*
X144750000Y-103250000D02*
X147250000Y-105750000D01*
X147250000Y-105750000D02*
X150250000Y-105750000D01*
X150250000Y-105750000D02*
X150500000Y-105500000D01*
X156750000Y-105500000D02*
X156750000Y-104750000D01*
X156750000Y-104750000D02*
X156000000Y-104000000D01*
X156000000Y-104000000D02*
X154750000Y-104000000D01*
X154750000Y-104000000D02*
X154500000Y-104250000D01*
X154500000Y-104750000D02*
X154500000Y-104250000D01*
X128397000Y-103251000D02*
X125603000Y-103251000D01*
X121666000Y-103251000D02*
X120396000Y-101981000D01*
X125603000Y-103251000D02*
X125500000Y-103251000D01*
X125500000Y-103251000D02*
X121666000Y-103251000D01*
X126492000Y-104140000D02*
X125603000Y-103251000D01*
X130475000Y-109545000D02*
X129357000Y-109545000D01*
X129357000Y-109545000D02*
X126746000Y-106934000D01*
X126746000Y-106934000D02*
X126492000Y-106680000D01*
X126492000Y-106680000D02*
X126492000Y-104140000D01*
X125476000Y-105791000D02*
X121666000Y-105791000D01*
X125984000Y-106299000D02*
X125476000Y-105791000D01*
X126746000Y-107569000D02*
X125984000Y-106807000D01*
X129372000Y-110195000D02*
X126746000Y-107569000D01*
X130475000Y-110195000D02*
X129372000Y-110195000D01*
X125984000Y-106807000D02*
X125984000Y-106299000D01*
X121666000Y-105791000D02*
X120396000Y-104521000D01*
X129387000Y-110845000D02*
X126873000Y-108331000D01*
X126873000Y-108331000D02*
X124968000Y-108331000D01*
X124968000Y-108331000D02*
X125095000Y-108331000D01*
X129413000Y-110845000D02*
X129387000Y-110845000D01*
X129413000Y-110845000D02*
X130475000Y-110845000D01*
X120396000Y-107061000D02*
X120396000Y-107188000D01*
X120396000Y-107188000D02*
X121539000Y-108331000D01*
X121539000Y-108331000D02*
X124968000Y-108331000D01*
X124714000Y-110871000D02*
X121666000Y-110871000D01*
X125984000Y-109601000D02*
X125984000Y-110490000D01*
X125984000Y-109601000D02*
X126746000Y-108839000D01*
X129402000Y-111495000D02*
X126746000Y-108839000D01*
X130475000Y-111495000D02*
X129402000Y-111495000D01*
X125984000Y-110490000D02*
X125603000Y-110871000D01*
X124714000Y-110871000D02*
X125603000Y-110871000D01*
X121666000Y-110871000D02*
X120396000Y-109601000D01*
X126492000Y-112776000D02*
X126492000Y-113030000D01*
X126619000Y-109601000D02*
X126492000Y-109728000D01*
X126492000Y-109728000D02*
X126492000Y-112141000D01*
X130475000Y-112145000D02*
X129417000Y-112145000D01*
X129417000Y-112145000D02*
X126746000Y-109474000D01*
X126746000Y-109474000D02*
X126619000Y-109601000D01*
X126492000Y-112141000D02*
X126492000Y-112776000D01*
X126492000Y-113030000D02*
X126111000Y-113411000D01*
X125349000Y-113411000D02*
X121666000Y-113411000D01*
X126111000Y-113411000D02*
X125349000Y-113411000D01*
X121666000Y-113411000D02*
X120396000Y-112141000D01*
X137795000Y-115189000D02*
X137795000Y-116967000D01*
X136902000Y-112145000D02*
X137660000Y-112903000D01*
X137660000Y-112903000D02*
X137668000Y-112903000D01*
X137668000Y-112903000D02*
X137795000Y-113030000D01*
X137795000Y-113030000D02*
X137795000Y-115189000D01*
X136225000Y-112145000D02*
X136902000Y-112145000D01*
X138049000Y-117221000D02*
X139954000Y-117221000D01*
X137795000Y-116967000D02*
X138049000Y-117221000D01*
X136225000Y-112145000D02*
X135378000Y-112145000D01*
X134874000Y-112649000D02*
X134493000Y-112649000D01*
X135378000Y-112145000D02*
X134874000Y-112649000D01*
X121666000Y-115951000D02*
X120396000Y-114681000D01*
X127127000Y-115951000D02*
X121666000Y-115951000D01*
X137784000Y-111495000D02*
X137795000Y-111506000D01*
X136225000Y-111495000D02*
X137784000Y-111495000D01*
X137160000Y-119761000D02*
X139954000Y-119761000D01*
X135266000Y-111495000D02*
X134747000Y-112014000D01*
X135266000Y-111495000D02*
X136225000Y-111495000D01*
X134747000Y-112014000D02*
X131699000Y-112014000D01*
X127254000Y-118491000D02*
X121666000Y-118491000D01*
X127762000Y-118491000D02*
X127254000Y-118491000D01*
X121666000Y-118491000D02*
X120396000Y-117221000D01*
X138195002Y-114300000D02*
X138195002Y-115589002D01*
X138023000Y-110845000D02*
X138430000Y-111252000D01*
X138430000Y-111252000D02*
X138430000Y-112014000D01*
X138430000Y-112014000D02*
X138195002Y-112248998D01*
X138195002Y-112248998D02*
X138195002Y-114300000D01*
X136225000Y-110845000D02*
X138023000Y-110845000D01*
X141224000Y-118491000D02*
X142494000Y-119761000D01*
X141224000Y-116332000D02*
X141224000Y-118491000D01*
X140843000Y-115951000D02*
X141224000Y-116332000D01*
X138557000Y-115951000D02*
X140843000Y-115951000D01*
X138195002Y-115589002D02*
X138557000Y-115951000D01*
X135261998Y-110845000D02*
X134727998Y-111379000D01*
X134727998Y-111379000D02*
X133223000Y-111379000D01*
X135261998Y-110845000D02*
X136225000Y-110845000D01*
X127762000Y-121031000D02*
X121666000Y-121031000D01*
X128270000Y-121031000D02*
X127762000Y-121031000D01*
X121666000Y-121031000D02*
X120396000Y-119761000D01*
X125857000Y-112141000D02*
X125349000Y-112141000D01*
X122936000Y-112141000D02*
X125349000Y-112141000D01*
X131994000Y-110195000D02*
X136225000Y-110195000D01*
X131953000Y-110236000D02*
X131994000Y-110195000D01*
X144272000Y-102108000D02*
X145923000Y-102108000D01*
X136225000Y-108245000D02*
X138389000Y-108245000D01*
X138389000Y-108245000D02*
X140335000Y-106299000D01*
X126619000Y-101981000D02*
X125857000Y-101981000D01*
X125857000Y-101981000D02*
X122936000Y-101981000D01*
X145923000Y-98679000D02*
X144272000Y-98679000D01*
X136525000Y-104394000D02*
X136525000Y-105029000D01*
X137033000Y-103886000D02*
X136525000Y-104394000D01*
X139065000Y-103886000D02*
X137033000Y-103886000D01*
X144272000Y-98679000D02*
X139065000Y-103886000D01*
X125857000Y-104648000D02*
X125603000Y-104648000D01*
X125603000Y-104648000D02*
X123063000Y-104648000D01*
X138150000Y-107595000D02*
X139446000Y-106299000D01*
X136225000Y-107595000D02*
X138150000Y-107595000D01*
X123063000Y-104648000D02*
X122936000Y-104521000D01*
X137160000Y-114681000D02*
X135001000Y-114681000D01*
X122936000Y-107061000D02*
X124587000Y-107061000D01*
X125095000Y-107061000D02*
X124587000Y-107061000D01*
X137911000Y-106945000D02*
X138557000Y-106299000D01*
X136225000Y-106945000D02*
X137911000Y-106945000D01*
X136525000Y-117221000D02*
X135001000Y-117221000D01*
X122936000Y-109601000D02*
X125349000Y-109601000D01*
X137664000Y-106295000D02*
X137668000Y-106299000D01*
X137664000Y-106295000D02*
X136225000Y-106295000D01*
X145639000Y-113731000D02*
X144587000Y-113731000D01*
X143891000Y-114427000D02*
X143891000Y-118110000D01*
X144587000Y-113731000D02*
X143891000Y-114427000D01*
X145427000Y-118110000D02*
X145427000Y-120142000D01*
X142494000Y-117221000D02*
X143383000Y-118110000D01*
X143383000Y-118110000D02*
X143891000Y-118110000D01*
X143891000Y-118110000D02*
X145427000Y-118110000D01*
X132715000Y-102870000D02*
X137541000Y-102870000D01*
X132095000Y-100719000D02*
X132095000Y-102250000D01*
X137541000Y-102870000D02*
X138303000Y-102108000D01*
X132095000Y-102250000D02*
X132715000Y-102870000D01*
X138303000Y-98679000D02*
X137033000Y-98679000D01*
X131445000Y-99441000D02*
X131445000Y-100134800D01*
X131826000Y-99060000D02*
X131445000Y-99441000D01*
X136652000Y-99060000D02*
X131826000Y-99060000D01*
X137033000Y-98679000D02*
X136652000Y-99060000D01*
X131445000Y-100719000D02*
X131445000Y-99949000D01*
X154500000Y-108400000D02*
X154500000Y-106250000D01*
X152000000Y-108400000D02*
X152000000Y-106750000D01*
X152000000Y-106750000D02*
X152500000Y-106250000D01*
D33*
G36*
X126456062Y-96646580D02*
X126389000Y-96983724D01*
X126389000Y-97935876D01*
X126456062Y-98273020D01*
X126647039Y-98558837D01*
X126932856Y-98749814D01*
X127270000Y-98816876D01*
X127363569Y-98798264D01*
X128845000Y-98798264D01*
X128986190Y-98771697D01*
X129115865Y-98688254D01*
X129119617Y-98682763D01*
X129243866Y-98767659D01*
X129395000Y-98798264D01*
X131195000Y-98798264D01*
X131336190Y-98771697D01*
X131446186Y-98700917D01*
X131481035Y-98724728D01*
X131110948Y-99094816D01*
X130995000Y-99071336D01*
X130595000Y-99071336D01*
X130465412Y-99095720D01*
X130345000Y-99071336D01*
X129945000Y-99071336D01*
X129803810Y-99097903D01*
X129674135Y-99181346D01*
X129587141Y-99308666D01*
X129556536Y-99459800D01*
X129556536Y-99501032D01*
X129220000Y-99434091D01*
X128882856Y-99501153D01*
X128597039Y-99692130D01*
X128406062Y-99977947D01*
X128339000Y-100315091D01*
X128339000Y-100604509D01*
X128406062Y-100941653D01*
X128597039Y-101227470D01*
X128882856Y-101418447D01*
X129220000Y-101485509D01*
X129557144Y-101418447D01*
X129664000Y-101347048D01*
X129664000Y-101782869D01*
X129598013Y-101848741D01*
X129494118Y-102098946D01*
X129493882Y-102369865D01*
X129597339Y-102620252D01*
X129788741Y-102811987D01*
X130038946Y-102915882D01*
X130309865Y-102916118D01*
X130560252Y-102812661D01*
X130751987Y-102621259D01*
X130855882Y-102371054D01*
X130856118Y-102100135D01*
X130752661Y-101849748D01*
X130626000Y-101722867D01*
X130626000Y-101198264D01*
X130995000Y-101198264D01*
X131124588Y-101173880D01*
X131245000Y-101198264D01*
X131436273Y-101198264D01*
X131445000Y-101200000D01*
X131453727Y-101198264D01*
X131614000Y-101198264D01*
X131614000Y-102250000D01*
X131641104Y-102386259D01*
X131650614Y-102434071D01*
X131754882Y-102590118D01*
X132374881Y-103210118D01*
X132530929Y-103314386D01*
X132715000Y-103351000D01*
X137541000Y-103351000D01*
X137725071Y-103314386D01*
X137879762Y-103211024D01*
X138067054Y-103288794D01*
X138536885Y-103289204D01*
X138971109Y-103109787D01*
X139303619Y-102777856D01*
X139483794Y-102343946D01*
X139484204Y-101874115D01*
X139304787Y-101439891D01*
X138972856Y-101107381D01*
X138538946Y-100927206D01*
X138069115Y-100926796D01*
X137634891Y-101106213D01*
X137302381Y-101438144D01*
X137122206Y-101872054D01*
X137121796Y-102341885D01*
X137141263Y-102389000D01*
X133462695Y-102389000D01*
X133522882Y-102244054D01*
X133523118Y-101973135D01*
X133419661Y-101722748D01*
X133228259Y-101531013D01*
X133226000Y-101530075D01*
X133226000Y-101347048D01*
X133332856Y-101418447D01*
X133670000Y-101485509D01*
X134007144Y-101418447D01*
X134292961Y-101227470D01*
X134483938Y-100941653D01*
X134551000Y-100604509D01*
X134551000Y-100315091D01*
X134483938Y-99977947D01*
X134292961Y-99692130D01*
X134066779Y-99541000D01*
X136652000Y-99541000D01*
X136836071Y-99504386D01*
X136992118Y-99400118D01*
X137217811Y-99174425D01*
X137444770Y-99514093D01*
X137827914Y-99770102D01*
X138279863Y-99860000D01*
X138326137Y-99860000D01*
X138778086Y-99770102D01*
X139161230Y-99514093D01*
X139417239Y-99130949D01*
X139507137Y-98679000D01*
X139417239Y-98227051D01*
X139161230Y-97843907D01*
X138778086Y-97587898D01*
X138326137Y-97498000D01*
X138279863Y-97498000D01*
X137827914Y-97587898D01*
X137444770Y-97843907D01*
X137208172Y-98198000D01*
X137033000Y-98198000D01*
X136865585Y-98231301D01*
X136848929Y-98234614D01*
X136692881Y-98338882D01*
X136452764Y-98579000D01*
X136212785Y-98579000D01*
X136242961Y-98558837D01*
X136433938Y-98273020D01*
X136501000Y-97935876D01*
X136501000Y-96983724D01*
X136433938Y-96646580D01*
X136289892Y-96431000D01*
X161569000Y-96431000D01*
X161569000Y-121569000D01*
X128694982Y-121569000D01*
X128846987Y-121417259D01*
X128950882Y-121167054D01*
X128951118Y-120896135D01*
X128847661Y-120645748D01*
X128656259Y-120454013D01*
X128406054Y-120350118D01*
X128135135Y-120349882D01*
X127884748Y-120453339D01*
X127787919Y-120550000D01*
X123884987Y-120550000D01*
X124090787Y-120242000D01*
X128016000Y-120242000D01*
X128200071Y-120205386D01*
X128356118Y-120101118D01*
X128737118Y-119720119D01*
X128841386Y-119564071D01*
X128855108Y-119495086D01*
X128878000Y-119380000D01*
X128878000Y-117493237D01*
X128945881Y-117561118D01*
X129010397Y-117604226D01*
X129101929Y-117665386D01*
X129286000Y-117702000D01*
X131219601Y-117702000D01*
X131331975Y-117973966D01*
X131706065Y-118348709D01*
X132048978Y-118491099D01*
X131708034Y-118631975D01*
X131333291Y-119006065D01*
X131130231Y-119495086D01*
X131129769Y-120024591D01*
X131331975Y-120513966D01*
X131706065Y-120888709D01*
X132195086Y-121091769D01*
X132724591Y-121092231D01*
X133213966Y-120890025D01*
X133588709Y-120515935D01*
X133731099Y-120173022D01*
X133871975Y-120513966D01*
X134246065Y-120888709D01*
X134735086Y-121091769D01*
X135264591Y-121092231D01*
X135753966Y-120890025D01*
X136128709Y-120515935D01*
X136331769Y-120026914D01*
X136331883Y-119895865D01*
X136478882Y-119895865D01*
X136582339Y-120146252D01*
X136773741Y-120337987D01*
X137023946Y-120441882D01*
X137294865Y-120442118D01*
X137545252Y-120338661D01*
X137642081Y-120242000D01*
X138799213Y-120242000D01*
X139059435Y-120631448D01*
X139458800Y-120898296D01*
X139929883Y-120992000D01*
X139978117Y-120992000D01*
X140449200Y-120898296D01*
X140848565Y-120631448D01*
X141115413Y-120232083D01*
X141209117Y-119761000D01*
X141115413Y-119289917D01*
X140848565Y-118890552D01*
X140449200Y-118623704D01*
X139978117Y-118530000D01*
X139929883Y-118530000D01*
X139458800Y-118623704D01*
X139059435Y-118890552D01*
X138799213Y-119280000D01*
X137642079Y-119280000D01*
X137546259Y-119184013D01*
X137296054Y-119080118D01*
X137025135Y-119079882D01*
X136774748Y-119183339D01*
X136583013Y-119374741D01*
X136479118Y-119624946D01*
X136478882Y-119895865D01*
X136331883Y-119895865D01*
X136332231Y-119497409D01*
X136130025Y-119008034D01*
X135755935Y-118633291D01*
X135413022Y-118490901D01*
X135753966Y-118350025D01*
X136128709Y-117975935D01*
X136193208Y-117820604D01*
X136388946Y-117901882D01*
X136659865Y-117902118D01*
X136910252Y-117798661D01*
X137101987Y-117607259D01*
X137205882Y-117357054D01*
X137206118Y-117086135D01*
X137102661Y-116835748D01*
X136911259Y-116644013D01*
X136661054Y-116540118D01*
X136390135Y-116539882D01*
X136193314Y-116621206D01*
X136130025Y-116468034D01*
X135755935Y-116093291D01*
X135413022Y-115950901D01*
X135753966Y-115810025D01*
X136128709Y-115435935D01*
X136242457Y-115162000D01*
X136677921Y-115162000D01*
X136773741Y-115257987D01*
X137023946Y-115361882D01*
X137294865Y-115362118D01*
X137314000Y-115354212D01*
X137314000Y-116967000D01*
X137350614Y-117151071D01*
X137454882Y-117307118D01*
X137708881Y-117561118D01*
X137773397Y-117604226D01*
X137864929Y-117665386D01*
X138049000Y-117702000D01*
X138799213Y-117702000D01*
X139059435Y-118091448D01*
X139458800Y-118358296D01*
X139929883Y-118452000D01*
X139978117Y-118452000D01*
X140449200Y-118358296D01*
X140743000Y-118161984D01*
X140743000Y-118491000D01*
X140779614Y-118675070D01*
X140779614Y-118675071D01*
X140883882Y-118831118D01*
X141336630Y-119283866D01*
X141332587Y-119289917D01*
X141238883Y-119761000D01*
X141332587Y-120232083D01*
X141599435Y-120631448D01*
X141998800Y-120898296D01*
X142469883Y-120992000D01*
X142518117Y-120992000D01*
X142989200Y-120898296D01*
X143388565Y-120631448D01*
X143655413Y-120232083D01*
X143749117Y-119761000D01*
X143655413Y-119289917D01*
X143388565Y-118890552D01*
X142989200Y-118623704D01*
X142518117Y-118530000D01*
X142469883Y-118530000D01*
X142030612Y-118617376D01*
X141705000Y-118291764D01*
X141705000Y-118161984D01*
X141998800Y-118358296D01*
X142469883Y-118452000D01*
X142518117Y-118452000D01*
X142957388Y-118364624D01*
X143042882Y-118450118D01*
X143198929Y-118554386D01*
X143383000Y-118591000D01*
X144794369Y-118591000D01*
X144815103Y-118701190D01*
X144898546Y-118830865D01*
X144946000Y-118863289D01*
X144946000Y-119387894D01*
X144906135Y-119413546D01*
X144819141Y-119540866D01*
X144788536Y-119692000D01*
X144788536Y-120592000D01*
X144815103Y-120733190D01*
X144898546Y-120862865D01*
X145025866Y-120949859D01*
X145177000Y-120980464D01*
X145677000Y-120980464D01*
X145818190Y-120953897D01*
X145947865Y-120870454D01*
X146034859Y-120743134D01*
X146065464Y-120592000D01*
X146065464Y-119692000D01*
X146038897Y-119550810D01*
X145955454Y-119421135D01*
X145908000Y-119388711D01*
X145908000Y-118864106D01*
X145947865Y-118838454D01*
X146034859Y-118711134D01*
X146065464Y-118560000D01*
X146065464Y-117660000D01*
X146288536Y-117660000D01*
X146288536Y-118560000D01*
X146315103Y-118701190D01*
X146398546Y-118830865D01*
X146525866Y-118917859D01*
X146677000Y-118948464D01*
X147177000Y-118948464D01*
X147318190Y-118921897D01*
X147447865Y-118838454D01*
X147534859Y-118711134D01*
X147559186Y-118591000D01*
X148468481Y-118591000D01*
X148475103Y-118626190D01*
X148558546Y-118755865D01*
X148623024Y-118799921D01*
X148544118Y-118989946D01*
X148543882Y-119260865D01*
X148622872Y-119452037D01*
X148566135Y-119488546D01*
X148479141Y-119615866D01*
X148470001Y-119661000D01*
X147559631Y-119661000D01*
X147538897Y-119550810D01*
X147455454Y-119421135D01*
X147328134Y-119334141D01*
X147177000Y-119303536D01*
X146677000Y-119303536D01*
X146535810Y-119330103D01*
X146406135Y-119413546D01*
X146319141Y-119540866D01*
X146288536Y-119692000D01*
X146288536Y-120592000D01*
X146315103Y-120733190D01*
X146398546Y-120862865D01*
X146525866Y-120949859D01*
X146677000Y-120980464D01*
X147177000Y-120980464D01*
X147318190Y-120953897D01*
X147447865Y-120870454D01*
X147534859Y-120743134D01*
X147559186Y-120623000D01*
X148468481Y-120623000D01*
X148475103Y-120658190D01*
X148558546Y-120787865D01*
X148685866Y-120874859D01*
X148837000Y-120905464D01*
X149637000Y-120905464D01*
X149778190Y-120878897D01*
X149907865Y-120795454D01*
X149987980Y-120678202D01*
X150058546Y-120787865D01*
X150185866Y-120874859D01*
X150337000Y-120905464D01*
X151137000Y-120905464D01*
X151278190Y-120878897D01*
X151407865Y-120795454D01*
X151494859Y-120668134D01*
X151525464Y-120517000D01*
X151525464Y-119767000D01*
X151498897Y-119625810D01*
X151415454Y-119496135D01*
X151288134Y-119409141D01*
X151218000Y-119394939D01*
X151218000Y-118858223D01*
X151278190Y-118846897D01*
X151407865Y-118763454D01*
X151442128Y-118713308D01*
X151628946Y-118790882D01*
X151899865Y-118791118D01*
X152150252Y-118687661D01*
X152341987Y-118496259D01*
X152385148Y-118392316D01*
X156018657Y-118392316D01*
X156319611Y-119120680D01*
X156876389Y-119678431D01*
X157604226Y-119980655D01*
X158392316Y-119981343D01*
X159120680Y-119680389D01*
X159678431Y-119123611D01*
X159980655Y-118395774D01*
X159981343Y-117607684D01*
X159680389Y-116879320D01*
X159123611Y-116321569D01*
X158395774Y-116019345D01*
X157607684Y-116018657D01*
X156879320Y-116319611D01*
X156321569Y-116876389D01*
X156019345Y-117604226D01*
X156018657Y-118392316D01*
X152385148Y-118392316D01*
X152445882Y-118246054D01*
X152446118Y-117975135D01*
X152342661Y-117724748D01*
X152151259Y-117533013D01*
X151901054Y-117429118D01*
X151630135Y-117428882D01*
X151442624Y-117506359D01*
X151415454Y-117464135D01*
X151288134Y-117377141D01*
X151137000Y-117346536D01*
X150443501Y-117346536D01*
X150563987Y-117226259D01*
X150667882Y-116976054D01*
X150667935Y-116915401D01*
X150688000Y-116919464D01*
X152588000Y-116919464D01*
X152729190Y-116892897D01*
X152858865Y-116809454D01*
X152945859Y-116682134D01*
X152976464Y-116531000D01*
X152976464Y-115431000D01*
X152949897Y-115289810D01*
X152866454Y-115160135D01*
X152739134Y-115073141D01*
X152588000Y-115042536D01*
X150688000Y-115042536D01*
X150546810Y-115069103D01*
X150476824Y-115114138D01*
X150558386Y-114992071D01*
X150562151Y-114973141D01*
X150595000Y-114808000D01*
X150595000Y-114400631D01*
X150688000Y-114419464D01*
X152588000Y-114419464D01*
X152729190Y-114392897D01*
X152858865Y-114309454D01*
X152945859Y-114182134D01*
X152976464Y-114031000D01*
X152976464Y-112931000D01*
X152949897Y-112789810D01*
X152866454Y-112660135D01*
X152739134Y-112573141D01*
X152588000Y-112542536D01*
X150688000Y-112542536D01*
X150546810Y-112569103D01*
X150417135Y-112652546D01*
X150330141Y-112779866D01*
X150299536Y-112931000D01*
X150299536Y-113250000D01*
X149125280Y-113250000D01*
X149067454Y-113160135D01*
X148940134Y-113073141D01*
X148789000Y-113042536D01*
X147689000Y-113042536D01*
X147547810Y-113069103D01*
X147418135Y-113152546D01*
X147331141Y-113279866D01*
X147300536Y-113431000D01*
X147300536Y-114031000D01*
X147327103Y-114172190D01*
X147348175Y-114204936D01*
X147331141Y-114229866D01*
X147300536Y-114381000D01*
X147300536Y-114981000D01*
X147327103Y-115122190D01*
X147348175Y-115154936D01*
X147331141Y-115179866D01*
X147300536Y-115331000D01*
X147300536Y-115931000D01*
X147327103Y-116072190D01*
X147410546Y-116201865D01*
X147537866Y-116288859D01*
X147689000Y-116319464D01*
X148756000Y-116319464D01*
X148756000Y-117361777D01*
X148695810Y-117373103D01*
X148566135Y-117456546D01*
X148479141Y-117583866D01*
X148470001Y-117629000D01*
X147559631Y-117629000D01*
X147538897Y-117518810D01*
X147455454Y-117389135D01*
X147328134Y-117302141D01*
X147177000Y-117271536D01*
X146677000Y-117271536D01*
X146535810Y-117298103D01*
X146406135Y-117381546D01*
X146319141Y-117508866D01*
X146288536Y-117660000D01*
X146065464Y-117660000D01*
X146038897Y-117518810D01*
X145955454Y-117389135D01*
X145828134Y-117302141D01*
X145677000Y-117271536D01*
X145177000Y-117271536D01*
X145035810Y-117298103D01*
X144906135Y-117381546D01*
X144819141Y-117508866D01*
X144794814Y-117629000D01*
X144372000Y-117629000D01*
X144372000Y-114966750D01*
X144454000Y-114966750D01*
X144454000Y-115107310D01*
X144550673Y-115340699D01*
X144700536Y-115490561D01*
X144700536Y-115931000D01*
X144727103Y-116072190D01*
X144810546Y-116201865D01*
X144937866Y-116288859D01*
X145089000Y-116319464D01*
X146189000Y-116319464D01*
X146330190Y-116292897D01*
X146459865Y-116209454D01*
X146546859Y-116082134D01*
X146577464Y-115931000D01*
X146577464Y-115490561D01*
X146727327Y-115340699D01*
X146824000Y-115107310D01*
X146824000Y-114966750D01*
X146665250Y-114808000D01*
X145766000Y-114808000D01*
X145766000Y-114828000D01*
X145512000Y-114828000D01*
X145512000Y-114808000D01*
X144612750Y-114808000D01*
X144454000Y-114966750D01*
X144372000Y-114966750D01*
X144372000Y-114626236D01*
X144528493Y-114469743D01*
X144612750Y-114554000D01*
X145512000Y-114554000D01*
X145512000Y-114534000D01*
X145766000Y-114534000D01*
X145766000Y-114554000D01*
X146665250Y-114554000D01*
X146824000Y-114395250D01*
X146824000Y-114254690D01*
X146727327Y-114021301D01*
X146577464Y-113871439D01*
X146577464Y-113431000D01*
X146550897Y-113289810D01*
X146467454Y-113160135D01*
X146340134Y-113073141D01*
X146189000Y-113042536D01*
X145089000Y-113042536D01*
X144947810Y-113069103D01*
X144818135Y-113152546D01*
X144751548Y-113250000D01*
X144587000Y-113250000D01*
X144402929Y-113286614D01*
X144340426Y-113328378D01*
X144246882Y-113390881D01*
X143965548Y-113672215D01*
X143882327Y-113471301D01*
X143703698Y-113292673D01*
X143470309Y-113196000D01*
X142779750Y-113196000D01*
X142621000Y-113354750D01*
X142621000Y-114554000D01*
X142641000Y-114554000D01*
X142641000Y-114808000D01*
X142621000Y-114808000D01*
X142621000Y-114828000D01*
X142367000Y-114828000D01*
X142367000Y-114808000D01*
X142347000Y-114808000D01*
X142347000Y-114554000D01*
X142367000Y-114554000D01*
X142367000Y-113354750D01*
X142208250Y-113196000D01*
X141517691Y-113196000D01*
X141284302Y-113292673D01*
X141105673Y-113471301D01*
X141009000Y-113704690D01*
X141009000Y-114050659D01*
X140848565Y-113810552D01*
X140449200Y-113543704D01*
X139978117Y-113450000D01*
X139929883Y-113450000D01*
X139458800Y-113543704D01*
X139059435Y-113810552D01*
X138792587Y-114209917D01*
X138698883Y-114681000D01*
X138792587Y-115152083D01*
X139005013Y-115470000D01*
X138756237Y-115470000D01*
X138676002Y-115389766D01*
X138676002Y-112448235D01*
X138770118Y-112354119D01*
X138874386Y-112198071D01*
X138883937Y-112150054D01*
X138911000Y-112014000D01*
X138911000Y-111252000D01*
X138874386Y-111067929D01*
X138770118Y-110911882D01*
X138363118Y-110504882D01*
X138286446Y-110453651D01*
X138328169Y-110412000D01*
X140599536Y-110412000D01*
X140599536Y-111412000D01*
X140626103Y-111553190D01*
X140709546Y-111682865D01*
X140836866Y-111769859D01*
X140988000Y-111800464D01*
X143788000Y-111800464D01*
X143929190Y-111773897D01*
X144058865Y-111690454D01*
X144145859Y-111563134D01*
X144176464Y-111412000D01*
X144176464Y-111197750D01*
X146153000Y-111197750D01*
X146153000Y-111538310D01*
X146249673Y-111771699D01*
X146428302Y-111950327D01*
X146661691Y-112047000D01*
X147902250Y-112047000D01*
X148061000Y-111888250D01*
X148061000Y-111039000D01*
X148315000Y-111039000D01*
X148315000Y-111888250D01*
X148473750Y-112047000D01*
X149714309Y-112047000D01*
X149947698Y-111950327D01*
X150126327Y-111771699D01*
X150223000Y-111538310D01*
X150223000Y-111197750D01*
X150064250Y-111039000D01*
X148315000Y-111039000D01*
X148061000Y-111039000D01*
X146311750Y-111039000D01*
X146153000Y-111197750D01*
X144176464Y-111197750D01*
X144176464Y-110412000D01*
X144152697Y-110285690D01*
X146153000Y-110285690D01*
X146153000Y-110626250D01*
X146311750Y-110785000D01*
X148061000Y-110785000D01*
X148061000Y-109935750D01*
X148315000Y-109935750D01*
X148315000Y-110785000D01*
X150064250Y-110785000D01*
X150223000Y-110626250D01*
X150223000Y-110285690D01*
X150126327Y-110052301D01*
X150074026Y-110000000D01*
X151011536Y-110000000D01*
X151011536Y-111200000D01*
X151038103Y-111341190D01*
X151121546Y-111470865D01*
X151248866Y-111557859D01*
X151400000Y-111588464D01*
X152600000Y-111588464D01*
X152741190Y-111561897D01*
X152870865Y-111478454D01*
X152957859Y-111351134D01*
X152988464Y-111200000D01*
X152988464Y-111081000D01*
X153511536Y-111081000D01*
X153511536Y-111200000D01*
X153538103Y-111341190D01*
X153621546Y-111470865D01*
X153748866Y-111557859D01*
X153900000Y-111588464D01*
X154019000Y-111588464D01*
X154019000Y-112517921D01*
X153923013Y-112613741D01*
X153819118Y-112863946D01*
X153818882Y-113134865D01*
X153922339Y-113385252D01*
X154113741Y-113576987D01*
X154363946Y-113680882D01*
X154634865Y-113681118D01*
X154885252Y-113577661D01*
X155076987Y-113386259D01*
X155180882Y-113136054D01*
X155181118Y-112865135D01*
X155077661Y-112614748D01*
X154981000Y-112517919D01*
X154981000Y-111588464D01*
X155100000Y-111588464D01*
X155241190Y-111561897D01*
X155370865Y-111478454D01*
X155457859Y-111351134D01*
X155488464Y-111200000D01*
X155488464Y-110000000D01*
X155461897Y-109858810D01*
X155378454Y-109729135D01*
X155251134Y-109642141D01*
X155100000Y-109611536D01*
X153900000Y-109611536D01*
X153758810Y-109638103D01*
X153629135Y-109721546D01*
X153542141Y-109848866D01*
X153511536Y-110000000D01*
X153511536Y-110119000D01*
X152988464Y-110119000D01*
X152988464Y-110000000D01*
X152961897Y-109858810D01*
X152878454Y-109729135D01*
X152751134Y-109642141D01*
X152600000Y-109611536D01*
X151400000Y-109611536D01*
X151258810Y-109638103D01*
X151129135Y-109721546D01*
X151042141Y-109848866D01*
X151011536Y-110000000D01*
X150074026Y-110000000D01*
X149947698Y-109873673D01*
X149714309Y-109777000D01*
X148473750Y-109777000D01*
X148315000Y-109935750D01*
X148061000Y-109935750D01*
X147902250Y-109777000D01*
X146661691Y-109777000D01*
X146428302Y-109873673D01*
X146249673Y-110052301D01*
X146153000Y-110285690D01*
X144152697Y-110285690D01*
X144149897Y-110270810D01*
X144066454Y-110141135D01*
X143939134Y-110054141D01*
X143788000Y-110023536D01*
X140988000Y-110023536D01*
X140846810Y-110050103D01*
X140717135Y-110133546D01*
X140630141Y-110260866D01*
X140599536Y-110412000D01*
X138328169Y-110412000D01*
X138371987Y-110368259D01*
X138475882Y-110118054D01*
X138476118Y-109847135D01*
X138372661Y-109596748D01*
X138181259Y-109405013D01*
X137931054Y-109301118D01*
X137794235Y-109300999D01*
X137698118Y-109204882D01*
X137542071Y-109100614D01*
X137451311Y-109082561D01*
X137376250Y-109007500D01*
X137117519Y-109007500D01*
X137051134Y-108962141D01*
X136900000Y-108931536D01*
X135550000Y-108931536D01*
X135408810Y-108958103D01*
X135332044Y-109007500D01*
X135073750Y-109007500D01*
X134915000Y-109166250D01*
X134915000Y-109246310D01*
X135011673Y-109479699D01*
X135161536Y-109629561D01*
X135161536Y-109714000D01*
X132394151Y-109714000D01*
X132339259Y-109659013D01*
X132089054Y-109555118D01*
X131818135Y-109554882D01*
X131567748Y-109658339D01*
X131538464Y-109687572D01*
X131538464Y-109629561D01*
X131688327Y-109479699D01*
X131785000Y-109246310D01*
X131785000Y-109166250D01*
X131626250Y-109007500D01*
X131367519Y-109007500D01*
X131301134Y-108962141D01*
X131150000Y-108931536D01*
X130328000Y-108931536D01*
X130328000Y-108858464D01*
X131150000Y-108858464D01*
X131291190Y-108831897D01*
X131367956Y-108782500D01*
X131626250Y-108782500D01*
X131785000Y-108623750D01*
X131785000Y-108543690D01*
X131688327Y-108310301D01*
X131538464Y-108160439D01*
X131538464Y-108020000D01*
X131518957Y-107916330D01*
X131538464Y-107820000D01*
X131538464Y-107370000D01*
X131518957Y-107266330D01*
X131538464Y-107170000D01*
X131538464Y-106720000D01*
X131518957Y-106616330D01*
X131538464Y-106520000D01*
X131538464Y-106145000D01*
X135161536Y-106145000D01*
X135161536Y-106520000D01*
X135181043Y-106623670D01*
X135161536Y-106720000D01*
X135161536Y-107170000D01*
X135181043Y-107273670D01*
X135161536Y-107370000D01*
X135161536Y-107820000D01*
X135181043Y-107923670D01*
X135161536Y-108020000D01*
X135161536Y-108160439D01*
X135011673Y-108310301D01*
X134915000Y-108543690D01*
X134915000Y-108623750D01*
X135073750Y-108782500D01*
X135332481Y-108782500D01*
X135398866Y-108827859D01*
X135550000Y-108858464D01*
X136900000Y-108858464D01*
X137041190Y-108831897D01*
X137117956Y-108782500D01*
X137376250Y-108782500D01*
X137432750Y-108726000D01*
X138389000Y-108726000D01*
X138573071Y-108689386D01*
X138729118Y-108585118D01*
X140334237Y-106980000D01*
X140469865Y-106980118D01*
X140599536Y-106926539D01*
X140599536Y-107412000D01*
X140626103Y-107553190D01*
X140709546Y-107682865D01*
X140836866Y-107769859D01*
X140988000Y-107800464D01*
X143788000Y-107800464D01*
X143929190Y-107773897D01*
X144058865Y-107690454D01*
X144145859Y-107563134D01*
X144176464Y-107412000D01*
X144176464Y-106412000D01*
X144149897Y-106270810D01*
X144066454Y-106141135D01*
X143939134Y-106054141D01*
X143788000Y-106023536D01*
X142179773Y-106023536D01*
X141804736Y-105648500D01*
X141966772Y-105486464D01*
X142375000Y-105486464D01*
X142516190Y-105459897D01*
X142645865Y-105376454D01*
X142732859Y-105249134D01*
X142763464Y-105098000D01*
X142763464Y-104198000D01*
X142736897Y-104056810D01*
X142653454Y-103927135D01*
X142526134Y-103840141D01*
X142375000Y-103809536D01*
X141875000Y-103809536D01*
X141733810Y-103836103D01*
X141604135Y-103919546D01*
X141517141Y-104046866D01*
X141486536Y-104198000D01*
X141486536Y-104606228D01*
X140909764Y-105183000D01*
X137198430Y-105183000D01*
X137205882Y-105165054D01*
X137206118Y-104894135D01*
X137102661Y-104643748D01*
X137029139Y-104570098D01*
X137232237Y-104367000D01*
X139065000Y-104367000D01*
X139249071Y-104330386D01*
X139405118Y-104226118D01*
X141568945Y-102062291D01*
X141568882Y-102134865D01*
X141672339Y-102385252D01*
X141863741Y-102576987D01*
X142113946Y-102680882D01*
X142250765Y-102681001D01*
X143159882Y-103590118D01*
X143315929Y-103694386D01*
X143500000Y-103731000D01*
X144550764Y-103731000D01*
X144786769Y-103967005D01*
X144645135Y-103966882D01*
X144394748Y-104070339D01*
X144297919Y-104167000D01*
X144257631Y-104167000D01*
X144236897Y-104056810D01*
X144153454Y-103927135D01*
X144026134Y-103840141D01*
X143875000Y-103809536D01*
X143375000Y-103809536D01*
X143233810Y-103836103D01*
X143104135Y-103919546D01*
X143017141Y-104046866D01*
X142986536Y-104198000D01*
X142986536Y-105098000D01*
X143013103Y-105239190D01*
X143096546Y-105368865D01*
X143223866Y-105455859D01*
X143375000Y-105486464D01*
X143875000Y-105486464D01*
X144016190Y-105459897D01*
X144145865Y-105376454D01*
X144232859Y-105249134D01*
X144257186Y-105129000D01*
X144297921Y-105129000D01*
X144393741Y-105224987D01*
X144643946Y-105328882D01*
X144914865Y-105329118D01*
X145165252Y-105225661D01*
X145356987Y-105034259D01*
X145460882Y-104784054D01*
X145461006Y-104641242D01*
X146843300Y-106023536D01*
X146788000Y-106023536D01*
X146646810Y-106050103D01*
X146517135Y-106133546D01*
X146430141Y-106260866D01*
X146399536Y-106412000D01*
X146399536Y-107412000D01*
X146426103Y-107553190D01*
X146509546Y-107682865D01*
X146636866Y-107769859D01*
X146788000Y-107800464D01*
X149588000Y-107800464D01*
X149590465Y-107800000D01*
X151011536Y-107800000D01*
X151011536Y-109000000D01*
X151038103Y-109141190D01*
X151121546Y-109270865D01*
X151248866Y-109357859D01*
X151400000Y-109388464D01*
X152600000Y-109388464D01*
X152741190Y-109361897D01*
X152870865Y-109278454D01*
X152957859Y-109151134D01*
X152988464Y-109000000D01*
X152988464Y-107800000D01*
X153511536Y-107800000D01*
X153511536Y-109000000D01*
X153538103Y-109141190D01*
X153621546Y-109270865D01*
X153748866Y-109357859D01*
X153900000Y-109388464D01*
X155100000Y-109388464D01*
X155241190Y-109361897D01*
X155370865Y-109278454D01*
X155457859Y-109151134D01*
X155488464Y-109000000D01*
X155488464Y-107800000D01*
X155461897Y-107658810D01*
X155378454Y-107529135D01*
X155251134Y-107442141D01*
X155100000Y-107411536D01*
X154981000Y-107411536D01*
X154981000Y-106882631D01*
X155091190Y-106861897D01*
X155220865Y-106778454D01*
X155307859Y-106651134D01*
X155338464Y-106500000D01*
X155338464Y-106000000D01*
X155311897Y-105858810D01*
X155228454Y-105729135D01*
X155101134Y-105642141D01*
X154950000Y-105611536D01*
X154050000Y-105611536D01*
X153908810Y-105638103D01*
X153779135Y-105721546D01*
X153692141Y-105848866D01*
X153661536Y-106000000D01*
X153661536Y-106500000D01*
X153688103Y-106641190D01*
X153771546Y-106770865D01*
X153898866Y-106857859D01*
X154019000Y-106882186D01*
X154019000Y-107411536D01*
X153900000Y-107411536D01*
X153758810Y-107438103D01*
X153629135Y-107521546D01*
X153542141Y-107648866D01*
X153511536Y-107800000D01*
X152988464Y-107800000D01*
X152961897Y-107658810D01*
X152878454Y-107529135D01*
X152751134Y-107442141D01*
X152600000Y-107411536D01*
X152481000Y-107411536D01*
X152481000Y-106949236D01*
X152541772Y-106888464D01*
X152950000Y-106888464D01*
X153091190Y-106861897D01*
X153220865Y-106778454D01*
X153307859Y-106651134D01*
X153338464Y-106500000D01*
X153338464Y-106000000D01*
X153311897Y-105858810D01*
X153228454Y-105729135D01*
X153101134Y-105642141D01*
X152950000Y-105611536D01*
X152050000Y-105611536D01*
X151908810Y-105638103D01*
X151779135Y-105721546D01*
X151692141Y-105848866D01*
X151661536Y-106000000D01*
X151661536Y-106408228D01*
X151659882Y-106409882D01*
X151555614Y-106565929D01*
X151519000Y-106750000D01*
X151519000Y-107411536D01*
X151400000Y-107411536D01*
X151258810Y-107438103D01*
X151129135Y-107521546D01*
X151042141Y-107648866D01*
X151011536Y-107800000D01*
X149590465Y-107800000D01*
X149729190Y-107773897D01*
X149858865Y-107690454D01*
X149945859Y-107563134D01*
X149976464Y-107412000D01*
X149976464Y-106412000D01*
X149949897Y-106270810D01*
X149924280Y-106231000D01*
X150250000Y-106231000D01*
X150434071Y-106194386D01*
X150454163Y-106180961D01*
X150634865Y-106181118D01*
X150885252Y-106077661D01*
X151076987Y-105886259D01*
X151180882Y-105636054D01*
X151181118Y-105365135D01*
X151077661Y-105114748D01*
X150886259Y-104923013D01*
X150636054Y-104819118D01*
X150365135Y-104818882D01*
X150114748Y-104922339D01*
X149923013Y-105113741D01*
X149858543Y-105269000D01*
X149682984Y-105269000D01*
X149778882Y-105038054D01*
X149779118Y-104767135D01*
X149675661Y-104516748D01*
X149591000Y-104431940D01*
X149591000Y-104380223D01*
X149651190Y-104368897D01*
X149668081Y-104358028D01*
X149671673Y-104366699D01*
X149850302Y-104545327D01*
X150083691Y-104642000D01*
X150324250Y-104642000D01*
X150483000Y-104483250D01*
X150483000Y-103759000D01*
X150737000Y-103759000D01*
X150737000Y-104483250D01*
X150895750Y-104642000D01*
X151136309Y-104642000D01*
X151369698Y-104545327D01*
X151548327Y-104366699D01*
X151645000Y-104133310D01*
X151645000Y-103917750D01*
X151486250Y-103759000D01*
X150737000Y-103759000D01*
X150483000Y-103759000D01*
X150463000Y-103759000D01*
X150463000Y-103505000D01*
X150483000Y-103505000D01*
X150483000Y-103485000D01*
X150737000Y-103485000D01*
X150737000Y-103505000D01*
X151486250Y-103505000D01*
X151645000Y-103346250D01*
X151645000Y-103130690D01*
X151600285Y-103022740D01*
X151648327Y-102974698D01*
X151745000Y-102741309D01*
X151745000Y-102400750D01*
X151586250Y-102242000D01*
X150937000Y-102242000D01*
X150937000Y-102262000D01*
X150683000Y-102262000D01*
X150683000Y-102242000D01*
X150033750Y-102242000D01*
X149875000Y-102400750D01*
X149875000Y-102708443D01*
X149850302Y-102718673D01*
X149671673Y-102897301D01*
X149668754Y-102904348D01*
X149661134Y-102899141D01*
X149510000Y-102868536D01*
X149497891Y-102868536D01*
X149567859Y-102766134D01*
X149598464Y-102615000D01*
X149598464Y-101615000D01*
X149574698Y-101488691D01*
X149875000Y-101488691D01*
X149875000Y-101829250D01*
X150033750Y-101988000D01*
X150683000Y-101988000D01*
X150683000Y-101138750D01*
X150937000Y-101138750D01*
X150937000Y-101988000D01*
X151586250Y-101988000D01*
X151745000Y-101829250D01*
X151745000Y-101488691D01*
X151648327Y-101255302D01*
X151469699Y-101076673D01*
X151236310Y-100980000D01*
X151095750Y-100980000D01*
X150937000Y-101138750D01*
X150683000Y-101138750D01*
X150524250Y-100980000D01*
X150383690Y-100980000D01*
X150150301Y-101076673D01*
X149971673Y-101255302D01*
X149875000Y-101488691D01*
X149574698Y-101488691D01*
X149571897Y-101473810D01*
X149488454Y-101344135D01*
X149361134Y-101257141D01*
X149210000Y-101226536D01*
X148610000Y-101226536D01*
X148468810Y-101253103D01*
X148339135Y-101336546D01*
X148252141Y-101463866D01*
X148221536Y-101615000D01*
X148221536Y-102615000D01*
X148248103Y-102756190D01*
X148331546Y-102885865D01*
X148429000Y-102952452D01*
X148429000Y-102993379D01*
X148352141Y-103105866D01*
X148321536Y-103257000D01*
X148321536Y-104007000D01*
X148348103Y-104148190D01*
X148431546Y-104277865D01*
X148558866Y-104364859D01*
X148629000Y-104379061D01*
X148629000Y-104407942D01*
X148521013Y-104515741D01*
X148417118Y-104765946D01*
X148416882Y-105036865D01*
X148512797Y-105269000D01*
X147449236Y-105269000D01*
X145241248Y-103061012D01*
X145447914Y-103199102D01*
X145899863Y-103289000D01*
X145946137Y-103289000D01*
X146398086Y-103199102D01*
X146781230Y-102943093D01*
X147037239Y-102559949D01*
X147127137Y-102108000D01*
X147037239Y-101656051D01*
X146781230Y-101272907D01*
X146398086Y-101016898D01*
X145946137Y-100927000D01*
X145899863Y-100927000D01*
X145447914Y-101016898D01*
X145064770Y-101272907D01*
X144828172Y-101627000D01*
X144754079Y-101627000D01*
X144658259Y-101531013D01*
X144408054Y-101427118D01*
X144137135Y-101426882D01*
X143886748Y-101530339D01*
X143695013Y-101721741D01*
X143591118Y-101971946D01*
X143590882Y-102242865D01*
X143694339Y-102493252D01*
X143885741Y-102684987D01*
X144088065Y-102769000D01*
X143699236Y-102769000D01*
X142931000Y-102000764D01*
X142931118Y-101865135D01*
X142827661Y-101614748D01*
X142636259Y-101423013D01*
X142386054Y-101319118D01*
X142312182Y-101319054D01*
X143674371Y-99956865D01*
X146892882Y-99956865D01*
X146996339Y-100207252D01*
X147187741Y-100398987D01*
X147437946Y-100502882D01*
X147708865Y-100503118D01*
X147959252Y-100399661D01*
X148063093Y-100296000D01*
X149171536Y-100296000D01*
X149171536Y-100315000D01*
X149198103Y-100456190D01*
X149281546Y-100585865D01*
X149408866Y-100672859D01*
X149560000Y-100703464D01*
X150160000Y-100703464D01*
X150301190Y-100676897D01*
X150430865Y-100593454D01*
X150517859Y-100466134D01*
X150548464Y-100315000D01*
X150548464Y-100296000D01*
X151615764Y-100296000D01*
X152019000Y-100699237D01*
X152019000Y-104117369D01*
X151908810Y-104138103D01*
X151779135Y-104221546D01*
X151692141Y-104348866D01*
X151661536Y-104500000D01*
X151661536Y-105000000D01*
X151688103Y-105141190D01*
X151771546Y-105270865D01*
X151898866Y-105357859D01*
X152050000Y-105388464D01*
X152950000Y-105388464D01*
X153091190Y-105361897D01*
X153220865Y-105278454D01*
X153307859Y-105151134D01*
X153338464Y-105000000D01*
X153338464Y-104500000D01*
X153661536Y-104500000D01*
X153661536Y-105000000D01*
X153688103Y-105141190D01*
X153771546Y-105270865D01*
X153898866Y-105357859D01*
X154050000Y-105388464D01*
X154950000Y-105388464D01*
X155091190Y-105361897D01*
X155220865Y-105278454D01*
X155307859Y-105151134D01*
X155338464Y-105000000D01*
X155338464Y-104500000D01*
X155334889Y-104481000D01*
X155800764Y-104481000D01*
X156269000Y-104949236D01*
X156269000Y-105017921D01*
X156173013Y-105113741D01*
X156069118Y-105363946D01*
X156068882Y-105634865D01*
X156172339Y-105885252D01*
X156363741Y-106076987D01*
X156613946Y-106180882D01*
X156884865Y-106181118D01*
X157135252Y-106077661D01*
X157326987Y-105886259D01*
X157430882Y-105636054D01*
X157431118Y-105365135D01*
X157327661Y-105114748D01*
X157231000Y-105017919D01*
X157231000Y-104750000D01*
X157194386Y-104565929D01*
X157090118Y-104409882D01*
X156340118Y-103659882D01*
X156184071Y-103555614D01*
X156000000Y-103519000D01*
X154750000Y-103519000D01*
X154565929Y-103555614D01*
X154409881Y-103659882D01*
X154159882Y-103909882D01*
X154055614Y-104065929D01*
X154046408Y-104112212D01*
X153908810Y-104138103D01*
X153779135Y-104221546D01*
X153692141Y-104348866D01*
X153661536Y-104500000D01*
X153338464Y-104500000D01*
X153311897Y-104358810D01*
X153228454Y-104229135D01*
X153101134Y-104142141D01*
X152981000Y-104117814D01*
X152981000Y-100500000D01*
X152959581Y-100392316D01*
X156018657Y-100392316D01*
X156319611Y-101120680D01*
X156876389Y-101678431D01*
X157604226Y-101980655D01*
X158392316Y-101981343D01*
X159120680Y-101680389D01*
X159678431Y-101123611D01*
X159980655Y-100395774D01*
X159981343Y-99607684D01*
X159680389Y-98879320D01*
X159123611Y-98321569D01*
X158395774Y-98019345D01*
X157607684Y-98018657D01*
X156879320Y-98319611D01*
X156321569Y-98876389D01*
X156019345Y-99604226D01*
X156018657Y-100392316D01*
X152959581Y-100392316D01*
X152944386Y-100315929D01*
X152871770Y-100207252D01*
X152840118Y-100159881D01*
X152155118Y-99474882D01*
X151999071Y-99370614D01*
X151815000Y-99334000D01*
X151806337Y-99334000D01*
X151810882Y-99323054D01*
X151811118Y-99052135D01*
X151707661Y-98801748D01*
X151516259Y-98610013D01*
X151266054Y-98506118D01*
X151197864Y-98506059D01*
X151240859Y-98443134D01*
X151271464Y-98292000D01*
X151271464Y-97542000D01*
X151244897Y-97400810D01*
X151161454Y-97271135D01*
X151034134Y-97184141D01*
X150883000Y-97153536D01*
X150083000Y-97153536D01*
X149941810Y-97180103D01*
X149812135Y-97263546D01*
X149732020Y-97380798D01*
X149661454Y-97271135D01*
X149534134Y-97184141D01*
X149383000Y-97153536D01*
X148583000Y-97153536D01*
X148441810Y-97180103D01*
X148312135Y-97263546D01*
X148225141Y-97390866D01*
X148194536Y-97542000D01*
X148194536Y-98025228D01*
X147233882Y-98985882D01*
X147129614Y-99141929D01*
X147093000Y-99326000D01*
X147093000Y-99339921D01*
X146997013Y-99435741D01*
X146893118Y-99685946D01*
X146892882Y-99956865D01*
X143674371Y-99956865D01*
X144471236Y-99160000D01*
X144843901Y-99160000D01*
X144921213Y-99347109D01*
X145253144Y-99679619D01*
X145687054Y-99859794D01*
X146156885Y-99860204D01*
X146591109Y-99680787D01*
X146923619Y-99348856D01*
X147103794Y-98914946D01*
X147104204Y-98445115D01*
X146924787Y-98010891D01*
X146592856Y-97678381D01*
X146158946Y-97498206D01*
X145689115Y-97497796D01*
X145254891Y-97677213D01*
X144922381Y-98009144D01*
X144843961Y-98198000D01*
X144272000Y-98198000D01*
X144104585Y-98231301D01*
X144087929Y-98234614D01*
X143931882Y-98338882D01*
X138865764Y-103405000D01*
X137033000Y-103405000D01*
X136848929Y-103441614D01*
X136692881Y-103545882D01*
X136184882Y-104053882D01*
X136080614Y-104209929D01*
X136044000Y-104394000D01*
X136044000Y-104546921D01*
X135948013Y-104642741D01*
X135844118Y-104892946D01*
X135843882Y-105163865D01*
X135851788Y-105183000D01*
X131064000Y-105183000D01*
X130879929Y-105219614D01*
X130862889Y-105231000D01*
X130723882Y-105323881D01*
X130366228Y-105681536D01*
X129800000Y-105681536D01*
X129658810Y-105708103D01*
X129529135Y-105791546D01*
X129513793Y-105814000D01*
X127605086Y-105814000D01*
X127513259Y-105722013D01*
X127263054Y-105618118D01*
X126992135Y-105617882D01*
X126973000Y-105625788D01*
X126973000Y-104140000D01*
X126936386Y-103955929D01*
X126832118Y-103799882D01*
X126764236Y-103732000D01*
X127914921Y-103732000D01*
X128010741Y-103827987D01*
X128260946Y-103931882D01*
X128531865Y-103932118D01*
X128782252Y-103828661D01*
X128973987Y-103637259D01*
X129077882Y-103387054D01*
X129078118Y-103116135D01*
X128974661Y-102865748D01*
X128783259Y-102674013D01*
X128533054Y-102570118D01*
X128262135Y-102569882D01*
X128011748Y-102673339D01*
X127914919Y-102770000D01*
X123884987Y-102770000D01*
X124090787Y-102462000D01*
X126136921Y-102462000D01*
X126232741Y-102557987D01*
X126482946Y-102661882D01*
X126753865Y-102662118D01*
X127004252Y-102558661D01*
X127195987Y-102367259D01*
X127299882Y-102117054D01*
X127300118Y-101846135D01*
X127196661Y-101595748D01*
X127005259Y-101404013D01*
X126755054Y-101300118D01*
X126484135Y-101299882D01*
X126233748Y-101403339D01*
X126136919Y-101500000D01*
X124090787Y-101500000D01*
X123830565Y-101110552D01*
X123431200Y-100843704D01*
X122960117Y-100750000D01*
X122911883Y-100750000D01*
X122440800Y-100843704D01*
X122041435Y-101110552D01*
X121774587Y-101509917D01*
X121680883Y-101981000D01*
X121774587Y-102452083D01*
X121987013Y-102770000D01*
X121865237Y-102770000D01*
X121553370Y-102458134D01*
X121557413Y-102452083D01*
X121651117Y-101981000D01*
X121557413Y-101509917D01*
X121290565Y-101110552D01*
X121014364Y-100926000D01*
X121372309Y-100926000D01*
X121605698Y-100829327D01*
X121784327Y-100650699D01*
X121881000Y-100417310D01*
X121881000Y-100071341D01*
X122041435Y-100311448D01*
X122440800Y-100578296D01*
X122911883Y-100672000D01*
X122960117Y-100672000D01*
X123431200Y-100578296D01*
X123830565Y-100311448D01*
X124097413Y-99912083D01*
X124191117Y-99441000D01*
X124097413Y-98969917D01*
X123830565Y-98570552D01*
X123431200Y-98303704D01*
X122960117Y-98210000D01*
X122911883Y-98210000D01*
X122440800Y-98303704D01*
X122041435Y-98570552D01*
X121881000Y-98810659D01*
X121881000Y-98464690D01*
X121784327Y-98231301D01*
X121605698Y-98052673D01*
X121372309Y-97956000D01*
X120681750Y-97956000D01*
X120523000Y-98114750D01*
X120523000Y-99314000D01*
X120543000Y-99314000D01*
X120543000Y-99568000D01*
X120523000Y-99568000D01*
X120523000Y-99588000D01*
X120269000Y-99588000D01*
X120269000Y-99568000D01*
X119069750Y-99568000D01*
X118911000Y-99726750D01*
X118911000Y-100417310D01*
X119007673Y-100650699D01*
X119186302Y-100829327D01*
X119419691Y-100926000D01*
X119777636Y-100926000D01*
X119501435Y-101110552D01*
X119234587Y-101509917D01*
X119140883Y-101981000D01*
X119234587Y-102452083D01*
X119501435Y-102851448D01*
X119900800Y-103118296D01*
X120371883Y-103212000D01*
X120420117Y-103212000D01*
X120859387Y-103124624D01*
X121325881Y-103591118D01*
X121427474Y-103659000D01*
X121481929Y-103695386D01*
X121666000Y-103732000D01*
X121987013Y-103732000D01*
X121774587Y-104049917D01*
X121680883Y-104521000D01*
X121774587Y-104992083D01*
X121987013Y-105310000D01*
X121865237Y-105310000D01*
X121553370Y-104998134D01*
X121557413Y-104992083D01*
X121651117Y-104521000D01*
X121557413Y-104049917D01*
X121290565Y-103650552D01*
X120891200Y-103383704D01*
X120420117Y-103290000D01*
X120371883Y-103290000D01*
X119900800Y-103383704D01*
X119501435Y-103650552D01*
X119234587Y-104049917D01*
X119140883Y-104521000D01*
X119234587Y-104992083D01*
X119501435Y-105391448D01*
X119900800Y-105658296D01*
X120371883Y-105752000D01*
X120420117Y-105752000D01*
X120859387Y-105664624D01*
X121325881Y-106131118D01*
X121427475Y-106199001D01*
X121481929Y-106235386D01*
X121666000Y-106272000D01*
X121987013Y-106272000D01*
X121774587Y-106589917D01*
X121680883Y-107061000D01*
X121774587Y-107532083D01*
X121987013Y-107850000D01*
X121738236Y-107850000D01*
X121502501Y-107614265D01*
X121557413Y-107532083D01*
X121651117Y-107061000D01*
X121557413Y-106589917D01*
X121290565Y-106190552D01*
X120891200Y-105923704D01*
X120420117Y-105830000D01*
X120371883Y-105830000D01*
X119900800Y-105923704D01*
X119501435Y-106190552D01*
X119234587Y-106589917D01*
X119140883Y-107061000D01*
X119234587Y-107532083D01*
X119501435Y-107931448D01*
X119900800Y-108198296D01*
X120371883Y-108292000D01*
X120420117Y-108292000D01*
X120753458Y-108225694D01*
X121193377Y-108665613D01*
X120891200Y-108463704D01*
X120420117Y-108370000D01*
X120371883Y-108370000D01*
X119900800Y-108463704D01*
X119501435Y-108730552D01*
X119234587Y-109129917D01*
X119140883Y-109601000D01*
X119234587Y-110072083D01*
X119501435Y-110471448D01*
X119900800Y-110738296D01*
X120371883Y-110832000D01*
X120420117Y-110832000D01*
X120859387Y-110744624D01*
X121325881Y-111211118D01*
X121475259Y-111310929D01*
X121481929Y-111315386D01*
X121666000Y-111352000D01*
X121987013Y-111352000D01*
X121774587Y-111669917D01*
X121680883Y-112141000D01*
X121774587Y-112612083D01*
X121987013Y-112930000D01*
X121865237Y-112930000D01*
X121553370Y-112618134D01*
X121557413Y-112612083D01*
X121651117Y-112141000D01*
X121557413Y-111669917D01*
X121290565Y-111270552D01*
X120891200Y-111003704D01*
X120420117Y-110910000D01*
X120371883Y-110910000D01*
X119900800Y-111003704D01*
X119501435Y-111270552D01*
X119234587Y-111669917D01*
X119140883Y-112141000D01*
X119234587Y-112612083D01*
X119501435Y-113011448D01*
X119900800Y-113278296D01*
X120371883Y-113372000D01*
X120420117Y-113372000D01*
X120859387Y-113284624D01*
X121325881Y-113751118D01*
X121427474Y-113819000D01*
X121481929Y-113855386D01*
X121666000Y-113892000D01*
X121987013Y-113892000D01*
X121774587Y-114209917D01*
X121680883Y-114681000D01*
X121774587Y-115152083D01*
X121987013Y-115470000D01*
X121865237Y-115470000D01*
X121553370Y-115158134D01*
X121557413Y-115152083D01*
X121651117Y-114681000D01*
X121557413Y-114209917D01*
X121290565Y-113810552D01*
X120891200Y-113543704D01*
X120420117Y-113450000D01*
X120371883Y-113450000D01*
X119900800Y-113543704D01*
X119501435Y-113810552D01*
X119234587Y-114209917D01*
X119140883Y-114681000D01*
X119234587Y-115152083D01*
X119501435Y-115551448D01*
X119900800Y-115818296D01*
X120371883Y-115912000D01*
X120420117Y-115912000D01*
X120859387Y-115824624D01*
X121325881Y-116291118D01*
X121481929Y-116395386D01*
X121666000Y-116432000D01*
X121987013Y-116432000D01*
X121774587Y-116749917D01*
X121680883Y-117221000D01*
X121774587Y-117692083D01*
X121987013Y-118010000D01*
X121865237Y-118010000D01*
X121553370Y-117698134D01*
X121557413Y-117692083D01*
X121651117Y-117221000D01*
X121557413Y-116749917D01*
X121290565Y-116350552D01*
X120891200Y-116083704D01*
X120420117Y-115990000D01*
X120371883Y-115990000D01*
X119900800Y-116083704D01*
X119501435Y-116350552D01*
X119234587Y-116749917D01*
X119140883Y-117221000D01*
X119234587Y-117692083D01*
X119501435Y-118091448D01*
X119900800Y-118358296D01*
X120371883Y-118452000D01*
X120420117Y-118452000D01*
X120859387Y-118364624D01*
X121325881Y-118831118D01*
X121427475Y-118899001D01*
X121481929Y-118935386D01*
X121666000Y-118972000D01*
X121987013Y-118972000D01*
X121774587Y-119289917D01*
X121680883Y-119761000D01*
X121774587Y-120232083D01*
X121987013Y-120550000D01*
X121865237Y-120550000D01*
X121553370Y-120238134D01*
X121557413Y-120232083D01*
X121651117Y-119761000D01*
X121557413Y-119289917D01*
X121290565Y-118890552D01*
X120891200Y-118623704D01*
X120420117Y-118530000D01*
X120371883Y-118530000D01*
X119900800Y-118623704D01*
X119501435Y-118890552D01*
X119234587Y-119289917D01*
X119140883Y-119761000D01*
X119234587Y-120232083D01*
X119501435Y-120631448D01*
X119900800Y-120898296D01*
X120371883Y-120992000D01*
X120420117Y-120992000D01*
X120859387Y-120904624D01*
X121325881Y-121371118D01*
X121393429Y-121416252D01*
X121481929Y-121475386D01*
X121666000Y-121512000D01*
X127787921Y-121512000D01*
X127844822Y-121569000D01*
X110431000Y-121569000D01*
X110431000Y-118392316D01*
X112018657Y-118392316D01*
X112319611Y-119120680D01*
X112876389Y-119678431D01*
X113604226Y-119980655D01*
X114392316Y-119981343D01*
X115120680Y-119680389D01*
X115678431Y-119123611D01*
X115980655Y-118395774D01*
X115981343Y-117607684D01*
X115680389Y-116879320D01*
X115123611Y-116321569D01*
X114395774Y-116019345D01*
X113607684Y-116018657D01*
X112879320Y-116319611D01*
X112321569Y-116876389D01*
X112019345Y-117604226D01*
X112018657Y-118392316D01*
X110431000Y-118392316D01*
X110431000Y-100392316D01*
X112064657Y-100392316D01*
X112365611Y-101120680D01*
X112922389Y-101678431D01*
X113650226Y-101980655D01*
X114438316Y-101981343D01*
X115166680Y-101680389D01*
X115724431Y-101123611D01*
X116026655Y-100395774D01*
X116027343Y-99607684D01*
X115726389Y-98879320D01*
X115312483Y-98464690D01*
X118911000Y-98464690D01*
X118911000Y-99155250D01*
X119069750Y-99314000D01*
X120269000Y-99314000D01*
X120269000Y-98114750D01*
X120110250Y-97956000D01*
X119419691Y-97956000D01*
X119186302Y-98052673D01*
X119007673Y-98231301D01*
X118911000Y-98464690D01*
X115312483Y-98464690D01*
X115169611Y-98321569D01*
X114441774Y-98019345D01*
X113653684Y-98018657D01*
X112925320Y-98319611D01*
X112367569Y-98876389D01*
X112065345Y-99604226D01*
X112064657Y-100392316D01*
X110431000Y-100392316D01*
X110431000Y-96431000D01*
X126600108Y-96431000D01*
X126456062Y-96646580D01*
X126456062Y-96646580D01*
G37*
X126456062Y-96646580D02*
X126389000Y-96983724D01*
X126389000Y-97935876D01*
X126456062Y-98273020D01*
X126647039Y-98558837D01*
X126932856Y-98749814D01*
X127270000Y-98816876D01*
X127363569Y-98798264D01*
X128845000Y-98798264D01*
X128986190Y-98771697D01*
X129115865Y-98688254D01*
X129119617Y-98682763D01*
X129243866Y-98767659D01*
X129395000Y-98798264D01*
X131195000Y-98798264D01*
X131336190Y-98771697D01*
X131446186Y-98700917D01*
X131481035Y-98724728D01*
X131110948Y-99094816D01*
X130995000Y-99071336D01*
X130595000Y-99071336D01*
X130465412Y-99095720D01*
X130345000Y-99071336D01*
X129945000Y-99071336D01*
X129803810Y-99097903D01*
X129674135Y-99181346D01*
X129587141Y-99308666D01*
X129556536Y-99459800D01*
X129556536Y-99501032D01*
X129220000Y-99434091D01*
X128882856Y-99501153D01*
X128597039Y-99692130D01*
X128406062Y-99977947D01*
X128339000Y-100315091D01*
X128339000Y-100604509D01*
X128406062Y-100941653D01*
X128597039Y-101227470D01*
X128882856Y-101418447D01*
X129220000Y-101485509D01*
X129557144Y-101418447D01*
X129664000Y-101347048D01*
X129664000Y-101782869D01*
X129598013Y-101848741D01*
X129494118Y-102098946D01*
X129493882Y-102369865D01*
X129597339Y-102620252D01*
X129788741Y-102811987D01*
X130038946Y-102915882D01*
X130309865Y-102916118D01*
X130560252Y-102812661D01*
X130751987Y-102621259D01*
X130855882Y-102371054D01*
X130856118Y-102100135D01*
X130752661Y-101849748D01*
X130626000Y-101722867D01*
X130626000Y-101198264D01*
X130995000Y-101198264D01*
X131124588Y-101173880D01*
X131245000Y-101198264D01*
X131436273Y-101198264D01*
X131445000Y-101200000D01*
X131453727Y-101198264D01*
X131614000Y-101198264D01*
X131614000Y-102250000D01*
X131641104Y-102386259D01*
X131650614Y-102434071D01*
X131754882Y-102590118D01*
X132374881Y-103210118D01*
X132530929Y-103314386D01*
X132715000Y-103351000D01*
X137541000Y-103351000D01*
X137725071Y-103314386D01*
X137879762Y-103211024D01*
X138067054Y-103288794D01*
X138536885Y-103289204D01*
X138971109Y-103109787D01*
X139303619Y-102777856D01*
X139483794Y-102343946D01*
X139484204Y-101874115D01*
X139304787Y-101439891D01*
X138972856Y-101107381D01*
X138538946Y-100927206D01*
X138069115Y-100926796D01*
X137634891Y-101106213D01*
X137302381Y-101438144D01*
X137122206Y-101872054D01*
X137121796Y-102341885D01*
X137141263Y-102389000D01*
X133462695Y-102389000D01*
X133522882Y-102244054D01*
X133523118Y-101973135D01*
X133419661Y-101722748D01*
X133228259Y-101531013D01*
X133226000Y-101530075D01*
X133226000Y-101347048D01*
X133332856Y-101418447D01*
X133670000Y-101485509D01*
X134007144Y-101418447D01*
X134292961Y-101227470D01*
X134483938Y-100941653D01*
X134551000Y-100604509D01*
X134551000Y-100315091D01*
X134483938Y-99977947D01*
X134292961Y-99692130D01*
X134066779Y-99541000D01*
X136652000Y-99541000D01*
X136836071Y-99504386D01*
X136992118Y-99400118D01*
X137217811Y-99174425D01*
X137444770Y-99514093D01*
X137827914Y-99770102D01*
X138279863Y-99860000D01*
X138326137Y-99860000D01*
X138778086Y-99770102D01*
X139161230Y-99514093D01*
X139417239Y-99130949D01*
X139507137Y-98679000D01*
X139417239Y-98227051D01*
X139161230Y-97843907D01*
X138778086Y-97587898D01*
X138326137Y-97498000D01*
X138279863Y-97498000D01*
X137827914Y-97587898D01*
X137444770Y-97843907D01*
X137208172Y-98198000D01*
X137033000Y-98198000D01*
X136865585Y-98231301D01*
X136848929Y-98234614D01*
X136692881Y-98338882D01*
X136452764Y-98579000D01*
X136212785Y-98579000D01*
X136242961Y-98558837D01*
X136433938Y-98273020D01*
X136501000Y-97935876D01*
X136501000Y-96983724D01*
X136433938Y-96646580D01*
X136289892Y-96431000D01*
X161569000Y-96431000D01*
X161569000Y-121569000D01*
X128694982Y-121569000D01*
X128846987Y-121417259D01*
X128950882Y-121167054D01*
X128951118Y-120896135D01*
X128847661Y-120645748D01*
X128656259Y-120454013D01*
X128406054Y-120350118D01*
X128135135Y-120349882D01*
X127884748Y-120453339D01*
X127787919Y-120550000D01*
X123884987Y-120550000D01*
X124090787Y-120242000D01*
X128016000Y-120242000D01*
X128200071Y-120205386D01*
X128356118Y-120101118D01*
X128737118Y-119720119D01*
X128841386Y-119564071D01*
X128855108Y-119495086D01*
X128878000Y-119380000D01*
X128878000Y-117493237D01*
X128945881Y-117561118D01*
X129010397Y-117604226D01*
X129101929Y-117665386D01*
X129286000Y-117702000D01*
X131219601Y-117702000D01*
X131331975Y-117973966D01*
X131706065Y-118348709D01*
X132048978Y-118491099D01*
X131708034Y-118631975D01*
X131333291Y-119006065D01*
X131130231Y-119495086D01*
X131129769Y-120024591D01*
X131331975Y-120513966D01*
X131706065Y-120888709D01*
X132195086Y-121091769D01*
X132724591Y-121092231D01*
X133213966Y-120890025D01*
X133588709Y-120515935D01*
X133731099Y-120173022D01*
X133871975Y-120513966D01*
X134246065Y-120888709D01*
X134735086Y-121091769D01*
X135264591Y-121092231D01*
X135753966Y-120890025D01*
X136128709Y-120515935D01*
X136331769Y-120026914D01*
X136331883Y-119895865D01*
X136478882Y-119895865D01*
X136582339Y-120146252D01*
X136773741Y-120337987D01*
X137023946Y-120441882D01*
X137294865Y-120442118D01*
X137545252Y-120338661D01*
X137642081Y-120242000D01*
X138799213Y-120242000D01*
X139059435Y-120631448D01*
X139458800Y-120898296D01*
X139929883Y-120992000D01*
X139978117Y-120992000D01*
X140449200Y-120898296D01*
X140848565Y-120631448D01*
X141115413Y-120232083D01*
X141209117Y-119761000D01*
X141115413Y-119289917D01*
X140848565Y-118890552D01*
X140449200Y-118623704D01*
X139978117Y-118530000D01*
X139929883Y-118530000D01*
X139458800Y-118623704D01*
X139059435Y-118890552D01*
X138799213Y-119280000D01*
X137642079Y-119280000D01*
X137546259Y-119184013D01*
X137296054Y-119080118D01*
X137025135Y-119079882D01*
X136774748Y-119183339D01*
X136583013Y-119374741D01*
X136479118Y-119624946D01*
X136478882Y-119895865D01*
X136331883Y-119895865D01*
X136332231Y-119497409D01*
X136130025Y-119008034D01*
X135755935Y-118633291D01*
X135413022Y-118490901D01*
X135753966Y-118350025D01*
X136128709Y-117975935D01*
X136193208Y-117820604D01*
X136388946Y-117901882D01*
X136659865Y-117902118D01*
X136910252Y-117798661D01*
X137101987Y-117607259D01*
X137205882Y-117357054D01*
X137206118Y-117086135D01*
X137102661Y-116835748D01*
X136911259Y-116644013D01*
X136661054Y-116540118D01*
X136390135Y-116539882D01*
X136193314Y-116621206D01*
X136130025Y-116468034D01*
X135755935Y-116093291D01*
X135413022Y-115950901D01*
X135753966Y-115810025D01*
X136128709Y-115435935D01*
X136242457Y-115162000D01*
X136677921Y-115162000D01*
X136773741Y-115257987D01*
X137023946Y-115361882D01*
X137294865Y-115362118D01*
X137314000Y-115354212D01*
X137314000Y-116967000D01*
X137350614Y-117151071D01*
X137454882Y-117307118D01*
X137708881Y-117561118D01*
X137773397Y-117604226D01*
X137864929Y-117665386D01*
X138049000Y-117702000D01*
X138799213Y-117702000D01*
X139059435Y-118091448D01*
X139458800Y-118358296D01*
X139929883Y-118452000D01*
X139978117Y-118452000D01*
X140449200Y-118358296D01*
X140743000Y-118161984D01*
X140743000Y-118491000D01*
X140779614Y-118675070D01*
X140779614Y-118675071D01*
X140883882Y-118831118D01*
X141336630Y-119283866D01*
X141332587Y-119289917D01*
X141238883Y-119761000D01*
X141332587Y-120232083D01*
X141599435Y-120631448D01*
X141998800Y-120898296D01*
X142469883Y-120992000D01*
X142518117Y-120992000D01*
X142989200Y-120898296D01*
X143388565Y-120631448D01*
X143655413Y-120232083D01*
X143749117Y-119761000D01*
X143655413Y-119289917D01*
X143388565Y-118890552D01*
X142989200Y-118623704D01*
X142518117Y-118530000D01*
X142469883Y-118530000D01*
X142030612Y-118617376D01*
X141705000Y-118291764D01*
X141705000Y-118161984D01*
X141998800Y-118358296D01*
X142469883Y-118452000D01*
X142518117Y-118452000D01*
X142957388Y-118364624D01*
X143042882Y-118450118D01*
X143198929Y-118554386D01*
X143383000Y-118591000D01*
X144794369Y-118591000D01*
X144815103Y-118701190D01*
X144898546Y-118830865D01*
X144946000Y-118863289D01*
X144946000Y-119387894D01*
X144906135Y-119413546D01*
X144819141Y-119540866D01*
X144788536Y-119692000D01*
X144788536Y-120592000D01*
X144815103Y-120733190D01*
X144898546Y-120862865D01*
X145025866Y-120949859D01*
X145177000Y-120980464D01*
X145677000Y-120980464D01*
X145818190Y-120953897D01*
X145947865Y-120870454D01*
X146034859Y-120743134D01*
X146065464Y-120592000D01*
X146065464Y-119692000D01*
X146038897Y-119550810D01*
X145955454Y-119421135D01*
X145908000Y-119388711D01*
X145908000Y-118864106D01*
X145947865Y-118838454D01*
X146034859Y-118711134D01*
X146065464Y-118560000D01*
X146065464Y-117660000D01*
X146288536Y-117660000D01*
X146288536Y-118560000D01*
X146315103Y-118701190D01*
X146398546Y-118830865D01*
X146525866Y-118917859D01*
X146677000Y-118948464D01*
X147177000Y-118948464D01*
X147318190Y-118921897D01*
X147447865Y-118838454D01*
X147534859Y-118711134D01*
X147559186Y-118591000D01*
X148468481Y-118591000D01*
X148475103Y-118626190D01*
X148558546Y-118755865D01*
X148623024Y-118799921D01*
X148544118Y-118989946D01*
X148543882Y-119260865D01*
X148622872Y-119452037D01*
X148566135Y-119488546D01*
X148479141Y-119615866D01*
X148470001Y-119661000D01*
X147559631Y-119661000D01*
X147538897Y-119550810D01*
X147455454Y-119421135D01*
X147328134Y-119334141D01*
X147177000Y-119303536D01*
X146677000Y-119303536D01*
X146535810Y-119330103D01*
X146406135Y-119413546D01*
X146319141Y-119540866D01*
X146288536Y-119692000D01*
X146288536Y-120592000D01*
X146315103Y-120733190D01*
X146398546Y-120862865D01*
X146525866Y-120949859D01*
X146677000Y-120980464D01*
X147177000Y-120980464D01*
X147318190Y-120953897D01*
X147447865Y-120870454D01*
X147534859Y-120743134D01*
X147559186Y-120623000D01*
X148468481Y-120623000D01*
X148475103Y-120658190D01*
X148558546Y-120787865D01*
X148685866Y-120874859D01*
X148837000Y-120905464D01*
X149637000Y-120905464D01*
X149778190Y-120878897D01*
X149907865Y-120795454D01*
X149987980Y-120678202D01*
X150058546Y-120787865D01*
X150185866Y-120874859D01*
X150337000Y-120905464D01*
X151137000Y-120905464D01*
X151278190Y-120878897D01*
X151407865Y-120795454D01*
X151494859Y-120668134D01*
X151525464Y-120517000D01*
X151525464Y-119767000D01*
X151498897Y-119625810D01*
X151415454Y-119496135D01*
X151288134Y-119409141D01*
X151218000Y-119394939D01*
X151218000Y-118858223D01*
X151278190Y-118846897D01*
X151407865Y-118763454D01*
X151442128Y-118713308D01*
X151628946Y-118790882D01*
X151899865Y-118791118D01*
X152150252Y-118687661D01*
X152341987Y-118496259D01*
X152385148Y-118392316D01*
X156018657Y-118392316D01*
X156319611Y-119120680D01*
X156876389Y-119678431D01*
X157604226Y-119980655D01*
X158392316Y-119981343D01*
X159120680Y-119680389D01*
X159678431Y-119123611D01*
X159980655Y-118395774D01*
X159981343Y-117607684D01*
X159680389Y-116879320D01*
X159123611Y-116321569D01*
X158395774Y-116019345D01*
X157607684Y-116018657D01*
X156879320Y-116319611D01*
X156321569Y-116876389D01*
X156019345Y-117604226D01*
X156018657Y-118392316D01*
X152385148Y-118392316D01*
X152445882Y-118246054D01*
X152446118Y-117975135D01*
X152342661Y-117724748D01*
X152151259Y-117533013D01*
X151901054Y-117429118D01*
X151630135Y-117428882D01*
X151442624Y-117506359D01*
X151415454Y-117464135D01*
X151288134Y-117377141D01*
X151137000Y-117346536D01*
X150443501Y-117346536D01*
X150563987Y-117226259D01*
X150667882Y-116976054D01*
X150667935Y-116915401D01*
X150688000Y-116919464D01*
X152588000Y-116919464D01*
X152729190Y-116892897D01*
X152858865Y-116809454D01*
X152945859Y-116682134D01*
X152976464Y-116531000D01*
X152976464Y-115431000D01*
X152949897Y-115289810D01*
X152866454Y-115160135D01*
X152739134Y-115073141D01*
X152588000Y-115042536D01*
X150688000Y-115042536D01*
X150546810Y-115069103D01*
X150476824Y-115114138D01*
X150558386Y-114992071D01*
X150562151Y-114973141D01*
X150595000Y-114808000D01*
X150595000Y-114400631D01*
X150688000Y-114419464D01*
X152588000Y-114419464D01*
X152729190Y-114392897D01*
X152858865Y-114309454D01*
X152945859Y-114182134D01*
X152976464Y-114031000D01*
X152976464Y-112931000D01*
X152949897Y-112789810D01*
X152866454Y-112660135D01*
X152739134Y-112573141D01*
X152588000Y-112542536D01*
X150688000Y-112542536D01*
X150546810Y-112569103D01*
X150417135Y-112652546D01*
X150330141Y-112779866D01*
X150299536Y-112931000D01*
X150299536Y-113250000D01*
X149125280Y-113250000D01*
X149067454Y-113160135D01*
X148940134Y-113073141D01*
X148789000Y-113042536D01*
X147689000Y-113042536D01*
X147547810Y-113069103D01*
X147418135Y-113152546D01*
X147331141Y-113279866D01*
X147300536Y-113431000D01*
X147300536Y-114031000D01*
X147327103Y-114172190D01*
X147348175Y-114204936D01*
X147331141Y-114229866D01*
X147300536Y-114381000D01*
X147300536Y-114981000D01*
X147327103Y-115122190D01*
X147348175Y-115154936D01*
X147331141Y-115179866D01*
X147300536Y-115331000D01*
X147300536Y-115931000D01*
X147327103Y-116072190D01*
X147410546Y-116201865D01*
X147537866Y-116288859D01*
X147689000Y-116319464D01*
X148756000Y-116319464D01*
X148756000Y-117361777D01*
X148695810Y-117373103D01*
X148566135Y-117456546D01*
X148479141Y-117583866D01*
X148470001Y-117629000D01*
X147559631Y-117629000D01*
X147538897Y-117518810D01*
X147455454Y-117389135D01*
X147328134Y-117302141D01*
X147177000Y-117271536D01*
X146677000Y-117271536D01*
X146535810Y-117298103D01*
X146406135Y-117381546D01*
X146319141Y-117508866D01*
X146288536Y-117660000D01*
X146065464Y-117660000D01*
X146038897Y-117518810D01*
X145955454Y-117389135D01*
X145828134Y-117302141D01*
X145677000Y-117271536D01*
X145177000Y-117271536D01*
X145035810Y-117298103D01*
X144906135Y-117381546D01*
X144819141Y-117508866D01*
X144794814Y-117629000D01*
X144372000Y-117629000D01*
X144372000Y-114966750D01*
X144454000Y-114966750D01*
X144454000Y-115107310D01*
X144550673Y-115340699D01*
X144700536Y-115490561D01*
X144700536Y-115931000D01*
X144727103Y-116072190D01*
X144810546Y-116201865D01*
X144937866Y-116288859D01*
X145089000Y-116319464D01*
X146189000Y-116319464D01*
X146330190Y-116292897D01*
X146459865Y-116209454D01*
X146546859Y-116082134D01*
X146577464Y-115931000D01*
X146577464Y-115490561D01*
X146727327Y-115340699D01*
X146824000Y-115107310D01*
X146824000Y-114966750D01*
X146665250Y-114808000D01*
X145766000Y-114808000D01*
X145766000Y-114828000D01*
X145512000Y-114828000D01*
X145512000Y-114808000D01*
X144612750Y-114808000D01*
X144454000Y-114966750D01*
X144372000Y-114966750D01*
X144372000Y-114626236D01*
X144528493Y-114469743D01*
X144612750Y-114554000D01*
X145512000Y-114554000D01*
X145512000Y-114534000D01*
X145766000Y-114534000D01*
X145766000Y-114554000D01*
X146665250Y-114554000D01*
X146824000Y-114395250D01*
X146824000Y-114254690D01*
X146727327Y-114021301D01*
X146577464Y-113871439D01*
X146577464Y-113431000D01*
X146550897Y-113289810D01*
X146467454Y-113160135D01*
X146340134Y-113073141D01*
X146189000Y-113042536D01*
X145089000Y-113042536D01*
X144947810Y-113069103D01*
X144818135Y-113152546D01*
X144751548Y-113250000D01*
X144587000Y-113250000D01*
X144402929Y-113286614D01*
X144340426Y-113328378D01*
X144246882Y-113390881D01*
X143965548Y-113672215D01*
X143882327Y-113471301D01*
X143703698Y-113292673D01*
X143470309Y-113196000D01*
X142779750Y-113196000D01*
X142621000Y-113354750D01*
X142621000Y-114554000D01*
X142641000Y-114554000D01*
X142641000Y-114808000D01*
X142621000Y-114808000D01*
X142621000Y-114828000D01*
X142367000Y-114828000D01*
X142367000Y-114808000D01*
X142347000Y-114808000D01*
X142347000Y-114554000D01*
X142367000Y-114554000D01*
X142367000Y-113354750D01*
X142208250Y-113196000D01*
X141517691Y-113196000D01*
X141284302Y-113292673D01*
X141105673Y-113471301D01*
X141009000Y-113704690D01*
X141009000Y-114050659D01*
X140848565Y-113810552D01*
X140449200Y-113543704D01*
X139978117Y-113450000D01*
X139929883Y-113450000D01*
X139458800Y-113543704D01*
X139059435Y-113810552D01*
X138792587Y-114209917D01*
X138698883Y-114681000D01*
X138792587Y-115152083D01*
X139005013Y-115470000D01*
X138756237Y-115470000D01*
X138676002Y-115389766D01*
X138676002Y-112448235D01*
X138770118Y-112354119D01*
X138874386Y-112198071D01*
X138883937Y-112150054D01*
X138911000Y-112014000D01*
X138911000Y-111252000D01*
X138874386Y-111067929D01*
X138770118Y-110911882D01*
X138363118Y-110504882D01*
X138286446Y-110453651D01*
X138328169Y-110412000D01*
X140599536Y-110412000D01*
X140599536Y-111412000D01*
X140626103Y-111553190D01*
X140709546Y-111682865D01*
X140836866Y-111769859D01*
X140988000Y-111800464D01*
X143788000Y-111800464D01*
X143929190Y-111773897D01*
X144058865Y-111690454D01*
X144145859Y-111563134D01*
X144176464Y-111412000D01*
X144176464Y-111197750D01*
X146153000Y-111197750D01*
X146153000Y-111538310D01*
X146249673Y-111771699D01*
X146428302Y-111950327D01*
X146661691Y-112047000D01*
X147902250Y-112047000D01*
X148061000Y-111888250D01*
X148061000Y-111039000D01*
X148315000Y-111039000D01*
X148315000Y-111888250D01*
X148473750Y-112047000D01*
X149714309Y-112047000D01*
X149947698Y-111950327D01*
X150126327Y-111771699D01*
X150223000Y-111538310D01*
X150223000Y-111197750D01*
X150064250Y-111039000D01*
X148315000Y-111039000D01*
X148061000Y-111039000D01*
X146311750Y-111039000D01*
X146153000Y-111197750D01*
X144176464Y-111197750D01*
X144176464Y-110412000D01*
X144152697Y-110285690D01*
X146153000Y-110285690D01*
X146153000Y-110626250D01*
X146311750Y-110785000D01*
X148061000Y-110785000D01*
X148061000Y-109935750D01*
X148315000Y-109935750D01*
X148315000Y-110785000D01*
X150064250Y-110785000D01*
X150223000Y-110626250D01*
X150223000Y-110285690D01*
X150126327Y-110052301D01*
X150074026Y-110000000D01*
X151011536Y-110000000D01*
X151011536Y-111200000D01*
X151038103Y-111341190D01*
X151121546Y-111470865D01*
X151248866Y-111557859D01*
X151400000Y-111588464D01*
X152600000Y-111588464D01*
X152741190Y-111561897D01*
X152870865Y-111478454D01*
X152957859Y-111351134D01*
X152988464Y-111200000D01*
X152988464Y-111081000D01*
X153511536Y-111081000D01*
X153511536Y-111200000D01*
X153538103Y-111341190D01*
X153621546Y-111470865D01*
X153748866Y-111557859D01*
X153900000Y-111588464D01*
X154019000Y-111588464D01*
X154019000Y-112517921D01*
X153923013Y-112613741D01*
X153819118Y-112863946D01*
X153818882Y-113134865D01*
X153922339Y-113385252D01*
X154113741Y-113576987D01*
X154363946Y-113680882D01*
X154634865Y-113681118D01*
X154885252Y-113577661D01*
X155076987Y-113386259D01*
X155180882Y-113136054D01*
X155181118Y-112865135D01*
X155077661Y-112614748D01*
X154981000Y-112517919D01*
X154981000Y-111588464D01*
X155100000Y-111588464D01*
X155241190Y-111561897D01*
X155370865Y-111478454D01*
X155457859Y-111351134D01*
X155488464Y-111200000D01*
X155488464Y-110000000D01*
X155461897Y-109858810D01*
X155378454Y-109729135D01*
X155251134Y-109642141D01*
X155100000Y-109611536D01*
X153900000Y-109611536D01*
X153758810Y-109638103D01*
X153629135Y-109721546D01*
X153542141Y-109848866D01*
X153511536Y-110000000D01*
X153511536Y-110119000D01*
X152988464Y-110119000D01*
X152988464Y-110000000D01*
X152961897Y-109858810D01*
X152878454Y-109729135D01*
X152751134Y-109642141D01*
X152600000Y-109611536D01*
X151400000Y-109611536D01*
X151258810Y-109638103D01*
X151129135Y-109721546D01*
X151042141Y-109848866D01*
X151011536Y-110000000D01*
X150074026Y-110000000D01*
X149947698Y-109873673D01*
X149714309Y-109777000D01*
X148473750Y-109777000D01*
X148315000Y-109935750D01*
X148061000Y-109935750D01*
X147902250Y-109777000D01*
X146661691Y-109777000D01*
X146428302Y-109873673D01*
X146249673Y-110052301D01*
X146153000Y-110285690D01*
X144152697Y-110285690D01*
X144149897Y-110270810D01*
X144066454Y-110141135D01*
X143939134Y-110054141D01*
X143788000Y-110023536D01*
X140988000Y-110023536D01*
X140846810Y-110050103D01*
X140717135Y-110133546D01*
X140630141Y-110260866D01*
X140599536Y-110412000D01*
X138328169Y-110412000D01*
X138371987Y-110368259D01*
X138475882Y-110118054D01*
X138476118Y-109847135D01*
X138372661Y-109596748D01*
X138181259Y-109405013D01*
X137931054Y-109301118D01*
X137794235Y-109300999D01*
X137698118Y-109204882D01*
X137542071Y-109100614D01*
X137451311Y-109082561D01*
X137376250Y-109007500D01*
X137117519Y-109007500D01*
X137051134Y-108962141D01*
X136900000Y-108931536D01*
X135550000Y-108931536D01*
X135408810Y-108958103D01*
X135332044Y-109007500D01*
X135073750Y-109007500D01*
X134915000Y-109166250D01*
X134915000Y-109246310D01*
X135011673Y-109479699D01*
X135161536Y-109629561D01*
X135161536Y-109714000D01*
X132394151Y-109714000D01*
X132339259Y-109659013D01*
X132089054Y-109555118D01*
X131818135Y-109554882D01*
X131567748Y-109658339D01*
X131538464Y-109687572D01*
X131538464Y-109629561D01*
X131688327Y-109479699D01*
X131785000Y-109246310D01*
X131785000Y-109166250D01*
X131626250Y-109007500D01*
X131367519Y-109007500D01*
X131301134Y-108962141D01*
X131150000Y-108931536D01*
X130328000Y-108931536D01*
X130328000Y-108858464D01*
X131150000Y-108858464D01*
X131291190Y-108831897D01*
X131367956Y-108782500D01*
X131626250Y-108782500D01*
X131785000Y-108623750D01*
X131785000Y-108543690D01*
X131688327Y-108310301D01*
X131538464Y-108160439D01*
X131538464Y-108020000D01*
X131518957Y-107916330D01*
X131538464Y-107820000D01*
X131538464Y-107370000D01*
X131518957Y-107266330D01*
X131538464Y-107170000D01*
X131538464Y-106720000D01*
X131518957Y-106616330D01*
X131538464Y-106520000D01*
X131538464Y-106145000D01*
X135161536Y-106145000D01*
X135161536Y-106520000D01*
X135181043Y-106623670D01*
X135161536Y-106720000D01*
X135161536Y-107170000D01*
X135181043Y-107273670D01*
X135161536Y-107370000D01*
X135161536Y-107820000D01*
X135181043Y-107923670D01*
X135161536Y-108020000D01*
X135161536Y-108160439D01*
X135011673Y-108310301D01*
X134915000Y-108543690D01*
X134915000Y-108623750D01*
X135073750Y-108782500D01*
X135332481Y-108782500D01*
X135398866Y-108827859D01*
X135550000Y-108858464D01*
X136900000Y-108858464D01*
X137041190Y-108831897D01*
X137117956Y-108782500D01*
X137376250Y-108782500D01*
X137432750Y-108726000D01*
X138389000Y-108726000D01*
X138573071Y-108689386D01*
X138729118Y-108585118D01*
X140334237Y-106980000D01*
X140469865Y-106980118D01*
X140599536Y-106926539D01*
X140599536Y-107412000D01*
X140626103Y-107553190D01*
X140709546Y-107682865D01*
X140836866Y-107769859D01*
X140988000Y-107800464D01*
X143788000Y-107800464D01*
X143929190Y-107773897D01*
X144058865Y-107690454D01*
X144145859Y-107563134D01*
X144176464Y-107412000D01*
X144176464Y-106412000D01*
X144149897Y-106270810D01*
X144066454Y-106141135D01*
X143939134Y-106054141D01*
X143788000Y-106023536D01*
X142179773Y-106023536D01*
X141804736Y-105648500D01*
X141966772Y-105486464D01*
X142375000Y-105486464D01*
X142516190Y-105459897D01*
X142645865Y-105376454D01*
X142732859Y-105249134D01*
X142763464Y-105098000D01*
X142763464Y-104198000D01*
X142736897Y-104056810D01*
X142653454Y-103927135D01*
X142526134Y-103840141D01*
X142375000Y-103809536D01*
X141875000Y-103809536D01*
X141733810Y-103836103D01*
X141604135Y-103919546D01*
X141517141Y-104046866D01*
X141486536Y-104198000D01*
X141486536Y-104606228D01*
X140909764Y-105183000D01*
X137198430Y-105183000D01*
X137205882Y-105165054D01*
X137206118Y-104894135D01*
X137102661Y-104643748D01*
X137029139Y-104570098D01*
X137232237Y-104367000D01*
X139065000Y-104367000D01*
X139249071Y-104330386D01*
X139405118Y-104226118D01*
X141568945Y-102062291D01*
X141568882Y-102134865D01*
X141672339Y-102385252D01*
X141863741Y-102576987D01*
X142113946Y-102680882D01*
X142250765Y-102681001D01*
X143159882Y-103590118D01*
X143315929Y-103694386D01*
X143500000Y-103731000D01*
X144550764Y-103731000D01*
X144786769Y-103967005D01*
X144645135Y-103966882D01*
X144394748Y-104070339D01*
X144297919Y-104167000D01*
X144257631Y-104167000D01*
X144236897Y-104056810D01*
X144153454Y-103927135D01*
X144026134Y-103840141D01*
X143875000Y-103809536D01*
X143375000Y-103809536D01*
X143233810Y-103836103D01*
X143104135Y-103919546D01*
X143017141Y-104046866D01*
X142986536Y-104198000D01*
X142986536Y-105098000D01*
X143013103Y-105239190D01*
X143096546Y-105368865D01*
X143223866Y-105455859D01*
X143375000Y-105486464D01*
X143875000Y-105486464D01*
X144016190Y-105459897D01*
X144145865Y-105376454D01*
X144232859Y-105249134D01*
X144257186Y-105129000D01*
X144297921Y-105129000D01*
X144393741Y-105224987D01*
X144643946Y-105328882D01*
X144914865Y-105329118D01*
X145165252Y-105225661D01*
X145356987Y-105034259D01*
X145460882Y-104784054D01*
X145461006Y-104641242D01*
X146843300Y-106023536D01*
X146788000Y-106023536D01*
X146646810Y-106050103D01*
X146517135Y-106133546D01*
X146430141Y-106260866D01*
X146399536Y-106412000D01*
X146399536Y-107412000D01*
X146426103Y-107553190D01*
X146509546Y-107682865D01*
X146636866Y-107769859D01*
X146788000Y-107800464D01*
X149588000Y-107800464D01*
X149590465Y-107800000D01*
X151011536Y-107800000D01*
X151011536Y-109000000D01*
X151038103Y-109141190D01*
X151121546Y-109270865D01*
X151248866Y-109357859D01*
X151400000Y-109388464D01*
X152600000Y-109388464D01*
X152741190Y-109361897D01*
X152870865Y-109278454D01*
X152957859Y-109151134D01*
X152988464Y-109000000D01*
X152988464Y-107800000D01*
X153511536Y-107800000D01*
X153511536Y-109000000D01*
X153538103Y-109141190D01*
X153621546Y-109270865D01*
X153748866Y-109357859D01*
X153900000Y-109388464D01*
X155100000Y-109388464D01*
X155241190Y-109361897D01*
X155370865Y-109278454D01*
X155457859Y-109151134D01*
X155488464Y-109000000D01*
X155488464Y-107800000D01*
X155461897Y-107658810D01*
X155378454Y-107529135D01*
X155251134Y-107442141D01*
X155100000Y-107411536D01*
X154981000Y-107411536D01*
X154981000Y-106882631D01*
X155091190Y-106861897D01*
X155220865Y-106778454D01*
X155307859Y-106651134D01*
X155338464Y-106500000D01*
X155338464Y-106000000D01*
X155311897Y-105858810D01*
X155228454Y-105729135D01*
X155101134Y-105642141D01*
X154950000Y-105611536D01*
X154050000Y-105611536D01*
X153908810Y-105638103D01*
X153779135Y-105721546D01*
X153692141Y-105848866D01*
X153661536Y-106000000D01*
X153661536Y-106500000D01*
X153688103Y-106641190D01*
X153771546Y-106770865D01*
X153898866Y-106857859D01*
X154019000Y-106882186D01*
X154019000Y-107411536D01*
X153900000Y-107411536D01*
X153758810Y-107438103D01*
X153629135Y-107521546D01*
X153542141Y-107648866D01*
X153511536Y-107800000D01*
X152988464Y-107800000D01*
X152961897Y-107658810D01*
X152878454Y-107529135D01*
X152751134Y-107442141D01*
X152600000Y-107411536D01*
X152481000Y-107411536D01*
X152481000Y-106949236D01*
X152541772Y-106888464D01*
X152950000Y-106888464D01*
X153091190Y-106861897D01*
X153220865Y-106778454D01*
X153307859Y-106651134D01*
X153338464Y-106500000D01*
X153338464Y-106000000D01*
X153311897Y-105858810D01*
X153228454Y-105729135D01*
X153101134Y-105642141D01*
X152950000Y-105611536D01*
X152050000Y-105611536D01*
X151908810Y-105638103D01*
X151779135Y-105721546D01*
X151692141Y-105848866D01*
X151661536Y-106000000D01*
X151661536Y-106408228D01*
X151659882Y-106409882D01*
X151555614Y-106565929D01*
X151519000Y-106750000D01*
X151519000Y-107411536D01*
X151400000Y-107411536D01*
X151258810Y-107438103D01*
X151129135Y-107521546D01*
X151042141Y-107648866D01*
X151011536Y-107800000D01*
X149590465Y-107800000D01*
X149729190Y-107773897D01*
X149858865Y-107690454D01*
X149945859Y-107563134D01*
X149976464Y-107412000D01*
X149976464Y-106412000D01*
X149949897Y-106270810D01*
X149924280Y-106231000D01*
X150250000Y-106231000D01*
X150434071Y-106194386D01*
X150454163Y-106180961D01*
X150634865Y-106181118D01*
X150885252Y-106077661D01*
X151076987Y-105886259D01*
X151180882Y-105636054D01*
X151181118Y-105365135D01*
X151077661Y-105114748D01*
X150886259Y-104923013D01*
X150636054Y-104819118D01*
X150365135Y-104818882D01*
X150114748Y-104922339D01*
X149923013Y-105113741D01*
X149858543Y-105269000D01*
X149682984Y-105269000D01*
X149778882Y-105038054D01*
X149779118Y-104767135D01*
X149675661Y-104516748D01*
X149591000Y-104431940D01*
X149591000Y-104380223D01*
X149651190Y-104368897D01*
X149668081Y-104358028D01*
X149671673Y-104366699D01*
X149850302Y-104545327D01*
X150083691Y-104642000D01*
X150324250Y-104642000D01*
X150483000Y-104483250D01*
X150483000Y-103759000D01*
X150737000Y-103759000D01*
X150737000Y-104483250D01*
X150895750Y-104642000D01*
X151136309Y-104642000D01*
X151369698Y-104545327D01*
X151548327Y-104366699D01*
X151645000Y-104133310D01*
X151645000Y-103917750D01*
X151486250Y-103759000D01*
X150737000Y-103759000D01*
X150483000Y-103759000D01*
X150463000Y-103759000D01*
X150463000Y-103505000D01*
X150483000Y-103505000D01*
X150483000Y-103485000D01*
X150737000Y-103485000D01*
X150737000Y-103505000D01*
X151486250Y-103505000D01*
X151645000Y-103346250D01*
X151645000Y-103130690D01*
X151600285Y-103022740D01*
X151648327Y-102974698D01*
X151745000Y-102741309D01*
X151745000Y-102400750D01*
X151586250Y-102242000D01*
X150937000Y-102242000D01*
X150937000Y-102262000D01*
X150683000Y-102262000D01*
X150683000Y-102242000D01*
X150033750Y-102242000D01*
X149875000Y-102400750D01*
X149875000Y-102708443D01*
X149850302Y-102718673D01*
X149671673Y-102897301D01*
X149668754Y-102904348D01*
X149661134Y-102899141D01*
X149510000Y-102868536D01*
X149497891Y-102868536D01*
X149567859Y-102766134D01*
X149598464Y-102615000D01*
X149598464Y-101615000D01*
X149574698Y-101488691D01*
X149875000Y-101488691D01*
X149875000Y-101829250D01*
X150033750Y-101988000D01*
X150683000Y-101988000D01*
X150683000Y-101138750D01*
X150937000Y-101138750D01*
X150937000Y-101988000D01*
X151586250Y-101988000D01*
X151745000Y-101829250D01*
X151745000Y-101488691D01*
X151648327Y-101255302D01*
X151469699Y-101076673D01*
X151236310Y-100980000D01*
X151095750Y-100980000D01*
X150937000Y-101138750D01*
X150683000Y-101138750D01*
X150524250Y-100980000D01*
X150383690Y-100980000D01*
X150150301Y-101076673D01*
X149971673Y-101255302D01*
X149875000Y-101488691D01*
X149574698Y-101488691D01*
X149571897Y-101473810D01*
X149488454Y-101344135D01*
X149361134Y-101257141D01*
X149210000Y-101226536D01*
X148610000Y-101226536D01*
X148468810Y-101253103D01*
X148339135Y-101336546D01*
X148252141Y-101463866D01*
X148221536Y-101615000D01*
X148221536Y-102615000D01*
X148248103Y-102756190D01*
X148331546Y-102885865D01*
X148429000Y-102952452D01*
X148429000Y-102993379D01*
X148352141Y-103105866D01*
X148321536Y-103257000D01*
X148321536Y-104007000D01*
X148348103Y-104148190D01*
X148431546Y-104277865D01*
X148558866Y-104364859D01*
X148629000Y-104379061D01*
X148629000Y-104407942D01*
X148521013Y-104515741D01*
X148417118Y-104765946D01*
X148416882Y-105036865D01*
X148512797Y-105269000D01*
X147449236Y-105269000D01*
X145241248Y-103061012D01*
X145447914Y-103199102D01*
X145899863Y-103289000D01*
X145946137Y-103289000D01*
X146398086Y-103199102D01*
X146781230Y-102943093D01*
X147037239Y-102559949D01*
X147127137Y-102108000D01*
X147037239Y-101656051D01*
X146781230Y-101272907D01*
X146398086Y-101016898D01*
X145946137Y-100927000D01*
X145899863Y-100927000D01*
X145447914Y-101016898D01*
X145064770Y-101272907D01*
X144828172Y-101627000D01*
X144754079Y-101627000D01*
X144658259Y-101531013D01*
X144408054Y-101427118D01*
X144137135Y-101426882D01*
X143886748Y-101530339D01*
X143695013Y-101721741D01*
X143591118Y-101971946D01*
X143590882Y-102242865D01*
X143694339Y-102493252D01*
X143885741Y-102684987D01*
X144088065Y-102769000D01*
X143699236Y-102769000D01*
X142931000Y-102000764D01*
X142931118Y-101865135D01*
X142827661Y-101614748D01*
X142636259Y-101423013D01*
X142386054Y-101319118D01*
X142312182Y-101319054D01*
X143674371Y-99956865D01*
X146892882Y-99956865D01*
X146996339Y-100207252D01*
X147187741Y-100398987D01*
X147437946Y-100502882D01*
X147708865Y-100503118D01*
X147959252Y-100399661D01*
X148063093Y-100296000D01*
X149171536Y-100296000D01*
X149171536Y-100315000D01*
X149198103Y-100456190D01*
X149281546Y-100585865D01*
X149408866Y-100672859D01*
X149560000Y-100703464D01*
X150160000Y-100703464D01*
X150301190Y-100676897D01*
X150430865Y-100593454D01*
X150517859Y-100466134D01*
X150548464Y-100315000D01*
X150548464Y-100296000D01*
X151615764Y-100296000D01*
X152019000Y-100699237D01*
X152019000Y-104117369D01*
X151908810Y-104138103D01*
X151779135Y-104221546D01*
X151692141Y-104348866D01*
X151661536Y-104500000D01*
X151661536Y-105000000D01*
X151688103Y-105141190D01*
X151771546Y-105270865D01*
X151898866Y-105357859D01*
X152050000Y-105388464D01*
X152950000Y-105388464D01*
X153091190Y-105361897D01*
X153220865Y-105278454D01*
X153307859Y-105151134D01*
X153338464Y-105000000D01*
X153338464Y-104500000D01*
X153661536Y-104500000D01*
X153661536Y-105000000D01*
X153688103Y-105141190D01*
X153771546Y-105270865D01*
X153898866Y-105357859D01*
X154050000Y-105388464D01*
X154950000Y-105388464D01*
X155091190Y-105361897D01*
X155220865Y-105278454D01*
X155307859Y-105151134D01*
X155338464Y-105000000D01*
X155338464Y-104500000D01*
X155334889Y-104481000D01*
X155800764Y-104481000D01*
X156269000Y-104949236D01*
X156269000Y-105017921D01*
X156173013Y-105113741D01*
X156069118Y-105363946D01*
X156068882Y-105634865D01*
X156172339Y-105885252D01*
X156363741Y-106076987D01*
X156613946Y-106180882D01*
X156884865Y-106181118D01*
X157135252Y-106077661D01*
X157326987Y-105886259D01*
X157430882Y-105636054D01*
X157431118Y-105365135D01*
X157327661Y-105114748D01*
X157231000Y-105017919D01*
X157231000Y-104750000D01*
X157194386Y-104565929D01*
X157090118Y-104409882D01*
X156340118Y-103659882D01*
X156184071Y-103555614D01*
X156000000Y-103519000D01*
X154750000Y-103519000D01*
X154565929Y-103555614D01*
X154409881Y-103659882D01*
X154159882Y-103909882D01*
X154055614Y-104065929D01*
X154046408Y-104112212D01*
X153908810Y-104138103D01*
X153779135Y-104221546D01*
X153692141Y-104348866D01*
X153661536Y-104500000D01*
X153338464Y-104500000D01*
X153311897Y-104358810D01*
X153228454Y-104229135D01*
X153101134Y-104142141D01*
X152981000Y-104117814D01*
X152981000Y-100500000D01*
X152959581Y-100392316D01*
X156018657Y-100392316D01*
X156319611Y-101120680D01*
X156876389Y-101678431D01*
X157604226Y-101980655D01*
X158392316Y-101981343D01*
X159120680Y-101680389D01*
X159678431Y-101123611D01*
X159980655Y-100395774D01*
X159981343Y-99607684D01*
X159680389Y-98879320D01*
X159123611Y-98321569D01*
X158395774Y-98019345D01*
X157607684Y-98018657D01*
X156879320Y-98319611D01*
X156321569Y-98876389D01*
X156019345Y-99604226D01*
X156018657Y-100392316D01*
X152959581Y-100392316D01*
X152944386Y-100315929D01*
X152871770Y-100207252D01*
X152840118Y-100159881D01*
X152155118Y-99474882D01*
X151999071Y-99370614D01*
X151815000Y-99334000D01*
X151806337Y-99334000D01*
X151810882Y-99323054D01*
X151811118Y-99052135D01*
X151707661Y-98801748D01*
X151516259Y-98610013D01*
X151266054Y-98506118D01*
X151197864Y-98506059D01*
X151240859Y-98443134D01*
X151271464Y-98292000D01*
X151271464Y-97542000D01*
X151244897Y-97400810D01*
X151161454Y-97271135D01*
X151034134Y-97184141D01*
X150883000Y-97153536D01*
X150083000Y-97153536D01*
X149941810Y-97180103D01*
X149812135Y-97263546D01*
X149732020Y-97380798D01*
X149661454Y-97271135D01*
X149534134Y-97184141D01*
X149383000Y-97153536D01*
X148583000Y-97153536D01*
X148441810Y-97180103D01*
X148312135Y-97263546D01*
X148225141Y-97390866D01*
X148194536Y-97542000D01*
X148194536Y-98025228D01*
X147233882Y-98985882D01*
X147129614Y-99141929D01*
X147093000Y-99326000D01*
X147093000Y-99339921D01*
X146997013Y-99435741D01*
X146893118Y-99685946D01*
X146892882Y-99956865D01*
X143674371Y-99956865D01*
X144471236Y-99160000D01*
X144843901Y-99160000D01*
X144921213Y-99347109D01*
X145253144Y-99679619D01*
X145687054Y-99859794D01*
X146156885Y-99860204D01*
X146591109Y-99680787D01*
X146923619Y-99348856D01*
X147103794Y-98914946D01*
X147104204Y-98445115D01*
X146924787Y-98010891D01*
X146592856Y-97678381D01*
X146158946Y-97498206D01*
X145689115Y-97497796D01*
X145254891Y-97677213D01*
X144922381Y-98009144D01*
X144843961Y-98198000D01*
X144272000Y-98198000D01*
X144104585Y-98231301D01*
X144087929Y-98234614D01*
X143931882Y-98338882D01*
X138865764Y-103405000D01*
X137033000Y-103405000D01*
X136848929Y-103441614D01*
X136692881Y-103545882D01*
X136184882Y-104053882D01*
X136080614Y-104209929D01*
X136044000Y-104394000D01*
X136044000Y-104546921D01*
X135948013Y-104642741D01*
X135844118Y-104892946D01*
X135843882Y-105163865D01*
X135851788Y-105183000D01*
X131064000Y-105183000D01*
X130879929Y-105219614D01*
X130862889Y-105231000D01*
X130723882Y-105323881D01*
X130366228Y-105681536D01*
X129800000Y-105681536D01*
X129658810Y-105708103D01*
X129529135Y-105791546D01*
X129513793Y-105814000D01*
X127605086Y-105814000D01*
X127513259Y-105722013D01*
X127263054Y-105618118D01*
X126992135Y-105617882D01*
X126973000Y-105625788D01*
X126973000Y-104140000D01*
X126936386Y-103955929D01*
X126832118Y-103799882D01*
X126764236Y-103732000D01*
X127914921Y-103732000D01*
X128010741Y-103827987D01*
X128260946Y-103931882D01*
X128531865Y-103932118D01*
X128782252Y-103828661D01*
X128973987Y-103637259D01*
X129077882Y-103387054D01*
X129078118Y-103116135D01*
X128974661Y-102865748D01*
X128783259Y-102674013D01*
X128533054Y-102570118D01*
X128262135Y-102569882D01*
X128011748Y-102673339D01*
X127914919Y-102770000D01*
X123884987Y-102770000D01*
X124090787Y-102462000D01*
X126136921Y-102462000D01*
X126232741Y-102557987D01*
X126482946Y-102661882D01*
X126753865Y-102662118D01*
X127004252Y-102558661D01*
X127195987Y-102367259D01*
X127299882Y-102117054D01*
X127300118Y-101846135D01*
X127196661Y-101595748D01*
X127005259Y-101404013D01*
X126755054Y-101300118D01*
X126484135Y-101299882D01*
X126233748Y-101403339D01*
X126136919Y-101500000D01*
X124090787Y-101500000D01*
X123830565Y-101110552D01*
X123431200Y-100843704D01*
X122960117Y-100750000D01*
X122911883Y-100750000D01*
X122440800Y-100843704D01*
X122041435Y-101110552D01*
X121774587Y-101509917D01*
X121680883Y-101981000D01*
X121774587Y-102452083D01*
X121987013Y-102770000D01*
X121865237Y-102770000D01*
X121553370Y-102458134D01*
X121557413Y-102452083D01*
X121651117Y-101981000D01*
X121557413Y-101509917D01*
X121290565Y-101110552D01*
X121014364Y-100926000D01*
X121372309Y-100926000D01*
X121605698Y-100829327D01*
X121784327Y-100650699D01*
X121881000Y-100417310D01*
X121881000Y-100071341D01*
X122041435Y-100311448D01*
X122440800Y-100578296D01*
X122911883Y-100672000D01*
X122960117Y-100672000D01*
X123431200Y-100578296D01*
X123830565Y-100311448D01*
X124097413Y-99912083D01*
X124191117Y-99441000D01*
X124097413Y-98969917D01*
X123830565Y-98570552D01*
X123431200Y-98303704D01*
X122960117Y-98210000D01*
X122911883Y-98210000D01*
X122440800Y-98303704D01*
X122041435Y-98570552D01*
X121881000Y-98810659D01*
X121881000Y-98464690D01*
X121784327Y-98231301D01*
X121605698Y-98052673D01*
X121372309Y-97956000D01*
X120681750Y-97956000D01*
X120523000Y-98114750D01*
X120523000Y-99314000D01*
X120543000Y-99314000D01*
X120543000Y-99568000D01*
X120523000Y-99568000D01*
X120523000Y-99588000D01*
X120269000Y-99588000D01*
X120269000Y-99568000D01*
X119069750Y-99568000D01*
X118911000Y-99726750D01*
X118911000Y-100417310D01*
X119007673Y-100650699D01*
X119186302Y-100829327D01*
X119419691Y-100926000D01*
X119777636Y-100926000D01*
X119501435Y-101110552D01*
X119234587Y-101509917D01*
X119140883Y-101981000D01*
X119234587Y-102452083D01*
X119501435Y-102851448D01*
X119900800Y-103118296D01*
X120371883Y-103212000D01*
X120420117Y-103212000D01*
X120859387Y-103124624D01*
X121325881Y-103591118D01*
X121427474Y-103659000D01*
X121481929Y-103695386D01*
X121666000Y-103732000D01*
X121987013Y-103732000D01*
X121774587Y-104049917D01*
X121680883Y-104521000D01*
X121774587Y-104992083D01*
X121987013Y-105310000D01*
X121865237Y-105310000D01*
X121553370Y-104998134D01*
X121557413Y-104992083D01*
X121651117Y-104521000D01*
X121557413Y-104049917D01*
X121290565Y-103650552D01*
X120891200Y-103383704D01*
X120420117Y-103290000D01*
X120371883Y-103290000D01*
X119900800Y-103383704D01*
X119501435Y-103650552D01*
X119234587Y-104049917D01*
X119140883Y-104521000D01*
X119234587Y-104992083D01*
X119501435Y-105391448D01*
X119900800Y-105658296D01*
X120371883Y-105752000D01*
X120420117Y-105752000D01*
X120859387Y-105664624D01*
X121325881Y-106131118D01*
X121427475Y-106199001D01*
X121481929Y-106235386D01*
X121666000Y-106272000D01*
X121987013Y-106272000D01*
X121774587Y-106589917D01*
X121680883Y-107061000D01*
X121774587Y-107532083D01*
X121987013Y-107850000D01*
X121738236Y-107850000D01*
X121502501Y-107614265D01*
X121557413Y-107532083D01*
X121651117Y-107061000D01*
X121557413Y-106589917D01*
X121290565Y-106190552D01*
X120891200Y-105923704D01*
X120420117Y-105830000D01*
X120371883Y-105830000D01*
X119900800Y-105923704D01*
X119501435Y-106190552D01*
X119234587Y-106589917D01*
X119140883Y-107061000D01*
X119234587Y-107532083D01*
X119501435Y-107931448D01*
X119900800Y-108198296D01*
X120371883Y-108292000D01*
X120420117Y-108292000D01*
X120753458Y-108225694D01*
X121193377Y-108665613D01*
X120891200Y-108463704D01*
X120420117Y-108370000D01*
X120371883Y-108370000D01*
X119900800Y-108463704D01*
X119501435Y-108730552D01*
X119234587Y-109129917D01*
X119140883Y-109601000D01*
X119234587Y-110072083D01*
X119501435Y-110471448D01*
X119900800Y-110738296D01*
X120371883Y-110832000D01*
X120420117Y-110832000D01*
X120859387Y-110744624D01*
X121325881Y-111211118D01*
X121475259Y-111310929D01*
X121481929Y-111315386D01*
X121666000Y-111352000D01*
X121987013Y-111352000D01*
X121774587Y-111669917D01*
X121680883Y-112141000D01*
X121774587Y-112612083D01*
X121987013Y-112930000D01*
X121865237Y-112930000D01*
X121553370Y-112618134D01*
X121557413Y-112612083D01*
X121651117Y-112141000D01*
X121557413Y-111669917D01*
X121290565Y-111270552D01*
X120891200Y-111003704D01*
X120420117Y-110910000D01*
X120371883Y-110910000D01*
X119900800Y-111003704D01*
X119501435Y-111270552D01*
X119234587Y-111669917D01*
X119140883Y-112141000D01*
X119234587Y-112612083D01*
X119501435Y-113011448D01*
X119900800Y-113278296D01*
X120371883Y-113372000D01*
X120420117Y-113372000D01*
X120859387Y-113284624D01*
X121325881Y-113751118D01*
X121427474Y-113819000D01*
X121481929Y-113855386D01*
X121666000Y-113892000D01*
X121987013Y-113892000D01*
X121774587Y-114209917D01*
X121680883Y-114681000D01*
X121774587Y-115152083D01*
X121987013Y-115470000D01*
X121865237Y-115470000D01*
X121553370Y-115158134D01*
X121557413Y-115152083D01*
X121651117Y-114681000D01*
X121557413Y-114209917D01*
X121290565Y-113810552D01*
X120891200Y-113543704D01*
X120420117Y-113450000D01*
X120371883Y-113450000D01*
X119900800Y-113543704D01*
X119501435Y-113810552D01*
X119234587Y-114209917D01*
X119140883Y-114681000D01*
X119234587Y-115152083D01*
X119501435Y-115551448D01*
X119900800Y-115818296D01*
X120371883Y-115912000D01*
X120420117Y-115912000D01*
X120859387Y-115824624D01*
X121325881Y-116291118D01*
X121481929Y-116395386D01*
X121666000Y-116432000D01*
X121987013Y-116432000D01*
X121774587Y-116749917D01*
X121680883Y-117221000D01*
X121774587Y-117692083D01*
X121987013Y-118010000D01*
X121865237Y-118010000D01*
X121553370Y-117698134D01*
X121557413Y-117692083D01*
X121651117Y-117221000D01*
X121557413Y-116749917D01*
X121290565Y-116350552D01*
X120891200Y-116083704D01*
X120420117Y-115990000D01*
X120371883Y-115990000D01*
X119900800Y-116083704D01*
X119501435Y-116350552D01*
X119234587Y-116749917D01*
X119140883Y-117221000D01*
X119234587Y-117692083D01*
X119501435Y-118091448D01*
X119900800Y-118358296D01*
X120371883Y-118452000D01*
X120420117Y-118452000D01*
X120859387Y-118364624D01*
X121325881Y-118831118D01*
X121427475Y-118899001D01*
X121481929Y-118935386D01*
X121666000Y-118972000D01*
X121987013Y-118972000D01*
X121774587Y-119289917D01*
X121680883Y-119761000D01*
X121774587Y-120232083D01*
X121987013Y-120550000D01*
X121865237Y-120550000D01*
X121553370Y-120238134D01*
X121557413Y-120232083D01*
X121651117Y-119761000D01*
X121557413Y-119289917D01*
X121290565Y-118890552D01*
X120891200Y-118623704D01*
X120420117Y-118530000D01*
X120371883Y-118530000D01*
X119900800Y-118623704D01*
X119501435Y-118890552D01*
X119234587Y-119289917D01*
X119140883Y-119761000D01*
X119234587Y-120232083D01*
X119501435Y-120631448D01*
X119900800Y-120898296D01*
X120371883Y-120992000D01*
X120420117Y-120992000D01*
X120859387Y-120904624D01*
X121325881Y-121371118D01*
X121393429Y-121416252D01*
X121481929Y-121475386D01*
X121666000Y-121512000D01*
X127787921Y-121512000D01*
X127844822Y-121569000D01*
X110431000Y-121569000D01*
X110431000Y-118392316D01*
X112018657Y-118392316D01*
X112319611Y-119120680D01*
X112876389Y-119678431D01*
X113604226Y-119980655D01*
X114392316Y-119981343D01*
X115120680Y-119680389D01*
X115678431Y-119123611D01*
X115980655Y-118395774D01*
X115981343Y-117607684D01*
X115680389Y-116879320D01*
X115123611Y-116321569D01*
X114395774Y-116019345D01*
X113607684Y-116018657D01*
X112879320Y-116319611D01*
X112321569Y-116876389D01*
X112019345Y-117604226D01*
X112018657Y-118392316D01*
X110431000Y-118392316D01*
X110431000Y-100392316D01*
X112064657Y-100392316D01*
X112365611Y-101120680D01*
X112922389Y-101678431D01*
X113650226Y-101980655D01*
X114438316Y-101981343D01*
X115166680Y-101680389D01*
X115724431Y-101123611D01*
X116026655Y-100395774D01*
X116027343Y-99607684D01*
X115726389Y-98879320D01*
X115312483Y-98464690D01*
X118911000Y-98464690D01*
X118911000Y-99155250D01*
X119069750Y-99314000D01*
X120269000Y-99314000D01*
X120269000Y-98114750D01*
X120110250Y-97956000D01*
X119419691Y-97956000D01*
X119186302Y-98052673D01*
X119007673Y-98231301D01*
X118911000Y-98464690D01*
X115312483Y-98464690D01*
X115169611Y-98321569D01*
X114441774Y-98019345D01*
X113653684Y-98018657D01*
X112925320Y-98319611D01*
X112367569Y-98876389D01*
X112065345Y-99604226D01*
X112064657Y-100392316D01*
X110431000Y-100392316D01*
X110431000Y-96431000D01*
X126600108Y-96431000D01*
X126456062Y-96646580D01*
G36*
X133812118Y-112512946D02*
X133811882Y-112783865D01*
X133915339Y-113034252D01*
X134106741Y-113225987D01*
X134356946Y-113329882D01*
X134627865Y-113330118D01*
X134878252Y-113226661D01*
X135000234Y-113104890D01*
X135058071Y-113093386D01*
X135214118Y-112989118D01*
X135462493Y-112740744D01*
X135550000Y-112758464D01*
X136835228Y-112758464D01*
X137314000Y-113237236D01*
X137314000Y-114007570D01*
X137296054Y-114000118D01*
X137025135Y-113999882D01*
X136774748Y-114103339D01*
X136677919Y-114200000D01*
X136242399Y-114200000D01*
X136130025Y-113928034D01*
X135755935Y-113553291D01*
X135266914Y-113350231D01*
X134737409Y-113349769D01*
X134248034Y-113551975D01*
X134046000Y-113753657D01*
X134046000Y-113604691D01*
X133949327Y-113371302D01*
X133770699Y-113192673D01*
X133537310Y-113096000D01*
X132746750Y-113096000D01*
X132588000Y-113254750D01*
X132588000Y-114554000D01*
X132608000Y-114554000D01*
X132608000Y-114808000D01*
X132588000Y-114808000D01*
X132588000Y-114828000D01*
X132334000Y-114828000D01*
X132334000Y-114808000D01*
X131034750Y-114808000D01*
X130876000Y-114966750D01*
X130876000Y-115757309D01*
X130972673Y-115990698D01*
X131151301Y-116169327D01*
X131384690Y-116266000D01*
X131533705Y-116266000D01*
X131333291Y-116466065D01*
X131219543Y-116740000D01*
X129513000Y-116740000D01*
X129513000Y-113604691D01*
X130876000Y-113604691D01*
X130876000Y-114395250D01*
X131034750Y-114554000D01*
X132334000Y-114554000D01*
X132334000Y-113254750D01*
X132175250Y-113096000D01*
X131384690Y-113096000D01*
X131151301Y-113192673D01*
X130972673Y-113371302D01*
X130876000Y-113604691D01*
X129513000Y-113604691D01*
X129513000Y-113131079D01*
X129608987Y-113035259D01*
X129712882Y-112785054D01*
X129712921Y-112740830D01*
X129800000Y-112758464D01*
X131150000Y-112758464D01*
X131291190Y-112731897D01*
X131420865Y-112648454D01*
X131427555Y-112638662D01*
X131562946Y-112694882D01*
X131833865Y-112695118D01*
X132084252Y-112591661D01*
X132181081Y-112495000D01*
X133819570Y-112495000D01*
X133812118Y-112512946D01*
X133812118Y-112512946D01*
G37*
X133812118Y-112512946D02*
X133811882Y-112783865D01*
X133915339Y-113034252D01*
X134106741Y-113225987D01*
X134356946Y-113329882D01*
X134627865Y-113330118D01*
X134878252Y-113226661D01*
X135000234Y-113104890D01*
X135058071Y-113093386D01*
X135214118Y-112989118D01*
X135462493Y-112740744D01*
X135550000Y-112758464D01*
X136835228Y-112758464D01*
X137314000Y-113237236D01*
X137314000Y-114007570D01*
X137296054Y-114000118D01*
X137025135Y-113999882D01*
X136774748Y-114103339D01*
X136677919Y-114200000D01*
X136242399Y-114200000D01*
X136130025Y-113928034D01*
X135755935Y-113553291D01*
X135266914Y-113350231D01*
X134737409Y-113349769D01*
X134248034Y-113551975D01*
X134046000Y-113753657D01*
X134046000Y-113604691D01*
X133949327Y-113371302D01*
X133770699Y-113192673D01*
X133537310Y-113096000D01*
X132746750Y-113096000D01*
X132588000Y-113254750D01*
X132588000Y-114554000D01*
X132608000Y-114554000D01*
X132608000Y-114808000D01*
X132588000Y-114808000D01*
X132588000Y-114828000D01*
X132334000Y-114828000D01*
X132334000Y-114808000D01*
X131034750Y-114808000D01*
X130876000Y-114966750D01*
X130876000Y-115757309D01*
X130972673Y-115990698D01*
X131151301Y-116169327D01*
X131384690Y-116266000D01*
X131533705Y-116266000D01*
X131333291Y-116466065D01*
X131219543Y-116740000D01*
X129513000Y-116740000D01*
X129513000Y-113604691D01*
X130876000Y-113604691D01*
X130876000Y-114395250D01*
X131034750Y-114554000D01*
X132334000Y-114554000D01*
X132334000Y-113254750D01*
X132175250Y-113096000D01*
X131384690Y-113096000D01*
X131151301Y-113192673D01*
X130972673Y-113371302D01*
X130876000Y-113604691D01*
X129513000Y-113604691D01*
X129513000Y-113131079D01*
X129608987Y-113035259D01*
X129712882Y-112785054D01*
X129712921Y-112740830D01*
X129800000Y-112758464D01*
X131150000Y-112758464D01*
X131291190Y-112731897D01*
X131420865Y-112648454D01*
X131427555Y-112638662D01*
X131562946Y-112694882D01*
X131833865Y-112695118D01*
X132084252Y-112591661D01*
X132181081Y-112495000D01*
X133819570Y-112495000D01*
X133812118Y-112512946D01*
M02*
