M48
INCH,TZ
T1C0.016
T2C0.024
T3C0.026
T4C0.031
T5C0.039
%
G90
G05
T1
X49250Y-42150
X49350Y-43150
X49550Y-41200
X49550Y-44150
X49850Y-40150
X50050Y-41850
X50050Y-43600
X50050Y-45650
X50300Y-42100
X50300Y-43850
X50300Y-46650
X50500Y-47650
X50550Y-40650
X50550Y-44100
X50600Y-42350
X50800Y-42600
X50800Y-44350
X51250Y-40250
X51400Y-45400
X51400Y-47100
X51850Y-44100
X51950Y-43400
X52300Y-40200
X52450Y-43850
X52950Y-44350
X53750Y-41350
X53750Y-46150
X54000Y-45150
X54000Y-47150
X54200Y-41850
X54250Y-43300
X54250Y-43900
X54550Y-41850
X54900Y-41850
X55250Y-41850
X56004Y-40157
X56800Y-40200
X57000Y-41200
X58100Y-39300
X58700Y-41300
X58750Y-46900
X58800Y-45150
X59050Y-46000
X59252Y-41535
X59500Y-39050
X59750Y-46500
X60827Y-44488
X61713Y-41535
T4
X54450Y-38850
X54450Y-40200
X57450Y-38850
X57450Y-40200
T5
X47400Y-39150
X47400Y-40150
X47400Y-41150
X47400Y-42150
X47400Y-43150
X47400Y-44150
X47400Y-45150
X47400Y-46150
X47400Y-47150
X48400Y-39150
X48400Y-40150
X48400Y-41150
X48400Y-42150
X48400Y-43150
X48400Y-44150
X48400Y-45150
X48400Y-46150
X48400Y-47150
X52150Y-45150
X52150Y-46150
X52150Y-47150
X53150Y-45150
X53150Y-46150
X53150Y-47150
X55100Y-45150
X55100Y-46150
X55100Y-47150
X56100Y-45150
X56100Y-46150
X56100Y-47150
T2
X50106Y-38508G85X50106Y-38232
G05
X53394Y-38508G85X53394Y-38232
G05
T3
X50874Y-39590G85X50874Y-39512
G05
X52626Y-39590G85X52626Y-39512
G05
T0
M30
