  0
SECTION
  2
HEADER
  9
$ANGBASE
  50
0.0
  9
$ANGDIR
  70
  1
  9
$MEASUREMENT
  70
0
  0
ENDSEC
  0
SECTION
  2
TABLES
  0
TABLE
  2
LTYPE
  70
1
  0
LTYPE
  2
CONTINUOUS
  70
0
  3
Solid line
  72
65
  73
0
  40
0.0
  0
ENDTAB
  0
TABLE
  2
STYLE
  70
4
  0
STYLE
  2
KICAD
  70
0
  40
0
  41
1
  42
1
  50
0
  71
0
  3
isocp.shx
  0
STYLE
  2
KICADB
  70
0
  40
0
  41
1
  42
1
  50
0
  71
0
  3
isocp.shx
  0
STYLE
  2
KICADI
  70
0
  40
0
  41
1
  42
1
  50
15
  71
0
  3
isocp.shx
  0
STYLE
  2
KICADBI
  70
0
  40
0
  41
1
  42
1
  50
15
  71
0
  3
isocp.shx
  0
ENDTAB
  0
TABLE
  2
LAYER
  70
30
  0
LAYER
  2
BLACK
  70
0
  62
7
  6
CONTINUOUS
  0
LAYER
  2
GRAY1
  70
0
  62
251
  6
CONTINUOUS
  0
LAYER
  2
GRAY2
  70
0
  62
8
  6
CONTINUOUS
  0
LAYER
  2
GRAY3
  70
0
  62
9
  6
CONTINUOUS
  0
LAYER
  2
WHITE
  70
0
  62
7
  6
CONTINUOUS
  0
LAYER
  2
LYELLOW
  70
0
  62
51
  6
CONTINUOUS
  0
LAYER
  2
BLUE1
  70
0
  62
178
  6
CONTINUOUS
  0
LAYER
  2
GREEN1
  70
0
  62
98
  6
CONTINUOUS
  0
LAYER
  2
CYAN1
  70
0
  62
138
  6
CONTINUOUS
  0
LAYER
  2
RED1
  70
0
  62
18
  6
CONTINUOUS
  0
LAYER
  2
MAGENTA1
  70
0
  62
228
  6
CONTINUOUS
  0
LAYER
  2
BROWN1
  70
0
  62
58
  6
CONTINUOUS
  0
LAYER
  2
BLUE2
  70
0
  62
5
  6
CONTINUOUS
  0
LAYER
  2
GREEN2
  70
0
  62
3
  6
CONTINUOUS
  0
LAYER
  2
CYAN2
  70
0
  62
4
  6
CONTINUOUS
  0
LAYER
  2
RED2
  70
0
  62
1
  6
CONTINUOUS
  0
LAYER
  2
MAGENTA2
  70
0
  62
6
  6
CONTINUOUS
  0
LAYER
  2
BROWN2
  70
0
  62
54
  6
CONTINUOUS
  0
LAYER
  2
BLUE3
  70
0
  62
171
  6
CONTINUOUS
  0
LAYER
  2
GREEN3
  70
0
  62
91
  6
CONTINUOUS
  0
LAYER
  2
CYAN3
  70
0
  62
131
  6
CONTINUOUS
  0
LAYER
  2
RED3
  70
0
  62
11
  6
CONTINUOUS
  0
LAYER
  2
MAGENTA3
  70
0
  62
221
  6
CONTINUOUS
  0
LAYER
  2
YELLOW3
  70
0
  62
2
  6
CONTINUOUS
  0
LAYER
  2
BLUE4
  70
0
  62
5
  6
CONTINUOUS
  0
LAYER
  2
GREEN4
  70
0
  62
3
  6
CONTINUOUS
  0
LAYER
  2
CYAN4
  70
0
  62
4
  6
CONTINUOUS
  0
LAYER
  2
RED4
  70
0
  62
1
  6
CONTINUOUS
  0
LAYER
  2
MAGENTA4
  70
0
  62
6
  6
CONTINUOUS
  0
LAYER
  2
YELLOW4
  70
0
  62
2
  6
CONTINUOUS
  0
ENDTAB
  0
ENDSEC
  0
SECTION
  2
ENTITIES
0
LINE
8
Black
10
163.04
20
-129.89
11
162.54
21
-129.89
0
LINE
8
Black
10
162.54
20
-129.89
11
162.54
21
-128.99
0
LINE
8
Black
10
162.54
20
-128.99
11
163.04
21
-128.99
0
LINE
8
Black
10
163.04
20
-128.99
11
163.04
21
-129.89
0
LINE
8
Black
10
161.54
20
-129.89
11
161.04
21
-129.89
0
LINE
8
Black
10
161.04
20
-129.89
11
161.04
21
-128.99
0
LINE
8
Black
10
161.04
20
-128.99
11
161.54
21
-128.99
0
LINE
8
Black
10
161.54
20
-128.99
11
161.54
21
-129.89
0
LINE
8
Black
10
155.83
20
-129.83
11
155.33
21
-129.83
0
LINE
8
Black
10
155.33
20
-129.83
11
155.33
21
-128.93
0
LINE
8
Black
10
155.33
20
-128.93
11
155.83
21
-128.93
0
LINE
8
Black
10
155.83
20
-128.93
11
155.83
21
-129.83
0
LINE
8
Black
10
154.33
20
-129.83
11
153.83
21
-129.83
0
LINE
8
Black
10
153.83
20
-129.83
11
153.83
21
-128.93
0
LINE
8
Black
10
153.83
20
-128.93
11
154.33
21
-128.93
0
LINE
8
Black
10
154.33
20
-128.93
11
154.33
21
-129.83
0
LINE
8
Black
10
157.6
20
-126.256
11
156.229
21
-126.256
0
LINE
8
Black
10
156.229
20
-126.256
11
156.229
21
-125.925
0
LINE
8
Black
10
156.229
20
-125.925
11
157.6
21
-125.925
0
LINE
8
Black
10
157.6
20
-125.925
11
157.6
21
-126.256
0
LINE
8
Black
10
153.231
20
-126.256
11
151.86
21
-126.256
0
LINE
8
Black
10
151.86
20
-126.256
11
151.86
21
-125.925
0
LINE
8
Black
10
151.86
20
-125.925
11
153.231
21
-125.925
0
LINE
8
Black
10
153.231
20
-125.925
11
153.231
21
-126.256
0
LINE
8
Black
10
155.594
20
-126.052
11
153.866
21
-126.052
0
LINE
8
Black
10
153.866
20
-126.052
11
153.866
21
-124.147
0
LINE
8
Black
10
153.866
20
-124.147
11
155.594
21
-124.147
0
LINE
8
Black
10
155.594
20
-124.147
11
155.594
21
-126.052
0
LINE
8
Black
10
157.6
20
-125.773
11
156.229
21
-125.773
0
LINE
8
Black
10
156.229
20
-125.773
11
156.229
21
-125.443
0
LINE
8
Black
10
156.229
20
-125.443
11
157.6
21
-125.443
0
LINE
8
Black
10
157.6
20
-125.443
11
157.6
21
-125.773
0
LINE
8
Black
10
153.231
20
-125.773
11
151.86
21
-125.773
0
LINE
8
Black
10
151.86
20
-125.773
11
151.86
21
-125.443
0
LINE
8
Black
10
151.86
20
-125.443
11
153.231
21
-125.443
0
LINE
8
Black
10
153.231
20
-125.443
11
153.231
21
-125.773
0
LINE
8
Black
10
145
20
-125.735
11
144.4
21
-125.735
0
LINE
8
Black
10
144.4
20
-125.735
11
144.4
21
-124.335
0
LINE
8
Black
10
144.4
20
-124.335
11
145
21
-124.335
0
LINE
8
Black
10
145
20
-124.335
11
145
21
-125.735
0
LINE
8
Black
10
144.05
20
-125.735
11
143.45
21
-125.735
0
LINE
8
Black
10
143.45
20
-125.735
11
143.45
21
-124.335
0
LINE
8
Black
10
143.45
20
-124.335
11
144.05
21
-124.335
0
LINE
8
Black
10
144.05
20
-124.335
11
144.05
21
-125.735
0
LINE
8
Black
10
143.1
20
-125.735
11
142.5
21
-125.735
0
LINE
8
Black
10
142.5
20
-125.735
11
142.5
21
-124.335
0
LINE
8
Black
10
142.5
20
-124.335
11
143.1
21
-124.335
0
LINE
8
Black
10
143.1
20
-124.335
11
143.1
21
-125.735
0
LINE
8
Black
10
153.231
20
-125.265
11
151.86
21
-125.265
0
LINE
8
Black
10
151.86
20
-125.265
11
151.86
21
-124.935
0
LINE
8
Black
10
151.86
20
-124.935
11
153.231
21
-124.935
0
LINE
8
Black
10
153.231
20
-124.935
11
153.231
21
-125.265
0
LINE
8
Black
10
157.6
20
-125.265
11
156.229
21
-125.265
0
LINE
8
Black
10
156.229
20
-125.265
11
156.229
21
-124.935
0
LINE
8
Black
10
156.229
20
-124.935
11
157.6
21
-124.935
0
LINE
8
Black
10
157.6
20
-124.935
11
157.6
21
-125.265
0
LINE
8
Black
10
153.231
20
-124.757
11
151.86
21
-124.757
0
LINE
8
Black
10
151.86
20
-124.757
11
151.86
21
-124.427
0
LINE
8
Black
10
151.86
20
-124.427
11
153.231
21
-124.427
0
LINE
8
Black
10
153.231
20
-124.427
11
153.231
21
-124.757
0
LINE
8
Black
10
157.6
20
-124.757
11
156.229
21
-124.757
0
LINE
8
Black
10
156.229
20
-124.757
11
156.229
21
-124.427
0
LINE
8
Black
10
156.229
20
-124.427
11
157.6
21
-124.427
0
LINE
8
Black
10
157.6
20
-124.427
11
157.6
21
-124.757
0
LINE
8
Black
10
149.55
20
-124.67
11
148.65
21
-124.67
0
LINE
8
Black
10
148.65
20
-124.67
11
148.65
21
-124.17
0
LINE
8
Black
10
148.65
20
-124.17
11
149.55
21
-124.17
0
LINE
8
Black
10
149.55
20
-124.17
11
149.55
21
-124.67
0
LINE
8
Black
10
153.231
20
-124.274
11
151.86
21
-124.274
0
LINE
8
Black
10
151.86
20
-124.274
11
151.86
21
-123.944
0
LINE
8
Black
10
151.86
20
-123.944
11
153.231
21
-123.944
0
LINE
8
Black
10
153.231
20
-123.944
11
153.231
21
-124.274
0
LINE
8
Black
10
157.6
20
-124.274
11
156.229
21
-124.274
0
LINE
8
Black
10
156.229
20
-124.274
11
156.229
21
-123.944
0
LINE
8
Black
10
156.229
20
-123.944
11
157.6
21
-123.944
0
LINE
8
Black
10
157.6
20
-123.944
11
157.6
21
-124.274
0
LINE
8
Black
10
143.1
20
-123.405
11
142.5
21
-123.405
0
LINE
8
Black
10
142.5
20
-123.405
11
142.5
21
-122.005
0
LINE
8
Black
10
142.5
20
-122.005
11
143.1
21
-122.005
0
LINE
8
Black
10
143.1
20
-122.005
11
143.1
21
-123.405
0
LINE
8
Black
10
144.05
20
-123.405
11
143.45
21
-123.405
0
LINE
8
Black
10
143.45
20
-123.405
11
143.45
21
-122.005
0
LINE
8
Black
10
143.45
20
-122.005
11
144.05
21
-122.005
0
LINE
8
Black
10
144.05
20
-122.005
11
144.05
21
-123.405
0
LINE
8
Black
10
145
20
-123.405
11
144.4
21
-123.405
0
LINE
8
Black
10
144.4
20
-123.405
11
144.4
21
-122.005
0
LINE
8
Black
10
144.4
20
-122.005
11
145
21
-122.005
0
LINE
8
Black
10
145
20
-122.005
11
145
21
-123.405
0
LINE
8
Black
10
149.55
20
-123.17
11
148.65
21
-123.17
0
LINE
8
Black
10
148.65
20
-123.17
11
148.65
21
-122.67
0
LINE
8
Black
10
148.65
20
-122.67
11
149.55
21
-122.67
0
LINE
8
Black
10
149.55
20
-122.67
11
149.55
21
-123.17
0
LINE
8
Black
10
153.77
20
-121.13
11
152.87
21
-121.13
0
LINE
8
Black
10
152.87
20
-121.13
11
152.87
21
-120.63
0
LINE
8
Black
10
152.87
20
-120.63
11
153.77
21
-120.63
0
LINE
8
Black
10
153.77
20
-120.63
11
153.77
21
-121.13
0
LINE
8
Black
10
165.98
20
-120.65
11
165.08
21
-120.65
0
LINE
8
Black
10
165.08
20
-120.65
11
165.08
21
-120.15
0
LINE
8
Black
10
165.08
20
-120.15
11
165.98
21
-120.15
0
LINE
8
Black
10
165.98
20
-120.15
11
165.98
21
-120.65
0
LINE
8
Black
10
153.77
20
-119.63
11
152.87
21
-119.63
0
LINE
8
Black
10
152.87
20
-119.63
11
152.87
21
-119.13
0
LINE
8
Black
10
152.87
20
-119.13
11
153.77
21
-119.13
0
LINE
8
Black
10
153.77
20
-119.13
11
153.77
21
-119.63
0
LINE
8
Black
10
160.6
20
-119.61
11
159.7
21
-119.61
0
LINE
8
Black
10
159.7
20
-119.61
11
159.7
21
-119.11
0
LINE
8
Black
10
159.7
20
-119.11
11
160.6
21
-119.11
0
LINE
8
Black
10
160.6
20
-119.11
11
160.6
21
-119.61
0
LINE
8
Black
10
156.6
20
-119.17
11
155.7
21
-119.17
0
LINE
8
Black
10
155.7
20
-119.17
11
155.7
21
-118.67
0
LINE
8
Black
10
155.7
20
-118.67
11
156.6
21
-118.67
0
LINE
8
Black
10
156.6
20
-118.67
11
156.6
21
-119.17
0
LINE
8
Black
10
165.98
20
-119.15
11
165.08
21
-119.15
0
LINE
8
Black
10
165.08
20
-119.15
11
165.08
21
-118.65
0
LINE
8
Black
10
165.08
20
-118.65
11
165.98
21
-118.65
0
LINE
8
Black
10
165.98
20
-118.65
11
165.98
21
-119.15
0
LINE
8
Black
10
160.6
20
-118.11
11
159.7
21
-118.11
0
LINE
8
Black
10
159.7
20
-118.11
11
159.7
21
-117.61
0
LINE
8
Black
10
159.7
20
-117.61
11
160.6
21
-117.61
0
LINE
8
Black
10
160.6
20
-117.61
11
160.6
21
-118.11
0
LINE
8
Black
10
156.6
20
-117.67
11
155.7
21
-117.67
0
LINE
8
Black
10
155.7
20
-117.67
11
155.7
21
-117.17
0
LINE
8
Black
10
155.7
20
-117.17
11
156.6
21
-117.17
0
LINE
8
Black
10
156.6
20
-117.17
11
156.6
21
-117.67
  0
ENDSEC
  0
EOF
