<?xml version="1.0" standalone="no"?>
 <!DOCTYPE svg PUBLIC "-//W3C//DTD SVG 1.1//EN" 
 "http://www.w3.org/Graphics/SVG/1.1/DTD/svg11.dtd"> 
<svg xmlns="http://www.w3.org/2000/svg" version="1.1" 
    width="29.7002cm" height="21.0007cm" viewBox="0 0 116930 82680 ">
<title>SVG Picture created as light_board-F.Paste.svg date 2017/08/12 14:09:24 </title>
  <desc>Picture generated by PCBNEW </desc>
<g style="fill:#000000; fill-opacity:1;stroke:#000000; stroke-opacity:1;
stroke-linecap:round; stroke-linejoin:round; "
 transform="translate(0 0) scale(1 1)">
</g>
<g style="fill:#000000; fill-opacity:0.0; 
stroke:#000000; stroke-width:-0.000393701; stroke-opacity:1; 
stroke-linecap:round; stroke-linejoin:round;">
</g>
<g style="fill:#000000; fill-opacity:0.0; 
stroke:#000000; stroke-width:0; stroke-opacity:1; 
stroke-linecap:round; stroke-linejoin:round;">
</g>
<g style="fill:#000000; fill-opacity:1.0; 
stroke:#000000; stroke-width:0; stroke-opacity:1; 
stroke-linecap:round; stroke-linejoin:round;">
<polyline style="fill-rule:evenodd;"
points="56850,48033
57086,48033
57086,48584
56850,48584
56850,48033
" /> 
<polyline style="fill-rule:evenodd;"
points="56476,48033
56712,48033
56712,48584
56476,48584
56476,48033
" /> 
<polyline style="fill-rule:evenodd;"
points="56102,48033
56338,48033
56338,48584
56102,48584
56102,48033
" /> 
<polyline style="fill-rule:evenodd;"
points="56850,48950
57086,48950
57086,49501
56850,49501
56850,48950
" /> 
<polyline style="fill-rule:evenodd;"
points="56476,48950
56712,48950
56712,49501
56476,49501
56476,48950
" /> 
<polyline style="fill-rule:evenodd;"
points="56102,48950
56338,48950
56338,49501
56102,49501
56102,48950
" /> 
<polyline style="fill-rule:evenodd;"
points="62047,49576
62047,49706
61507,49706
61507,49576
62047,49576
" /> 
<polyline style="fill-rule:evenodd;"
points="62047,49386
62047,49516
61507,49516
61507,49386
62047,49386
" /> 
<polyline style="fill-rule:evenodd;"
points="62047,49186
62047,49316
61507,49316
61507,49186
62047,49186
" /> 
<polyline style="fill-rule:evenodd;"
points="62047,48986
62047,49116
61507,49116
61507,48986
62047,48986
" /> 
<polyline style="fill-rule:evenodd;"
points="62047,48796
62047,48926
61507,48926
61507,48796
62047,48796
" /> 
<polyline style="fill-rule:evenodd;"
points="60327,48796
60327,48926
59787,48926
59787,48796
60327,48796
" /> 
<polyline style="fill-rule:evenodd;"
points="60327,48986
60327,49116
59787,49116
59787,48986
60327,48986
" /> 
<polyline style="fill-rule:evenodd;"
points="60327,49186
60327,49316
59787,49316
59787,49186
60327,49186
" /> 
<polyline style="fill-rule:evenodd;"
points="60327,49386
60327,49516
59787,49516
59787,49386
60327,49386
" /> 
<polyline style="fill-rule:evenodd;"
points="60327,49576
60327,49706
59787,49706
59787,49576
60327,49576
" /> 
<polyline style="fill-rule:evenodd;"
points="61257,48876
61257,49626
60577,49626
60577,48876
61257,48876
" /> 
<polyline style="fill-rule:evenodd;"
points="65346,47500
64992,47500
64992,47303
65346,47303
65346,47500
" /> 
<polyline style="fill-rule:evenodd;"
points="65346,46909
64992,46909
64992,46712
65346,46712
65346,46909
" /> 
<polyline style="fill-rule:evenodd;"
points="63228,47090
62874,47090
62874,46893
63228,46893
63228,47090
" /> 
<polyline style="fill-rule:evenodd;"
points="63228,46500
62874,46500
62874,46303
63228,46303
63228,46500
" /> 
<polyline style="fill-rule:evenodd;"
points="60562,51114
60562,50759
60759,50759
60759,51114
60562,51114
" /> 
<polyline style="fill-rule:evenodd;"
points="61153,51114
61153,50759
61350,50759
61350,51114
61153,51114
" /> 
<polyline style="fill-rule:evenodd;"
points="60185,46901
60539,46901
60539,47098
60185,47098
60185,46901
" /> 
<polyline style="fill-rule:evenodd;"
points="60185,47492
60539,47492
60539,47688
60185,47688
60185,47492
" /> 
<polyline style="fill-rule:evenodd;"
points="61653,46917
61299,46917
61299,46720
61653,46720
61653,46917
" /> 
<polyline style="fill-rule:evenodd;"
points="61653,46326
61299,46326
61299,46129
61653,46129
61653,46326
" /> 
<polyline style="fill-rule:evenodd;"
points="63401,51137
63401,50783
63598,50783
63598,51137
63401,51137
" /> 
<polyline style="fill-rule:evenodd;"
points="63992,51137
63992,50783
64188,50783
64188,51137
63992,51137
" /> 
<polyline style="fill-rule:evenodd;"
points="58523,48295
58877,48295
58877,48492
58523,48492
58523,48295
" /> 
<polyline style="fill-rule:evenodd;"
points="58523,48885
58877,48885
58877,49082
58523,49082
58523,48885
" /> 
</g> 
</svg>
