G04 #@! TF.FileFunction,Copper,L2,Bot,Signal*
%FSLAX46Y46*%
G04 Gerber Fmt 4.6, Leading zero omitted, Abs format (unit mm)*
G04 Created by KiCad (PCBNEW 4.0.6) date 10/01/17 12:49:30*
%MOMM*%
%LPD*%
G01*
G04 APERTURE LIST*
%ADD10C,0.100000*%
%ADD11O,1.998980X1.998980*%
%ADD12R,1.998980X1.998980*%
%ADD13C,2.400000*%
%ADD14R,2.400000X2.400000*%
%ADD15R,2.000000X2.000000*%
%ADD16O,2.000000X2.000000*%
%ADD17C,0.600000*%
%ADD18C,0.200000*%
%ADD19C,2.000000*%
%ADD20C,0.254000*%
G04 APERTURE END LIST*
D10*
D11*
X183515000Y-97155000D03*
D12*
X186055000Y-97155000D03*
D13*
X180030000Y-121920000D03*
D14*
X176530000Y-121920000D03*
D13*
X190190000Y-121920000D03*
D14*
X186690000Y-121920000D03*
D15*
X167640000Y-96520000D03*
D16*
X172720000Y-96520000D03*
D17*
X187325000Y-112395000D03*
X187325000Y-107315000D03*
X186944000Y-116586000D03*
X192278000Y-96520000D03*
X176530000Y-94996000D03*
X182880000Y-114300000D03*
X180340000Y-101600000D03*
X170688000Y-108204000D03*
X178308000Y-108204000D03*
D18*
X187325000Y-107315000D02*
X187325000Y-112395000D01*
X182880000Y-110490000D02*
X182880000Y-114300000D01*
X180340000Y-107950000D02*
X182880000Y-110490000D01*
X180340000Y-101600000D02*
X180340000Y-107950000D01*
D19*
X178308000Y-108204000D02*
X170688000Y-108204000D01*
D20*
G36*
X194260000Y-129490000D02*
X163880000Y-129490000D01*
X163880000Y-120720000D01*
X174682560Y-120720000D01*
X174682560Y-123120000D01*
X174726838Y-123355317D01*
X174865910Y-123571441D01*
X175078110Y-123716431D01*
X175330000Y-123767440D01*
X177730000Y-123767440D01*
X177965317Y-123723162D01*
X178181441Y-123584090D01*
X178326431Y-123371890D01*
X178357761Y-123217175D01*
X178912430Y-123217175D01*
X179035565Y-123504788D01*
X179717734Y-123764707D01*
X180447443Y-123743786D01*
X181024435Y-123504788D01*
X181147570Y-123217175D01*
X180030000Y-122099605D01*
X178912430Y-123217175D01*
X178357761Y-123217175D01*
X178377440Y-123120000D01*
X178377440Y-122750819D01*
X178445212Y-122914435D01*
X178732825Y-123037570D01*
X179850395Y-121920000D01*
X180209605Y-121920000D01*
X181327175Y-123037570D01*
X181614788Y-122914435D01*
X181874707Y-122232266D01*
X181873947Y-122205750D01*
X184855000Y-122205750D01*
X184855000Y-123246310D01*
X184951673Y-123479699D01*
X185130302Y-123658327D01*
X185363691Y-123755000D01*
X186404250Y-123755000D01*
X186563000Y-123596250D01*
X186563000Y-122047000D01*
X185013750Y-122047000D01*
X184855000Y-122205750D01*
X181873947Y-122205750D01*
X181853786Y-121502557D01*
X181614788Y-120925565D01*
X181327175Y-120802430D01*
X180209605Y-121920000D01*
X179850395Y-121920000D01*
X178732825Y-120802430D01*
X178445212Y-120925565D01*
X178377440Y-121103436D01*
X178377440Y-120720000D01*
X178359156Y-120622825D01*
X178912430Y-120622825D01*
X180030000Y-121740395D01*
X181147570Y-120622825D01*
X181135097Y-120593690D01*
X184855000Y-120593690D01*
X184855000Y-121634250D01*
X185013750Y-121793000D01*
X186563000Y-121793000D01*
X186563000Y-120243750D01*
X186817000Y-120243750D01*
X186817000Y-121793000D01*
X186837000Y-121793000D01*
X186837000Y-122047000D01*
X186817000Y-122047000D01*
X186817000Y-123596250D01*
X186975750Y-123755000D01*
X188016309Y-123755000D01*
X188249698Y-123658327D01*
X188428327Y-123479699D01*
X188525000Y-123246310D01*
X188525000Y-122695605D01*
X188633455Y-122958086D01*
X189149199Y-123474730D01*
X189823395Y-123754681D01*
X190553403Y-123755318D01*
X191228086Y-123476545D01*
X191744730Y-122960801D01*
X192024681Y-122286605D01*
X192025318Y-121556597D01*
X191746545Y-120881914D01*
X191230801Y-120365270D01*
X190556605Y-120085319D01*
X189826597Y-120084682D01*
X189151914Y-120363455D01*
X188635270Y-120879199D01*
X188525000Y-121144758D01*
X188525000Y-120593690D01*
X188428327Y-120360301D01*
X188249698Y-120181673D01*
X188016309Y-120085000D01*
X186975750Y-120085000D01*
X186817000Y-120243750D01*
X186563000Y-120243750D01*
X186404250Y-120085000D01*
X185363691Y-120085000D01*
X185130302Y-120181673D01*
X184951673Y-120360301D01*
X184855000Y-120593690D01*
X181135097Y-120593690D01*
X181024435Y-120335212D01*
X180342266Y-120075293D01*
X179612557Y-120096214D01*
X179035565Y-120335212D01*
X178912430Y-120622825D01*
X178359156Y-120622825D01*
X178333162Y-120484683D01*
X178194090Y-120268559D01*
X177981890Y-120123569D01*
X177730000Y-120072560D01*
X175330000Y-120072560D01*
X175094683Y-120116838D01*
X174878559Y-120255910D01*
X174733569Y-120468110D01*
X174682560Y-120720000D01*
X163880000Y-120720000D01*
X163880000Y-108204000D01*
X169053000Y-108204000D01*
X169177457Y-108829687D01*
X169531880Y-109360120D01*
X170062313Y-109714543D01*
X170688000Y-109839000D01*
X178308000Y-109839000D01*
X178933687Y-109714543D01*
X179464120Y-109360120D01*
X179818543Y-108829687D01*
X179878553Y-108527999D01*
X182145000Y-110794447D01*
X182145000Y-113712581D01*
X182087808Y-113769673D01*
X181945162Y-114113201D01*
X181944838Y-114485167D01*
X182086883Y-114828943D01*
X182349673Y-115092192D01*
X182693201Y-115234838D01*
X183065167Y-115235162D01*
X183408943Y-115093117D01*
X183672192Y-114830327D01*
X183814838Y-114486799D01*
X183815162Y-114114833D01*
X183673117Y-113771057D01*
X183615000Y-113712838D01*
X183615000Y-110490000D01*
X183559051Y-110208728D01*
X183559051Y-110208727D01*
X183399723Y-109970276D01*
X181075000Y-107645554D01*
X181075000Y-107500167D01*
X186389838Y-107500167D01*
X186531883Y-107843943D01*
X186590000Y-107902162D01*
X186590000Y-111807581D01*
X186532808Y-111864673D01*
X186390162Y-112208201D01*
X186389838Y-112580167D01*
X186531883Y-112923943D01*
X186794673Y-113187192D01*
X187138201Y-113329838D01*
X187510167Y-113330162D01*
X187853943Y-113188117D01*
X188117192Y-112925327D01*
X188259838Y-112581799D01*
X188260162Y-112209833D01*
X188118117Y-111866057D01*
X188060000Y-111807838D01*
X188060000Y-107902419D01*
X188117192Y-107845327D01*
X188259838Y-107501799D01*
X188260162Y-107129833D01*
X188118117Y-106786057D01*
X187855327Y-106522808D01*
X187511799Y-106380162D01*
X187139833Y-106379838D01*
X186796057Y-106521883D01*
X186532808Y-106784673D01*
X186390162Y-107128201D01*
X186389838Y-107500167D01*
X181075000Y-107500167D01*
X181075000Y-102187419D01*
X181132192Y-102130327D01*
X181274838Y-101786799D01*
X181275162Y-101414833D01*
X181133117Y-101071057D01*
X180870327Y-100807808D01*
X180526799Y-100665162D01*
X180154833Y-100664838D01*
X179811057Y-100806883D01*
X179547808Y-101069673D01*
X179405162Y-101413201D01*
X179404838Y-101785167D01*
X179546883Y-102128943D01*
X179605000Y-102187162D01*
X179605000Y-107258722D01*
X179464120Y-107047880D01*
X178933687Y-106693457D01*
X178308000Y-106569000D01*
X170688000Y-106569000D01*
X170062313Y-106693457D01*
X169531880Y-107047880D01*
X169177457Y-107578313D01*
X169053000Y-108204000D01*
X163880000Y-108204000D01*
X163880000Y-95520000D01*
X165992560Y-95520000D01*
X165992560Y-97520000D01*
X166036838Y-97755317D01*
X166175910Y-97971441D01*
X166388110Y-98116431D01*
X166640000Y-98167440D01*
X168640000Y-98167440D01*
X168875317Y-98123162D01*
X169091441Y-97984090D01*
X169236431Y-97771890D01*
X169287440Y-97520000D01*
X169287440Y-96900434D01*
X171129876Y-96900434D01*
X171326598Y-97375385D01*
X171760006Y-97843505D01*
X172339565Y-98110133D01*
X172593000Y-97991319D01*
X172593000Y-96647000D01*
X172847000Y-96647000D01*
X172847000Y-97991319D01*
X173100435Y-98110133D01*
X173679994Y-97843505D01*
X174113402Y-97375385D01*
X174204684Y-97155000D01*
X181848488Y-97155000D01*
X181972906Y-97780492D01*
X182327219Y-98310759D01*
X182857486Y-98665072D01*
X183482978Y-98789490D01*
X183547022Y-98789490D01*
X184172514Y-98665072D01*
X184492077Y-98451547D01*
X184591420Y-98605931D01*
X184803620Y-98750921D01*
X185055510Y-98801930D01*
X187054490Y-98801930D01*
X187289807Y-98757652D01*
X187505931Y-98618580D01*
X187650921Y-98406380D01*
X187701930Y-98154490D01*
X187701930Y-96155510D01*
X187657652Y-95920193D01*
X187518580Y-95704069D01*
X187306380Y-95559079D01*
X187054490Y-95508070D01*
X186837678Y-95508070D01*
X187059009Y-95287125D01*
X187239794Y-94851745D01*
X187240206Y-94380323D01*
X187060180Y-93944628D01*
X186727125Y-93610991D01*
X186291745Y-93430206D01*
X185820323Y-93429794D01*
X185384628Y-93609820D01*
X185050991Y-93942875D01*
X184870206Y-94378255D01*
X184869794Y-94849677D01*
X185049820Y-95285372D01*
X185272130Y-95508070D01*
X185055510Y-95508070D01*
X184820193Y-95552348D01*
X184604069Y-95691420D01*
X184490610Y-95857473D01*
X184172514Y-95644928D01*
X184140763Y-95638612D01*
X184185372Y-95620180D01*
X184519009Y-95287125D01*
X184699794Y-94851745D01*
X184700206Y-94380323D01*
X184520180Y-93944628D01*
X184187125Y-93610991D01*
X183751745Y-93430206D01*
X183280323Y-93429794D01*
X182844628Y-93609820D01*
X182510991Y-93942875D01*
X182330206Y-94378255D01*
X182329794Y-94849677D01*
X182509820Y-95285372D01*
X182842875Y-95619009D01*
X182889811Y-95638498D01*
X182857486Y-95644928D01*
X182327219Y-95999241D01*
X181972906Y-96529508D01*
X181848488Y-97155000D01*
X174204684Y-97155000D01*
X174310124Y-96900434D01*
X174190777Y-96647000D01*
X172847000Y-96647000D01*
X172593000Y-96647000D01*
X171249223Y-96647000D01*
X171129876Y-96900434D01*
X169287440Y-96900434D01*
X169287440Y-96139566D01*
X171129876Y-96139566D01*
X171249223Y-96393000D01*
X172593000Y-96393000D01*
X172593000Y-95048681D01*
X172847000Y-95048681D01*
X172847000Y-96393000D01*
X174190777Y-96393000D01*
X174310124Y-96139566D01*
X174113402Y-95664615D01*
X173679994Y-95196495D01*
X173100435Y-94929867D01*
X172847000Y-95048681D01*
X172593000Y-95048681D01*
X172339565Y-94929867D01*
X171760006Y-95196495D01*
X171326598Y-95664615D01*
X171129876Y-96139566D01*
X169287440Y-96139566D01*
X169287440Y-95520000D01*
X169243162Y-95284683D01*
X169104090Y-95068559D01*
X168891890Y-94923569D01*
X168640000Y-94872560D01*
X166640000Y-94872560D01*
X166404683Y-94916838D01*
X166188559Y-95055910D01*
X166043569Y-95268110D01*
X165992560Y-95520000D01*
X163880000Y-95520000D01*
X163880000Y-92760000D01*
X194260000Y-92760000D01*
X194260000Y-129490000D01*
X194260000Y-129490000D01*
G37*
X194260000Y-129490000D02*
X163880000Y-129490000D01*
X163880000Y-120720000D01*
X174682560Y-120720000D01*
X174682560Y-123120000D01*
X174726838Y-123355317D01*
X174865910Y-123571441D01*
X175078110Y-123716431D01*
X175330000Y-123767440D01*
X177730000Y-123767440D01*
X177965317Y-123723162D01*
X178181441Y-123584090D01*
X178326431Y-123371890D01*
X178357761Y-123217175D01*
X178912430Y-123217175D01*
X179035565Y-123504788D01*
X179717734Y-123764707D01*
X180447443Y-123743786D01*
X181024435Y-123504788D01*
X181147570Y-123217175D01*
X180030000Y-122099605D01*
X178912430Y-123217175D01*
X178357761Y-123217175D01*
X178377440Y-123120000D01*
X178377440Y-122750819D01*
X178445212Y-122914435D01*
X178732825Y-123037570D01*
X179850395Y-121920000D01*
X180209605Y-121920000D01*
X181327175Y-123037570D01*
X181614788Y-122914435D01*
X181874707Y-122232266D01*
X181873947Y-122205750D01*
X184855000Y-122205750D01*
X184855000Y-123246310D01*
X184951673Y-123479699D01*
X185130302Y-123658327D01*
X185363691Y-123755000D01*
X186404250Y-123755000D01*
X186563000Y-123596250D01*
X186563000Y-122047000D01*
X185013750Y-122047000D01*
X184855000Y-122205750D01*
X181873947Y-122205750D01*
X181853786Y-121502557D01*
X181614788Y-120925565D01*
X181327175Y-120802430D01*
X180209605Y-121920000D01*
X179850395Y-121920000D01*
X178732825Y-120802430D01*
X178445212Y-120925565D01*
X178377440Y-121103436D01*
X178377440Y-120720000D01*
X178359156Y-120622825D01*
X178912430Y-120622825D01*
X180030000Y-121740395D01*
X181147570Y-120622825D01*
X181135097Y-120593690D01*
X184855000Y-120593690D01*
X184855000Y-121634250D01*
X185013750Y-121793000D01*
X186563000Y-121793000D01*
X186563000Y-120243750D01*
X186817000Y-120243750D01*
X186817000Y-121793000D01*
X186837000Y-121793000D01*
X186837000Y-122047000D01*
X186817000Y-122047000D01*
X186817000Y-123596250D01*
X186975750Y-123755000D01*
X188016309Y-123755000D01*
X188249698Y-123658327D01*
X188428327Y-123479699D01*
X188525000Y-123246310D01*
X188525000Y-122695605D01*
X188633455Y-122958086D01*
X189149199Y-123474730D01*
X189823395Y-123754681D01*
X190553403Y-123755318D01*
X191228086Y-123476545D01*
X191744730Y-122960801D01*
X192024681Y-122286605D01*
X192025318Y-121556597D01*
X191746545Y-120881914D01*
X191230801Y-120365270D01*
X190556605Y-120085319D01*
X189826597Y-120084682D01*
X189151914Y-120363455D01*
X188635270Y-120879199D01*
X188525000Y-121144758D01*
X188525000Y-120593690D01*
X188428327Y-120360301D01*
X188249698Y-120181673D01*
X188016309Y-120085000D01*
X186975750Y-120085000D01*
X186817000Y-120243750D01*
X186563000Y-120243750D01*
X186404250Y-120085000D01*
X185363691Y-120085000D01*
X185130302Y-120181673D01*
X184951673Y-120360301D01*
X184855000Y-120593690D01*
X181135097Y-120593690D01*
X181024435Y-120335212D01*
X180342266Y-120075293D01*
X179612557Y-120096214D01*
X179035565Y-120335212D01*
X178912430Y-120622825D01*
X178359156Y-120622825D01*
X178333162Y-120484683D01*
X178194090Y-120268559D01*
X177981890Y-120123569D01*
X177730000Y-120072560D01*
X175330000Y-120072560D01*
X175094683Y-120116838D01*
X174878559Y-120255910D01*
X174733569Y-120468110D01*
X174682560Y-120720000D01*
X163880000Y-120720000D01*
X163880000Y-108204000D01*
X169053000Y-108204000D01*
X169177457Y-108829687D01*
X169531880Y-109360120D01*
X170062313Y-109714543D01*
X170688000Y-109839000D01*
X178308000Y-109839000D01*
X178933687Y-109714543D01*
X179464120Y-109360120D01*
X179818543Y-108829687D01*
X179878553Y-108527999D01*
X182145000Y-110794447D01*
X182145000Y-113712581D01*
X182087808Y-113769673D01*
X181945162Y-114113201D01*
X181944838Y-114485167D01*
X182086883Y-114828943D01*
X182349673Y-115092192D01*
X182693201Y-115234838D01*
X183065167Y-115235162D01*
X183408943Y-115093117D01*
X183672192Y-114830327D01*
X183814838Y-114486799D01*
X183815162Y-114114833D01*
X183673117Y-113771057D01*
X183615000Y-113712838D01*
X183615000Y-110490000D01*
X183559051Y-110208728D01*
X183559051Y-110208727D01*
X183399723Y-109970276D01*
X181075000Y-107645554D01*
X181075000Y-107500167D01*
X186389838Y-107500167D01*
X186531883Y-107843943D01*
X186590000Y-107902162D01*
X186590000Y-111807581D01*
X186532808Y-111864673D01*
X186390162Y-112208201D01*
X186389838Y-112580167D01*
X186531883Y-112923943D01*
X186794673Y-113187192D01*
X187138201Y-113329838D01*
X187510167Y-113330162D01*
X187853943Y-113188117D01*
X188117192Y-112925327D01*
X188259838Y-112581799D01*
X188260162Y-112209833D01*
X188118117Y-111866057D01*
X188060000Y-111807838D01*
X188060000Y-107902419D01*
X188117192Y-107845327D01*
X188259838Y-107501799D01*
X188260162Y-107129833D01*
X188118117Y-106786057D01*
X187855327Y-106522808D01*
X187511799Y-106380162D01*
X187139833Y-106379838D01*
X186796057Y-106521883D01*
X186532808Y-106784673D01*
X186390162Y-107128201D01*
X186389838Y-107500167D01*
X181075000Y-107500167D01*
X181075000Y-102187419D01*
X181132192Y-102130327D01*
X181274838Y-101786799D01*
X181275162Y-101414833D01*
X181133117Y-101071057D01*
X180870327Y-100807808D01*
X180526799Y-100665162D01*
X180154833Y-100664838D01*
X179811057Y-100806883D01*
X179547808Y-101069673D01*
X179405162Y-101413201D01*
X179404838Y-101785167D01*
X179546883Y-102128943D01*
X179605000Y-102187162D01*
X179605000Y-107258722D01*
X179464120Y-107047880D01*
X178933687Y-106693457D01*
X178308000Y-106569000D01*
X170688000Y-106569000D01*
X170062313Y-106693457D01*
X169531880Y-107047880D01*
X169177457Y-107578313D01*
X169053000Y-108204000D01*
X163880000Y-108204000D01*
X163880000Y-95520000D01*
X165992560Y-95520000D01*
X165992560Y-97520000D01*
X166036838Y-97755317D01*
X166175910Y-97971441D01*
X166388110Y-98116431D01*
X166640000Y-98167440D01*
X168640000Y-98167440D01*
X168875317Y-98123162D01*
X169091441Y-97984090D01*
X169236431Y-97771890D01*
X169287440Y-97520000D01*
X169287440Y-96900434D01*
X171129876Y-96900434D01*
X171326598Y-97375385D01*
X171760006Y-97843505D01*
X172339565Y-98110133D01*
X172593000Y-97991319D01*
X172593000Y-96647000D01*
X172847000Y-96647000D01*
X172847000Y-97991319D01*
X173100435Y-98110133D01*
X173679994Y-97843505D01*
X174113402Y-97375385D01*
X174204684Y-97155000D01*
X181848488Y-97155000D01*
X181972906Y-97780492D01*
X182327219Y-98310759D01*
X182857486Y-98665072D01*
X183482978Y-98789490D01*
X183547022Y-98789490D01*
X184172514Y-98665072D01*
X184492077Y-98451547D01*
X184591420Y-98605931D01*
X184803620Y-98750921D01*
X185055510Y-98801930D01*
X187054490Y-98801930D01*
X187289807Y-98757652D01*
X187505931Y-98618580D01*
X187650921Y-98406380D01*
X187701930Y-98154490D01*
X187701930Y-96155510D01*
X187657652Y-95920193D01*
X187518580Y-95704069D01*
X187306380Y-95559079D01*
X187054490Y-95508070D01*
X186837678Y-95508070D01*
X187059009Y-95287125D01*
X187239794Y-94851745D01*
X187240206Y-94380323D01*
X187060180Y-93944628D01*
X186727125Y-93610991D01*
X186291745Y-93430206D01*
X185820323Y-93429794D01*
X185384628Y-93609820D01*
X185050991Y-93942875D01*
X184870206Y-94378255D01*
X184869794Y-94849677D01*
X185049820Y-95285372D01*
X185272130Y-95508070D01*
X185055510Y-95508070D01*
X184820193Y-95552348D01*
X184604069Y-95691420D01*
X184490610Y-95857473D01*
X184172514Y-95644928D01*
X184140763Y-95638612D01*
X184185372Y-95620180D01*
X184519009Y-95287125D01*
X184699794Y-94851745D01*
X184700206Y-94380323D01*
X184520180Y-93944628D01*
X184187125Y-93610991D01*
X183751745Y-93430206D01*
X183280323Y-93429794D01*
X182844628Y-93609820D01*
X182510991Y-93942875D01*
X182330206Y-94378255D01*
X182329794Y-94849677D01*
X182509820Y-95285372D01*
X182842875Y-95619009D01*
X182889811Y-95638498D01*
X182857486Y-95644928D01*
X182327219Y-95999241D01*
X181972906Y-96529508D01*
X181848488Y-97155000D01*
X174204684Y-97155000D01*
X174310124Y-96900434D01*
X174190777Y-96647000D01*
X172847000Y-96647000D01*
X172593000Y-96647000D01*
X171249223Y-96647000D01*
X171129876Y-96900434D01*
X169287440Y-96900434D01*
X169287440Y-96139566D01*
X171129876Y-96139566D01*
X171249223Y-96393000D01*
X172593000Y-96393000D01*
X172593000Y-95048681D01*
X172847000Y-95048681D01*
X172847000Y-96393000D01*
X174190777Y-96393000D01*
X174310124Y-96139566D01*
X174113402Y-95664615D01*
X173679994Y-95196495D01*
X173100435Y-94929867D01*
X172847000Y-95048681D01*
X172593000Y-95048681D01*
X172339565Y-94929867D01*
X171760006Y-95196495D01*
X171326598Y-95664615D01*
X171129876Y-96139566D01*
X169287440Y-96139566D01*
X169287440Y-95520000D01*
X169243162Y-95284683D01*
X169104090Y-95068559D01*
X168891890Y-94923569D01*
X168640000Y-94872560D01*
X166640000Y-94872560D01*
X166404683Y-94916838D01*
X166188559Y-95055910D01*
X166043569Y-95268110D01*
X165992560Y-95520000D01*
X163880000Y-95520000D01*
X163880000Y-92760000D01*
X194260000Y-92760000D01*
X194260000Y-129490000D01*
M02*
