G04 #@! TF.FileFunction,Copper,L1,Top,Signal*
%FSLAX46Y46*%
G04 Gerber Fmt 4.6, Leading zero omitted, Abs format (unit mm)*
G04 Created by KiCad (PCBNEW 4.0.6) date 09/28/17 14:45:34*
%MOMM*%
%LPD*%
G01*
G04 APERTURE LIST*
%ADD10C,0.100000*%
%ADD11R,0.750000X0.800000*%
%ADD12R,0.800000X0.800000*%
%ADD13O,1.998980X1.998980*%
%ADD14R,1.998980X1.998980*%
%ADD15C,2.400000*%
%ADD16R,2.400000X2.400000*%
%ADD17C,2.200000*%
%ADD18O,2.200000X2.200000*%
%ADD19R,1.400000X0.600000*%
%ADD20R,0.900000X0.500000*%
%ADD21R,1.371600X0.330200*%
%ADD22R,1.727200X1.905000*%
%ADD23R,2.000000X2.000000*%
%ADD24O,2.000000X2.000000*%
%ADD25C,0.600000*%
%ADD26C,0.200000*%
%ADD27C,0.250000*%
%ADD28C,0.254000*%
G04 APERTURE END LIST*
D10*
D11*
X175895000Y-119495000D03*
X175895000Y-117995000D03*
X165735000Y-117995000D03*
X165735000Y-119495000D03*
X165735000Y-113145000D03*
X165735000Y-111645000D03*
D12*
X182715000Y-104775000D03*
X184315000Y-104775000D03*
D13*
X184150000Y-111760000D03*
D14*
X184150000Y-114300000D03*
D15*
X159385000Y-108275000D03*
D16*
X159385000Y-104775000D03*
D15*
X159385000Y-118435000D03*
D16*
X159385000Y-114935000D03*
D17*
X180975000Y-97155000D03*
D18*
X155575000Y-97155000D03*
D19*
X170920000Y-103825000D03*
X170920000Y-104775000D03*
X170920000Y-105725000D03*
X173250000Y-103825000D03*
X173250000Y-104775000D03*
X173250000Y-105725000D03*
D20*
X177165000Y-104025000D03*
X177165000Y-105525000D03*
X165735000Y-104025000D03*
X165735000Y-105525000D03*
X170815000Y-119495000D03*
X170815000Y-117995000D03*
X184785000Y-117995000D03*
X184785000Y-119495000D03*
X180975000Y-117995000D03*
X180975000Y-119495000D03*
D21*
X175539400Y-113385600D03*
X175539400Y-112903000D03*
X175539400Y-112395000D03*
X175539400Y-111887000D03*
X175539400Y-111404400D03*
X171170600Y-111404400D03*
X171170600Y-111887000D03*
X171170600Y-112395000D03*
X171170600Y-112903000D03*
X171170600Y-113385600D03*
D22*
X173355000Y-112395000D03*
D23*
X184785000Y-95885000D03*
D24*
X184785000Y-100965000D03*
D25*
X168910000Y-115570000D03*
X173990000Y-115570000D03*
X167005000Y-112395000D03*
X178435000Y-109855000D03*
X167005000Y-111125000D03*
X179705000Y-108585000D03*
X168275000Y-109855000D03*
X173355000Y-107315000D03*
D26*
X172720000Y-119495000D02*
X172720000Y-115570000D01*
X172720000Y-115570000D02*
X171450000Y-114300000D01*
X171450000Y-114300000D02*
X171450000Y-113665000D01*
X171450000Y-113665000D02*
X171170600Y-113385600D01*
D27*
X165735000Y-119495000D02*
X160445000Y-119495000D01*
X160445000Y-119495000D02*
X159385000Y-118435000D01*
X165735000Y-119495000D02*
X170815000Y-119495000D01*
X180975000Y-119495000D02*
X175895000Y-119495000D01*
X175895000Y-119495000D02*
X172720000Y-119495000D01*
X172720000Y-119495000D02*
X172720000Y-119495000D01*
X172720000Y-119495000D02*
X170815000Y-119495000D01*
D26*
X175895000Y-117995000D02*
X175895000Y-116205000D01*
X169037000Y-112903000D02*
X171170600Y-112903000D01*
X168910000Y-113030000D02*
X169037000Y-112903000D01*
X168910000Y-115570000D02*
X168910000Y-113030000D01*
X175260000Y-115570000D02*
X173990000Y-115570000D01*
X175895000Y-116205000D02*
X175260000Y-115570000D01*
X184785000Y-100965000D02*
X184785000Y-104305000D01*
X184785000Y-104305000D02*
X184315000Y-104775000D01*
X175539400Y-111404400D02*
X178155600Y-111404400D01*
X166255000Y-113145000D02*
X165735000Y-113145000D01*
X167005000Y-112395000D02*
X166255000Y-113145000D01*
X178435000Y-111125000D02*
X178435000Y-109855000D01*
X178155600Y-111404400D02*
X178435000Y-111125000D01*
D27*
X165735000Y-113145000D02*
X165735000Y-117995000D01*
X184315000Y-104775000D02*
X184315000Y-106515000D01*
X178435000Y-107315000D02*
X173355000Y-112395000D01*
X183515000Y-107315000D02*
X178435000Y-107315000D01*
X184315000Y-106515000D02*
X183515000Y-107315000D01*
X184785000Y-119495000D02*
X186575000Y-119495000D01*
X187325000Y-107785000D02*
X184315000Y-104775000D01*
X187325000Y-118745000D02*
X187325000Y-107785000D01*
X186575000Y-119495000D02*
X187325000Y-118745000D01*
X165735000Y-113145000D02*
X161175000Y-113145000D01*
X161175000Y-113145000D02*
X159385000Y-114935000D01*
X159385000Y-108275000D02*
X159385000Y-114935000D01*
D26*
X175539400Y-111887000D02*
X178943000Y-111887000D01*
X166485000Y-111645000D02*
X165735000Y-111645000D01*
X167005000Y-111125000D02*
X166485000Y-111645000D01*
X179705000Y-111125000D02*
X179705000Y-108585000D01*
X178943000Y-111887000D02*
X179705000Y-111125000D01*
D27*
X165735000Y-105525000D02*
X165735000Y-111645000D01*
D26*
X184785000Y-95885000D02*
X182245000Y-95885000D01*
X182245000Y-95885000D02*
X180975000Y-97155000D01*
D27*
X180975000Y-97155000D02*
X179920000Y-97155000D01*
X179920000Y-97155000D02*
X173250000Y-103825000D01*
X173250000Y-103825000D02*
X173250000Y-104775000D01*
X173250000Y-104775000D02*
X170920000Y-104775000D01*
X170920000Y-104775000D02*
X170920000Y-103825000D01*
X182715000Y-104775000D02*
X177915000Y-104775000D01*
X177915000Y-104775000D02*
X177165000Y-105525000D01*
D26*
X175539400Y-112395000D02*
X180975000Y-112395000D01*
X181610000Y-111760000D02*
X184150000Y-111760000D01*
X180975000Y-112395000D02*
X181610000Y-111760000D01*
D27*
X175895000Y-112395000D02*
X175539400Y-112395000D01*
D26*
X184150000Y-114300000D02*
X179070000Y-114300000D01*
X177673000Y-112903000D02*
X175539400Y-112903000D01*
X179070000Y-114300000D02*
X177673000Y-112903000D01*
D27*
X165735000Y-104025000D02*
X160135000Y-104025000D01*
X160135000Y-104025000D02*
X159385000Y-104775000D01*
X159385000Y-104775000D02*
X159385000Y-100965000D01*
X159385000Y-100965000D02*
X155575000Y-97155000D01*
D26*
X170920000Y-105725000D02*
X170920000Y-105940000D01*
X170920000Y-105940000D02*
X169545000Y-107315000D01*
X169545000Y-107315000D02*
X169545000Y-108585000D01*
X169545000Y-108585000D02*
X169545000Y-109778800D01*
X169545000Y-109778800D02*
X171170600Y-111404400D01*
D27*
X177165000Y-104025000D02*
X176645000Y-104025000D01*
X174625000Y-108585000D02*
X169545000Y-108585000D01*
X175895000Y-107315000D02*
X174625000Y-108585000D01*
X175895000Y-104775000D02*
X175895000Y-107315000D01*
X176645000Y-104025000D02*
X175895000Y-104775000D01*
D26*
X170307000Y-111887000D02*
X171170600Y-111887000D01*
X168275000Y-109855000D02*
X170307000Y-111887000D01*
X173250000Y-107210000D02*
X173355000Y-107315000D01*
X173250000Y-105725000D02*
X173250000Y-107210000D01*
X170815000Y-117995000D02*
X170065000Y-117995000D01*
X168783000Y-111887000D02*
X171170600Y-111887000D01*
X168275000Y-112395000D02*
X168783000Y-111887000D01*
X168275000Y-116205000D02*
X168275000Y-112395000D01*
X170065000Y-117995000D02*
X168275000Y-116205000D01*
X175539400Y-113385600D02*
X176885600Y-113385600D01*
X180975000Y-117475000D02*
X180975000Y-117995000D01*
X176885600Y-113385600D02*
X180975000Y-117475000D01*
D27*
X184785000Y-117995000D02*
X180975000Y-117995000D01*
D28*
G36*
X186565000Y-108099802D02*
X186565000Y-110574890D01*
X186455323Y-110574794D01*
X186019628Y-110754820D01*
X185685991Y-111087875D01*
X185647755Y-111179959D01*
X185473068Y-110800274D01*
X185005084Y-110367013D01*
X184530354Y-110170381D01*
X184277000Y-110289735D01*
X184277000Y-111633000D01*
X184297000Y-111633000D01*
X184297000Y-111887000D01*
X184277000Y-111887000D01*
X184277000Y-111907000D01*
X184023000Y-111907000D01*
X184023000Y-111887000D01*
X182679193Y-111887000D01*
X182560373Y-112140355D01*
X182826932Y-112719726D01*
X182848863Y-112740030D01*
X182699069Y-112836420D01*
X182554079Y-113048620D01*
X182503070Y-113300510D01*
X182503070Y-113565000D01*
X179374447Y-113565000D01*
X178431446Y-112622000D01*
X178943000Y-112622000D01*
X179224272Y-112566051D01*
X179462723Y-112406723D01*
X180224724Y-111644723D01*
X180384051Y-111406272D01*
X180389347Y-111379645D01*
X182560373Y-111379645D01*
X182679193Y-111633000D01*
X184023000Y-111633000D01*
X184023000Y-110289735D01*
X183769646Y-110170381D01*
X183294916Y-110367013D01*
X182826932Y-110800274D01*
X182560373Y-111379645D01*
X180389347Y-111379645D01*
X180440000Y-111125000D01*
X180440000Y-109172419D01*
X180497192Y-109115327D01*
X180639838Y-108771799D01*
X180640162Y-108399833D01*
X180505944Y-108075000D01*
X183515000Y-108075000D01*
X183805839Y-108017148D01*
X184052401Y-107852401D01*
X184852401Y-107052401D01*
X185017148Y-106805839D01*
X185059271Y-106594073D01*
X186565000Y-108099802D01*
X186565000Y-108099802D01*
G37*
X186565000Y-108099802D02*
X186565000Y-110574890D01*
X186455323Y-110574794D01*
X186019628Y-110754820D01*
X185685991Y-111087875D01*
X185647755Y-111179959D01*
X185473068Y-110800274D01*
X185005084Y-110367013D01*
X184530354Y-110170381D01*
X184277000Y-110289735D01*
X184277000Y-111633000D01*
X184297000Y-111633000D01*
X184297000Y-111887000D01*
X184277000Y-111887000D01*
X184277000Y-111907000D01*
X184023000Y-111907000D01*
X184023000Y-111887000D01*
X182679193Y-111887000D01*
X182560373Y-112140355D01*
X182826932Y-112719726D01*
X182848863Y-112740030D01*
X182699069Y-112836420D01*
X182554079Y-113048620D01*
X182503070Y-113300510D01*
X182503070Y-113565000D01*
X179374447Y-113565000D01*
X178431446Y-112622000D01*
X178943000Y-112622000D01*
X179224272Y-112566051D01*
X179462723Y-112406723D01*
X180224724Y-111644723D01*
X180384051Y-111406272D01*
X180389347Y-111379645D01*
X182560373Y-111379645D01*
X182679193Y-111633000D01*
X184023000Y-111633000D01*
X184023000Y-110289735D01*
X183769646Y-110170381D01*
X183294916Y-110367013D01*
X182826932Y-110800274D01*
X182560373Y-111379645D01*
X180389347Y-111379645D01*
X180440000Y-111125000D01*
X180440000Y-109172419D01*
X180497192Y-109115327D01*
X180639838Y-108771799D01*
X180640162Y-108399833D01*
X180505944Y-108075000D01*
X183515000Y-108075000D01*
X183805839Y-108017148D01*
X184052401Y-107852401D01*
X184852401Y-107052401D01*
X185017148Y-106805839D01*
X185059271Y-106594073D01*
X186565000Y-108099802D01*
M02*
