G04 #@! TF.FileFunction,Legend,Top*
%FSLAX46Y46*%
G04 Gerber Fmt 4.6, Leading zero omitted, Abs format (unit mm)*
G04 Created by KiCad (PCBNEW 4.0.6) date 10/01/17 12:49:30*
%MOMM*%
%LPD*%
G01*
G04 APERTURE LIST*
%ADD10C,0.100000*%
%ADD11C,0.120000*%
%ADD12C,0.150000*%
%ADD13C,0.127000*%
%ADD14C,0.152400*%
%ADD15C,0.050000*%
G04 APERTURE END LIST*
D10*
D11*
X190850000Y-106010000D02*
X190150000Y-106010000D01*
X190150000Y-104810000D02*
X190850000Y-104810000D01*
X190150000Y-114970000D02*
X190850000Y-114970000D01*
X190850000Y-116170000D02*
X190150000Y-116170000D01*
X184500000Y-116170000D02*
X183800000Y-116170000D01*
X183800000Y-114970000D02*
X184500000Y-114970000D01*
D12*
X181985920Y-94554040D02*
X187584080Y-94554040D01*
X187385960Y-94056200D02*
X187385960Y-94554040D01*
X182184040Y-94554040D02*
X182184040Y-94056200D01*
X184785000Y-94056200D02*
X184785000Y-94554040D01*
X187584080Y-99855020D02*
X181985920Y-99855020D01*
X187584080Y-94056200D02*
X181985920Y-94056200D01*
X181985920Y-94056200D02*
X181985920Y-100253800D01*
X181985920Y-100253800D02*
X187584080Y-100253800D01*
X187584080Y-100253800D02*
X187584080Y-94056200D01*
X178280000Y-126020000D02*
X178280000Y-126420000D01*
X174780000Y-124920000D02*
X181780000Y-124920000D01*
X174780000Y-126020000D02*
X181780000Y-126020000D01*
X174780000Y-118820000D02*
X174780000Y-126420000D01*
X181780000Y-126420000D02*
X181780000Y-118820000D01*
X181780000Y-118820000D02*
X174780000Y-118820000D01*
X188440000Y-126020000D02*
X188440000Y-126420000D01*
X184940000Y-124920000D02*
X191940000Y-124920000D01*
X184940000Y-126020000D02*
X191940000Y-126020000D01*
X184940000Y-118820000D02*
X184940000Y-126420000D01*
X191940000Y-126420000D02*
X191940000Y-118820000D01*
X191940000Y-118820000D02*
X184940000Y-118820000D01*
D13*
X176710000Y-108420000D02*
X176710000Y-110020000D01*
X173810000Y-110020000D02*
X173810000Y-108420000D01*
D10*
X176910000Y-107120000D02*
G75*
G03X176910000Y-107120000I-50000J0D01*
G01*
D11*
X177030000Y-104820000D02*
X176030000Y-104820000D01*
X176030000Y-103460000D02*
X177030000Y-103460000D01*
X177030000Y-116250000D02*
X176030000Y-116250000D01*
X176030000Y-114890000D02*
X177030000Y-114890000D01*
X191000000Y-97200000D02*
X190000000Y-97200000D01*
X190000000Y-95840000D02*
X191000000Y-95840000D01*
X191000000Y-101010000D02*
X190000000Y-101010000D01*
X190000000Y-99650000D02*
X191000000Y-99650000D01*
D14*
X182600600Y-106400600D02*
X182600600Y-109499400D01*
X185699400Y-109499400D02*
X185699400Y-108254800D01*
X185699400Y-108254800D02*
X185699400Y-107645200D01*
X185699400Y-107645200D02*
X185699400Y-106400600D01*
D10*
X185699398Y-108254798D02*
G75*
G02X185445400Y-108102400I4982J296168D01*
G01*
X185445399Y-107797598D02*
G75*
G02X185699400Y-107645200I258981J-143772D01*
G01*
D14*
X185343800Y-111353600D02*
X184962800Y-111353600D01*
X184962800Y-111353600D02*
X184962800Y-111099600D01*
X184962800Y-111099600D02*
X185343800Y-111099600D01*
D11*
X168520000Y-95340000D02*
X168520000Y-95160000D01*
X168520000Y-95160000D02*
X171840000Y-95160000D01*
X171840000Y-95160000D02*
X171840000Y-95340000D01*
X168520000Y-97700000D02*
X168520000Y-97880000D01*
X168520000Y-97880000D02*
X171840000Y-97880000D01*
X171840000Y-97880000D02*
X171840000Y-97700000D01*
X169060000Y-95160000D02*
X169060000Y-97880000D01*
X189900000Y-110880000D02*
X191100000Y-110880000D01*
X191100000Y-112640000D02*
X189900000Y-112640000D01*
X171510000Y-113020000D02*
X171510000Y-118120000D01*
X166310000Y-113020000D02*
X166310000Y-118120000D01*
X177330000Y-96190000D02*
X175730000Y-96190000D01*
X175730000Y-96190000D02*
X175730000Y-98790000D01*
X177330000Y-96190000D02*
X177330000Y-98790000D01*
D12*
X190047619Y-104267143D02*
X190000000Y-104314762D01*
X189857143Y-104362381D01*
X189761905Y-104362381D01*
X189619047Y-104314762D01*
X189523809Y-104219524D01*
X189476190Y-104124286D01*
X189428571Y-103933810D01*
X189428571Y-103790952D01*
X189476190Y-103600476D01*
X189523809Y-103505238D01*
X189619047Y-103410000D01*
X189761905Y-103362381D01*
X189857143Y-103362381D01*
X190000000Y-103410000D01*
X190047619Y-103457619D01*
X190333333Y-103695714D02*
X190714285Y-103695714D01*
X190476190Y-104362381D02*
X190476190Y-103505238D01*
X190523809Y-103410000D01*
X190619047Y-103362381D01*
X190714285Y-103362381D01*
X191571429Y-104362381D02*
X191000000Y-104362381D01*
X191285714Y-104362381D02*
X191285714Y-103362381D01*
X191190476Y-103505238D01*
X191095238Y-103600476D01*
X191000000Y-103648095D01*
X189642858Y-117427143D02*
X189595239Y-117474762D01*
X189452382Y-117522381D01*
X189357144Y-117522381D01*
X189214286Y-117474762D01*
X189119048Y-117379524D01*
X189071429Y-117284286D01*
X189023810Y-117093810D01*
X189023810Y-116950952D01*
X189071429Y-116760476D01*
X189119048Y-116665238D01*
X189214286Y-116570000D01*
X189357144Y-116522381D01*
X189452382Y-116522381D01*
X189595239Y-116570000D01*
X189642858Y-116617619D01*
X190071429Y-117522381D02*
X190071429Y-116855714D01*
X190071429Y-116522381D02*
X190023810Y-116570000D01*
X190071429Y-116617619D01*
X190119048Y-116570000D01*
X190071429Y-116522381D01*
X190071429Y-116617619D01*
X190547619Y-116855714D02*
X190547619Y-117522381D01*
X190547619Y-116950952D02*
X190595238Y-116903333D01*
X190690476Y-116855714D01*
X190833334Y-116855714D01*
X190928572Y-116903333D01*
X190976191Y-116998571D01*
X190976191Y-117522381D01*
X191976191Y-117522381D02*
X191404762Y-117522381D01*
X191690476Y-117522381D02*
X191690476Y-116522381D01*
X191595238Y-116665238D01*
X191500000Y-116760476D01*
X191404762Y-116808095D01*
X182959524Y-114427143D02*
X182911905Y-114474762D01*
X182769048Y-114522381D01*
X182673810Y-114522381D01*
X182530952Y-114474762D01*
X182435714Y-114379524D01*
X182388095Y-114284286D01*
X182340476Y-114093810D01*
X182340476Y-113950952D01*
X182388095Y-113760476D01*
X182435714Y-113665238D01*
X182530952Y-113570000D01*
X182673810Y-113522381D01*
X182769048Y-113522381D01*
X182911905Y-113570000D01*
X182959524Y-113617619D01*
X183530952Y-114522381D02*
X183435714Y-114474762D01*
X183388095Y-114427143D01*
X183340476Y-114331905D01*
X183340476Y-114046190D01*
X183388095Y-113950952D01*
X183435714Y-113903333D01*
X183530952Y-113855714D01*
X183673810Y-113855714D01*
X183769048Y-113903333D01*
X183816667Y-113950952D01*
X183864286Y-114046190D01*
X183864286Y-114331905D01*
X183816667Y-114427143D01*
X183769048Y-114474762D01*
X183673810Y-114522381D01*
X183530952Y-114522381D01*
X184150000Y-113855714D02*
X184530952Y-113855714D01*
X184292857Y-114522381D02*
X184292857Y-113665238D01*
X184340476Y-113570000D01*
X184435714Y-113522381D01*
X184530952Y-113522381D01*
X184721429Y-113855714D02*
X185102381Y-113855714D01*
X184864286Y-114522381D02*
X184864286Y-113665238D01*
X184911905Y-113570000D01*
X185007143Y-113522381D01*
X185102381Y-113522381D01*
X185959525Y-114522381D02*
X185388096Y-114522381D01*
X185673810Y-114522381D02*
X185673810Y-113522381D01*
X185578572Y-113665238D01*
X185483334Y-113760476D01*
X185388096Y-113808095D01*
X184451667Y-101108261D02*
X184451667Y-101822547D01*
X184404047Y-101965404D01*
X184308809Y-102060642D01*
X184165952Y-102108261D01*
X184070714Y-102108261D01*
X185451667Y-102108261D02*
X184880238Y-102108261D01*
X185165952Y-102108261D02*
X185165952Y-101108261D01*
X185070714Y-101251118D01*
X184975476Y-101346356D01*
X184880238Y-101393975D01*
X177946667Y-117072381D02*
X177946667Y-117786667D01*
X177899047Y-117929524D01*
X177803809Y-118024762D01*
X177660952Y-118072381D01*
X177565714Y-118072381D01*
X178375238Y-117167619D02*
X178422857Y-117120000D01*
X178518095Y-117072381D01*
X178756191Y-117072381D01*
X178851429Y-117120000D01*
X178899048Y-117167619D01*
X178946667Y-117262857D01*
X178946667Y-117358095D01*
X178899048Y-117500952D01*
X178327619Y-118072381D01*
X178946667Y-118072381D01*
X188106667Y-117072381D02*
X188106667Y-117786667D01*
X188059047Y-117929524D01*
X187963809Y-118024762D01*
X187820952Y-118072381D01*
X187725714Y-118072381D01*
X188487619Y-117072381D02*
X189106667Y-117072381D01*
X188773333Y-117453333D01*
X188916191Y-117453333D01*
X189011429Y-117500952D01*
X189059048Y-117548571D01*
X189106667Y-117643810D01*
X189106667Y-117881905D01*
X189059048Y-117977143D01*
X189011429Y-118024762D01*
X188916191Y-118072381D01*
X188630476Y-118072381D01*
X188535238Y-118024762D01*
X188487619Y-117977143D01*
D15*
X178006095Y-109028190D02*
X177968000Y-109104381D01*
X177891810Y-109180571D01*
X177777524Y-109294857D01*
X177739429Y-109371048D01*
X177739429Y-109447238D01*
X177929905Y-109409143D02*
X177891810Y-109485333D01*
X177815619Y-109561524D01*
X177663238Y-109599619D01*
X177396571Y-109599619D01*
X177244190Y-109561524D01*
X177168000Y-109485333D01*
X177129905Y-109409143D01*
X177129905Y-109256762D01*
X177168000Y-109180571D01*
X177244190Y-109104381D01*
X177396571Y-109066286D01*
X177663238Y-109066286D01*
X177815619Y-109104381D01*
X177891810Y-109180571D01*
X177929905Y-109256762D01*
X177929905Y-109409143D01*
X177929905Y-108304381D02*
X177929905Y-108761524D01*
X177929905Y-108532953D02*
X177129905Y-108532953D01*
X177244190Y-108609143D01*
X177320381Y-108685334D01*
X177358476Y-108761524D01*
X172910857Y-112031428D02*
X172910857Y-112298095D01*
X173329905Y-112298095D02*
X172529905Y-112298095D01*
X172529905Y-111917142D01*
X173329905Y-111612381D02*
X172529905Y-111612381D01*
X172529905Y-111421905D01*
X172568000Y-111307619D01*
X172644190Y-111231428D01*
X172720381Y-111193333D01*
X172872762Y-111155238D01*
X172987048Y-111155238D01*
X173139429Y-111193333D01*
X173215619Y-111231428D01*
X173291810Y-111307619D01*
X173329905Y-111421905D01*
X173329905Y-111612381D01*
X173253714Y-110355238D02*
X173291810Y-110393333D01*
X173329905Y-110507619D01*
X173329905Y-110583809D01*
X173291810Y-110698095D01*
X173215619Y-110774286D01*
X173139429Y-110812381D01*
X172987048Y-110850476D01*
X172872762Y-110850476D01*
X172720381Y-110812381D01*
X172644190Y-110774286D01*
X172568000Y-110698095D01*
X172529905Y-110583809D01*
X172529905Y-110507619D01*
X172568000Y-110393333D01*
X172606095Y-110355238D01*
X172529905Y-109669524D02*
X172529905Y-109821905D01*
X172568000Y-109898095D01*
X172606095Y-109936190D01*
X172720381Y-110012381D01*
X172872762Y-110050476D01*
X173177524Y-110050476D01*
X173253714Y-110012381D01*
X173291810Y-109974286D01*
X173329905Y-109898095D01*
X173329905Y-109745714D01*
X173291810Y-109669524D01*
X173253714Y-109631428D01*
X173177524Y-109593333D01*
X172987048Y-109593333D01*
X172910857Y-109631428D01*
X172872762Y-109669524D01*
X172834667Y-109745714D01*
X172834667Y-109898095D01*
X172872762Y-109974286D01*
X172910857Y-110012381D01*
X172987048Y-110050476D01*
X172529905Y-108869523D02*
X172529905Y-109250476D01*
X172910857Y-109288571D01*
X172872762Y-109250476D01*
X172834667Y-109174285D01*
X172834667Y-108983809D01*
X172872762Y-108907619D01*
X172910857Y-108869523D01*
X172987048Y-108831428D01*
X173177524Y-108831428D01*
X173253714Y-108869523D01*
X173291810Y-108907619D01*
X173329905Y-108983809D01*
X173329905Y-109174285D01*
X173291810Y-109250476D01*
X173253714Y-109288571D01*
X172872762Y-108374285D02*
X172834667Y-108450476D01*
X172796571Y-108488571D01*
X172720381Y-108526666D01*
X172682286Y-108526666D01*
X172606095Y-108488571D01*
X172568000Y-108450476D01*
X172529905Y-108374285D01*
X172529905Y-108221904D01*
X172568000Y-108145714D01*
X172606095Y-108107618D01*
X172682286Y-108069523D01*
X172720381Y-108069523D01*
X172796571Y-108107618D01*
X172834667Y-108145714D01*
X172872762Y-108221904D01*
X172872762Y-108374285D01*
X172910857Y-108450476D01*
X172948952Y-108488571D01*
X173025143Y-108526666D01*
X173177524Y-108526666D01*
X173253714Y-108488571D01*
X173291810Y-108450476D01*
X173329905Y-108374285D01*
X173329905Y-108221904D01*
X173291810Y-108145714D01*
X173253714Y-108107618D01*
X173177524Y-108069523D01*
X173025143Y-108069523D01*
X172948952Y-108107618D01*
X172910857Y-108145714D01*
X172872762Y-108221904D01*
X173101333Y-107764761D02*
X173101333Y-107383809D01*
X173329905Y-107840952D02*
X172529905Y-107574285D01*
X173329905Y-107307618D01*
X173329905Y-107040952D02*
X172529905Y-107040952D01*
X172529905Y-106736190D01*
X172568000Y-106659999D01*
X172606095Y-106621904D01*
X172682286Y-106583809D01*
X172796571Y-106583809D01*
X172872762Y-106621904D01*
X172910857Y-106659999D01*
X172948952Y-106736190D01*
X172948952Y-107040952D01*
D12*
X175220476Y-103142381D02*
X174887142Y-102666190D01*
X174649047Y-103142381D02*
X174649047Y-102142381D01*
X175030000Y-102142381D01*
X175125238Y-102190000D01*
X175172857Y-102237619D01*
X175220476Y-102332857D01*
X175220476Y-102475714D01*
X175172857Y-102570952D01*
X175125238Y-102618571D01*
X175030000Y-102666190D01*
X174649047Y-102666190D01*
X175791904Y-103142381D02*
X175696666Y-103094762D01*
X175649047Y-102999524D01*
X175649047Y-102142381D01*
X176553810Y-103094762D02*
X176458572Y-103142381D01*
X176268095Y-103142381D01*
X176172857Y-103094762D01*
X176125238Y-102999524D01*
X176125238Y-102618571D01*
X176172857Y-102523333D01*
X176268095Y-102475714D01*
X176458572Y-102475714D01*
X176553810Y-102523333D01*
X176601429Y-102618571D01*
X176601429Y-102713810D01*
X176125238Y-102809048D01*
X177458572Y-103142381D02*
X177458572Y-102142381D01*
X177458572Y-103094762D02*
X177363334Y-103142381D01*
X177172857Y-103142381D01*
X177077619Y-103094762D01*
X177030000Y-103047143D01*
X176982381Y-102951905D01*
X176982381Y-102666190D01*
X177030000Y-102570952D01*
X177077619Y-102523333D01*
X177172857Y-102475714D01*
X177363334Y-102475714D01*
X177458572Y-102523333D01*
X178458572Y-103142381D02*
X177887143Y-103142381D01*
X178172857Y-103142381D02*
X178172857Y-102142381D01*
X178077619Y-102285238D01*
X177982381Y-102380476D01*
X177887143Y-102428095D01*
X175339524Y-114572381D02*
X175006190Y-114096190D01*
X174768095Y-114572381D02*
X174768095Y-113572381D01*
X175149048Y-113572381D01*
X175244286Y-113620000D01*
X175291905Y-113667619D01*
X175339524Y-113762857D01*
X175339524Y-113905714D01*
X175291905Y-114000952D01*
X175244286Y-114048571D01*
X175149048Y-114096190D01*
X174768095Y-114096190D01*
X175910952Y-114572381D02*
X175815714Y-114524762D01*
X175768095Y-114477143D01*
X175720476Y-114381905D01*
X175720476Y-114096190D01*
X175768095Y-114000952D01*
X175815714Y-113953333D01*
X175910952Y-113905714D01*
X176053810Y-113905714D01*
X176149048Y-113953333D01*
X176196667Y-114000952D01*
X176244286Y-114096190D01*
X176244286Y-114381905D01*
X176196667Y-114477143D01*
X176149048Y-114524762D01*
X176053810Y-114572381D01*
X175910952Y-114572381D01*
X176530000Y-113905714D02*
X176910952Y-113905714D01*
X176672857Y-114572381D02*
X176672857Y-113715238D01*
X176720476Y-113620000D01*
X176815714Y-113572381D01*
X176910952Y-113572381D01*
X177101429Y-113905714D02*
X177482381Y-113905714D01*
X177244286Y-114572381D02*
X177244286Y-113715238D01*
X177291905Y-113620000D01*
X177387143Y-113572381D01*
X177482381Y-113572381D01*
X178339525Y-114572381D02*
X177768096Y-114572381D01*
X178053810Y-114572381D02*
X178053810Y-113572381D01*
X177958572Y-113715238D01*
X177863334Y-113810476D01*
X177768096Y-113858095D01*
X189500000Y-95522381D02*
X189166666Y-95046190D01*
X188928571Y-95522381D02*
X188928571Y-94522381D01*
X189309524Y-94522381D01*
X189404762Y-94570000D01*
X189452381Y-94617619D01*
X189500000Y-94712857D01*
X189500000Y-94855714D01*
X189452381Y-94950952D01*
X189404762Y-94998571D01*
X189309524Y-95046190D01*
X188928571Y-95046190D01*
X190357143Y-94855714D02*
X190357143Y-95522381D01*
X189928571Y-94855714D02*
X189928571Y-95379524D01*
X189976190Y-95474762D01*
X190071428Y-95522381D01*
X190214286Y-95522381D01*
X190309524Y-95474762D01*
X190357143Y-95427143D01*
X190738095Y-94855714D02*
X190976190Y-95522381D01*
X191214286Y-94855714D01*
X192119048Y-95522381D02*
X191547619Y-95522381D01*
X191833333Y-95522381D02*
X191833333Y-94522381D01*
X191738095Y-94665238D01*
X191642857Y-94760476D01*
X191547619Y-94808095D01*
X189500000Y-99332381D02*
X189166666Y-98856190D01*
X188928571Y-99332381D02*
X188928571Y-98332381D01*
X189309524Y-98332381D01*
X189404762Y-98380000D01*
X189452381Y-98427619D01*
X189500000Y-98522857D01*
X189500000Y-98665714D01*
X189452381Y-98760952D01*
X189404762Y-98808571D01*
X189309524Y-98856190D01*
X188928571Y-98856190D01*
X190357143Y-98665714D02*
X190357143Y-99332381D01*
X189928571Y-98665714D02*
X189928571Y-99189524D01*
X189976190Y-99284762D01*
X190071428Y-99332381D01*
X190214286Y-99332381D01*
X190309524Y-99284762D01*
X190357143Y-99237143D01*
X190738095Y-98665714D02*
X190976190Y-99332381D01*
X191214286Y-98665714D01*
X191547619Y-98427619D02*
X191595238Y-98380000D01*
X191690476Y-98332381D01*
X191928572Y-98332381D01*
X192023810Y-98380000D01*
X192071429Y-98427619D01*
X192119048Y-98522857D01*
X192119048Y-98618095D01*
X192071429Y-98760952D01*
X191500000Y-99332381D01*
X192119048Y-99332381D01*
D15*
X186299905Y-108513724D02*
X187627524Y-108513724D01*
X187783714Y-108435629D01*
X187861810Y-108357533D01*
X187939905Y-108201343D01*
X187939905Y-107888962D01*
X187861810Y-107732771D01*
X187783714Y-107654676D01*
X187627524Y-107576581D01*
X186299905Y-107576581D01*
X187939905Y-105936581D02*
X187939905Y-106873724D01*
X187939905Y-106405153D02*
X186299905Y-106405153D01*
X186534190Y-106561343D01*
X186690381Y-106717534D01*
X186768476Y-106873724D01*
X181996305Y-112686133D02*
X181996305Y-113467086D01*
X180356305Y-113467086D01*
X181996305Y-112139467D02*
X180356305Y-112139467D01*
X181527733Y-111592800D01*
X180356305Y-111046133D01*
X181996305Y-111046133D01*
X180356305Y-110421371D02*
X180356305Y-109406133D01*
X180981067Y-109952800D01*
X180981067Y-109718514D01*
X181059162Y-109562324D01*
X181137257Y-109484228D01*
X181293448Y-109406133D01*
X181683924Y-109406133D01*
X181840114Y-109484228D01*
X181918210Y-109562324D01*
X181996305Y-109718514D01*
X181996305Y-110187086D01*
X181918210Y-110343276D01*
X181840114Y-110421371D01*
X180902971Y-108000419D02*
X181996305Y-108000419D01*
X180278210Y-108390895D02*
X181449638Y-108781371D01*
X181449638Y-107766133D01*
X180356305Y-106828990D02*
X180356305Y-106672799D01*
X180434400Y-106516609D01*
X180512495Y-106438514D01*
X180668686Y-106360418D01*
X180981067Y-106282323D01*
X181371543Y-106282323D01*
X181683924Y-106360418D01*
X181840114Y-106438514D01*
X181918210Y-106516609D01*
X181996305Y-106672799D01*
X181996305Y-106828990D01*
X181918210Y-106985180D01*
X181840114Y-107063276D01*
X181683924Y-107141371D01*
X181371543Y-107219466D01*
X180981067Y-107219466D01*
X180668686Y-107141371D01*
X180512495Y-107063276D01*
X180434400Y-106985180D01*
X180356305Y-106828990D01*
X181996305Y-105501371D02*
X181996305Y-105188990D01*
X181918210Y-105032799D01*
X181840114Y-104954704D01*
X181605829Y-104798513D01*
X181293448Y-104720418D01*
X180668686Y-104720418D01*
X180512495Y-104798513D01*
X180434400Y-104876609D01*
X180356305Y-105032799D01*
X180356305Y-105345180D01*
X180434400Y-105501371D01*
X180512495Y-105579466D01*
X180668686Y-105657561D01*
X181059162Y-105657561D01*
X181215352Y-105579466D01*
X181293448Y-105501371D01*
X181371543Y-105345180D01*
X181371543Y-105032799D01*
X181293448Y-104876609D01*
X181215352Y-104798513D01*
X181059162Y-104720418D01*
X181996305Y-104017561D02*
X180356305Y-104017561D01*
X181527733Y-103470894D01*
X180356305Y-102924227D01*
X181996305Y-102924227D01*
X181215352Y-101830894D02*
X181996305Y-101830894D01*
X180356305Y-102377561D02*
X181215352Y-101830894D01*
X180356305Y-101284227D01*
D12*
X169441905Y-94612381D02*
X169441905Y-93612381D01*
X169680000Y-93612381D01*
X169822858Y-93660000D01*
X169918096Y-93755238D01*
X169965715Y-93850476D01*
X170013334Y-94040952D01*
X170013334Y-94183810D01*
X169965715Y-94374286D01*
X169918096Y-94469524D01*
X169822858Y-94564762D01*
X169680000Y-94612381D01*
X169441905Y-94612381D01*
X170965715Y-94612381D02*
X170394286Y-94612381D01*
X170680000Y-94612381D02*
X170680000Y-93612381D01*
X170584762Y-93755238D01*
X170489524Y-93850476D01*
X170394286Y-93898095D01*
X189071429Y-113862381D02*
X188738095Y-113386190D01*
X188500000Y-113862381D02*
X188500000Y-112862381D01*
X188880953Y-112862381D01*
X188976191Y-112910000D01*
X189023810Y-112957619D01*
X189071429Y-113052857D01*
X189071429Y-113195714D01*
X189023810Y-113290952D01*
X188976191Y-113338571D01*
X188880953Y-113386190D01*
X188500000Y-113386190D01*
X189452381Y-113814762D02*
X189547619Y-113862381D01*
X189738095Y-113862381D01*
X189833334Y-113814762D01*
X189880953Y-113719524D01*
X189880953Y-113671905D01*
X189833334Y-113576667D01*
X189738095Y-113529048D01*
X189595238Y-113529048D01*
X189500000Y-113481429D01*
X189452381Y-113386190D01*
X189452381Y-113338571D01*
X189500000Y-113243333D01*
X189595238Y-113195714D01*
X189738095Y-113195714D01*
X189833334Y-113243333D01*
X190309524Y-113195714D02*
X190309524Y-113862381D01*
X190309524Y-113290952D02*
X190357143Y-113243333D01*
X190452381Y-113195714D01*
X190595239Y-113195714D01*
X190690477Y-113243333D01*
X190738096Y-113338571D01*
X190738096Y-113862381D01*
X191166667Y-113814762D02*
X191261905Y-113862381D01*
X191452381Y-113862381D01*
X191547620Y-113814762D01*
X191595239Y-113719524D01*
X191595239Y-113671905D01*
X191547620Y-113576667D01*
X191452381Y-113529048D01*
X191309524Y-113529048D01*
X191214286Y-113481429D01*
X191166667Y-113386190D01*
X191166667Y-113338571D01*
X191214286Y-113243333D01*
X191309524Y-113195714D01*
X191452381Y-113195714D01*
X191547620Y-113243333D01*
X192547620Y-113862381D02*
X191976191Y-113862381D01*
X192261905Y-113862381D02*
X192261905Y-112862381D01*
X192166667Y-113005238D01*
X192071429Y-113100476D01*
X191976191Y-113148095D01*
X172862381Y-115736666D02*
X172862381Y-116212857D01*
X171862381Y-116212857D01*
X172862381Y-114879523D02*
X172862381Y-115450952D01*
X172862381Y-115165238D02*
X171862381Y-115165238D01*
X172005238Y-115260476D01*
X172100476Y-115355714D01*
X172148095Y-115450952D01*
X178582381Y-98528095D02*
X177582381Y-98528095D01*
X177582381Y-98290000D01*
X177630000Y-98147142D01*
X177725238Y-98051904D01*
X177820476Y-98004285D01*
X178010952Y-97956666D01*
X178153810Y-97956666D01*
X178344286Y-98004285D01*
X178439524Y-98051904D01*
X178534762Y-98147142D01*
X178582381Y-98290000D01*
X178582381Y-98528095D01*
X177677619Y-97575714D02*
X177630000Y-97528095D01*
X177582381Y-97432857D01*
X177582381Y-97194761D01*
X177630000Y-97099523D01*
X177677619Y-97051904D01*
X177772857Y-97004285D01*
X177868095Y-97004285D01*
X178010952Y-97051904D01*
X178582381Y-97623333D01*
X178582381Y-97004285D01*
M02*
