G04 #@! TF.FileFunction,Copper,L1,Top,Signal*
%FSLAX46Y46*%
G04 Gerber Fmt 4.6, Leading zero omitted, Abs format (unit mm)*
G04 Created by KiCad (PCBNEW 4.0.6-e0-6349~53~ubuntu16.04.1) date Sun Jul 16 15:53:00 2017*
%MOMM*%
%LPD*%
G01*
G04 APERTURE LIST*
%ADD10C,0.100000*%
%ADD11O,1.998980X1.998980*%
%ADD12R,1.998980X1.998980*%
%ADD13R,1.700000X1.700000*%
%ADD14O,1.700000X1.700000*%
%ADD15C,2.200000*%
%ADD16O,2.200000X2.200000*%
%ADD17R,0.600000X1.400000*%
%ADD18R,1.371600X0.330200*%
%ADD19R,1.727200X1.905000*%
%ADD20R,1.600000X1.600000*%
%ADD21C,1.600000*%
%ADD22R,2.000000X2.000000*%
%ADD23O,2.000000X2.000000*%
%ADD24C,2.800000*%
%ADD25O,2.800000X2.800000*%
%ADD26R,0.900000X0.500000*%
%ADD27R,0.500000X0.900000*%
%ADD28C,0.600000*%
%ADD29C,0.250000*%
%ADD30C,2.000000*%
%ADD31C,0.254000*%
G04 APERTURE END LIST*
D10*
D11*
X170810000Y-124950000D03*
D12*
X170810000Y-127490000D03*
D11*
X170960000Y-111480000D03*
D12*
X170960000Y-114020000D03*
D13*
X149880000Y-117370000D03*
D14*
X147340000Y-117370000D03*
D15*
X143600000Y-134400000D03*
D16*
X169000000Y-134400000D03*
D17*
X144700000Y-122705000D03*
X143750000Y-122705000D03*
X142800000Y-122705000D03*
X144700000Y-125035000D03*
X143750000Y-125035000D03*
X142800000Y-125035000D03*
D18*
X156914400Y-126090600D03*
X156914400Y-125608000D03*
X156914400Y-125100000D03*
X156914400Y-124592000D03*
X156914400Y-124109400D03*
X152545600Y-124109400D03*
X152545600Y-124592000D03*
X152545600Y-125100000D03*
X152545600Y-125608000D03*
X152545600Y-126090600D03*
D19*
X154730000Y-125100000D03*
D20*
X162980000Y-123870000D03*
D21*
X162980000Y-126370000D03*
D20*
X162840000Y-112510000D03*
D21*
X165340000Y-112510000D03*
D22*
X143810000Y-128210000D03*
D23*
X148890000Y-128210000D03*
D24*
X158870000Y-111000000D03*
D25*
X143630000Y-111000000D03*
D26*
X165530000Y-120400000D03*
X165530000Y-118900000D03*
X160150000Y-119360000D03*
X160150000Y-117860000D03*
D27*
X154080000Y-129380000D03*
X155580000Y-129380000D03*
D26*
X153320000Y-119380000D03*
X153320000Y-120880000D03*
X156150000Y-118920000D03*
X156150000Y-117420000D03*
D27*
X161290000Y-129440000D03*
X162790000Y-129440000D03*
D26*
X149100000Y-122920000D03*
X149100000Y-124420000D03*
D28*
X161671000Y-118046500D03*
X155818500Y-122809000D03*
X164540000Y-129720000D03*
X152560000Y-126930000D03*
X167550000Y-119795000D03*
X159190000Y-124240000D03*
X158700000Y-126760000D03*
X151070000Y-123810000D03*
X146000000Y-124285000D03*
X152430000Y-123180000D03*
X142380000Y-121335000D03*
D29*
X161970010Y-121000010D02*
X159055010Y-121000010D01*
X159055010Y-121000010D02*
X157125000Y-119070000D01*
X157125000Y-119070000D02*
X156150000Y-119070000D01*
X162980000Y-122010000D02*
X161970010Y-121000010D01*
X162980000Y-123870000D02*
X162980000Y-122010000D01*
X162980000Y-123870000D02*
X161930000Y-123870000D01*
X161930000Y-123870000D02*
X160199501Y-125600499D01*
X157860201Y-125600499D02*
X156914400Y-125600499D01*
X160199501Y-125600499D02*
X157860201Y-125600499D01*
X161334500Y-117710000D02*
X161671000Y-118046500D01*
X160150000Y-117710000D02*
X161334500Y-117710000D01*
X154295000Y-121030000D02*
X156074000Y-122809000D01*
X156074000Y-122809000D02*
X156914400Y-123649400D01*
X154730000Y-125100000D02*
X154730000Y-123897500D01*
X154730000Y-123897500D02*
X155818500Y-122809000D01*
X155818500Y-122809000D02*
X156074000Y-122809000D01*
X153320000Y-121030000D02*
X154295000Y-121030000D01*
X156914400Y-123649400D02*
X156914400Y-124101899D01*
X154730000Y-125100000D02*
X154730000Y-125011100D01*
X153470000Y-121030000D02*
X153320000Y-121030000D01*
X164075000Y-129750000D02*
X164510000Y-129750000D01*
X164510000Y-129750000D02*
X164540000Y-129720000D01*
X162940000Y-129440000D02*
X163765000Y-129440000D01*
X163765000Y-129440000D02*
X164075000Y-129750000D01*
X147740000Y-125200000D02*
X148140499Y-125600499D01*
X148140499Y-125600499D02*
X151599799Y-125600499D01*
X151599799Y-125600499D02*
X152545600Y-125600499D01*
X147740000Y-123155000D02*
X147740000Y-125200000D01*
X149100000Y-122770000D02*
X148125000Y-122770000D01*
X148125000Y-122770000D02*
X147740000Y-123155000D01*
X152560000Y-126930000D02*
X152560000Y-126505736D01*
X152560000Y-126505736D02*
X152545600Y-126491336D01*
X152545600Y-126491336D02*
X152545600Y-126098101D01*
X165530000Y-118750000D02*
X166505000Y-118750000D01*
X166505000Y-118750000D02*
X167550000Y-119795000D01*
X162840000Y-112510000D02*
X162840000Y-111460000D01*
X162840000Y-111460000D02*
X160790000Y-109410000D01*
X160790000Y-109410000D02*
X160790000Y-109080000D01*
X165530000Y-118750000D02*
X165530000Y-115200000D01*
X165530000Y-115200000D02*
X162840000Y-112510000D01*
X149100000Y-124570000D02*
X150075000Y-124570000D01*
X150075000Y-124570000D02*
X150605000Y-125100000D01*
X150605000Y-125100000D02*
X151609800Y-125100000D01*
X151609800Y-125100000D02*
X152545600Y-125100000D01*
D30*
X168560000Y-109080000D02*
X160790000Y-109080000D01*
X160790000Y-109080000D02*
X158870000Y-111000000D01*
X170960000Y-111480000D02*
X168560000Y-109080000D01*
D29*
X159190000Y-124240000D02*
X158765736Y-124240000D01*
X158765736Y-124240000D02*
X158406235Y-124599501D01*
X158406235Y-124599501D02*
X157860201Y-124599501D01*
X157860201Y-124599501D02*
X156914400Y-124599501D01*
X158200000Y-126760000D02*
X158700000Y-126760000D01*
X155730000Y-129380000D02*
X155730000Y-129230000D01*
X155730000Y-129230000D02*
X158200000Y-126760000D01*
X161140000Y-129440000D02*
X155790000Y-129440000D01*
X155790000Y-129440000D02*
X155730000Y-129380000D01*
X143810000Y-128210000D02*
X143810000Y-129460000D01*
X143810000Y-129460000D02*
X144705000Y-130355000D01*
X144705000Y-130355000D02*
X152130000Y-130355000D01*
X152130000Y-130355000D02*
X153105000Y-129380000D01*
X153105000Y-129380000D02*
X153930000Y-129380000D01*
D30*
X142249999Y-133049999D02*
X142249999Y-128310000D01*
X142249999Y-128310000D02*
X142249999Y-126695001D01*
D29*
X143810000Y-128210000D02*
X142560000Y-128210000D01*
X142560000Y-128210000D02*
X142460000Y-128310000D01*
X142460000Y-128310000D02*
X142249999Y-128310000D01*
D30*
X143810000Y-128210000D02*
X143764998Y-128210000D01*
X143600000Y-134400000D02*
X142249999Y-133049999D01*
X142249999Y-126695001D02*
X142249999Y-125035000D01*
D29*
X156150000Y-117270000D02*
X149980000Y-117270000D01*
X149980000Y-117270000D02*
X149880000Y-117370000D01*
X153320000Y-119230000D02*
X149200000Y-119230000D01*
X149200000Y-119230000D02*
X147340000Y-117370000D01*
X155000000Y-120760000D02*
X156635002Y-120760000D01*
X156635002Y-120760000D02*
X159990000Y-124114998D01*
X159990000Y-124114998D02*
X159990000Y-124570000D01*
X156914400Y-125100000D02*
X159460000Y-125100000D01*
X155000000Y-120760000D02*
X153470000Y-119230000D01*
X153470000Y-119230000D02*
X153320000Y-119230000D01*
X159460000Y-125100000D02*
X159990000Y-124570000D01*
D30*
X170810000Y-127490000D02*
X170810000Y-132590000D01*
X170810000Y-132590000D02*
X169000000Y-134400000D01*
D29*
X165530000Y-120550000D02*
X160365000Y-120550000D01*
X160365000Y-120550000D02*
X160150000Y-120335000D01*
X160150000Y-120335000D02*
X160150000Y-119510000D01*
X161530000Y-127990000D02*
X159638101Y-126098101D01*
X159638101Y-126098101D02*
X157860201Y-126098101D01*
X157860201Y-126098101D02*
X156914400Y-126098101D01*
X164690000Y-127990000D02*
X161530000Y-127990000D01*
X165530000Y-127150000D02*
X164690000Y-127990000D01*
X165530000Y-120550000D02*
X165530000Y-127150000D01*
X146000000Y-124285000D02*
X145450000Y-124285000D01*
X145450000Y-124285000D02*
X144700000Y-125035000D01*
D30*
X144700000Y-125035000D02*
X144450009Y-125035000D01*
X144700000Y-122705000D02*
X144700000Y-125035000D01*
X144700000Y-122705000D02*
X144300001Y-122705000D01*
X142230001Y-117528501D02*
X144700000Y-119998500D01*
X144700000Y-119998500D02*
X144700000Y-122705000D01*
X143630000Y-111000000D02*
X142230001Y-112399999D01*
X142230001Y-112399999D02*
X142230001Y-117528501D01*
D29*
X151070000Y-123810000D02*
X151070000Y-124234264D01*
X151070000Y-124234264D02*
X151435237Y-124599501D01*
X151435237Y-124599501D02*
X151599799Y-124599501D01*
X151599799Y-124599501D02*
X152545600Y-124599501D01*
X152430000Y-123180000D02*
X152430000Y-123604264D01*
X152430000Y-123604264D02*
X152545600Y-123719864D01*
X152545600Y-123719864D02*
X152545600Y-124101899D01*
X142800000Y-122705000D02*
X142800000Y-121755000D01*
X142800000Y-121755000D02*
X142380000Y-121335000D01*
D31*
G36*
X176790000Y-139290000D02*
X140710000Y-139290000D01*
X140710000Y-133527603D01*
X140739456Y-133675687D01*
X141093879Y-134206119D01*
X142029002Y-135141241D01*
X142128281Y-135381515D01*
X142615918Y-135870004D01*
X143253373Y-136134699D01*
X143943599Y-136135301D01*
X144581515Y-135871719D01*
X145070004Y-135384082D01*
X145334699Y-134746627D01*
X145335001Y-134400000D01*
X167231009Y-134400000D01*
X167363078Y-135063956D01*
X167739179Y-135626830D01*
X168302053Y-136002931D01*
X168966009Y-136135000D01*
X169033991Y-136135000D01*
X169697947Y-136002931D01*
X170260821Y-135626830D01*
X170614043Y-135098197D01*
X171966117Y-133746122D01*
X171966120Y-133746120D01*
X172320543Y-133215687D01*
X172329000Y-133173170D01*
X172445001Y-132590000D01*
X172445000Y-132589995D01*
X172445000Y-128548402D01*
X172456930Y-128489490D01*
X172456930Y-126490510D01*
X172412652Y-126255193D01*
X172273580Y-126039069D01*
X172112351Y-125928906D01*
X172133068Y-125909726D01*
X172399627Y-125330355D01*
X172280807Y-125077000D01*
X170937000Y-125077000D01*
X170937000Y-125097000D01*
X170683000Y-125097000D01*
X170683000Y-125077000D01*
X169339193Y-125077000D01*
X169220373Y-125330355D01*
X169486932Y-125909726D01*
X169508863Y-125930030D01*
X169359069Y-126026420D01*
X169214079Y-126238620D01*
X169163070Y-126490510D01*
X169163070Y-128489490D01*
X169175000Y-128552892D01*
X169175000Y-131912761D01*
X168267812Y-132819948D01*
X167739179Y-133173170D01*
X167363078Y-133736044D01*
X167231009Y-134400000D01*
X145335001Y-134400000D01*
X145335301Y-134056401D01*
X145071719Y-133418485D01*
X144584082Y-132929996D01*
X144341511Y-132829271D01*
X143884999Y-132372759D01*
X143884999Y-130609801D01*
X144167599Y-130892401D01*
X144414161Y-131057148D01*
X144705000Y-131115000D01*
X152130000Y-131115000D01*
X152420839Y-131057148D01*
X152667401Y-130892401D01*
X153331631Y-130228171D01*
X153365910Y-130281441D01*
X153578110Y-130426431D01*
X153830000Y-130477440D01*
X154330000Y-130477440D01*
X154565317Y-130433162D01*
X154781441Y-130294090D01*
X154829134Y-130224289D01*
X154865910Y-130281441D01*
X155078110Y-130426431D01*
X155330000Y-130477440D01*
X155830000Y-130477440D01*
X156065317Y-130433162D01*
X156281441Y-130294090D01*
X156345730Y-130200000D01*
X160484895Y-130200000D01*
X160575910Y-130341441D01*
X160788110Y-130486431D01*
X161040000Y-130537440D01*
X161540000Y-130537440D01*
X161775317Y-130493162D01*
X161991441Y-130354090D01*
X162037969Y-130285994D01*
X162180302Y-130428327D01*
X162413691Y-130525000D01*
X162506250Y-130525000D01*
X162665000Y-130366250D01*
X162665000Y-129567000D01*
X162915000Y-129567000D01*
X162915000Y-130366250D01*
X163073750Y-130525000D01*
X163166309Y-130525000D01*
X163399698Y-130428327D01*
X163578327Y-130249699D01*
X163675000Y-130016310D01*
X163675000Y-129725750D01*
X163516250Y-129567000D01*
X162915000Y-129567000D01*
X162665000Y-129567000D01*
X162643000Y-129567000D01*
X162643000Y-129313000D01*
X162665000Y-129313000D01*
X162665000Y-129293000D01*
X162915000Y-129293000D01*
X162915000Y-129313000D01*
X163516250Y-129313000D01*
X163675000Y-129154250D01*
X163675000Y-128863690D01*
X163627908Y-128750000D01*
X164690000Y-128750000D01*
X164980839Y-128692148D01*
X165227401Y-128527401D01*
X166067401Y-127687401D01*
X166232148Y-127440840D01*
X166290000Y-127150000D01*
X166290000Y-124569645D01*
X169220373Y-124569645D01*
X169339193Y-124823000D01*
X170683000Y-124823000D01*
X170683000Y-123479735D01*
X170937000Y-123479735D01*
X170937000Y-124823000D01*
X172280807Y-124823000D01*
X172399627Y-124569645D01*
X172133068Y-123990274D01*
X171665084Y-123557013D01*
X171190354Y-123360381D01*
X170937000Y-123479735D01*
X170683000Y-123479735D01*
X170429646Y-123360381D01*
X169954916Y-123557013D01*
X169486932Y-123990274D01*
X169220373Y-124569645D01*
X166290000Y-124569645D01*
X166290000Y-121205105D01*
X166431441Y-121114090D01*
X166576431Y-120901890D01*
X166627440Y-120650000D01*
X166627440Y-120150000D01*
X166583162Y-119914683D01*
X166562010Y-119881812D01*
X166614878Y-119934680D01*
X166614838Y-119980167D01*
X166756883Y-120323943D01*
X167019673Y-120587192D01*
X167363201Y-120729838D01*
X167735167Y-120730162D01*
X168078943Y-120588117D01*
X168342192Y-120325327D01*
X168484838Y-119981799D01*
X168485162Y-119609833D01*
X168343117Y-119266057D01*
X168080327Y-119002808D01*
X167736799Y-118860162D01*
X167689923Y-118860121D01*
X167042401Y-118212599D01*
X166795839Y-118047852D01*
X166505000Y-117990000D01*
X166290000Y-117990000D01*
X166290000Y-115200000D01*
X166232148Y-114909161D01*
X166067401Y-114662599D01*
X165710552Y-114305750D01*
X169325510Y-114305750D01*
X169325510Y-115145799D01*
X169422183Y-115379188D01*
X169600811Y-115557817D01*
X169834200Y-115654490D01*
X170674250Y-115654490D01*
X170833000Y-115495740D01*
X170833000Y-114147000D01*
X171087000Y-114147000D01*
X171087000Y-115495740D01*
X171245750Y-115654490D01*
X172085800Y-115654490D01*
X172319189Y-115557817D01*
X172497817Y-115379188D01*
X172594490Y-115145799D01*
X172594490Y-114305750D01*
X172435740Y-114147000D01*
X171087000Y-114147000D01*
X170833000Y-114147000D01*
X169484260Y-114147000D01*
X169325510Y-114305750D01*
X165710552Y-114305750D01*
X165350911Y-113946109D01*
X165693454Y-113929778D01*
X166094005Y-113763864D01*
X166168139Y-113517745D01*
X165340000Y-112689605D01*
X165325858Y-112703748D01*
X165146252Y-112524142D01*
X165160395Y-112510000D01*
X165519605Y-112510000D01*
X166347745Y-113338139D01*
X166593864Y-113264005D01*
X166786965Y-112726777D01*
X166759778Y-112156546D01*
X166593864Y-111755995D01*
X166347745Y-111681861D01*
X165519605Y-112510000D01*
X165160395Y-112510000D01*
X164332255Y-111681861D01*
X164284833Y-111696145D01*
X164248351Y-111502255D01*
X164511861Y-111502255D01*
X165340000Y-112330395D01*
X166168139Y-111502255D01*
X166094005Y-111256136D01*
X165556777Y-111063035D01*
X164986546Y-111090222D01*
X164585995Y-111256136D01*
X164511861Y-111502255D01*
X164248351Y-111502255D01*
X164243162Y-111474683D01*
X164104090Y-111258559D01*
X163891890Y-111113569D01*
X163640000Y-111062560D01*
X163470920Y-111062560D01*
X163377401Y-110922599D01*
X163169802Y-110715000D01*
X167882760Y-110715000D01*
X169635553Y-112467792D01*
X169600811Y-112482183D01*
X169422183Y-112660812D01*
X169325510Y-112894201D01*
X169325510Y-113734250D01*
X169484260Y-113893000D01*
X170833000Y-113893000D01*
X170833000Y-113873000D01*
X171087000Y-113873000D01*
X171087000Y-113893000D01*
X172435740Y-113893000D01*
X172594490Y-113734250D01*
X172594490Y-112894201D01*
X172497817Y-112660812D01*
X172319189Y-112482183D01*
X172256987Y-112456418D01*
X172470072Y-112137514D01*
X172594490Y-111512022D01*
X172594490Y-111482569D01*
X172595001Y-111480000D01*
X172594490Y-111477431D01*
X172594490Y-111447978D01*
X172470072Y-110822486D01*
X172115759Y-110292219D01*
X172021428Y-110229189D01*
X169716120Y-107923880D01*
X169185688Y-107569457D01*
X168560000Y-107444999D01*
X168559995Y-107445000D01*
X160790005Y-107445000D01*
X160790000Y-107444999D01*
X160164312Y-107569457D01*
X159633880Y-107923880D01*
X158593002Y-108964758D01*
X158466989Y-108964648D01*
X157718771Y-109273805D01*
X157145817Y-109845760D01*
X156835354Y-110593438D01*
X156834648Y-111403011D01*
X157143805Y-112151229D01*
X157715760Y-112724183D01*
X158463438Y-113034646D01*
X159273011Y-113035352D01*
X160021229Y-112726195D01*
X160594183Y-112154240D01*
X160904646Y-111406562D01*
X160904759Y-111277481D01*
X161243719Y-110938521D01*
X161573357Y-111268159D01*
X161443569Y-111458110D01*
X161392560Y-111710000D01*
X161392560Y-113310000D01*
X161436838Y-113545317D01*
X161575910Y-113761441D01*
X161788110Y-113906431D01*
X162040000Y-113957440D01*
X163212638Y-113957440D01*
X164770000Y-115514802D01*
X164770000Y-118094895D01*
X164628559Y-118185910D01*
X164483569Y-118398110D01*
X164432560Y-118650000D01*
X164432560Y-119150000D01*
X164476838Y-119385317D01*
X164615910Y-119601441D01*
X164685711Y-119649134D01*
X164628559Y-119685910D01*
X164557437Y-119790000D01*
X161210989Y-119790000D01*
X161247440Y-119610000D01*
X161247440Y-119110000D01*
X161203162Y-118874683D01*
X161064090Y-118658559D01*
X160995994Y-118612031D01*
X161138327Y-118469698D01*
X161235000Y-118236309D01*
X161235000Y-118143750D01*
X161076250Y-117985000D01*
X160277000Y-117985000D01*
X160277000Y-118007000D01*
X160023000Y-118007000D01*
X160023000Y-117985000D01*
X159223750Y-117985000D01*
X159065000Y-118143750D01*
X159065000Y-118236309D01*
X159161673Y-118469698D01*
X159302910Y-118610936D01*
X159248559Y-118645910D01*
X159103569Y-118858110D01*
X159052560Y-119110000D01*
X159052560Y-119610000D01*
X159096838Y-119845317D01*
X159235910Y-120061441D01*
X159390000Y-120166726D01*
X159390000Y-120240010D01*
X159369812Y-120240010D01*
X157662401Y-118532599D01*
X157415839Y-118367852D01*
X157125000Y-118310000D01*
X157122931Y-118310000D01*
X157064090Y-118218559D01*
X156994289Y-118170866D01*
X157051441Y-118134090D01*
X157196431Y-117921890D01*
X157247440Y-117670000D01*
X157247440Y-117483691D01*
X159065000Y-117483691D01*
X159065000Y-117576250D01*
X159223750Y-117735000D01*
X160023000Y-117735000D01*
X160023000Y-117133750D01*
X160277000Y-117133750D01*
X160277000Y-117735000D01*
X161076250Y-117735000D01*
X161235000Y-117576250D01*
X161235000Y-117483691D01*
X161138327Y-117250302D01*
X160959699Y-117071673D01*
X160726310Y-116975000D01*
X160435750Y-116975000D01*
X160277000Y-117133750D01*
X160023000Y-117133750D01*
X159864250Y-116975000D01*
X159573690Y-116975000D01*
X159340301Y-117071673D01*
X159161673Y-117250302D01*
X159065000Y-117483691D01*
X157247440Y-117483691D01*
X157247440Y-117170000D01*
X157203162Y-116934683D01*
X157064090Y-116718559D01*
X156851890Y-116573569D01*
X156600000Y-116522560D01*
X156213143Y-116522560D01*
X156150000Y-116510000D01*
X151375558Y-116510000D01*
X151333162Y-116284683D01*
X151194090Y-116068559D01*
X150981890Y-115923569D01*
X150730000Y-115872560D01*
X149030000Y-115872560D01*
X148794683Y-115916838D01*
X148578559Y-116055910D01*
X148433569Y-116268110D01*
X148419914Y-116335541D01*
X148390054Y-116290853D01*
X147908285Y-115968946D01*
X147340000Y-115855907D01*
X146771715Y-115968946D01*
X146289946Y-116290853D01*
X145968039Y-116772622D01*
X145855000Y-117340907D01*
X145855000Y-117399093D01*
X145968039Y-117967378D01*
X146289946Y-118449147D01*
X146771715Y-118771054D01*
X147340000Y-118884093D01*
X147706408Y-118811210D01*
X148662599Y-119767401D01*
X148909160Y-119932148D01*
X149200000Y-119990000D01*
X152347069Y-119990000D01*
X152405910Y-120081441D01*
X152474006Y-120127969D01*
X152331673Y-120270302D01*
X152235000Y-120503691D01*
X152235000Y-120596250D01*
X152393750Y-120755000D01*
X153193000Y-120755000D01*
X153193000Y-120733000D01*
X153447000Y-120733000D01*
X153447000Y-120755000D01*
X153467000Y-120755000D01*
X153467000Y-121005000D01*
X153447000Y-121005000D01*
X153447000Y-121606250D01*
X153605750Y-121765000D01*
X153896310Y-121765000D01*
X154129699Y-121668327D01*
X154308327Y-121489698D01*
X154405000Y-121256309D01*
X154405000Y-121239802D01*
X154462599Y-121297401D01*
X154709161Y-121462148D01*
X155000000Y-121520000D01*
X156320200Y-121520000D01*
X158392864Y-123592664D01*
X158228335Y-123702599D01*
X158199392Y-123731542D01*
X158138527Y-123584601D01*
X157959898Y-123405973D01*
X157726509Y-123309300D01*
X157200150Y-123309300D01*
X157041400Y-123468050D01*
X157041400Y-123779460D01*
X156787400Y-123779460D01*
X156787400Y-123468050D01*
X156628650Y-123309300D01*
X156102291Y-123309300D01*
X155868902Y-123405973D01*
X155749937Y-123524938D01*
X155719909Y-123512500D01*
X155015750Y-123512500D01*
X154857000Y-123671250D01*
X154857000Y-124973000D01*
X154877000Y-124973000D01*
X154877000Y-125227000D01*
X154857000Y-125227000D01*
X154857000Y-126528750D01*
X155015750Y-126687500D01*
X155719909Y-126687500D01*
X155745145Y-126677047D01*
X155764510Y-126707141D01*
X155976710Y-126852131D01*
X156228600Y-126903140D01*
X156982057Y-126903140D01*
X155602638Y-128282560D01*
X155330000Y-128282560D01*
X155094683Y-128326838D01*
X154878559Y-128465910D01*
X154830866Y-128535711D01*
X154794090Y-128478559D01*
X154581890Y-128333569D01*
X154330000Y-128282560D01*
X153830000Y-128282560D01*
X153594683Y-128326838D01*
X153378559Y-128465910D01*
X153273274Y-128620000D01*
X153105000Y-128620000D01*
X152814160Y-128677852D01*
X152567599Y-128842599D01*
X151815198Y-129595000D01*
X149716325Y-129595000D01*
X149849994Y-129533505D01*
X150283402Y-129065385D01*
X150480124Y-128590434D01*
X150360777Y-128337000D01*
X149017000Y-128337000D01*
X149017000Y-128357000D01*
X148763000Y-128357000D01*
X148763000Y-128337000D01*
X147419223Y-128337000D01*
X147299876Y-128590434D01*
X147496598Y-129065385D01*
X147930006Y-129533505D01*
X148063675Y-129595000D01*
X145315481Y-129595000D01*
X145406431Y-129461890D01*
X145457440Y-129210000D01*
X145457440Y-127829566D01*
X147299876Y-127829566D01*
X147419223Y-128083000D01*
X148763000Y-128083000D01*
X148763000Y-126738681D01*
X149017000Y-126738681D01*
X149017000Y-128083000D01*
X150360777Y-128083000D01*
X150480124Y-127829566D01*
X150283402Y-127354615D01*
X149849994Y-126886495D01*
X149270435Y-126619867D01*
X149017000Y-126738681D01*
X148763000Y-126738681D01*
X148509565Y-126619867D01*
X147930006Y-126886495D01*
X147496598Y-127354615D01*
X147299876Y-127829566D01*
X145457440Y-127829566D01*
X145457440Y-127210000D01*
X145413162Y-126974683D01*
X145274090Y-126758559D01*
X145061890Y-126613569D01*
X145023144Y-126605723D01*
X145325687Y-126545543D01*
X145856120Y-126191120D01*
X146210543Y-125660687D01*
X146308288Y-125169290D01*
X146528943Y-125078117D01*
X146792192Y-124815327D01*
X146934838Y-124471799D01*
X146935162Y-124099833D01*
X146793117Y-123756057D01*
X146530327Y-123492808D01*
X146335000Y-123411701D01*
X146335000Y-123155000D01*
X146980000Y-123155000D01*
X146980000Y-125200000D01*
X147037852Y-125490839D01*
X147202599Y-125737401D01*
X147603098Y-126137900D01*
X147849660Y-126302647D01*
X148140499Y-126360499D01*
X151232079Y-126360499D01*
X151256638Y-126491017D01*
X151395710Y-126707141D01*
X151607910Y-126852131D01*
X151625064Y-126855605D01*
X151624838Y-127115167D01*
X151766883Y-127458943D01*
X152029673Y-127722192D01*
X152373201Y-127864838D01*
X152745167Y-127865162D01*
X153088943Y-127723117D01*
X153352192Y-127460327D01*
X153494838Y-127116799D01*
X153495079Y-126840612D01*
X153682841Y-126719790D01*
X153712666Y-126676140D01*
X153740091Y-126687500D01*
X154444250Y-126687500D01*
X154603000Y-126528750D01*
X154603000Y-125227000D01*
X154583000Y-125227000D01*
X154583000Y-124973000D01*
X154603000Y-124973000D01*
X154603000Y-123671250D01*
X154444250Y-123512500D01*
X153740091Y-123512500D01*
X153714855Y-123522953D01*
X153695490Y-123492859D01*
X153483290Y-123347869D01*
X153364875Y-123323889D01*
X153365162Y-122994833D01*
X153223117Y-122651057D01*
X152960327Y-122387808D01*
X152616799Y-122245162D01*
X152244833Y-122244838D01*
X151901057Y-122386883D01*
X151637808Y-122649673D01*
X151501913Y-122976943D01*
X151256799Y-122875162D01*
X150884833Y-122874838D01*
X150541057Y-123016883D01*
X150277808Y-123279673D01*
X150135162Y-123623201D01*
X150134989Y-123821933D01*
X150075000Y-123810000D01*
X150072931Y-123810000D01*
X150014090Y-123718559D01*
X149944289Y-123670866D01*
X150001441Y-123634090D01*
X150146431Y-123421890D01*
X150197440Y-123170000D01*
X150197440Y-122670000D01*
X150153162Y-122434683D01*
X150014090Y-122218559D01*
X149801890Y-122073569D01*
X149550000Y-122022560D01*
X149163143Y-122022560D01*
X149100000Y-122010000D01*
X148125000Y-122010000D01*
X147834160Y-122067852D01*
X147587599Y-122232599D01*
X147202599Y-122617599D01*
X147037852Y-122864161D01*
X146980000Y-123155000D01*
X146335000Y-123155000D01*
X146335000Y-121163750D01*
X152235000Y-121163750D01*
X152235000Y-121256309D01*
X152331673Y-121489698D01*
X152510301Y-121668327D01*
X152743690Y-121765000D01*
X153034250Y-121765000D01*
X153193000Y-121606250D01*
X153193000Y-121005000D01*
X152393750Y-121005000D01*
X152235000Y-121163750D01*
X146335000Y-121163750D01*
X146335000Y-119998505D01*
X146335001Y-119998500D01*
X146210543Y-119372812D01*
X145856120Y-118842380D01*
X143865001Y-116851261D01*
X143865001Y-113077239D01*
X143966180Y-112976060D01*
X144448629Y-112880095D01*
X145108830Y-112438962D01*
X145549963Y-111778761D01*
X145704868Y-111000000D01*
X145549963Y-110221239D01*
X145108830Y-109561038D01*
X144448629Y-109119905D01*
X143669868Y-108965000D01*
X143590132Y-108965000D01*
X142811371Y-109119905D01*
X142151170Y-109561038D01*
X141710037Y-110221239D01*
X141614072Y-110703688D01*
X141073881Y-111243879D01*
X140719458Y-111774311D01*
X140710000Y-111821859D01*
X140710000Y-105710000D01*
X176790000Y-105710000D01*
X176790000Y-139290000D01*
X176790000Y-139290000D01*
G37*
X176790000Y-139290000D02*
X140710000Y-139290000D01*
X140710000Y-133527603D01*
X140739456Y-133675687D01*
X141093879Y-134206119D01*
X142029002Y-135141241D01*
X142128281Y-135381515D01*
X142615918Y-135870004D01*
X143253373Y-136134699D01*
X143943599Y-136135301D01*
X144581515Y-135871719D01*
X145070004Y-135384082D01*
X145334699Y-134746627D01*
X145335001Y-134400000D01*
X167231009Y-134400000D01*
X167363078Y-135063956D01*
X167739179Y-135626830D01*
X168302053Y-136002931D01*
X168966009Y-136135000D01*
X169033991Y-136135000D01*
X169697947Y-136002931D01*
X170260821Y-135626830D01*
X170614043Y-135098197D01*
X171966117Y-133746122D01*
X171966120Y-133746120D01*
X172320543Y-133215687D01*
X172329000Y-133173170D01*
X172445001Y-132590000D01*
X172445000Y-132589995D01*
X172445000Y-128548402D01*
X172456930Y-128489490D01*
X172456930Y-126490510D01*
X172412652Y-126255193D01*
X172273580Y-126039069D01*
X172112351Y-125928906D01*
X172133068Y-125909726D01*
X172399627Y-125330355D01*
X172280807Y-125077000D01*
X170937000Y-125077000D01*
X170937000Y-125097000D01*
X170683000Y-125097000D01*
X170683000Y-125077000D01*
X169339193Y-125077000D01*
X169220373Y-125330355D01*
X169486932Y-125909726D01*
X169508863Y-125930030D01*
X169359069Y-126026420D01*
X169214079Y-126238620D01*
X169163070Y-126490510D01*
X169163070Y-128489490D01*
X169175000Y-128552892D01*
X169175000Y-131912761D01*
X168267812Y-132819948D01*
X167739179Y-133173170D01*
X167363078Y-133736044D01*
X167231009Y-134400000D01*
X145335001Y-134400000D01*
X145335301Y-134056401D01*
X145071719Y-133418485D01*
X144584082Y-132929996D01*
X144341511Y-132829271D01*
X143884999Y-132372759D01*
X143884999Y-130609801D01*
X144167599Y-130892401D01*
X144414161Y-131057148D01*
X144705000Y-131115000D01*
X152130000Y-131115000D01*
X152420839Y-131057148D01*
X152667401Y-130892401D01*
X153331631Y-130228171D01*
X153365910Y-130281441D01*
X153578110Y-130426431D01*
X153830000Y-130477440D01*
X154330000Y-130477440D01*
X154565317Y-130433162D01*
X154781441Y-130294090D01*
X154829134Y-130224289D01*
X154865910Y-130281441D01*
X155078110Y-130426431D01*
X155330000Y-130477440D01*
X155830000Y-130477440D01*
X156065317Y-130433162D01*
X156281441Y-130294090D01*
X156345730Y-130200000D01*
X160484895Y-130200000D01*
X160575910Y-130341441D01*
X160788110Y-130486431D01*
X161040000Y-130537440D01*
X161540000Y-130537440D01*
X161775317Y-130493162D01*
X161991441Y-130354090D01*
X162037969Y-130285994D01*
X162180302Y-130428327D01*
X162413691Y-130525000D01*
X162506250Y-130525000D01*
X162665000Y-130366250D01*
X162665000Y-129567000D01*
X162915000Y-129567000D01*
X162915000Y-130366250D01*
X163073750Y-130525000D01*
X163166309Y-130525000D01*
X163399698Y-130428327D01*
X163578327Y-130249699D01*
X163675000Y-130016310D01*
X163675000Y-129725750D01*
X163516250Y-129567000D01*
X162915000Y-129567000D01*
X162665000Y-129567000D01*
X162643000Y-129567000D01*
X162643000Y-129313000D01*
X162665000Y-129313000D01*
X162665000Y-129293000D01*
X162915000Y-129293000D01*
X162915000Y-129313000D01*
X163516250Y-129313000D01*
X163675000Y-129154250D01*
X163675000Y-128863690D01*
X163627908Y-128750000D01*
X164690000Y-128750000D01*
X164980839Y-128692148D01*
X165227401Y-128527401D01*
X166067401Y-127687401D01*
X166232148Y-127440840D01*
X166290000Y-127150000D01*
X166290000Y-124569645D01*
X169220373Y-124569645D01*
X169339193Y-124823000D01*
X170683000Y-124823000D01*
X170683000Y-123479735D01*
X170937000Y-123479735D01*
X170937000Y-124823000D01*
X172280807Y-124823000D01*
X172399627Y-124569645D01*
X172133068Y-123990274D01*
X171665084Y-123557013D01*
X171190354Y-123360381D01*
X170937000Y-123479735D01*
X170683000Y-123479735D01*
X170429646Y-123360381D01*
X169954916Y-123557013D01*
X169486932Y-123990274D01*
X169220373Y-124569645D01*
X166290000Y-124569645D01*
X166290000Y-121205105D01*
X166431441Y-121114090D01*
X166576431Y-120901890D01*
X166627440Y-120650000D01*
X166627440Y-120150000D01*
X166583162Y-119914683D01*
X166562010Y-119881812D01*
X166614878Y-119934680D01*
X166614838Y-119980167D01*
X166756883Y-120323943D01*
X167019673Y-120587192D01*
X167363201Y-120729838D01*
X167735167Y-120730162D01*
X168078943Y-120588117D01*
X168342192Y-120325327D01*
X168484838Y-119981799D01*
X168485162Y-119609833D01*
X168343117Y-119266057D01*
X168080327Y-119002808D01*
X167736799Y-118860162D01*
X167689923Y-118860121D01*
X167042401Y-118212599D01*
X166795839Y-118047852D01*
X166505000Y-117990000D01*
X166290000Y-117990000D01*
X166290000Y-115200000D01*
X166232148Y-114909161D01*
X166067401Y-114662599D01*
X165710552Y-114305750D01*
X169325510Y-114305750D01*
X169325510Y-115145799D01*
X169422183Y-115379188D01*
X169600811Y-115557817D01*
X169834200Y-115654490D01*
X170674250Y-115654490D01*
X170833000Y-115495740D01*
X170833000Y-114147000D01*
X171087000Y-114147000D01*
X171087000Y-115495740D01*
X171245750Y-115654490D01*
X172085800Y-115654490D01*
X172319189Y-115557817D01*
X172497817Y-115379188D01*
X172594490Y-115145799D01*
X172594490Y-114305750D01*
X172435740Y-114147000D01*
X171087000Y-114147000D01*
X170833000Y-114147000D01*
X169484260Y-114147000D01*
X169325510Y-114305750D01*
X165710552Y-114305750D01*
X165350911Y-113946109D01*
X165693454Y-113929778D01*
X166094005Y-113763864D01*
X166168139Y-113517745D01*
X165340000Y-112689605D01*
X165325858Y-112703748D01*
X165146252Y-112524142D01*
X165160395Y-112510000D01*
X165519605Y-112510000D01*
X166347745Y-113338139D01*
X166593864Y-113264005D01*
X166786965Y-112726777D01*
X166759778Y-112156546D01*
X166593864Y-111755995D01*
X166347745Y-111681861D01*
X165519605Y-112510000D01*
X165160395Y-112510000D01*
X164332255Y-111681861D01*
X164284833Y-111696145D01*
X164248351Y-111502255D01*
X164511861Y-111502255D01*
X165340000Y-112330395D01*
X166168139Y-111502255D01*
X166094005Y-111256136D01*
X165556777Y-111063035D01*
X164986546Y-111090222D01*
X164585995Y-111256136D01*
X164511861Y-111502255D01*
X164248351Y-111502255D01*
X164243162Y-111474683D01*
X164104090Y-111258559D01*
X163891890Y-111113569D01*
X163640000Y-111062560D01*
X163470920Y-111062560D01*
X163377401Y-110922599D01*
X163169802Y-110715000D01*
X167882760Y-110715000D01*
X169635553Y-112467792D01*
X169600811Y-112482183D01*
X169422183Y-112660812D01*
X169325510Y-112894201D01*
X169325510Y-113734250D01*
X169484260Y-113893000D01*
X170833000Y-113893000D01*
X170833000Y-113873000D01*
X171087000Y-113873000D01*
X171087000Y-113893000D01*
X172435740Y-113893000D01*
X172594490Y-113734250D01*
X172594490Y-112894201D01*
X172497817Y-112660812D01*
X172319189Y-112482183D01*
X172256987Y-112456418D01*
X172470072Y-112137514D01*
X172594490Y-111512022D01*
X172594490Y-111482569D01*
X172595001Y-111480000D01*
X172594490Y-111477431D01*
X172594490Y-111447978D01*
X172470072Y-110822486D01*
X172115759Y-110292219D01*
X172021428Y-110229189D01*
X169716120Y-107923880D01*
X169185688Y-107569457D01*
X168560000Y-107444999D01*
X168559995Y-107445000D01*
X160790005Y-107445000D01*
X160790000Y-107444999D01*
X160164312Y-107569457D01*
X159633880Y-107923880D01*
X158593002Y-108964758D01*
X158466989Y-108964648D01*
X157718771Y-109273805D01*
X157145817Y-109845760D01*
X156835354Y-110593438D01*
X156834648Y-111403011D01*
X157143805Y-112151229D01*
X157715760Y-112724183D01*
X158463438Y-113034646D01*
X159273011Y-113035352D01*
X160021229Y-112726195D01*
X160594183Y-112154240D01*
X160904646Y-111406562D01*
X160904759Y-111277481D01*
X161243719Y-110938521D01*
X161573357Y-111268159D01*
X161443569Y-111458110D01*
X161392560Y-111710000D01*
X161392560Y-113310000D01*
X161436838Y-113545317D01*
X161575910Y-113761441D01*
X161788110Y-113906431D01*
X162040000Y-113957440D01*
X163212638Y-113957440D01*
X164770000Y-115514802D01*
X164770000Y-118094895D01*
X164628559Y-118185910D01*
X164483569Y-118398110D01*
X164432560Y-118650000D01*
X164432560Y-119150000D01*
X164476838Y-119385317D01*
X164615910Y-119601441D01*
X164685711Y-119649134D01*
X164628559Y-119685910D01*
X164557437Y-119790000D01*
X161210989Y-119790000D01*
X161247440Y-119610000D01*
X161247440Y-119110000D01*
X161203162Y-118874683D01*
X161064090Y-118658559D01*
X160995994Y-118612031D01*
X161138327Y-118469698D01*
X161235000Y-118236309D01*
X161235000Y-118143750D01*
X161076250Y-117985000D01*
X160277000Y-117985000D01*
X160277000Y-118007000D01*
X160023000Y-118007000D01*
X160023000Y-117985000D01*
X159223750Y-117985000D01*
X159065000Y-118143750D01*
X159065000Y-118236309D01*
X159161673Y-118469698D01*
X159302910Y-118610936D01*
X159248559Y-118645910D01*
X159103569Y-118858110D01*
X159052560Y-119110000D01*
X159052560Y-119610000D01*
X159096838Y-119845317D01*
X159235910Y-120061441D01*
X159390000Y-120166726D01*
X159390000Y-120240010D01*
X159369812Y-120240010D01*
X157662401Y-118532599D01*
X157415839Y-118367852D01*
X157125000Y-118310000D01*
X157122931Y-118310000D01*
X157064090Y-118218559D01*
X156994289Y-118170866D01*
X157051441Y-118134090D01*
X157196431Y-117921890D01*
X157247440Y-117670000D01*
X157247440Y-117483691D01*
X159065000Y-117483691D01*
X159065000Y-117576250D01*
X159223750Y-117735000D01*
X160023000Y-117735000D01*
X160023000Y-117133750D01*
X160277000Y-117133750D01*
X160277000Y-117735000D01*
X161076250Y-117735000D01*
X161235000Y-117576250D01*
X161235000Y-117483691D01*
X161138327Y-117250302D01*
X160959699Y-117071673D01*
X160726310Y-116975000D01*
X160435750Y-116975000D01*
X160277000Y-117133750D01*
X160023000Y-117133750D01*
X159864250Y-116975000D01*
X159573690Y-116975000D01*
X159340301Y-117071673D01*
X159161673Y-117250302D01*
X159065000Y-117483691D01*
X157247440Y-117483691D01*
X157247440Y-117170000D01*
X157203162Y-116934683D01*
X157064090Y-116718559D01*
X156851890Y-116573569D01*
X156600000Y-116522560D01*
X156213143Y-116522560D01*
X156150000Y-116510000D01*
X151375558Y-116510000D01*
X151333162Y-116284683D01*
X151194090Y-116068559D01*
X150981890Y-115923569D01*
X150730000Y-115872560D01*
X149030000Y-115872560D01*
X148794683Y-115916838D01*
X148578559Y-116055910D01*
X148433569Y-116268110D01*
X148419914Y-116335541D01*
X148390054Y-116290853D01*
X147908285Y-115968946D01*
X147340000Y-115855907D01*
X146771715Y-115968946D01*
X146289946Y-116290853D01*
X145968039Y-116772622D01*
X145855000Y-117340907D01*
X145855000Y-117399093D01*
X145968039Y-117967378D01*
X146289946Y-118449147D01*
X146771715Y-118771054D01*
X147340000Y-118884093D01*
X147706408Y-118811210D01*
X148662599Y-119767401D01*
X148909160Y-119932148D01*
X149200000Y-119990000D01*
X152347069Y-119990000D01*
X152405910Y-120081441D01*
X152474006Y-120127969D01*
X152331673Y-120270302D01*
X152235000Y-120503691D01*
X152235000Y-120596250D01*
X152393750Y-120755000D01*
X153193000Y-120755000D01*
X153193000Y-120733000D01*
X153447000Y-120733000D01*
X153447000Y-120755000D01*
X153467000Y-120755000D01*
X153467000Y-121005000D01*
X153447000Y-121005000D01*
X153447000Y-121606250D01*
X153605750Y-121765000D01*
X153896310Y-121765000D01*
X154129699Y-121668327D01*
X154308327Y-121489698D01*
X154405000Y-121256309D01*
X154405000Y-121239802D01*
X154462599Y-121297401D01*
X154709161Y-121462148D01*
X155000000Y-121520000D01*
X156320200Y-121520000D01*
X158392864Y-123592664D01*
X158228335Y-123702599D01*
X158199392Y-123731542D01*
X158138527Y-123584601D01*
X157959898Y-123405973D01*
X157726509Y-123309300D01*
X157200150Y-123309300D01*
X157041400Y-123468050D01*
X157041400Y-123779460D01*
X156787400Y-123779460D01*
X156787400Y-123468050D01*
X156628650Y-123309300D01*
X156102291Y-123309300D01*
X155868902Y-123405973D01*
X155749937Y-123524938D01*
X155719909Y-123512500D01*
X155015750Y-123512500D01*
X154857000Y-123671250D01*
X154857000Y-124973000D01*
X154877000Y-124973000D01*
X154877000Y-125227000D01*
X154857000Y-125227000D01*
X154857000Y-126528750D01*
X155015750Y-126687500D01*
X155719909Y-126687500D01*
X155745145Y-126677047D01*
X155764510Y-126707141D01*
X155976710Y-126852131D01*
X156228600Y-126903140D01*
X156982057Y-126903140D01*
X155602638Y-128282560D01*
X155330000Y-128282560D01*
X155094683Y-128326838D01*
X154878559Y-128465910D01*
X154830866Y-128535711D01*
X154794090Y-128478559D01*
X154581890Y-128333569D01*
X154330000Y-128282560D01*
X153830000Y-128282560D01*
X153594683Y-128326838D01*
X153378559Y-128465910D01*
X153273274Y-128620000D01*
X153105000Y-128620000D01*
X152814160Y-128677852D01*
X152567599Y-128842599D01*
X151815198Y-129595000D01*
X149716325Y-129595000D01*
X149849994Y-129533505D01*
X150283402Y-129065385D01*
X150480124Y-128590434D01*
X150360777Y-128337000D01*
X149017000Y-128337000D01*
X149017000Y-128357000D01*
X148763000Y-128357000D01*
X148763000Y-128337000D01*
X147419223Y-128337000D01*
X147299876Y-128590434D01*
X147496598Y-129065385D01*
X147930006Y-129533505D01*
X148063675Y-129595000D01*
X145315481Y-129595000D01*
X145406431Y-129461890D01*
X145457440Y-129210000D01*
X145457440Y-127829566D01*
X147299876Y-127829566D01*
X147419223Y-128083000D01*
X148763000Y-128083000D01*
X148763000Y-126738681D01*
X149017000Y-126738681D01*
X149017000Y-128083000D01*
X150360777Y-128083000D01*
X150480124Y-127829566D01*
X150283402Y-127354615D01*
X149849994Y-126886495D01*
X149270435Y-126619867D01*
X149017000Y-126738681D01*
X148763000Y-126738681D01*
X148509565Y-126619867D01*
X147930006Y-126886495D01*
X147496598Y-127354615D01*
X147299876Y-127829566D01*
X145457440Y-127829566D01*
X145457440Y-127210000D01*
X145413162Y-126974683D01*
X145274090Y-126758559D01*
X145061890Y-126613569D01*
X145023144Y-126605723D01*
X145325687Y-126545543D01*
X145856120Y-126191120D01*
X146210543Y-125660687D01*
X146308288Y-125169290D01*
X146528943Y-125078117D01*
X146792192Y-124815327D01*
X146934838Y-124471799D01*
X146935162Y-124099833D01*
X146793117Y-123756057D01*
X146530327Y-123492808D01*
X146335000Y-123411701D01*
X146335000Y-123155000D01*
X146980000Y-123155000D01*
X146980000Y-125200000D01*
X147037852Y-125490839D01*
X147202599Y-125737401D01*
X147603098Y-126137900D01*
X147849660Y-126302647D01*
X148140499Y-126360499D01*
X151232079Y-126360499D01*
X151256638Y-126491017D01*
X151395710Y-126707141D01*
X151607910Y-126852131D01*
X151625064Y-126855605D01*
X151624838Y-127115167D01*
X151766883Y-127458943D01*
X152029673Y-127722192D01*
X152373201Y-127864838D01*
X152745167Y-127865162D01*
X153088943Y-127723117D01*
X153352192Y-127460327D01*
X153494838Y-127116799D01*
X153495079Y-126840612D01*
X153682841Y-126719790D01*
X153712666Y-126676140D01*
X153740091Y-126687500D01*
X154444250Y-126687500D01*
X154603000Y-126528750D01*
X154603000Y-125227000D01*
X154583000Y-125227000D01*
X154583000Y-124973000D01*
X154603000Y-124973000D01*
X154603000Y-123671250D01*
X154444250Y-123512500D01*
X153740091Y-123512500D01*
X153714855Y-123522953D01*
X153695490Y-123492859D01*
X153483290Y-123347869D01*
X153364875Y-123323889D01*
X153365162Y-122994833D01*
X153223117Y-122651057D01*
X152960327Y-122387808D01*
X152616799Y-122245162D01*
X152244833Y-122244838D01*
X151901057Y-122386883D01*
X151637808Y-122649673D01*
X151501913Y-122976943D01*
X151256799Y-122875162D01*
X150884833Y-122874838D01*
X150541057Y-123016883D01*
X150277808Y-123279673D01*
X150135162Y-123623201D01*
X150134989Y-123821933D01*
X150075000Y-123810000D01*
X150072931Y-123810000D01*
X150014090Y-123718559D01*
X149944289Y-123670866D01*
X150001441Y-123634090D01*
X150146431Y-123421890D01*
X150197440Y-123170000D01*
X150197440Y-122670000D01*
X150153162Y-122434683D01*
X150014090Y-122218559D01*
X149801890Y-122073569D01*
X149550000Y-122022560D01*
X149163143Y-122022560D01*
X149100000Y-122010000D01*
X148125000Y-122010000D01*
X147834160Y-122067852D01*
X147587599Y-122232599D01*
X147202599Y-122617599D01*
X147037852Y-122864161D01*
X146980000Y-123155000D01*
X146335000Y-123155000D01*
X146335000Y-121163750D01*
X152235000Y-121163750D01*
X152235000Y-121256309D01*
X152331673Y-121489698D01*
X152510301Y-121668327D01*
X152743690Y-121765000D01*
X153034250Y-121765000D01*
X153193000Y-121606250D01*
X153193000Y-121005000D01*
X152393750Y-121005000D01*
X152235000Y-121163750D01*
X146335000Y-121163750D01*
X146335000Y-119998505D01*
X146335001Y-119998500D01*
X146210543Y-119372812D01*
X145856120Y-118842380D01*
X143865001Y-116851261D01*
X143865001Y-113077239D01*
X143966180Y-112976060D01*
X144448629Y-112880095D01*
X145108830Y-112438962D01*
X145549963Y-111778761D01*
X145704868Y-111000000D01*
X145549963Y-110221239D01*
X145108830Y-109561038D01*
X144448629Y-109119905D01*
X143669868Y-108965000D01*
X143590132Y-108965000D01*
X142811371Y-109119905D01*
X142151170Y-109561038D01*
X141710037Y-110221239D01*
X141614072Y-110703688D01*
X141073881Y-111243879D01*
X140719458Y-111774311D01*
X140710000Y-111821859D01*
X140710000Y-105710000D01*
X176790000Y-105710000D01*
X176790000Y-139290000D01*
G36*
X164770000Y-126835198D02*
X164375198Y-127230000D01*
X164019608Y-127230000D01*
X163987747Y-127198139D01*
X164233864Y-127124005D01*
X164426965Y-126586777D01*
X164399778Y-126016546D01*
X164233864Y-125615995D01*
X163987745Y-125541861D01*
X163159605Y-126370000D01*
X163173748Y-126384142D01*
X162994142Y-126563748D01*
X162980000Y-126549605D01*
X162965858Y-126563748D01*
X162786252Y-126384142D01*
X162800395Y-126370000D01*
X161972255Y-125541861D01*
X161726136Y-125615995D01*
X161533035Y-126153223D01*
X161560222Y-126723454D01*
X161717176Y-127102374D01*
X160744802Y-126130000D01*
X161738159Y-125136643D01*
X161928110Y-125266431D01*
X162166201Y-125314646D01*
X162151861Y-125362255D01*
X162980000Y-126190395D01*
X163808139Y-125362255D01*
X163793855Y-125314833D01*
X164015317Y-125273162D01*
X164231441Y-125134090D01*
X164376431Y-124921890D01*
X164427440Y-124670000D01*
X164427440Y-123070000D01*
X164383162Y-122834683D01*
X164244090Y-122618559D01*
X164031890Y-122473569D01*
X163780000Y-122422560D01*
X163740000Y-122422560D01*
X163740000Y-122010000D01*
X163682148Y-121719161D01*
X163517401Y-121472599D01*
X163354802Y-121310000D01*
X164770000Y-121310000D01*
X164770000Y-126835198D01*
X164770000Y-126835198D01*
G37*
X164770000Y-126835198D02*
X164375198Y-127230000D01*
X164019608Y-127230000D01*
X163987747Y-127198139D01*
X164233864Y-127124005D01*
X164426965Y-126586777D01*
X164399778Y-126016546D01*
X164233864Y-125615995D01*
X163987745Y-125541861D01*
X163159605Y-126370000D01*
X163173748Y-126384142D01*
X162994142Y-126563748D01*
X162980000Y-126549605D01*
X162965858Y-126563748D01*
X162786252Y-126384142D01*
X162800395Y-126370000D01*
X161972255Y-125541861D01*
X161726136Y-125615995D01*
X161533035Y-126153223D01*
X161560222Y-126723454D01*
X161717176Y-127102374D01*
X160744802Y-126130000D01*
X161738159Y-125136643D01*
X161928110Y-125266431D01*
X162166201Y-125314646D01*
X162151861Y-125362255D01*
X162980000Y-126190395D01*
X163808139Y-125362255D01*
X163793855Y-125314833D01*
X164015317Y-125273162D01*
X164231441Y-125134090D01*
X164376431Y-124921890D01*
X164427440Y-124670000D01*
X164427440Y-123070000D01*
X164383162Y-122834683D01*
X164244090Y-122618559D01*
X164031890Y-122473569D01*
X163780000Y-122422560D01*
X163740000Y-122422560D01*
X163740000Y-122010000D01*
X163682148Y-121719161D01*
X163517401Y-121472599D01*
X163354802Y-121310000D01*
X164770000Y-121310000D01*
X164770000Y-126835198D01*
M02*
