M48
;DRILL file {KiCad 4.0.6} date Tuesday, 18 July 2017 'PMt' 23:15:23
;FORMAT={-:-/ absolute / metric / decimal}
FMAT,2
METRIC,TZ
T1C0.400
T2C0.800
T3C1.000
T4C1.097
T5C1.100
T6C1.400
%
G90
G05
M71
T1
X142.38Y-121.335
X146.Y-124.285
X151.07Y-123.81
X152.43Y-123.18
X152.56Y-126.93
X155.819Y-122.809
X158.7Y-126.76
X159.19Y-124.24
X161.671Y-118.046
X164.54Y-129.72
X167.55Y-119.795
T2
X162.84Y-112.51
X162.98Y-123.87
X162.98Y-126.37
X165.34Y-112.51
T3
X143.81Y-128.21
X147.34Y-117.37
X148.89Y-128.21
X149.88Y-117.37
T4
X170.81Y-124.95
X170.81Y-127.49
X170.96Y-111.48
X170.96Y-114.02
T5
X143.6Y-134.4
X169.Y-134.4
T6
X143.63Y-111.
X158.87Y-111.
T0
M30
