G04 #@! TF.FileFunction,Soldermask,Top*
%FSLAX46Y46*%
G04 Gerber Fmt 4.6, Leading zero omitted, Abs format (unit mm)*
G04 Created by KiCad (PCBNEW 4.0.6) date Fri Sep  8 02:15:48 2017*
%MOMM*%
%LPD*%
G01*
G04 APERTURE LIST*
%ADD10C,0.100000*%
%ADD11R,1.150000X1.200000*%
%ADD12R,2.900000X1.400000*%
%ADD13R,1.400000X2.900000*%
%ADD14R,1.200000X1.150000*%
%ADD15R,1.600000X1.600000*%
%ADD16R,2.900000X2.200000*%
%ADD17R,2.200000X2.900000*%
%ADD18R,2.400000X3.000000*%
%ADD19O,2.400000X3.000000*%
%ADD20R,3.200000X3.200000*%
%ADD21C,3.200000*%
%ADD22R,1.700000X1.100000*%
%ADD23R,1.040000X0.740000*%
%ADD24R,0.740000X1.040000*%
%ADD25R,0.840000X1.290000*%
%ADD26R,4.840000X1.690000*%
%ADD27R,4.340000X3.440000*%
%ADD28R,1.200000X1.300000*%
%ADD29R,1.300000X0.900000*%
%ADD30R,0.900000X1.300000*%
%ADD31R,2.840000X6.000000*%
%ADD32R,2.840000X1.290000*%
%ADD33C,1.400000*%
%ADD34C,1.670000*%
%ADD35C,2.330000*%
%ADD36R,1.600000X0.800000*%
%ADD37R,2.400000X4.200000*%
%ADD38R,2.400000X1.900000*%
%ADD39R,3.000000X2.400000*%
%ADD40O,3.000000X2.400000*%
%ADD41R,2.600000X1.200000*%
%ADD42R,6.800000X6.200000*%
G04 APERTURE END LIST*
D10*
D11*
X112579000Y-133382600D03*
X112579000Y-134882600D03*
X114079000Y-133382600D03*
X114079000Y-134882600D03*
X115579000Y-133382600D03*
X115579000Y-134882600D03*
D12*
X149860000Y-104926000D03*
X149860000Y-107926000D03*
D13*
X169696000Y-132842000D03*
X172696000Y-132842000D03*
D11*
X150373300Y-123397300D03*
X150373300Y-121897300D03*
D12*
X153123900Y-141400400D03*
X153123900Y-144400400D03*
D14*
X153223300Y-124547300D03*
X154723300Y-124547300D03*
D15*
X84582000Y-91778000D03*
X84582000Y-89578000D03*
X182669000Y-67818000D03*
X184869000Y-67818000D03*
D16*
X106902000Y-129540000D03*
X102902000Y-129540000D03*
D15*
X169329100Y-145064300D03*
X169329100Y-147264300D03*
D16*
X106902000Y-124968000D03*
X102902000Y-124968000D03*
D17*
X106579000Y-134632600D03*
X106579000Y-138632600D03*
D15*
X146273300Y-131447300D03*
X146273300Y-133647300D03*
D18*
X118329000Y-121382600D03*
D19*
X115789000Y-121382600D03*
X113249000Y-121382600D03*
D20*
X197902000Y-122010000D03*
D21*
X203402000Y-122010000D03*
D20*
X197902000Y-114010000D03*
D21*
X203402000Y-114010000D03*
D20*
X197902000Y-106010000D03*
D21*
X203402000Y-106010000D03*
D20*
X197902000Y-98010000D03*
D21*
X203402000Y-98010000D03*
D20*
X197902000Y-90010000D03*
D21*
X203402000Y-90010000D03*
D20*
X197902000Y-82010000D03*
D21*
X203402000Y-82010000D03*
D20*
X153309000Y-91745000D03*
D21*
X158809000Y-91745000D03*
D20*
X153309000Y-83745000D03*
D21*
X158809000Y-83745000D03*
D20*
X153309000Y-75745000D03*
D21*
X158809000Y-75745000D03*
D20*
X153309000Y-67745000D03*
D21*
X158809000Y-67745000D03*
D20*
X179251000Y-139192000D03*
D21*
X179251000Y-144692000D03*
D20*
X187251000Y-139192000D03*
D21*
X187251000Y-144692000D03*
D20*
X195251000Y-139192000D03*
D21*
X195251000Y-144692000D03*
D20*
X203251000Y-139192000D03*
D21*
X203251000Y-144692000D03*
D20*
X136144000Y-75850000D03*
D21*
X136144000Y-70350000D03*
D20*
X128144000Y-75850000D03*
D21*
X128144000Y-70350000D03*
D20*
X120144000Y-75850000D03*
D21*
X120144000Y-70350000D03*
D20*
X112144000Y-75850000D03*
D21*
X112144000Y-70350000D03*
D20*
X104144000Y-75850000D03*
D21*
X104144000Y-70350000D03*
D20*
X96144000Y-75850000D03*
D21*
X96144000Y-70350000D03*
D20*
X96012000Y-123444000D03*
D21*
X90512000Y-123444000D03*
D20*
X96012000Y-131064000D03*
D21*
X90512000Y-131064000D03*
D22*
X110329000Y-132932600D03*
X110329000Y-134832600D03*
D23*
X123929000Y-123447600D03*
X123929000Y-124297600D03*
X123929000Y-122597600D03*
X126229000Y-123447600D03*
X126229000Y-124297600D03*
X126229000Y-122597600D03*
X125079000Y-122597600D03*
X125079000Y-124297600D03*
D24*
X123199000Y-120747600D03*
X126959000Y-120747600D03*
X124479000Y-120747600D03*
D25*
X124439000Y-126467600D03*
X123169000Y-126467600D03*
X125719000Y-126467600D03*
D26*
X125079000Y-120997600D03*
D27*
X125079000Y-123197600D03*
D25*
X126989000Y-126467600D03*
D24*
X125679000Y-120747600D03*
D23*
X125079000Y-123447600D03*
X130429000Y-123447600D03*
X130429000Y-124297600D03*
X130429000Y-122597600D03*
X132729000Y-123447600D03*
X132729000Y-124297600D03*
X132729000Y-122597600D03*
X131579000Y-122597600D03*
X131579000Y-124297600D03*
D24*
X129699000Y-120747600D03*
X133459000Y-120747600D03*
X130979000Y-120747600D03*
D25*
X130939000Y-126467600D03*
X129669000Y-126467600D03*
X132219000Y-126467600D03*
D26*
X131579000Y-120997600D03*
D27*
X131579000Y-123197600D03*
D25*
X133489000Y-126467600D03*
D24*
X132179000Y-120747600D03*
D23*
X131579000Y-123447600D03*
X126118000Y-142171000D03*
X126118000Y-141321000D03*
X126118000Y-143021000D03*
X123818000Y-142171000D03*
X123818000Y-141321000D03*
X123818000Y-143021000D03*
X124968000Y-143021000D03*
X124968000Y-141321000D03*
D24*
X126848000Y-144871000D03*
X123088000Y-144871000D03*
X125568000Y-144871000D03*
D25*
X125608000Y-139151000D03*
X126878000Y-139151000D03*
X124328000Y-139151000D03*
D26*
X124968000Y-144621000D03*
D27*
X124968000Y-142421000D03*
D25*
X123058000Y-139151000D03*
D24*
X124368000Y-144871000D03*
D23*
X124968000Y-142171000D03*
X132722000Y-142171000D03*
X132722000Y-141321000D03*
X132722000Y-143021000D03*
X130422000Y-142171000D03*
X130422000Y-141321000D03*
X130422000Y-143021000D03*
X131572000Y-143021000D03*
X131572000Y-141321000D03*
D24*
X133452000Y-144871000D03*
X129692000Y-144871000D03*
X132172000Y-144871000D03*
D25*
X132212000Y-139151000D03*
X133482000Y-139151000D03*
X130932000Y-139151000D03*
D26*
X131572000Y-144621000D03*
D27*
X131572000Y-142421000D03*
D25*
X129662000Y-139151000D03*
D24*
X130972000Y-144871000D03*
D23*
X131572000Y-142171000D03*
D28*
X145569900Y-144408400D03*
X147469900Y-144408400D03*
X146519900Y-142408400D03*
D29*
X84582000Y-100826000D03*
X84582000Y-99326000D03*
D30*
X173367000Y-67818000D03*
X174867000Y-67818000D03*
D29*
X169329100Y-140664500D03*
X169329100Y-142164500D03*
X146273300Y-127997300D03*
X146273300Y-129497300D03*
X114079000Y-126382600D03*
X114079000Y-127882600D03*
X115829000Y-126382600D03*
X115829000Y-127882600D03*
D30*
X113579000Y-131132600D03*
X112079000Y-131132600D03*
D29*
X117579000Y-126382600D03*
X117579000Y-127882600D03*
D31*
X141809000Y-131242600D03*
D32*
X141809000Y-135377600D03*
D31*
X136849000Y-131242600D03*
D32*
X136849000Y-135377600D03*
D30*
X147968400Y-139509500D03*
X146468400Y-139509500D03*
D29*
X150173300Y-118997300D03*
X150173300Y-117497300D03*
X146973300Y-121897300D03*
X146973300Y-123397300D03*
X149873300Y-129497300D03*
X149873300Y-127997300D03*
D33*
X84582000Y-104775000D03*
X169672000Y-67818000D03*
X169329100Y-138430000D03*
X148082000Y-128016000D03*
D34*
X143637000Y-104775000D03*
X143637000Y-97155000D03*
X143637000Y-89535000D03*
X92837000Y-100965000D03*
X92837000Y-97155000D03*
X92837000Y-93345000D03*
D35*
X92837000Y-104775000D03*
X92837000Y-89535000D03*
D36*
X117669000Y-130340100D03*
X117669000Y-130975100D03*
X117669000Y-131610100D03*
X117669000Y-132245100D03*
X117669000Y-132880100D03*
X117669000Y-133515100D03*
X117669000Y-134150100D03*
X117669000Y-134785100D03*
X122869000Y-134785100D03*
X122869000Y-134150100D03*
X122869000Y-133515100D03*
X122869000Y-132880100D03*
X122869000Y-132245100D03*
X122869000Y-131610100D03*
X122869000Y-130975100D03*
X122869000Y-130340100D03*
D34*
X169672000Y-127000000D03*
X177292000Y-127000000D03*
X184912000Y-127000000D03*
X173482000Y-76200000D03*
X177292000Y-76200000D03*
X181102000Y-76200000D03*
D35*
X169672000Y-76200000D03*
X184912000Y-76200000D03*
D37*
X159323300Y-119447300D03*
D38*
X153023300Y-119447300D03*
X153023300Y-121747300D03*
X153023300Y-117147300D03*
D39*
X156173300Y-127647300D03*
D40*
X156173300Y-130187300D03*
X156173300Y-132727300D03*
D41*
X165965400Y-145215400D03*
X165965400Y-144075400D03*
X165965400Y-142935400D03*
X165965400Y-141795400D03*
X165965400Y-140655400D03*
D42*
X159665400Y-142935400D03*
M02*
