M48
;DRILL file {KiCad 4.0.6} date Sunday, 01 October 2017 'PMt' 13:46:02
;FORMAT={-:-/ absolute / metric / decimal}
FMAT,2
METRIC,TZ
T1C0.400
T2C1.020
T3C1.200
T4C1.400
T5C1.570
%
G90
G05
M71
T1
X106.553Y-141.097
X110.871Y-131.064
X117.602Y-135.89
X123.698Y-136.017
X124.333Y-130.302
X124.333Y-131.445
X127.Y-127.889
X129.667Y-137.541
X133.477Y-128.143
X136.271Y-136.779
X140.335Y-136.906
X144.653Y-127.
X144.78Y-135.128
X145.415Y-122.682
X147.447Y-145.923
X149.86Y-109.601
X150.368Y-124.714
X151.892Y-125.857
X153.162Y-145.923
X172.466Y-147.32
X174.117Y-132.842
T2
X92.837Y-93.345
X92.837Y-97.155
X92.837Y-100.965
X143.637Y-89.535
X143.637Y-97.155
X143.637Y-104.775
X169.672Y-127.
X173.482Y-76.2
X177.292Y-76.2
X177.292Y-127.
X181.102Y-76.2
X184.912Y-127.
T3
X113.249Y-121.383
X115.789Y-121.383
X118.329Y-121.383
X156.173Y-127.647
X156.173Y-130.187
X156.173Y-132.727
T4
X90.512Y-123.444
X90.512Y-131.064
X96.012Y-123.444
X96.012Y-131.064
X96.144Y-70.35
X96.144Y-75.85
X104.144Y-70.35
X104.144Y-75.85
X112.144Y-70.35
X112.144Y-75.85
X120.144Y-70.35
X120.144Y-75.85
X128.144Y-70.35
X128.144Y-75.85
X136.144Y-70.35
X136.144Y-75.85
X153.309Y-67.745
X153.309Y-75.745
X153.309Y-83.745
X153.309Y-91.745
X158.809Y-67.745
X158.809Y-75.745
X158.809Y-83.745
X158.809Y-91.745
X179.251Y-139.192
X179.251Y-144.692
X187.251Y-139.192
X187.251Y-144.692
X195.251Y-139.192
X195.251Y-144.692
X197.902Y-82.01
X197.902Y-90.01
X197.902Y-98.01
X197.902Y-106.01
X197.902Y-114.01
X197.902Y-122.01
X203.251Y-139.192
X203.251Y-144.692
X203.402Y-82.01
X203.402Y-90.01
X203.402Y-98.01
X203.402Y-106.01
X203.402Y-114.01
X203.402Y-122.01
T5
X92.837Y-89.535
X92.837Y-104.775
X169.672Y-76.2
X184.912Y-76.2
T0
M30
