G04 #@! TF.FileFunction,Copper,L2,Bot,Signal*
%FSLAX46Y46*%
G04 Gerber Fmt 4.6, Leading zero omitted, Abs format (unit mm)*
G04 Created by KiCad (PCBNEW 4.0.6) date Fri Sep  8 02:15:48 2017*
%MOMM*%
%LPD*%
G01*
G04 APERTURE LIST*
%ADD10C,0.100000*%
%ADD11R,2.000000X2.600000*%
%ADD12O,2.000000X2.600000*%
%ADD13R,2.800000X2.800000*%
%ADD14C,2.800000*%
%ADD15C,1.270000*%
%ADD16C,1.930000*%
%ADD17R,2.600000X2.000000*%
%ADD18O,2.600000X2.000000*%
%ADD19C,0.600000*%
%ADD20C,0.200000*%
%ADD21C,0.254000*%
G04 APERTURE END LIST*
D10*
D11*
X118329000Y-121382600D03*
D12*
X115789000Y-121382600D03*
X113249000Y-121382600D03*
D13*
X197902000Y-122010000D03*
D14*
X203402000Y-122010000D03*
D13*
X197902000Y-114010000D03*
D14*
X203402000Y-114010000D03*
D13*
X197902000Y-106010000D03*
D14*
X203402000Y-106010000D03*
D13*
X197902000Y-98010000D03*
D14*
X203402000Y-98010000D03*
D13*
X197902000Y-90010000D03*
D14*
X203402000Y-90010000D03*
D13*
X197902000Y-82010000D03*
D14*
X203402000Y-82010000D03*
D13*
X153309000Y-91745000D03*
D14*
X158809000Y-91745000D03*
D13*
X153309000Y-83745000D03*
D14*
X158809000Y-83745000D03*
D13*
X153309000Y-75745000D03*
D14*
X158809000Y-75745000D03*
D13*
X153309000Y-67745000D03*
D14*
X158809000Y-67745000D03*
D13*
X179251000Y-139192000D03*
D14*
X179251000Y-144692000D03*
D13*
X187251000Y-139192000D03*
D14*
X187251000Y-144692000D03*
D13*
X195251000Y-139192000D03*
D14*
X195251000Y-144692000D03*
D13*
X203251000Y-139192000D03*
D14*
X203251000Y-144692000D03*
D13*
X136144000Y-75850000D03*
D14*
X136144000Y-70350000D03*
D13*
X128144000Y-75850000D03*
D14*
X128144000Y-70350000D03*
D13*
X120144000Y-75850000D03*
D14*
X120144000Y-70350000D03*
D13*
X112144000Y-75850000D03*
D14*
X112144000Y-70350000D03*
D13*
X104144000Y-75850000D03*
D14*
X104144000Y-70350000D03*
D13*
X96144000Y-75850000D03*
D14*
X96144000Y-70350000D03*
D13*
X96012000Y-123444000D03*
D14*
X90512000Y-123444000D03*
D13*
X96012000Y-131064000D03*
D14*
X90512000Y-131064000D03*
D15*
X143637000Y-104775000D03*
X143637000Y-97155000D03*
X143637000Y-89535000D03*
X92837000Y-100965000D03*
X92837000Y-97155000D03*
X92837000Y-93345000D03*
D16*
X92837000Y-104775000D03*
X92837000Y-89535000D03*
D15*
X169672000Y-127000000D03*
X177292000Y-127000000D03*
X184912000Y-127000000D03*
X173482000Y-76200000D03*
X177292000Y-76200000D03*
X181102000Y-76200000D03*
D16*
X169672000Y-76200000D03*
X184912000Y-76200000D03*
D17*
X156173300Y-127647300D03*
D18*
X156173300Y-130187300D03*
X156173300Y-132727300D03*
D19*
X145415000Y-122682000D03*
X151892000Y-125857000D03*
X150368000Y-124714000D03*
X106553000Y-141097000D03*
X110871000Y-131064000D03*
X117602000Y-135890000D03*
X149860000Y-109601000D03*
X144780000Y-135128000D03*
X174117000Y-132842000D03*
X153162000Y-145923000D03*
X147447000Y-145923000D03*
X172466000Y-147320000D03*
X127000000Y-127889000D03*
X124333000Y-130302000D03*
X133477000Y-128143000D03*
X124333000Y-131445000D03*
X129667000Y-137541000D03*
X123698000Y-136017000D03*
X144653000Y-127000000D03*
X140335000Y-136906000D03*
X136271000Y-136779000D03*
D20*
X127000000Y-129921000D02*
X127000000Y-127889000D01*
X126619000Y-130302000D02*
X127000000Y-129921000D01*
X124333000Y-130302000D02*
X126619000Y-130302000D01*
X130175000Y-131445000D02*
X133477000Y-128143000D01*
X124333000Y-131445000D02*
X130175000Y-131445000D01*
X129667000Y-137033000D02*
X129667000Y-137541000D01*
X129032000Y-136398000D02*
X129667000Y-137033000D01*
X124079000Y-136398000D02*
X129032000Y-136398000D01*
X123698000Y-136017000D02*
X124079000Y-136398000D01*
X141605000Y-99187000D02*
X143637000Y-97155000D01*
X141605000Y-123952000D02*
X141605000Y-99187000D01*
X144653000Y-127000000D02*
X141605000Y-123952000D01*
X156173300Y-130187300D02*
X174104700Y-130187300D01*
X174104700Y-130187300D02*
X177292000Y-127000000D01*
X136398000Y-136906000D02*
X140335000Y-136906000D01*
X136271000Y-136779000D02*
X136398000Y-136906000D01*
D21*
G36*
X208915000Y-148971000D02*
X81026000Y-148971000D01*
X81026000Y-136202167D01*
X122762838Y-136202167D01*
X122904883Y-136545943D01*
X123167673Y-136809192D01*
X123511201Y-136951838D01*
X123610462Y-136951924D01*
X123731801Y-137033000D01*
X123797728Y-137077051D01*
X124079000Y-137133000D01*
X128727554Y-137133000D01*
X128795711Y-137201158D01*
X128732162Y-137354201D01*
X128731838Y-137726167D01*
X128873883Y-138069943D01*
X129136673Y-138333192D01*
X129480201Y-138475838D01*
X129852167Y-138476162D01*
X130195943Y-138334117D01*
X130459192Y-138071327D01*
X130601838Y-137727799D01*
X130602162Y-137355833D01*
X130460117Y-137012057D01*
X130412311Y-136964167D01*
X135335838Y-136964167D01*
X135477883Y-137307943D01*
X135740673Y-137571192D01*
X136084201Y-137713838D01*
X136456167Y-137714162D01*
X136633233Y-137641000D01*
X139747581Y-137641000D01*
X139804673Y-137698192D01*
X140148201Y-137840838D01*
X140520167Y-137841162D01*
X140639148Y-137792000D01*
X177203560Y-137792000D01*
X177203560Y-140592000D01*
X177247838Y-140827317D01*
X177386910Y-141043441D01*
X177599110Y-141188431D01*
X177851000Y-141239440D01*
X180651000Y-141239440D01*
X180886317Y-141195162D01*
X181102441Y-141056090D01*
X181247431Y-140843890D01*
X181298440Y-140592000D01*
X181298440Y-137792000D01*
X185203560Y-137792000D01*
X185203560Y-140592000D01*
X185247838Y-140827317D01*
X185386910Y-141043441D01*
X185599110Y-141188431D01*
X185851000Y-141239440D01*
X188651000Y-141239440D01*
X188886317Y-141195162D01*
X189102441Y-141056090D01*
X189247431Y-140843890D01*
X189298440Y-140592000D01*
X189298440Y-137792000D01*
X193203560Y-137792000D01*
X193203560Y-140592000D01*
X193247838Y-140827317D01*
X193386910Y-141043441D01*
X193599110Y-141188431D01*
X193851000Y-141239440D01*
X196651000Y-141239440D01*
X196886317Y-141195162D01*
X197102441Y-141056090D01*
X197247431Y-140843890D01*
X197298440Y-140592000D01*
X197298440Y-137792000D01*
X201203560Y-137792000D01*
X201203560Y-140592000D01*
X201247838Y-140827317D01*
X201386910Y-141043441D01*
X201599110Y-141188431D01*
X201851000Y-141239440D01*
X204651000Y-141239440D01*
X204886317Y-141195162D01*
X205102441Y-141056090D01*
X205247431Y-140843890D01*
X205298440Y-140592000D01*
X205298440Y-137792000D01*
X205254162Y-137556683D01*
X205115090Y-137340559D01*
X204902890Y-137195569D01*
X204651000Y-137144560D01*
X201851000Y-137144560D01*
X201615683Y-137188838D01*
X201399559Y-137327910D01*
X201254569Y-137540110D01*
X201203560Y-137792000D01*
X197298440Y-137792000D01*
X197254162Y-137556683D01*
X197115090Y-137340559D01*
X196902890Y-137195569D01*
X196651000Y-137144560D01*
X193851000Y-137144560D01*
X193615683Y-137188838D01*
X193399559Y-137327910D01*
X193254569Y-137540110D01*
X193203560Y-137792000D01*
X189298440Y-137792000D01*
X189254162Y-137556683D01*
X189115090Y-137340559D01*
X188902890Y-137195569D01*
X188651000Y-137144560D01*
X185851000Y-137144560D01*
X185615683Y-137188838D01*
X185399559Y-137327910D01*
X185254569Y-137540110D01*
X185203560Y-137792000D01*
X181298440Y-137792000D01*
X181254162Y-137556683D01*
X181115090Y-137340559D01*
X180902890Y-137195569D01*
X180651000Y-137144560D01*
X177851000Y-137144560D01*
X177615683Y-137188838D01*
X177399559Y-137327910D01*
X177254569Y-137540110D01*
X177203560Y-137792000D01*
X140639148Y-137792000D01*
X140863943Y-137699117D01*
X141127192Y-137436327D01*
X141269838Y-137092799D01*
X141270162Y-136720833D01*
X141128117Y-136377057D01*
X140865327Y-136113808D01*
X140521799Y-135971162D01*
X140149833Y-135970838D01*
X139806057Y-136112883D01*
X139747838Y-136171000D01*
X136985198Y-136171000D01*
X136801327Y-135986808D01*
X136457799Y-135844162D01*
X136085833Y-135843838D01*
X135742057Y-135985883D01*
X135478808Y-136248673D01*
X135336162Y-136592201D01*
X135335838Y-136964167D01*
X130412311Y-136964167D01*
X130382335Y-136934139D01*
X130346051Y-136751728D01*
X130324317Y-136719201D01*
X130186724Y-136513277D01*
X129551723Y-135878277D01*
X129313272Y-135718949D01*
X129032000Y-135663000D01*
X124563402Y-135663000D01*
X124491117Y-135488057D01*
X124228327Y-135224808D01*
X123884799Y-135082162D01*
X123512833Y-135081838D01*
X123169057Y-135223883D01*
X122905808Y-135486673D01*
X122763162Y-135830201D01*
X122762838Y-136202167D01*
X81026000Y-136202167D01*
X81026000Y-129664000D01*
X93964560Y-129664000D01*
X93964560Y-132464000D01*
X94008838Y-132699317D01*
X94147910Y-132915441D01*
X94360110Y-133060431D01*
X94612000Y-133111440D01*
X97412000Y-133111440D01*
X97647317Y-133067162D01*
X97863441Y-132928090D01*
X98008431Y-132715890D01*
X98059440Y-132464000D01*
X98059440Y-130487167D01*
X123397838Y-130487167D01*
X123539883Y-130830943D01*
X123582210Y-130873344D01*
X123540808Y-130914673D01*
X123398162Y-131258201D01*
X123397838Y-131630167D01*
X123539883Y-131973943D01*
X123802673Y-132237192D01*
X124146201Y-132379838D01*
X124518167Y-132380162D01*
X124861943Y-132238117D01*
X124920162Y-132180000D01*
X130175000Y-132180000D01*
X130456272Y-132124051D01*
X130694723Y-131964723D01*
X132472146Y-130187300D01*
X154200391Y-130187300D01*
X154324848Y-130812987D01*
X154679271Y-131343420D01*
X155209704Y-131697843D01*
X155835391Y-131822300D01*
X156511209Y-131822300D01*
X157136896Y-131697843D01*
X157667329Y-131343420D01*
X157948712Y-130922300D01*
X174104700Y-130922300D01*
X174385972Y-130866351D01*
X174624423Y-130707023D01*
X177061647Y-128269799D01*
X177543510Y-128270220D01*
X178010458Y-128077282D01*
X178368026Y-127720337D01*
X178561779Y-127253727D01*
X178562220Y-126748490D01*
X178369282Y-126281542D01*
X178012337Y-125923974D01*
X177545727Y-125730221D01*
X177040490Y-125729780D01*
X176573542Y-125922718D01*
X176215974Y-126279663D01*
X176022221Y-126746273D01*
X176021798Y-127230755D01*
X173800254Y-129452300D01*
X157948712Y-129452300D01*
X157782207Y-129203108D01*
X157924741Y-129111390D01*
X158069731Y-128899190D01*
X158120740Y-128647300D01*
X158120740Y-127251510D01*
X168401780Y-127251510D01*
X168594718Y-127718458D01*
X168951663Y-128076026D01*
X169418273Y-128269779D01*
X169923510Y-128270220D01*
X170390458Y-128077282D01*
X170748026Y-127720337D01*
X170941779Y-127253727D01*
X170942220Y-126748490D01*
X170749282Y-126281542D01*
X170392337Y-125923974D01*
X169925727Y-125730221D01*
X169420490Y-125729780D01*
X168953542Y-125922718D01*
X168595974Y-126279663D01*
X168402221Y-126746273D01*
X168401780Y-127251510D01*
X158120740Y-127251510D01*
X158120740Y-126647300D01*
X158076462Y-126411983D01*
X157937390Y-126195859D01*
X157725190Y-126050869D01*
X157473300Y-125999860D01*
X154873300Y-125999860D01*
X154637983Y-126044138D01*
X154421859Y-126183210D01*
X154276869Y-126395410D01*
X154225860Y-126647300D01*
X154225860Y-128647300D01*
X154270138Y-128882617D01*
X154409210Y-129098741D01*
X154563629Y-129204251D01*
X154324848Y-129561613D01*
X154200391Y-130187300D01*
X132472146Y-130187300D01*
X133581355Y-129078092D01*
X133662167Y-129078162D01*
X134005943Y-128936117D01*
X134269192Y-128673327D01*
X134411838Y-128329799D01*
X134412162Y-127957833D01*
X134270117Y-127614057D01*
X134007327Y-127350808D01*
X133663799Y-127208162D01*
X133291833Y-127207838D01*
X132948057Y-127349883D01*
X132684808Y-127612673D01*
X132542162Y-127956201D01*
X132542090Y-128038463D01*
X129870554Y-130710000D01*
X127250446Y-130710000D01*
X127519723Y-130440724D01*
X127679051Y-130202272D01*
X127696046Y-130116833D01*
X127735000Y-129921000D01*
X127735000Y-128476419D01*
X127792192Y-128419327D01*
X127934838Y-128075799D01*
X127935162Y-127703833D01*
X127793117Y-127360057D01*
X127530327Y-127096808D01*
X127186799Y-126954162D01*
X126814833Y-126953838D01*
X126471057Y-127095883D01*
X126207808Y-127358673D01*
X126065162Y-127702201D01*
X126064838Y-128074167D01*
X126206883Y-128417943D01*
X126265000Y-128476162D01*
X126265000Y-129567000D01*
X124920419Y-129567000D01*
X124863327Y-129509808D01*
X124519799Y-129367162D01*
X124147833Y-129366838D01*
X123804057Y-129508883D01*
X123540808Y-129771673D01*
X123398162Y-130115201D01*
X123397838Y-130487167D01*
X98059440Y-130487167D01*
X98059440Y-129664000D01*
X98015162Y-129428683D01*
X97876090Y-129212559D01*
X97663890Y-129067569D01*
X97412000Y-129016560D01*
X94612000Y-129016560D01*
X94376683Y-129060838D01*
X94160559Y-129199910D01*
X94015569Y-129412110D01*
X93964560Y-129664000D01*
X81026000Y-129664000D01*
X81026000Y-122044000D01*
X93964560Y-122044000D01*
X93964560Y-124844000D01*
X94008838Y-125079317D01*
X94147910Y-125295441D01*
X94360110Y-125440431D01*
X94612000Y-125491440D01*
X97412000Y-125491440D01*
X97647317Y-125447162D01*
X97863441Y-125308090D01*
X98008431Y-125095890D01*
X98059440Y-124844000D01*
X98059440Y-122044000D01*
X98015162Y-121808683D01*
X97876090Y-121592559D01*
X97663890Y-121447569D01*
X97412000Y-121396560D01*
X94612000Y-121396560D01*
X94376683Y-121440838D01*
X94160559Y-121579910D01*
X94015569Y-121792110D01*
X93964560Y-122044000D01*
X81026000Y-122044000D01*
X81026000Y-121044691D01*
X111614000Y-121044691D01*
X111614000Y-121720509D01*
X111738457Y-122346196D01*
X112092880Y-122876629D01*
X112623313Y-123231052D01*
X113249000Y-123355509D01*
X113874687Y-123231052D01*
X114405120Y-122876629D01*
X114519000Y-122706195D01*
X114632880Y-122876629D01*
X115163313Y-123231052D01*
X115789000Y-123355509D01*
X116414687Y-123231052D01*
X116773192Y-122991507D01*
X116864910Y-123134041D01*
X117077110Y-123279031D01*
X117329000Y-123330040D01*
X119329000Y-123330040D01*
X119564317Y-123285762D01*
X119780441Y-123146690D01*
X119925431Y-122934490D01*
X119976440Y-122682600D01*
X119976440Y-120082600D01*
X119932162Y-119847283D01*
X119793090Y-119631159D01*
X119580890Y-119486169D01*
X119329000Y-119435160D01*
X117329000Y-119435160D01*
X117093683Y-119479438D01*
X116877559Y-119618510D01*
X116772049Y-119772929D01*
X116414687Y-119534148D01*
X115789000Y-119409691D01*
X115163313Y-119534148D01*
X114632880Y-119888571D01*
X114519000Y-120059005D01*
X114405120Y-119888571D01*
X113874687Y-119534148D01*
X113249000Y-119409691D01*
X112623313Y-119534148D01*
X112092880Y-119888571D01*
X111738457Y-120419004D01*
X111614000Y-121044691D01*
X81026000Y-121044691D01*
X81026000Y-105091863D01*
X91236723Y-105091863D01*
X91479795Y-105680143D01*
X91929489Y-106130623D01*
X92517344Y-106374722D01*
X93153863Y-106375277D01*
X93742143Y-106132205D01*
X94192623Y-105682511D01*
X94436722Y-105094656D01*
X94437277Y-104458137D01*
X94194205Y-103869857D01*
X93744511Y-103419377D01*
X93156656Y-103175278D01*
X92520137Y-103174723D01*
X91931857Y-103417795D01*
X91481377Y-103867489D01*
X91237278Y-104455344D01*
X91236723Y-105091863D01*
X81026000Y-105091863D01*
X81026000Y-101216510D01*
X91566780Y-101216510D01*
X91759718Y-101683458D01*
X92116663Y-102041026D01*
X92583273Y-102234779D01*
X93088510Y-102235220D01*
X93555458Y-102042282D01*
X93913026Y-101685337D01*
X94106779Y-101218727D01*
X94107220Y-100713490D01*
X93914282Y-100246542D01*
X93557337Y-99888974D01*
X93090727Y-99695221D01*
X92585490Y-99694780D01*
X92118542Y-99887718D01*
X91760974Y-100244663D01*
X91567221Y-100711273D01*
X91566780Y-101216510D01*
X81026000Y-101216510D01*
X81026000Y-99187000D01*
X140870000Y-99187000D01*
X140870000Y-123952000D01*
X140890974Y-124057440D01*
X140925949Y-124233272D01*
X141085277Y-124471723D01*
X143717908Y-127104355D01*
X143717838Y-127185167D01*
X143859883Y-127528943D01*
X144122673Y-127792192D01*
X144466201Y-127934838D01*
X144838167Y-127935162D01*
X145181943Y-127793117D01*
X145445192Y-127530327D01*
X145587838Y-127186799D01*
X145588162Y-126814833D01*
X145446117Y-126471057D01*
X145183327Y-126207808D01*
X144839799Y-126065162D01*
X144757537Y-126065090D01*
X142340000Y-123647554D01*
X142340000Y-120610000D01*
X195854560Y-120610000D01*
X195854560Y-123410000D01*
X195898838Y-123645317D01*
X196037910Y-123861441D01*
X196250110Y-124006431D01*
X196502000Y-124057440D01*
X199302000Y-124057440D01*
X199537317Y-124013162D01*
X199753441Y-123874090D01*
X199898431Y-123661890D01*
X199949440Y-123410000D01*
X199949440Y-120610000D01*
X199905162Y-120374683D01*
X199766090Y-120158559D01*
X199553890Y-120013569D01*
X199302000Y-119962560D01*
X196502000Y-119962560D01*
X196266683Y-120006838D01*
X196050559Y-120145910D01*
X195905569Y-120358110D01*
X195854560Y-120610000D01*
X142340000Y-120610000D01*
X142340000Y-112610000D01*
X195854560Y-112610000D01*
X195854560Y-115410000D01*
X195898838Y-115645317D01*
X196037910Y-115861441D01*
X196250110Y-116006431D01*
X196502000Y-116057440D01*
X199302000Y-116057440D01*
X199537317Y-116013162D01*
X199753441Y-115874090D01*
X199898431Y-115661890D01*
X199949440Y-115410000D01*
X199949440Y-112610000D01*
X199905162Y-112374683D01*
X199766090Y-112158559D01*
X199553890Y-112013569D01*
X199302000Y-111962560D01*
X196502000Y-111962560D01*
X196266683Y-112006838D01*
X196050559Y-112145910D01*
X195905569Y-112358110D01*
X195854560Y-112610000D01*
X142340000Y-112610000D01*
X142340000Y-105026510D01*
X142366780Y-105026510D01*
X142559718Y-105493458D01*
X142916663Y-105851026D01*
X143383273Y-106044779D01*
X143888510Y-106045220D01*
X144355458Y-105852282D01*
X144713026Y-105495337D01*
X144906779Y-105028727D01*
X144907144Y-104610000D01*
X195854560Y-104610000D01*
X195854560Y-107410000D01*
X195898838Y-107645317D01*
X196037910Y-107861441D01*
X196250110Y-108006431D01*
X196502000Y-108057440D01*
X199302000Y-108057440D01*
X199537317Y-108013162D01*
X199753441Y-107874090D01*
X199898431Y-107661890D01*
X199949440Y-107410000D01*
X199949440Y-104610000D01*
X199905162Y-104374683D01*
X199766090Y-104158559D01*
X199553890Y-104013569D01*
X199302000Y-103962560D01*
X196502000Y-103962560D01*
X196266683Y-104006838D01*
X196050559Y-104145910D01*
X195905569Y-104358110D01*
X195854560Y-104610000D01*
X144907144Y-104610000D01*
X144907220Y-104523490D01*
X144714282Y-104056542D01*
X144357337Y-103698974D01*
X143890727Y-103505221D01*
X143385490Y-103504780D01*
X142918542Y-103697718D01*
X142560974Y-104054663D01*
X142367221Y-104521273D01*
X142366780Y-105026510D01*
X142340000Y-105026510D01*
X142340000Y-99491446D01*
X143406647Y-98424799D01*
X143888510Y-98425220D01*
X144355458Y-98232282D01*
X144713026Y-97875337D01*
X144906779Y-97408727D01*
X144907220Y-96903490D01*
X144785954Y-96610000D01*
X195854560Y-96610000D01*
X195854560Y-99410000D01*
X195898838Y-99645317D01*
X196037910Y-99861441D01*
X196250110Y-100006431D01*
X196502000Y-100057440D01*
X199302000Y-100057440D01*
X199537317Y-100013162D01*
X199753441Y-99874090D01*
X199898431Y-99661890D01*
X199949440Y-99410000D01*
X199949440Y-96610000D01*
X199905162Y-96374683D01*
X199766090Y-96158559D01*
X199553890Y-96013569D01*
X199302000Y-95962560D01*
X196502000Y-95962560D01*
X196266683Y-96006838D01*
X196050559Y-96145910D01*
X195905569Y-96358110D01*
X195854560Y-96610000D01*
X144785954Y-96610000D01*
X144714282Y-96436542D01*
X144357337Y-96078974D01*
X143890727Y-95885221D01*
X143385490Y-95884780D01*
X142918542Y-96077718D01*
X142560974Y-96434663D01*
X142367221Y-96901273D01*
X142366798Y-97385755D01*
X141085277Y-98667277D01*
X140925949Y-98905728D01*
X140870000Y-99187000D01*
X81026000Y-99187000D01*
X81026000Y-97406510D01*
X91566780Y-97406510D01*
X91759718Y-97873458D01*
X92116663Y-98231026D01*
X92583273Y-98424779D01*
X93088510Y-98425220D01*
X93555458Y-98232282D01*
X93913026Y-97875337D01*
X94106779Y-97408727D01*
X94107220Y-96903490D01*
X93914282Y-96436542D01*
X93557337Y-96078974D01*
X93090727Y-95885221D01*
X92585490Y-95884780D01*
X92118542Y-96077718D01*
X91760974Y-96434663D01*
X91567221Y-96901273D01*
X91566780Y-97406510D01*
X81026000Y-97406510D01*
X81026000Y-90345000D01*
X151261560Y-90345000D01*
X151261560Y-93145000D01*
X151305838Y-93380317D01*
X151444910Y-93596441D01*
X151657110Y-93741431D01*
X151909000Y-93792440D01*
X154709000Y-93792440D01*
X154944317Y-93748162D01*
X155160441Y-93609090D01*
X155305431Y-93396890D01*
X155356440Y-93145000D01*
X155356440Y-90345000D01*
X155312162Y-90109683D01*
X155173090Y-89893559D01*
X154960890Y-89748569D01*
X154709000Y-89697560D01*
X151909000Y-89697560D01*
X151673683Y-89741838D01*
X151457559Y-89880910D01*
X151312569Y-90093110D01*
X151261560Y-90345000D01*
X81026000Y-90345000D01*
X81026000Y-88610000D01*
X195854560Y-88610000D01*
X195854560Y-91410000D01*
X195898838Y-91645317D01*
X196037910Y-91861441D01*
X196250110Y-92006431D01*
X196502000Y-92057440D01*
X199302000Y-92057440D01*
X199537317Y-92013162D01*
X199753441Y-91874090D01*
X199898431Y-91661890D01*
X199949440Y-91410000D01*
X199949440Y-88610000D01*
X199905162Y-88374683D01*
X199766090Y-88158559D01*
X199553890Y-88013569D01*
X199302000Y-87962560D01*
X196502000Y-87962560D01*
X196266683Y-88006838D01*
X196050559Y-88145910D01*
X195905569Y-88358110D01*
X195854560Y-88610000D01*
X81026000Y-88610000D01*
X81026000Y-82345000D01*
X151261560Y-82345000D01*
X151261560Y-85145000D01*
X151305838Y-85380317D01*
X151444910Y-85596441D01*
X151657110Y-85741431D01*
X151909000Y-85792440D01*
X154709000Y-85792440D01*
X154944317Y-85748162D01*
X155160441Y-85609090D01*
X155305431Y-85396890D01*
X155356440Y-85145000D01*
X155356440Y-82345000D01*
X155312162Y-82109683D01*
X155173090Y-81893559D01*
X154960890Y-81748569D01*
X154709000Y-81697560D01*
X151909000Y-81697560D01*
X151673683Y-81741838D01*
X151457559Y-81880910D01*
X151312569Y-82093110D01*
X151261560Y-82345000D01*
X81026000Y-82345000D01*
X81026000Y-80610000D01*
X195854560Y-80610000D01*
X195854560Y-83410000D01*
X195898838Y-83645317D01*
X196037910Y-83861441D01*
X196250110Y-84006431D01*
X196502000Y-84057440D01*
X199302000Y-84057440D01*
X199537317Y-84013162D01*
X199753441Y-83874090D01*
X199898431Y-83661890D01*
X199949440Y-83410000D01*
X199949440Y-80610000D01*
X199905162Y-80374683D01*
X199766090Y-80158559D01*
X199553890Y-80013569D01*
X199302000Y-79962560D01*
X196502000Y-79962560D01*
X196266683Y-80006838D01*
X196050559Y-80145910D01*
X195905569Y-80358110D01*
X195854560Y-80610000D01*
X81026000Y-80610000D01*
X81026000Y-74450000D01*
X94096560Y-74450000D01*
X94096560Y-77250000D01*
X94140838Y-77485317D01*
X94279910Y-77701441D01*
X94492110Y-77846431D01*
X94744000Y-77897440D01*
X97544000Y-77897440D01*
X97779317Y-77853162D01*
X97995441Y-77714090D01*
X98140431Y-77501890D01*
X98191440Y-77250000D01*
X98191440Y-74450000D01*
X102096560Y-74450000D01*
X102096560Y-77250000D01*
X102140838Y-77485317D01*
X102279910Y-77701441D01*
X102492110Y-77846431D01*
X102744000Y-77897440D01*
X105544000Y-77897440D01*
X105779317Y-77853162D01*
X105995441Y-77714090D01*
X106140431Y-77501890D01*
X106191440Y-77250000D01*
X106191440Y-74450000D01*
X110096560Y-74450000D01*
X110096560Y-77250000D01*
X110140838Y-77485317D01*
X110279910Y-77701441D01*
X110492110Y-77846431D01*
X110744000Y-77897440D01*
X113544000Y-77897440D01*
X113779317Y-77853162D01*
X113995441Y-77714090D01*
X114140431Y-77501890D01*
X114191440Y-77250000D01*
X114191440Y-74450000D01*
X118096560Y-74450000D01*
X118096560Y-77250000D01*
X118140838Y-77485317D01*
X118279910Y-77701441D01*
X118492110Y-77846431D01*
X118744000Y-77897440D01*
X121544000Y-77897440D01*
X121779317Y-77853162D01*
X121995441Y-77714090D01*
X122140431Y-77501890D01*
X122191440Y-77250000D01*
X122191440Y-74450000D01*
X126096560Y-74450000D01*
X126096560Y-77250000D01*
X126140838Y-77485317D01*
X126279910Y-77701441D01*
X126492110Y-77846431D01*
X126744000Y-77897440D01*
X129544000Y-77897440D01*
X129779317Y-77853162D01*
X129995441Y-77714090D01*
X130140431Y-77501890D01*
X130191440Y-77250000D01*
X130191440Y-74450000D01*
X134096560Y-74450000D01*
X134096560Y-77250000D01*
X134140838Y-77485317D01*
X134279910Y-77701441D01*
X134492110Y-77846431D01*
X134744000Y-77897440D01*
X137544000Y-77897440D01*
X137779317Y-77853162D01*
X137995441Y-77714090D01*
X138140431Y-77501890D01*
X138191440Y-77250000D01*
X138191440Y-74450000D01*
X138171683Y-74345000D01*
X151261560Y-74345000D01*
X151261560Y-77145000D01*
X151305838Y-77380317D01*
X151444910Y-77596441D01*
X151657110Y-77741431D01*
X151909000Y-77792440D01*
X154709000Y-77792440D01*
X154944317Y-77748162D01*
X155160441Y-77609090D01*
X155305431Y-77396890D01*
X155356440Y-77145000D01*
X155356440Y-76516863D01*
X168071723Y-76516863D01*
X168314795Y-77105143D01*
X168764489Y-77555623D01*
X169352344Y-77799722D01*
X169988863Y-77800277D01*
X170577143Y-77557205D01*
X171027623Y-77107511D01*
X171271722Y-76519656D01*
X171271781Y-76451510D01*
X172211780Y-76451510D01*
X172404718Y-76918458D01*
X172761663Y-77276026D01*
X173228273Y-77469779D01*
X173733510Y-77470220D01*
X174200458Y-77277282D01*
X174558026Y-76920337D01*
X174751779Y-76453727D01*
X174751780Y-76451510D01*
X176021780Y-76451510D01*
X176214718Y-76918458D01*
X176571663Y-77276026D01*
X177038273Y-77469779D01*
X177543510Y-77470220D01*
X178010458Y-77277282D01*
X178368026Y-76920337D01*
X178561779Y-76453727D01*
X178562220Y-75948490D01*
X178369282Y-75481542D01*
X178012337Y-75123974D01*
X177545727Y-74930221D01*
X177040490Y-74929780D01*
X176573542Y-75122718D01*
X176215974Y-75479663D01*
X176022221Y-75946273D01*
X176021780Y-76451510D01*
X174751780Y-76451510D01*
X174752220Y-75948490D01*
X174559282Y-75481542D01*
X174202337Y-75123974D01*
X173735727Y-74930221D01*
X173230490Y-74929780D01*
X172763542Y-75122718D01*
X172405974Y-75479663D01*
X172212221Y-75946273D01*
X172211780Y-76451510D01*
X171271781Y-76451510D01*
X171272277Y-75883137D01*
X171029205Y-75294857D01*
X170579511Y-74844377D01*
X169991656Y-74600278D01*
X169355137Y-74599723D01*
X168766857Y-74842795D01*
X168316377Y-75292489D01*
X168072278Y-75880344D01*
X168071723Y-76516863D01*
X155356440Y-76516863D01*
X155356440Y-74345000D01*
X155312162Y-74109683D01*
X155173090Y-73893559D01*
X154960890Y-73748569D01*
X154709000Y-73697560D01*
X151909000Y-73697560D01*
X151673683Y-73741838D01*
X151457559Y-73880910D01*
X151312569Y-74093110D01*
X151261560Y-74345000D01*
X138171683Y-74345000D01*
X138147162Y-74214683D01*
X138008090Y-73998559D01*
X137795890Y-73853569D01*
X137544000Y-73802560D01*
X134744000Y-73802560D01*
X134508683Y-73846838D01*
X134292559Y-73985910D01*
X134147569Y-74198110D01*
X134096560Y-74450000D01*
X130191440Y-74450000D01*
X130147162Y-74214683D01*
X130008090Y-73998559D01*
X129795890Y-73853569D01*
X129544000Y-73802560D01*
X126744000Y-73802560D01*
X126508683Y-73846838D01*
X126292559Y-73985910D01*
X126147569Y-74198110D01*
X126096560Y-74450000D01*
X122191440Y-74450000D01*
X122147162Y-74214683D01*
X122008090Y-73998559D01*
X121795890Y-73853569D01*
X121544000Y-73802560D01*
X118744000Y-73802560D01*
X118508683Y-73846838D01*
X118292559Y-73985910D01*
X118147569Y-74198110D01*
X118096560Y-74450000D01*
X114191440Y-74450000D01*
X114147162Y-74214683D01*
X114008090Y-73998559D01*
X113795890Y-73853569D01*
X113544000Y-73802560D01*
X110744000Y-73802560D01*
X110508683Y-73846838D01*
X110292559Y-73985910D01*
X110147569Y-74198110D01*
X110096560Y-74450000D01*
X106191440Y-74450000D01*
X106147162Y-74214683D01*
X106008090Y-73998559D01*
X105795890Y-73853569D01*
X105544000Y-73802560D01*
X102744000Y-73802560D01*
X102508683Y-73846838D01*
X102292559Y-73985910D01*
X102147569Y-74198110D01*
X102096560Y-74450000D01*
X98191440Y-74450000D01*
X98147162Y-74214683D01*
X98008090Y-73998559D01*
X97795890Y-73853569D01*
X97544000Y-73802560D01*
X94744000Y-73802560D01*
X94508683Y-73846838D01*
X94292559Y-73985910D01*
X94147569Y-74198110D01*
X94096560Y-74450000D01*
X81026000Y-74450000D01*
X81026000Y-66345000D01*
X151261560Y-66345000D01*
X151261560Y-69145000D01*
X151305838Y-69380317D01*
X151444910Y-69596441D01*
X151657110Y-69741431D01*
X151909000Y-69792440D01*
X154709000Y-69792440D01*
X154944317Y-69748162D01*
X155160441Y-69609090D01*
X155305431Y-69396890D01*
X155356440Y-69145000D01*
X155356440Y-66345000D01*
X155312162Y-66109683D01*
X155173090Y-65893559D01*
X154960890Y-65748569D01*
X154709000Y-65697560D01*
X151909000Y-65697560D01*
X151673683Y-65741838D01*
X151457559Y-65880910D01*
X151312569Y-66093110D01*
X151261560Y-66345000D01*
X81026000Y-66345000D01*
X81026000Y-61087000D01*
X208915000Y-61087000D01*
X208915000Y-148971000D01*
X208915000Y-148971000D01*
G37*
X208915000Y-148971000D02*
X81026000Y-148971000D01*
X81026000Y-136202167D01*
X122762838Y-136202167D01*
X122904883Y-136545943D01*
X123167673Y-136809192D01*
X123511201Y-136951838D01*
X123610462Y-136951924D01*
X123731801Y-137033000D01*
X123797728Y-137077051D01*
X124079000Y-137133000D01*
X128727554Y-137133000D01*
X128795711Y-137201158D01*
X128732162Y-137354201D01*
X128731838Y-137726167D01*
X128873883Y-138069943D01*
X129136673Y-138333192D01*
X129480201Y-138475838D01*
X129852167Y-138476162D01*
X130195943Y-138334117D01*
X130459192Y-138071327D01*
X130601838Y-137727799D01*
X130602162Y-137355833D01*
X130460117Y-137012057D01*
X130412311Y-136964167D01*
X135335838Y-136964167D01*
X135477883Y-137307943D01*
X135740673Y-137571192D01*
X136084201Y-137713838D01*
X136456167Y-137714162D01*
X136633233Y-137641000D01*
X139747581Y-137641000D01*
X139804673Y-137698192D01*
X140148201Y-137840838D01*
X140520167Y-137841162D01*
X140639148Y-137792000D01*
X177203560Y-137792000D01*
X177203560Y-140592000D01*
X177247838Y-140827317D01*
X177386910Y-141043441D01*
X177599110Y-141188431D01*
X177851000Y-141239440D01*
X180651000Y-141239440D01*
X180886317Y-141195162D01*
X181102441Y-141056090D01*
X181247431Y-140843890D01*
X181298440Y-140592000D01*
X181298440Y-137792000D01*
X185203560Y-137792000D01*
X185203560Y-140592000D01*
X185247838Y-140827317D01*
X185386910Y-141043441D01*
X185599110Y-141188431D01*
X185851000Y-141239440D01*
X188651000Y-141239440D01*
X188886317Y-141195162D01*
X189102441Y-141056090D01*
X189247431Y-140843890D01*
X189298440Y-140592000D01*
X189298440Y-137792000D01*
X193203560Y-137792000D01*
X193203560Y-140592000D01*
X193247838Y-140827317D01*
X193386910Y-141043441D01*
X193599110Y-141188431D01*
X193851000Y-141239440D01*
X196651000Y-141239440D01*
X196886317Y-141195162D01*
X197102441Y-141056090D01*
X197247431Y-140843890D01*
X197298440Y-140592000D01*
X197298440Y-137792000D01*
X201203560Y-137792000D01*
X201203560Y-140592000D01*
X201247838Y-140827317D01*
X201386910Y-141043441D01*
X201599110Y-141188431D01*
X201851000Y-141239440D01*
X204651000Y-141239440D01*
X204886317Y-141195162D01*
X205102441Y-141056090D01*
X205247431Y-140843890D01*
X205298440Y-140592000D01*
X205298440Y-137792000D01*
X205254162Y-137556683D01*
X205115090Y-137340559D01*
X204902890Y-137195569D01*
X204651000Y-137144560D01*
X201851000Y-137144560D01*
X201615683Y-137188838D01*
X201399559Y-137327910D01*
X201254569Y-137540110D01*
X201203560Y-137792000D01*
X197298440Y-137792000D01*
X197254162Y-137556683D01*
X197115090Y-137340559D01*
X196902890Y-137195569D01*
X196651000Y-137144560D01*
X193851000Y-137144560D01*
X193615683Y-137188838D01*
X193399559Y-137327910D01*
X193254569Y-137540110D01*
X193203560Y-137792000D01*
X189298440Y-137792000D01*
X189254162Y-137556683D01*
X189115090Y-137340559D01*
X188902890Y-137195569D01*
X188651000Y-137144560D01*
X185851000Y-137144560D01*
X185615683Y-137188838D01*
X185399559Y-137327910D01*
X185254569Y-137540110D01*
X185203560Y-137792000D01*
X181298440Y-137792000D01*
X181254162Y-137556683D01*
X181115090Y-137340559D01*
X180902890Y-137195569D01*
X180651000Y-137144560D01*
X177851000Y-137144560D01*
X177615683Y-137188838D01*
X177399559Y-137327910D01*
X177254569Y-137540110D01*
X177203560Y-137792000D01*
X140639148Y-137792000D01*
X140863943Y-137699117D01*
X141127192Y-137436327D01*
X141269838Y-137092799D01*
X141270162Y-136720833D01*
X141128117Y-136377057D01*
X140865327Y-136113808D01*
X140521799Y-135971162D01*
X140149833Y-135970838D01*
X139806057Y-136112883D01*
X139747838Y-136171000D01*
X136985198Y-136171000D01*
X136801327Y-135986808D01*
X136457799Y-135844162D01*
X136085833Y-135843838D01*
X135742057Y-135985883D01*
X135478808Y-136248673D01*
X135336162Y-136592201D01*
X135335838Y-136964167D01*
X130412311Y-136964167D01*
X130382335Y-136934139D01*
X130346051Y-136751728D01*
X130324317Y-136719201D01*
X130186724Y-136513277D01*
X129551723Y-135878277D01*
X129313272Y-135718949D01*
X129032000Y-135663000D01*
X124563402Y-135663000D01*
X124491117Y-135488057D01*
X124228327Y-135224808D01*
X123884799Y-135082162D01*
X123512833Y-135081838D01*
X123169057Y-135223883D01*
X122905808Y-135486673D01*
X122763162Y-135830201D01*
X122762838Y-136202167D01*
X81026000Y-136202167D01*
X81026000Y-129664000D01*
X93964560Y-129664000D01*
X93964560Y-132464000D01*
X94008838Y-132699317D01*
X94147910Y-132915441D01*
X94360110Y-133060431D01*
X94612000Y-133111440D01*
X97412000Y-133111440D01*
X97647317Y-133067162D01*
X97863441Y-132928090D01*
X98008431Y-132715890D01*
X98059440Y-132464000D01*
X98059440Y-130487167D01*
X123397838Y-130487167D01*
X123539883Y-130830943D01*
X123582210Y-130873344D01*
X123540808Y-130914673D01*
X123398162Y-131258201D01*
X123397838Y-131630167D01*
X123539883Y-131973943D01*
X123802673Y-132237192D01*
X124146201Y-132379838D01*
X124518167Y-132380162D01*
X124861943Y-132238117D01*
X124920162Y-132180000D01*
X130175000Y-132180000D01*
X130456272Y-132124051D01*
X130694723Y-131964723D01*
X132472146Y-130187300D01*
X154200391Y-130187300D01*
X154324848Y-130812987D01*
X154679271Y-131343420D01*
X155209704Y-131697843D01*
X155835391Y-131822300D01*
X156511209Y-131822300D01*
X157136896Y-131697843D01*
X157667329Y-131343420D01*
X157948712Y-130922300D01*
X174104700Y-130922300D01*
X174385972Y-130866351D01*
X174624423Y-130707023D01*
X177061647Y-128269799D01*
X177543510Y-128270220D01*
X178010458Y-128077282D01*
X178368026Y-127720337D01*
X178561779Y-127253727D01*
X178562220Y-126748490D01*
X178369282Y-126281542D01*
X178012337Y-125923974D01*
X177545727Y-125730221D01*
X177040490Y-125729780D01*
X176573542Y-125922718D01*
X176215974Y-126279663D01*
X176022221Y-126746273D01*
X176021798Y-127230755D01*
X173800254Y-129452300D01*
X157948712Y-129452300D01*
X157782207Y-129203108D01*
X157924741Y-129111390D01*
X158069731Y-128899190D01*
X158120740Y-128647300D01*
X158120740Y-127251510D01*
X168401780Y-127251510D01*
X168594718Y-127718458D01*
X168951663Y-128076026D01*
X169418273Y-128269779D01*
X169923510Y-128270220D01*
X170390458Y-128077282D01*
X170748026Y-127720337D01*
X170941779Y-127253727D01*
X170942220Y-126748490D01*
X170749282Y-126281542D01*
X170392337Y-125923974D01*
X169925727Y-125730221D01*
X169420490Y-125729780D01*
X168953542Y-125922718D01*
X168595974Y-126279663D01*
X168402221Y-126746273D01*
X168401780Y-127251510D01*
X158120740Y-127251510D01*
X158120740Y-126647300D01*
X158076462Y-126411983D01*
X157937390Y-126195859D01*
X157725190Y-126050869D01*
X157473300Y-125999860D01*
X154873300Y-125999860D01*
X154637983Y-126044138D01*
X154421859Y-126183210D01*
X154276869Y-126395410D01*
X154225860Y-126647300D01*
X154225860Y-128647300D01*
X154270138Y-128882617D01*
X154409210Y-129098741D01*
X154563629Y-129204251D01*
X154324848Y-129561613D01*
X154200391Y-130187300D01*
X132472146Y-130187300D01*
X133581355Y-129078092D01*
X133662167Y-129078162D01*
X134005943Y-128936117D01*
X134269192Y-128673327D01*
X134411838Y-128329799D01*
X134412162Y-127957833D01*
X134270117Y-127614057D01*
X134007327Y-127350808D01*
X133663799Y-127208162D01*
X133291833Y-127207838D01*
X132948057Y-127349883D01*
X132684808Y-127612673D01*
X132542162Y-127956201D01*
X132542090Y-128038463D01*
X129870554Y-130710000D01*
X127250446Y-130710000D01*
X127519723Y-130440724D01*
X127679051Y-130202272D01*
X127696046Y-130116833D01*
X127735000Y-129921000D01*
X127735000Y-128476419D01*
X127792192Y-128419327D01*
X127934838Y-128075799D01*
X127935162Y-127703833D01*
X127793117Y-127360057D01*
X127530327Y-127096808D01*
X127186799Y-126954162D01*
X126814833Y-126953838D01*
X126471057Y-127095883D01*
X126207808Y-127358673D01*
X126065162Y-127702201D01*
X126064838Y-128074167D01*
X126206883Y-128417943D01*
X126265000Y-128476162D01*
X126265000Y-129567000D01*
X124920419Y-129567000D01*
X124863327Y-129509808D01*
X124519799Y-129367162D01*
X124147833Y-129366838D01*
X123804057Y-129508883D01*
X123540808Y-129771673D01*
X123398162Y-130115201D01*
X123397838Y-130487167D01*
X98059440Y-130487167D01*
X98059440Y-129664000D01*
X98015162Y-129428683D01*
X97876090Y-129212559D01*
X97663890Y-129067569D01*
X97412000Y-129016560D01*
X94612000Y-129016560D01*
X94376683Y-129060838D01*
X94160559Y-129199910D01*
X94015569Y-129412110D01*
X93964560Y-129664000D01*
X81026000Y-129664000D01*
X81026000Y-122044000D01*
X93964560Y-122044000D01*
X93964560Y-124844000D01*
X94008838Y-125079317D01*
X94147910Y-125295441D01*
X94360110Y-125440431D01*
X94612000Y-125491440D01*
X97412000Y-125491440D01*
X97647317Y-125447162D01*
X97863441Y-125308090D01*
X98008431Y-125095890D01*
X98059440Y-124844000D01*
X98059440Y-122044000D01*
X98015162Y-121808683D01*
X97876090Y-121592559D01*
X97663890Y-121447569D01*
X97412000Y-121396560D01*
X94612000Y-121396560D01*
X94376683Y-121440838D01*
X94160559Y-121579910D01*
X94015569Y-121792110D01*
X93964560Y-122044000D01*
X81026000Y-122044000D01*
X81026000Y-121044691D01*
X111614000Y-121044691D01*
X111614000Y-121720509D01*
X111738457Y-122346196D01*
X112092880Y-122876629D01*
X112623313Y-123231052D01*
X113249000Y-123355509D01*
X113874687Y-123231052D01*
X114405120Y-122876629D01*
X114519000Y-122706195D01*
X114632880Y-122876629D01*
X115163313Y-123231052D01*
X115789000Y-123355509D01*
X116414687Y-123231052D01*
X116773192Y-122991507D01*
X116864910Y-123134041D01*
X117077110Y-123279031D01*
X117329000Y-123330040D01*
X119329000Y-123330040D01*
X119564317Y-123285762D01*
X119780441Y-123146690D01*
X119925431Y-122934490D01*
X119976440Y-122682600D01*
X119976440Y-120082600D01*
X119932162Y-119847283D01*
X119793090Y-119631159D01*
X119580890Y-119486169D01*
X119329000Y-119435160D01*
X117329000Y-119435160D01*
X117093683Y-119479438D01*
X116877559Y-119618510D01*
X116772049Y-119772929D01*
X116414687Y-119534148D01*
X115789000Y-119409691D01*
X115163313Y-119534148D01*
X114632880Y-119888571D01*
X114519000Y-120059005D01*
X114405120Y-119888571D01*
X113874687Y-119534148D01*
X113249000Y-119409691D01*
X112623313Y-119534148D01*
X112092880Y-119888571D01*
X111738457Y-120419004D01*
X111614000Y-121044691D01*
X81026000Y-121044691D01*
X81026000Y-105091863D01*
X91236723Y-105091863D01*
X91479795Y-105680143D01*
X91929489Y-106130623D01*
X92517344Y-106374722D01*
X93153863Y-106375277D01*
X93742143Y-106132205D01*
X94192623Y-105682511D01*
X94436722Y-105094656D01*
X94437277Y-104458137D01*
X94194205Y-103869857D01*
X93744511Y-103419377D01*
X93156656Y-103175278D01*
X92520137Y-103174723D01*
X91931857Y-103417795D01*
X91481377Y-103867489D01*
X91237278Y-104455344D01*
X91236723Y-105091863D01*
X81026000Y-105091863D01*
X81026000Y-101216510D01*
X91566780Y-101216510D01*
X91759718Y-101683458D01*
X92116663Y-102041026D01*
X92583273Y-102234779D01*
X93088510Y-102235220D01*
X93555458Y-102042282D01*
X93913026Y-101685337D01*
X94106779Y-101218727D01*
X94107220Y-100713490D01*
X93914282Y-100246542D01*
X93557337Y-99888974D01*
X93090727Y-99695221D01*
X92585490Y-99694780D01*
X92118542Y-99887718D01*
X91760974Y-100244663D01*
X91567221Y-100711273D01*
X91566780Y-101216510D01*
X81026000Y-101216510D01*
X81026000Y-99187000D01*
X140870000Y-99187000D01*
X140870000Y-123952000D01*
X140890974Y-124057440D01*
X140925949Y-124233272D01*
X141085277Y-124471723D01*
X143717908Y-127104355D01*
X143717838Y-127185167D01*
X143859883Y-127528943D01*
X144122673Y-127792192D01*
X144466201Y-127934838D01*
X144838167Y-127935162D01*
X145181943Y-127793117D01*
X145445192Y-127530327D01*
X145587838Y-127186799D01*
X145588162Y-126814833D01*
X145446117Y-126471057D01*
X145183327Y-126207808D01*
X144839799Y-126065162D01*
X144757537Y-126065090D01*
X142340000Y-123647554D01*
X142340000Y-120610000D01*
X195854560Y-120610000D01*
X195854560Y-123410000D01*
X195898838Y-123645317D01*
X196037910Y-123861441D01*
X196250110Y-124006431D01*
X196502000Y-124057440D01*
X199302000Y-124057440D01*
X199537317Y-124013162D01*
X199753441Y-123874090D01*
X199898431Y-123661890D01*
X199949440Y-123410000D01*
X199949440Y-120610000D01*
X199905162Y-120374683D01*
X199766090Y-120158559D01*
X199553890Y-120013569D01*
X199302000Y-119962560D01*
X196502000Y-119962560D01*
X196266683Y-120006838D01*
X196050559Y-120145910D01*
X195905569Y-120358110D01*
X195854560Y-120610000D01*
X142340000Y-120610000D01*
X142340000Y-112610000D01*
X195854560Y-112610000D01*
X195854560Y-115410000D01*
X195898838Y-115645317D01*
X196037910Y-115861441D01*
X196250110Y-116006431D01*
X196502000Y-116057440D01*
X199302000Y-116057440D01*
X199537317Y-116013162D01*
X199753441Y-115874090D01*
X199898431Y-115661890D01*
X199949440Y-115410000D01*
X199949440Y-112610000D01*
X199905162Y-112374683D01*
X199766090Y-112158559D01*
X199553890Y-112013569D01*
X199302000Y-111962560D01*
X196502000Y-111962560D01*
X196266683Y-112006838D01*
X196050559Y-112145910D01*
X195905569Y-112358110D01*
X195854560Y-112610000D01*
X142340000Y-112610000D01*
X142340000Y-105026510D01*
X142366780Y-105026510D01*
X142559718Y-105493458D01*
X142916663Y-105851026D01*
X143383273Y-106044779D01*
X143888510Y-106045220D01*
X144355458Y-105852282D01*
X144713026Y-105495337D01*
X144906779Y-105028727D01*
X144907144Y-104610000D01*
X195854560Y-104610000D01*
X195854560Y-107410000D01*
X195898838Y-107645317D01*
X196037910Y-107861441D01*
X196250110Y-108006431D01*
X196502000Y-108057440D01*
X199302000Y-108057440D01*
X199537317Y-108013162D01*
X199753441Y-107874090D01*
X199898431Y-107661890D01*
X199949440Y-107410000D01*
X199949440Y-104610000D01*
X199905162Y-104374683D01*
X199766090Y-104158559D01*
X199553890Y-104013569D01*
X199302000Y-103962560D01*
X196502000Y-103962560D01*
X196266683Y-104006838D01*
X196050559Y-104145910D01*
X195905569Y-104358110D01*
X195854560Y-104610000D01*
X144907144Y-104610000D01*
X144907220Y-104523490D01*
X144714282Y-104056542D01*
X144357337Y-103698974D01*
X143890727Y-103505221D01*
X143385490Y-103504780D01*
X142918542Y-103697718D01*
X142560974Y-104054663D01*
X142367221Y-104521273D01*
X142366780Y-105026510D01*
X142340000Y-105026510D01*
X142340000Y-99491446D01*
X143406647Y-98424799D01*
X143888510Y-98425220D01*
X144355458Y-98232282D01*
X144713026Y-97875337D01*
X144906779Y-97408727D01*
X144907220Y-96903490D01*
X144785954Y-96610000D01*
X195854560Y-96610000D01*
X195854560Y-99410000D01*
X195898838Y-99645317D01*
X196037910Y-99861441D01*
X196250110Y-100006431D01*
X196502000Y-100057440D01*
X199302000Y-100057440D01*
X199537317Y-100013162D01*
X199753441Y-99874090D01*
X199898431Y-99661890D01*
X199949440Y-99410000D01*
X199949440Y-96610000D01*
X199905162Y-96374683D01*
X199766090Y-96158559D01*
X199553890Y-96013569D01*
X199302000Y-95962560D01*
X196502000Y-95962560D01*
X196266683Y-96006838D01*
X196050559Y-96145910D01*
X195905569Y-96358110D01*
X195854560Y-96610000D01*
X144785954Y-96610000D01*
X144714282Y-96436542D01*
X144357337Y-96078974D01*
X143890727Y-95885221D01*
X143385490Y-95884780D01*
X142918542Y-96077718D01*
X142560974Y-96434663D01*
X142367221Y-96901273D01*
X142366798Y-97385755D01*
X141085277Y-98667277D01*
X140925949Y-98905728D01*
X140870000Y-99187000D01*
X81026000Y-99187000D01*
X81026000Y-97406510D01*
X91566780Y-97406510D01*
X91759718Y-97873458D01*
X92116663Y-98231026D01*
X92583273Y-98424779D01*
X93088510Y-98425220D01*
X93555458Y-98232282D01*
X93913026Y-97875337D01*
X94106779Y-97408727D01*
X94107220Y-96903490D01*
X93914282Y-96436542D01*
X93557337Y-96078974D01*
X93090727Y-95885221D01*
X92585490Y-95884780D01*
X92118542Y-96077718D01*
X91760974Y-96434663D01*
X91567221Y-96901273D01*
X91566780Y-97406510D01*
X81026000Y-97406510D01*
X81026000Y-90345000D01*
X151261560Y-90345000D01*
X151261560Y-93145000D01*
X151305838Y-93380317D01*
X151444910Y-93596441D01*
X151657110Y-93741431D01*
X151909000Y-93792440D01*
X154709000Y-93792440D01*
X154944317Y-93748162D01*
X155160441Y-93609090D01*
X155305431Y-93396890D01*
X155356440Y-93145000D01*
X155356440Y-90345000D01*
X155312162Y-90109683D01*
X155173090Y-89893559D01*
X154960890Y-89748569D01*
X154709000Y-89697560D01*
X151909000Y-89697560D01*
X151673683Y-89741838D01*
X151457559Y-89880910D01*
X151312569Y-90093110D01*
X151261560Y-90345000D01*
X81026000Y-90345000D01*
X81026000Y-88610000D01*
X195854560Y-88610000D01*
X195854560Y-91410000D01*
X195898838Y-91645317D01*
X196037910Y-91861441D01*
X196250110Y-92006431D01*
X196502000Y-92057440D01*
X199302000Y-92057440D01*
X199537317Y-92013162D01*
X199753441Y-91874090D01*
X199898431Y-91661890D01*
X199949440Y-91410000D01*
X199949440Y-88610000D01*
X199905162Y-88374683D01*
X199766090Y-88158559D01*
X199553890Y-88013569D01*
X199302000Y-87962560D01*
X196502000Y-87962560D01*
X196266683Y-88006838D01*
X196050559Y-88145910D01*
X195905569Y-88358110D01*
X195854560Y-88610000D01*
X81026000Y-88610000D01*
X81026000Y-82345000D01*
X151261560Y-82345000D01*
X151261560Y-85145000D01*
X151305838Y-85380317D01*
X151444910Y-85596441D01*
X151657110Y-85741431D01*
X151909000Y-85792440D01*
X154709000Y-85792440D01*
X154944317Y-85748162D01*
X155160441Y-85609090D01*
X155305431Y-85396890D01*
X155356440Y-85145000D01*
X155356440Y-82345000D01*
X155312162Y-82109683D01*
X155173090Y-81893559D01*
X154960890Y-81748569D01*
X154709000Y-81697560D01*
X151909000Y-81697560D01*
X151673683Y-81741838D01*
X151457559Y-81880910D01*
X151312569Y-82093110D01*
X151261560Y-82345000D01*
X81026000Y-82345000D01*
X81026000Y-80610000D01*
X195854560Y-80610000D01*
X195854560Y-83410000D01*
X195898838Y-83645317D01*
X196037910Y-83861441D01*
X196250110Y-84006431D01*
X196502000Y-84057440D01*
X199302000Y-84057440D01*
X199537317Y-84013162D01*
X199753441Y-83874090D01*
X199898431Y-83661890D01*
X199949440Y-83410000D01*
X199949440Y-80610000D01*
X199905162Y-80374683D01*
X199766090Y-80158559D01*
X199553890Y-80013569D01*
X199302000Y-79962560D01*
X196502000Y-79962560D01*
X196266683Y-80006838D01*
X196050559Y-80145910D01*
X195905569Y-80358110D01*
X195854560Y-80610000D01*
X81026000Y-80610000D01*
X81026000Y-74450000D01*
X94096560Y-74450000D01*
X94096560Y-77250000D01*
X94140838Y-77485317D01*
X94279910Y-77701441D01*
X94492110Y-77846431D01*
X94744000Y-77897440D01*
X97544000Y-77897440D01*
X97779317Y-77853162D01*
X97995441Y-77714090D01*
X98140431Y-77501890D01*
X98191440Y-77250000D01*
X98191440Y-74450000D01*
X102096560Y-74450000D01*
X102096560Y-77250000D01*
X102140838Y-77485317D01*
X102279910Y-77701441D01*
X102492110Y-77846431D01*
X102744000Y-77897440D01*
X105544000Y-77897440D01*
X105779317Y-77853162D01*
X105995441Y-77714090D01*
X106140431Y-77501890D01*
X106191440Y-77250000D01*
X106191440Y-74450000D01*
X110096560Y-74450000D01*
X110096560Y-77250000D01*
X110140838Y-77485317D01*
X110279910Y-77701441D01*
X110492110Y-77846431D01*
X110744000Y-77897440D01*
X113544000Y-77897440D01*
X113779317Y-77853162D01*
X113995441Y-77714090D01*
X114140431Y-77501890D01*
X114191440Y-77250000D01*
X114191440Y-74450000D01*
X118096560Y-74450000D01*
X118096560Y-77250000D01*
X118140838Y-77485317D01*
X118279910Y-77701441D01*
X118492110Y-77846431D01*
X118744000Y-77897440D01*
X121544000Y-77897440D01*
X121779317Y-77853162D01*
X121995441Y-77714090D01*
X122140431Y-77501890D01*
X122191440Y-77250000D01*
X122191440Y-74450000D01*
X126096560Y-74450000D01*
X126096560Y-77250000D01*
X126140838Y-77485317D01*
X126279910Y-77701441D01*
X126492110Y-77846431D01*
X126744000Y-77897440D01*
X129544000Y-77897440D01*
X129779317Y-77853162D01*
X129995441Y-77714090D01*
X130140431Y-77501890D01*
X130191440Y-77250000D01*
X130191440Y-74450000D01*
X134096560Y-74450000D01*
X134096560Y-77250000D01*
X134140838Y-77485317D01*
X134279910Y-77701441D01*
X134492110Y-77846431D01*
X134744000Y-77897440D01*
X137544000Y-77897440D01*
X137779317Y-77853162D01*
X137995441Y-77714090D01*
X138140431Y-77501890D01*
X138191440Y-77250000D01*
X138191440Y-74450000D01*
X138171683Y-74345000D01*
X151261560Y-74345000D01*
X151261560Y-77145000D01*
X151305838Y-77380317D01*
X151444910Y-77596441D01*
X151657110Y-77741431D01*
X151909000Y-77792440D01*
X154709000Y-77792440D01*
X154944317Y-77748162D01*
X155160441Y-77609090D01*
X155305431Y-77396890D01*
X155356440Y-77145000D01*
X155356440Y-76516863D01*
X168071723Y-76516863D01*
X168314795Y-77105143D01*
X168764489Y-77555623D01*
X169352344Y-77799722D01*
X169988863Y-77800277D01*
X170577143Y-77557205D01*
X171027623Y-77107511D01*
X171271722Y-76519656D01*
X171271781Y-76451510D01*
X172211780Y-76451510D01*
X172404718Y-76918458D01*
X172761663Y-77276026D01*
X173228273Y-77469779D01*
X173733510Y-77470220D01*
X174200458Y-77277282D01*
X174558026Y-76920337D01*
X174751779Y-76453727D01*
X174751780Y-76451510D01*
X176021780Y-76451510D01*
X176214718Y-76918458D01*
X176571663Y-77276026D01*
X177038273Y-77469779D01*
X177543510Y-77470220D01*
X178010458Y-77277282D01*
X178368026Y-76920337D01*
X178561779Y-76453727D01*
X178562220Y-75948490D01*
X178369282Y-75481542D01*
X178012337Y-75123974D01*
X177545727Y-74930221D01*
X177040490Y-74929780D01*
X176573542Y-75122718D01*
X176215974Y-75479663D01*
X176022221Y-75946273D01*
X176021780Y-76451510D01*
X174751780Y-76451510D01*
X174752220Y-75948490D01*
X174559282Y-75481542D01*
X174202337Y-75123974D01*
X173735727Y-74930221D01*
X173230490Y-74929780D01*
X172763542Y-75122718D01*
X172405974Y-75479663D01*
X172212221Y-75946273D01*
X172211780Y-76451510D01*
X171271781Y-76451510D01*
X171272277Y-75883137D01*
X171029205Y-75294857D01*
X170579511Y-74844377D01*
X169991656Y-74600278D01*
X169355137Y-74599723D01*
X168766857Y-74842795D01*
X168316377Y-75292489D01*
X168072278Y-75880344D01*
X168071723Y-76516863D01*
X155356440Y-76516863D01*
X155356440Y-74345000D01*
X155312162Y-74109683D01*
X155173090Y-73893559D01*
X154960890Y-73748569D01*
X154709000Y-73697560D01*
X151909000Y-73697560D01*
X151673683Y-73741838D01*
X151457559Y-73880910D01*
X151312569Y-74093110D01*
X151261560Y-74345000D01*
X138171683Y-74345000D01*
X138147162Y-74214683D01*
X138008090Y-73998559D01*
X137795890Y-73853569D01*
X137544000Y-73802560D01*
X134744000Y-73802560D01*
X134508683Y-73846838D01*
X134292559Y-73985910D01*
X134147569Y-74198110D01*
X134096560Y-74450000D01*
X130191440Y-74450000D01*
X130147162Y-74214683D01*
X130008090Y-73998559D01*
X129795890Y-73853569D01*
X129544000Y-73802560D01*
X126744000Y-73802560D01*
X126508683Y-73846838D01*
X126292559Y-73985910D01*
X126147569Y-74198110D01*
X126096560Y-74450000D01*
X122191440Y-74450000D01*
X122147162Y-74214683D01*
X122008090Y-73998559D01*
X121795890Y-73853569D01*
X121544000Y-73802560D01*
X118744000Y-73802560D01*
X118508683Y-73846838D01*
X118292559Y-73985910D01*
X118147569Y-74198110D01*
X118096560Y-74450000D01*
X114191440Y-74450000D01*
X114147162Y-74214683D01*
X114008090Y-73998559D01*
X113795890Y-73853569D01*
X113544000Y-73802560D01*
X110744000Y-73802560D01*
X110508683Y-73846838D01*
X110292559Y-73985910D01*
X110147569Y-74198110D01*
X110096560Y-74450000D01*
X106191440Y-74450000D01*
X106147162Y-74214683D01*
X106008090Y-73998559D01*
X105795890Y-73853569D01*
X105544000Y-73802560D01*
X102744000Y-73802560D01*
X102508683Y-73846838D01*
X102292559Y-73985910D01*
X102147569Y-74198110D01*
X102096560Y-74450000D01*
X98191440Y-74450000D01*
X98147162Y-74214683D01*
X98008090Y-73998559D01*
X97795890Y-73853569D01*
X97544000Y-73802560D01*
X94744000Y-73802560D01*
X94508683Y-73846838D01*
X94292559Y-73985910D01*
X94147569Y-74198110D01*
X94096560Y-74450000D01*
X81026000Y-74450000D01*
X81026000Y-66345000D01*
X151261560Y-66345000D01*
X151261560Y-69145000D01*
X151305838Y-69380317D01*
X151444910Y-69596441D01*
X151657110Y-69741431D01*
X151909000Y-69792440D01*
X154709000Y-69792440D01*
X154944317Y-69748162D01*
X155160441Y-69609090D01*
X155305431Y-69396890D01*
X155356440Y-69145000D01*
X155356440Y-66345000D01*
X155312162Y-66109683D01*
X155173090Y-65893559D01*
X154960890Y-65748569D01*
X154709000Y-65697560D01*
X151909000Y-65697560D01*
X151673683Y-65741838D01*
X151457559Y-65880910D01*
X151312569Y-66093110D01*
X151261560Y-66345000D01*
X81026000Y-66345000D01*
X81026000Y-61087000D01*
X208915000Y-61087000D01*
X208915000Y-148971000D01*
M02*
