G04 #@! TF.FileFunction,Legend,Top*
%FSLAX46Y46*%
G04 Gerber Fmt 4.6, Leading zero omitted, Abs format (unit mm)*
G04 Created by KiCad (PCBNEW 4.0.6) date Fri Sep  8 02:15:48 2017*
%MOMM*%
%LPD*%
G01*
G04 APERTURE LIST*
%ADD10C,0.100000*%
%ADD11C,0.300000*%
%ADD12C,0.120000*%
%ADD13C,0.150000*%
%ADD14C,0.010000*%
G04 APERTURE END LIST*
D10*
D11*
X184428572Y-133687429D02*
X184500001Y-133616000D01*
X184642858Y-133544571D01*
X185000001Y-133544571D01*
X185142858Y-133616000D01*
X185214287Y-133687429D01*
X185285715Y-133830286D01*
X185285715Y-133973143D01*
X185214287Y-134187429D01*
X184357144Y-135044571D01*
X185285715Y-135044571D01*
X186214286Y-133544571D02*
X186357143Y-133544571D01*
X186500000Y-133616000D01*
X186571429Y-133687429D01*
X186642858Y-133830286D01*
X186714286Y-134116000D01*
X186714286Y-134473143D01*
X186642858Y-134758857D01*
X186571429Y-134901714D01*
X186500000Y-134973143D01*
X186357143Y-135044571D01*
X186214286Y-135044571D01*
X186071429Y-134973143D01*
X186000000Y-134901714D01*
X185928572Y-134758857D01*
X185857143Y-134473143D01*
X185857143Y-134116000D01*
X185928572Y-133830286D01*
X186000000Y-133687429D01*
X186071429Y-133616000D01*
X186214286Y-133544571D01*
X187142857Y-133544571D02*
X187642857Y-135044571D01*
X188142857Y-133544571D01*
X189714285Y-134973143D02*
X189928571Y-135044571D01*
X190285714Y-135044571D01*
X190428571Y-134973143D01*
X190500000Y-134901714D01*
X190571428Y-134758857D01*
X190571428Y-134616000D01*
X190500000Y-134473143D01*
X190428571Y-134401714D01*
X190285714Y-134330286D01*
X190000000Y-134258857D01*
X189857142Y-134187429D01*
X189785714Y-134116000D01*
X189714285Y-133973143D01*
X189714285Y-133830286D01*
X189785714Y-133687429D01*
X189857142Y-133616000D01*
X190000000Y-133544571D01*
X190357142Y-133544571D01*
X190571428Y-133616000D01*
X191857142Y-134044571D02*
X191857142Y-135044571D01*
X191214285Y-134044571D02*
X191214285Y-134830286D01*
X191285713Y-134973143D01*
X191428571Y-135044571D01*
X191642856Y-135044571D01*
X191785713Y-134973143D01*
X191857142Y-134901714D01*
X192571428Y-134044571D02*
X192571428Y-135544571D01*
X192571428Y-134116000D02*
X192714285Y-134044571D01*
X192999999Y-134044571D01*
X193142856Y-134116000D01*
X193214285Y-134187429D01*
X193285714Y-134330286D01*
X193285714Y-134758857D01*
X193214285Y-134901714D01*
X193142856Y-134973143D01*
X192999999Y-135044571D01*
X192714285Y-135044571D01*
X192571428Y-134973143D01*
X193928571Y-134044571D02*
X193928571Y-135544571D01*
X193928571Y-134116000D02*
X194071428Y-134044571D01*
X194357142Y-134044571D01*
X194499999Y-134116000D01*
X194571428Y-134187429D01*
X194642857Y-134330286D01*
X194642857Y-134758857D01*
X194571428Y-134901714D01*
X194499999Y-134973143D01*
X194357142Y-135044571D01*
X194071428Y-135044571D01*
X193928571Y-134973143D01*
X195500000Y-135044571D02*
X195357142Y-134973143D01*
X195285714Y-134830286D01*
X195285714Y-133544571D01*
X195928571Y-134044571D02*
X196285714Y-135044571D01*
X196642856Y-134044571D02*
X196285714Y-135044571D01*
X196142856Y-135401714D01*
X196071428Y-135473143D01*
X195928571Y-135544571D01*
X110363573Y-61916571D02*
X109649287Y-61916571D01*
X109577858Y-62630857D01*
X109649287Y-62559429D01*
X109792144Y-62488000D01*
X110149287Y-62488000D01*
X110292144Y-62559429D01*
X110363573Y-62630857D01*
X110435001Y-62773714D01*
X110435001Y-63130857D01*
X110363573Y-63273714D01*
X110292144Y-63345143D01*
X110149287Y-63416571D01*
X109792144Y-63416571D01*
X109649287Y-63345143D01*
X109577858Y-63273714D01*
X110863572Y-61916571D02*
X111363572Y-63416571D01*
X111863572Y-61916571D01*
X113435000Y-63345143D02*
X113649286Y-63416571D01*
X114006429Y-63416571D01*
X114149286Y-63345143D01*
X114220715Y-63273714D01*
X114292143Y-63130857D01*
X114292143Y-62988000D01*
X114220715Y-62845143D01*
X114149286Y-62773714D01*
X114006429Y-62702286D01*
X113720715Y-62630857D01*
X113577857Y-62559429D01*
X113506429Y-62488000D01*
X113435000Y-62345143D01*
X113435000Y-62202286D01*
X113506429Y-62059429D01*
X113577857Y-61988000D01*
X113720715Y-61916571D01*
X114077857Y-61916571D01*
X114292143Y-61988000D01*
X115577857Y-62416571D02*
X115577857Y-63416571D01*
X114935000Y-62416571D02*
X114935000Y-63202286D01*
X115006428Y-63345143D01*
X115149286Y-63416571D01*
X115363571Y-63416571D01*
X115506428Y-63345143D01*
X115577857Y-63273714D01*
X116292143Y-62416571D02*
X116292143Y-63916571D01*
X116292143Y-62488000D02*
X116435000Y-62416571D01*
X116720714Y-62416571D01*
X116863571Y-62488000D01*
X116935000Y-62559429D01*
X117006429Y-62702286D01*
X117006429Y-63130857D01*
X116935000Y-63273714D01*
X116863571Y-63345143D01*
X116720714Y-63416571D01*
X116435000Y-63416571D01*
X116292143Y-63345143D01*
X117649286Y-62416571D02*
X117649286Y-63916571D01*
X117649286Y-62488000D02*
X117792143Y-62416571D01*
X118077857Y-62416571D01*
X118220714Y-62488000D01*
X118292143Y-62559429D01*
X118363572Y-62702286D01*
X118363572Y-63130857D01*
X118292143Y-63273714D01*
X118220714Y-63345143D01*
X118077857Y-63416571D01*
X117792143Y-63416571D01*
X117649286Y-63345143D01*
X119220715Y-63416571D02*
X119077857Y-63345143D01*
X119006429Y-63202286D01*
X119006429Y-61916571D01*
X119649286Y-62416571D02*
X120006429Y-63416571D01*
X120363571Y-62416571D02*
X120006429Y-63416571D01*
X119863571Y-63773714D01*
X119792143Y-63845143D01*
X119649286Y-63916571D01*
X150995715Y-63035571D02*
X150138572Y-63035571D01*
X150567144Y-63035571D02*
X150567144Y-61535571D01*
X150424287Y-61749857D01*
X150281429Y-61892714D01*
X150138572Y-61964143D01*
X151567143Y-61678429D02*
X151638572Y-61607000D01*
X151781429Y-61535571D01*
X152138572Y-61535571D01*
X152281429Y-61607000D01*
X152352858Y-61678429D01*
X152424286Y-61821286D01*
X152424286Y-61964143D01*
X152352858Y-62178429D01*
X151495715Y-63035571D01*
X152424286Y-63035571D01*
X152852857Y-61535571D02*
X153352857Y-63035571D01*
X153852857Y-61535571D01*
X155424285Y-62964143D02*
X155638571Y-63035571D01*
X155995714Y-63035571D01*
X156138571Y-62964143D01*
X156210000Y-62892714D01*
X156281428Y-62749857D01*
X156281428Y-62607000D01*
X156210000Y-62464143D01*
X156138571Y-62392714D01*
X155995714Y-62321286D01*
X155710000Y-62249857D01*
X155567142Y-62178429D01*
X155495714Y-62107000D01*
X155424285Y-61964143D01*
X155424285Y-61821286D01*
X155495714Y-61678429D01*
X155567142Y-61607000D01*
X155710000Y-61535571D01*
X156067142Y-61535571D01*
X156281428Y-61607000D01*
X157567142Y-62035571D02*
X157567142Y-63035571D01*
X156924285Y-62035571D02*
X156924285Y-62821286D01*
X156995713Y-62964143D01*
X157138571Y-63035571D01*
X157352856Y-63035571D01*
X157495713Y-62964143D01*
X157567142Y-62892714D01*
X158281428Y-62035571D02*
X158281428Y-63535571D01*
X158281428Y-62107000D02*
X158424285Y-62035571D01*
X158709999Y-62035571D01*
X158852856Y-62107000D01*
X158924285Y-62178429D01*
X158995714Y-62321286D01*
X158995714Y-62749857D01*
X158924285Y-62892714D01*
X158852856Y-62964143D01*
X158709999Y-63035571D01*
X158424285Y-63035571D01*
X158281428Y-62964143D01*
X159638571Y-62035571D02*
X159638571Y-63535571D01*
X159638571Y-62107000D02*
X159781428Y-62035571D01*
X160067142Y-62035571D01*
X160209999Y-62107000D01*
X160281428Y-62178429D01*
X160352857Y-62321286D01*
X160352857Y-62749857D01*
X160281428Y-62892714D01*
X160209999Y-62964143D01*
X160067142Y-63035571D01*
X159781428Y-63035571D01*
X159638571Y-62964143D01*
X161210000Y-63035571D02*
X161067142Y-62964143D01*
X160995714Y-62821286D01*
X160995714Y-61535571D01*
X161638571Y-62035571D02*
X161995714Y-63035571D01*
X162352856Y-62035571D02*
X161995714Y-63035571D01*
X161852856Y-63392714D01*
X161781428Y-63464143D01*
X161638571Y-63535571D01*
X197429857Y-77513571D02*
X197429857Y-76013571D01*
X197929857Y-77085000D01*
X198429857Y-76013571D01*
X198429857Y-77513571D01*
X199358429Y-77513571D02*
X199215571Y-77442143D01*
X199144143Y-77370714D01*
X199072714Y-77227857D01*
X199072714Y-76799286D01*
X199144143Y-76656429D01*
X199215571Y-76585000D01*
X199358429Y-76513571D01*
X199572714Y-76513571D01*
X199715571Y-76585000D01*
X199787000Y-76656429D01*
X199858429Y-76799286D01*
X199858429Y-77227857D01*
X199787000Y-77370714D01*
X199715571Y-77442143D01*
X199572714Y-77513571D01*
X199358429Y-77513571D01*
X200287000Y-76513571D02*
X200858429Y-76513571D01*
X200501286Y-76013571D02*
X200501286Y-77299286D01*
X200572714Y-77442143D01*
X200715572Y-77513571D01*
X200858429Y-77513571D01*
X201572715Y-77513571D02*
X201429857Y-77442143D01*
X201358429Y-77370714D01*
X201287000Y-77227857D01*
X201287000Y-76799286D01*
X201358429Y-76656429D01*
X201429857Y-76585000D01*
X201572715Y-76513571D01*
X201787000Y-76513571D01*
X201929857Y-76585000D01*
X202001286Y-76656429D01*
X202072715Y-76799286D01*
X202072715Y-77227857D01*
X202001286Y-77370714D01*
X201929857Y-77442143D01*
X201787000Y-77513571D01*
X201572715Y-77513571D01*
X202715572Y-77513571D02*
X202715572Y-76513571D01*
X202715572Y-76799286D02*
X202787000Y-76656429D01*
X202858429Y-76585000D01*
X203001286Y-76513571D01*
X203144143Y-76513571D01*
X203572714Y-77442143D02*
X203715571Y-77513571D01*
X204001286Y-77513571D01*
X204144143Y-77442143D01*
X204215571Y-77299286D01*
X204215571Y-77227857D01*
X204144143Y-77085000D01*
X204001286Y-77013571D01*
X203787000Y-77013571D01*
X203644143Y-76942143D01*
X203572714Y-76799286D01*
X203572714Y-76727857D01*
X203644143Y-76585000D01*
X203787000Y-76513571D01*
X204001286Y-76513571D01*
X204144143Y-76585000D01*
X85221572Y-142156571D02*
X85221572Y-140656571D01*
X85793000Y-140656571D01*
X85935858Y-140728000D01*
X86007286Y-140799429D01*
X86078715Y-140942286D01*
X86078715Y-141156571D01*
X86007286Y-141299429D01*
X85935858Y-141370857D01*
X85793000Y-141442286D01*
X85221572Y-141442286D01*
X86721572Y-142156571D02*
X86721572Y-140656571D01*
X87078715Y-140656571D01*
X87293000Y-140728000D01*
X87435858Y-140870857D01*
X87507286Y-141013714D01*
X87578715Y-141299429D01*
X87578715Y-141513714D01*
X87507286Y-141799429D01*
X87435858Y-141942286D01*
X87293000Y-142085143D01*
X87078715Y-142156571D01*
X86721572Y-142156571D01*
X88721572Y-141370857D02*
X88935858Y-141442286D01*
X89007286Y-141513714D01*
X89078715Y-141656571D01*
X89078715Y-141870857D01*
X89007286Y-142013714D01*
X88935858Y-142085143D01*
X88793000Y-142156571D01*
X88221572Y-142156571D01*
X88221572Y-140656571D01*
X88721572Y-140656571D01*
X88864429Y-140728000D01*
X88935858Y-140799429D01*
X89007286Y-140942286D01*
X89007286Y-141085143D01*
X88935858Y-141228000D01*
X88864429Y-141299429D01*
X88721572Y-141370857D01*
X88221572Y-141370857D01*
X90721572Y-141156571D02*
X91078715Y-142156571D01*
X91435857Y-141156571D01*
X92293000Y-140656571D02*
X92435857Y-140656571D01*
X92578714Y-140728000D01*
X92650143Y-140799429D01*
X92721572Y-140942286D01*
X92793000Y-141228000D01*
X92793000Y-141585143D01*
X92721572Y-141870857D01*
X92650143Y-142013714D01*
X92578714Y-142085143D01*
X92435857Y-142156571D01*
X92293000Y-142156571D01*
X92150143Y-142085143D01*
X92078714Y-142013714D01*
X92007286Y-141870857D01*
X91935857Y-141585143D01*
X91935857Y-141228000D01*
X92007286Y-140942286D01*
X92078714Y-140799429D01*
X92150143Y-140728000D01*
X92293000Y-140656571D01*
X93435857Y-142013714D02*
X93507285Y-142085143D01*
X93435857Y-142156571D01*
X93364428Y-142085143D01*
X93435857Y-142013714D01*
X93435857Y-142156571D01*
X94935857Y-142156571D02*
X94078714Y-142156571D01*
X94507286Y-142156571D02*
X94507286Y-140656571D01*
X94364429Y-140870857D01*
X94221571Y-141013714D01*
X94078714Y-141085143D01*
D12*
X113179000Y-133782600D02*
X113179000Y-134482600D01*
X111979000Y-134482600D02*
X111979000Y-133782600D01*
X114679000Y-133782600D02*
X114679000Y-134482600D01*
X113479000Y-134482600D02*
X113479000Y-133782600D01*
X116179000Y-133782600D02*
X116179000Y-134482600D01*
X114979000Y-134482600D02*
X114979000Y-133782600D01*
X151340000Y-107426000D02*
X151340000Y-105426000D01*
X148380000Y-105426000D02*
X148380000Y-107426000D01*
X172196000Y-131362000D02*
X170196000Y-131362000D01*
X170196000Y-134322000D02*
X172196000Y-134322000D01*
X149773300Y-122997300D02*
X149773300Y-122297300D01*
X150973300Y-122297300D02*
X150973300Y-122997300D01*
X154603900Y-143900400D02*
X154603900Y-141900400D01*
X151643900Y-141900400D02*
X151643900Y-143900400D01*
X153623300Y-123947300D02*
X154323300Y-123947300D01*
X154323300Y-125147300D02*
X153623300Y-125147300D01*
X85282000Y-88878000D02*
X83882000Y-88878000D01*
X83882000Y-88878000D02*
X83882000Y-91678000D01*
X85282000Y-88878000D02*
X85282000Y-91678000D01*
X185569000Y-68518000D02*
X185569000Y-67118000D01*
X185569000Y-67118000D02*
X182769000Y-67118000D01*
X185569000Y-68518000D02*
X182769000Y-68518000D01*
X108302000Y-131190000D02*
X108302000Y-127890000D01*
X108302000Y-127890000D02*
X102902000Y-127890000D01*
X108302000Y-131190000D02*
X102902000Y-131190000D01*
X168629100Y-147964300D02*
X170029100Y-147964300D01*
X170029100Y-147964300D02*
X170029100Y-145164300D01*
X168629100Y-147964300D02*
X168629100Y-145164300D01*
X108302000Y-126618000D02*
X108302000Y-123318000D01*
X108302000Y-123318000D02*
X102902000Y-123318000D01*
X108302000Y-126618000D02*
X102902000Y-126618000D01*
X108229000Y-133232600D02*
X104929000Y-133232600D01*
X104929000Y-133232600D02*
X104929000Y-138632600D01*
X108229000Y-133232600D02*
X108229000Y-138632600D01*
X145573300Y-134347300D02*
X146973300Y-134347300D01*
X146973300Y-134347300D02*
X146973300Y-131547300D01*
X145573300Y-134347300D02*
X145573300Y-131547300D01*
X119699000Y-124402600D02*
X119699000Y-118402600D01*
X119699000Y-118402600D02*
X111879000Y-118402600D01*
X111879000Y-118402600D02*
X111879000Y-124402600D01*
X111879000Y-124402600D02*
X119699000Y-124402600D01*
X118329000Y-118402600D02*
X118329000Y-119402600D01*
X118329000Y-119402600D02*
X113249000Y-119402600D01*
X113249000Y-119402600D02*
X113249000Y-118402600D01*
X118329000Y-119402600D02*
X118079000Y-119832600D01*
X118079000Y-119832600D02*
X113499000Y-119832600D01*
X113499000Y-119832600D02*
X113249000Y-119402600D01*
X118079000Y-118402600D02*
X118079000Y-119402600D01*
X113499000Y-118402600D02*
X113499000Y-119402600D01*
X119129000Y-124402600D02*
X119129000Y-123782600D01*
X119129000Y-123782600D02*
X117529000Y-123782600D01*
X117529000Y-123782600D02*
X117529000Y-124402600D01*
X116589000Y-124402600D02*
X116589000Y-123782600D01*
X116589000Y-123782600D02*
X114989000Y-123782600D01*
X114989000Y-123782600D02*
X114989000Y-124402600D01*
X114049000Y-124402600D02*
X114049000Y-123782600D01*
X114049000Y-123782600D02*
X112449000Y-123782600D01*
X112449000Y-123782600D02*
X112449000Y-124402600D01*
X195552000Y-122010000D02*
X195552000Y-124810000D01*
X195552000Y-124810000D02*
X205452000Y-124810000D01*
X205452000Y-124810000D02*
X205452000Y-123810000D01*
X205452000Y-123810000D02*
X206852000Y-123810000D01*
X206852000Y-123810000D02*
X206852000Y-122010000D01*
X195552000Y-122010000D02*
X195552000Y-119210000D01*
X195552000Y-119210000D02*
X205452000Y-119210000D01*
X205452000Y-119210000D02*
X205452000Y-120210000D01*
X205452000Y-120210000D02*
X206852000Y-120210000D01*
X206852000Y-120210000D02*
X206852000Y-122010000D01*
X195302000Y-122210000D02*
X195302000Y-125060000D01*
X195302000Y-125060000D02*
X198152000Y-125060000D01*
X195552000Y-114010000D02*
X195552000Y-116810000D01*
X195552000Y-116810000D02*
X205452000Y-116810000D01*
X205452000Y-116810000D02*
X205452000Y-115810000D01*
X205452000Y-115810000D02*
X206852000Y-115810000D01*
X206852000Y-115810000D02*
X206852000Y-114010000D01*
X195552000Y-114010000D02*
X195552000Y-111210000D01*
X195552000Y-111210000D02*
X205452000Y-111210000D01*
X205452000Y-111210000D02*
X205452000Y-112210000D01*
X205452000Y-112210000D02*
X206852000Y-112210000D01*
X206852000Y-112210000D02*
X206852000Y-114010000D01*
X195302000Y-114210000D02*
X195302000Y-117060000D01*
X195302000Y-117060000D02*
X198152000Y-117060000D01*
X195552000Y-106010000D02*
X195552000Y-108810000D01*
X195552000Y-108810000D02*
X205452000Y-108810000D01*
X205452000Y-108810000D02*
X205452000Y-107810000D01*
X205452000Y-107810000D02*
X206852000Y-107810000D01*
X206852000Y-107810000D02*
X206852000Y-106010000D01*
X195552000Y-106010000D02*
X195552000Y-103210000D01*
X195552000Y-103210000D02*
X205452000Y-103210000D01*
X205452000Y-103210000D02*
X205452000Y-104210000D01*
X205452000Y-104210000D02*
X206852000Y-104210000D01*
X206852000Y-104210000D02*
X206852000Y-106010000D01*
X195302000Y-106210000D02*
X195302000Y-109060000D01*
X195302000Y-109060000D02*
X198152000Y-109060000D01*
X195552000Y-98010000D02*
X195552000Y-100810000D01*
X195552000Y-100810000D02*
X205452000Y-100810000D01*
X205452000Y-100810000D02*
X205452000Y-99810000D01*
X205452000Y-99810000D02*
X206852000Y-99810000D01*
X206852000Y-99810000D02*
X206852000Y-98010000D01*
X195552000Y-98010000D02*
X195552000Y-95210000D01*
X195552000Y-95210000D02*
X205452000Y-95210000D01*
X205452000Y-95210000D02*
X205452000Y-96210000D01*
X205452000Y-96210000D02*
X206852000Y-96210000D01*
X206852000Y-96210000D02*
X206852000Y-98010000D01*
X195302000Y-98210000D02*
X195302000Y-101060000D01*
X195302000Y-101060000D02*
X198152000Y-101060000D01*
X195552000Y-90010000D02*
X195552000Y-92810000D01*
X195552000Y-92810000D02*
X205452000Y-92810000D01*
X205452000Y-92810000D02*
X205452000Y-91810000D01*
X205452000Y-91810000D02*
X206852000Y-91810000D01*
X206852000Y-91810000D02*
X206852000Y-90010000D01*
X195552000Y-90010000D02*
X195552000Y-87210000D01*
X195552000Y-87210000D02*
X205452000Y-87210000D01*
X205452000Y-87210000D02*
X205452000Y-88210000D01*
X205452000Y-88210000D02*
X206852000Y-88210000D01*
X206852000Y-88210000D02*
X206852000Y-90010000D01*
X195302000Y-90210000D02*
X195302000Y-93060000D01*
X195302000Y-93060000D02*
X198152000Y-93060000D01*
X195552000Y-82010000D02*
X195552000Y-84810000D01*
X195552000Y-84810000D02*
X205452000Y-84810000D01*
X205452000Y-84810000D02*
X205452000Y-83810000D01*
X205452000Y-83810000D02*
X206852000Y-83810000D01*
X206852000Y-83810000D02*
X206852000Y-82010000D01*
X195552000Y-82010000D02*
X195552000Y-79210000D01*
X195552000Y-79210000D02*
X205452000Y-79210000D01*
X205452000Y-79210000D02*
X205452000Y-80210000D01*
X205452000Y-80210000D02*
X206852000Y-80210000D01*
X206852000Y-80210000D02*
X206852000Y-82010000D01*
X195302000Y-82210000D02*
X195302000Y-85060000D01*
X195302000Y-85060000D02*
X198152000Y-85060000D01*
X150959000Y-91745000D02*
X150959000Y-94545000D01*
X150959000Y-94545000D02*
X160859000Y-94545000D01*
X160859000Y-94545000D02*
X160859000Y-93545000D01*
X160859000Y-93545000D02*
X162259000Y-93545000D01*
X162259000Y-93545000D02*
X162259000Y-91745000D01*
X150959000Y-91745000D02*
X150959000Y-88945000D01*
X150959000Y-88945000D02*
X160859000Y-88945000D01*
X160859000Y-88945000D02*
X160859000Y-89945000D01*
X160859000Y-89945000D02*
X162259000Y-89945000D01*
X162259000Y-89945000D02*
X162259000Y-91745000D01*
X150709000Y-91945000D02*
X150709000Y-94795000D01*
X150709000Y-94795000D02*
X153559000Y-94795000D01*
X150959000Y-83745000D02*
X150959000Y-86545000D01*
X150959000Y-86545000D02*
X160859000Y-86545000D01*
X160859000Y-86545000D02*
X160859000Y-85545000D01*
X160859000Y-85545000D02*
X162259000Y-85545000D01*
X162259000Y-85545000D02*
X162259000Y-83745000D01*
X150959000Y-83745000D02*
X150959000Y-80945000D01*
X150959000Y-80945000D02*
X160859000Y-80945000D01*
X160859000Y-80945000D02*
X160859000Y-81945000D01*
X160859000Y-81945000D02*
X162259000Y-81945000D01*
X162259000Y-81945000D02*
X162259000Y-83745000D01*
X150709000Y-83945000D02*
X150709000Y-86795000D01*
X150709000Y-86795000D02*
X153559000Y-86795000D01*
X150959000Y-75745000D02*
X150959000Y-78545000D01*
X150959000Y-78545000D02*
X160859000Y-78545000D01*
X160859000Y-78545000D02*
X160859000Y-77545000D01*
X160859000Y-77545000D02*
X162259000Y-77545000D01*
X162259000Y-77545000D02*
X162259000Y-75745000D01*
X150959000Y-75745000D02*
X150959000Y-72945000D01*
X150959000Y-72945000D02*
X160859000Y-72945000D01*
X160859000Y-72945000D02*
X160859000Y-73945000D01*
X160859000Y-73945000D02*
X162259000Y-73945000D01*
X162259000Y-73945000D02*
X162259000Y-75745000D01*
X150709000Y-75945000D02*
X150709000Y-78795000D01*
X150709000Y-78795000D02*
X153559000Y-78795000D01*
X150959000Y-67745000D02*
X150959000Y-70545000D01*
X150959000Y-70545000D02*
X160859000Y-70545000D01*
X160859000Y-70545000D02*
X160859000Y-69545000D01*
X160859000Y-69545000D02*
X162259000Y-69545000D01*
X162259000Y-69545000D02*
X162259000Y-67745000D01*
X150959000Y-67745000D02*
X150959000Y-64945000D01*
X150959000Y-64945000D02*
X160859000Y-64945000D01*
X160859000Y-64945000D02*
X160859000Y-65945000D01*
X160859000Y-65945000D02*
X162259000Y-65945000D01*
X162259000Y-65945000D02*
X162259000Y-67745000D01*
X150709000Y-67945000D02*
X150709000Y-70795000D01*
X150709000Y-70795000D02*
X153559000Y-70795000D01*
X179251000Y-136842000D02*
X176451000Y-136842000D01*
X176451000Y-136842000D02*
X176451000Y-146742000D01*
X176451000Y-146742000D02*
X177451000Y-146742000D01*
X177451000Y-146742000D02*
X177451000Y-148142000D01*
X177451000Y-148142000D02*
X179251000Y-148142000D01*
X179251000Y-136842000D02*
X182051000Y-136842000D01*
X182051000Y-136842000D02*
X182051000Y-146742000D01*
X182051000Y-146742000D02*
X181051000Y-146742000D01*
X181051000Y-146742000D02*
X181051000Y-148142000D01*
X181051000Y-148142000D02*
X179251000Y-148142000D01*
X179051000Y-136592000D02*
X176201000Y-136592000D01*
X176201000Y-136592000D02*
X176201000Y-139442000D01*
X187251000Y-136842000D02*
X184451000Y-136842000D01*
X184451000Y-136842000D02*
X184451000Y-146742000D01*
X184451000Y-146742000D02*
X185451000Y-146742000D01*
X185451000Y-146742000D02*
X185451000Y-148142000D01*
X185451000Y-148142000D02*
X187251000Y-148142000D01*
X187251000Y-136842000D02*
X190051000Y-136842000D01*
X190051000Y-136842000D02*
X190051000Y-146742000D01*
X190051000Y-146742000D02*
X189051000Y-146742000D01*
X189051000Y-146742000D02*
X189051000Y-148142000D01*
X189051000Y-148142000D02*
X187251000Y-148142000D01*
X187051000Y-136592000D02*
X184201000Y-136592000D01*
X184201000Y-136592000D02*
X184201000Y-139442000D01*
X195251000Y-136842000D02*
X192451000Y-136842000D01*
X192451000Y-136842000D02*
X192451000Y-146742000D01*
X192451000Y-146742000D02*
X193451000Y-146742000D01*
X193451000Y-146742000D02*
X193451000Y-148142000D01*
X193451000Y-148142000D02*
X195251000Y-148142000D01*
X195251000Y-136842000D02*
X198051000Y-136842000D01*
X198051000Y-136842000D02*
X198051000Y-146742000D01*
X198051000Y-146742000D02*
X197051000Y-146742000D01*
X197051000Y-146742000D02*
X197051000Y-148142000D01*
X197051000Y-148142000D02*
X195251000Y-148142000D01*
X195051000Y-136592000D02*
X192201000Y-136592000D01*
X192201000Y-136592000D02*
X192201000Y-139442000D01*
X203251000Y-136842000D02*
X200451000Y-136842000D01*
X200451000Y-136842000D02*
X200451000Y-146742000D01*
X200451000Y-146742000D02*
X201451000Y-146742000D01*
X201451000Y-146742000D02*
X201451000Y-148142000D01*
X201451000Y-148142000D02*
X203251000Y-148142000D01*
X203251000Y-136842000D02*
X206051000Y-136842000D01*
X206051000Y-136842000D02*
X206051000Y-146742000D01*
X206051000Y-146742000D02*
X205051000Y-146742000D01*
X205051000Y-146742000D02*
X205051000Y-148142000D01*
X205051000Y-148142000D02*
X203251000Y-148142000D01*
X203051000Y-136592000D02*
X200201000Y-136592000D01*
X200201000Y-136592000D02*
X200201000Y-139442000D01*
X136144000Y-78200000D02*
X138944000Y-78200000D01*
X138944000Y-78200000D02*
X138944000Y-68300000D01*
X138944000Y-68300000D02*
X137944000Y-68300000D01*
X137944000Y-68300000D02*
X137944000Y-66900000D01*
X137944000Y-66900000D02*
X136144000Y-66900000D01*
X136144000Y-78200000D02*
X133344000Y-78200000D01*
X133344000Y-78200000D02*
X133344000Y-68300000D01*
X133344000Y-68300000D02*
X134344000Y-68300000D01*
X134344000Y-68300000D02*
X134344000Y-66900000D01*
X134344000Y-66900000D02*
X136144000Y-66900000D01*
X136344000Y-78450000D02*
X139194000Y-78450000D01*
X139194000Y-78450000D02*
X139194000Y-75600000D01*
X128144000Y-78200000D02*
X130944000Y-78200000D01*
X130944000Y-78200000D02*
X130944000Y-68300000D01*
X130944000Y-68300000D02*
X129944000Y-68300000D01*
X129944000Y-68300000D02*
X129944000Y-66900000D01*
X129944000Y-66900000D02*
X128144000Y-66900000D01*
X128144000Y-78200000D02*
X125344000Y-78200000D01*
X125344000Y-78200000D02*
X125344000Y-68300000D01*
X125344000Y-68300000D02*
X126344000Y-68300000D01*
X126344000Y-68300000D02*
X126344000Y-66900000D01*
X126344000Y-66900000D02*
X128144000Y-66900000D01*
X128344000Y-78450000D02*
X131194000Y-78450000D01*
X131194000Y-78450000D02*
X131194000Y-75600000D01*
X120144000Y-78200000D02*
X122944000Y-78200000D01*
X122944000Y-78200000D02*
X122944000Y-68300000D01*
X122944000Y-68300000D02*
X121944000Y-68300000D01*
X121944000Y-68300000D02*
X121944000Y-66900000D01*
X121944000Y-66900000D02*
X120144000Y-66900000D01*
X120144000Y-78200000D02*
X117344000Y-78200000D01*
X117344000Y-78200000D02*
X117344000Y-68300000D01*
X117344000Y-68300000D02*
X118344000Y-68300000D01*
X118344000Y-68300000D02*
X118344000Y-66900000D01*
X118344000Y-66900000D02*
X120144000Y-66900000D01*
X120344000Y-78450000D02*
X123194000Y-78450000D01*
X123194000Y-78450000D02*
X123194000Y-75600000D01*
X112144000Y-78200000D02*
X114944000Y-78200000D01*
X114944000Y-78200000D02*
X114944000Y-68300000D01*
X114944000Y-68300000D02*
X113944000Y-68300000D01*
X113944000Y-68300000D02*
X113944000Y-66900000D01*
X113944000Y-66900000D02*
X112144000Y-66900000D01*
X112144000Y-78200000D02*
X109344000Y-78200000D01*
X109344000Y-78200000D02*
X109344000Y-68300000D01*
X109344000Y-68300000D02*
X110344000Y-68300000D01*
X110344000Y-68300000D02*
X110344000Y-66900000D01*
X110344000Y-66900000D02*
X112144000Y-66900000D01*
X112344000Y-78450000D02*
X115194000Y-78450000D01*
X115194000Y-78450000D02*
X115194000Y-75600000D01*
X104144000Y-78200000D02*
X106944000Y-78200000D01*
X106944000Y-78200000D02*
X106944000Y-68300000D01*
X106944000Y-68300000D02*
X105944000Y-68300000D01*
X105944000Y-68300000D02*
X105944000Y-66900000D01*
X105944000Y-66900000D02*
X104144000Y-66900000D01*
X104144000Y-78200000D02*
X101344000Y-78200000D01*
X101344000Y-78200000D02*
X101344000Y-68300000D01*
X101344000Y-68300000D02*
X102344000Y-68300000D01*
X102344000Y-68300000D02*
X102344000Y-66900000D01*
X102344000Y-66900000D02*
X104144000Y-66900000D01*
X104344000Y-78450000D02*
X107194000Y-78450000D01*
X107194000Y-78450000D02*
X107194000Y-75600000D01*
X96144000Y-78200000D02*
X98944000Y-78200000D01*
X98944000Y-78200000D02*
X98944000Y-68300000D01*
X98944000Y-68300000D02*
X97944000Y-68300000D01*
X97944000Y-68300000D02*
X97944000Y-66900000D01*
X97944000Y-66900000D02*
X96144000Y-66900000D01*
X96144000Y-78200000D02*
X93344000Y-78200000D01*
X93344000Y-78200000D02*
X93344000Y-68300000D01*
X93344000Y-68300000D02*
X94344000Y-68300000D01*
X94344000Y-68300000D02*
X94344000Y-66900000D01*
X94344000Y-66900000D02*
X96144000Y-66900000D01*
X96344000Y-78450000D02*
X99194000Y-78450000D01*
X99194000Y-78450000D02*
X99194000Y-75600000D01*
X98362000Y-123444000D02*
X98362000Y-120644000D01*
X98362000Y-120644000D02*
X88462000Y-120644000D01*
X88462000Y-120644000D02*
X88462000Y-121644000D01*
X88462000Y-121644000D02*
X87062000Y-121644000D01*
X87062000Y-121644000D02*
X87062000Y-123444000D01*
X98362000Y-123444000D02*
X98362000Y-126244000D01*
X98362000Y-126244000D02*
X88462000Y-126244000D01*
X88462000Y-126244000D02*
X88462000Y-125244000D01*
X88462000Y-125244000D02*
X87062000Y-125244000D01*
X87062000Y-125244000D02*
X87062000Y-123444000D01*
X98612000Y-123244000D02*
X98612000Y-120394000D01*
X98612000Y-120394000D02*
X95762000Y-120394000D01*
X98362000Y-131064000D02*
X98362000Y-128264000D01*
X98362000Y-128264000D02*
X88462000Y-128264000D01*
X88462000Y-128264000D02*
X88462000Y-129264000D01*
X88462000Y-129264000D02*
X87062000Y-129264000D01*
X87062000Y-129264000D02*
X87062000Y-131064000D01*
X98362000Y-131064000D02*
X98362000Y-133864000D01*
X98362000Y-133864000D02*
X88462000Y-133864000D01*
X88462000Y-133864000D02*
X88462000Y-132864000D01*
X88462000Y-132864000D02*
X87062000Y-132864000D01*
X87062000Y-132864000D02*
X87062000Y-131064000D01*
X98612000Y-130864000D02*
X98612000Y-128014000D01*
X98612000Y-128014000D02*
X95762000Y-128014000D01*
X109449000Y-134482600D02*
X109449000Y-133282600D01*
X111209000Y-133282600D02*
X111209000Y-134482600D01*
X127479000Y-125947600D02*
X127679000Y-125947600D01*
X127679000Y-125947600D02*
X127679000Y-121647600D01*
X127679000Y-121647600D02*
X127529000Y-121647600D01*
X122629000Y-121647600D02*
X122479000Y-121647600D01*
X122479000Y-121647600D02*
X122479000Y-125947600D01*
X122479000Y-125947600D02*
X122679000Y-125947600D01*
X133979000Y-125947600D02*
X134179000Y-125947600D01*
X134179000Y-125947600D02*
X134179000Y-121647600D01*
X134179000Y-121647600D02*
X134029000Y-121647600D01*
X129129000Y-121647600D02*
X128979000Y-121647600D01*
X128979000Y-121647600D02*
X128979000Y-125947600D01*
X128979000Y-125947600D02*
X129179000Y-125947600D01*
X122568000Y-139671000D02*
X122368000Y-139671000D01*
X122368000Y-139671000D02*
X122368000Y-143971000D01*
X122368000Y-143971000D02*
X122518000Y-143971000D01*
X127418000Y-143971000D02*
X127568000Y-143971000D01*
X127568000Y-143971000D02*
X127568000Y-139671000D01*
X127568000Y-139671000D02*
X127368000Y-139671000D01*
X129172000Y-139671000D02*
X128972000Y-139671000D01*
X128972000Y-139671000D02*
X128972000Y-143971000D01*
X128972000Y-143971000D02*
X129122000Y-143971000D01*
X134022000Y-143971000D02*
X134172000Y-143971000D01*
X134172000Y-143971000D02*
X134172000Y-139671000D01*
X134172000Y-139671000D02*
X133972000Y-139671000D01*
X148099900Y-142648400D02*
X147169900Y-142648400D01*
X144939900Y-142648400D02*
X145869900Y-142648400D01*
X144939900Y-142648400D02*
X144939900Y-144808400D01*
X148099900Y-142648400D02*
X148099900Y-144108400D01*
X85262000Y-99576000D02*
X85262000Y-100576000D01*
X83902000Y-100576000D02*
X83902000Y-99576000D01*
X174617000Y-68498000D02*
X173617000Y-68498000D01*
X173617000Y-67138000D02*
X174617000Y-67138000D01*
X168649100Y-141914500D02*
X168649100Y-140914500D01*
X170009100Y-140914500D02*
X170009100Y-141914500D01*
X145593300Y-129247300D02*
X145593300Y-128247300D01*
X146953300Y-128247300D02*
X146953300Y-129247300D01*
X113399000Y-127632600D02*
X113399000Y-126632600D01*
X114759000Y-126632600D02*
X114759000Y-127632600D01*
X115149000Y-127632600D02*
X115149000Y-126632600D01*
X116509000Y-126632600D02*
X116509000Y-127632600D01*
X112329000Y-130452600D02*
X113329000Y-130452600D01*
X113329000Y-131812600D02*
X112329000Y-131812600D01*
X116899000Y-127632600D02*
X116899000Y-126632600D01*
X118259000Y-126632600D02*
X118259000Y-127632600D01*
X146718400Y-138829500D02*
X147718400Y-138829500D01*
X147718400Y-140189500D02*
X146718400Y-140189500D01*
X150853300Y-117747300D02*
X150853300Y-118747300D01*
X149493300Y-118747300D02*
X149493300Y-117747300D01*
X146293300Y-123147300D02*
X146293300Y-122147300D01*
X147653300Y-122147300D02*
X147653300Y-123147300D01*
X150553300Y-128247300D02*
X150553300Y-129247300D01*
X149193300Y-129247300D02*
X149193300Y-128247300D01*
D13*
X118269000Y-135237600D02*
X122269000Y-135237600D01*
X116994000Y-129837600D02*
X122269000Y-129837600D01*
D12*
X158083300Y-122857300D02*
X158083300Y-121597300D01*
X158083300Y-116037300D02*
X158083300Y-117297300D01*
X154323300Y-122857300D02*
X158083300Y-122857300D01*
X152073300Y-116037300D02*
X158083300Y-116037300D01*
X159193300Y-126277300D02*
X153193300Y-126277300D01*
X153193300Y-126277300D02*
X153193300Y-134097300D01*
X153193300Y-134097300D02*
X159193300Y-134097300D01*
X159193300Y-134097300D02*
X159193300Y-126277300D01*
X153193300Y-127647300D02*
X154193300Y-127647300D01*
X154193300Y-127647300D02*
X154193300Y-132727300D01*
X154193300Y-132727300D02*
X153193300Y-132727300D01*
X154193300Y-127647300D02*
X154623300Y-127897300D01*
X154623300Y-127897300D02*
X154623300Y-132477300D01*
X154623300Y-132477300D02*
X154193300Y-132727300D01*
X153193300Y-127897300D02*
X154193300Y-127897300D01*
X153193300Y-132477300D02*
X154193300Y-132477300D01*
X159193300Y-126847300D02*
X158573300Y-126847300D01*
X158573300Y-126847300D02*
X158573300Y-128447300D01*
X158573300Y-128447300D02*
X159193300Y-128447300D01*
X159193300Y-129387300D02*
X158573300Y-129387300D01*
X158573300Y-129387300D02*
X158573300Y-130987300D01*
X158573300Y-130987300D02*
X159193300Y-130987300D01*
X159193300Y-131927300D02*
X158573300Y-131927300D01*
X158573300Y-131927300D02*
X158573300Y-133527300D01*
X158573300Y-133527300D02*
X159193300Y-133527300D01*
X162735400Y-146385400D02*
X164235400Y-146385400D01*
X164235400Y-146385400D02*
X164235400Y-145915400D01*
X164235400Y-145915400D02*
X167065400Y-145915400D01*
X162735400Y-139485400D02*
X164235400Y-139485400D01*
X164235400Y-139485400D02*
X164235400Y-139955400D01*
X164235400Y-139955400D02*
X165335400Y-139955400D01*
D14*
G36*
X90170000Y-139801600D02*
X85090000Y-139801600D01*
X85090000Y-138909897D01*
X85197277Y-138909897D01*
X85207243Y-139048720D01*
X85229105Y-139173486D01*
X85256135Y-139254095D01*
X85343103Y-139381908D01*
X85462096Y-139474711D01*
X85605708Y-139529524D01*
X85766533Y-139543363D01*
X85915500Y-139519533D01*
X85987164Y-139491910D01*
X86232595Y-139491910D01*
X86251796Y-139513531D01*
X86312360Y-139518814D01*
X86340785Y-139517310D01*
X86403067Y-139510276D01*
X86440775Y-139492331D01*
X86467590Y-139451011D01*
X86496683Y-139375272D01*
X86544794Y-139241044D01*
X86784996Y-139248272D01*
X87025197Y-139255500D01*
X87067248Y-139382500D01*
X87093659Y-139456408D01*
X87119767Y-139494945D01*
X87161133Y-139510999D01*
X87229950Y-139517241D01*
X87303478Y-139519203D01*
X87338880Y-139510073D01*
X87348320Y-139485930D01*
X87348174Y-139479141D01*
X87339557Y-139442888D01*
X87316686Y-139365930D01*
X87281892Y-139255577D01*
X87237506Y-139119141D01*
X87185860Y-138963932D01*
X87151324Y-138861800D01*
X86956900Y-138290300D01*
X86627324Y-138290300D01*
X86523059Y-138595100D01*
X86436924Y-138847895D01*
X86367039Y-139055256D01*
X86312619Y-139219610D01*
X86272879Y-139343380D01*
X86247034Y-139428992D01*
X86234297Y-139478871D01*
X86232595Y-139491910D01*
X85987164Y-139491910D01*
X86020546Y-139479043D01*
X86081716Y-139423970D01*
X86105252Y-139348031D01*
X86106000Y-139327763D01*
X86103395Y-139270543D01*
X86097028Y-139243193D01*
X86096073Y-139242800D01*
X86069163Y-139252374D01*
X86011965Y-139276706D01*
X85975423Y-139293042D01*
X85835754Y-139337460D01*
X85714865Y-139334906D01*
X85611567Y-139285115D01*
X85528912Y-139194223D01*
X85495221Y-139132160D01*
X85477353Y-139061156D01*
X85471193Y-138962683D01*
X85471000Y-138933427D01*
X85482551Y-138773253D01*
X85518907Y-138651498D01*
X85582621Y-138560912D01*
X85611047Y-138535864D01*
X85705466Y-138491353D01*
X85818187Y-138482745D01*
X85931371Y-138510243D01*
X85973263Y-138531694D01*
X86046001Y-138571121D01*
X86086426Y-138575801D01*
X86102058Y-138542517D01*
X86101110Y-138476989D01*
X86083122Y-138389916D01*
X86039236Y-138331809D01*
X86029439Y-138324101D01*
X85943135Y-138283948D01*
X85909615Y-138277600D01*
X87528400Y-138277600D01*
X87528541Y-138715750D01*
X87530093Y-138867289D01*
X87534298Y-139007739D01*
X87540626Y-139126395D01*
X87548549Y-139212552D01*
X87554845Y-139248100D01*
X87612045Y-139365237D01*
X87706703Y-139455925D01*
X87831164Y-139517066D01*
X87977771Y-139545565D01*
X88138868Y-139538325D01*
X88225708Y-139519440D01*
X88340228Y-139463930D01*
X88438502Y-139372809D01*
X88505353Y-139261255D01*
X88516240Y-139228908D01*
X88525696Y-139169577D01*
X88533796Y-139070584D01*
X88539947Y-138943061D01*
X88543556Y-138798141D01*
X88544258Y-138703050D01*
X88544394Y-138292767D01*
X88740899Y-138292767D01*
X88745473Y-138318777D01*
X88764136Y-138384818D01*
X88794242Y-138482952D01*
X88833150Y-138605245D01*
X88878216Y-138743759D01*
X88926796Y-138890560D01*
X88976249Y-139037711D01*
X89023931Y-139177276D01*
X89067198Y-139301320D01*
X89103408Y-139401906D01*
X89129918Y-139471099D01*
X89142619Y-139498934D01*
X89173894Y-139511482D01*
X89239977Y-139519929D01*
X89304936Y-139522200D01*
X89392549Y-139519111D01*
X89441559Y-139507652D01*
X89463909Y-139484536D01*
X89466377Y-139477750D01*
X89478336Y-139441748D01*
X89504461Y-139365191D01*
X89542197Y-139255494D01*
X89588990Y-139120071D01*
X89642285Y-138966338D01*
X89672539Y-138879268D01*
X89727467Y-138720261D01*
X89776298Y-138576895D01*
X89816674Y-138456252D01*
X89846242Y-138365415D01*
X89862643Y-138311469D01*
X89865200Y-138300026D01*
X89842364Y-138286477D01*
X89783321Y-138281331D01*
X89744550Y-138282558D01*
X89623900Y-138290300D01*
X89531402Y-138582400D01*
X89487781Y-138721386D01*
X89442986Y-138866176D01*
X89403142Y-138996873D01*
X89380880Y-139071350D01*
X89352137Y-139162566D01*
X89326933Y-139231343D01*
X89309624Y-139266123D01*
X89306665Y-139268200D01*
X89293005Y-139245511D01*
X89270453Y-139184952D01*
X89243032Y-139097784D01*
X89231787Y-139058650D01*
X89198709Y-138943256D01*
X89156758Y-138800780D01*
X89112273Y-138652609D01*
X89084993Y-138563349D01*
X88996887Y-138277599D01*
X88876477Y-138277599D01*
X88802406Y-138280548D01*
X88751703Y-138288025D01*
X88740899Y-138292767D01*
X88544394Y-138292767D01*
X88544400Y-138277600D01*
X88290400Y-138277600D01*
X88290400Y-139195907D01*
X88216153Y-139270153D01*
X88147526Y-139323562D01*
X88070731Y-139343241D01*
X88036400Y-139344400D01*
X87949794Y-139333690D01*
X87881635Y-139293497D01*
X87856646Y-139270153D01*
X87782400Y-139195907D01*
X87782400Y-138277600D01*
X87528400Y-138277600D01*
X85909615Y-138277600D01*
X85827540Y-138262057D01*
X85701506Y-138260477D01*
X85598000Y-138277228D01*
X85484060Y-138329792D01*
X85374719Y-138418666D01*
X85283343Y-138530117D01*
X85223297Y-138650418D01*
X85218057Y-138667523D01*
X85200462Y-138776378D01*
X85197277Y-138909897D01*
X85090000Y-138909897D01*
X85090000Y-138099800D01*
X90170000Y-138099800D01*
X90170000Y-139801600D01*
X90170000Y-139801600D01*
G37*
X90170000Y-139801600D02*
X85090000Y-139801600D01*
X85090000Y-138909897D01*
X85197277Y-138909897D01*
X85207243Y-139048720D01*
X85229105Y-139173486D01*
X85256135Y-139254095D01*
X85343103Y-139381908D01*
X85462096Y-139474711D01*
X85605708Y-139529524D01*
X85766533Y-139543363D01*
X85915500Y-139519533D01*
X85987164Y-139491910D01*
X86232595Y-139491910D01*
X86251796Y-139513531D01*
X86312360Y-139518814D01*
X86340785Y-139517310D01*
X86403067Y-139510276D01*
X86440775Y-139492331D01*
X86467590Y-139451011D01*
X86496683Y-139375272D01*
X86544794Y-139241044D01*
X86784996Y-139248272D01*
X87025197Y-139255500D01*
X87067248Y-139382500D01*
X87093659Y-139456408D01*
X87119767Y-139494945D01*
X87161133Y-139510999D01*
X87229950Y-139517241D01*
X87303478Y-139519203D01*
X87338880Y-139510073D01*
X87348320Y-139485930D01*
X87348174Y-139479141D01*
X87339557Y-139442888D01*
X87316686Y-139365930D01*
X87281892Y-139255577D01*
X87237506Y-139119141D01*
X87185860Y-138963932D01*
X87151324Y-138861800D01*
X86956900Y-138290300D01*
X86627324Y-138290300D01*
X86523059Y-138595100D01*
X86436924Y-138847895D01*
X86367039Y-139055256D01*
X86312619Y-139219610D01*
X86272879Y-139343380D01*
X86247034Y-139428992D01*
X86234297Y-139478871D01*
X86232595Y-139491910D01*
X85987164Y-139491910D01*
X86020546Y-139479043D01*
X86081716Y-139423970D01*
X86105252Y-139348031D01*
X86106000Y-139327763D01*
X86103395Y-139270543D01*
X86097028Y-139243193D01*
X86096073Y-139242800D01*
X86069163Y-139252374D01*
X86011965Y-139276706D01*
X85975423Y-139293042D01*
X85835754Y-139337460D01*
X85714865Y-139334906D01*
X85611567Y-139285115D01*
X85528912Y-139194223D01*
X85495221Y-139132160D01*
X85477353Y-139061156D01*
X85471193Y-138962683D01*
X85471000Y-138933427D01*
X85482551Y-138773253D01*
X85518907Y-138651498D01*
X85582621Y-138560912D01*
X85611047Y-138535864D01*
X85705466Y-138491353D01*
X85818187Y-138482745D01*
X85931371Y-138510243D01*
X85973263Y-138531694D01*
X86046001Y-138571121D01*
X86086426Y-138575801D01*
X86102058Y-138542517D01*
X86101110Y-138476989D01*
X86083122Y-138389916D01*
X86039236Y-138331809D01*
X86029439Y-138324101D01*
X85943135Y-138283948D01*
X85909615Y-138277600D01*
X87528400Y-138277600D01*
X87528541Y-138715750D01*
X87530093Y-138867289D01*
X87534298Y-139007739D01*
X87540626Y-139126395D01*
X87548549Y-139212552D01*
X87554845Y-139248100D01*
X87612045Y-139365237D01*
X87706703Y-139455925D01*
X87831164Y-139517066D01*
X87977771Y-139545565D01*
X88138868Y-139538325D01*
X88225708Y-139519440D01*
X88340228Y-139463930D01*
X88438502Y-139372809D01*
X88505353Y-139261255D01*
X88516240Y-139228908D01*
X88525696Y-139169577D01*
X88533796Y-139070584D01*
X88539947Y-138943061D01*
X88543556Y-138798141D01*
X88544258Y-138703050D01*
X88544394Y-138292767D01*
X88740899Y-138292767D01*
X88745473Y-138318777D01*
X88764136Y-138384818D01*
X88794242Y-138482952D01*
X88833150Y-138605245D01*
X88878216Y-138743759D01*
X88926796Y-138890560D01*
X88976249Y-139037711D01*
X89023931Y-139177276D01*
X89067198Y-139301320D01*
X89103408Y-139401906D01*
X89129918Y-139471099D01*
X89142619Y-139498934D01*
X89173894Y-139511482D01*
X89239977Y-139519929D01*
X89304936Y-139522200D01*
X89392549Y-139519111D01*
X89441559Y-139507652D01*
X89463909Y-139484536D01*
X89466377Y-139477750D01*
X89478336Y-139441748D01*
X89504461Y-139365191D01*
X89542197Y-139255494D01*
X89588990Y-139120071D01*
X89642285Y-138966338D01*
X89672539Y-138879268D01*
X89727467Y-138720261D01*
X89776298Y-138576895D01*
X89816674Y-138456252D01*
X89846242Y-138365415D01*
X89862643Y-138311469D01*
X89865200Y-138300026D01*
X89842364Y-138286477D01*
X89783321Y-138281331D01*
X89744550Y-138282558D01*
X89623900Y-138290300D01*
X89531402Y-138582400D01*
X89487781Y-138721386D01*
X89442986Y-138866176D01*
X89403142Y-138996873D01*
X89380880Y-139071350D01*
X89352137Y-139162566D01*
X89326933Y-139231343D01*
X89309624Y-139266123D01*
X89306665Y-139268200D01*
X89293005Y-139245511D01*
X89270453Y-139184952D01*
X89243032Y-139097784D01*
X89231787Y-139058650D01*
X89198709Y-138943256D01*
X89156758Y-138800780D01*
X89112273Y-138652609D01*
X89084993Y-138563349D01*
X88996887Y-138277599D01*
X88876477Y-138277599D01*
X88802406Y-138280548D01*
X88751703Y-138288025D01*
X88740899Y-138292767D01*
X88544394Y-138292767D01*
X88544400Y-138277600D01*
X88290400Y-138277600D01*
X88290400Y-139195907D01*
X88216153Y-139270153D01*
X88147526Y-139323562D01*
X88070731Y-139343241D01*
X88036400Y-139344400D01*
X87949794Y-139333690D01*
X87881635Y-139293497D01*
X87856646Y-139270153D01*
X87782400Y-139195907D01*
X87782400Y-138277600D01*
X87528400Y-138277600D01*
X85909615Y-138277600D01*
X85827540Y-138262057D01*
X85701506Y-138260477D01*
X85598000Y-138277228D01*
X85484060Y-138329792D01*
X85374719Y-138418666D01*
X85283343Y-138530117D01*
X85223297Y-138650418D01*
X85218057Y-138667523D01*
X85200462Y-138776378D01*
X85197277Y-138909897D01*
X85090000Y-138909897D01*
X85090000Y-138099800D01*
X90170000Y-138099800D01*
X90170000Y-139801600D01*
G36*
X86766400Y-138874500D02*
X86753700Y-138887200D01*
X86741000Y-138874500D01*
X86753700Y-138861800D01*
X86766400Y-138874500D01*
X86766400Y-138874500D01*
G37*
X86766400Y-138874500D02*
X86753700Y-138887200D01*
X86741000Y-138874500D01*
X86753700Y-138861800D01*
X86766400Y-138874500D01*
G36*
X86842600Y-138849100D02*
X86829900Y-138861800D01*
X86817200Y-138849100D01*
X86829900Y-138836400D01*
X86842600Y-138849100D01*
X86842600Y-138849100D01*
G37*
X86842600Y-138849100D02*
X86829900Y-138861800D01*
X86817200Y-138849100D01*
X86829900Y-138836400D01*
X86842600Y-138849100D01*
G36*
X86791800Y-138772900D02*
X86816031Y-138795724D01*
X86817200Y-138799799D01*
X86797548Y-138810708D01*
X86791800Y-138811000D01*
X86767376Y-138791473D01*
X86766400Y-138784100D01*
X86781960Y-138768931D01*
X86791800Y-138772900D01*
X86791800Y-138772900D01*
G37*
X86791800Y-138772900D02*
X86816031Y-138795724D01*
X86817200Y-138799799D01*
X86797548Y-138810708D01*
X86791800Y-138811000D01*
X86767376Y-138791473D01*
X86766400Y-138784100D01*
X86781960Y-138768931D01*
X86791800Y-138772900D01*
G36*
X86918061Y-138779528D02*
X86918800Y-138785600D01*
X86899471Y-138810261D01*
X86893400Y-138811000D01*
X86868738Y-138791671D01*
X86868000Y-138785600D01*
X86887328Y-138760938D01*
X86893400Y-138760200D01*
X86918061Y-138779528D01*
X86918061Y-138779528D01*
G37*
X86918061Y-138779528D02*
X86918800Y-138785600D01*
X86899471Y-138810261D01*
X86893400Y-138811000D01*
X86868738Y-138791671D01*
X86868000Y-138785600D01*
X86887328Y-138760938D01*
X86893400Y-138760200D01*
X86918061Y-138779528D01*
G36*
X86753700Y-138684000D02*
X86755546Y-138726108D01*
X86746733Y-138739226D01*
X86715596Y-138748341D01*
X86702900Y-138734800D01*
X86701053Y-138692691D01*
X86709866Y-138679573D01*
X86741003Y-138670458D01*
X86753700Y-138684000D01*
X86753700Y-138684000D01*
G37*
X86753700Y-138684000D02*
X86755546Y-138726108D01*
X86746733Y-138739226D01*
X86715596Y-138748341D01*
X86702900Y-138734800D01*
X86701053Y-138692691D01*
X86709866Y-138679573D01*
X86741003Y-138670458D01*
X86753700Y-138684000D01*
G36*
X86865310Y-138679195D02*
X86868000Y-138696700D01*
X86852401Y-138731730D01*
X86817332Y-138725453D01*
X86809423Y-138718557D01*
X86804287Y-138686894D01*
X86830031Y-138661222D01*
X86844099Y-138658600D01*
X86865310Y-138679195D01*
X86865310Y-138679195D01*
G37*
X86865310Y-138679195D02*
X86868000Y-138696700D01*
X86852401Y-138731730D01*
X86817332Y-138725453D01*
X86809423Y-138718557D01*
X86804287Y-138686894D01*
X86830031Y-138661222D01*
X86844099Y-138658600D01*
X86865310Y-138679195D01*
G36*
X86835671Y-138552748D02*
X86842600Y-138582400D01*
X86824524Y-138623262D01*
X86786027Y-138632187D01*
X86753700Y-138607800D01*
X86750389Y-138565196D01*
X86783420Y-138535417D01*
X86805999Y-138531600D01*
X86835671Y-138552748D01*
X86835671Y-138552748D01*
G37*
X86835671Y-138552748D02*
X86842600Y-138582400D01*
X86824524Y-138623262D01*
X86786027Y-138632187D01*
X86753700Y-138607800D01*
X86750389Y-138565196D01*
X86783420Y-138535417D01*
X86805999Y-138531600D01*
X86835671Y-138552748D01*
D13*
X112936143Y-136799266D02*
X112983762Y-136846885D01*
X113031381Y-136989742D01*
X113031381Y-137084980D01*
X112983762Y-137227838D01*
X112888524Y-137323076D01*
X112793286Y-137370695D01*
X112602810Y-137418314D01*
X112459952Y-137418314D01*
X112269476Y-137370695D01*
X112174238Y-137323076D01*
X112079000Y-137227838D01*
X112031381Y-137084980D01*
X112031381Y-136989742D01*
X112079000Y-136846885D01*
X112126619Y-136799266D01*
X113031381Y-135846885D02*
X113031381Y-136418314D01*
X113031381Y-136132600D02*
X112031381Y-136132600D01*
X112174238Y-136227838D01*
X112269476Y-136323076D01*
X112317095Y-136418314D01*
X114436143Y-136799266D02*
X114483762Y-136846885D01*
X114531381Y-136989742D01*
X114531381Y-137084980D01*
X114483762Y-137227838D01*
X114388524Y-137323076D01*
X114293286Y-137370695D01*
X114102810Y-137418314D01*
X113959952Y-137418314D01*
X113769476Y-137370695D01*
X113674238Y-137323076D01*
X113579000Y-137227838D01*
X113531381Y-137084980D01*
X113531381Y-136989742D01*
X113579000Y-136846885D01*
X113626619Y-136799266D01*
X113626619Y-136418314D02*
X113579000Y-136370695D01*
X113531381Y-136275457D01*
X113531381Y-136037361D01*
X113579000Y-135942123D01*
X113626619Y-135894504D01*
X113721857Y-135846885D01*
X113817095Y-135846885D01*
X113959952Y-135894504D01*
X114531381Y-136465933D01*
X114531381Y-135846885D01*
X115936143Y-136799266D02*
X115983762Y-136846885D01*
X116031381Y-136989742D01*
X116031381Y-137084980D01*
X115983762Y-137227838D01*
X115888524Y-137323076D01*
X115793286Y-137370695D01*
X115602810Y-137418314D01*
X115459952Y-137418314D01*
X115269476Y-137370695D01*
X115174238Y-137323076D01*
X115079000Y-137227838D01*
X115031381Y-137084980D01*
X115031381Y-136989742D01*
X115079000Y-136846885D01*
X115126619Y-136799266D01*
X115031381Y-136465933D02*
X115031381Y-135846885D01*
X115412333Y-136180219D01*
X115412333Y-136037361D01*
X115459952Y-135942123D01*
X115507571Y-135894504D01*
X115602810Y-135846885D01*
X115840905Y-135846885D01*
X115936143Y-135894504D01*
X115983762Y-135942123D01*
X116031381Y-136037361D01*
X116031381Y-136323076D01*
X115983762Y-136418314D01*
X115936143Y-136465933D01*
X152467143Y-106592666D02*
X152514762Y-106640285D01*
X152562381Y-106783142D01*
X152562381Y-106878380D01*
X152514762Y-107021238D01*
X152419524Y-107116476D01*
X152324286Y-107164095D01*
X152133810Y-107211714D01*
X151990952Y-107211714D01*
X151800476Y-107164095D01*
X151705238Y-107116476D01*
X151610000Y-107021238D01*
X151562381Y-106878380D01*
X151562381Y-106783142D01*
X151610000Y-106640285D01*
X151657619Y-106592666D01*
X151895714Y-105735523D02*
X152562381Y-105735523D01*
X151514762Y-105973619D02*
X152229048Y-106211714D01*
X152229048Y-105592666D01*
X171029334Y-130949143D02*
X170981715Y-130996762D01*
X170838858Y-131044381D01*
X170743620Y-131044381D01*
X170600762Y-130996762D01*
X170505524Y-130901524D01*
X170457905Y-130806286D01*
X170410286Y-130615810D01*
X170410286Y-130472952D01*
X170457905Y-130282476D01*
X170505524Y-130187238D01*
X170600762Y-130092000D01*
X170743620Y-130044381D01*
X170838858Y-130044381D01*
X170981715Y-130092000D01*
X171029334Y-130139619D01*
X171934096Y-130044381D02*
X171457905Y-130044381D01*
X171410286Y-130520571D01*
X171457905Y-130472952D01*
X171553143Y-130425333D01*
X171791239Y-130425333D01*
X171886477Y-130472952D01*
X171934096Y-130520571D01*
X171981715Y-130615810D01*
X171981715Y-130853905D01*
X171934096Y-130949143D01*
X171886477Y-130996762D01*
X171791239Y-131044381D01*
X171553143Y-131044381D01*
X171457905Y-130996762D01*
X171410286Y-130949143D01*
X150206634Y-125204443D02*
X150159015Y-125252062D01*
X150016158Y-125299681D01*
X149920920Y-125299681D01*
X149778062Y-125252062D01*
X149682824Y-125156824D01*
X149635205Y-125061586D01*
X149587586Y-124871110D01*
X149587586Y-124728252D01*
X149635205Y-124537776D01*
X149682824Y-124442538D01*
X149778062Y-124347300D01*
X149920920Y-124299681D01*
X150016158Y-124299681D01*
X150159015Y-124347300D01*
X150206634Y-124394919D01*
X151063777Y-124299681D02*
X150873300Y-124299681D01*
X150778062Y-124347300D01*
X150730443Y-124394919D01*
X150635205Y-124537776D01*
X150587586Y-124728252D01*
X150587586Y-125109205D01*
X150635205Y-125204443D01*
X150682824Y-125252062D01*
X150778062Y-125299681D01*
X150968539Y-125299681D01*
X151063777Y-125252062D01*
X151111396Y-125204443D01*
X151159015Y-125109205D01*
X151159015Y-124871110D01*
X151111396Y-124775871D01*
X151063777Y-124728252D01*
X150968539Y-124680633D01*
X150778062Y-124680633D01*
X150682824Y-124728252D01*
X150635205Y-124775871D01*
X150587586Y-124871110D01*
X153071534Y-146483343D02*
X153023915Y-146530962D01*
X152881058Y-146578581D01*
X152785820Y-146578581D01*
X152642962Y-146530962D01*
X152547724Y-146435724D01*
X152500105Y-146340486D01*
X152452486Y-146150010D01*
X152452486Y-146007152D01*
X152500105Y-145816676D01*
X152547724Y-145721438D01*
X152642962Y-145626200D01*
X152785820Y-145578581D01*
X152881058Y-145578581D01*
X153023915Y-145626200D01*
X153071534Y-145673819D01*
X153404867Y-145578581D02*
X154071534Y-145578581D01*
X153642962Y-146578581D01*
X157306634Y-124904443D02*
X157259015Y-124952062D01*
X157116158Y-124999681D01*
X157020920Y-124999681D01*
X156878062Y-124952062D01*
X156782824Y-124856824D01*
X156735205Y-124761586D01*
X156687586Y-124571110D01*
X156687586Y-124428252D01*
X156735205Y-124237776D01*
X156782824Y-124142538D01*
X156878062Y-124047300D01*
X157020920Y-123999681D01*
X157116158Y-123999681D01*
X157259015Y-124047300D01*
X157306634Y-124094919D01*
X157878062Y-124428252D02*
X157782824Y-124380633D01*
X157735205Y-124333014D01*
X157687586Y-124237776D01*
X157687586Y-124190157D01*
X157735205Y-124094919D01*
X157782824Y-124047300D01*
X157878062Y-123999681D01*
X158068539Y-123999681D01*
X158163777Y-124047300D01*
X158211396Y-124094919D01*
X158259015Y-124190157D01*
X158259015Y-124237776D01*
X158211396Y-124333014D01*
X158163777Y-124380633D01*
X158068539Y-124428252D01*
X157878062Y-124428252D01*
X157782824Y-124475871D01*
X157735205Y-124523490D01*
X157687586Y-124618729D01*
X157687586Y-124809205D01*
X157735205Y-124904443D01*
X157782824Y-124952062D01*
X157878062Y-124999681D01*
X158068539Y-124999681D01*
X158163777Y-124952062D01*
X158211396Y-124904443D01*
X158259015Y-124809205D01*
X158259015Y-124618729D01*
X158211396Y-124523490D01*
X158163777Y-124475871D01*
X158068539Y-124428252D01*
X86484381Y-91416095D02*
X85484381Y-91416095D01*
X85484381Y-91178000D01*
X85532000Y-91035142D01*
X85627238Y-90939904D01*
X85722476Y-90892285D01*
X85912952Y-90844666D01*
X86055810Y-90844666D01*
X86246286Y-90892285D01*
X86341524Y-90939904D01*
X86436762Y-91035142D01*
X86484381Y-91178000D01*
X86484381Y-91416095D01*
X86484381Y-89892285D02*
X86484381Y-90463714D01*
X86484381Y-90178000D02*
X85484381Y-90178000D01*
X85627238Y-90273238D01*
X85722476Y-90368476D01*
X85770095Y-90463714D01*
X183030905Y-69720381D02*
X183030905Y-68720381D01*
X183269000Y-68720381D01*
X183411858Y-68768000D01*
X183507096Y-68863238D01*
X183554715Y-68958476D01*
X183602334Y-69148952D01*
X183602334Y-69291810D01*
X183554715Y-69482286D01*
X183507096Y-69577524D01*
X183411858Y-69672762D01*
X183269000Y-69720381D01*
X183030905Y-69720381D01*
X183983286Y-68815619D02*
X184030905Y-68768000D01*
X184126143Y-68720381D01*
X184364239Y-68720381D01*
X184459477Y-68768000D01*
X184507096Y-68815619D01*
X184554715Y-68910857D01*
X184554715Y-69006095D01*
X184507096Y-69148952D01*
X183935667Y-69720381D01*
X184554715Y-69720381D01*
X108663905Y-129992381D02*
X108663905Y-128992381D01*
X108902000Y-128992381D01*
X109044858Y-129040000D01*
X109140096Y-129135238D01*
X109187715Y-129230476D01*
X109235334Y-129420952D01*
X109235334Y-129563810D01*
X109187715Y-129754286D01*
X109140096Y-129849524D01*
X109044858Y-129944762D01*
X108902000Y-129992381D01*
X108663905Y-129992381D01*
X109568667Y-128992381D02*
X110187715Y-128992381D01*
X109854381Y-129373333D01*
X109997239Y-129373333D01*
X110092477Y-129420952D01*
X110140096Y-129468571D01*
X110187715Y-129563810D01*
X110187715Y-129801905D01*
X110140096Y-129897143D01*
X110092477Y-129944762D01*
X109997239Y-129992381D01*
X109711524Y-129992381D01*
X109616286Y-129944762D01*
X109568667Y-129897143D01*
X168331481Y-146902395D02*
X167331481Y-146902395D01*
X167331481Y-146664300D01*
X167379100Y-146521442D01*
X167474338Y-146426204D01*
X167569576Y-146378585D01*
X167760052Y-146330966D01*
X167902910Y-146330966D01*
X168093386Y-146378585D01*
X168188624Y-146426204D01*
X168283862Y-146521442D01*
X168331481Y-146664300D01*
X168331481Y-146902395D01*
X167664814Y-145473823D02*
X168331481Y-145473823D01*
X167283862Y-145711919D02*
X167998148Y-145950014D01*
X167998148Y-145330966D01*
X108663905Y-125670381D02*
X108663905Y-124670381D01*
X108902000Y-124670381D01*
X109044858Y-124718000D01*
X109140096Y-124813238D01*
X109187715Y-124908476D01*
X109235334Y-125098952D01*
X109235334Y-125241810D01*
X109187715Y-125432286D01*
X109140096Y-125527524D01*
X109044858Y-125622762D01*
X108902000Y-125670381D01*
X108663905Y-125670381D01*
X110140096Y-124670381D02*
X109663905Y-124670381D01*
X109616286Y-125146571D01*
X109663905Y-125098952D01*
X109759143Y-125051333D01*
X109997239Y-125051333D01*
X110092477Y-125098952D01*
X110140096Y-125146571D01*
X110187715Y-125241810D01*
X110187715Y-125479905D01*
X110140096Y-125575143D01*
X110092477Y-125622762D01*
X109997239Y-125670381D01*
X109759143Y-125670381D01*
X109663905Y-125622762D01*
X109616286Y-125575143D01*
X109531381Y-137370695D02*
X108531381Y-137370695D01*
X108531381Y-137132600D01*
X108579000Y-136989742D01*
X108674238Y-136894504D01*
X108769476Y-136846885D01*
X108959952Y-136799266D01*
X109102810Y-136799266D01*
X109293286Y-136846885D01*
X109388524Y-136894504D01*
X109483762Y-136989742D01*
X109531381Y-137132600D01*
X109531381Y-137370695D01*
X108531381Y-135942123D02*
X108531381Y-136132600D01*
X108579000Y-136227838D01*
X108626619Y-136275457D01*
X108769476Y-136370695D01*
X108959952Y-136418314D01*
X109340905Y-136418314D01*
X109436143Y-136370695D01*
X109483762Y-136323076D01*
X109531381Y-136227838D01*
X109531381Y-136037361D01*
X109483762Y-135942123D01*
X109436143Y-135894504D01*
X109340905Y-135846885D01*
X109102810Y-135846885D01*
X109007571Y-135894504D01*
X108959952Y-135942123D01*
X108912333Y-136037361D01*
X108912333Y-136227838D01*
X108959952Y-136323076D01*
X109007571Y-136370695D01*
X109102810Y-136418314D01*
X145275681Y-133285395D02*
X144275681Y-133285395D01*
X144275681Y-133047300D01*
X144323300Y-132904442D01*
X144418538Y-132809204D01*
X144513776Y-132761585D01*
X144704252Y-132713966D01*
X144847110Y-132713966D01*
X145037586Y-132761585D01*
X145132824Y-132809204D01*
X145228062Y-132904442D01*
X145275681Y-133047300D01*
X145275681Y-133285395D01*
X144275681Y-132380633D02*
X144275681Y-131713966D01*
X145275681Y-132142538D01*
X116995667Y-125334981D02*
X116995667Y-126049267D01*
X116948047Y-126192124D01*
X116852809Y-126287362D01*
X116709952Y-126334981D01*
X116614714Y-126334981D01*
X117995667Y-126334981D02*
X117424238Y-126334981D01*
X117709952Y-126334981D02*
X117709952Y-125334981D01*
X117614714Y-125477838D01*
X117519476Y-125573076D01*
X117424238Y-125620695D01*
X207354381Y-122343333D02*
X208068667Y-122343333D01*
X208211524Y-122390953D01*
X208306762Y-122486191D01*
X208354381Y-122629048D01*
X208354381Y-122724286D01*
X207449619Y-121914762D02*
X207402000Y-121867143D01*
X207354381Y-121771905D01*
X207354381Y-121533809D01*
X207402000Y-121438571D01*
X207449619Y-121390952D01*
X207544857Y-121343333D01*
X207640095Y-121343333D01*
X207782952Y-121390952D01*
X208354381Y-121962381D01*
X208354381Y-121343333D01*
X207354381Y-114343333D02*
X208068667Y-114343333D01*
X208211524Y-114390953D01*
X208306762Y-114486191D01*
X208354381Y-114629048D01*
X208354381Y-114724286D01*
X207354381Y-113962381D02*
X207354381Y-113343333D01*
X207735333Y-113676667D01*
X207735333Y-113533809D01*
X207782952Y-113438571D01*
X207830571Y-113390952D01*
X207925810Y-113343333D01*
X208163905Y-113343333D01*
X208259143Y-113390952D01*
X208306762Y-113438571D01*
X208354381Y-113533809D01*
X208354381Y-113819524D01*
X208306762Y-113914762D01*
X208259143Y-113962381D01*
X207354381Y-106343333D02*
X208068667Y-106343333D01*
X208211524Y-106390953D01*
X208306762Y-106486191D01*
X208354381Y-106629048D01*
X208354381Y-106724286D01*
X207687714Y-105438571D02*
X208354381Y-105438571D01*
X207306762Y-105676667D02*
X208021048Y-105914762D01*
X208021048Y-105295714D01*
X207354381Y-98343333D02*
X208068667Y-98343333D01*
X208211524Y-98390953D01*
X208306762Y-98486191D01*
X208354381Y-98629048D01*
X208354381Y-98724286D01*
X207354381Y-97390952D02*
X207354381Y-97867143D01*
X207830571Y-97914762D01*
X207782952Y-97867143D01*
X207735333Y-97771905D01*
X207735333Y-97533809D01*
X207782952Y-97438571D01*
X207830571Y-97390952D01*
X207925810Y-97343333D01*
X208163905Y-97343333D01*
X208259143Y-97390952D01*
X208306762Y-97438571D01*
X208354381Y-97533809D01*
X208354381Y-97771905D01*
X208306762Y-97867143D01*
X208259143Y-97914762D01*
X207354381Y-90343333D02*
X208068667Y-90343333D01*
X208211524Y-90390953D01*
X208306762Y-90486191D01*
X208354381Y-90629048D01*
X208354381Y-90724286D01*
X207354381Y-89438571D02*
X207354381Y-89629048D01*
X207402000Y-89724286D01*
X207449619Y-89771905D01*
X207592476Y-89867143D01*
X207782952Y-89914762D01*
X208163905Y-89914762D01*
X208259143Y-89867143D01*
X208306762Y-89819524D01*
X208354381Y-89724286D01*
X208354381Y-89533809D01*
X208306762Y-89438571D01*
X208259143Y-89390952D01*
X208163905Y-89343333D01*
X207925810Y-89343333D01*
X207830571Y-89390952D01*
X207782952Y-89438571D01*
X207735333Y-89533809D01*
X207735333Y-89724286D01*
X207782952Y-89819524D01*
X207830571Y-89867143D01*
X207925810Y-89914762D01*
X207354381Y-82343333D02*
X208068667Y-82343333D01*
X208211524Y-82390953D01*
X208306762Y-82486191D01*
X208354381Y-82629048D01*
X208354381Y-82724286D01*
X207354381Y-81962381D02*
X207354381Y-81295714D01*
X208354381Y-81724286D01*
X162761381Y-92078333D02*
X163475667Y-92078333D01*
X163618524Y-92125953D01*
X163713762Y-92221191D01*
X163761381Y-92364048D01*
X163761381Y-92459286D01*
X163189952Y-91459286D02*
X163142333Y-91554524D01*
X163094714Y-91602143D01*
X162999476Y-91649762D01*
X162951857Y-91649762D01*
X162856619Y-91602143D01*
X162809000Y-91554524D01*
X162761381Y-91459286D01*
X162761381Y-91268809D01*
X162809000Y-91173571D01*
X162856619Y-91125952D01*
X162951857Y-91078333D01*
X162999476Y-91078333D01*
X163094714Y-91125952D01*
X163142333Y-91173571D01*
X163189952Y-91268809D01*
X163189952Y-91459286D01*
X163237571Y-91554524D01*
X163285190Y-91602143D01*
X163380429Y-91649762D01*
X163570905Y-91649762D01*
X163666143Y-91602143D01*
X163713762Y-91554524D01*
X163761381Y-91459286D01*
X163761381Y-91268809D01*
X163713762Y-91173571D01*
X163666143Y-91125952D01*
X163570905Y-91078333D01*
X163380429Y-91078333D01*
X163285190Y-91125952D01*
X163237571Y-91173571D01*
X163189952Y-91268809D01*
X162761381Y-84078333D02*
X163475667Y-84078333D01*
X163618524Y-84125953D01*
X163713762Y-84221191D01*
X163761381Y-84364048D01*
X163761381Y-84459286D01*
X163761381Y-83554524D02*
X163761381Y-83364048D01*
X163713762Y-83268809D01*
X163666143Y-83221190D01*
X163523286Y-83125952D01*
X163332810Y-83078333D01*
X162951857Y-83078333D01*
X162856619Y-83125952D01*
X162809000Y-83173571D01*
X162761381Y-83268809D01*
X162761381Y-83459286D01*
X162809000Y-83554524D01*
X162856619Y-83602143D01*
X162951857Y-83649762D01*
X163189952Y-83649762D01*
X163285190Y-83602143D01*
X163332810Y-83554524D01*
X163380429Y-83459286D01*
X163380429Y-83268809D01*
X163332810Y-83173571D01*
X163285190Y-83125952D01*
X163189952Y-83078333D01*
X162761381Y-76554523D02*
X163475667Y-76554523D01*
X163618524Y-76602143D01*
X163713762Y-76697381D01*
X163761381Y-76840238D01*
X163761381Y-76935476D01*
X163761381Y-75554523D02*
X163761381Y-76125952D01*
X163761381Y-75840238D02*
X162761381Y-75840238D01*
X162904238Y-75935476D01*
X162999476Y-76030714D01*
X163047095Y-76125952D01*
X162761381Y-74935476D02*
X162761381Y-74840237D01*
X162809000Y-74744999D01*
X162856619Y-74697380D01*
X162951857Y-74649761D01*
X163142333Y-74602142D01*
X163380429Y-74602142D01*
X163570905Y-74649761D01*
X163666143Y-74697380D01*
X163713762Y-74744999D01*
X163761381Y-74840237D01*
X163761381Y-74935476D01*
X163713762Y-75030714D01*
X163666143Y-75078333D01*
X163570905Y-75125952D01*
X163380429Y-75173571D01*
X163142333Y-75173571D01*
X162951857Y-75125952D01*
X162856619Y-75078333D01*
X162809000Y-75030714D01*
X162761381Y-74935476D01*
X162761381Y-68554523D02*
X163475667Y-68554523D01*
X163618524Y-68602143D01*
X163713762Y-68697381D01*
X163761381Y-68840238D01*
X163761381Y-68935476D01*
X163761381Y-67554523D02*
X163761381Y-68125952D01*
X163761381Y-67840238D02*
X162761381Y-67840238D01*
X162904238Y-67935476D01*
X162999476Y-68030714D01*
X163047095Y-68125952D01*
X163761381Y-66602142D02*
X163761381Y-67173571D01*
X163761381Y-66887857D02*
X162761381Y-66887857D01*
X162904238Y-66983095D01*
X162999476Y-67078333D01*
X163047095Y-67173571D01*
X178441477Y-148644381D02*
X178441477Y-149358667D01*
X178393857Y-149501524D01*
X178298619Y-149596762D01*
X178155762Y-149644381D01*
X178060524Y-149644381D01*
X179441477Y-149644381D02*
X178870048Y-149644381D01*
X179155762Y-149644381D02*
X179155762Y-148644381D01*
X179060524Y-148787238D01*
X178965286Y-148882476D01*
X178870048Y-148930095D01*
X179822429Y-148739619D02*
X179870048Y-148692000D01*
X179965286Y-148644381D01*
X180203382Y-148644381D01*
X180298620Y-148692000D01*
X180346239Y-148739619D01*
X180393858Y-148834857D01*
X180393858Y-148930095D01*
X180346239Y-149072952D01*
X179774810Y-149644381D01*
X180393858Y-149644381D01*
X186441477Y-148644381D02*
X186441477Y-149358667D01*
X186393857Y-149501524D01*
X186298619Y-149596762D01*
X186155762Y-149644381D01*
X186060524Y-149644381D01*
X187441477Y-149644381D02*
X186870048Y-149644381D01*
X187155762Y-149644381D02*
X187155762Y-148644381D01*
X187060524Y-148787238D01*
X186965286Y-148882476D01*
X186870048Y-148930095D01*
X187774810Y-148644381D02*
X188393858Y-148644381D01*
X188060524Y-149025333D01*
X188203382Y-149025333D01*
X188298620Y-149072952D01*
X188346239Y-149120571D01*
X188393858Y-149215810D01*
X188393858Y-149453905D01*
X188346239Y-149549143D01*
X188298620Y-149596762D01*
X188203382Y-149644381D01*
X187917667Y-149644381D01*
X187822429Y-149596762D01*
X187774810Y-149549143D01*
X194441477Y-148644381D02*
X194441477Y-149358667D01*
X194393857Y-149501524D01*
X194298619Y-149596762D01*
X194155762Y-149644381D01*
X194060524Y-149644381D01*
X195441477Y-149644381D02*
X194870048Y-149644381D01*
X195155762Y-149644381D02*
X195155762Y-148644381D01*
X195060524Y-148787238D01*
X194965286Y-148882476D01*
X194870048Y-148930095D01*
X196298620Y-148977714D02*
X196298620Y-149644381D01*
X196060524Y-148596762D02*
X195822429Y-149311048D01*
X196441477Y-149311048D01*
X202441477Y-148644381D02*
X202441477Y-149358667D01*
X202393857Y-149501524D01*
X202298619Y-149596762D01*
X202155762Y-149644381D01*
X202060524Y-149644381D01*
X203441477Y-149644381D02*
X202870048Y-149644381D01*
X203155762Y-149644381D02*
X203155762Y-148644381D01*
X203060524Y-148787238D01*
X202965286Y-148882476D01*
X202870048Y-148930095D01*
X204346239Y-148644381D02*
X203870048Y-148644381D01*
X203822429Y-149120571D01*
X203870048Y-149072952D01*
X203965286Y-149025333D01*
X204203382Y-149025333D01*
X204298620Y-149072952D01*
X204346239Y-149120571D01*
X204393858Y-149215810D01*
X204393858Y-149453905D01*
X204346239Y-149549143D01*
X204298620Y-149596762D01*
X204203382Y-149644381D01*
X203965286Y-149644381D01*
X203870048Y-149596762D01*
X203822429Y-149549143D01*
X135334477Y-65302381D02*
X135334477Y-66016667D01*
X135286857Y-66159524D01*
X135191619Y-66254762D01*
X135048762Y-66302381D01*
X134953524Y-66302381D01*
X136334477Y-66302381D02*
X135763048Y-66302381D01*
X136048762Y-66302381D02*
X136048762Y-65302381D01*
X135953524Y-65445238D01*
X135858286Y-65540476D01*
X135763048Y-65588095D01*
X137191620Y-65302381D02*
X137001143Y-65302381D01*
X136905905Y-65350000D01*
X136858286Y-65397619D01*
X136763048Y-65540476D01*
X136715429Y-65730952D01*
X136715429Y-66111905D01*
X136763048Y-66207143D01*
X136810667Y-66254762D01*
X136905905Y-66302381D01*
X137096382Y-66302381D01*
X137191620Y-66254762D01*
X137239239Y-66207143D01*
X137286858Y-66111905D01*
X137286858Y-65873810D01*
X137239239Y-65778571D01*
X137191620Y-65730952D01*
X137096382Y-65683333D01*
X136905905Y-65683333D01*
X136810667Y-65730952D01*
X136763048Y-65778571D01*
X136715429Y-65873810D01*
X127334477Y-65302381D02*
X127334477Y-66016667D01*
X127286857Y-66159524D01*
X127191619Y-66254762D01*
X127048762Y-66302381D01*
X126953524Y-66302381D01*
X128334477Y-66302381D02*
X127763048Y-66302381D01*
X128048762Y-66302381D02*
X128048762Y-65302381D01*
X127953524Y-65445238D01*
X127858286Y-65540476D01*
X127763048Y-65588095D01*
X128667810Y-65302381D02*
X129334477Y-65302381D01*
X128905905Y-66302381D01*
X119334477Y-65302381D02*
X119334477Y-66016667D01*
X119286857Y-66159524D01*
X119191619Y-66254762D01*
X119048762Y-66302381D01*
X118953524Y-66302381D01*
X120334477Y-66302381D02*
X119763048Y-66302381D01*
X120048762Y-66302381D02*
X120048762Y-65302381D01*
X119953524Y-65445238D01*
X119858286Y-65540476D01*
X119763048Y-65588095D01*
X120905905Y-65730952D02*
X120810667Y-65683333D01*
X120763048Y-65635714D01*
X120715429Y-65540476D01*
X120715429Y-65492857D01*
X120763048Y-65397619D01*
X120810667Y-65350000D01*
X120905905Y-65302381D01*
X121096382Y-65302381D01*
X121191620Y-65350000D01*
X121239239Y-65397619D01*
X121286858Y-65492857D01*
X121286858Y-65540476D01*
X121239239Y-65635714D01*
X121191620Y-65683333D01*
X121096382Y-65730952D01*
X120905905Y-65730952D01*
X120810667Y-65778571D01*
X120763048Y-65826190D01*
X120715429Y-65921429D01*
X120715429Y-66111905D01*
X120763048Y-66207143D01*
X120810667Y-66254762D01*
X120905905Y-66302381D01*
X121096382Y-66302381D01*
X121191620Y-66254762D01*
X121239239Y-66207143D01*
X121286858Y-66111905D01*
X121286858Y-65921429D01*
X121239239Y-65826190D01*
X121191620Y-65778571D01*
X121096382Y-65730952D01*
X111334477Y-65302381D02*
X111334477Y-66016667D01*
X111286857Y-66159524D01*
X111191619Y-66254762D01*
X111048762Y-66302381D01*
X110953524Y-66302381D01*
X112334477Y-66302381D02*
X111763048Y-66302381D01*
X112048762Y-66302381D02*
X112048762Y-65302381D01*
X111953524Y-65445238D01*
X111858286Y-65540476D01*
X111763048Y-65588095D01*
X112810667Y-66302381D02*
X113001143Y-66302381D01*
X113096382Y-66254762D01*
X113144001Y-66207143D01*
X113239239Y-66064286D01*
X113286858Y-65873810D01*
X113286858Y-65492857D01*
X113239239Y-65397619D01*
X113191620Y-65350000D01*
X113096382Y-65302381D01*
X112905905Y-65302381D01*
X112810667Y-65350000D01*
X112763048Y-65397619D01*
X112715429Y-65492857D01*
X112715429Y-65730952D01*
X112763048Y-65826190D01*
X112810667Y-65873810D01*
X112905905Y-65921429D01*
X113096382Y-65921429D01*
X113191620Y-65873810D01*
X113239239Y-65826190D01*
X113286858Y-65730952D01*
X103334477Y-65302381D02*
X103334477Y-66016667D01*
X103286857Y-66159524D01*
X103191619Y-66254762D01*
X103048762Y-66302381D01*
X102953524Y-66302381D01*
X103763048Y-65397619D02*
X103810667Y-65350000D01*
X103905905Y-65302381D01*
X104144001Y-65302381D01*
X104239239Y-65350000D01*
X104286858Y-65397619D01*
X104334477Y-65492857D01*
X104334477Y-65588095D01*
X104286858Y-65730952D01*
X103715429Y-66302381D01*
X104334477Y-66302381D01*
X104953524Y-65302381D02*
X105048763Y-65302381D01*
X105144001Y-65350000D01*
X105191620Y-65397619D01*
X105239239Y-65492857D01*
X105286858Y-65683333D01*
X105286858Y-65921429D01*
X105239239Y-66111905D01*
X105191620Y-66207143D01*
X105144001Y-66254762D01*
X105048763Y-66302381D01*
X104953524Y-66302381D01*
X104858286Y-66254762D01*
X104810667Y-66207143D01*
X104763048Y-66111905D01*
X104715429Y-65921429D01*
X104715429Y-65683333D01*
X104763048Y-65492857D01*
X104810667Y-65397619D01*
X104858286Y-65350000D01*
X104953524Y-65302381D01*
X95334477Y-65302381D02*
X95334477Y-66016667D01*
X95286857Y-66159524D01*
X95191619Y-66254762D01*
X95048762Y-66302381D01*
X94953524Y-66302381D01*
X95763048Y-65397619D02*
X95810667Y-65350000D01*
X95905905Y-65302381D01*
X96144001Y-65302381D01*
X96239239Y-65350000D01*
X96286858Y-65397619D01*
X96334477Y-65492857D01*
X96334477Y-65588095D01*
X96286858Y-65730952D01*
X95715429Y-66302381D01*
X96334477Y-66302381D01*
X97286858Y-66302381D02*
X96715429Y-66302381D01*
X97001143Y-66302381D02*
X97001143Y-65302381D01*
X96905905Y-65445238D01*
X96810667Y-65540476D01*
X96715429Y-65588095D01*
X85464381Y-124253523D02*
X86178667Y-124253523D01*
X86321524Y-124301143D01*
X86416762Y-124396381D01*
X86464381Y-124539238D01*
X86464381Y-124634476D01*
X85559619Y-123824952D02*
X85512000Y-123777333D01*
X85464381Y-123682095D01*
X85464381Y-123443999D01*
X85512000Y-123348761D01*
X85559619Y-123301142D01*
X85654857Y-123253523D01*
X85750095Y-123253523D01*
X85892952Y-123301142D01*
X86464381Y-123872571D01*
X86464381Y-123253523D01*
X85559619Y-122872571D02*
X85512000Y-122824952D01*
X85464381Y-122729714D01*
X85464381Y-122491618D01*
X85512000Y-122396380D01*
X85559619Y-122348761D01*
X85654857Y-122301142D01*
X85750095Y-122301142D01*
X85892952Y-122348761D01*
X86464381Y-122920190D01*
X86464381Y-122301142D01*
X85464381Y-131873523D02*
X86178667Y-131873523D01*
X86321524Y-131921143D01*
X86416762Y-132016381D01*
X86464381Y-132159238D01*
X86464381Y-132254476D01*
X85559619Y-131444952D02*
X85512000Y-131397333D01*
X85464381Y-131302095D01*
X85464381Y-131063999D01*
X85512000Y-130968761D01*
X85559619Y-130921142D01*
X85654857Y-130873523D01*
X85750095Y-130873523D01*
X85892952Y-130921142D01*
X86464381Y-131492571D01*
X86464381Y-130873523D01*
X85464381Y-130540190D02*
X85464381Y-129921142D01*
X85845333Y-130254476D01*
X85845333Y-130111618D01*
X85892952Y-130016380D01*
X85940571Y-129968761D01*
X86035810Y-129921142D01*
X86273905Y-129921142D01*
X86369143Y-129968761D01*
X86416762Y-130016380D01*
X86464381Y-130111618D01*
X86464381Y-130397333D01*
X86416762Y-130492571D01*
X86369143Y-130540190D01*
X124983762Y-119680219D02*
X124888524Y-119632600D01*
X124793286Y-119537362D01*
X124650429Y-119394505D01*
X124555190Y-119346886D01*
X124459952Y-119346886D01*
X124507571Y-119584981D02*
X124412333Y-119537362D01*
X124317095Y-119442124D01*
X124269476Y-119251648D01*
X124269476Y-118918314D01*
X124317095Y-118727838D01*
X124412333Y-118632600D01*
X124507571Y-118584981D01*
X124698048Y-118584981D01*
X124793286Y-118632600D01*
X124888524Y-118727838D01*
X124936143Y-118918314D01*
X124936143Y-119251648D01*
X124888524Y-119442124D01*
X124793286Y-119537362D01*
X124698048Y-119584981D01*
X124507571Y-119584981D01*
X125888524Y-119584981D02*
X125317095Y-119584981D01*
X125602809Y-119584981D02*
X125602809Y-118584981D01*
X125507571Y-118727838D01*
X125412333Y-118823076D01*
X125317095Y-118870695D01*
X131483762Y-119680219D02*
X131388524Y-119632600D01*
X131293286Y-119537362D01*
X131150429Y-119394505D01*
X131055190Y-119346886D01*
X130959952Y-119346886D01*
X131007571Y-119584981D02*
X130912333Y-119537362D01*
X130817095Y-119442124D01*
X130769476Y-119251648D01*
X130769476Y-118918314D01*
X130817095Y-118727838D01*
X130912333Y-118632600D01*
X131007571Y-118584981D01*
X131198048Y-118584981D01*
X131293286Y-118632600D01*
X131388524Y-118727838D01*
X131436143Y-118918314D01*
X131436143Y-119251648D01*
X131388524Y-119442124D01*
X131293286Y-119537362D01*
X131198048Y-119584981D01*
X131007571Y-119584981D01*
X131817095Y-118680219D02*
X131864714Y-118632600D01*
X131959952Y-118584981D01*
X132198048Y-118584981D01*
X132293286Y-118632600D01*
X132340905Y-118680219D01*
X132388524Y-118775457D01*
X132388524Y-118870695D01*
X132340905Y-119013552D01*
X131769476Y-119584981D01*
X132388524Y-119584981D01*
X121515619Y-142081238D02*
X121468000Y-142176476D01*
X121372762Y-142271714D01*
X121229905Y-142414571D01*
X121182286Y-142509810D01*
X121182286Y-142605048D01*
X121420381Y-142557429D02*
X121372762Y-142652667D01*
X121277524Y-142747905D01*
X121087048Y-142795524D01*
X120753714Y-142795524D01*
X120563238Y-142747905D01*
X120468000Y-142652667D01*
X120420381Y-142557429D01*
X120420381Y-142366952D01*
X120468000Y-142271714D01*
X120563238Y-142176476D01*
X120753714Y-142128857D01*
X121087048Y-142128857D01*
X121277524Y-142176476D01*
X121372762Y-142271714D01*
X121420381Y-142366952D01*
X121420381Y-142557429D01*
X120420381Y-141795524D02*
X120420381Y-141176476D01*
X120801333Y-141509810D01*
X120801333Y-141366952D01*
X120848952Y-141271714D01*
X120896571Y-141224095D01*
X120991810Y-141176476D01*
X121229905Y-141176476D01*
X121325143Y-141224095D01*
X121372762Y-141271714D01*
X121420381Y-141366952D01*
X121420381Y-141652667D01*
X121372762Y-141747905D01*
X121325143Y-141795524D01*
X136119619Y-142331238D02*
X136072000Y-142426476D01*
X135976762Y-142521714D01*
X135833905Y-142664571D01*
X135786286Y-142759810D01*
X135786286Y-142855048D01*
X136024381Y-142807429D02*
X135976762Y-142902667D01*
X135881524Y-142997905D01*
X135691048Y-143045524D01*
X135357714Y-143045524D01*
X135167238Y-142997905D01*
X135072000Y-142902667D01*
X135024381Y-142807429D01*
X135024381Y-142616952D01*
X135072000Y-142521714D01*
X135167238Y-142426476D01*
X135357714Y-142378857D01*
X135691048Y-142378857D01*
X135881524Y-142426476D01*
X135976762Y-142521714D01*
X136024381Y-142616952D01*
X136024381Y-142807429D01*
X135357714Y-141521714D02*
X136024381Y-141521714D01*
X134976762Y-141759810D02*
X135691048Y-141997905D01*
X135691048Y-141378857D01*
X144567519Y-143503638D02*
X144519900Y-143598876D01*
X144424662Y-143694114D01*
X144281805Y-143836971D01*
X144234186Y-143932210D01*
X144234186Y-144027448D01*
X144472281Y-143979829D02*
X144424662Y-144075067D01*
X144329424Y-144170305D01*
X144138948Y-144217924D01*
X143805614Y-144217924D01*
X143615138Y-144170305D01*
X143519900Y-144075067D01*
X143472281Y-143979829D01*
X143472281Y-143789352D01*
X143519900Y-143694114D01*
X143615138Y-143598876D01*
X143805614Y-143551257D01*
X144138948Y-143551257D01*
X144329424Y-143598876D01*
X144424662Y-143694114D01*
X144472281Y-143789352D01*
X144472281Y-143979829D01*
X143472281Y-142646495D02*
X143472281Y-143122686D01*
X143948471Y-143170305D01*
X143900852Y-143122686D01*
X143853233Y-143027448D01*
X143853233Y-142789352D01*
X143900852Y-142694114D01*
X143948471Y-142646495D01*
X144043710Y-142598876D01*
X144281805Y-142598876D01*
X144377043Y-142646495D01*
X144424662Y-142694114D01*
X144472281Y-142789352D01*
X144472281Y-143027448D01*
X144424662Y-143122686D01*
X144377043Y-143170305D01*
X83584381Y-100242666D02*
X83108190Y-100576000D01*
X83584381Y-100814095D02*
X82584381Y-100814095D01*
X82584381Y-100433142D01*
X82632000Y-100337904D01*
X82679619Y-100290285D01*
X82774857Y-100242666D01*
X82917714Y-100242666D01*
X83012952Y-100290285D01*
X83060571Y-100337904D01*
X83108190Y-100433142D01*
X83108190Y-100814095D01*
X83584381Y-99290285D02*
X83584381Y-99861714D01*
X83584381Y-99576000D02*
X82584381Y-99576000D01*
X82727238Y-99671238D01*
X82822476Y-99766476D01*
X82870095Y-99861714D01*
X173950334Y-66820381D02*
X173617000Y-66344190D01*
X173378905Y-66820381D02*
X173378905Y-65820381D01*
X173759858Y-65820381D01*
X173855096Y-65868000D01*
X173902715Y-65915619D01*
X173950334Y-66010857D01*
X173950334Y-66153714D01*
X173902715Y-66248952D01*
X173855096Y-66296571D01*
X173759858Y-66344190D01*
X173378905Y-66344190D01*
X174331286Y-65915619D02*
X174378905Y-65868000D01*
X174474143Y-65820381D01*
X174712239Y-65820381D01*
X174807477Y-65868000D01*
X174855096Y-65915619D01*
X174902715Y-66010857D01*
X174902715Y-66106095D01*
X174855096Y-66248952D01*
X174283667Y-66820381D01*
X174902715Y-66820381D01*
X171231481Y-141581166D02*
X170755290Y-141914500D01*
X171231481Y-142152595D02*
X170231481Y-142152595D01*
X170231481Y-141771642D01*
X170279100Y-141676404D01*
X170326719Y-141628785D01*
X170421957Y-141581166D01*
X170564814Y-141581166D01*
X170660052Y-141628785D01*
X170707671Y-141676404D01*
X170755290Y-141771642D01*
X170755290Y-142152595D01*
X170231481Y-141247833D02*
X170231481Y-140628785D01*
X170612433Y-140962119D01*
X170612433Y-140819261D01*
X170660052Y-140724023D01*
X170707671Y-140676404D01*
X170802910Y-140628785D01*
X171041005Y-140628785D01*
X171136243Y-140676404D01*
X171183862Y-140724023D01*
X171231481Y-140819261D01*
X171231481Y-141104976D01*
X171183862Y-141200214D01*
X171136243Y-141247833D01*
X143525681Y-128913966D02*
X143049490Y-129247300D01*
X143525681Y-129485395D02*
X142525681Y-129485395D01*
X142525681Y-129104442D01*
X142573300Y-129009204D01*
X142620919Y-128961585D01*
X142716157Y-128913966D01*
X142859014Y-128913966D01*
X142954252Y-128961585D01*
X143001871Y-129009204D01*
X143049490Y-129104442D01*
X143049490Y-129485395D01*
X142859014Y-128056823D02*
X143525681Y-128056823D01*
X142478062Y-128294919D02*
X143192348Y-128533014D01*
X143192348Y-127913966D01*
D10*
X139162334Y-138084981D02*
X138829000Y-137608790D01*
X138590905Y-138084981D02*
X138590905Y-137084981D01*
X138971858Y-137084981D01*
X139067096Y-137132600D01*
X139114715Y-137180219D01*
X139162334Y-137275457D01*
X139162334Y-137418314D01*
X139114715Y-137513552D01*
X139067096Y-137561171D01*
X138971858Y-137608790D01*
X138590905Y-137608790D01*
X139638524Y-138084981D02*
X139829000Y-138084981D01*
X139924239Y-138037362D01*
X139971858Y-137989743D01*
X140067096Y-137846886D01*
X140114715Y-137656410D01*
X140114715Y-137275457D01*
X140067096Y-137180219D01*
X140019477Y-137132600D01*
X139924239Y-137084981D01*
X139733762Y-137084981D01*
X139638524Y-137132600D01*
X139590905Y-137180219D01*
X139543286Y-137275457D01*
X139543286Y-137513552D01*
X139590905Y-137608790D01*
X139638524Y-137656410D01*
X139733762Y-137704029D01*
X139924239Y-137704029D01*
X140019477Y-137656410D01*
X140067096Y-137608790D01*
X140114715Y-137513552D01*
D13*
X146575543Y-141411881D02*
X146242209Y-140935690D01*
X146004114Y-141411881D02*
X146004114Y-140411881D01*
X146385067Y-140411881D01*
X146480305Y-140459500D01*
X146527924Y-140507119D01*
X146575543Y-140602357D01*
X146575543Y-140745214D01*
X146527924Y-140840452D01*
X146480305Y-140888071D01*
X146385067Y-140935690D01*
X146004114Y-140935690D01*
X147527924Y-141411881D02*
X146956495Y-141411881D01*
X147242209Y-141411881D02*
X147242209Y-140411881D01*
X147146971Y-140554738D01*
X147051733Y-140649976D01*
X146956495Y-140697595D01*
X148146971Y-140411881D02*
X148242210Y-140411881D01*
X148337448Y-140459500D01*
X148385067Y-140507119D01*
X148432686Y-140602357D01*
X148480305Y-140792833D01*
X148480305Y-141030929D01*
X148432686Y-141221405D01*
X148385067Y-141316643D01*
X148337448Y-141364262D01*
X148242210Y-141411881D01*
X148146971Y-141411881D01*
X148051733Y-141364262D01*
X148004114Y-141316643D01*
X147956495Y-141221405D01*
X147908876Y-141030929D01*
X147908876Y-140792833D01*
X147956495Y-140602357D01*
X148004114Y-140507119D01*
X148051733Y-140459500D01*
X148146971Y-140411881D01*
X148930443Y-116299681D02*
X148597109Y-115823490D01*
X148359014Y-116299681D02*
X148359014Y-115299681D01*
X148739967Y-115299681D01*
X148835205Y-115347300D01*
X148882824Y-115394919D01*
X148930443Y-115490157D01*
X148930443Y-115633014D01*
X148882824Y-115728252D01*
X148835205Y-115775871D01*
X148739967Y-115823490D01*
X148359014Y-115823490D01*
X149882824Y-116299681D02*
X149311395Y-116299681D01*
X149597109Y-116299681D02*
X149597109Y-115299681D01*
X149501871Y-115442538D01*
X149406633Y-115537776D01*
X149311395Y-115585395D01*
X150835205Y-116299681D02*
X150263776Y-116299681D01*
X150549490Y-116299681D02*
X150549490Y-115299681D01*
X150454252Y-115442538D01*
X150359014Y-115537776D01*
X150263776Y-115585395D01*
X143930443Y-123099681D02*
X143597109Y-122623490D01*
X143359014Y-123099681D02*
X143359014Y-122099681D01*
X143739967Y-122099681D01*
X143835205Y-122147300D01*
X143882824Y-122194919D01*
X143930443Y-122290157D01*
X143930443Y-122433014D01*
X143882824Y-122528252D01*
X143835205Y-122575871D01*
X143739967Y-122623490D01*
X143359014Y-122623490D01*
X144882824Y-123099681D02*
X144311395Y-123099681D01*
X144597109Y-123099681D02*
X144597109Y-122099681D01*
X144501871Y-122242538D01*
X144406633Y-122337776D01*
X144311395Y-122385395D01*
X145263776Y-122194919D02*
X145311395Y-122147300D01*
X145406633Y-122099681D01*
X145644729Y-122099681D01*
X145739967Y-122147300D01*
X145787586Y-122194919D01*
X145835205Y-122290157D01*
X145835205Y-122385395D01*
X145787586Y-122528252D01*
X145216157Y-123099681D01*
X145835205Y-123099681D01*
X151330443Y-128599681D02*
X150997109Y-128123490D01*
X150759014Y-128599681D02*
X150759014Y-127599681D01*
X151139967Y-127599681D01*
X151235205Y-127647300D01*
X151282824Y-127694919D01*
X151330443Y-127790157D01*
X151330443Y-127933014D01*
X151282824Y-128028252D01*
X151235205Y-128075871D01*
X151139967Y-128123490D01*
X150759014Y-128123490D01*
X152282824Y-128599681D02*
X151711395Y-128599681D01*
X151997109Y-128599681D02*
X151997109Y-127599681D01*
X151901871Y-127742538D01*
X151806633Y-127837776D01*
X151711395Y-127885395D01*
X152616157Y-127599681D02*
X153235205Y-127599681D01*
X152901871Y-127980633D01*
X153044729Y-127980633D01*
X153139967Y-128028252D01*
X153187586Y-128075871D01*
X153235205Y-128171110D01*
X153235205Y-128409205D01*
X153187586Y-128504443D01*
X153139967Y-128552062D01*
X153044729Y-128599681D01*
X152759014Y-128599681D01*
X152663776Y-128552062D01*
X152616157Y-128504443D01*
D10*
X117475095Y-109107381D02*
X117475095Y-109916905D01*
X117522714Y-110012143D01*
X117570333Y-110059762D01*
X117665571Y-110107381D01*
X117856048Y-110107381D01*
X117951286Y-110059762D01*
X117998905Y-110012143D01*
X118046524Y-109916905D01*
X118046524Y-109107381D01*
X119046524Y-110107381D02*
X118475095Y-110107381D01*
X118760809Y-110107381D02*
X118760809Y-109107381D01*
X118665571Y-109250238D01*
X118570333Y-109345476D01*
X118475095Y-109393095D01*
X113713190Y-84083571D02*
X114046524Y-84083571D01*
X114189381Y-84607381D02*
X113713190Y-84607381D01*
X113713190Y-83607381D01*
X114189381Y-83607381D01*
X114617952Y-84607381D02*
X114617952Y-83607381D01*
X114617952Y-84083571D02*
X115189381Y-84083571D01*
X115189381Y-84607381D02*
X115189381Y-83607381D01*
X115665571Y-84607381D02*
X115665571Y-83607381D01*
X115665571Y-84083571D02*
X116237000Y-84083571D01*
X116237000Y-84607381D02*
X116237000Y-83607381D01*
X116713190Y-84607381D02*
X116713190Y-83607381D01*
X116951285Y-83607381D01*
X117094143Y-83655000D01*
X117189381Y-83750238D01*
X117237000Y-83845476D01*
X117284619Y-84035952D01*
X117284619Y-84178810D01*
X117237000Y-84369286D01*
X117189381Y-84464524D01*
X117094143Y-84559762D01*
X116951285Y-84607381D01*
X116713190Y-84607381D01*
X117903666Y-83607381D02*
X117998905Y-83607381D01*
X118094143Y-83655000D01*
X118141762Y-83702619D01*
X118189381Y-83797857D01*
X118237000Y-83988333D01*
X118237000Y-84226429D01*
X118189381Y-84416905D01*
X118141762Y-84512143D01*
X118094143Y-84559762D01*
X117998905Y-84607381D01*
X117903666Y-84607381D01*
X117808428Y-84559762D01*
X117760809Y-84512143D01*
X117713190Y-84416905D01*
X117665571Y-84226429D01*
X117665571Y-83988333D01*
X117713190Y-83797857D01*
X117760809Y-83702619D01*
X117808428Y-83655000D01*
X117903666Y-83607381D01*
X119189381Y-84607381D02*
X118617952Y-84607381D01*
X118903666Y-84607381D02*
X118903666Y-83607381D01*
X118808428Y-83750238D01*
X118713190Y-83845476D01*
X118617952Y-83893095D01*
X120094143Y-83607381D02*
X119617952Y-83607381D01*
X119570333Y-84083571D01*
X119617952Y-84035952D01*
X119713190Y-83988333D01*
X119951286Y-83988333D01*
X120046524Y-84035952D01*
X120094143Y-84083571D01*
X120141762Y-84178810D01*
X120141762Y-84416905D01*
X120094143Y-84512143D01*
X120046524Y-84559762D01*
X119951286Y-84607381D01*
X119713190Y-84607381D01*
X119617952Y-84559762D01*
X119570333Y-84512143D01*
X120522714Y-84321667D02*
X120998905Y-84321667D01*
X120427476Y-84607381D02*
X120760809Y-83607381D01*
X121094143Y-84607381D01*
X121617952Y-83607381D02*
X121713191Y-83607381D01*
X121808429Y-83655000D01*
X121856048Y-83702619D01*
X121903667Y-83797857D01*
X121951286Y-83988333D01*
X121951286Y-84226429D01*
X121903667Y-84416905D01*
X121856048Y-84512143D01*
X121808429Y-84559762D01*
X121713191Y-84607381D01*
X121617952Y-84607381D01*
X121522714Y-84559762D01*
X121475095Y-84512143D01*
X121427476Y-84416905D01*
X121379857Y-84226429D01*
X121379857Y-83988333D01*
X121427476Y-83797857D01*
X121475095Y-83702619D01*
X121522714Y-83655000D01*
X121617952Y-83607381D01*
X122332238Y-84321667D02*
X122808429Y-84321667D01*
X122237000Y-84607381D02*
X122570333Y-83607381D01*
X122903667Y-84607381D01*
X94641762Y-96607381D02*
X95213191Y-96607381D01*
X94927476Y-97607381D02*
X94927476Y-96607381D01*
X96117953Y-97607381D02*
X95784619Y-97131190D01*
X95546524Y-97607381D02*
X95546524Y-96607381D01*
X95927477Y-96607381D01*
X96022715Y-96655000D01*
X96070334Y-96702619D01*
X96117953Y-96797857D01*
X96117953Y-96940714D01*
X96070334Y-97035952D01*
X96022715Y-97083571D01*
X95927477Y-97131190D01*
X95546524Y-97131190D01*
X96546524Y-97607381D02*
X96546524Y-96607381D01*
X97022714Y-97607381D02*
X97022714Y-96607381D01*
X97356048Y-97321667D01*
X97689381Y-96607381D01*
X97689381Y-97607381D01*
X94427476Y-93559762D02*
X94570333Y-93607381D01*
X94808429Y-93607381D01*
X94903667Y-93559762D01*
X94951286Y-93512143D01*
X94998905Y-93416905D01*
X94998905Y-93321667D01*
X94951286Y-93226429D01*
X94903667Y-93178810D01*
X94808429Y-93131190D01*
X94617952Y-93083571D01*
X94522714Y-93035952D01*
X94475095Y-92988333D01*
X94427476Y-92893095D01*
X94427476Y-92797857D01*
X94475095Y-92702619D01*
X94522714Y-92655000D01*
X94617952Y-92607381D01*
X94856048Y-92607381D01*
X94998905Y-92655000D01*
X95427476Y-93083571D02*
X95760810Y-93083571D01*
X95903667Y-93607381D02*
X95427476Y-93607381D01*
X95427476Y-92607381D01*
X95903667Y-92607381D01*
X96332238Y-93607381D02*
X96332238Y-92607381D01*
X96903667Y-93607381D01*
X96903667Y-92607381D01*
X97332238Y-93559762D02*
X97475095Y-93607381D01*
X97713191Y-93607381D01*
X97808429Y-93559762D01*
X97856048Y-93512143D01*
X97903667Y-93416905D01*
X97903667Y-93321667D01*
X97856048Y-93226429D01*
X97808429Y-93178810D01*
X97713191Y-93131190D01*
X97522714Y-93083571D01*
X97427476Y-93035952D01*
X97379857Y-92988333D01*
X97332238Y-92893095D01*
X97332238Y-92797857D01*
X97379857Y-92702619D01*
X97427476Y-92655000D01*
X97522714Y-92607381D01*
X97760810Y-92607381D01*
X97903667Y-92655000D01*
X98332238Y-93083571D02*
X98665572Y-93083571D01*
X98808429Y-93607381D02*
X98332238Y-93607381D01*
X98332238Y-92607381D01*
X98808429Y-92607381D01*
X99237000Y-93226429D02*
X99998905Y-93226429D01*
X94427476Y-101559762D02*
X94570333Y-101607381D01*
X94808429Y-101607381D01*
X94903667Y-101559762D01*
X94951286Y-101512143D01*
X94998905Y-101416905D01*
X94998905Y-101321667D01*
X94951286Y-101226429D01*
X94903667Y-101178810D01*
X94808429Y-101131190D01*
X94617952Y-101083571D01*
X94522714Y-101035952D01*
X94475095Y-100988333D01*
X94427476Y-100893095D01*
X94427476Y-100797857D01*
X94475095Y-100702619D01*
X94522714Y-100655000D01*
X94617952Y-100607381D01*
X94856048Y-100607381D01*
X94998905Y-100655000D01*
X95427476Y-101083571D02*
X95760810Y-101083571D01*
X95903667Y-101607381D02*
X95427476Y-101607381D01*
X95427476Y-100607381D01*
X95903667Y-100607381D01*
X96332238Y-101607381D02*
X96332238Y-100607381D01*
X96903667Y-101607381D01*
X96903667Y-100607381D01*
X97332238Y-101559762D02*
X97475095Y-101607381D01*
X97713191Y-101607381D01*
X97808429Y-101559762D01*
X97856048Y-101512143D01*
X97903667Y-101416905D01*
X97903667Y-101321667D01*
X97856048Y-101226429D01*
X97808429Y-101178810D01*
X97713191Y-101131190D01*
X97522714Y-101083571D01*
X97427476Y-101035952D01*
X97379857Y-100988333D01*
X97332238Y-100893095D01*
X97332238Y-100797857D01*
X97379857Y-100702619D01*
X97427476Y-100655000D01*
X97522714Y-100607381D01*
X97760810Y-100607381D01*
X97903667Y-100655000D01*
X98332238Y-101083571D02*
X98665572Y-101083571D01*
X98808429Y-101607381D02*
X98332238Y-101607381D01*
X98332238Y-100607381D01*
X98808429Y-100607381D01*
X99237000Y-101226429D02*
X99998905Y-101226429D01*
X99617953Y-101607381D02*
X99617953Y-100845476D01*
X94332238Y-89107381D02*
X94665571Y-90107381D01*
X94998905Y-89107381D01*
X95475095Y-90107381D02*
X95379857Y-90059762D01*
X95332238Y-90012143D01*
X95284619Y-89916905D01*
X95284619Y-89631190D01*
X95332238Y-89535952D01*
X95379857Y-89488333D01*
X95475095Y-89440714D01*
X95617953Y-89440714D01*
X95713191Y-89488333D01*
X95760810Y-89535952D01*
X95808429Y-89631190D01*
X95808429Y-89916905D01*
X95760810Y-90012143D01*
X95713191Y-90059762D01*
X95617953Y-90107381D01*
X95475095Y-90107381D01*
X96237000Y-89726429D02*
X96998905Y-89726429D01*
X94332238Y-104107381D02*
X94665571Y-105107381D01*
X94998905Y-104107381D01*
X95475095Y-105107381D02*
X95379857Y-105059762D01*
X95332238Y-105012143D01*
X95284619Y-104916905D01*
X95284619Y-104631190D01*
X95332238Y-104535952D01*
X95379857Y-104488333D01*
X95475095Y-104440714D01*
X95617953Y-104440714D01*
X95713191Y-104488333D01*
X95760810Y-104535952D01*
X95808429Y-104631190D01*
X95808429Y-104916905D01*
X95760810Y-105012143D01*
X95713191Y-105059762D01*
X95617953Y-105107381D01*
X95475095Y-105107381D01*
X96237000Y-104726429D02*
X96998905Y-104726429D01*
X96617953Y-105107381D02*
X96617953Y-104345476D01*
X139546524Y-88607381D02*
X139879857Y-89607381D01*
X140213191Y-88607381D01*
X140546524Y-89607381D02*
X140546524Y-88940714D01*
X140546524Y-88607381D02*
X140498905Y-88655000D01*
X140546524Y-88702619D01*
X140594143Y-88655000D01*
X140546524Y-88607381D01*
X140546524Y-88702619D01*
X141022714Y-89226429D02*
X141784619Y-89226429D01*
X136213190Y-96607381D02*
X136403667Y-96607381D01*
X136498905Y-96655000D01*
X136594143Y-96750238D01*
X136641762Y-96940714D01*
X136641762Y-97274048D01*
X136594143Y-97464524D01*
X136498905Y-97559762D01*
X136403667Y-97607381D01*
X136213190Y-97607381D01*
X136117952Y-97559762D01*
X136022714Y-97464524D01*
X135975095Y-97274048D01*
X135975095Y-96940714D01*
X136022714Y-96750238D01*
X136117952Y-96655000D01*
X136213190Y-96607381D01*
X137070333Y-97607381D02*
X137070333Y-96607381D01*
X137641762Y-97607381D01*
X137641762Y-96607381D01*
X138832238Y-96559762D02*
X137975095Y-97845476D01*
X139356047Y-96607381D02*
X139546524Y-96607381D01*
X139641762Y-96655000D01*
X139737000Y-96750238D01*
X139784619Y-96940714D01*
X139784619Y-97274048D01*
X139737000Y-97464524D01*
X139641762Y-97559762D01*
X139546524Y-97607381D01*
X139356047Y-97607381D01*
X139260809Y-97559762D01*
X139165571Y-97464524D01*
X139117952Y-97274048D01*
X139117952Y-96940714D01*
X139165571Y-96750238D01*
X139260809Y-96655000D01*
X139356047Y-96607381D01*
X140546524Y-97083571D02*
X140213190Y-97083571D01*
X140213190Y-97607381D02*
X140213190Y-96607381D01*
X140689381Y-96607381D01*
X141403667Y-97083571D02*
X141070333Y-97083571D01*
X141070333Y-97607381D02*
X141070333Y-96607381D01*
X141546524Y-96607381D01*
X139046524Y-104107381D02*
X139379857Y-105107381D01*
X139713191Y-104107381D01*
X140046524Y-105107381D02*
X140046524Y-104440714D01*
X140046524Y-104107381D02*
X139998905Y-104155000D01*
X140046524Y-104202619D01*
X140094143Y-104155000D01*
X140046524Y-104107381D01*
X140046524Y-104202619D01*
X140522714Y-104726429D02*
X141284619Y-104726429D01*
X140903667Y-105107381D02*
X140903667Y-104345476D01*
D13*
X119507095Y-128514981D02*
X119507095Y-129324505D01*
X119554714Y-129419743D01*
X119602333Y-129467362D01*
X119697571Y-129514981D01*
X119888048Y-129514981D01*
X119983286Y-129467362D01*
X120030905Y-129419743D01*
X120078524Y-129324505D01*
X120078524Y-128514981D01*
X120507095Y-128610219D02*
X120554714Y-128562600D01*
X120649952Y-128514981D01*
X120888048Y-128514981D01*
X120983286Y-128562600D01*
X121030905Y-128610219D01*
X121078524Y-128705457D01*
X121078524Y-128800695D01*
X121030905Y-128943552D01*
X120459476Y-129514981D01*
X121078524Y-129514981D01*
D10*
X164244381Y-102361905D02*
X165053905Y-102361905D01*
X165149143Y-102314286D01*
X165196762Y-102266667D01*
X165244381Y-102171429D01*
X165244381Y-101980952D01*
X165196762Y-101885714D01*
X165149143Y-101838095D01*
X165053905Y-101790476D01*
X164244381Y-101790476D01*
X164244381Y-101409524D02*
X164244381Y-100790476D01*
X164625333Y-101123810D01*
X164625333Y-100980952D01*
X164672952Y-100885714D01*
X164720571Y-100838095D01*
X164815810Y-100790476D01*
X165053905Y-100790476D01*
X165149143Y-100838095D01*
X165196762Y-100885714D01*
X165244381Y-100980952D01*
X165244381Y-101266667D01*
X165196762Y-101361905D01*
X165149143Y-101409524D01*
X190220571Y-106195238D02*
X190220571Y-105861904D01*
X190744381Y-105719047D02*
X190744381Y-106195238D01*
X189744381Y-106195238D01*
X189744381Y-105719047D01*
X190744381Y-105290476D02*
X189744381Y-105290476D01*
X190220571Y-105290476D02*
X190220571Y-104719047D01*
X190744381Y-104719047D02*
X189744381Y-104719047D01*
X190744381Y-104242857D02*
X189744381Y-104242857D01*
X190220571Y-104242857D02*
X190220571Y-103671428D01*
X190744381Y-103671428D02*
X189744381Y-103671428D01*
X190744381Y-103195238D02*
X189744381Y-103195238D01*
X189744381Y-102957143D01*
X189792000Y-102814285D01*
X189887238Y-102719047D01*
X189982476Y-102671428D01*
X190172952Y-102623809D01*
X190315810Y-102623809D01*
X190506286Y-102671428D01*
X190601524Y-102719047D01*
X190696762Y-102814285D01*
X190744381Y-102957143D01*
X190744381Y-103195238D01*
X189744381Y-102004762D02*
X189744381Y-101909523D01*
X189792000Y-101814285D01*
X189839619Y-101766666D01*
X189934857Y-101719047D01*
X190125333Y-101671428D01*
X190363429Y-101671428D01*
X190553905Y-101719047D01*
X190649143Y-101766666D01*
X190696762Y-101814285D01*
X190744381Y-101909523D01*
X190744381Y-102004762D01*
X190696762Y-102100000D01*
X190649143Y-102147619D01*
X190553905Y-102195238D01*
X190363429Y-102242857D01*
X190125333Y-102242857D01*
X189934857Y-102195238D01*
X189839619Y-102147619D01*
X189792000Y-102100000D01*
X189744381Y-102004762D01*
X190744381Y-100719047D02*
X190744381Y-101290476D01*
X190744381Y-101004762D02*
X189744381Y-101004762D01*
X189887238Y-101100000D01*
X189982476Y-101195238D01*
X190030095Y-101290476D01*
X189744381Y-100100000D02*
X189744381Y-100004761D01*
X189792000Y-99909523D01*
X189839619Y-99861904D01*
X189934857Y-99814285D01*
X190125333Y-99766666D01*
X190363429Y-99766666D01*
X190553905Y-99814285D01*
X190649143Y-99861904D01*
X190696762Y-99909523D01*
X190744381Y-100004761D01*
X190744381Y-100100000D01*
X190696762Y-100195238D01*
X190649143Y-100242857D01*
X190553905Y-100290476D01*
X190363429Y-100338095D01*
X190125333Y-100338095D01*
X189934857Y-100290476D01*
X189839619Y-100242857D01*
X189792000Y-100195238D01*
X189744381Y-100100000D01*
X190458667Y-99385714D02*
X190458667Y-98909523D01*
X190744381Y-99480952D02*
X189744381Y-99147619D01*
X190744381Y-98814285D01*
X189744381Y-98290476D02*
X189744381Y-98195237D01*
X189792000Y-98099999D01*
X189839619Y-98052380D01*
X189934857Y-98004761D01*
X190125333Y-97957142D01*
X190363429Y-97957142D01*
X190553905Y-98004761D01*
X190649143Y-98052380D01*
X190696762Y-98099999D01*
X190744381Y-98195237D01*
X190744381Y-98290476D01*
X190696762Y-98385714D01*
X190649143Y-98433333D01*
X190553905Y-98480952D01*
X190363429Y-98528571D01*
X190125333Y-98528571D01*
X189934857Y-98480952D01*
X189839619Y-98433333D01*
X189792000Y-98385714D01*
X189744381Y-98290476D01*
X190220571Y-97195237D02*
X190268190Y-97052380D01*
X190315810Y-97004761D01*
X190411048Y-96957142D01*
X190553905Y-96957142D01*
X190649143Y-97004761D01*
X190696762Y-97052380D01*
X190744381Y-97147618D01*
X190744381Y-97528571D01*
X189744381Y-97528571D01*
X189744381Y-97195237D01*
X189792000Y-97099999D01*
X189839619Y-97052380D01*
X189934857Y-97004761D01*
X190030095Y-97004761D01*
X190125333Y-97052380D01*
X190172952Y-97099999D01*
X190220571Y-97195237D01*
X190220571Y-97528571D01*
X176744381Y-81195238D02*
X176744381Y-80623809D01*
X177744381Y-80909524D02*
X176744381Y-80909524D01*
X177744381Y-79719047D02*
X177268190Y-80052381D01*
X177744381Y-80290476D02*
X176744381Y-80290476D01*
X176744381Y-79909523D01*
X176792000Y-79814285D01*
X176839619Y-79766666D01*
X176934857Y-79719047D01*
X177077714Y-79719047D01*
X177172952Y-79766666D01*
X177220571Y-79814285D01*
X177268190Y-79909523D01*
X177268190Y-80290476D01*
X177744381Y-79290476D02*
X176744381Y-79290476D01*
X177744381Y-78814286D02*
X176744381Y-78814286D01*
X177458667Y-78480952D01*
X176744381Y-78147619D01*
X177744381Y-78147619D01*
X181696762Y-83409524D02*
X181744381Y-83266667D01*
X181744381Y-83028571D01*
X181696762Y-82933333D01*
X181649143Y-82885714D01*
X181553905Y-82838095D01*
X181458667Y-82838095D01*
X181363429Y-82885714D01*
X181315810Y-82933333D01*
X181268190Y-83028571D01*
X181220571Y-83219048D01*
X181172952Y-83314286D01*
X181125333Y-83361905D01*
X181030095Y-83409524D01*
X180934857Y-83409524D01*
X180839619Y-83361905D01*
X180792000Y-83314286D01*
X180744381Y-83219048D01*
X180744381Y-82980952D01*
X180792000Y-82838095D01*
X181220571Y-82409524D02*
X181220571Y-82076190D01*
X181744381Y-81933333D02*
X181744381Y-82409524D01*
X180744381Y-82409524D01*
X180744381Y-81933333D01*
X181744381Y-81504762D02*
X180744381Y-81504762D01*
X181744381Y-80933333D01*
X180744381Y-80933333D01*
X181696762Y-80504762D02*
X181744381Y-80361905D01*
X181744381Y-80123809D01*
X181696762Y-80028571D01*
X181649143Y-79980952D01*
X181553905Y-79933333D01*
X181458667Y-79933333D01*
X181363429Y-79980952D01*
X181315810Y-80028571D01*
X181268190Y-80123809D01*
X181220571Y-80314286D01*
X181172952Y-80409524D01*
X181125333Y-80457143D01*
X181030095Y-80504762D01*
X180934857Y-80504762D01*
X180839619Y-80457143D01*
X180792000Y-80409524D01*
X180744381Y-80314286D01*
X180744381Y-80076190D01*
X180792000Y-79933333D01*
X181220571Y-79504762D02*
X181220571Y-79171428D01*
X181744381Y-79028571D02*
X181744381Y-79504762D01*
X180744381Y-79504762D01*
X180744381Y-79028571D01*
X181363429Y-78600000D02*
X181363429Y-77838095D01*
X173696762Y-83409524D02*
X173744381Y-83266667D01*
X173744381Y-83028571D01*
X173696762Y-82933333D01*
X173649143Y-82885714D01*
X173553905Y-82838095D01*
X173458667Y-82838095D01*
X173363429Y-82885714D01*
X173315810Y-82933333D01*
X173268190Y-83028571D01*
X173220571Y-83219048D01*
X173172952Y-83314286D01*
X173125333Y-83361905D01*
X173030095Y-83409524D01*
X172934857Y-83409524D01*
X172839619Y-83361905D01*
X172792000Y-83314286D01*
X172744381Y-83219048D01*
X172744381Y-82980952D01*
X172792000Y-82838095D01*
X173220571Y-82409524D02*
X173220571Y-82076190D01*
X173744381Y-81933333D02*
X173744381Y-82409524D01*
X172744381Y-82409524D01*
X172744381Y-81933333D01*
X173744381Y-81504762D02*
X172744381Y-81504762D01*
X173744381Y-80933333D01*
X172744381Y-80933333D01*
X173696762Y-80504762D02*
X173744381Y-80361905D01*
X173744381Y-80123809D01*
X173696762Y-80028571D01*
X173649143Y-79980952D01*
X173553905Y-79933333D01*
X173458667Y-79933333D01*
X173363429Y-79980952D01*
X173315810Y-80028571D01*
X173268190Y-80123809D01*
X173220571Y-80314286D01*
X173172952Y-80409524D01*
X173125333Y-80457143D01*
X173030095Y-80504762D01*
X172934857Y-80504762D01*
X172839619Y-80457143D01*
X172792000Y-80409524D01*
X172744381Y-80314286D01*
X172744381Y-80076190D01*
X172792000Y-79933333D01*
X173220571Y-79504762D02*
X173220571Y-79171428D01*
X173744381Y-79028571D02*
X173744381Y-79504762D01*
X172744381Y-79504762D01*
X172744381Y-79028571D01*
X173363429Y-78600000D02*
X173363429Y-77838095D01*
X173744381Y-78219047D02*
X172982476Y-78219047D01*
X184244381Y-80504762D02*
X185244381Y-80171429D01*
X184244381Y-79838095D01*
X185244381Y-79361905D02*
X185196762Y-79457143D01*
X185149143Y-79504762D01*
X185053905Y-79552381D01*
X184768190Y-79552381D01*
X184672952Y-79504762D01*
X184625333Y-79457143D01*
X184577714Y-79361905D01*
X184577714Y-79219047D01*
X184625333Y-79123809D01*
X184672952Y-79076190D01*
X184768190Y-79028571D01*
X185053905Y-79028571D01*
X185149143Y-79076190D01*
X185196762Y-79123809D01*
X185244381Y-79219047D01*
X185244381Y-79361905D01*
X184863429Y-78600000D02*
X184863429Y-77838095D01*
X169244381Y-80504762D02*
X170244381Y-80171429D01*
X169244381Y-79838095D01*
X170244381Y-79361905D02*
X170196762Y-79457143D01*
X170149143Y-79504762D01*
X170053905Y-79552381D01*
X169768190Y-79552381D01*
X169672952Y-79504762D01*
X169625333Y-79457143D01*
X169577714Y-79361905D01*
X169577714Y-79219047D01*
X169625333Y-79123809D01*
X169672952Y-79076190D01*
X169768190Y-79028571D01*
X170053905Y-79028571D01*
X170149143Y-79076190D01*
X170196762Y-79123809D01*
X170244381Y-79219047D01*
X170244381Y-79361905D01*
X169863429Y-78600000D02*
X169863429Y-77838095D01*
X170244381Y-78219047D02*
X169482476Y-78219047D01*
X184744381Y-125290476D02*
X185744381Y-124957143D01*
X184744381Y-124623809D01*
X185744381Y-124290476D02*
X185077714Y-124290476D01*
X184744381Y-124290476D02*
X184792000Y-124338095D01*
X184839619Y-124290476D01*
X184792000Y-124242857D01*
X184744381Y-124290476D01*
X184839619Y-124290476D01*
X185363429Y-123814286D02*
X185363429Y-123052381D01*
X176744381Y-124623810D02*
X176744381Y-124433333D01*
X176792000Y-124338095D01*
X176887238Y-124242857D01*
X177077714Y-124195238D01*
X177411048Y-124195238D01*
X177601524Y-124242857D01*
X177696762Y-124338095D01*
X177744381Y-124433333D01*
X177744381Y-124623810D01*
X177696762Y-124719048D01*
X177601524Y-124814286D01*
X177411048Y-124861905D01*
X177077714Y-124861905D01*
X176887238Y-124814286D01*
X176792000Y-124719048D01*
X176744381Y-124623810D01*
X177744381Y-123766667D02*
X176744381Y-123766667D01*
X177744381Y-123195238D01*
X176744381Y-123195238D01*
X176696762Y-122004762D02*
X177982476Y-122861905D01*
X176744381Y-121480953D02*
X176744381Y-121290476D01*
X176792000Y-121195238D01*
X176887238Y-121100000D01*
X177077714Y-121052381D01*
X177411048Y-121052381D01*
X177601524Y-121100000D01*
X177696762Y-121195238D01*
X177744381Y-121290476D01*
X177744381Y-121480953D01*
X177696762Y-121576191D01*
X177601524Y-121671429D01*
X177411048Y-121719048D01*
X177077714Y-121719048D01*
X176887238Y-121671429D01*
X176792000Y-121576191D01*
X176744381Y-121480953D01*
X177220571Y-120290476D02*
X177220571Y-120623810D01*
X177744381Y-120623810D02*
X176744381Y-120623810D01*
X176744381Y-120147619D01*
X177220571Y-119433333D02*
X177220571Y-119766667D01*
X177744381Y-119766667D02*
X176744381Y-119766667D01*
X176744381Y-119290476D01*
X169244381Y-124790476D02*
X170244381Y-124457143D01*
X169244381Y-124123809D01*
X170244381Y-123790476D02*
X169577714Y-123790476D01*
X169244381Y-123790476D02*
X169292000Y-123838095D01*
X169339619Y-123790476D01*
X169292000Y-123742857D01*
X169244381Y-123790476D01*
X169339619Y-123790476D01*
X169863429Y-123314286D02*
X169863429Y-122552381D01*
X170244381Y-122933333D02*
X169482476Y-122933333D01*
D13*
X155411395Y-114399681D02*
X155411395Y-115209205D01*
X155459014Y-115304443D01*
X155506633Y-115352062D01*
X155601871Y-115399681D01*
X155792348Y-115399681D01*
X155887586Y-115352062D01*
X155935205Y-115304443D01*
X155982824Y-115209205D01*
X155982824Y-114399681D01*
X156887586Y-114733014D02*
X156887586Y-115399681D01*
X156649490Y-114352062D02*
X156411395Y-115066348D01*
X157030443Y-115066348D01*
X158011395Y-135099681D02*
X158011395Y-135909205D01*
X158059014Y-136004443D01*
X158106633Y-136052062D01*
X158201871Y-136099681D01*
X158392348Y-136099681D01*
X158487586Y-136052062D01*
X158535205Y-136004443D01*
X158582824Y-135909205D01*
X158582824Y-135099681D01*
X159487586Y-135099681D02*
X159297109Y-135099681D01*
X159201871Y-135147300D01*
X159154252Y-135194919D01*
X159059014Y-135337776D01*
X159011395Y-135528252D01*
X159011395Y-135909205D01*
X159059014Y-136004443D01*
X159106633Y-136052062D01*
X159201871Y-136099681D01*
X159392348Y-136099681D01*
X159487586Y-136052062D01*
X159535205Y-136004443D01*
X159582824Y-135909205D01*
X159582824Y-135671110D01*
X159535205Y-135575871D01*
X159487586Y-135528252D01*
X159392348Y-135480633D01*
X159201871Y-135480633D01*
X159106633Y-135528252D01*
X159059014Y-135575871D01*
X159011395Y-135671110D01*
X161003495Y-146887781D02*
X161003495Y-147697305D01*
X161051114Y-147792543D01*
X161098733Y-147840162D01*
X161193971Y-147887781D01*
X161384448Y-147887781D01*
X161479686Y-147840162D01*
X161527305Y-147792543D01*
X161574924Y-147697305D01*
X161574924Y-146887781D01*
X162527305Y-146887781D02*
X162051114Y-146887781D01*
X162003495Y-147363971D01*
X162051114Y-147316352D01*
X162146352Y-147268733D01*
X162384448Y-147268733D01*
X162479686Y-147316352D01*
X162527305Y-147363971D01*
X162574924Y-147459210D01*
X162574924Y-147697305D01*
X162527305Y-147792543D01*
X162479686Y-147840162D01*
X162384448Y-147887781D01*
X162146352Y-147887781D01*
X162051114Y-147840162D01*
X162003495Y-147792543D01*
M02*
