G04 #@! TF.FileFunction,Copper,L1,Top,Signal*
%FSLAX46Y46*%
G04 Gerber Fmt 4.6, Leading zero omitted, Abs format (unit mm)*
G04 Created by KiCad (PCBNEW 4.0.6) date Fri Sep  8 02:15:48 2017*
%MOMM*%
%LPD*%
G01*
G04 APERTURE LIST*
%ADD10C,0.100000*%
%ADD11R,0.750000X0.800000*%
%ADD12R,2.500000X1.000000*%
%ADD13R,1.000000X2.500000*%
%ADD14R,0.800000X0.750000*%
%ADD15R,1.200000X1.200000*%
%ADD16R,2.500000X1.800000*%
%ADD17R,1.800000X2.500000*%
%ADD18R,2.000000X2.600000*%
%ADD19O,2.000000X2.600000*%
%ADD20R,2.800000X2.800000*%
%ADD21C,2.800000*%
%ADD22R,1.300000X0.700000*%
%ADD23R,0.900000X0.600000*%
%ADD24R,0.600000X0.900000*%
%ADD25R,0.700000X1.150000*%
%ADD26R,4.700000X1.550000*%
%ADD27R,4.200000X3.300000*%
%ADD28R,0.800000X0.900000*%
%ADD29R,0.900000X0.500000*%
%ADD30R,0.500000X0.900000*%
%ADD31R,2.440000X5.600000*%
%ADD32R,2.440000X0.890000*%
%ADD33C,1.000000*%
%ADD34C,1.270000*%
%ADD35C,1.930000*%
%ADD36R,1.200000X0.400000*%
%ADD37R,2.000000X3.800000*%
%ADD38R,2.000000X1.500000*%
%ADD39R,2.600000X2.000000*%
%ADD40O,2.600000X2.000000*%
%ADD41R,2.200000X0.800000*%
%ADD42R,6.400000X5.800000*%
%ADD43R,3.050000X2.750000*%
%ADD44C,0.600000*%
%ADD45C,0.200000*%
%ADD46C,0.400000*%
%ADD47C,0.254000*%
G04 APERTURE END LIST*
D10*
D11*
X112579000Y-133382600D03*
X112579000Y-134882600D03*
X114079000Y-133382600D03*
X114079000Y-134882600D03*
X115579000Y-133382600D03*
X115579000Y-134882600D03*
D12*
X149860000Y-104926000D03*
X149860000Y-107926000D03*
D13*
X169696000Y-132842000D03*
X172696000Y-132842000D03*
D11*
X150373300Y-123397300D03*
X150373300Y-121897300D03*
D12*
X153123900Y-141400400D03*
X153123900Y-144400400D03*
D14*
X153223300Y-124547300D03*
X154723300Y-124547300D03*
D15*
X84582000Y-91778000D03*
X84582000Y-89578000D03*
X182669000Y-67818000D03*
X184869000Y-67818000D03*
D16*
X106902000Y-129540000D03*
X102902000Y-129540000D03*
D15*
X169329100Y-145064300D03*
X169329100Y-147264300D03*
D16*
X106902000Y-124968000D03*
X102902000Y-124968000D03*
D17*
X106579000Y-134632600D03*
X106579000Y-138632600D03*
D15*
X146273300Y-131447300D03*
X146273300Y-133647300D03*
D18*
X118329000Y-121382600D03*
D19*
X115789000Y-121382600D03*
X113249000Y-121382600D03*
D20*
X197902000Y-122010000D03*
D21*
X203402000Y-122010000D03*
D20*
X197902000Y-114010000D03*
D21*
X203402000Y-114010000D03*
D20*
X197902000Y-106010000D03*
D21*
X203402000Y-106010000D03*
D20*
X197902000Y-98010000D03*
D21*
X203402000Y-98010000D03*
D20*
X197902000Y-90010000D03*
D21*
X203402000Y-90010000D03*
D20*
X197902000Y-82010000D03*
D21*
X203402000Y-82010000D03*
D20*
X153309000Y-91745000D03*
D21*
X158809000Y-91745000D03*
D20*
X153309000Y-83745000D03*
D21*
X158809000Y-83745000D03*
D20*
X153309000Y-75745000D03*
D21*
X158809000Y-75745000D03*
D20*
X153309000Y-67745000D03*
D21*
X158809000Y-67745000D03*
D20*
X179251000Y-139192000D03*
D21*
X179251000Y-144692000D03*
D20*
X187251000Y-139192000D03*
D21*
X187251000Y-144692000D03*
D20*
X195251000Y-139192000D03*
D21*
X195251000Y-144692000D03*
D20*
X203251000Y-139192000D03*
D21*
X203251000Y-144692000D03*
D20*
X136144000Y-75850000D03*
D21*
X136144000Y-70350000D03*
D20*
X128144000Y-75850000D03*
D21*
X128144000Y-70350000D03*
D20*
X120144000Y-75850000D03*
D21*
X120144000Y-70350000D03*
D20*
X112144000Y-75850000D03*
D21*
X112144000Y-70350000D03*
D20*
X104144000Y-75850000D03*
D21*
X104144000Y-70350000D03*
D20*
X96144000Y-75850000D03*
D21*
X96144000Y-70350000D03*
D20*
X96012000Y-123444000D03*
D21*
X90512000Y-123444000D03*
D20*
X96012000Y-131064000D03*
D21*
X90512000Y-131064000D03*
D22*
X110329000Y-132932600D03*
X110329000Y-134832600D03*
D23*
X123929000Y-123447600D03*
X123929000Y-124297600D03*
X123929000Y-122597600D03*
X126229000Y-123447600D03*
X126229000Y-124297600D03*
X126229000Y-122597600D03*
X125079000Y-122597600D03*
X125079000Y-124297600D03*
D24*
X123199000Y-120747600D03*
X126959000Y-120747600D03*
X124479000Y-120747600D03*
D25*
X124439000Y-126467600D03*
X123169000Y-126467600D03*
X125719000Y-126467600D03*
D26*
X125079000Y-120997600D03*
D27*
X125079000Y-123197600D03*
D25*
X126989000Y-126467600D03*
D24*
X125679000Y-120747600D03*
D23*
X125079000Y-123447600D03*
X130429000Y-123447600D03*
X130429000Y-124297600D03*
X130429000Y-122597600D03*
X132729000Y-123447600D03*
X132729000Y-124297600D03*
X132729000Y-122597600D03*
X131579000Y-122597600D03*
X131579000Y-124297600D03*
D24*
X129699000Y-120747600D03*
X133459000Y-120747600D03*
X130979000Y-120747600D03*
D25*
X130939000Y-126467600D03*
X129669000Y-126467600D03*
X132219000Y-126467600D03*
D26*
X131579000Y-120997600D03*
D27*
X131579000Y-123197600D03*
D25*
X133489000Y-126467600D03*
D24*
X132179000Y-120747600D03*
D23*
X131579000Y-123447600D03*
X126118000Y-142171000D03*
X126118000Y-141321000D03*
X126118000Y-143021000D03*
X123818000Y-142171000D03*
X123818000Y-141321000D03*
X123818000Y-143021000D03*
X124968000Y-143021000D03*
X124968000Y-141321000D03*
D24*
X126848000Y-144871000D03*
X123088000Y-144871000D03*
X125568000Y-144871000D03*
D25*
X125608000Y-139151000D03*
X126878000Y-139151000D03*
X124328000Y-139151000D03*
D26*
X124968000Y-144621000D03*
D27*
X124968000Y-142421000D03*
D25*
X123058000Y-139151000D03*
D24*
X124368000Y-144871000D03*
D23*
X124968000Y-142171000D03*
X132722000Y-142171000D03*
X132722000Y-141321000D03*
X132722000Y-143021000D03*
X130422000Y-142171000D03*
X130422000Y-141321000D03*
X130422000Y-143021000D03*
X131572000Y-143021000D03*
X131572000Y-141321000D03*
D24*
X133452000Y-144871000D03*
X129692000Y-144871000D03*
X132172000Y-144871000D03*
D25*
X132212000Y-139151000D03*
X133482000Y-139151000D03*
X130932000Y-139151000D03*
D26*
X131572000Y-144621000D03*
D27*
X131572000Y-142421000D03*
D25*
X129662000Y-139151000D03*
D24*
X130972000Y-144871000D03*
D23*
X131572000Y-142171000D03*
D28*
X145569900Y-144408400D03*
X147469900Y-144408400D03*
X146519900Y-142408400D03*
D29*
X84582000Y-100826000D03*
X84582000Y-99326000D03*
D30*
X173367000Y-67818000D03*
X174867000Y-67818000D03*
D29*
X169329100Y-140664500D03*
X169329100Y-142164500D03*
X146273300Y-127997300D03*
X146273300Y-129497300D03*
X114079000Y-126382600D03*
X114079000Y-127882600D03*
X115829000Y-126382600D03*
X115829000Y-127882600D03*
D30*
X113579000Y-131132600D03*
X112079000Y-131132600D03*
D29*
X117579000Y-126382600D03*
X117579000Y-127882600D03*
D31*
X141809000Y-131242600D03*
D32*
X141809000Y-135377600D03*
D31*
X136849000Y-131242600D03*
D32*
X136849000Y-135377600D03*
D30*
X147968400Y-139509500D03*
X146468400Y-139509500D03*
D29*
X150173300Y-118997300D03*
X150173300Y-117497300D03*
X146973300Y-121897300D03*
X146973300Y-123397300D03*
X149873300Y-129497300D03*
X149873300Y-127997300D03*
D33*
X84582000Y-104775000D03*
X169672000Y-67818000D03*
X169329100Y-138430000D03*
X148082000Y-128016000D03*
D34*
X143637000Y-104775000D03*
X143637000Y-97155000D03*
X143637000Y-89535000D03*
X92837000Y-100965000D03*
X92837000Y-97155000D03*
X92837000Y-93345000D03*
D35*
X92837000Y-104775000D03*
X92837000Y-89535000D03*
D36*
X117669000Y-130340100D03*
X117669000Y-130975100D03*
X117669000Y-131610100D03*
X117669000Y-132245100D03*
X117669000Y-132880100D03*
X117669000Y-133515100D03*
X117669000Y-134150100D03*
X117669000Y-134785100D03*
X122869000Y-134785100D03*
X122869000Y-134150100D03*
X122869000Y-133515100D03*
X122869000Y-132880100D03*
X122869000Y-132245100D03*
X122869000Y-131610100D03*
X122869000Y-130975100D03*
X122869000Y-130340100D03*
D34*
X169672000Y-127000000D03*
X177292000Y-127000000D03*
X184912000Y-127000000D03*
X173482000Y-76200000D03*
X177292000Y-76200000D03*
X181102000Y-76200000D03*
D35*
X169672000Y-76200000D03*
X184912000Y-76200000D03*
D37*
X159323300Y-119447300D03*
D38*
X153023300Y-119447300D03*
X153023300Y-121747300D03*
X153023300Y-117147300D03*
D39*
X156173300Y-127647300D03*
D40*
X156173300Y-130187300D03*
X156173300Y-132727300D03*
D41*
X165965400Y-145215400D03*
X165965400Y-144075400D03*
X165965400Y-142935400D03*
X165965400Y-141795400D03*
X165965400Y-140655400D03*
D42*
X159665400Y-142935400D03*
D43*
X157990400Y-141410400D03*
X161340400Y-144460400D03*
X157990400Y-144460400D03*
X161340400Y-141410400D03*
D44*
X145415000Y-122682000D03*
X151892000Y-125857000D03*
X150368000Y-124714000D03*
X106553000Y-141097000D03*
X110871000Y-131064000D03*
X117602000Y-135890000D03*
X149860000Y-109601000D03*
X144780000Y-135128000D03*
X174117000Y-132842000D03*
X153162000Y-145923000D03*
X147447000Y-145923000D03*
X172466000Y-147320000D03*
X127000000Y-127889000D03*
X124333000Y-130302000D03*
X133477000Y-128143000D03*
X124333000Y-131445000D03*
X129667000Y-137541000D03*
X123698000Y-136017000D03*
X144653000Y-127000000D03*
X140335000Y-136906000D03*
X136271000Y-136779000D03*
D45*
X110546500Y-134150100D02*
X110529000Y-134132600D01*
X110546500Y-134150100D02*
X110529000Y-134132600D01*
X117669000Y-132245100D02*
X116691500Y-132245100D01*
X113829000Y-132132600D02*
X112579000Y-133382600D01*
X116579000Y-132132600D02*
X113829000Y-132132600D01*
X116691500Y-132245100D02*
X116579000Y-132132600D01*
X117556500Y-132132600D02*
X117669000Y-132245100D01*
X84582000Y-89578000D02*
X92794000Y-89578000D01*
X92794000Y-89578000D02*
X92837000Y-89535000D01*
X146973300Y-123397300D02*
X146130300Y-123397300D01*
X146130300Y-123397300D02*
X145415000Y-122682000D01*
X184869000Y-67818000D02*
X184869000Y-76157000D01*
X184869000Y-76157000D02*
X184912000Y-76200000D01*
X153201700Y-124547300D02*
X151892000Y-125857000D01*
X153223300Y-124547300D02*
X153201700Y-124547300D01*
X150373300Y-123397300D02*
X150373300Y-124708700D01*
X150373300Y-124708700D02*
X150368000Y-124714000D01*
X106579000Y-138632600D02*
X106579000Y-141071000D01*
X106579000Y-141071000D02*
X106553000Y-141097000D01*
X112079000Y-131132600D02*
X110939600Y-131132600D01*
X110939600Y-131132600D02*
X110871000Y-131064000D01*
X112579000Y-134882600D02*
X114079000Y-134882600D01*
X114079000Y-134882600D02*
X115579000Y-134882600D01*
X115579000Y-134882600D02*
X115676500Y-134785100D01*
X115676500Y-134785100D02*
X117669000Y-134785100D01*
X117669000Y-134785100D02*
X117669000Y-135823000D01*
X117669000Y-135823000D02*
X117602000Y-135890000D01*
X149860000Y-107926000D02*
X149860000Y-109601000D01*
X146273300Y-133647300D02*
X146260700Y-133647300D01*
X146260700Y-133647300D02*
X144780000Y-135128000D01*
X172696000Y-132842000D02*
X174117000Y-132842000D01*
X153123900Y-144400400D02*
X153123900Y-145884900D01*
X153123900Y-145884900D02*
X153162000Y-145923000D01*
X147469900Y-144408400D02*
X147469900Y-145900100D01*
X147469900Y-145900100D02*
X147447000Y-145923000D01*
X169329100Y-147264300D02*
X172410300Y-147264300D01*
X172410300Y-147264300D02*
X172466000Y-147320000D01*
X110329000Y-132932600D02*
X110329000Y-133189000D01*
X110329000Y-133189000D02*
X111252000Y-134112000D01*
X113349600Y-134112000D02*
X114079000Y-133382600D01*
X111252000Y-134112000D02*
X113349600Y-134112000D01*
X106902000Y-129540000D02*
X107102000Y-129540000D01*
X107102000Y-129540000D02*
X110329000Y-132932600D01*
X106902000Y-124968000D02*
X106902000Y-129540000D01*
X106579000Y-134632600D02*
X106652000Y-129790000D01*
X106652000Y-129790000D02*
X106902000Y-129540000D01*
X117669000Y-132880100D02*
X116576500Y-132880100D01*
X114829000Y-132632600D02*
X114079000Y-133382600D01*
X116329000Y-132632600D02*
X114829000Y-132632600D01*
X116576500Y-132880100D02*
X116329000Y-132632600D01*
X114079000Y-133132600D02*
X114079000Y-133382600D01*
X117669000Y-133515100D02*
X115711500Y-133515100D01*
X115711500Y-133515100D02*
X115579000Y-133382600D01*
X165965400Y-142935400D02*
X159665400Y-142935400D01*
X150373300Y-121897300D02*
X150523300Y-121747300D01*
X150523300Y-121747300D02*
X153023300Y-121747300D01*
D46*
X147968400Y-139509500D02*
X149390100Y-139509500D01*
X159752900Y-127647300D02*
X156173300Y-127647300D01*
X161417000Y-129311400D02*
X159752900Y-127647300D01*
X161417000Y-134950200D02*
X161417000Y-129311400D01*
X159435800Y-136931400D02*
X161417000Y-134950200D01*
X151968200Y-136931400D02*
X159435800Y-136931400D01*
X149390100Y-139509500D02*
X151968200Y-136931400D01*
X156173300Y-127647300D02*
X155823300Y-127997300D01*
X155823300Y-127997300D02*
X149873300Y-127997300D01*
X154723300Y-124547300D02*
X156173300Y-124547300D01*
X156173300Y-124547300D02*
X156173300Y-124447300D01*
X156173300Y-127647300D02*
X156173300Y-125047300D01*
X156173300Y-125047300D02*
X156173300Y-124447300D01*
X156173300Y-124447300D02*
X156173300Y-121647300D01*
X155173300Y-119647300D02*
X153223300Y-119647300D01*
X156173300Y-120647300D02*
X155173300Y-119647300D01*
X156173300Y-121647300D02*
X156173300Y-120647300D01*
X153223300Y-119647300D02*
X153023300Y-119447300D01*
D45*
X153023300Y-119447300D02*
X152573300Y-118997300D01*
X152573300Y-118997300D02*
X150173300Y-118997300D01*
X84582000Y-99326000D02*
X84582000Y-91778000D01*
X174867000Y-67818000D02*
X182669000Y-67818000D01*
X169329100Y-145064300D02*
X169329100Y-142164500D01*
X146273300Y-131447300D02*
X146273300Y-129497300D01*
X117579000Y-126382600D02*
X117829000Y-126382600D01*
X117829000Y-126382600D02*
X118329000Y-125882600D01*
X118329000Y-125882600D02*
X118329000Y-121382600D01*
X115829000Y-126382600D02*
X115829000Y-121422600D01*
X115829000Y-121422600D02*
X115789000Y-121382600D01*
X114079000Y-126382600D02*
X113329000Y-125632600D01*
X113329000Y-125632600D02*
X113329000Y-121462600D01*
X113329000Y-121462600D02*
X113249000Y-121382600D01*
X84582000Y-100826000D02*
X84582000Y-104775000D01*
X117669000Y-134150100D02*
X117686500Y-134132600D01*
X117686500Y-134132600D02*
X118779000Y-134132600D01*
X110379000Y-136132600D02*
X110379000Y-134882600D01*
X111179000Y-136932600D02*
X110379000Y-136132600D01*
X118379000Y-136932600D02*
X111179000Y-136932600D01*
X119379000Y-135932600D02*
X118379000Y-136932600D01*
X119379000Y-134732600D02*
X119379000Y-135932600D01*
X118779000Y-134132600D02*
X119379000Y-134732600D01*
X110379000Y-134882600D02*
X110329000Y-134832600D01*
X110379000Y-134882600D02*
X110329000Y-134832600D01*
X122869000Y-130975100D02*
X121958100Y-130975100D01*
X122555000Y-129032000D02*
X122555000Y-128905000D01*
X121666000Y-129921000D02*
X122555000Y-129032000D01*
X121666000Y-130683000D02*
X121666000Y-129921000D01*
X121958100Y-130975100D02*
X121666000Y-130683000D01*
X122869000Y-130340100D02*
X124294900Y-130340100D01*
X126989000Y-127878000D02*
X126989000Y-126467600D01*
X127000000Y-127889000D02*
X126989000Y-127878000D01*
X124294900Y-130340100D02*
X124333000Y-130302000D01*
X126989000Y-126467600D02*
X126829000Y-126627600D01*
X122911500Y-130382600D02*
X122869000Y-130340100D01*
X122869000Y-131610100D02*
X124167900Y-131610100D01*
X133489000Y-128131000D02*
X133489000Y-126467600D01*
X133477000Y-128143000D02*
X133489000Y-128131000D01*
X124167900Y-131610100D02*
X124333000Y-131445000D01*
X133489000Y-126467600D02*
X133329000Y-126627600D01*
X122891500Y-131632600D02*
X122869000Y-131610100D01*
X122869000Y-134150100D02*
X124421900Y-134150100D01*
X124460000Y-134188200D02*
X124460000Y-134239000D01*
X124421900Y-134150100D02*
X124460000Y-134188200D01*
X122869000Y-133515100D02*
X121754900Y-133515100D01*
X121412000Y-137505000D02*
X123058000Y-139151000D01*
X121412000Y-133858000D02*
X121412000Y-137505000D01*
X121754900Y-133515100D02*
X121412000Y-133858000D01*
X123058000Y-139151000D02*
X122968000Y-139061000D01*
X122751500Y-133632600D02*
X122869000Y-133515100D01*
X122986500Y-133632600D02*
X122869000Y-133515100D01*
X129662000Y-137546000D02*
X129662000Y-139151000D01*
X129667000Y-137541000D02*
X129662000Y-137546000D01*
X122869000Y-135188000D02*
X123698000Y-136017000D01*
X122869000Y-134785100D02*
X122869000Y-135188000D01*
X129662000Y-139151000D02*
X129572000Y-139061000D01*
X122966500Y-134882600D02*
X122869000Y-134785100D01*
X146304000Y-127000000D02*
X144653000Y-127000000D01*
X146304000Y-127000000D02*
X147066000Y-127000000D01*
X146177000Y-127000000D02*
X146304000Y-127000000D01*
X147066000Y-127000000D02*
X148082000Y-128016000D01*
X146273300Y-127000000D02*
X146177000Y-127000000D01*
X145569900Y-144408400D02*
X143646400Y-144408400D01*
X149873300Y-132676300D02*
X149873300Y-129497300D01*
X142214600Y-140335000D02*
X149873300Y-132676300D01*
X142214600Y-142976600D02*
X142214600Y-140335000D01*
X143646400Y-144408400D02*
X142214600Y-142976600D01*
X146273300Y-127997300D02*
X146273300Y-127000000D01*
X146273300Y-127997300D02*
X147773300Y-129497300D01*
X147773300Y-129497300D02*
X149873300Y-129497300D01*
X156173300Y-130187300D02*
X155483300Y-129497300D01*
X155483300Y-129497300D02*
X149873300Y-129497300D01*
X146519900Y-139624500D02*
X146520600Y-139623800D01*
X146519900Y-142408400D02*
X146519900Y-139624500D01*
X164534600Y-144075400D02*
X165965400Y-144075400D01*
X163601400Y-145008600D02*
X164534600Y-144075400D01*
X163601400Y-146227800D02*
X163601400Y-145008600D01*
X162687000Y-147142200D02*
X163601400Y-146227800D01*
X155778200Y-147142200D02*
X162687000Y-147142200D01*
X155524200Y-146888200D02*
X155778200Y-147142200D01*
X155524200Y-143535400D02*
X155524200Y-146888200D01*
X154397200Y-142408400D02*
X155524200Y-143535400D01*
X146519900Y-142408400D02*
X154397200Y-142408400D01*
X115829000Y-131610100D02*
X115351500Y-131132600D01*
X115351500Y-131132600D02*
X113579000Y-131132600D01*
X117669000Y-131610100D02*
X115829000Y-131610100D01*
X115829000Y-131610100D02*
X115806500Y-131610100D01*
X114079000Y-129882600D02*
X114079000Y-127882600D01*
X115806500Y-131610100D02*
X114079000Y-129882600D01*
X117669000Y-130975100D02*
X116671500Y-130975100D01*
X115829000Y-130132600D02*
X115829000Y-127882600D01*
X116671500Y-130975100D02*
X115829000Y-130132600D01*
X117669000Y-130340100D02*
X117669000Y-127972600D01*
X117669000Y-127972600D02*
X117579000Y-127882600D01*
X122869000Y-132880100D02*
X131483100Y-132880100D01*
X140335000Y-136906000D02*
X141809000Y-135432000D01*
X135382000Y-136779000D02*
X136271000Y-136779000D01*
X131483100Y-132880100D02*
X135382000Y-136779000D01*
X141809000Y-135432000D02*
X141809000Y-135377600D01*
X141736400Y-135377600D02*
X141809000Y-135377600D01*
X122869000Y-132880100D02*
X122871500Y-132882600D01*
X122869000Y-132245100D02*
X122981500Y-132259600D01*
X122981500Y-132259600D02*
X131579000Y-132259600D01*
X131579000Y-132259600D02*
X134829000Y-135382600D01*
X134829000Y-135382600D02*
X136844000Y-135382600D01*
X136844000Y-135382600D02*
X136849000Y-135377600D01*
X146973300Y-121897300D02*
X146973300Y-118347300D01*
X147873300Y-117447300D02*
X150123300Y-117447300D01*
X146973300Y-118347300D02*
X147873300Y-117447300D01*
X150123300Y-117447300D02*
X150173300Y-117497300D01*
X153023300Y-117147300D02*
X152673300Y-117497300D01*
X152673300Y-117497300D02*
X150173300Y-117497300D01*
D47*
G36*
X209169000Y-148971000D02*
X163957000Y-148971000D01*
X163957000Y-146911647D01*
X164121124Y-146747523D01*
X164280451Y-146509072D01*
X164296382Y-146428983D01*
X164336400Y-146227800D01*
X164336400Y-145313046D01*
X164592186Y-145057261D01*
X164613510Y-145071831D01*
X164865400Y-145122840D01*
X167065400Y-145122840D01*
X167300717Y-145078562D01*
X167516841Y-144939490D01*
X167661831Y-144727290D01*
X167712840Y-144475400D01*
X167712840Y-144464300D01*
X168081660Y-144464300D01*
X168081660Y-145664300D01*
X168125938Y-145899617D01*
X168265010Y-146115741D01*
X168334811Y-146163434D01*
X168277659Y-146200210D01*
X168132669Y-146412410D01*
X168081660Y-146664300D01*
X168081660Y-147864300D01*
X168125938Y-148099617D01*
X168265010Y-148315741D01*
X168477210Y-148460731D01*
X168729100Y-148511740D01*
X169929100Y-148511740D01*
X170164417Y-148467462D01*
X170380541Y-148328390D01*
X170525531Y-148116190D01*
X170549202Y-147999300D01*
X171822978Y-147999300D01*
X171935673Y-148112192D01*
X172279201Y-148254838D01*
X172651167Y-148255162D01*
X172994943Y-148113117D01*
X173258192Y-147850327D01*
X173400838Y-147506799D01*
X173401162Y-147134833D01*
X173259117Y-146791057D01*
X172996327Y-146527808D01*
X172652799Y-146385162D01*
X172280833Y-146384838D01*
X171937057Y-146526883D01*
X171934636Y-146529300D01*
X170551138Y-146529300D01*
X170532262Y-146428983D01*
X170393190Y-146212859D01*
X170323389Y-146165166D01*
X170380541Y-146128390D01*
X170525531Y-145916190D01*
X170576540Y-145664300D01*
X170576540Y-145095011D01*
X177215648Y-145095011D01*
X177524805Y-145843229D01*
X178096760Y-146416183D01*
X178844438Y-146726646D01*
X179654011Y-146727352D01*
X180402229Y-146418195D01*
X180975183Y-145846240D01*
X181285646Y-145098562D01*
X181285649Y-145095011D01*
X185215648Y-145095011D01*
X185524805Y-145843229D01*
X186096760Y-146416183D01*
X186844438Y-146726646D01*
X187654011Y-146727352D01*
X188402229Y-146418195D01*
X188975183Y-145846240D01*
X189285646Y-145098562D01*
X189285649Y-145095011D01*
X193215648Y-145095011D01*
X193524805Y-145843229D01*
X194096760Y-146416183D01*
X194844438Y-146726646D01*
X195654011Y-146727352D01*
X196402229Y-146418195D01*
X196975183Y-145846240D01*
X197285646Y-145098562D01*
X197285649Y-145095011D01*
X201215648Y-145095011D01*
X201524805Y-145843229D01*
X202096760Y-146416183D01*
X202844438Y-146726646D01*
X203654011Y-146727352D01*
X204402229Y-146418195D01*
X204975183Y-145846240D01*
X205285646Y-145098562D01*
X205286352Y-144288989D01*
X204977195Y-143540771D01*
X204405240Y-142967817D01*
X203657562Y-142657354D01*
X202847989Y-142656648D01*
X202099771Y-142965805D01*
X201526817Y-143537760D01*
X201216354Y-144285438D01*
X201215648Y-145095011D01*
X197285649Y-145095011D01*
X197286352Y-144288989D01*
X196977195Y-143540771D01*
X196405240Y-142967817D01*
X195657562Y-142657354D01*
X194847989Y-142656648D01*
X194099771Y-142965805D01*
X193526817Y-143537760D01*
X193216354Y-144285438D01*
X193215648Y-145095011D01*
X189285649Y-145095011D01*
X189286352Y-144288989D01*
X188977195Y-143540771D01*
X188405240Y-142967817D01*
X187657562Y-142657354D01*
X186847989Y-142656648D01*
X186099771Y-142965805D01*
X185526817Y-143537760D01*
X185216354Y-144285438D01*
X185215648Y-145095011D01*
X181285649Y-145095011D01*
X181286352Y-144288989D01*
X180977195Y-143540771D01*
X180405240Y-142967817D01*
X179657562Y-142657354D01*
X178847989Y-142656648D01*
X178099771Y-142965805D01*
X177526817Y-143537760D01*
X177216354Y-144285438D01*
X177215648Y-145095011D01*
X170576540Y-145095011D01*
X170576540Y-144464300D01*
X170532262Y-144228983D01*
X170393190Y-144012859D01*
X170180990Y-143867869D01*
X170064100Y-143844198D01*
X170064100Y-142985692D01*
X170230541Y-142878590D01*
X170375531Y-142666390D01*
X170426540Y-142414500D01*
X170426540Y-141914500D01*
X170382262Y-141679183D01*
X170243190Y-141463059D01*
X170030990Y-141318069D01*
X169779100Y-141267060D01*
X168879100Y-141267060D01*
X168643783Y-141311338D01*
X168427659Y-141450410D01*
X168282669Y-141662610D01*
X168231660Y-141914500D01*
X168231660Y-142414500D01*
X168275938Y-142649817D01*
X168415010Y-142865941D01*
X168594100Y-142988308D01*
X168594100Y-143842262D01*
X168493783Y-143861138D01*
X168277659Y-144000210D01*
X168132669Y-144212410D01*
X168081660Y-144464300D01*
X167712840Y-144464300D01*
X167712840Y-143675400D01*
X167679678Y-143499159D01*
X167712840Y-143335400D01*
X167712840Y-142535400D01*
X167679678Y-142359159D01*
X167712840Y-142195400D01*
X167712840Y-141395400D01*
X167668562Y-141160083D01*
X167529490Y-140943959D01*
X167317290Y-140798969D01*
X167065400Y-140747960D01*
X164865400Y-140747960D01*
X164630083Y-140792238D01*
X164413959Y-140931310D01*
X164268969Y-141143510D01*
X164217960Y-141395400D01*
X164217960Y-142195400D01*
X164218901Y-142200400D01*
X163957000Y-142200400D01*
X163957000Y-135509000D01*
X209169000Y-135509000D01*
X209169000Y-148971000D01*
X209169000Y-148971000D01*
G37*
X209169000Y-148971000D02*
X163957000Y-148971000D01*
X163957000Y-146911647D01*
X164121124Y-146747523D01*
X164280451Y-146509072D01*
X164296382Y-146428983D01*
X164336400Y-146227800D01*
X164336400Y-145313046D01*
X164592186Y-145057261D01*
X164613510Y-145071831D01*
X164865400Y-145122840D01*
X167065400Y-145122840D01*
X167300717Y-145078562D01*
X167516841Y-144939490D01*
X167661831Y-144727290D01*
X167712840Y-144475400D01*
X167712840Y-144464300D01*
X168081660Y-144464300D01*
X168081660Y-145664300D01*
X168125938Y-145899617D01*
X168265010Y-146115741D01*
X168334811Y-146163434D01*
X168277659Y-146200210D01*
X168132669Y-146412410D01*
X168081660Y-146664300D01*
X168081660Y-147864300D01*
X168125938Y-148099617D01*
X168265010Y-148315741D01*
X168477210Y-148460731D01*
X168729100Y-148511740D01*
X169929100Y-148511740D01*
X170164417Y-148467462D01*
X170380541Y-148328390D01*
X170525531Y-148116190D01*
X170549202Y-147999300D01*
X171822978Y-147999300D01*
X171935673Y-148112192D01*
X172279201Y-148254838D01*
X172651167Y-148255162D01*
X172994943Y-148113117D01*
X173258192Y-147850327D01*
X173400838Y-147506799D01*
X173401162Y-147134833D01*
X173259117Y-146791057D01*
X172996327Y-146527808D01*
X172652799Y-146385162D01*
X172280833Y-146384838D01*
X171937057Y-146526883D01*
X171934636Y-146529300D01*
X170551138Y-146529300D01*
X170532262Y-146428983D01*
X170393190Y-146212859D01*
X170323389Y-146165166D01*
X170380541Y-146128390D01*
X170525531Y-145916190D01*
X170576540Y-145664300D01*
X170576540Y-145095011D01*
X177215648Y-145095011D01*
X177524805Y-145843229D01*
X178096760Y-146416183D01*
X178844438Y-146726646D01*
X179654011Y-146727352D01*
X180402229Y-146418195D01*
X180975183Y-145846240D01*
X181285646Y-145098562D01*
X181285649Y-145095011D01*
X185215648Y-145095011D01*
X185524805Y-145843229D01*
X186096760Y-146416183D01*
X186844438Y-146726646D01*
X187654011Y-146727352D01*
X188402229Y-146418195D01*
X188975183Y-145846240D01*
X189285646Y-145098562D01*
X189285649Y-145095011D01*
X193215648Y-145095011D01*
X193524805Y-145843229D01*
X194096760Y-146416183D01*
X194844438Y-146726646D01*
X195654011Y-146727352D01*
X196402229Y-146418195D01*
X196975183Y-145846240D01*
X197285646Y-145098562D01*
X197285649Y-145095011D01*
X201215648Y-145095011D01*
X201524805Y-145843229D01*
X202096760Y-146416183D01*
X202844438Y-146726646D01*
X203654011Y-146727352D01*
X204402229Y-146418195D01*
X204975183Y-145846240D01*
X205285646Y-145098562D01*
X205286352Y-144288989D01*
X204977195Y-143540771D01*
X204405240Y-142967817D01*
X203657562Y-142657354D01*
X202847989Y-142656648D01*
X202099771Y-142965805D01*
X201526817Y-143537760D01*
X201216354Y-144285438D01*
X201215648Y-145095011D01*
X197285649Y-145095011D01*
X197286352Y-144288989D01*
X196977195Y-143540771D01*
X196405240Y-142967817D01*
X195657562Y-142657354D01*
X194847989Y-142656648D01*
X194099771Y-142965805D01*
X193526817Y-143537760D01*
X193216354Y-144285438D01*
X193215648Y-145095011D01*
X189285649Y-145095011D01*
X189286352Y-144288989D01*
X188977195Y-143540771D01*
X188405240Y-142967817D01*
X187657562Y-142657354D01*
X186847989Y-142656648D01*
X186099771Y-142965805D01*
X185526817Y-143537760D01*
X185216354Y-144285438D01*
X185215648Y-145095011D01*
X181285649Y-145095011D01*
X181286352Y-144288989D01*
X180977195Y-143540771D01*
X180405240Y-142967817D01*
X179657562Y-142657354D01*
X178847989Y-142656648D01*
X178099771Y-142965805D01*
X177526817Y-143537760D01*
X177216354Y-144285438D01*
X177215648Y-145095011D01*
X170576540Y-145095011D01*
X170576540Y-144464300D01*
X170532262Y-144228983D01*
X170393190Y-144012859D01*
X170180990Y-143867869D01*
X170064100Y-143844198D01*
X170064100Y-142985692D01*
X170230541Y-142878590D01*
X170375531Y-142666390D01*
X170426540Y-142414500D01*
X170426540Y-141914500D01*
X170382262Y-141679183D01*
X170243190Y-141463059D01*
X170030990Y-141318069D01*
X169779100Y-141267060D01*
X168879100Y-141267060D01*
X168643783Y-141311338D01*
X168427659Y-141450410D01*
X168282669Y-141662610D01*
X168231660Y-141914500D01*
X168231660Y-142414500D01*
X168275938Y-142649817D01*
X168415010Y-142865941D01*
X168594100Y-142988308D01*
X168594100Y-143842262D01*
X168493783Y-143861138D01*
X168277659Y-144000210D01*
X168132669Y-144212410D01*
X168081660Y-144464300D01*
X167712840Y-144464300D01*
X167712840Y-143675400D01*
X167679678Y-143499159D01*
X167712840Y-143335400D01*
X167712840Y-142535400D01*
X167679678Y-142359159D01*
X167712840Y-142195400D01*
X167712840Y-141395400D01*
X167668562Y-141160083D01*
X167529490Y-140943959D01*
X167317290Y-140798969D01*
X167065400Y-140747960D01*
X164865400Y-140747960D01*
X164630083Y-140792238D01*
X164413959Y-140931310D01*
X164268969Y-141143510D01*
X164217960Y-141395400D01*
X164217960Y-142195400D01*
X164218901Y-142200400D01*
X163957000Y-142200400D01*
X163957000Y-135509000D01*
X209169000Y-135509000D01*
X209169000Y-148971000D01*
G36*
X170815000Y-134493000D02*
X163068000Y-134493000D01*
X163018590Y-134503006D01*
X162976965Y-134531447D01*
X162949685Y-134573841D01*
X162941000Y-134620000D01*
X162941000Y-144699415D01*
X162922349Y-144727328D01*
X162866400Y-145008600D01*
X162866400Y-145923353D01*
X162382554Y-146407200D01*
X156259200Y-146407200D01*
X156259200Y-143535400D01*
X156203251Y-143254128D01*
X156129265Y-143143400D01*
X156043924Y-143015677D01*
X154916923Y-141888677D01*
X154678472Y-141729349D01*
X154397200Y-141673400D01*
X147491092Y-141673400D01*
X147383990Y-141506959D01*
X147254900Y-141418756D01*
X147254900Y-140411344D01*
X147466510Y-140555931D01*
X147718400Y-140606940D01*
X148218400Y-140606940D01*
X148453717Y-140562662D01*
X148669841Y-140423590D01*
X148723881Y-140344500D01*
X149390100Y-140344500D01*
X149709641Y-140280939D01*
X149980534Y-140099934D01*
X152314068Y-137766400D01*
X159435800Y-137766400D01*
X159755341Y-137702839D01*
X160026234Y-137521834D01*
X162007434Y-135540634D01*
X162095207Y-135409272D01*
X162188439Y-135269741D01*
X162252000Y-134950200D01*
X162252000Y-129311400D01*
X162233029Y-129216028D01*
X162188440Y-128991860D01*
X162007434Y-128720966D01*
X160343334Y-127056866D01*
X160258228Y-127000000D01*
X160072441Y-126875861D01*
X159752900Y-126812300D01*
X158120740Y-126812300D01*
X158120740Y-126647300D01*
X158076462Y-126411983D01*
X157937390Y-126195859D01*
X157725190Y-126050869D01*
X157473300Y-125999860D01*
X157008300Y-125999860D01*
X157008300Y-120647300D01*
X156944740Y-120327760D01*
X156763734Y-120056866D01*
X155763734Y-119056866D01*
X155674587Y-118997300D01*
X155492841Y-118875861D01*
X155173300Y-118812300D01*
X154670740Y-118812300D01*
X154670740Y-118697300D01*
X154626462Y-118461983D01*
X154519541Y-118295823D01*
X154619731Y-118149190D01*
X154670740Y-117897300D01*
X154670740Y-117547300D01*
X157675860Y-117547300D01*
X157675860Y-121347300D01*
X157720138Y-121582617D01*
X157859210Y-121798741D01*
X158071410Y-121943731D01*
X158323300Y-121994740D01*
X160323300Y-121994740D01*
X160558617Y-121950462D01*
X160774741Y-121811390D01*
X160919731Y-121599190D01*
X160970740Y-121347300D01*
X160970740Y-117547300D01*
X160926462Y-117311983D01*
X160787390Y-117095859D01*
X160575190Y-116950869D01*
X160323300Y-116899860D01*
X158323300Y-116899860D01*
X158087983Y-116944138D01*
X157871859Y-117083210D01*
X157726869Y-117295410D01*
X157675860Y-117547300D01*
X154670740Y-117547300D01*
X154670740Y-116397300D01*
X154626462Y-116161983D01*
X154487390Y-115945859D01*
X154275190Y-115800869D01*
X154023300Y-115749860D01*
X152023300Y-115749860D01*
X151787983Y-115794138D01*
X151571859Y-115933210D01*
X151426869Y-116145410D01*
X151375860Y-116397300D01*
X151375860Y-116762300D01*
X151038275Y-116762300D01*
X150875190Y-116650869D01*
X150623300Y-116599860D01*
X149723300Y-116599860D01*
X149487983Y-116644138D01*
X149382056Y-116712300D01*
X147873300Y-116712300D01*
X147592028Y-116768249D01*
X147353576Y-116927577D01*
X146453577Y-117827577D01*
X146294249Y-118066028D01*
X146238300Y-118347300D01*
X146238300Y-121076108D01*
X146071859Y-121183210D01*
X145926869Y-121395410D01*
X145875860Y-121647300D01*
X145875860Y-121860963D01*
X145601799Y-121747162D01*
X145229833Y-121746838D01*
X144886057Y-121888883D01*
X144622808Y-122151673D01*
X144480162Y-122495201D01*
X144479838Y-122867167D01*
X144621883Y-123210943D01*
X144884673Y-123474192D01*
X145228201Y-123616838D01*
X145310463Y-123616910D01*
X145610577Y-123917024D01*
X145849028Y-124076351D01*
X146099301Y-124126134D01*
X146271410Y-124243731D01*
X146523300Y-124294740D01*
X147423300Y-124294740D01*
X147658617Y-124250462D01*
X147874741Y-124111390D01*
X148019731Y-123899190D01*
X148070740Y-123647300D01*
X148070740Y-123147300D01*
X148042516Y-122997300D01*
X149350860Y-122997300D01*
X149350860Y-123797300D01*
X149395138Y-124032617D01*
X149534210Y-124248741D01*
X149545567Y-124256501D01*
X149433162Y-124527201D01*
X149432838Y-124899167D01*
X149574883Y-125242943D01*
X149837673Y-125506192D01*
X150181201Y-125648838D01*
X150553167Y-125649162D01*
X150896943Y-125507117D01*
X151160192Y-125244327D01*
X151302838Y-124900799D01*
X151303162Y-124528833D01*
X151194145Y-124264991D01*
X151199741Y-124261390D01*
X151344731Y-124049190D01*
X151395740Y-123797300D01*
X151395740Y-122997300D01*
X151351462Y-122761983D01*
X151212390Y-122545859D01*
X151000190Y-122400869D01*
X150748300Y-122349860D01*
X149998300Y-122349860D01*
X149762983Y-122394138D01*
X149546859Y-122533210D01*
X149401869Y-122745410D01*
X149350860Y-122997300D01*
X148042516Y-122997300D01*
X148026462Y-122911983D01*
X147887390Y-122695859D01*
X147817589Y-122648166D01*
X147874741Y-122611390D01*
X148019731Y-122399190D01*
X148070740Y-122147300D01*
X148070740Y-121647300D01*
X148026462Y-121411983D01*
X147887390Y-121195859D01*
X147708300Y-121073492D01*
X147708300Y-118651746D01*
X148177747Y-118182300D01*
X149248631Y-118182300D01*
X149259210Y-118198741D01*
X149329011Y-118246434D01*
X149271859Y-118283210D01*
X149126869Y-118495410D01*
X149075860Y-118747300D01*
X149075860Y-119247300D01*
X149120138Y-119482617D01*
X149259210Y-119698741D01*
X149471410Y-119843731D01*
X149723300Y-119894740D01*
X150623300Y-119894740D01*
X150858617Y-119850462D01*
X151042246Y-119732300D01*
X151375860Y-119732300D01*
X151375860Y-120197300D01*
X151420138Y-120432617D01*
X151559210Y-120648741D01*
X151771410Y-120793731D01*
X152023300Y-120844740D01*
X154023300Y-120844740D01*
X154258617Y-120800462D01*
X154474741Y-120661390D01*
X154597108Y-120482300D01*
X154827432Y-120482300D01*
X155338300Y-120993168D01*
X155338300Y-123568399D01*
X155123300Y-123524860D01*
X154323300Y-123524860D01*
X154087983Y-123569138D01*
X153973322Y-123642920D01*
X153875190Y-123575869D01*
X153623300Y-123524860D01*
X152823300Y-123524860D01*
X152587983Y-123569138D01*
X152371859Y-123708210D01*
X152226869Y-123920410D01*
X152175860Y-124172300D01*
X152175860Y-124533693D01*
X151787645Y-124921908D01*
X151706833Y-124921838D01*
X151363057Y-125063883D01*
X151099808Y-125326673D01*
X150957162Y-125670201D01*
X150956838Y-126042167D01*
X151098883Y-126385943D01*
X151361673Y-126649192D01*
X151705201Y-126791838D01*
X152077167Y-126792162D01*
X152420943Y-126650117D01*
X152684192Y-126387327D01*
X152826838Y-126043799D01*
X152826910Y-125961537D01*
X153218707Y-125569740D01*
X153623300Y-125569740D01*
X153858617Y-125525462D01*
X153973278Y-125451680D01*
X154071410Y-125518731D01*
X154323300Y-125569740D01*
X155123300Y-125569740D01*
X155338300Y-125529285D01*
X155338300Y-125999860D01*
X154873300Y-125999860D01*
X154637983Y-126044138D01*
X154421859Y-126183210D01*
X154276869Y-126395410D01*
X154225860Y-126647300D01*
X154225860Y-127162300D01*
X150591920Y-127162300D01*
X150575190Y-127150869D01*
X150323300Y-127099860D01*
X149423300Y-127099860D01*
X149187983Y-127144138D01*
X148971859Y-127283210D01*
X148964692Y-127293699D01*
X148725765Y-127054355D01*
X148308756Y-126881197D01*
X147986362Y-126880916D01*
X147585723Y-126480277D01*
X147347272Y-126320949D01*
X147066000Y-126265000D01*
X145240419Y-126265000D01*
X145183327Y-126207808D01*
X144839799Y-126065162D01*
X144467833Y-126064838D01*
X144124057Y-126206883D01*
X143860808Y-126469673D01*
X143718162Y-126813201D01*
X143717838Y-127185167D01*
X143859883Y-127528943D01*
X144122673Y-127792192D01*
X144466201Y-127934838D01*
X144838167Y-127935162D01*
X145175860Y-127795630D01*
X145175860Y-128247300D01*
X145220138Y-128482617D01*
X145359210Y-128698741D01*
X145429011Y-128746434D01*
X145371859Y-128783210D01*
X145226869Y-128995410D01*
X145175860Y-129247300D01*
X145175860Y-129747300D01*
X145220138Y-129982617D01*
X145359210Y-130198741D01*
X145431632Y-130248225D01*
X145221859Y-130383210D01*
X145076869Y-130595410D01*
X145025860Y-130847300D01*
X145025860Y-132047300D01*
X145070138Y-132282617D01*
X145209210Y-132498741D01*
X145279011Y-132546434D01*
X145221859Y-132583210D01*
X145076869Y-132795410D01*
X145025860Y-133047300D01*
X145025860Y-133842694D01*
X144675646Y-134192908D01*
X144594833Y-134192838D01*
X144251057Y-134334883D01*
X143987808Y-134597673D01*
X143845162Y-134941201D01*
X143844838Y-135313167D01*
X143986883Y-135656943D01*
X144249673Y-135920192D01*
X144593201Y-136062838D01*
X144965167Y-136063162D01*
X145308943Y-135921117D01*
X145572192Y-135658327D01*
X145714838Y-135314799D01*
X145714910Y-135232536D01*
X146052706Y-134894740D01*
X146615413Y-134894740D01*
X141694877Y-139815277D01*
X141535549Y-140053728D01*
X141479600Y-140335000D01*
X141479600Y-142976600D01*
X141506193Y-143110290D01*
X141535549Y-143257872D01*
X141694877Y-143496323D01*
X143126677Y-144928123D01*
X143365128Y-145087451D01*
X143646400Y-145143400D01*
X144598708Y-145143400D01*
X144705810Y-145309841D01*
X144918010Y-145454831D01*
X145169900Y-145505840D01*
X145969900Y-145505840D01*
X146205217Y-145461562D01*
X146421341Y-145322490D01*
X146520533Y-145177317D01*
X146605810Y-145309841D01*
X146684158Y-145363374D01*
X146654808Y-145392673D01*
X146512162Y-145736201D01*
X146511838Y-146108167D01*
X146653883Y-146451943D01*
X146916673Y-146715192D01*
X147260201Y-146857838D01*
X147632167Y-146858162D01*
X147975943Y-146716117D01*
X148239192Y-146453327D01*
X148381838Y-146109799D01*
X148382162Y-145737833D01*
X148240117Y-145394057D01*
X148228386Y-145382305D01*
X148321341Y-145322490D01*
X148466331Y-145110290D01*
X148517340Y-144858400D01*
X148517340Y-143958400D01*
X148473062Y-143723083D01*
X148333990Y-143506959D01*
X148121790Y-143361969D01*
X147869900Y-143310960D01*
X147379219Y-143310960D01*
X147493708Y-143143400D01*
X154092754Y-143143400D01*
X154202314Y-143252960D01*
X151873900Y-143252960D01*
X151638583Y-143297238D01*
X151422459Y-143436310D01*
X151277469Y-143648510D01*
X151226460Y-143900400D01*
X151226460Y-144900400D01*
X151270738Y-145135717D01*
X151409810Y-145351841D01*
X151622010Y-145496831D01*
X151873900Y-145547840D01*
X152305377Y-145547840D01*
X152227162Y-145736201D01*
X152226838Y-146108167D01*
X152368883Y-146451943D01*
X152631673Y-146715192D01*
X152975201Y-146857838D01*
X153347167Y-146858162D01*
X153690943Y-146716117D01*
X153954192Y-146453327D01*
X154096838Y-146109799D01*
X154097162Y-145737833D01*
X154018659Y-145547840D01*
X154373900Y-145547840D01*
X154609217Y-145503562D01*
X154789200Y-145387746D01*
X154789200Y-146888200D01*
X154808063Y-146983028D01*
X154845149Y-147169472D01*
X155004477Y-147407923D01*
X155258476Y-147661923D01*
X155441212Y-147784023D01*
X155496928Y-147821251D01*
X155778200Y-147877200D01*
X162687000Y-147877200D01*
X162941000Y-147826676D01*
X162941000Y-148717000D01*
X139827000Y-148717000D01*
X139827000Y-137707463D01*
X140148201Y-137840838D01*
X140520167Y-137841162D01*
X140863943Y-137699117D01*
X141127192Y-137436327D01*
X141269838Y-137092799D01*
X141269910Y-137010537D01*
X141810407Y-136470040D01*
X143029000Y-136470040D01*
X143264317Y-136425762D01*
X143480441Y-136286690D01*
X143625431Y-136074490D01*
X143676440Y-135822600D01*
X143676440Y-134932600D01*
X143632162Y-134697283D01*
X143493090Y-134481159D01*
X143280890Y-134336169D01*
X143029000Y-134285160D01*
X140589000Y-134285160D01*
X140353683Y-134329438D01*
X140137559Y-134468510D01*
X139992569Y-134680710D01*
X139941560Y-134932600D01*
X139941560Y-135822600D01*
X139982465Y-136039993D01*
X139827000Y-136104230D01*
X139827000Y-107426000D01*
X147962560Y-107426000D01*
X147962560Y-108426000D01*
X148006838Y-108661317D01*
X148145910Y-108877441D01*
X148358110Y-109022431D01*
X148610000Y-109073440D01*
X149066659Y-109073440D01*
X148925162Y-109414201D01*
X148924838Y-109786167D01*
X149066883Y-110129943D01*
X149329673Y-110393192D01*
X149673201Y-110535838D01*
X150045167Y-110536162D01*
X150388943Y-110394117D01*
X150652192Y-110131327D01*
X150794838Y-109787799D01*
X150795162Y-109415833D01*
X150653688Y-109073440D01*
X151110000Y-109073440D01*
X151345317Y-109029162D01*
X151561441Y-108890090D01*
X151706431Y-108677890D01*
X151757440Y-108426000D01*
X151757440Y-107426000D01*
X151713162Y-107190683D01*
X151574090Y-106974559D01*
X151361890Y-106829569D01*
X151110000Y-106778560D01*
X148610000Y-106778560D01*
X148374683Y-106822838D01*
X148158559Y-106961910D01*
X148013569Y-107174110D01*
X147962560Y-107426000D01*
X139827000Y-107426000D01*
X139827000Y-99949000D01*
X170815000Y-99949000D01*
X170815000Y-134493000D01*
X170815000Y-134493000D01*
G37*
X170815000Y-134493000D02*
X163068000Y-134493000D01*
X163018590Y-134503006D01*
X162976965Y-134531447D01*
X162949685Y-134573841D01*
X162941000Y-134620000D01*
X162941000Y-144699415D01*
X162922349Y-144727328D01*
X162866400Y-145008600D01*
X162866400Y-145923353D01*
X162382554Y-146407200D01*
X156259200Y-146407200D01*
X156259200Y-143535400D01*
X156203251Y-143254128D01*
X156129265Y-143143400D01*
X156043924Y-143015677D01*
X154916923Y-141888677D01*
X154678472Y-141729349D01*
X154397200Y-141673400D01*
X147491092Y-141673400D01*
X147383990Y-141506959D01*
X147254900Y-141418756D01*
X147254900Y-140411344D01*
X147466510Y-140555931D01*
X147718400Y-140606940D01*
X148218400Y-140606940D01*
X148453717Y-140562662D01*
X148669841Y-140423590D01*
X148723881Y-140344500D01*
X149390100Y-140344500D01*
X149709641Y-140280939D01*
X149980534Y-140099934D01*
X152314068Y-137766400D01*
X159435800Y-137766400D01*
X159755341Y-137702839D01*
X160026234Y-137521834D01*
X162007434Y-135540634D01*
X162095207Y-135409272D01*
X162188439Y-135269741D01*
X162252000Y-134950200D01*
X162252000Y-129311400D01*
X162233029Y-129216028D01*
X162188440Y-128991860D01*
X162007434Y-128720966D01*
X160343334Y-127056866D01*
X160258228Y-127000000D01*
X160072441Y-126875861D01*
X159752900Y-126812300D01*
X158120740Y-126812300D01*
X158120740Y-126647300D01*
X158076462Y-126411983D01*
X157937390Y-126195859D01*
X157725190Y-126050869D01*
X157473300Y-125999860D01*
X157008300Y-125999860D01*
X157008300Y-120647300D01*
X156944740Y-120327760D01*
X156763734Y-120056866D01*
X155763734Y-119056866D01*
X155674587Y-118997300D01*
X155492841Y-118875861D01*
X155173300Y-118812300D01*
X154670740Y-118812300D01*
X154670740Y-118697300D01*
X154626462Y-118461983D01*
X154519541Y-118295823D01*
X154619731Y-118149190D01*
X154670740Y-117897300D01*
X154670740Y-117547300D01*
X157675860Y-117547300D01*
X157675860Y-121347300D01*
X157720138Y-121582617D01*
X157859210Y-121798741D01*
X158071410Y-121943731D01*
X158323300Y-121994740D01*
X160323300Y-121994740D01*
X160558617Y-121950462D01*
X160774741Y-121811390D01*
X160919731Y-121599190D01*
X160970740Y-121347300D01*
X160970740Y-117547300D01*
X160926462Y-117311983D01*
X160787390Y-117095859D01*
X160575190Y-116950869D01*
X160323300Y-116899860D01*
X158323300Y-116899860D01*
X158087983Y-116944138D01*
X157871859Y-117083210D01*
X157726869Y-117295410D01*
X157675860Y-117547300D01*
X154670740Y-117547300D01*
X154670740Y-116397300D01*
X154626462Y-116161983D01*
X154487390Y-115945859D01*
X154275190Y-115800869D01*
X154023300Y-115749860D01*
X152023300Y-115749860D01*
X151787983Y-115794138D01*
X151571859Y-115933210D01*
X151426869Y-116145410D01*
X151375860Y-116397300D01*
X151375860Y-116762300D01*
X151038275Y-116762300D01*
X150875190Y-116650869D01*
X150623300Y-116599860D01*
X149723300Y-116599860D01*
X149487983Y-116644138D01*
X149382056Y-116712300D01*
X147873300Y-116712300D01*
X147592028Y-116768249D01*
X147353576Y-116927577D01*
X146453577Y-117827577D01*
X146294249Y-118066028D01*
X146238300Y-118347300D01*
X146238300Y-121076108D01*
X146071859Y-121183210D01*
X145926869Y-121395410D01*
X145875860Y-121647300D01*
X145875860Y-121860963D01*
X145601799Y-121747162D01*
X145229833Y-121746838D01*
X144886057Y-121888883D01*
X144622808Y-122151673D01*
X144480162Y-122495201D01*
X144479838Y-122867167D01*
X144621883Y-123210943D01*
X144884673Y-123474192D01*
X145228201Y-123616838D01*
X145310463Y-123616910D01*
X145610577Y-123917024D01*
X145849028Y-124076351D01*
X146099301Y-124126134D01*
X146271410Y-124243731D01*
X146523300Y-124294740D01*
X147423300Y-124294740D01*
X147658617Y-124250462D01*
X147874741Y-124111390D01*
X148019731Y-123899190D01*
X148070740Y-123647300D01*
X148070740Y-123147300D01*
X148042516Y-122997300D01*
X149350860Y-122997300D01*
X149350860Y-123797300D01*
X149395138Y-124032617D01*
X149534210Y-124248741D01*
X149545567Y-124256501D01*
X149433162Y-124527201D01*
X149432838Y-124899167D01*
X149574883Y-125242943D01*
X149837673Y-125506192D01*
X150181201Y-125648838D01*
X150553167Y-125649162D01*
X150896943Y-125507117D01*
X151160192Y-125244327D01*
X151302838Y-124900799D01*
X151303162Y-124528833D01*
X151194145Y-124264991D01*
X151199741Y-124261390D01*
X151344731Y-124049190D01*
X151395740Y-123797300D01*
X151395740Y-122997300D01*
X151351462Y-122761983D01*
X151212390Y-122545859D01*
X151000190Y-122400869D01*
X150748300Y-122349860D01*
X149998300Y-122349860D01*
X149762983Y-122394138D01*
X149546859Y-122533210D01*
X149401869Y-122745410D01*
X149350860Y-122997300D01*
X148042516Y-122997300D01*
X148026462Y-122911983D01*
X147887390Y-122695859D01*
X147817589Y-122648166D01*
X147874741Y-122611390D01*
X148019731Y-122399190D01*
X148070740Y-122147300D01*
X148070740Y-121647300D01*
X148026462Y-121411983D01*
X147887390Y-121195859D01*
X147708300Y-121073492D01*
X147708300Y-118651746D01*
X148177747Y-118182300D01*
X149248631Y-118182300D01*
X149259210Y-118198741D01*
X149329011Y-118246434D01*
X149271859Y-118283210D01*
X149126869Y-118495410D01*
X149075860Y-118747300D01*
X149075860Y-119247300D01*
X149120138Y-119482617D01*
X149259210Y-119698741D01*
X149471410Y-119843731D01*
X149723300Y-119894740D01*
X150623300Y-119894740D01*
X150858617Y-119850462D01*
X151042246Y-119732300D01*
X151375860Y-119732300D01*
X151375860Y-120197300D01*
X151420138Y-120432617D01*
X151559210Y-120648741D01*
X151771410Y-120793731D01*
X152023300Y-120844740D01*
X154023300Y-120844740D01*
X154258617Y-120800462D01*
X154474741Y-120661390D01*
X154597108Y-120482300D01*
X154827432Y-120482300D01*
X155338300Y-120993168D01*
X155338300Y-123568399D01*
X155123300Y-123524860D01*
X154323300Y-123524860D01*
X154087983Y-123569138D01*
X153973322Y-123642920D01*
X153875190Y-123575869D01*
X153623300Y-123524860D01*
X152823300Y-123524860D01*
X152587983Y-123569138D01*
X152371859Y-123708210D01*
X152226869Y-123920410D01*
X152175860Y-124172300D01*
X152175860Y-124533693D01*
X151787645Y-124921908D01*
X151706833Y-124921838D01*
X151363057Y-125063883D01*
X151099808Y-125326673D01*
X150957162Y-125670201D01*
X150956838Y-126042167D01*
X151098883Y-126385943D01*
X151361673Y-126649192D01*
X151705201Y-126791838D01*
X152077167Y-126792162D01*
X152420943Y-126650117D01*
X152684192Y-126387327D01*
X152826838Y-126043799D01*
X152826910Y-125961537D01*
X153218707Y-125569740D01*
X153623300Y-125569740D01*
X153858617Y-125525462D01*
X153973278Y-125451680D01*
X154071410Y-125518731D01*
X154323300Y-125569740D01*
X155123300Y-125569740D01*
X155338300Y-125529285D01*
X155338300Y-125999860D01*
X154873300Y-125999860D01*
X154637983Y-126044138D01*
X154421859Y-126183210D01*
X154276869Y-126395410D01*
X154225860Y-126647300D01*
X154225860Y-127162300D01*
X150591920Y-127162300D01*
X150575190Y-127150869D01*
X150323300Y-127099860D01*
X149423300Y-127099860D01*
X149187983Y-127144138D01*
X148971859Y-127283210D01*
X148964692Y-127293699D01*
X148725765Y-127054355D01*
X148308756Y-126881197D01*
X147986362Y-126880916D01*
X147585723Y-126480277D01*
X147347272Y-126320949D01*
X147066000Y-126265000D01*
X145240419Y-126265000D01*
X145183327Y-126207808D01*
X144839799Y-126065162D01*
X144467833Y-126064838D01*
X144124057Y-126206883D01*
X143860808Y-126469673D01*
X143718162Y-126813201D01*
X143717838Y-127185167D01*
X143859883Y-127528943D01*
X144122673Y-127792192D01*
X144466201Y-127934838D01*
X144838167Y-127935162D01*
X145175860Y-127795630D01*
X145175860Y-128247300D01*
X145220138Y-128482617D01*
X145359210Y-128698741D01*
X145429011Y-128746434D01*
X145371859Y-128783210D01*
X145226869Y-128995410D01*
X145175860Y-129247300D01*
X145175860Y-129747300D01*
X145220138Y-129982617D01*
X145359210Y-130198741D01*
X145431632Y-130248225D01*
X145221859Y-130383210D01*
X145076869Y-130595410D01*
X145025860Y-130847300D01*
X145025860Y-132047300D01*
X145070138Y-132282617D01*
X145209210Y-132498741D01*
X145279011Y-132546434D01*
X145221859Y-132583210D01*
X145076869Y-132795410D01*
X145025860Y-133047300D01*
X145025860Y-133842694D01*
X144675646Y-134192908D01*
X144594833Y-134192838D01*
X144251057Y-134334883D01*
X143987808Y-134597673D01*
X143845162Y-134941201D01*
X143844838Y-135313167D01*
X143986883Y-135656943D01*
X144249673Y-135920192D01*
X144593201Y-136062838D01*
X144965167Y-136063162D01*
X145308943Y-135921117D01*
X145572192Y-135658327D01*
X145714838Y-135314799D01*
X145714910Y-135232536D01*
X146052706Y-134894740D01*
X146615413Y-134894740D01*
X141694877Y-139815277D01*
X141535549Y-140053728D01*
X141479600Y-140335000D01*
X141479600Y-142976600D01*
X141506193Y-143110290D01*
X141535549Y-143257872D01*
X141694877Y-143496323D01*
X143126677Y-144928123D01*
X143365128Y-145087451D01*
X143646400Y-145143400D01*
X144598708Y-145143400D01*
X144705810Y-145309841D01*
X144918010Y-145454831D01*
X145169900Y-145505840D01*
X145969900Y-145505840D01*
X146205217Y-145461562D01*
X146421341Y-145322490D01*
X146520533Y-145177317D01*
X146605810Y-145309841D01*
X146684158Y-145363374D01*
X146654808Y-145392673D01*
X146512162Y-145736201D01*
X146511838Y-146108167D01*
X146653883Y-146451943D01*
X146916673Y-146715192D01*
X147260201Y-146857838D01*
X147632167Y-146858162D01*
X147975943Y-146716117D01*
X148239192Y-146453327D01*
X148381838Y-146109799D01*
X148382162Y-145737833D01*
X148240117Y-145394057D01*
X148228386Y-145382305D01*
X148321341Y-145322490D01*
X148466331Y-145110290D01*
X148517340Y-144858400D01*
X148517340Y-143958400D01*
X148473062Y-143723083D01*
X148333990Y-143506959D01*
X148121790Y-143361969D01*
X147869900Y-143310960D01*
X147379219Y-143310960D01*
X147493708Y-143143400D01*
X154092754Y-143143400D01*
X154202314Y-143252960D01*
X151873900Y-143252960D01*
X151638583Y-143297238D01*
X151422459Y-143436310D01*
X151277469Y-143648510D01*
X151226460Y-143900400D01*
X151226460Y-144900400D01*
X151270738Y-145135717D01*
X151409810Y-145351841D01*
X151622010Y-145496831D01*
X151873900Y-145547840D01*
X152305377Y-145547840D01*
X152227162Y-145736201D01*
X152226838Y-146108167D01*
X152368883Y-146451943D01*
X152631673Y-146715192D01*
X152975201Y-146857838D01*
X153347167Y-146858162D01*
X153690943Y-146716117D01*
X153954192Y-146453327D01*
X154096838Y-146109799D01*
X154097162Y-145737833D01*
X154018659Y-145547840D01*
X154373900Y-145547840D01*
X154609217Y-145503562D01*
X154789200Y-145387746D01*
X154789200Y-146888200D01*
X154808063Y-146983028D01*
X154845149Y-147169472D01*
X155004477Y-147407923D01*
X155258476Y-147661923D01*
X155441212Y-147784023D01*
X155496928Y-147821251D01*
X155778200Y-147877200D01*
X162687000Y-147877200D01*
X162941000Y-147826676D01*
X162941000Y-148717000D01*
X139827000Y-148717000D01*
X139827000Y-137707463D01*
X140148201Y-137840838D01*
X140520167Y-137841162D01*
X140863943Y-137699117D01*
X141127192Y-137436327D01*
X141269838Y-137092799D01*
X141269910Y-137010537D01*
X141810407Y-136470040D01*
X143029000Y-136470040D01*
X143264317Y-136425762D01*
X143480441Y-136286690D01*
X143625431Y-136074490D01*
X143676440Y-135822600D01*
X143676440Y-134932600D01*
X143632162Y-134697283D01*
X143493090Y-134481159D01*
X143280890Y-134336169D01*
X143029000Y-134285160D01*
X140589000Y-134285160D01*
X140353683Y-134329438D01*
X140137559Y-134468510D01*
X139992569Y-134680710D01*
X139941560Y-134932600D01*
X139941560Y-135822600D01*
X139982465Y-136039993D01*
X139827000Y-136104230D01*
X139827000Y-107426000D01*
X147962560Y-107426000D01*
X147962560Y-108426000D01*
X148006838Y-108661317D01*
X148145910Y-108877441D01*
X148358110Y-109022431D01*
X148610000Y-109073440D01*
X149066659Y-109073440D01*
X148925162Y-109414201D01*
X148924838Y-109786167D01*
X149066883Y-110129943D01*
X149329673Y-110393192D01*
X149673201Y-110535838D01*
X150045167Y-110536162D01*
X150388943Y-110394117D01*
X150652192Y-110131327D01*
X150794838Y-109787799D01*
X150795162Y-109415833D01*
X150653688Y-109073440D01*
X151110000Y-109073440D01*
X151345317Y-109029162D01*
X151561441Y-108890090D01*
X151706431Y-108677890D01*
X151757440Y-108426000D01*
X151757440Y-107426000D01*
X151713162Y-107190683D01*
X151574090Y-106974559D01*
X151361890Y-106829569D01*
X151110000Y-106778560D01*
X148610000Y-106778560D01*
X148374683Y-106822838D01*
X148158559Y-106961910D01*
X148013569Y-107174110D01*
X147962560Y-107426000D01*
X139827000Y-107426000D01*
X139827000Y-99949000D01*
X170815000Y-99949000D01*
X170815000Y-134493000D01*
G36*
X208915000Y-126365000D02*
X192151000Y-126365000D01*
X192151000Y-122413011D01*
X201366648Y-122413011D01*
X201675805Y-123161229D01*
X202247760Y-123734183D01*
X202995438Y-124044646D01*
X203805011Y-124045352D01*
X204553229Y-123736195D01*
X205126183Y-123164240D01*
X205436646Y-122416562D01*
X205437352Y-121606989D01*
X205128195Y-120858771D01*
X204556240Y-120285817D01*
X203808562Y-119975354D01*
X202998989Y-119974648D01*
X202250771Y-120283805D01*
X201677817Y-120855760D01*
X201367354Y-121603438D01*
X201366648Y-122413011D01*
X192151000Y-122413011D01*
X192151000Y-114413011D01*
X201366648Y-114413011D01*
X201675805Y-115161229D01*
X202247760Y-115734183D01*
X202995438Y-116044646D01*
X203805011Y-116045352D01*
X204553229Y-115736195D01*
X205126183Y-115164240D01*
X205436646Y-114416562D01*
X205437352Y-113606989D01*
X205128195Y-112858771D01*
X204556240Y-112285817D01*
X203808562Y-111975354D01*
X202998989Y-111974648D01*
X202250771Y-112283805D01*
X201677817Y-112855760D01*
X201367354Y-113603438D01*
X201366648Y-114413011D01*
X192151000Y-114413011D01*
X192151000Y-106413011D01*
X201366648Y-106413011D01*
X201675805Y-107161229D01*
X202247760Y-107734183D01*
X202995438Y-108044646D01*
X203805011Y-108045352D01*
X204553229Y-107736195D01*
X205126183Y-107164240D01*
X205436646Y-106416562D01*
X205437352Y-105606989D01*
X205128195Y-104858771D01*
X204556240Y-104285817D01*
X203808562Y-103975354D01*
X202998989Y-103974648D01*
X202250771Y-104283805D01*
X201677817Y-104855760D01*
X201367354Y-105603438D01*
X201366648Y-106413011D01*
X192151000Y-106413011D01*
X192151000Y-99060000D01*
X192140994Y-99010590D01*
X192112553Y-98968965D01*
X192070159Y-98941685D01*
X192024000Y-98933000D01*
X148463000Y-98933000D01*
X148463000Y-98413011D01*
X201366648Y-98413011D01*
X201675805Y-99161229D01*
X202247760Y-99734183D01*
X202995438Y-100044646D01*
X203805011Y-100045352D01*
X204553229Y-99736195D01*
X205126183Y-99164240D01*
X205436646Y-98416562D01*
X205437352Y-97606989D01*
X205128195Y-96858771D01*
X204556240Y-96285817D01*
X203808562Y-95975354D01*
X202998989Y-95974648D01*
X202250771Y-96283805D01*
X201677817Y-96855760D01*
X201367354Y-97603438D01*
X201366648Y-98413011D01*
X148463000Y-98413011D01*
X148463000Y-92148011D01*
X156773648Y-92148011D01*
X157082805Y-92896229D01*
X157654760Y-93469183D01*
X158402438Y-93779646D01*
X159212011Y-93780352D01*
X159960229Y-93471195D01*
X160533183Y-92899240D01*
X160843646Y-92151562D01*
X160844352Y-91341989D01*
X160535195Y-90593771D01*
X160354751Y-90413011D01*
X201366648Y-90413011D01*
X201675805Y-91161229D01*
X202247760Y-91734183D01*
X202995438Y-92044646D01*
X203805011Y-92045352D01*
X204553229Y-91736195D01*
X205126183Y-91164240D01*
X205436646Y-90416562D01*
X205437352Y-89606989D01*
X205128195Y-88858771D01*
X204556240Y-88285817D01*
X203808562Y-87975354D01*
X202998989Y-87974648D01*
X202250771Y-88283805D01*
X201677817Y-88855760D01*
X201367354Y-89603438D01*
X201366648Y-90413011D01*
X160354751Y-90413011D01*
X159963240Y-90020817D01*
X159215562Y-89710354D01*
X158405989Y-89709648D01*
X157657771Y-90018805D01*
X157084817Y-90590760D01*
X156774354Y-91338438D01*
X156773648Y-92148011D01*
X148463000Y-92148011D01*
X148463000Y-84148011D01*
X156773648Y-84148011D01*
X157082805Y-84896229D01*
X157654760Y-85469183D01*
X158402438Y-85779646D01*
X159212011Y-85780352D01*
X159960229Y-85471195D01*
X160533183Y-84899240D01*
X160843646Y-84151562D01*
X160844352Y-83341989D01*
X160535195Y-82593771D01*
X160354751Y-82413011D01*
X201366648Y-82413011D01*
X201675805Y-83161229D01*
X202247760Y-83734183D01*
X202995438Y-84044646D01*
X203805011Y-84045352D01*
X204553229Y-83736195D01*
X205126183Y-83164240D01*
X205436646Y-82416562D01*
X205437352Y-81606989D01*
X205128195Y-80858771D01*
X204556240Y-80285817D01*
X203808562Y-79975354D01*
X202998989Y-79974648D01*
X202250771Y-80283805D01*
X201677817Y-80855760D01*
X201367354Y-81603438D01*
X201366648Y-82413011D01*
X160354751Y-82413011D01*
X159963240Y-82020817D01*
X159215562Y-81710354D01*
X158405989Y-81709648D01*
X157657771Y-82018805D01*
X157084817Y-82590760D01*
X156774354Y-83338438D01*
X156773648Y-84148011D01*
X148463000Y-84148011D01*
X148463000Y-76148011D01*
X156773648Y-76148011D01*
X157082805Y-76896229D01*
X157654760Y-77469183D01*
X158402438Y-77779646D01*
X159212011Y-77780352D01*
X159960229Y-77471195D01*
X160533183Y-76899240D01*
X160719096Y-76451510D01*
X176021780Y-76451510D01*
X176214718Y-76918458D01*
X176571663Y-77276026D01*
X177038273Y-77469779D01*
X177543510Y-77470220D01*
X178010458Y-77277282D01*
X178368026Y-76920337D01*
X178561779Y-76453727D01*
X178561780Y-76451510D01*
X179831780Y-76451510D01*
X180024718Y-76918458D01*
X180381663Y-77276026D01*
X180848273Y-77469779D01*
X181353510Y-77470220D01*
X181820458Y-77277282D01*
X182178026Y-76920337D01*
X182371779Y-76453727D01*
X182372220Y-75948490D01*
X182179282Y-75481542D01*
X181822337Y-75123974D01*
X181355727Y-74930221D01*
X180850490Y-74929780D01*
X180383542Y-75122718D01*
X180025974Y-75479663D01*
X179832221Y-75946273D01*
X179831780Y-76451510D01*
X178561780Y-76451510D01*
X178562220Y-75948490D01*
X178369282Y-75481542D01*
X178012337Y-75123974D01*
X177545727Y-74930221D01*
X177040490Y-74929780D01*
X176573542Y-75122718D01*
X176215974Y-75479663D01*
X176022221Y-75946273D01*
X176021780Y-76451510D01*
X160719096Y-76451510D01*
X160843646Y-76151562D01*
X160844352Y-75341989D01*
X160535195Y-74593771D01*
X159963240Y-74020817D01*
X159215562Y-73710354D01*
X158405989Y-73709648D01*
X157657771Y-74018805D01*
X157084817Y-74590760D01*
X156774354Y-75338438D01*
X156773648Y-76148011D01*
X148463000Y-76148011D01*
X148463000Y-68148011D01*
X156773648Y-68148011D01*
X157082805Y-68896229D01*
X157654760Y-69469183D01*
X158402438Y-69779646D01*
X159212011Y-69780352D01*
X159960229Y-69471195D01*
X160533183Y-68899240D01*
X160843646Y-68151562D01*
X160844329Y-67368000D01*
X173969560Y-67368000D01*
X173969560Y-68268000D01*
X174013838Y-68503317D01*
X174152910Y-68719441D01*
X174365110Y-68864431D01*
X174617000Y-68915440D01*
X175117000Y-68915440D01*
X175352317Y-68871162D01*
X175568441Y-68732090D01*
X175690808Y-68553000D01*
X181446962Y-68553000D01*
X181465838Y-68653317D01*
X181604910Y-68869441D01*
X181817110Y-69014431D01*
X182069000Y-69065440D01*
X183269000Y-69065440D01*
X183504317Y-69021162D01*
X183720441Y-68882090D01*
X183768134Y-68812289D01*
X183804910Y-68869441D01*
X184017110Y-69014431D01*
X184134000Y-69038102D01*
X184134000Y-74790261D01*
X184006857Y-74842795D01*
X183556377Y-75292489D01*
X183312278Y-75880344D01*
X183311723Y-76516863D01*
X183554795Y-77105143D01*
X184004489Y-77555623D01*
X184592344Y-77799722D01*
X185228863Y-77800277D01*
X185817143Y-77557205D01*
X186267623Y-77107511D01*
X186511722Y-76519656D01*
X186512277Y-75883137D01*
X186269205Y-75294857D01*
X185819511Y-74844377D01*
X185604000Y-74754889D01*
X185604000Y-69040038D01*
X185704317Y-69021162D01*
X185920441Y-68882090D01*
X186065431Y-68669890D01*
X186116440Y-68418000D01*
X186116440Y-67218000D01*
X186072162Y-66982683D01*
X185933090Y-66766559D01*
X185720890Y-66621569D01*
X185469000Y-66570560D01*
X184269000Y-66570560D01*
X184033683Y-66614838D01*
X183817559Y-66753910D01*
X183769866Y-66823711D01*
X183733090Y-66766559D01*
X183520890Y-66621569D01*
X183269000Y-66570560D01*
X182069000Y-66570560D01*
X181833683Y-66614838D01*
X181617559Y-66753910D01*
X181472569Y-66966110D01*
X181448898Y-67083000D01*
X175688192Y-67083000D01*
X175581090Y-66916559D01*
X175368890Y-66771569D01*
X175117000Y-66720560D01*
X174617000Y-66720560D01*
X174381683Y-66764838D01*
X174165559Y-66903910D01*
X174020569Y-67116110D01*
X173969560Y-67368000D01*
X160844329Y-67368000D01*
X160844352Y-67341989D01*
X160535195Y-66593771D01*
X159963240Y-66020817D01*
X159215562Y-65710354D01*
X158405989Y-65709648D01*
X157657771Y-66018805D01*
X157084817Y-66590760D01*
X156774354Y-67338438D01*
X156773648Y-68148011D01*
X148463000Y-68148011D01*
X148463000Y-61087000D01*
X208915000Y-61087000D01*
X208915000Y-126365000D01*
X208915000Y-126365000D01*
G37*
X208915000Y-126365000D02*
X192151000Y-126365000D01*
X192151000Y-122413011D01*
X201366648Y-122413011D01*
X201675805Y-123161229D01*
X202247760Y-123734183D01*
X202995438Y-124044646D01*
X203805011Y-124045352D01*
X204553229Y-123736195D01*
X205126183Y-123164240D01*
X205436646Y-122416562D01*
X205437352Y-121606989D01*
X205128195Y-120858771D01*
X204556240Y-120285817D01*
X203808562Y-119975354D01*
X202998989Y-119974648D01*
X202250771Y-120283805D01*
X201677817Y-120855760D01*
X201367354Y-121603438D01*
X201366648Y-122413011D01*
X192151000Y-122413011D01*
X192151000Y-114413011D01*
X201366648Y-114413011D01*
X201675805Y-115161229D01*
X202247760Y-115734183D01*
X202995438Y-116044646D01*
X203805011Y-116045352D01*
X204553229Y-115736195D01*
X205126183Y-115164240D01*
X205436646Y-114416562D01*
X205437352Y-113606989D01*
X205128195Y-112858771D01*
X204556240Y-112285817D01*
X203808562Y-111975354D01*
X202998989Y-111974648D01*
X202250771Y-112283805D01*
X201677817Y-112855760D01*
X201367354Y-113603438D01*
X201366648Y-114413011D01*
X192151000Y-114413011D01*
X192151000Y-106413011D01*
X201366648Y-106413011D01*
X201675805Y-107161229D01*
X202247760Y-107734183D01*
X202995438Y-108044646D01*
X203805011Y-108045352D01*
X204553229Y-107736195D01*
X205126183Y-107164240D01*
X205436646Y-106416562D01*
X205437352Y-105606989D01*
X205128195Y-104858771D01*
X204556240Y-104285817D01*
X203808562Y-103975354D01*
X202998989Y-103974648D01*
X202250771Y-104283805D01*
X201677817Y-104855760D01*
X201367354Y-105603438D01*
X201366648Y-106413011D01*
X192151000Y-106413011D01*
X192151000Y-99060000D01*
X192140994Y-99010590D01*
X192112553Y-98968965D01*
X192070159Y-98941685D01*
X192024000Y-98933000D01*
X148463000Y-98933000D01*
X148463000Y-98413011D01*
X201366648Y-98413011D01*
X201675805Y-99161229D01*
X202247760Y-99734183D01*
X202995438Y-100044646D01*
X203805011Y-100045352D01*
X204553229Y-99736195D01*
X205126183Y-99164240D01*
X205436646Y-98416562D01*
X205437352Y-97606989D01*
X205128195Y-96858771D01*
X204556240Y-96285817D01*
X203808562Y-95975354D01*
X202998989Y-95974648D01*
X202250771Y-96283805D01*
X201677817Y-96855760D01*
X201367354Y-97603438D01*
X201366648Y-98413011D01*
X148463000Y-98413011D01*
X148463000Y-92148011D01*
X156773648Y-92148011D01*
X157082805Y-92896229D01*
X157654760Y-93469183D01*
X158402438Y-93779646D01*
X159212011Y-93780352D01*
X159960229Y-93471195D01*
X160533183Y-92899240D01*
X160843646Y-92151562D01*
X160844352Y-91341989D01*
X160535195Y-90593771D01*
X160354751Y-90413011D01*
X201366648Y-90413011D01*
X201675805Y-91161229D01*
X202247760Y-91734183D01*
X202995438Y-92044646D01*
X203805011Y-92045352D01*
X204553229Y-91736195D01*
X205126183Y-91164240D01*
X205436646Y-90416562D01*
X205437352Y-89606989D01*
X205128195Y-88858771D01*
X204556240Y-88285817D01*
X203808562Y-87975354D01*
X202998989Y-87974648D01*
X202250771Y-88283805D01*
X201677817Y-88855760D01*
X201367354Y-89603438D01*
X201366648Y-90413011D01*
X160354751Y-90413011D01*
X159963240Y-90020817D01*
X159215562Y-89710354D01*
X158405989Y-89709648D01*
X157657771Y-90018805D01*
X157084817Y-90590760D01*
X156774354Y-91338438D01*
X156773648Y-92148011D01*
X148463000Y-92148011D01*
X148463000Y-84148011D01*
X156773648Y-84148011D01*
X157082805Y-84896229D01*
X157654760Y-85469183D01*
X158402438Y-85779646D01*
X159212011Y-85780352D01*
X159960229Y-85471195D01*
X160533183Y-84899240D01*
X160843646Y-84151562D01*
X160844352Y-83341989D01*
X160535195Y-82593771D01*
X160354751Y-82413011D01*
X201366648Y-82413011D01*
X201675805Y-83161229D01*
X202247760Y-83734183D01*
X202995438Y-84044646D01*
X203805011Y-84045352D01*
X204553229Y-83736195D01*
X205126183Y-83164240D01*
X205436646Y-82416562D01*
X205437352Y-81606989D01*
X205128195Y-80858771D01*
X204556240Y-80285817D01*
X203808562Y-79975354D01*
X202998989Y-79974648D01*
X202250771Y-80283805D01*
X201677817Y-80855760D01*
X201367354Y-81603438D01*
X201366648Y-82413011D01*
X160354751Y-82413011D01*
X159963240Y-82020817D01*
X159215562Y-81710354D01*
X158405989Y-81709648D01*
X157657771Y-82018805D01*
X157084817Y-82590760D01*
X156774354Y-83338438D01*
X156773648Y-84148011D01*
X148463000Y-84148011D01*
X148463000Y-76148011D01*
X156773648Y-76148011D01*
X157082805Y-76896229D01*
X157654760Y-77469183D01*
X158402438Y-77779646D01*
X159212011Y-77780352D01*
X159960229Y-77471195D01*
X160533183Y-76899240D01*
X160719096Y-76451510D01*
X176021780Y-76451510D01*
X176214718Y-76918458D01*
X176571663Y-77276026D01*
X177038273Y-77469779D01*
X177543510Y-77470220D01*
X178010458Y-77277282D01*
X178368026Y-76920337D01*
X178561779Y-76453727D01*
X178561780Y-76451510D01*
X179831780Y-76451510D01*
X180024718Y-76918458D01*
X180381663Y-77276026D01*
X180848273Y-77469779D01*
X181353510Y-77470220D01*
X181820458Y-77277282D01*
X182178026Y-76920337D01*
X182371779Y-76453727D01*
X182372220Y-75948490D01*
X182179282Y-75481542D01*
X181822337Y-75123974D01*
X181355727Y-74930221D01*
X180850490Y-74929780D01*
X180383542Y-75122718D01*
X180025974Y-75479663D01*
X179832221Y-75946273D01*
X179831780Y-76451510D01*
X178561780Y-76451510D01*
X178562220Y-75948490D01*
X178369282Y-75481542D01*
X178012337Y-75123974D01*
X177545727Y-74930221D01*
X177040490Y-74929780D01*
X176573542Y-75122718D01*
X176215974Y-75479663D01*
X176022221Y-75946273D01*
X176021780Y-76451510D01*
X160719096Y-76451510D01*
X160843646Y-76151562D01*
X160844352Y-75341989D01*
X160535195Y-74593771D01*
X159963240Y-74020817D01*
X159215562Y-73710354D01*
X158405989Y-73709648D01*
X157657771Y-74018805D01*
X157084817Y-74590760D01*
X156774354Y-75338438D01*
X156773648Y-76148011D01*
X148463000Y-76148011D01*
X148463000Y-68148011D01*
X156773648Y-68148011D01*
X157082805Y-68896229D01*
X157654760Y-69469183D01*
X158402438Y-69779646D01*
X159212011Y-69780352D01*
X159960229Y-69471195D01*
X160533183Y-68899240D01*
X160843646Y-68151562D01*
X160844329Y-67368000D01*
X173969560Y-67368000D01*
X173969560Y-68268000D01*
X174013838Y-68503317D01*
X174152910Y-68719441D01*
X174365110Y-68864431D01*
X174617000Y-68915440D01*
X175117000Y-68915440D01*
X175352317Y-68871162D01*
X175568441Y-68732090D01*
X175690808Y-68553000D01*
X181446962Y-68553000D01*
X181465838Y-68653317D01*
X181604910Y-68869441D01*
X181817110Y-69014431D01*
X182069000Y-69065440D01*
X183269000Y-69065440D01*
X183504317Y-69021162D01*
X183720441Y-68882090D01*
X183768134Y-68812289D01*
X183804910Y-68869441D01*
X184017110Y-69014431D01*
X184134000Y-69038102D01*
X184134000Y-74790261D01*
X184006857Y-74842795D01*
X183556377Y-75292489D01*
X183312278Y-75880344D01*
X183311723Y-76516863D01*
X183554795Y-77105143D01*
X184004489Y-77555623D01*
X184592344Y-77799722D01*
X185228863Y-77800277D01*
X185817143Y-77557205D01*
X186267623Y-77107511D01*
X186511722Y-76519656D01*
X186512277Y-75883137D01*
X186269205Y-75294857D01*
X185819511Y-74844377D01*
X185604000Y-74754889D01*
X185604000Y-69040038D01*
X185704317Y-69021162D01*
X185920441Y-68882090D01*
X186065431Y-68669890D01*
X186116440Y-68418000D01*
X186116440Y-67218000D01*
X186072162Y-66982683D01*
X185933090Y-66766559D01*
X185720890Y-66621569D01*
X185469000Y-66570560D01*
X184269000Y-66570560D01*
X184033683Y-66614838D01*
X183817559Y-66753910D01*
X183769866Y-66823711D01*
X183733090Y-66766559D01*
X183520890Y-66621569D01*
X183269000Y-66570560D01*
X182069000Y-66570560D01*
X181833683Y-66614838D01*
X181617559Y-66753910D01*
X181472569Y-66966110D01*
X181448898Y-67083000D01*
X175688192Y-67083000D01*
X175581090Y-66916559D01*
X175368890Y-66771569D01*
X175117000Y-66720560D01*
X174617000Y-66720560D01*
X174381683Y-66764838D01*
X174165559Y-66903910D01*
X174020569Y-67116110D01*
X173969560Y-67368000D01*
X160844329Y-67368000D01*
X160844352Y-67341989D01*
X160535195Y-66593771D01*
X159963240Y-66020817D01*
X159215562Y-65710354D01*
X158405989Y-65709648D01*
X157657771Y-66018805D01*
X157084817Y-66590760D01*
X156774354Y-67338438D01*
X156773648Y-68148011D01*
X148463000Y-68148011D01*
X148463000Y-61087000D01*
X208915000Y-61087000D01*
X208915000Y-126365000D01*
G36*
X147193000Y-81915000D02*
X105410000Y-81915000D01*
X105360590Y-81925006D01*
X105318965Y-81953447D01*
X105291685Y-81995841D01*
X105283000Y-82042000D01*
X105283000Y-109601000D01*
X81153000Y-109601000D01*
X81153000Y-88978000D01*
X83334560Y-88978000D01*
X83334560Y-90178000D01*
X83378838Y-90413317D01*
X83517910Y-90629441D01*
X83587711Y-90677134D01*
X83530559Y-90713910D01*
X83385569Y-90926110D01*
X83334560Y-91178000D01*
X83334560Y-92378000D01*
X83378838Y-92613317D01*
X83517910Y-92829441D01*
X83730110Y-92974431D01*
X83847000Y-92998102D01*
X83847000Y-98504808D01*
X83680559Y-98611910D01*
X83535569Y-98824110D01*
X83484560Y-99076000D01*
X83484560Y-99576000D01*
X83528838Y-99811317D01*
X83667910Y-100027441D01*
X83880110Y-100172431D01*
X84132000Y-100223440D01*
X85032000Y-100223440D01*
X85267317Y-100179162D01*
X85483441Y-100040090D01*
X85628431Y-99827890D01*
X85679440Y-99576000D01*
X85679440Y-99076000D01*
X85635162Y-98840683D01*
X85496090Y-98624559D01*
X85317000Y-98502192D01*
X85317000Y-97406510D01*
X91566780Y-97406510D01*
X91759718Y-97873458D01*
X92116663Y-98231026D01*
X92583273Y-98424779D01*
X93088510Y-98425220D01*
X93555458Y-98232282D01*
X93913026Y-97875337D01*
X94106779Y-97408727D01*
X94107220Y-96903490D01*
X93914282Y-96436542D01*
X93557337Y-96078974D01*
X93090727Y-95885221D01*
X92585490Y-95884780D01*
X92118542Y-96077718D01*
X91760974Y-96434663D01*
X91567221Y-96901273D01*
X91566780Y-97406510D01*
X85317000Y-97406510D01*
X85317000Y-93596510D01*
X91566780Y-93596510D01*
X91759718Y-94063458D01*
X92116663Y-94421026D01*
X92583273Y-94614779D01*
X93088510Y-94615220D01*
X93555458Y-94422282D01*
X93913026Y-94065337D01*
X94106779Y-93598727D01*
X94107220Y-93093490D01*
X93914282Y-92626542D01*
X93557337Y-92268974D01*
X93090727Y-92075221D01*
X92585490Y-92074780D01*
X92118542Y-92267718D01*
X91760974Y-92624663D01*
X91567221Y-93091273D01*
X91566780Y-93596510D01*
X85317000Y-93596510D01*
X85317000Y-93000038D01*
X85417317Y-92981162D01*
X85633441Y-92842090D01*
X85778431Y-92629890D01*
X85829440Y-92378000D01*
X85829440Y-91178000D01*
X85785162Y-90942683D01*
X85646090Y-90726559D01*
X85576289Y-90678866D01*
X85633441Y-90642090D01*
X85778431Y-90429890D01*
X85802102Y-90313000D01*
X91427261Y-90313000D01*
X91479795Y-90440143D01*
X91929489Y-90890623D01*
X92517344Y-91134722D01*
X93153863Y-91135277D01*
X93742143Y-90892205D01*
X94192623Y-90442511D01*
X94436722Y-89854656D01*
X94437277Y-89218137D01*
X94194205Y-88629857D01*
X93744511Y-88179377D01*
X93156656Y-87935278D01*
X92520137Y-87934723D01*
X91931857Y-88177795D01*
X91481377Y-88627489D01*
X91391889Y-88843000D01*
X85804038Y-88843000D01*
X85785162Y-88742683D01*
X85646090Y-88526559D01*
X85433890Y-88381569D01*
X85182000Y-88330560D01*
X83982000Y-88330560D01*
X83746683Y-88374838D01*
X83530559Y-88513910D01*
X83385569Y-88726110D01*
X83334560Y-88978000D01*
X81153000Y-88978000D01*
X81153000Y-70753011D01*
X94108648Y-70753011D01*
X94417805Y-71501229D01*
X94989760Y-72074183D01*
X95737438Y-72384646D01*
X96547011Y-72385352D01*
X97295229Y-72076195D01*
X97868183Y-71504240D01*
X98178646Y-70756562D01*
X98178649Y-70753011D01*
X102108648Y-70753011D01*
X102417805Y-71501229D01*
X102989760Y-72074183D01*
X103737438Y-72384646D01*
X104547011Y-72385352D01*
X105295229Y-72076195D01*
X105868183Y-71504240D01*
X106178646Y-70756562D01*
X106178649Y-70753011D01*
X110108648Y-70753011D01*
X110417805Y-71501229D01*
X110989760Y-72074183D01*
X111737438Y-72384646D01*
X112547011Y-72385352D01*
X113295229Y-72076195D01*
X113868183Y-71504240D01*
X114178646Y-70756562D01*
X114178649Y-70753011D01*
X118108648Y-70753011D01*
X118417805Y-71501229D01*
X118989760Y-72074183D01*
X119737438Y-72384646D01*
X120547011Y-72385352D01*
X121295229Y-72076195D01*
X121868183Y-71504240D01*
X122178646Y-70756562D01*
X122178649Y-70753011D01*
X126108648Y-70753011D01*
X126417805Y-71501229D01*
X126989760Y-72074183D01*
X127737438Y-72384646D01*
X128547011Y-72385352D01*
X129295229Y-72076195D01*
X129868183Y-71504240D01*
X130178646Y-70756562D01*
X130178649Y-70753011D01*
X134108648Y-70753011D01*
X134417805Y-71501229D01*
X134989760Y-72074183D01*
X135737438Y-72384646D01*
X136547011Y-72385352D01*
X137295229Y-72076195D01*
X137868183Y-71504240D01*
X138178646Y-70756562D01*
X138179352Y-69946989D01*
X137870195Y-69198771D01*
X137298240Y-68625817D01*
X136550562Y-68315354D01*
X135740989Y-68314648D01*
X134992771Y-68623805D01*
X134419817Y-69195760D01*
X134109354Y-69943438D01*
X134108648Y-70753011D01*
X130178649Y-70753011D01*
X130179352Y-69946989D01*
X129870195Y-69198771D01*
X129298240Y-68625817D01*
X128550562Y-68315354D01*
X127740989Y-68314648D01*
X126992771Y-68623805D01*
X126419817Y-69195760D01*
X126109354Y-69943438D01*
X126108648Y-70753011D01*
X122178649Y-70753011D01*
X122179352Y-69946989D01*
X121870195Y-69198771D01*
X121298240Y-68625817D01*
X120550562Y-68315354D01*
X119740989Y-68314648D01*
X118992771Y-68623805D01*
X118419817Y-69195760D01*
X118109354Y-69943438D01*
X118108648Y-70753011D01*
X114178649Y-70753011D01*
X114179352Y-69946989D01*
X113870195Y-69198771D01*
X113298240Y-68625817D01*
X112550562Y-68315354D01*
X111740989Y-68314648D01*
X110992771Y-68623805D01*
X110419817Y-69195760D01*
X110109354Y-69943438D01*
X110108648Y-70753011D01*
X106178649Y-70753011D01*
X106179352Y-69946989D01*
X105870195Y-69198771D01*
X105298240Y-68625817D01*
X104550562Y-68315354D01*
X103740989Y-68314648D01*
X102992771Y-68623805D01*
X102419817Y-69195760D01*
X102109354Y-69943438D01*
X102108648Y-70753011D01*
X98178649Y-70753011D01*
X98179352Y-69946989D01*
X97870195Y-69198771D01*
X97298240Y-68625817D01*
X96550562Y-68315354D01*
X95740989Y-68314648D01*
X94992771Y-68623805D01*
X94419817Y-69195760D01*
X94109354Y-69943438D01*
X94108648Y-70753011D01*
X81153000Y-70753011D01*
X81153000Y-61087000D01*
X147193000Y-61087000D01*
X147193000Y-81915000D01*
X147193000Y-81915000D01*
G37*
X147193000Y-81915000D02*
X105410000Y-81915000D01*
X105360590Y-81925006D01*
X105318965Y-81953447D01*
X105291685Y-81995841D01*
X105283000Y-82042000D01*
X105283000Y-109601000D01*
X81153000Y-109601000D01*
X81153000Y-88978000D01*
X83334560Y-88978000D01*
X83334560Y-90178000D01*
X83378838Y-90413317D01*
X83517910Y-90629441D01*
X83587711Y-90677134D01*
X83530559Y-90713910D01*
X83385569Y-90926110D01*
X83334560Y-91178000D01*
X83334560Y-92378000D01*
X83378838Y-92613317D01*
X83517910Y-92829441D01*
X83730110Y-92974431D01*
X83847000Y-92998102D01*
X83847000Y-98504808D01*
X83680559Y-98611910D01*
X83535569Y-98824110D01*
X83484560Y-99076000D01*
X83484560Y-99576000D01*
X83528838Y-99811317D01*
X83667910Y-100027441D01*
X83880110Y-100172431D01*
X84132000Y-100223440D01*
X85032000Y-100223440D01*
X85267317Y-100179162D01*
X85483441Y-100040090D01*
X85628431Y-99827890D01*
X85679440Y-99576000D01*
X85679440Y-99076000D01*
X85635162Y-98840683D01*
X85496090Y-98624559D01*
X85317000Y-98502192D01*
X85317000Y-97406510D01*
X91566780Y-97406510D01*
X91759718Y-97873458D01*
X92116663Y-98231026D01*
X92583273Y-98424779D01*
X93088510Y-98425220D01*
X93555458Y-98232282D01*
X93913026Y-97875337D01*
X94106779Y-97408727D01*
X94107220Y-96903490D01*
X93914282Y-96436542D01*
X93557337Y-96078974D01*
X93090727Y-95885221D01*
X92585490Y-95884780D01*
X92118542Y-96077718D01*
X91760974Y-96434663D01*
X91567221Y-96901273D01*
X91566780Y-97406510D01*
X85317000Y-97406510D01*
X85317000Y-93596510D01*
X91566780Y-93596510D01*
X91759718Y-94063458D01*
X92116663Y-94421026D01*
X92583273Y-94614779D01*
X93088510Y-94615220D01*
X93555458Y-94422282D01*
X93913026Y-94065337D01*
X94106779Y-93598727D01*
X94107220Y-93093490D01*
X93914282Y-92626542D01*
X93557337Y-92268974D01*
X93090727Y-92075221D01*
X92585490Y-92074780D01*
X92118542Y-92267718D01*
X91760974Y-92624663D01*
X91567221Y-93091273D01*
X91566780Y-93596510D01*
X85317000Y-93596510D01*
X85317000Y-93000038D01*
X85417317Y-92981162D01*
X85633441Y-92842090D01*
X85778431Y-92629890D01*
X85829440Y-92378000D01*
X85829440Y-91178000D01*
X85785162Y-90942683D01*
X85646090Y-90726559D01*
X85576289Y-90678866D01*
X85633441Y-90642090D01*
X85778431Y-90429890D01*
X85802102Y-90313000D01*
X91427261Y-90313000D01*
X91479795Y-90440143D01*
X91929489Y-90890623D01*
X92517344Y-91134722D01*
X93153863Y-91135277D01*
X93742143Y-90892205D01*
X94192623Y-90442511D01*
X94436722Y-89854656D01*
X94437277Y-89218137D01*
X94194205Y-88629857D01*
X93744511Y-88179377D01*
X93156656Y-87935278D01*
X92520137Y-87934723D01*
X91931857Y-88177795D01*
X91481377Y-88627489D01*
X91391889Y-88843000D01*
X85804038Y-88843000D01*
X85785162Y-88742683D01*
X85646090Y-88526559D01*
X85433890Y-88381569D01*
X85182000Y-88330560D01*
X83982000Y-88330560D01*
X83746683Y-88374838D01*
X83530559Y-88513910D01*
X83385569Y-88726110D01*
X83334560Y-88978000D01*
X81153000Y-88978000D01*
X81153000Y-70753011D01*
X94108648Y-70753011D01*
X94417805Y-71501229D01*
X94989760Y-72074183D01*
X95737438Y-72384646D01*
X96547011Y-72385352D01*
X97295229Y-72076195D01*
X97868183Y-71504240D01*
X98178646Y-70756562D01*
X98178649Y-70753011D01*
X102108648Y-70753011D01*
X102417805Y-71501229D01*
X102989760Y-72074183D01*
X103737438Y-72384646D01*
X104547011Y-72385352D01*
X105295229Y-72076195D01*
X105868183Y-71504240D01*
X106178646Y-70756562D01*
X106178649Y-70753011D01*
X110108648Y-70753011D01*
X110417805Y-71501229D01*
X110989760Y-72074183D01*
X111737438Y-72384646D01*
X112547011Y-72385352D01*
X113295229Y-72076195D01*
X113868183Y-71504240D01*
X114178646Y-70756562D01*
X114178649Y-70753011D01*
X118108648Y-70753011D01*
X118417805Y-71501229D01*
X118989760Y-72074183D01*
X119737438Y-72384646D01*
X120547011Y-72385352D01*
X121295229Y-72076195D01*
X121868183Y-71504240D01*
X122178646Y-70756562D01*
X122178649Y-70753011D01*
X126108648Y-70753011D01*
X126417805Y-71501229D01*
X126989760Y-72074183D01*
X127737438Y-72384646D01*
X128547011Y-72385352D01*
X129295229Y-72076195D01*
X129868183Y-71504240D01*
X130178646Y-70756562D01*
X130178649Y-70753011D01*
X134108648Y-70753011D01*
X134417805Y-71501229D01*
X134989760Y-72074183D01*
X135737438Y-72384646D01*
X136547011Y-72385352D01*
X137295229Y-72076195D01*
X137868183Y-71504240D01*
X138178646Y-70756562D01*
X138179352Y-69946989D01*
X137870195Y-69198771D01*
X137298240Y-68625817D01*
X136550562Y-68315354D01*
X135740989Y-68314648D01*
X134992771Y-68623805D01*
X134419817Y-69195760D01*
X134109354Y-69943438D01*
X134108648Y-70753011D01*
X130178649Y-70753011D01*
X130179352Y-69946989D01*
X129870195Y-69198771D01*
X129298240Y-68625817D01*
X128550562Y-68315354D01*
X127740989Y-68314648D01*
X126992771Y-68623805D01*
X126419817Y-69195760D01*
X126109354Y-69943438D01*
X126108648Y-70753011D01*
X122178649Y-70753011D01*
X122179352Y-69946989D01*
X121870195Y-69198771D01*
X121298240Y-68625817D01*
X120550562Y-68315354D01*
X119740989Y-68314648D01*
X118992771Y-68623805D01*
X118419817Y-69195760D01*
X118109354Y-69943438D01*
X118108648Y-70753011D01*
X114178649Y-70753011D01*
X114179352Y-69946989D01*
X113870195Y-69198771D01*
X113298240Y-68625817D01*
X112550562Y-68315354D01*
X111740989Y-68314648D01*
X110992771Y-68623805D01*
X110419817Y-69195760D01*
X110109354Y-69943438D01*
X110108648Y-70753011D01*
X106178649Y-70753011D01*
X106179352Y-69946989D01*
X105870195Y-69198771D01*
X105298240Y-68625817D01*
X104550562Y-68315354D01*
X103740989Y-68314648D01*
X102992771Y-68623805D01*
X102419817Y-69195760D01*
X102109354Y-69943438D01*
X102108648Y-70753011D01*
X98178649Y-70753011D01*
X98179352Y-69946989D01*
X97870195Y-69198771D01*
X97298240Y-68625817D01*
X96550562Y-68315354D01*
X95740989Y-68314648D01*
X94992771Y-68623805D01*
X94419817Y-69195760D01*
X94109354Y-69943438D01*
X94108648Y-70753011D01*
X81153000Y-70753011D01*
X81153000Y-61087000D01*
X147193000Y-61087000D01*
X147193000Y-81915000D01*
G36*
X125991560Y-125892600D02*
X125991560Y-127042600D01*
X126035838Y-127277917D01*
X126160741Y-127472022D01*
X126065162Y-127702201D01*
X126064838Y-128074167D01*
X126206883Y-128417943D01*
X126469673Y-128681192D01*
X126813201Y-128823838D01*
X127185167Y-128824162D01*
X127528943Y-128682117D01*
X127792192Y-128419327D01*
X127934838Y-128075799D01*
X127935162Y-127703833D01*
X127829864Y-127448992D01*
X127935431Y-127294490D01*
X127986440Y-127042600D01*
X127986440Y-125892600D01*
X127955845Y-125730000D01*
X132524487Y-125730000D01*
X132491560Y-125892600D01*
X132491560Y-127042600D01*
X132535838Y-127277917D01*
X132674910Y-127494041D01*
X132715000Y-127521434D01*
X132715000Y-127582534D01*
X132684808Y-127612673D01*
X132542162Y-127956201D01*
X132541838Y-128328167D01*
X132683883Y-128671943D01*
X132715000Y-128703114D01*
X132715000Y-131699000D01*
X132040393Y-131699000D01*
X131973523Y-131656221D01*
X131860272Y-131580549D01*
X131852963Y-131579095D01*
X131846687Y-131575080D01*
X131712624Y-131551180D01*
X131579000Y-131524600D01*
X125267931Y-131524600D01*
X125268162Y-131259833D01*
X125126117Y-130916057D01*
X125083790Y-130873656D01*
X125125192Y-130832327D01*
X125267838Y-130488799D01*
X125268162Y-130116833D01*
X125126117Y-129773057D01*
X124863327Y-129509808D01*
X124519799Y-129367162D01*
X124147833Y-129366838D01*
X123804057Y-129508883D01*
X123749576Y-129563269D01*
X123720890Y-129543669D01*
X123469000Y-129492660D01*
X122301000Y-129492660D01*
X122301000Y-125730000D01*
X126024487Y-125730000D01*
X125991560Y-125892600D01*
X125991560Y-125892600D01*
G37*
X125991560Y-125892600D02*
X125991560Y-127042600D01*
X126035838Y-127277917D01*
X126160741Y-127472022D01*
X126065162Y-127702201D01*
X126064838Y-128074167D01*
X126206883Y-128417943D01*
X126469673Y-128681192D01*
X126813201Y-128823838D01*
X127185167Y-128824162D01*
X127528943Y-128682117D01*
X127792192Y-128419327D01*
X127934838Y-128075799D01*
X127935162Y-127703833D01*
X127829864Y-127448992D01*
X127935431Y-127294490D01*
X127986440Y-127042600D01*
X127986440Y-125892600D01*
X127955845Y-125730000D01*
X132524487Y-125730000D01*
X132491560Y-125892600D01*
X132491560Y-127042600D01*
X132535838Y-127277917D01*
X132674910Y-127494041D01*
X132715000Y-127521434D01*
X132715000Y-127582534D01*
X132684808Y-127612673D01*
X132542162Y-127956201D01*
X132541838Y-128328167D01*
X132683883Y-128671943D01*
X132715000Y-128703114D01*
X132715000Y-131699000D01*
X132040393Y-131699000D01*
X131973523Y-131656221D01*
X131860272Y-131580549D01*
X131852963Y-131579095D01*
X131846687Y-131575080D01*
X131712624Y-131551180D01*
X131579000Y-131524600D01*
X125267931Y-131524600D01*
X125268162Y-131259833D01*
X125126117Y-130916057D01*
X125083790Y-130873656D01*
X125125192Y-130832327D01*
X125267838Y-130488799D01*
X125268162Y-130116833D01*
X125126117Y-129773057D01*
X124863327Y-129509808D01*
X124519799Y-129367162D01*
X124147833Y-129366838D01*
X123804057Y-129508883D01*
X123749576Y-129563269D01*
X123720890Y-129543669D01*
X123469000Y-129492660D01*
X122301000Y-129492660D01*
X122301000Y-125730000D01*
X126024487Y-125730000D01*
X125991560Y-125892600D01*
G36*
X134112000Y-136548447D02*
X134112000Y-139954000D01*
X130613269Y-139954000D01*
X130659440Y-139726000D01*
X130659440Y-138576000D01*
X130615162Y-138340683D01*
X130476090Y-138124559D01*
X130434401Y-138096074D01*
X130459192Y-138071327D01*
X130601838Y-137727799D01*
X130602162Y-137355833D01*
X130460117Y-137012057D01*
X130197327Y-136748808D01*
X129853799Y-136606162D01*
X129481833Y-136605838D01*
X129138057Y-136747883D01*
X128874808Y-137010673D01*
X128732162Y-137354201D01*
X128731838Y-137726167D01*
X128873883Y-138069943D01*
X128894180Y-138090275D01*
X128860559Y-138111910D01*
X128715569Y-138324110D01*
X128664560Y-138576000D01*
X128664560Y-139726000D01*
X128707461Y-139954000D01*
X124009269Y-139954000D01*
X124055440Y-139726000D01*
X124055440Y-138576000D01*
X124011162Y-138340683D01*
X123872090Y-138124559D01*
X123659890Y-137979569D01*
X123408000Y-137928560D01*
X122875007Y-137928560D01*
X122174000Y-137227554D01*
X122174000Y-135613302D01*
X122269000Y-135632540D01*
X122299041Y-135632540D01*
X122349277Y-135707723D01*
X122762908Y-136121355D01*
X122762838Y-136202167D01*
X122904883Y-136545943D01*
X123167673Y-136809192D01*
X123511201Y-136951838D01*
X123883167Y-136952162D01*
X124226943Y-136810117D01*
X124490192Y-136547327D01*
X124632838Y-136203799D01*
X124633162Y-135831833D01*
X124491117Y-135488057D01*
X124228327Y-135224808D01*
X124080342Y-135163359D01*
X124116440Y-134985100D01*
X124116440Y-134585100D01*
X124072162Y-134349783D01*
X123942044Y-134147573D01*
X124065431Y-133966990D01*
X124113220Y-133731000D01*
X131294554Y-133731000D01*
X134112000Y-136548447D01*
X134112000Y-136548447D01*
G37*
X134112000Y-136548447D02*
X134112000Y-139954000D01*
X130613269Y-139954000D01*
X130659440Y-139726000D01*
X130659440Y-138576000D01*
X130615162Y-138340683D01*
X130476090Y-138124559D01*
X130434401Y-138096074D01*
X130459192Y-138071327D01*
X130601838Y-137727799D01*
X130602162Y-137355833D01*
X130460117Y-137012057D01*
X130197327Y-136748808D01*
X129853799Y-136606162D01*
X129481833Y-136605838D01*
X129138057Y-136747883D01*
X128874808Y-137010673D01*
X128732162Y-137354201D01*
X128731838Y-137726167D01*
X128873883Y-138069943D01*
X128894180Y-138090275D01*
X128860559Y-138111910D01*
X128715569Y-138324110D01*
X128664560Y-138576000D01*
X128664560Y-139726000D01*
X128707461Y-139954000D01*
X124009269Y-139954000D01*
X124055440Y-139726000D01*
X124055440Y-138576000D01*
X124011162Y-138340683D01*
X123872090Y-138124559D01*
X123659890Y-137979569D01*
X123408000Y-137928560D01*
X122875007Y-137928560D01*
X122174000Y-137227554D01*
X122174000Y-135613302D01*
X122269000Y-135632540D01*
X122299041Y-135632540D01*
X122349277Y-135707723D01*
X122762908Y-136121355D01*
X122762838Y-136202167D01*
X122904883Y-136545943D01*
X123167673Y-136809192D01*
X123511201Y-136951838D01*
X123883167Y-136952162D01*
X124226943Y-136810117D01*
X124490192Y-136547327D01*
X124632838Y-136203799D01*
X124633162Y-135831833D01*
X124491117Y-135488057D01*
X124228327Y-135224808D01*
X124080342Y-135163359D01*
X124116440Y-134985100D01*
X124116440Y-134585100D01*
X124072162Y-134349783D01*
X123942044Y-134147573D01*
X124065431Y-133966990D01*
X124113220Y-133731000D01*
X131294554Y-133731000D01*
X134112000Y-136548447D01*
G36*
X139065000Y-148717000D02*
X128905000Y-148717000D01*
X128905000Y-140716000D01*
X134874000Y-140716000D01*
X134923410Y-140705994D01*
X134965035Y-140677553D01*
X134992315Y-140635159D01*
X135001000Y-140589000D01*
X135001000Y-137391415D01*
X135066144Y-137434943D01*
X135100728Y-137458051D01*
X135382000Y-137514000D01*
X135683581Y-137514000D01*
X135740673Y-137571192D01*
X136084201Y-137713838D01*
X136456167Y-137714162D01*
X136799943Y-137572117D01*
X137063192Y-137309327D01*
X137205838Y-136965799D01*
X137206162Y-136593833D01*
X137155012Y-136470040D01*
X138069000Y-136470040D01*
X138304317Y-136425762D01*
X138520441Y-136286690D01*
X138665431Y-136074490D01*
X138716440Y-135822600D01*
X138716440Y-134932600D01*
X138672162Y-134697283D01*
X138533090Y-134481159D01*
X138320890Y-134336169D01*
X138069000Y-134285160D01*
X135629000Y-134285160D01*
X135393683Y-134329438D01*
X135177559Y-134468510D01*
X135082821Y-134607163D01*
X135001000Y-134528539D01*
X135001000Y-125095000D01*
X134990994Y-125045590D01*
X134962553Y-125003965D01*
X134920159Y-124976685D01*
X134874000Y-124968000D01*
X128905000Y-124968000D01*
X128905000Y-116205000D01*
X139065000Y-116205000D01*
X139065000Y-148717000D01*
X139065000Y-148717000D01*
G37*
X139065000Y-148717000D02*
X128905000Y-148717000D01*
X128905000Y-140716000D01*
X134874000Y-140716000D01*
X134923410Y-140705994D01*
X134965035Y-140677553D01*
X134992315Y-140635159D01*
X135001000Y-140589000D01*
X135001000Y-137391415D01*
X135066144Y-137434943D01*
X135100728Y-137458051D01*
X135382000Y-137514000D01*
X135683581Y-137514000D01*
X135740673Y-137571192D01*
X136084201Y-137713838D01*
X136456167Y-137714162D01*
X136799943Y-137572117D01*
X137063192Y-137309327D01*
X137205838Y-136965799D01*
X137206162Y-136593833D01*
X137155012Y-136470040D01*
X138069000Y-136470040D01*
X138304317Y-136425762D01*
X138520441Y-136286690D01*
X138665431Y-136074490D01*
X138716440Y-135822600D01*
X138716440Y-134932600D01*
X138672162Y-134697283D01*
X138533090Y-134481159D01*
X138320890Y-134336169D01*
X138069000Y-134285160D01*
X135629000Y-134285160D01*
X135393683Y-134329438D01*
X135177559Y-134468510D01*
X135082821Y-134607163D01*
X135001000Y-134528539D01*
X135001000Y-125095000D01*
X134990994Y-125045590D01*
X134962553Y-125003965D01*
X134920159Y-124976685D01*
X134874000Y-124968000D01*
X128905000Y-124968000D01*
X128905000Y-116205000D01*
X139065000Y-116205000D01*
X139065000Y-148717000D01*
G36*
X105302344Y-128110413D02*
X105200559Y-128175910D01*
X105055569Y-128388110D01*
X105004560Y-128640000D01*
X105004560Y-130440000D01*
X105048838Y-130675317D01*
X105187910Y-130891441D01*
X105400110Y-131036431D01*
X105652000Y-131087440D01*
X105897358Y-131087440D01*
X105872519Y-132735160D01*
X105679000Y-132735160D01*
X105443683Y-132779438D01*
X105227559Y-132918510D01*
X105082569Y-133130710D01*
X105031560Y-133382600D01*
X105031560Y-135882600D01*
X105075838Y-136117917D01*
X105214910Y-136334041D01*
X105427110Y-136479031D01*
X105679000Y-136530040D01*
X107479000Y-136530040D01*
X107714317Y-136485762D01*
X107930441Y-136346690D01*
X108075431Y-136134490D01*
X108126440Y-135882600D01*
X108126440Y-133382600D01*
X108082162Y-133147283D01*
X107943090Y-132931159D01*
X107730890Y-132786169D01*
X107479000Y-132735160D01*
X107342687Y-132735160D01*
X107367525Y-131087440D01*
X107559511Y-131087440D01*
X109031560Y-132635031D01*
X109031560Y-133282600D01*
X109075838Y-133517917D01*
X109214910Y-133734041D01*
X109347000Y-133824294D01*
X109347000Y-133941652D01*
X109227559Y-134018510D01*
X109082569Y-134230710D01*
X109031560Y-134482600D01*
X109031560Y-135182600D01*
X109075838Y-135417917D01*
X109214910Y-135634041D01*
X109347000Y-135724294D01*
X109347000Y-140589000D01*
X109357006Y-140638410D01*
X109385447Y-140680035D01*
X109427841Y-140707315D01*
X109474000Y-140716000D01*
X128016000Y-140716000D01*
X128016000Y-147954538D01*
X93345000Y-147828461D01*
X93345000Y-137382600D01*
X105031560Y-137382600D01*
X105031560Y-139882600D01*
X105075838Y-140117917D01*
X105214910Y-140334041D01*
X105427110Y-140479031D01*
X105679000Y-140530040D01*
X105797505Y-140530040D01*
X105760808Y-140566673D01*
X105618162Y-140910201D01*
X105617838Y-141282167D01*
X105759883Y-141625943D01*
X106022673Y-141889192D01*
X106366201Y-142031838D01*
X106738167Y-142032162D01*
X107081943Y-141890117D01*
X107345192Y-141627327D01*
X107487838Y-141283799D01*
X107488162Y-140911833D01*
X107346117Y-140568057D01*
X107314000Y-140535884D01*
X107314000Y-140530040D01*
X107479000Y-140530040D01*
X107714317Y-140485762D01*
X107930441Y-140346690D01*
X108075431Y-140134490D01*
X108126440Y-139882600D01*
X108126440Y-137382600D01*
X108082162Y-137147283D01*
X107943090Y-136931159D01*
X107730890Y-136786169D01*
X107479000Y-136735160D01*
X105679000Y-136735160D01*
X105443683Y-136779438D01*
X105227559Y-136918510D01*
X105082569Y-137130710D01*
X105031560Y-137382600D01*
X93345000Y-137382600D01*
X93345000Y-128016996D01*
X105302344Y-128110413D01*
X105302344Y-128110413D01*
G37*
X105302344Y-128110413D02*
X105200559Y-128175910D01*
X105055569Y-128388110D01*
X105004560Y-128640000D01*
X105004560Y-130440000D01*
X105048838Y-130675317D01*
X105187910Y-130891441D01*
X105400110Y-131036431D01*
X105652000Y-131087440D01*
X105897358Y-131087440D01*
X105872519Y-132735160D01*
X105679000Y-132735160D01*
X105443683Y-132779438D01*
X105227559Y-132918510D01*
X105082569Y-133130710D01*
X105031560Y-133382600D01*
X105031560Y-135882600D01*
X105075838Y-136117917D01*
X105214910Y-136334041D01*
X105427110Y-136479031D01*
X105679000Y-136530040D01*
X107479000Y-136530040D01*
X107714317Y-136485762D01*
X107930441Y-136346690D01*
X108075431Y-136134490D01*
X108126440Y-135882600D01*
X108126440Y-133382600D01*
X108082162Y-133147283D01*
X107943090Y-132931159D01*
X107730890Y-132786169D01*
X107479000Y-132735160D01*
X107342687Y-132735160D01*
X107367525Y-131087440D01*
X107559511Y-131087440D01*
X109031560Y-132635031D01*
X109031560Y-133282600D01*
X109075838Y-133517917D01*
X109214910Y-133734041D01*
X109347000Y-133824294D01*
X109347000Y-133941652D01*
X109227559Y-134018510D01*
X109082569Y-134230710D01*
X109031560Y-134482600D01*
X109031560Y-135182600D01*
X109075838Y-135417917D01*
X109214910Y-135634041D01*
X109347000Y-135724294D01*
X109347000Y-140589000D01*
X109357006Y-140638410D01*
X109385447Y-140680035D01*
X109427841Y-140707315D01*
X109474000Y-140716000D01*
X128016000Y-140716000D01*
X128016000Y-147954538D01*
X93345000Y-147828461D01*
X93345000Y-137382600D01*
X105031560Y-137382600D01*
X105031560Y-139882600D01*
X105075838Y-140117917D01*
X105214910Y-140334041D01*
X105427110Y-140479031D01*
X105679000Y-140530040D01*
X105797505Y-140530040D01*
X105760808Y-140566673D01*
X105618162Y-140910201D01*
X105617838Y-141282167D01*
X105759883Y-141625943D01*
X106022673Y-141889192D01*
X106366201Y-142031838D01*
X106738167Y-142032162D01*
X107081943Y-141890117D01*
X107345192Y-141627327D01*
X107487838Y-141283799D01*
X107488162Y-140911833D01*
X107346117Y-140568057D01*
X107314000Y-140535884D01*
X107314000Y-140530040D01*
X107479000Y-140530040D01*
X107714317Y-140485762D01*
X107930441Y-140346690D01*
X108075431Y-140134490D01*
X108126440Y-139882600D01*
X108126440Y-137382600D01*
X108082162Y-137147283D01*
X107943090Y-136931159D01*
X107730890Y-136786169D01*
X107479000Y-136735160D01*
X105679000Y-136735160D01*
X105443683Y-136779438D01*
X105227559Y-136918510D01*
X105082569Y-137130710D01*
X105031560Y-137382600D01*
X93345000Y-137382600D01*
X93345000Y-128016996D01*
X105302344Y-128110413D01*
G36*
X128016000Y-124968000D02*
X121539000Y-124968000D01*
X121489590Y-124978006D01*
X121447965Y-125006447D01*
X121420685Y-125048841D01*
X121412000Y-125095000D01*
X121412000Y-127127000D01*
X118433338Y-127127000D01*
X118480441Y-127096690D01*
X118625431Y-126884490D01*
X118676440Y-126632600D01*
X118676440Y-126574607D01*
X118848724Y-126402323D01*
X119008051Y-126163872D01*
X119014271Y-126132600D01*
X119064000Y-125882600D01*
X119064000Y-123330040D01*
X119329000Y-123330040D01*
X119564317Y-123285762D01*
X119780441Y-123146690D01*
X119925431Y-122934490D01*
X119976440Y-122682600D01*
X119976440Y-120082600D01*
X119932162Y-119847283D01*
X119793090Y-119631159D01*
X119580890Y-119486169D01*
X119329000Y-119435160D01*
X117329000Y-119435160D01*
X117093683Y-119479438D01*
X116877559Y-119618510D01*
X116772049Y-119772929D01*
X116414687Y-119534148D01*
X115789000Y-119409691D01*
X115163313Y-119534148D01*
X114632880Y-119888571D01*
X114519000Y-120059005D01*
X114405120Y-119888571D01*
X113874687Y-119534148D01*
X113249000Y-119409691D01*
X112623313Y-119534148D01*
X112092880Y-119888571D01*
X111738457Y-120419004D01*
X111614000Y-121044691D01*
X111614000Y-121720509D01*
X111738457Y-122346196D01*
X112092880Y-122876629D01*
X112594000Y-123211466D01*
X112594000Y-125632600D01*
X112643353Y-125880710D01*
X112649949Y-125913872D01*
X112809277Y-126152323D01*
X112981560Y-126324606D01*
X112981560Y-126632600D01*
X113025838Y-126867917D01*
X113164910Y-127084041D01*
X113227783Y-127127000D01*
X107637000Y-127127000D01*
X107637000Y-126515440D01*
X108152000Y-126515440D01*
X108387317Y-126471162D01*
X108603441Y-126332090D01*
X108748431Y-126119890D01*
X108799440Y-125868000D01*
X108799440Y-124068000D01*
X108755162Y-123832683D01*
X108616090Y-123616559D01*
X108403890Y-123471569D01*
X108152000Y-123420560D01*
X105652000Y-123420560D01*
X105416683Y-123464838D01*
X105200559Y-123603910D01*
X105055569Y-123816110D01*
X105004560Y-124068000D01*
X105004560Y-125868000D01*
X105048838Y-126103317D01*
X105187910Y-126319441D01*
X105400110Y-126464431D01*
X105652000Y-126515440D01*
X106167000Y-126515440D01*
X106167000Y-127127000D01*
X93345000Y-127127000D01*
X93345000Y-116205000D01*
X128016000Y-116205000D01*
X128016000Y-124968000D01*
X128016000Y-124968000D01*
G37*
X128016000Y-124968000D02*
X121539000Y-124968000D01*
X121489590Y-124978006D01*
X121447965Y-125006447D01*
X121420685Y-125048841D01*
X121412000Y-125095000D01*
X121412000Y-127127000D01*
X118433338Y-127127000D01*
X118480441Y-127096690D01*
X118625431Y-126884490D01*
X118676440Y-126632600D01*
X118676440Y-126574607D01*
X118848724Y-126402323D01*
X119008051Y-126163872D01*
X119014271Y-126132600D01*
X119064000Y-125882600D01*
X119064000Y-123330040D01*
X119329000Y-123330040D01*
X119564317Y-123285762D01*
X119780441Y-123146690D01*
X119925431Y-122934490D01*
X119976440Y-122682600D01*
X119976440Y-120082600D01*
X119932162Y-119847283D01*
X119793090Y-119631159D01*
X119580890Y-119486169D01*
X119329000Y-119435160D01*
X117329000Y-119435160D01*
X117093683Y-119479438D01*
X116877559Y-119618510D01*
X116772049Y-119772929D01*
X116414687Y-119534148D01*
X115789000Y-119409691D01*
X115163313Y-119534148D01*
X114632880Y-119888571D01*
X114519000Y-120059005D01*
X114405120Y-119888571D01*
X113874687Y-119534148D01*
X113249000Y-119409691D01*
X112623313Y-119534148D01*
X112092880Y-119888571D01*
X111738457Y-120419004D01*
X111614000Y-121044691D01*
X111614000Y-121720509D01*
X111738457Y-122346196D01*
X112092880Y-122876629D01*
X112594000Y-123211466D01*
X112594000Y-125632600D01*
X112643353Y-125880710D01*
X112649949Y-125913872D01*
X112809277Y-126152323D01*
X112981560Y-126324606D01*
X112981560Y-126632600D01*
X113025838Y-126867917D01*
X113164910Y-127084041D01*
X113227783Y-127127000D01*
X107637000Y-127127000D01*
X107637000Y-126515440D01*
X108152000Y-126515440D01*
X108387317Y-126471162D01*
X108603441Y-126332090D01*
X108748431Y-126119890D01*
X108799440Y-125868000D01*
X108799440Y-124068000D01*
X108755162Y-123832683D01*
X108616090Y-123616559D01*
X108403890Y-123471569D01*
X108152000Y-123420560D01*
X105652000Y-123420560D01*
X105416683Y-123464838D01*
X105200559Y-123603910D01*
X105055569Y-123816110D01*
X105004560Y-124068000D01*
X105004560Y-125868000D01*
X105048838Y-126103317D01*
X105187910Y-126319441D01*
X105400110Y-126464431D01*
X105652000Y-126515440D01*
X106167000Y-126515440D01*
X106167000Y-127127000D01*
X93345000Y-127127000D01*
X93345000Y-116205000D01*
X128016000Y-116205000D01*
X128016000Y-124968000D01*
M02*
