M48
;DRILL file {KiCad 4.0.6} date Fri Sep  8 02:15:59 2017
;FORMAT={-:-/ absolute / inch / decimal}
FMAT,2
INCH,TZ
T1C0.016
T2C0.040
T3C0.047
T4C0.055
T5C0.062
%
G90
G05
M72
T1
X4.195Y-5.555
X4.365Y-5.16
X4.63Y-5.35
X4.87Y-5.355
X4.895Y-5.13
X4.895Y-5.175
X5.Y-5.035
X5.105Y-5.415
X5.255Y-5.045
X5.365Y-5.385
X5.525Y-5.39
X5.695Y-5.
X5.7Y-5.32
X5.725Y-4.83
X5.805Y-5.745
X5.9Y-4.315
X5.92Y-4.91
X5.98Y-4.955
X6.03Y-5.745
X6.79Y-5.8
X6.855Y-5.23
T2
X3.655Y-3.675
X3.655Y-3.825
X3.655Y-3.975
X5.655Y-3.525
X5.655Y-3.825
X5.655Y-4.125
X6.68Y-5.
X6.83Y-3.
X6.98Y-3.
X6.98Y-5.
X7.13Y-3.
X7.28Y-5.
T3
X4.4586Y-4.7788
X4.5586Y-4.7788
X4.6586Y-4.7788
X6.1486Y-5.0255
X6.1486Y-5.1255
X6.1486Y-5.2255
T4
X3.5635Y-4.86
X3.5635Y-5.16
X3.78Y-4.86
X3.78Y-5.16
X3.7852Y-2.7697
X3.7852Y-2.9862
X4.1002Y-2.7697
X4.1002Y-2.9862
X4.4151Y-2.7697
X4.4151Y-2.9862
X4.7301Y-2.7697
X4.7301Y-2.9862
X5.045Y-2.7697
X5.045Y-2.9862
X5.36Y-2.7697
X5.36Y-2.9862
X6.0358Y-2.6671
X6.0358Y-2.9821
X6.0358Y-3.297
X6.0358Y-3.612
X6.2523Y-2.6671
X6.2523Y-2.9821
X6.2523Y-3.297
X6.2523Y-3.612
X7.0571Y-5.48
X7.0571Y-5.6965
X7.3721Y-5.48
X7.3721Y-5.6965
X7.687Y-5.48
X7.687Y-5.6965
X7.7914Y-3.2287
X7.7914Y-3.5437
X7.7914Y-3.8587
X7.7914Y-4.1736
X7.7914Y-4.4886
X7.7914Y-4.8035
X8.002Y-5.48
X8.002Y-5.6965
X8.008Y-3.2287
X8.008Y-3.5437
X8.008Y-3.8587
X8.008Y-4.1736
X8.008Y-4.4886
X8.008Y-4.8035
T5
X3.655Y-3.525
X3.655Y-4.125
X6.68Y-3.
X7.28Y-3.
T0
M30
