  0
SECTION
  2
HEADER
  9
$ANGBASE
  50
0.0
  9
$ANGDIR
  70
  1
  9
$MEASUREMENT
  70
0
  0
ENDSEC
  0
SECTION
  2
TABLES
  0
TABLE
  2
LTYPE
  70
1
  0
LTYPE
  2
CONTINUOUS
  70
0
  3
Solid line
  72
65
  73
0
  40
0.0
  0
ENDTAB
  0
TABLE
  2
STYLE
  70
4
  0
STYLE
  2
KICAD
  70
0
  40
0
  41
1
  42
1
  50
0
  71
0
  3
isocp.shx
  0
STYLE
  2
KICADB
  70
0
  40
0
  41
1
  42
1
  50
0
  71
0
  3
isocp.shx
  0
STYLE
  2
KICADI
  70
0
  40
0
  41
1
  42
1
  50
15
  71
0
  3
isocp.shx
  0
STYLE
  2
KICADBI
  70
0
  40
0
  41
1
  42
1
  50
15
  71
0
  3
isocp.shx
  0
ENDTAB
  0
TABLE
  2
LAYER
  70
30
  0
LAYER
  2
BLACK
  70
0
  62
7
  6
CONTINUOUS
  0
LAYER
  2
GRAY1
  70
0
  62
251
  6
CONTINUOUS
  0
LAYER
  2
GRAY2
  70
0
  62
8
  6
CONTINUOUS
  0
LAYER
  2
GRAY3
  70
0
  62
9
  6
CONTINUOUS
  0
LAYER
  2
WHITE
  70
0
  62
7
  6
CONTINUOUS
  0
LAYER
  2
LYELLOW
  70
0
  62
51
  6
CONTINUOUS
  0
LAYER
  2
BLUE1
  70
0
  62
178
  6
CONTINUOUS
  0
LAYER
  2
GREEN1
  70
0
  62
98
  6
CONTINUOUS
  0
LAYER
  2
CYAN1
  70
0
  62
138
  6
CONTINUOUS
  0
LAYER
  2
RED1
  70
0
  62
18
  6
CONTINUOUS
  0
LAYER
  2
MAGENTA1
  70
0
  62
228
  6
CONTINUOUS
  0
LAYER
  2
BROWN1
  70
0
  62
58
  6
CONTINUOUS
  0
LAYER
  2
BLUE2
  70
0
  62
5
  6
CONTINUOUS
  0
LAYER
  2
GREEN2
  70
0
  62
3
  6
CONTINUOUS
  0
LAYER
  2
CYAN2
  70
0
  62
4
  6
CONTINUOUS
  0
LAYER
  2
RED2
  70
0
  62
1
  6
CONTINUOUS
  0
LAYER
  2
MAGENTA2
  70
0
  62
6
  6
CONTINUOUS
  0
LAYER
  2
BROWN2
  70
0
  62
54
  6
CONTINUOUS
  0
LAYER
  2
BLUE3
  70
0
  62
171
  6
CONTINUOUS
  0
LAYER
  2
GREEN3
  70
0
  62
91
  6
CONTINUOUS
  0
LAYER
  2
CYAN3
  70
0
  62
131
  6
CONTINUOUS
  0
LAYER
  2
RED3
  70
0
  62
11
  6
CONTINUOUS
  0
LAYER
  2
MAGENTA3
  70
0
  62
221
  6
CONTINUOUS
  0
LAYER
  2
YELLOW3
  70
0
  62
2
  6
CONTINUOUS
  0
LAYER
  2
BLUE4
  70
0
  62
5
  6
CONTINUOUS
  0
LAYER
  2
GREEN4
  70
0
  62
3
  6
CONTINUOUS
  0
LAYER
  2
CYAN4
  70
0
  62
4
  6
CONTINUOUS
  0
LAYER
  2
RED4
  70
0
  62
1
  6
CONTINUOUS
  0
LAYER
  2
MAGENTA4
  70
0
  62
6
  6
CONTINUOUS
  0
LAYER
  2
YELLOW4
  70
0
  62
2
  6
CONTINUOUS
  0
ENDTAB
  0
ENDSEC
  0
SECTION
  2
ENTITIES
0
LINE
8
Black
10
134.397
20
-108.159
11
133.254
21
-108.159
0
LINE
8
Black
10
133.254
20
-108.159
11
133.254
21
-107.651
0
LINE
8
Black
10
133.254
20
-107.651
11
134.397
21
-107.651
0
LINE
8
Black
10
134.397
20
-107.651
11
134.397
21
-108.159
0
LINE
8
Black
10
140.746
20
-108.159
11
139.603
21
-108.159
0
LINE
8
Black
10
139.603
20
-108.159
11
139.603
21
-107.651
0
LINE
8
Black
10
139.603
20
-107.651
11
140.746
21
-107.651
0
LINE
8
Black
10
140.746
20
-107.651
11
140.746
21
-108.159
0
LINE
8
Black
10
134.397
20
-106.889
11
133.254
21
-106.889
0
LINE
8
Black
10
133.254
20
-106.889
11
133.254
21
-106.381
0
LINE
8
Black
10
133.254
20
-106.381
11
134.397
21
-106.381
0
LINE
8
Black
10
134.397
20
-106.381
11
134.397
21
-106.889
0
LINE
8
Black
10
140.746
20
-106.889
11
139.603
21
-106.889
0
LINE
8
Black
10
139.603
20
-106.889
11
139.603
21
-106.381
0
LINE
8
Black
10
139.603
20
-106.381
11
140.746
21
-106.381
0
LINE
8
Black
10
140.746
20
-106.381
11
140.746
21
-106.889
0
LINE
8
Black
10
140.746
20
-105.619
11
139.603
21
-105.619
0
LINE
8
Black
10
139.603
20
-105.619
11
139.603
21
-105.111
0
LINE
8
Black
10
139.603
20
-105.111
11
140.746
21
-105.111
0
LINE
8
Black
10
140.746
20
-105.111
11
140.746
21
-105.619
0
LINE
8
Black
10
134.397
20
-105.619
11
133.254
21
-105.619
0
LINE
8
Black
10
133.254
20
-105.619
11
133.254
21
-105.111
0
LINE
8
Black
10
133.254
20
-105.111
11
134.397
21
-105.111
0
LINE
8
Black
10
134.397
20
-105.111
11
134.397
21
-105.619
0
LINE
8
Black
10
140.746
20
-104.349
11
139.603
21
-104.349
0
LINE
8
Black
10
139.603
20
-104.349
11
139.603
21
-103.841
0
LINE
8
Black
10
139.603
20
-103.841
11
140.746
21
-103.841
0
LINE
8
Black
10
140.746
20
-103.841
11
140.746
21
-104.349
0
LINE
8
Black
10
134.397
20
-104.349
11
133.254
21
-104.349
0
LINE
8
Black
10
133.254
20
-104.349
11
133.254
21
-103.841
0
LINE
8
Black
10
133.254
20
-103.841
11
134.397
21
-103.841
0
LINE
8
Black
10
134.397
20
-103.841
11
134.397
21
-104.349
0
LINE
8
Black
10
138.45
20
-98.3488
11
136.2
21
-98.3488
0
LINE
8
Black
10
136.2
20
-98.3488
11
136.2
21
-97.4488
0
LINE
8
Black
10
136.2
20
-97.4488
11
138.45
21
-97.4488
0
LINE
8
Black
10
138.45
20
-97.4488
11
138.45
21
-98.3488
0
LINE
8
Black
10
143.8
20
-98.3488
11
141.55
21
-98.3488
0
LINE
8
Black
10
141.55
20
-98.3488
11
141.55
21
-97.4488
0
LINE
8
Black
10
141.55
20
-97.4488
11
143.8
21
-97.4488
0
LINE
8
Black
10
143.8
20
-97.4488
11
143.8
21
-98.3488
0
LINE
8
Black
10
138.45
20
-97.0988
11
136.2
21
-97.0988
0
LINE
8
Black
10
136.2
20
-97.0988
11
136.2
21
-96.1988
0
LINE
8
Black
10
136.2
20
-96.1988
11
138.45
21
-96.1988
0
LINE
8
Black
10
138.45
20
-96.1988
11
138.45
21
-97.0988
0
LINE
8
Black
10
143.8
20
-97.0988
11
141.55
21
-97.0988
0
LINE
8
Black
10
141.55
20
-97.0988
11
141.55
21
-96.1988
0
LINE
8
Black
10
141.55
20
-96.1988
11
143.8
21
-96.1988
0
LINE
8
Black
10
143.8
20
-96.1988
11
143.8
21
-97.0988
0
LINE
8
Black
10
126.25
20
-96.8
11
125.75
21
-96.8
0
LINE
8
Black
10
125.75
20
-96.8
11
125.75
21
-95.6
0
LINE
8
Black
10
125.75
20
-95.6
11
126.25
21
-95.6
0
LINE
8
Black
10
126.25
20
-95.6
11
126.25
21
-96.8
0
LINE
8
Black
10
127.05
20
-96.8
11
126.55
21
-96.8
0
LINE
8
Black
10
126.55
20
-96.8
11
126.55
21
-95.6
0
LINE
8
Black
10
126.55
20
-95.6
11
127.05
21
-95.6
0
LINE
8
Black
10
127.05
20
-95.6
11
127.05
21
-96.8
0
LINE
8
Black
10
125.45
20
-96.8
11
124.95
21
-96.8
0
LINE
8
Black
10
124.95
20
-96.8
11
124.95
21
-95.6
0
LINE
8
Black
10
124.95
20
-95.6
11
125.45
21
-95.6
0
LINE
8
Black
10
125.45
20
-95.6
11
125.45
21
-96.8
0
LINE
8
Black
10
127.85
20
-96.8
11
127.35
21
-96.8
0
LINE
8
Black
10
127.35
20
-96.8
11
127.35
21
-95.6
0
LINE
8
Black
10
127.35
20
-95.6
11
127.85
21
-95.6
0
LINE
8
Black
10
127.85
20
-95.6
11
127.85
21
-96.8
0
LINE
8
Black
10
128.65
20
-96.8
11
128.15
21
-96.8
0
LINE
8
Black
10
128.15
20
-96.8
11
128.15
21
-95.6
0
LINE
8
Black
10
128.15
20
-95.6
11
128.65
21
-95.6
0
LINE
8
Black
10
128.65
20
-95.6
11
128.65
21
-96.8
0
LINE
8
Black
10
129.45
20
-96.8
11
128.95
21
-96.8
0
LINE
8
Black
10
128.95
20
-96.8
11
128.95
21
-95.6
0
LINE
8
Black
10
128.95
20
-95.6
11
129.45
21
-95.6
0
LINE
8
Black
10
129.45
20
-95.6
11
129.45
21
-96.8
0
LINE
8
Black
10
130.25
20
-96.8
11
129.75
21
-96.8
0
LINE
8
Black
10
129.75
20
-96.8
11
129.75
21
-95.6
0
LINE
8
Black
10
129.75
20
-95.6
11
130.25
21
-95.6
0
LINE
8
Black
10
130.25
20
-95.6
11
130.25
21
-96.8
0
LINE
8
Black
10
131.05
20
-96.8
11
130.55
21
-96.8
0
LINE
8
Black
10
130.55
20
-96.8
11
130.55
21
-95.6
0
LINE
8
Black
10
130.55
20
-95.6
11
131.05
21
-95.6
0
LINE
8
Black
10
131.05
20
-95.6
11
131.05
21
-96.8
0
LINE
8
Black
10
138.45
20
-95.7988
11
136.2
21
-95.7988
0
LINE
8
Black
10
136.2
20
-95.7988
11
136.2
21
-94.8988
0
LINE
8
Black
10
136.2
20
-94.8988
11
138.45
21
-94.8988
0
LINE
8
Black
10
138.45
20
-94.8988
11
138.45
21
-95.7988
0
LINE
8
Black
10
143.8
20
-95.7988
11
141
21
-95.7988
0
LINE
8
Black
10
141
20
-95.7988
11
141
21
-94.8988
0
LINE
8
Black
10
141
20
-94.8988
11
143.8
21
-94.8988
0
LINE
8
Black
10
143.8
20
-94.8988
11
143.8
21
-95.7988
0
LINE
8
Black
10
132.8
20
-95.05
11
131.6
21
-95.05
0
LINE
8
Black
10
131.6
20
-95.05
11
131.6
21
-94.55
0
LINE
8
Black
10
131.6
20
-94.55
11
132.8
21
-94.55
0
LINE
8
Black
10
132.8
20
-94.55
11
132.8
21
-95.05
0
LINE
8
Black
10
124.4
20
-95.05
11
123.2
21
-95.05
0
LINE
8
Black
10
123.2
20
-95.05
11
123.2
21
-94.55
0
LINE
8
Black
10
123.2
20
-94.55
11
124.4
21
-94.55
0
LINE
8
Black
10
124.4
20
-94.55
11
124.4
21
-95.05
0
LINE
8
Black
10
138.45
20
-94.5488
11
136.2
21
-94.5488
0
LINE
8
Black
10
136.2
20
-94.5488
11
136.2
21
-93.6488
0
LINE
8
Black
10
136.2
20
-93.6488
11
138.45
21
-93.6488
0
LINE
8
Black
10
138.45
20
-93.6488
11
138.45
21
-94.5488
0
LINE
8
Black
10
143.8
20
-94.5488
11
141.55
21
-94.5488
0
LINE
8
Black
10
141.55
20
-94.5488
11
141.55
21
-93.6488
0
LINE
8
Black
10
141.55
20
-93.6488
11
143.8
21
-93.6488
0
LINE
8
Black
10
143.8
20
-93.6488
11
143.8
21
-94.5488
0
LINE
8
Black
10
132.8
20
-94.25
11
131.6
21
-94.25
0
LINE
8
Black
10
131.6
20
-94.25
11
131.6
21
-93.75
0
LINE
8
Black
10
131.6
20
-93.75
11
132.8
21
-93.75
0
LINE
8
Black
10
132.8
20
-93.75
11
132.8
21
-94.25
0
LINE
8
Black
10
124.4
20
-94.25
11
123.2
21
-94.25
0
LINE
8
Black
10
123.2
20
-94.25
11
123.2
21
-93.75
0
LINE
8
Black
10
123.2
20
-93.75
11
124.4
21
-93.75
0
LINE
8
Black
10
124.4
20
-93.75
11
124.4
21
-94.25
0
LINE
8
Black
10
132.8
20
-93.45
11
131.6
21
-93.45
0
LINE
8
Black
10
131.6
20
-93.45
11
131.6
21
-92.95
0
LINE
8
Black
10
131.6
20
-92.95
11
132.8
21
-92.95
0
LINE
8
Black
10
132.8
20
-92.95
11
132.8
21
-93.45
0
LINE
8
Black
10
124.4
20
-93.45
11
123.2
21
-93.45
0
LINE
8
Black
10
123.2
20
-93.45
11
123.2
21
-92.95
0
LINE
8
Black
10
123.2
20
-92.95
11
124.4
21
-92.95
0
LINE
8
Black
10
124.4
20
-92.95
11
124.4
21
-93.45
0
LINE
8
Black
10
132.8
20
-92.65
11
131.6
21
-92.65
0
LINE
8
Black
10
131.6
20
-92.65
11
131.6
21
-92.15
0
LINE
8
Black
10
131.6
20
-92.15
11
132.8
21
-92.15
0
LINE
8
Black
10
132.8
20
-92.15
11
132.8
21
-92.65
0
LINE
8
Black
10
124.4
20
-92.65
11
123.2
21
-92.65
0
LINE
8
Black
10
123.2
20
-92.65
11
123.2
21
-92.15
0
LINE
8
Black
10
123.2
20
-92.15
11
124.4
21
-92.15
0
LINE
8
Black
10
124.4
20
-92.15
11
124.4
21
-92.65
0
LINE
8
Black
10
124.4
20
-91.85
11
123.2
21
-91.85
0
LINE
8
Black
10
123.2
20
-91.85
11
123.2
21
-91.35
0
LINE
8
Black
10
123.2
20
-91.35
11
124.4
21
-91.35
0
LINE
8
Black
10
124.4
20
-91.35
11
124.4
21
-91.85
0
LINE
8
Black
10
132.8
20
-91.85
11
131.6
21
-91.85
0
LINE
8
Black
10
131.6
20
-91.85
11
131.6
21
-91.35
0
LINE
8
Black
10
131.6
20
-91.35
11
132.8
21
-91.35
0
LINE
8
Black
10
132.8
20
-91.35
11
132.8
21
-91.85
0
LINE
8
Black
10
132.8
20
-91.05
11
131.6
21
-91.05
0
LINE
8
Black
10
131.6
20
-91.05
11
131.6
21
-90.55
0
LINE
8
Black
10
131.6
20
-90.55
11
132.8
21
-90.55
0
LINE
8
Black
10
132.8
20
-90.55
11
132.8
21
-91.05
0
LINE
8
Black
10
124.4
20
-91.05
11
123.2
21
-91.05
0
LINE
8
Black
10
123.2
20
-91.05
11
123.2
21
-90.55
0
LINE
8
Black
10
123.2
20
-90.55
11
124.4
21
-90.55
0
LINE
8
Black
10
124.4
20
-90.55
11
124.4
21
-91.05
0
LINE
8
Black
10
132.8
20
-90.25
11
131.6
21
-90.25
0
LINE
8
Black
10
131.6
20
-90.25
11
131.6
21
-89.75
0
LINE
8
Black
10
131.6
20
-89.75
11
132.8
21
-89.75
0
LINE
8
Black
10
132.8
20
-89.75
11
132.8
21
-90.25
0
LINE
8
Black
10
124.4
20
-90.25
11
123.2
21
-90.25
0
LINE
8
Black
10
123.2
20
-90.25
11
123.2
21
-89.75
0
LINE
8
Black
10
123.2
20
-89.75
11
124.4
21
-89.75
0
LINE
8
Black
10
124.4
20
-89.75
11
124.4
21
-90.25
0
LINE
8
Black
10
132.8
20
-89.45
11
131.6
21
-89.45
0
LINE
8
Black
10
131.6
20
-89.45
11
131.6
21
-88.95
0
LINE
8
Black
10
131.6
20
-88.95
11
132.8
21
-88.95
0
LINE
8
Black
10
132.8
20
-88.95
11
132.8
21
-89.45
0
LINE
8
Black
10
124.4
20
-89.45
11
123.2
21
-89.45
0
LINE
8
Black
10
123.2
20
-89.45
11
123.2
21
-88.95
0
LINE
8
Black
10
123.2
20
-88.95
11
124.4
21
-88.95
0
LINE
8
Black
10
124.4
20
-88.95
11
124.4
21
-89.45
0
LINE
8
Black
10
125.45
20
-88.4
11
124.95
21
-88.4
0
LINE
8
Black
10
124.95
20
-88.4
11
124.95
21
-87.2
0
LINE
8
Black
10
124.95
20
-87.2
11
125.45
21
-87.2
0
LINE
8
Black
10
125.45
20
-87.2
11
125.45
21
-88.4
0
LINE
8
Black
10
126.25
20
-88.4
11
125.75
21
-88.4
0
LINE
8
Black
10
125.75
20
-88.4
11
125.75
21
-87.2
0
LINE
8
Black
10
125.75
20
-87.2
11
126.25
21
-87.2
0
LINE
8
Black
10
126.25
20
-87.2
11
126.25
21
-88.4
0
LINE
8
Black
10
127.05
20
-88.4
11
126.55
21
-88.4
0
LINE
8
Black
10
126.55
20
-88.4
11
126.55
21
-87.2
0
LINE
8
Black
10
126.55
20
-87.2
11
127.05
21
-87.2
0
LINE
8
Black
10
127.05
20
-87.2
11
127.05
21
-88.4
0
LINE
8
Black
10
127.85
20
-88.4
11
127.35
21
-88.4
0
LINE
8
Black
10
127.35
20
-88.4
11
127.35
21
-87.2
0
LINE
8
Black
10
127.35
20
-87.2
11
127.85
21
-87.2
0
LINE
8
Black
10
127.85
20
-87.2
11
127.85
21
-88.4
0
LINE
8
Black
10
128.65
20
-88.4
11
128.15
21
-88.4
0
LINE
8
Black
10
128.15
20
-88.4
11
128.15
21
-87.2
0
LINE
8
Black
10
128.15
20
-87.2
11
128.65
21
-87.2
0
LINE
8
Black
10
128.65
20
-87.2
11
128.65
21
-88.4
0
LINE
8
Black
10
129.45
20
-88.4
11
128.95
21
-88.4
0
LINE
8
Black
10
128.95
20
-88.4
11
128.95
21
-87.2
0
LINE
8
Black
10
128.95
20
-87.2
11
129.45
21
-87.2
0
LINE
8
Black
10
129.45
20
-87.2
11
129.45
21
-88.4
0
LINE
8
Black
10
130.25
20
-88.4
11
129.75
21
-88.4
0
LINE
8
Black
10
129.75
20
-88.4
11
129.75
21
-87.2
0
LINE
8
Black
10
129.75
20
-87.2
11
130.25
21
-87.2
0
LINE
8
Black
10
130.25
20
-87.2
11
130.25
21
-88.4
0
LINE
8
Black
10
131.05
20
-88.4
11
130.55
21
-88.4
0
LINE
8
Black
10
130.55
20
-88.4
11
130.55
21
-87.2
0
LINE
8
Black
10
130.55
20
-87.2
11
131.05
21
-87.2
0
LINE
8
Black
10
131.05
20
-87.2
11
131.05
21
-88.4
  0
ENDSEC
  0
EOF
