G04 #@! TF.FileFunction,Legend,Top*
%FSLAX46Y46*%
G04 Gerber Fmt 4.6, Leading zero omitted, Abs format (unit mm)*
G04 Created by KiCad (PCBNEW 4.0.6) date 10/01/17 10:03:43*
%MOMM*%
%LPD*%
G01*
G04 APERTURE LIST*
%ADD10C,0.100000*%
%ADD11C,0.250000*%
%ADD12C,0.150000*%
%ADD13C,0.120000*%
%ADD14C,0.010000*%
G04 APERTURE END LIST*
D10*
X146138095Y-101476190D02*
X146138095Y-100976190D01*
X146290476Y-100976190D01*
X146328571Y-101000000D01*
X146347619Y-101023810D01*
X146366667Y-101071429D01*
X146366667Y-101142857D01*
X146347619Y-101190476D01*
X146328571Y-101214286D01*
X146290476Y-101238095D01*
X146138095Y-101238095D01*
X146538095Y-101476190D02*
X146538095Y-101142857D01*
X146538095Y-101238095D02*
X146557143Y-101190476D01*
X146576190Y-101166667D01*
X146614286Y-101142857D01*
X146652381Y-101142857D01*
X146938095Y-101452381D02*
X146900000Y-101476190D01*
X146823809Y-101476190D01*
X146785714Y-101452381D01*
X146766666Y-101404762D01*
X146766666Y-101214286D01*
X146785714Y-101166667D01*
X146823809Y-101142857D01*
X146900000Y-101142857D01*
X146938095Y-101166667D01*
X146957143Y-101214286D01*
X146957143Y-101261905D01*
X146766666Y-101309524D01*
X147109523Y-101452381D02*
X147147619Y-101476190D01*
X147223809Y-101476190D01*
X147261904Y-101452381D01*
X147280952Y-101404762D01*
X147280952Y-101380952D01*
X147261904Y-101333333D01*
X147223809Y-101309524D01*
X147166666Y-101309524D01*
X147128571Y-101285714D01*
X147109523Y-101238095D01*
X147109523Y-101214286D01*
X147128571Y-101166667D01*
X147166666Y-101142857D01*
X147223809Y-101142857D01*
X147261904Y-101166667D01*
X147433333Y-101452381D02*
X147471429Y-101476190D01*
X147547619Y-101476190D01*
X147585714Y-101452381D01*
X147604762Y-101404762D01*
X147604762Y-101380952D01*
X147585714Y-101333333D01*
X147547619Y-101309524D01*
X147490476Y-101309524D01*
X147452381Y-101285714D01*
X147433333Y-101238095D01*
X147433333Y-101214286D01*
X147452381Y-101166667D01*
X147490476Y-101142857D01*
X147547619Y-101142857D01*
X147585714Y-101166667D01*
X147947620Y-101142857D02*
X147947620Y-101476190D01*
X147776191Y-101142857D02*
X147776191Y-101404762D01*
X147795239Y-101452381D01*
X147833334Y-101476190D01*
X147890477Y-101476190D01*
X147928572Y-101452381D01*
X147947620Y-101428571D01*
X148138096Y-101476190D02*
X148138096Y-101142857D01*
X148138096Y-101238095D02*
X148157144Y-101190476D01*
X148176191Y-101166667D01*
X148214287Y-101142857D01*
X148252382Y-101142857D01*
X148538096Y-101452381D02*
X148500001Y-101476190D01*
X148423810Y-101476190D01*
X148385715Y-101452381D01*
X148366667Y-101404762D01*
X148366667Y-101214286D01*
X148385715Y-101166667D01*
X148423810Y-101142857D01*
X148500001Y-101142857D01*
X148538096Y-101166667D01*
X148557144Y-101214286D01*
X148557144Y-101261905D01*
X148366667Y-101309524D01*
X149014286Y-101452381D02*
X149071429Y-101476190D01*
X149166667Y-101476190D01*
X149204763Y-101452381D01*
X149223810Y-101428571D01*
X149242858Y-101380952D01*
X149242858Y-101333333D01*
X149223810Y-101285714D01*
X149204763Y-101261905D01*
X149166667Y-101238095D01*
X149090477Y-101214286D01*
X149052382Y-101190476D01*
X149033334Y-101166667D01*
X149014286Y-101119048D01*
X149014286Y-101071429D01*
X149033334Y-101023810D01*
X149052382Y-101000000D01*
X149090477Y-100976190D01*
X149185715Y-100976190D01*
X149242858Y-101000000D01*
X149566667Y-101452381D02*
X149528572Y-101476190D01*
X149452381Y-101476190D01*
X149414286Y-101452381D01*
X149395238Y-101404762D01*
X149395238Y-101214286D01*
X149414286Y-101166667D01*
X149452381Y-101142857D01*
X149528572Y-101142857D01*
X149566667Y-101166667D01*
X149585715Y-101214286D01*
X149585715Y-101261905D01*
X149395238Y-101309524D01*
X149757143Y-101142857D02*
X149757143Y-101476190D01*
X149757143Y-101190476D02*
X149776191Y-101166667D01*
X149814286Y-101142857D01*
X149871429Y-101142857D01*
X149909524Y-101166667D01*
X149928572Y-101214286D01*
X149928572Y-101476190D01*
X150100000Y-101452381D02*
X150138096Y-101476190D01*
X150214286Y-101476190D01*
X150252381Y-101452381D01*
X150271429Y-101404762D01*
X150271429Y-101380952D01*
X150252381Y-101333333D01*
X150214286Y-101309524D01*
X150157143Y-101309524D01*
X150119048Y-101285714D01*
X150100000Y-101238095D01*
X150100000Y-101214286D01*
X150119048Y-101166667D01*
X150157143Y-101142857D01*
X150214286Y-101142857D01*
X150252381Y-101166667D01*
X150500001Y-101476190D02*
X150461906Y-101452381D01*
X150442858Y-101428571D01*
X150423810Y-101380952D01*
X150423810Y-101238095D01*
X150442858Y-101190476D01*
X150461906Y-101166667D01*
X150500001Y-101142857D01*
X150557144Y-101142857D01*
X150595239Y-101166667D01*
X150614287Y-101190476D01*
X150633334Y-101238095D01*
X150633334Y-101380952D01*
X150614287Y-101428571D01*
X150595239Y-101452381D01*
X150557144Y-101476190D01*
X150500001Y-101476190D01*
X150804763Y-101476190D02*
X150804763Y-101142857D01*
X150804763Y-101238095D02*
X150823811Y-101190476D01*
X150842858Y-101166667D01*
X150880954Y-101142857D01*
X150919049Y-101142857D01*
X146452381Y-102326190D02*
X146452381Y-101826190D01*
X146585714Y-102183333D01*
X146719048Y-101826190D01*
X146719048Y-102326190D01*
X146966667Y-102326190D02*
X146928572Y-102302381D01*
X146909524Y-102278571D01*
X146890476Y-102230952D01*
X146890476Y-102088095D01*
X146909524Y-102040476D01*
X146928572Y-102016667D01*
X146966667Y-101992857D01*
X147023810Y-101992857D01*
X147061905Y-102016667D01*
X147080953Y-102040476D01*
X147100000Y-102088095D01*
X147100000Y-102230952D01*
X147080953Y-102278571D01*
X147061905Y-102302381D01*
X147023810Y-102326190D01*
X146966667Y-102326190D01*
X147442858Y-102326190D02*
X147442858Y-101826190D01*
X147442858Y-102302381D02*
X147404762Y-102326190D01*
X147328572Y-102326190D01*
X147290477Y-102302381D01*
X147271429Y-102278571D01*
X147252381Y-102230952D01*
X147252381Y-102088095D01*
X147271429Y-102040476D01*
X147290477Y-102016667D01*
X147328572Y-101992857D01*
X147404762Y-101992857D01*
X147442858Y-102016667D01*
X147804763Y-101992857D02*
X147804763Y-102326190D01*
X147633334Y-101992857D02*
X147633334Y-102254762D01*
X147652382Y-102302381D01*
X147690477Y-102326190D01*
X147747620Y-102326190D01*
X147785715Y-102302381D01*
X147804763Y-102278571D01*
X148052382Y-102326190D02*
X148014287Y-102302381D01*
X147995239Y-102254762D01*
X147995239Y-101826190D01*
X148357144Y-102302381D02*
X148319049Y-102326190D01*
X148242858Y-102326190D01*
X148204763Y-102302381D01*
X148185715Y-102254762D01*
X148185715Y-102064286D01*
X148204763Y-102016667D01*
X148242858Y-101992857D01*
X148319049Y-101992857D01*
X148357144Y-102016667D01*
X148376192Y-102064286D01*
X148376192Y-102111905D01*
X148185715Y-102159524D01*
X148852382Y-102135714D02*
X149157144Y-102135714D01*
X149633334Y-102302381D02*
X149690477Y-102326190D01*
X149785715Y-102326190D01*
X149823811Y-102302381D01*
X149842858Y-102278571D01*
X149861906Y-102230952D01*
X149861906Y-102183333D01*
X149842858Y-102135714D01*
X149823811Y-102111905D01*
X149785715Y-102088095D01*
X149709525Y-102064286D01*
X149671430Y-102040476D01*
X149652382Y-102016667D01*
X149633334Y-101969048D01*
X149633334Y-101921429D01*
X149652382Y-101873810D01*
X149671430Y-101850000D01*
X149709525Y-101826190D01*
X149804763Y-101826190D01*
X149861906Y-101850000D01*
X150185715Y-102302381D02*
X150147620Y-102326190D01*
X150071429Y-102326190D01*
X150033334Y-102302381D01*
X150014286Y-102254762D01*
X150014286Y-102064286D01*
X150033334Y-102016667D01*
X150071429Y-101992857D01*
X150147620Y-101992857D01*
X150185715Y-102016667D01*
X150204763Y-102064286D01*
X150204763Y-102111905D01*
X150014286Y-102159524D01*
X150376191Y-101992857D02*
X150376191Y-102492857D01*
X150376191Y-102016667D02*
X150414286Y-101992857D01*
X150490477Y-101992857D01*
X150528572Y-102016667D01*
X150547620Y-102040476D01*
X150566667Y-102088095D01*
X150566667Y-102230952D01*
X150547620Y-102278571D01*
X150528572Y-102302381D01*
X150490477Y-102326190D01*
X150414286Y-102326190D01*
X150376191Y-102302381D01*
X147814286Y-102723810D02*
X147833334Y-102700000D01*
X147871429Y-102676190D01*
X147966667Y-102676190D01*
X148004763Y-102700000D01*
X148023810Y-102723810D01*
X148042858Y-102771429D01*
X148042858Y-102819048D01*
X148023810Y-102890476D01*
X147795239Y-103176190D01*
X148042858Y-103176190D01*
X148290477Y-102676190D02*
X148328572Y-102676190D01*
X148366667Y-102700000D01*
X148385715Y-102723810D01*
X148404762Y-102771429D01*
X148423810Y-102866667D01*
X148423810Y-102985714D01*
X148404762Y-103080952D01*
X148385715Y-103128571D01*
X148366667Y-103152381D01*
X148328572Y-103176190D01*
X148290477Y-103176190D01*
X148252381Y-103152381D01*
X148233334Y-103128571D01*
X148214286Y-103080952D01*
X148195238Y-102985714D01*
X148195238Y-102866667D01*
X148214286Y-102771429D01*
X148233334Y-102723810D01*
X148252381Y-102700000D01*
X148290477Y-102676190D01*
X148804762Y-103176190D02*
X148576190Y-103176190D01*
X148690476Y-103176190D02*
X148690476Y-102676190D01*
X148652381Y-102747619D01*
X148614286Y-102795238D01*
X148576190Y-102819048D01*
X148938095Y-102676190D02*
X149204762Y-102676190D01*
X149033333Y-103176190D01*
D11*
X142285715Y-104452381D02*
X141714286Y-104452381D01*
X142000000Y-104452381D02*
X142000000Y-103452381D01*
X141904762Y-103595238D01*
X141809524Y-103690476D01*
X141714286Y-103738095D01*
D12*
X136015429Y-102042857D02*
X136415429Y-102042857D01*
X135786857Y-102185714D02*
X136215429Y-102328571D01*
X136215429Y-101957143D01*
X135815429Y-101785714D02*
X135815429Y-101385714D01*
X136415429Y-101642857D01*
X136015429Y-100899999D02*
X136415429Y-100899999D01*
X136015429Y-101157142D02*
X136329714Y-101157142D01*
X136386857Y-101128570D01*
X136415429Y-101071428D01*
X136415429Y-100985713D01*
X136386857Y-100928570D01*
X136358286Y-100899999D01*
D13*
X139990000Y-103450000D02*
X132890000Y-103450000D01*
X139990000Y-99750000D02*
X132890000Y-99750000D01*
X139990000Y-103450000D02*
X139990000Y-99750000D01*
X138490000Y-107315000D02*
X138490000Y-112455000D01*
X138490000Y-112455000D02*
X133290000Y-112455000D01*
X133290000Y-112455000D02*
X133290000Y-104715000D01*
X133290000Y-104715000D02*
X135890000Y-104715000D01*
X135890000Y-104715000D02*
X135890000Y-107315000D01*
X135890000Y-107315000D02*
X138490000Y-107315000D01*
X138490000Y-106045000D02*
X138490000Y-104715000D01*
X138490000Y-104715000D02*
X137220000Y-104715000D01*
D12*
X153145000Y-104760000D02*
X153145000Y-112360000D01*
X153145000Y-104760000D02*
X152545000Y-104160000D01*
X145145000Y-104160000D02*
X152545000Y-104160000D01*
X144545000Y-104760000D02*
X145145000Y-104160000D01*
X144545000Y-112360000D02*
X144545000Y-104760000D01*
X145145000Y-112960000D02*
X144545000Y-112360000D01*
X152545000Y-112960000D02*
X145145000Y-112960000D01*
X153145000Y-112360000D02*
X152545000Y-112960000D01*
D14*
G36*
X151040000Y-100563600D02*
X145960000Y-100563600D01*
X145960000Y-99671897D01*
X146067277Y-99671897D01*
X146077243Y-99810720D01*
X146099105Y-99935486D01*
X146126135Y-100016095D01*
X146213103Y-100143908D01*
X146332096Y-100236711D01*
X146475708Y-100291524D01*
X146636533Y-100305363D01*
X146785500Y-100281533D01*
X146857164Y-100253910D01*
X147102595Y-100253910D01*
X147121796Y-100275531D01*
X147182360Y-100280814D01*
X147210785Y-100279310D01*
X147273067Y-100272276D01*
X147310775Y-100254331D01*
X147337590Y-100213011D01*
X147366683Y-100137272D01*
X147414794Y-100003044D01*
X147654996Y-100010272D01*
X147895197Y-100017500D01*
X147937248Y-100144500D01*
X147963659Y-100218408D01*
X147989767Y-100256945D01*
X148031133Y-100272999D01*
X148099950Y-100279241D01*
X148173478Y-100281203D01*
X148208880Y-100272073D01*
X148218320Y-100247930D01*
X148218174Y-100241141D01*
X148209557Y-100204888D01*
X148186686Y-100127930D01*
X148151892Y-100017577D01*
X148107506Y-99881141D01*
X148055860Y-99725932D01*
X148021324Y-99623800D01*
X147826900Y-99052300D01*
X147497324Y-99052300D01*
X147393059Y-99357100D01*
X147306924Y-99609895D01*
X147237039Y-99817256D01*
X147182619Y-99981610D01*
X147142879Y-100105380D01*
X147117034Y-100190992D01*
X147104297Y-100240871D01*
X147102595Y-100253910D01*
X146857164Y-100253910D01*
X146890546Y-100241043D01*
X146951716Y-100185970D01*
X146975252Y-100110031D01*
X146976000Y-100089763D01*
X146973395Y-100032543D01*
X146967028Y-100005193D01*
X146966073Y-100004800D01*
X146939163Y-100014374D01*
X146881965Y-100038706D01*
X146845423Y-100055042D01*
X146705754Y-100099460D01*
X146584865Y-100096906D01*
X146481567Y-100047115D01*
X146398912Y-99956223D01*
X146365221Y-99894160D01*
X146347353Y-99823156D01*
X146341193Y-99724683D01*
X146341000Y-99695427D01*
X146352551Y-99535253D01*
X146388907Y-99413498D01*
X146452621Y-99322912D01*
X146481047Y-99297864D01*
X146575466Y-99253353D01*
X146688187Y-99244745D01*
X146801371Y-99272243D01*
X146843263Y-99293694D01*
X146916001Y-99333121D01*
X146956426Y-99337801D01*
X146972058Y-99304517D01*
X146971110Y-99238989D01*
X146953122Y-99151916D01*
X146909236Y-99093809D01*
X146899439Y-99086101D01*
X146813135Y-99045948D01*
X146779615Y-99039600D01*
X148398400Y-99039600D01*
X148398541Y-99477750D01*
X148400093Y-99629289D01*
X148404298Y-99769739D01*
X148410626Y-99888395D01*
X148418549Y-99974552D01*
X148424845Y-100010100D01*
X148482045Y-100127237D01*
X148576703Y-100217925D01*
X148701164Y-100279066D01*
X148847771Y-100307565D01*
X149008868Y-100300325D01*
X149095708Y-100281440D01*
X149210228Y-100225930D01*
X149308502Y-100134809D01*
X149375353Y-100023255D01*
X149386240Y-99990908D01*
X149395696Y-99931577D01*
X149403796Y-99832584D01*
X149409947Y-99705061D01*
X149413556Y-99560141D01*
X149414258Y-99465050D01*
X149414394Y-99054767D01*
X149610899Y-99054767D01*
X149615473Y-99080777D01*
X149634136Y-99146818D01*
X149664242Y-99244952D01*
X149703150Y-99367245D01*
X149748216Y-99505759D01*
X149796796Y-99652560D01*
X149846249Y-99799711D01*
X149893931Y-99939276D01*
X149937198Y-100063320D01*
X149973408Y-100163906D01*
X149999918Y-100233099D01*
X150012619Y-100260934D01*
X150043894Y-100273482D01*
X150109977Y-100281929D01*
X150174936Y-100284200D01*
X150262549Y-100281111D01*
X150311559Y-100269652D01*
X150333909Y-100246536D01*
X150336377Y-100239750D01*
X150348336Y-100203748D01*
X150374461Y-100127191D01*
X150412197Y-100017494D01*
X150458990Y-99882071D01*
X150512285Y-99728338D01*
X150542539Y-99641268D01*
X150597467Y-99482261D01*
X150646298Y-99338895D01*
X150686674Y-99218252D01*
X150716242Y-99127415D01*
X150732643Y-99073469D01*
X150735200Y-99062026D01*
X150712364Y-99048477D01*
X150653321Y-99043331D01*
X150614550Y-99044558D01*
X150493900Y-99052300D01*
X150401402Y-99344400D01*
X150357781Y-99483386D01*
X150312986Y-99628176D01*
X150273142Y-99758873D01*
X150250880Y-99833350D01*
X150222137Y-99924566D01*
X150196933Y-99993343D01*
X150179624Y-100028123D01*
X150176665Y-100030200D01*
X150163005Y-100007511D01*
X150140453Y-99946952D01*
X150113032Y-99859784D01*
X150101787Y-99820650D01*
X150068709Y-99705256D01*
X150026758Y-99562780D01*
X149982273Y-99414609D01*
X149954993Y-99325349D01*
X149866887Y-99039599D01*
X149746477Y-99039599D01*
X149672406Y-99042548D01*
X149621703Y-99050025D01*
X149610899Y-99054767D01*
X149414394Y-99054767D01*
X149414400Y-99039600D01*
X149160400Y-99039600D01*
X149160400Y-99957907D01*
X149086153Y-100032153D01*
X149017526Y-100085562D01*
X148940731Y-100105241D01*
X148906400Y-100106400D01*
X148819794Y-100095690D01*
X148751635Y-100055497D01*
X148726646Y-100032153D01*
X148652400Y-99957907D01*
X148652400Y-99039600D01*
X148398400Y-99039600D01*
X146779615Y-99039600D01*
X146697540Y-99024057D01*
X146571506Y-99022477D01*
X146468000Y-99039228D01*
X146354060Y-99091792D01*
X146244719Y-99180666D01*
X146153343Y-99292117D01*
X146093297Y-99412418D01*
X146088057Y-99429523D01*
X146070462Y-99538378D01*
X146067277Y-99671897D01*
X145960000Y-99671897D01*
X145960000Y-98861800D01*
X151040000Y-98861800D01*
X151040000Y-100563600D01*
X151040000Y-100563600D01*
G37*
X151040000Y-100563600D02*
X145960000Y-100563600D01*
X145960000Y-99671897D01*
X146067277Y-99671897D01*
X146077243Y-99810720D01*
X146099105Y-99935486D01*
X146126135Y-100016095D01*
X146213103Y-100143908D01*
X146332096Y-100236711D01*
X146475708Y-100291524D01*
X146636533Y-100305363D01*
X146785500Y-100281533D01*
X146857164Y-100253910D01*
X147102595Y-100253910D01*
X147121796Y-100275531D01*
X147182360Y-100280814D01*
X147210785Y-100279310D01*
X147273067Y-100272276D01*
X147310775Y-100254331D01*
X147337590Y-100213011D01*
X147366683Y-100137272D01*
X147414794Y-100003044D01*
X147654996Y-100010272D01*
X147895197Y-100017500D01*
X147937248Y-100144500D01*
X147963659Y-100218408D01*
X147989767Y-100256945D01*
X148031133Y-100272999D01*
X148099950Y-100279241D01*
X148173478Y-100281203D01*
X148208880Y-100272073D01*
X148218320Y-100247930D01*
X148218174Y-100241141D01*
X148209557Y-100204888D01*
X148186686Y-100127930D01*
X148151892Y-100017577D01*
X148107506Y-99881141D01*
X148055860Y-99725932D01*
X148021324Y-99623800D01*
X147826900Y-99052300D01*
X147497324Y-99052300D01*
X147393059Y-99357100D01*
X147306924Y-99609895D01*
X147237039Y-99817256D01*
X147182619Y-99981610D01*
X147142879Y-100105380D01*
X147117034Y-100190992D01*
X147104297Y-100240871D01*
X147102595Y-100253910D01*
X146857164Y-100253910D01*
X146890546Y-100241043D01*
X146951716Y-100185970D01*
X146975252Y-100110031D01*
X146976000Y-100089763D01*
X146973395Y-100032543D01*
X146967028Y-100005193D01*
X146966073Y-100004800D01*
X146939163Y-100014374D01*
X146881965Y-100038706D01*
X146845423Y-100055042D01*
X146705754Y-100099460D01*
X146584865Y-100096906D01*
X146481567Y-100047115D01*
X146398912Y-99956223D01*
X146365221Y-99894160D01*
X146347353Y-99823156D01*
X146341193Y-99724683D01*
X146341000Y-99695427D01*
X146352551Y-99535253D01*
X146388907Y-99413498D01*
X146452621Y-99322912D01*
X146481047Y-99297864D01*
X146575466Y-99253353D01*
X146688187Y-99244745D01*
X146801371Y-99272243D01*
X146843263Y-99293694D01*
X146916001Y-99333121D01*
X146956426Y-99337801D01*
X146972058Y-99304517D01*
X146971110Y-99238989D01*
X146953122Y-99151916D01*
X146909236Y-99093809D01*
X146899439Y-99086101D01*
X146813135Y-99045948D01*
X146779615Y-99039600D01*
X148398400Y-99039600D01*
X148398541Y-99477750D01*
X148400093Y-99629289D01*
X148404298Y-99769739D01*
X148410626Y-99888395D01*
X148418549Y-99974552D01*
X148424845Y-100010100D01*
X148482045Y-100127237D01*
X148576703Y-100217925D01*
X148701164Y-100279066D01*
X148847771Y-100307565D01*
X149008868Y-100300325D01*
X149095708Y-100281440D01*
X149210228Y-100225930D01*
X149308502Y-100134809D01*
X149375353Y-100023255D01*
X149386240Y-99990908D01*
X149395696Y-99931577D01*
X149403796Y-99832584D01*
X149409947Y-99705061D01*
X149413556Y-99560141D01*
X149414258Y-99465050D01*
X149414394Y-99054767D01*
X149610899Y-99054767D01*
X149615473Y-99080777D01*
X149634136Y-99146818D01*
X149664242Y-99244952D01*
X149703150Y-99367245D01*
X149748216Y-99505759D01*
X149796796Y-99652560D01*
X149846249Y-99799711D01*
X149893931Y-99939276D01*
X149937198Y-100063320D01*
X149973408Y-100163906D01*
X149999918Y-100233099D01*
X150012619Y-100260934D01*
X150043894Y-100273482D01*
X150109977Y-100281929D01*
X150174936Y-100284200D01*
X150262549Y-100281111D01*
X150311559Y-100269652D01*
X150333909Y-100246536D01*
X150336377Y-100239750D01*
X150348336Y-100203748D01*
X150374461Y-100127191D01*
X150412197Y-100017494D01*
X150458990Y-99882071D01*
X150512285Y-99728338D01*
X150542539Y-99641268D01*
X150597467Y-99482261D01*
X150646298Y-99338895D01*
X150686674Y-99218252D01*
X150716242Y-99127415D01*
X150732643Y-99073469D01*
X150735200Y-99062026D01*
X150712364Y-99048477D01*
X150653321Y-99043331D01*
X150614550Y-99044558D01*
X150493900Y-99052300D01*
X150401402Y-99344400D01*
X150357781Y-99483386D01*
X150312986Y-99628176D01*
X150273142Y-99758873D01*
X150250880Y-99833350D01*
X150222137Y-99924566D01*
X150196933Y-99993343D01*
X150179624Y-100028123D01*
X150176665Y-100030200D01*
X150163005Y-100007511D01*
X150140453Y-99946952D01*
X150113032Y-99859784D01*
X150101787Y-99820650D01*
X150068709Y-99705256D01*
X150026758Y-99562780D01*
X149982273Y-99414609D01*
X149954993Y-99325349D01*
X149866887Y-99039599D01*
X149746477Y-99039599D01*
X149672406Y-99042548D01*
X149621703Y-99050025D01*
X149610899Y-99054767D01*
X149414394Y-99054767D01*
X149414400Y-99039600D01*
X149160400Y-99039600D01*
X149160400Y-99957907D01*
X149086153Y-100032153D01*
X149017526Y-100085562D01*
X148940731Y-100105241D01*
X148906400Y-100106400D01*
X148819794Y-100095690D01*
X148751635Y-100055497D01*
X148726646Y-100032153D01*
X148652400Y-99957907D01*
X148652400Y-99039600D01*
X148398400Y-99039600D01*
X146779615Y-99039600D01*
X146697540Y-99024057D01*
X146571506Y-99022477D01*
X146468000Y-99039228D01*
X146354060Y-99091792D01*
X146244719Y-99180666D01*
X146153343Y-99292117D01*
X146093297Y-99412418D01*
X146088057Y-99429523D01*
X146070462Y-99538378D01*
X146067277Y-99671897D01*
X145960000Y-99671897D01*
X145960000Y-98861800D01*
X151040000Y-98861800D01*
X151040000Y-100563600D01*
G36*
X147636400Y-99636500D02*
X147623700Y-99649200D01*
X147611000Y-99636500D01*
X147623700Y-99623800D01*
X147636400Y-99636500D01*
X147636400Y-99636500D01*
G37*
X147636400Y-99636500D02*
X147623700Y-99649200D01*
X147611000Y-99636500D01*
X147623700Y-99623800D01*
X147636400Y-99636500D01*
G36*
X147712600Y-99611100D02*
X147699900Y-99623800D01*
X147687200Y-99611100D01*
X147699900Y-99598400D01*
X147712600Y-99611100D01*
X147712600Y-99611100D01*
G37*
X147712600Y-99611100D02*
X147699900Y-99623800D01*
X147687200Y-99611100D01*
X147699900Y-99598400D01*
X147712600Y-99611100D01*
G36*
X147661800Y-99534900D02*
X147686031Y-99557724D01*
X147687200Y-99561799D01*
X147667548Y-99572708D01*
X147661800Y-99573000D01*
X147637376Y-99553473D01*
X147636400Y-99546100D01*
X147651960Y-99530931D01*
X147661800Y-99534900D01*
X147661800Y-99534900D01*
G37*
X147661800Y-99534900D02*
X147686031Y-99557724D01*
X147687200Y-99561799D01*
X147667548Y-99572708D01*
X147661800Y-99573000D01*
X147637376Y-99553473D01*
X147636400Y-99546100D01*
X147651960Y-99530931D01*
X147661800Y-99534900D01*
G36*
X147788061Y-99541528D02*
X147788800Y-99547600D01*
X147769471Y-99572261D01*
X147763400Y-99573000D01*
X147738738Y-99553671D01*
X147738000Y-99547600D01*
X147757328Y-99522938D01*
X147763400Y-99522200D01*
X147788061Y-99541528D01*
X147788061Y-99541528D01*
G37*
X147788061Y-99541528D02*
X147788800Y-99547600D01*
X147769471Y-99572261D01*
X147763400Y-99573000D01*
X147738738Y-99553671D01*
X147738000Y-99547600D01*
X147757328Y-99522938D01*
X147763400Y-99522200D01*
X147788061Y-99541528D01*
G36*
X147623700Y-99446000D02*
X147625546Y-99488108D01*
X147616733Y-99501226D01*
X147585596Y-99510341D01*
X147572900Y-99496800D01*
X147571053Y-99454691D01*
X147579866Y-99441573D01*
X147611003Y-99432458D01*
X147623700Y-99446000D01*
X147623700Y-99446000D01*
G37*
X147623700Y-99446000D02*
X147625546Y-99488108D01*
X147616733Y-99501226D01*
X147585596Y-99510341D01*
X147572900Y-99496800D01*
X147571053Y-99454691D01*
X147579866Y-99441573D01*
X147611003Y-99432458D01*
X147623700Y-99446000D01*
G36*
X147735310Y-99441195D02*
X147738000Y-99458700D01*
X147722401Y-99493730D01*
X147687332Y-99487453D01*
X147679423Y-99480557D01*
X147674287Y-99448894D01*
X147700031Y-99423222D01*
X147714099Y-99420600D01*
X147735310Y-99441195D01*
X147735310Y-99441195D01*
G37*
X147735310Y-99441195D02*
X147738000Y-99458700D01*
X147722401Y-99493730D01*
X147687332Y-99487453D01*
X147679423Y-99480557D01*
X147674287Y-99448894D01*
X147700031Y-99423222D01*
X147714099Y-99420600D01*
X147735310Y-99441195D01*
G36*
X147705671Y-99314748D02*
X147712600Y-99344400D01*
X147694524Y-99385262D01*
X147656027Y-99394187D01*
X147623700Y-99369800D01*
X147620389Y-99327196D01*
X147653420Y-99297417D01*
X147675999Y-99293600D01*
X147705671Y-99314748D01*
X147705671Y-99314748D01*
G37*
X147705671Y-99314748D02*
X147712600Y-99344400D01*
X147694524Y-99385262D01*
X147656027Y-99394187D01*
X147623700Y-99369800D01*
X147620389Y-99327196D01*
X147653420Y-99297417D01*
X147675999Y-99293600D01*
X147705671Y-99314748D01*
M02*
