G04 #@! TF.FileFunction,Copper,L1,Top,Signal*
%FSLAX46Y46*%
G04 Gerber Fmt 4.6, Leading zero omitted, Abs format (unit mm)*
G04 Created by KiCad (PCBNEW 4.0.6) date 10/01/17 10:03:43*
%MOMM*%
%LPD*%
G01*
G04 APERTURE LIST*
%ADD10C,0.100000*%
%ADD11R,2.550000X2.500000*%
%ADD12R,1.700000X1.700000*%
%ADD13O,1.700000X1.700000*%
%ADD14R,2.800000X1.000000*%
%ADD15R,1.000000X1.300000*%
%ADD16R,1.500000X1.000000*%
%ADD17R,1.300000X1.000000*%
%ADD18R,0.700000X1.005000*%
%ADD19C,0.600000*%
%ADD20C,0.200000*%
%ADD21C,0.254000*%
G04 APERTURE END LIST*
D10*
D11*
X138415000Y-101600000D03*
X133365000Y-101600000D03*
D12*
X137160000Y-106045000D03*
D13*
X134620000Y-106045000D03*
X137160000Y-108585000D03*
X134620000Y-108585000D03*
X137160000Y-111125000D03*
X134620000Y-111125000D03*
D14*
X144145000Y-111760000D03*
X144145000Y-110490000D03*
X144145000Y-109220000D03*
X144145000Y-107950000D03*
X144145000Y-106680000D03*
X144145000Y-105410000D03*
D15*
X150745000Y-112922500D03*
D16*
X153495000Y-111760000D03*
X153495000Y-110490000D03*
X153495000Y-109220000D03*
X153495000Y-107950000D03*
X153495000Y-106680000D03*
D17*
X153595000Y-105410000D03*
D18*
X152295000Y-105407500D03*
D15*
X152145000Y-104255000D03*
D19*
X140970000Y-105410000D03*
X133350000Y-104140000D03*
X140970000Y-110490000D03*
D20*
X144145000Y-105410000D02*
X140970000Y-105410000D01*
X133365000Y-101600000D02*
X133365000Y-104125000D01*
X133365000Y-104125000D02*
X133350000Y-104140000D01*
X144145000Y-110490000D02*
X140970000Y-110490000D01*
X144145000Y-106680000D02*
X140335000Y-106680000D01*
X135890000Y-107315000D02*
X134620000Y-108585000D01*
X139700000Y-107315000D02*
X135890000Y-107315000D01*
X140335000Y-106680000D02*
X139700000Y-107315000D01*
X144145000Y-109220000D02*
X140970000Y-109220000D01*
X139065000Y-111125000D02*
X137160000Y-111125000D01*
X140970000Y-109220000D02*
X139065000Y-111125000D01*
X144145000Y-107950000D02*
X140335000Y-107950000D01*
X135890000Y-109855000D02*
X134620000Y-111125000D01*
X138430000Y-109855000D02*
X135890000Y-109855000D01*
X140335000Y-107950000D02*
X138430000Y-109855000D01*
D21*
G36*
X154315000Y-99153768D02*
X154267679Y-99106364D01*
X153446519Y-98765389D01*
X152557381Y-98764613D01*
X151735628Y-99104155D01*
X151106364Y-99732321D01*
X150765389Y-100553481D01*
X150764613Y-101442619D01*
X151104155Y-102264372D01*
X151732321Y-102893636D01*
X151886267Y-102957560D01*
X151645000Y-102957560D01*
X151409683Y-103001838D01*
X151193559Y-103140910D01*
X151048569Y-103353110D01*
X150997560Y-103605000D01*
X150997560Y-104905000D01*
X151041838Y-105140317D01*
X151180910Y-105356441D01*
X151297560Y-105436145D01*
X151297560Y-105910000D01*
X151341838Y-106145317D01*
X151480910Y-106361441D01*
X151693110Y-106506431D01*
X151945000Y-106557440D01*
X152097560Y-106557440D01*
X152097560Y-107180000D01*
X152123895Y-107319956D01*
X152097560Y-107450000D01*
X152097560Y-108450000D01*
X152123895Y-108589956D01*
X152097560Y-108720000D01*
X152097560Y-109720000D01*
X152123895Y-109859956D01*
X152097560Y-109990000D01*
X152097560Y-110990000D01*
X152123895Y-111129956D01*
X152097560Y-111260000D01*
X152097560Y-112260000D01*
X152141838Y-112495317D01*
X152280910Y-112711441D01*
X152493110Y-112856431D01*
X152745000Y-112907440D01*
X154245000Y-112907440D01*
X154315000Y-112894269D01*
X154315000Y-113315000D01*
X151892440Y-113315000D01*
X151892440Y-112272500D01*
X151848162Y-112037183D01*
X151709090Y-111821059D01*
X151496890Y-111676069D01*
X151245000Y-111625060D01*
X150245000Y-111625060D01*
X150009683Y-111669338D01*
X149793559Y-111808410D01*
X149648569Y-112020610D01*
X149597560Y-112272500D01*
X149597560Y-113315000D01*
X131685000Y-113315000D01*
X131685000Y-103341815D01*
X131838110Y-103446431D01*
X132090000Y-103497440D01*
X132630000Y-103497440D01*
X132630000Y-103537607D01*
X132557808Y-103609673D01*
X132415162Y-103953201D01*
X132414838Y-104325167D01*
X132556883Y-104668943D01*
X132819673Y-104932192D01*
X133163201Y-105074838D01*
X133487282Y-105075120D01*
X133218946Y-105476715D01*
X133105907Y-106045000D01*
X133218946Y-106613285D01*
X133540853Y-107095054D01*
X133870026Y-107315000D01*
X133540853Y-107534946D01*
X133218946Y-108016715D01*
X133105907Y-108585000D01*
X133218946Y-109153285D01*
X133540853Y-109635054D01*
X133870026Y-109855000D01*
X133540853Y-110074946D01*
X133218946Y-110556715D01*
X133105907Y-111125000D01*
X133218946Y-111693285D01*
X133540853Y-112175054D01*
X134022622Y-112496961D01*
X134590907Y-112610000D01*
X134649093Y-112610000D01*
X135217378Y-112496961D01*
X135699147Y-112175054D01*
X135890000Y-111889422D01*
X136080853Y-112175054D01*
X136562622Y-112496961D01*
X137130907Y-112610000D01*
X137189093Y-112610000D01*
X137757378Y-112496961D01*
X138239147Y-112175054D01*
X138325545Y-112045750D01*
X142110000Y-112045750D01*
X142110000Y-112386310D01*
X142206673Y-112619699D01*
X142385302Y-112798327D01*
X142618691Y-112895000D01*
X143859250Y-112895000D01*
X144018000Y-112736250D01*
X144018000Y-111887000D01*
X144272000Y-111887000D01*
X144272000Y-112736250D01*
X144430750Y-112895000D01*
X145671309Y-112895000D01*
X145904698Y-112798327D01*
X146083327Y-112619699D01*
X146180000Y-112386310D01*
X146180000Y-112045750D01*
X146021250Y-111887000D01*
X144272000Y-111887000D01*
X144018000Y-111887000D01*
X142268750Y-111887000D01*
X142110000Y-112045750D01*
X138325545Y-112045750D01*
X138449659Y-111860000D01*
X139065000Y-111860000D01*
X139346272Y-111804051D01*
X139584723Y-111644723D01*
X140193678Y-111035768D01*
X140439673Y-111282192D01*
X140783201Y-111424838D01*
X141155167Y-111425162D01*
X141498943Y-111283117D01*
X141557162Y-111225000D01*
X142110000Y-111225000D01*
X142110000Y-111474250D01*
X142268750Y-111633000D01*
X142723075Y-111633000D01*
X142745000Y-111637440D01*
X145545000Y-111637440D01*
X145568597Y-111633000D01*
X146021250Y-111633000D01*
X146180000Y-111474250D01*
X146180000Y-111133690D01*
X146168812Y-111106679D01*
X146192440Y-110990000D01*
X146192440Y-109990000D01*
X146166105Y-109850044D01*
X146192440Y-109720000D01*
X146192440Y-108720000D01*
X146166105Y-108580044D01*
X146192440Y-108450000D01*
X146192440Y-107450000D01*
X146166105Y-107310044D01*
X146192440Y-107180000D01*
X146192440Y-106180000D01*
X146166105Y-106040044D01*
X146192440Y-105910000D01*
X146192440Y-104910000D01*
X146148162Y-104674683D01*
X146009090Y-104458559D01*
X145796890Y-104313569D01*
X145545000Y-104262560D01*
X142745000Y-104262560D01*
X142509683Y-104306838D01*
X142293559Y-104445910D01*
X142148569Y-104658110D01*
X142145149Y-104675000D01*
X141557419Y-104675000D01*
X141500327Y-104617808D01*
X141156799Y-104475162D01*
X140784833Y-104474838D01*
X140441057Y-104616883D01*
X140177808Y-104879673D01*
X140035162Y-105223201D01*
X140034838Y-105595167D01*
X140176883Y-105938943D01*
X140208123Y-105970238D01*
X140053728Y-106000949D01*
X139815277Y-106160276D01*
X139395554Y-106580000D01*
X138645000Y-106580000D01*
X138645000Y-106330750D01*
X138486250Y-106172000D01*
X137287000Y-106172000D01*
X137287000Y-106192000D01*
X137033000Y-106192000D01*
X137033000Y-106172000D01*
X137013000Y-106172000D01*
X137013000Y-105918000D01*
X137033000Y-105918000D01*
X137033000Y-104718750D01*
X137287000Y-104718750D01*
X137287000Y-105918000D01*
X138486250Y-105918000D01*
X138645000Y-105759250D01*
X138645000Y-105068690D01*
X138548327Y-104835301D01*
X138369698Y-104656673D01*
X138136309Y-104560000D01*
X137445750Y-104560000D01*
X137287000Y-104718750D01*
X137033000Y-104718750D01*
X136874250Y-104560000D01*
X136183691Y-104560000D01*
X135950302Y-104656673D01*
X135771673Y-104835301D01*
X135703097Y-105000858D01*
X135699147Y-104994946D01*
X135217378Y-104673039D01*
X134649093Y-104560000D01*
X134590907Y-104560000D01*
X134151730Y-104647358D01*
X134284838Y-104326799D01*
X134285162Y-103954833D01*
X134143117Y-103611057D01*
X134100000Y-103567865D01*
X134100000Y-103497440D01*
X134640000Y-103497440D01*
X134875317Y-103453162D01*
X135091441Y-103314090D01*
X135236431Y-103101890D01*
X135287440Y-102850000D01*
X135287440Y-101885750D01*
X136505000Y-101885750D01*
X136505000Y-102976310D01*
X136601673Y-103209699D01*
X136780302Y-103388327D01*
X137013691Y-103485000D01*
X138129250Y-103485000D01*
X138288000Y-103326250D01*
X138288000Y-101727000D01*
X138542000Y-101727000D01*
X138542000Y-103326250D01*
X138700750Y-103485000D01*
X139816309Y-103485000D01*
X140049698Y-103388327D01*
X140228327Y-103209699D01*
X140325000Y-102976310D01*
X140325000Y-101885750D01*
X140166250Y-101727000D01*
X138542000Y-101727000D01*
X138288000Y-101727000D01*
X136663750Y-101727000D01*
X136505000Y-101885750D01*
X135287440Y-101885750D01*
X135287440Y-100350000D01*
X135263674Y-100223690D01*
X136505000Y-100223690D01*
X136505000Y-101314250D01*
X136663750Y-101473000D01*
X138288000Y-101473000D01*
X138288000Y-99873750D01*
X138542000Y-99873750D01*
X138542000Y-101473000D01*
X140166250Y-101473000D01*
X140196631Y-101442619D01*
X141764613Y-101442619D01*
X142104155Y-102264372D01*
X142732321Y-102893636D01*
X143553481Y-103234611D01*
X144442619Y-103235387D01*
X145264372Y-102895845D01*
X145893636Y-102267679D01*
X146234611Y-101446519D01*
X146235387Y-100557381D01*
X145895845Y-99735628D01*
X145267679Y-99106364D01*
X144446519Y-98765389D01*
X143557381Y-98764613D01*
X142735628Y-99104155D01*
X142106364Y-99732321D01*
X141765389Y-100553481D01*
X141764613Y-101442619D01*
X140196631Y-101442619D01*
X140325000Y-101314250D01*
X140325000Y-100223690D01*
X140228327Y-99990301D01*
X140049698Y-99811673D01*
X139816309Y-99715000D01*
X138700750Y-99715000D01*
X138542000Y-99873750D01*
X138288000Y-99873750D01*
X138129250Y-99715000D01*
X137013691Y-99715000D01*
X136780302Y-99811673D01*
X136601673Y-99990301D01*
X136505000Y-100223690D01*
X135263674Y-100223690D01*
X135243162Y-100114683D01*
X135104090Y-99898559D01*
X134891890Y-99753569D01*
X134640000Y-99702560D01*
X132090000Y-99702560D01*
X131854683Y-99746838D01*
X131685000Y-99856026D01*
X131685000Y-98685000D01*
X154315000Y-98685000D01*
X154315000Y-99153768D01*
X154315000Y-99153768D01*
G37*
X154315000Y-99153768D02*
X154267679Y-99106364D01*
X153446519Y-98765389D01*
X152557381Y-98764613D01*
X151735628Y-99104155D01*
X151106364Y-99732321D01*
X150765389Y-100553481D01*
X150764613Y-101442619D01*
X151104155Y-102264372D01*
X151732321Y-102893636D01*
X151886267Y-102957560D01*
X151645000Y-102957560D01*
X151409683Y-103001838D01*
X151193559Y-103140910D01*
X151048569Y-103353110D01*
X150997560Y-103605000D01*
X150997560Y-104905000D01*
X151041838Y-105140317D01*
X151180910Y-105356441D01*
X151297560Y-105436145D01*
X151297560Y-105910000D01*
X151341838Y-106145317D01*
X151480910Y-106361441D01*
X151693110Y-106506431D01*
X151945000Y-106557440D01*
X152097560Y-106557440D01*
X152097560Y-107180000D01*
X152123895Y-107319956D01*
X152097560Y-107450000D01*
X152097560Y-108450000D01*
X152123895Y-108589956D01*
X152097560Y-108720000D01*
X152097560Y-109720000D01*
X152123895Y-109859956D01*
X152097560Y-109990000D01*
X152097560Y-110990000D01*
X152123895Y-111129956D01*
X152097560Y-111260000D01*
X152097560Y-112260000D01*
X152141838Y-112495317D01*
X152280910Y-112711441D01*
X152493110Y-112856431D01*
X152745000Y-112907440D01*
X154245000Y-112907440D01*
X154315000Y-112894269D01*
X154315000Y-113315000D01*
X151892440Y-113315000D01*
X151892440Y-112272500D01*
X151848162Y-112037183D01*
X151709090Y-111821059D01*
X151496890Y-111676069D01*
X151245000Y-111625060D01*
X150245000Y-111625060D01*
X150009683Y-111669338D01*
X149793559Y-111808410D01*
X149648569Y-112020610D01*
X149597560Y-112272500D01*
X149597560Y-113315000D01*
X131685000Y-113315000D01*
X131685000Y-103341815D01*
X131838110Y-103446431D01*
X132090000Y-103497440D01*
X132630000Y-103497440D01*
X132630000Y-103537607D01*
X132557808Y-103609673D01*
X132415162Y-103953201D01*
X132414838Y-104325167D01*
X132556883Y-104668943D01*
X132819673Y-104932192D01*
X133163201Y-105074838D01*
X133487282Y-105075120D01*
X133218946Y-105476715D01*
X133105907Y-106045000D01*
X133218946Y-106613285D01*
X133540853Y-107095054D01*
X133870026Y-107315000D01*
X133540853Y-107534946D01*
X133218946Y-108016715D01*
X133105907Y-108585000D01*
X133218946Y-109153285D01*
X133540853Y-109635054D01*
X133870026Y-109855000D01*
X133540853Y-110074946D01*
X133218946Y-110556715D01*
X133105907Y-111125000D01*
X133218946Y-111693285D01*
X133540853Y-112175054D01*
X134022622Y-112496961D01*
X134590907Y-112610000D01*
X134649093Y-112610000D01*
X135217378Y-112496961D01*
X135699147Y-112175054D01*
X135890000Y-111889422D01*
X136080853Y-112175054D01*
X136562622Y-112496961D01*
X137130907Y-112610000D01*
X137189093Y-112610000D01*
X137757378Y-112496961D01*
X138239147Y-112175054D01*
X138325545Y-112045750D01*
X142110000Y-112045750D01*
X142110000Y-112386310D01*
X142206673Y-112619699D01*
X142385302Y-112798327D01*
X142618691Y-112895000D01*
X143859250Y-112895000D01*
X144018000Y-112736250D01*
X144018000Y-111887000D01*
X144272000Y-111887000D01*
X144272000Y-112736250D01*
X144430750Y-112895000D01*
X145671309Y-112895000D01*
X145904698Y-112798327D01*
X146083327Y-112619699D01*
X146180000Y-112386310D01*
X146180000Y-112045750D01*
X146021250Y-111887000D01*
X144272000Y-111887000D01*
X144018000Y-111887000D01*
X142268750Y-111887000D01*
X142110000Y-112045750D01*
X138325545Y-112045750D01*
X138449659Y-111860000D01*
X139065000Y-111860000D01*
X139346272Y-111804051D01*
X139584723Y-111644723D01*
X140193678Y-111035768D01*
X140439673Y-111282192D01*
X140783201Y-111424838D01*
X141155167Y-111425162D01*
X141498943Y-111283117D01*
X141557162Y-111225000D01*
X142110000Y-111225000D01*
X142110000Y-111474250D01*
X142268750Y-111633000D01*
X142723075Y-111633000D01*
X142745000Y-111637440D01*
X145545000Y-111637440D01*
X145568597Y-111633000D01*
X146021250Y-111633000D01*
X146180000Y-111474250D01*
X146180000Y-111133690D01*
X146168812Y-111106679D01*
X146192440Y-110990000D01*
X146192440Y-109990000D01*
X146166105Y-109850044D01*
X146192440Y-109720000D01*
X146192440Y-108720000D01*
X146166105Y-108580044D01*
X146192440Y-108450000D01*
X146192440Y-107450000D01*
X146166105Y-107310044D01*
X146192440Y-107180000D01*
X146192440Y-106180000D01*
X146166105Y-106040044D01*
X146192440Y-105910000D01*
X146192440Y-104910000D01*
X146148162Y-104674683D01*
X146009090Y-104458559D01*
X145796890Y-104313569D01*
X145545000Y-104262560D01*
X142745000Y-104262560D01*
X142509683Y-104306838D01*
X142293559Y-104445910D01*
X142148569Y-104658110D01*
X142145149Y-104675000D01*
X141557419Y-104675000D01*
X141500327Y-104617808D01*
X141156799Y-104475162D01*
X140784833Y-104474838D01*
X140441057Y-104616883D01*
X140177808Y-104879673D01*
X140035162Y-105223201D01*
X140034838Y-105595167D01*
X140176883Y-105938943D01*
X140208123Y-105970238D01*
X140053728Y-106000949D01*
X139815277Y-106160276D01*
X139395554Y-106580000D01*
X138645000Y-106580000D01*
X138645000Y-106330750D01*
X138486250Y-106172000D01*
X137287000Y-106172000D01*
X137287000Y-106192000D01*
X137033000Y-106192000D01*
X137033000Y-106172000D01*
X137013000Y-106172000D01*
X137013000Y-105918000D01*
X137033000Y-105918000D01*
X137033000Y-104718750D01*
X137287000Y-104718750D01*
X137287000Y-105918000D01*
X138486250Y-105918000D01*
X138645000Y-105759250D01*
X138645000Y-105068690D01*
X138548327Y-104835301D01*
X138369698Y-104656673D01*
X138136309Y-104560000D01*
X137445750Y-104560000D01*
X137287000Y-104718750D01*
X137033000Y-104718750D01*
X136874250Y-104560000D01*
X136183691Y-104560000D01*
X135950302Y-104656673D01*
X135771673Y-104835301D01*
X135703097Y-105000858D01*
X135699147Y-104994946D01*
X135217378Y-104673039D01*
X134649093Y-104560000D01*
X134590907Y-104560000D01*
X134151730Y-104647358D01*
X134284838Y-104326799D01*
X134285162Y-103954833D01*
X134143117Y-103611057D01*
X134100000Y-103567865D01*
X134100000Y-103497440D01*
X134640000Y-103497440D01*
X134875317Y-103453162D01*
X135091441Y-103314090D01*
X135236431Y-103101890D01*
X135287440Y-102850000D01*
X135287440Y-101885750D01*
X136505000Y-101885750D01*
X136505000Y-102976310D01*
X136601673Y-103209699D01*
X136780302Y-103388327D01*
X137013691Y-103485000D01*
X138129250Y-103485000D01*
X138288000Y-103326250D01*
X138288000Y-101727000D01*
X138542000Y-101727000D01*
X138542000Y-103326250D01*
X138700750Y-103485000D01*
X139816309Y-103485000D01*
X140049698Y-103388327D01*
X140228327Y-103209699D01*
X140325000Y-102976310D01*
X140325000Y-101885750D01*
X140166250Y-101727000D01*
X138542000Y-101727000D01*
X138288000Y-101727000D01*
X136663750Y-101727000D01*
X136505000Y-101885750D01*
X135287440Y-101885750D01*
X135287440Y-100350000D01*
X135263674Y-100223690D01*
X136505000Y-100223690D01*
X136505000Y-101314250D01*
X136663750Y-101473000D01*
X138288000Y-101473000D01*
X138288000Y-99873750D01*
X138542000Y-99873750D01*
X138542000Y-101473000D01*
X140166250Y-101473000D01*
X140196631Y-101442619D01*
X141764613Y-101442619D01*
X142104155Y-102264372D01*
X142732321Y-102893636D01*
X143553481Y-103234611D01*
X144442619Y-103235387D01*
X145264372Y-102895845D01*
X145893636Y-102267679D01*
X146234611Y-101446519D01*
X146235387Y-100557381D01*
X145895845Y-99735628D01*
X145267679Y-99106364D01*
X144446519Y-98765389D01*
X143557381Y-98764613D01*
X142735628Y-99104155D01*
X142106364Y-99732321D01*
X141765389Y-100553481D01*
X141764613Y-101442619D01*
X140196631Y-101442619D01*
X140325000Y-101314250D01*
X140325000Y-100223690D01*
X140228327Y-99990301D01*
X140049698Y-99811673D01*
X139816309Y-99715000D01*
X138700750Y-99715000D01*
X138542000Y-99873750D01*
X138288000Y-99873750D01*
X138129250Y-99715000D01*
X137013691Y-99715000D01*
X136780302Y-99811673D01*
X136601673Y-99990301D01*
X136505000Y-100223690D01*
X135263674Y-100223690D01*
X135243162Y-100114683D01*
X135104090Y-99898559D01*
X134891890Y-99753569D01*
X134640000Y-99702560D01*
X132090000Y-99702560D01*
X131854683Y-99746838D01*
X131685000Y-99856026D01*
X131685000Y-98685000D01*
X154315000Y-98685000D01*
X154315000Y-99153768D01*
M02*
